<?xml version="1.0" encoding="UTF-8"?> <svg xmlns="http://www.w3.org/2000/svg" width="350" height="104" viewBox="0 0 350 104" fill="none"><path fill-rule="evenodd" clip-rule="evenodd" d="M334.695 102.815C337.745 101.426 340.355 98.1331 341.903 93.7204C343.058 90.4255 342.951 86.7392 341.538 81.2136C341.112 79.5495 341.171 79.4725 342.374 80.1176C345.365 81.7221 345.075 79.7637 342.007 77.6394C340.032 76.2722 339.484 75.3415 338.324 71.3853C337.575 68.8288 337.04 66.6575 337.137 66.5611C337.234 66.464 338.129 66.8091 339.125 67.3277C340.464 68.0247 341.003 68.0761 341.188 67.5243C341.326 67.1141 340.926 66.4834 340.299 66.1233C338.101 64.8576 334.623 61.4669 333.73 59.7184C333.233 58.747 332.003 56.8957 330.996 55.6037C329.989 54.3123 329.301 53.1193 329.467 52.9527C329.633 52.7867 330.733 52.9276 331.911 53.2658C334.786 54.0919 337.49 54.0274 339.325 53.0892C341.457 51.9995 341.706 50.75 339.791 50.75C338.931 50.75 336.938 50.1958 335.361 49.5188C332.776 48.4084 330.537 47.9606 324.65 47.375C323.598 47.2704 321.097 46.1331 319.091 44.8473C315.353 42.4512 309.32 39.477 308.199 39.477C307.854 39.477 307.399 39.1983 307.189 38.8576C306.979 38.5175 307.173 38.3709 307.621 38.5325C309.38 39.1688 316.354 40.6269 316.016 40.2887C315.818 40.0908 316.72 39.4025 318.018 38.7587C320.362 37.5963 325.48 32.861 324.957 32.3374C324.807 32.1871 323.138 32.4601 321.248 32.9443C318.945 33.5336 317.341 34.396 316.388 35.5546C315.607 36.5066 314.652 37.669 314.267 38.138C313.761 38.7549 312.855 38.8658 311.001 38.5395C309.59 38.2909 307.688 38.0478 306.775 37.999C305.863 37.9508 305.216 37.7491 305.338 37.5512C305.673 37.0089 294.232 34.5882 287.538 33.7854C283.986 33.3595 278.769 33.2499 274.413 33.5098C265.089 34.0653 263.991 34.2444 258.602 36.0807L254.1 37.615L257.516 34.0408C266.309 24.8402 268.787 22.6225 269.857 22.9958C270.449 23.2025 272.057 24.4425 273.433 25.7514C276.54 28.7094 278.482 29.459 283.005 29.4471C288.237 29.4327 288.792 28.8277 286.26 25.9068C285.115 24.5872 283.741 23.2488 283.208 22.9338C282.674 22.6181 279.483 22.4221 276.116 22.4973C272.749 22.5724 269.995 22.5079 269.995 22.3532C269.995 21.7551 276.218 18.8523 279.634 17.8578C283.108 16.8457 283.27 16.852 284.58 18.0463C287.038 20.2897 290.2 20.9066 293.809 19.8463C295.566 19.3302 298.239 18.9782 299.75 19.064C302.81 19.2369 303.251 18.6645 301.004 17.4351C300.182 16.9854 298.173 15.7923 296.538 14.7827C293.561 12.9452 286.871 11.6977 286.871 12.9803C286.871 13.8715 282.469 16.1637 279.453 16.8426C277.08 17.3768 276.825 17.3274 277.182 16.4049C278.274 13.576 278.177 11.9695 276.75 9.28406L275.258 6.47581L274.104 8.85318C273.013 11.1022 272.999 14.2548 274.07 17.0512C274.286 17.6142 273.186 18.5229 270.857 19.7041C268.91 20.6923 265.564 23.2225 263.422 25.3268L259.527 29.1534L259.195 24.3079C258.867 19.4943 258.878 19.4467 260.96 17.1695C263.689 14.184 264.329 11.0501 263.473 4.85935C262.845 0.323829 262.73 0.066428 261.795 1.10167C261.242 1.71292 259.931 2.89536 258.882 3.72957C255.341 6.54094 254.986 8.57694 256.786 15.7347C257.429 18.2874 258.145 21.4326 258.378 22.7246L258.801 25.0732L256.515 23.5188C255.257 22.6639 253.439 20.718 252.476 19.1955C251.173 17.1376 250.189 16.3128 248.64 15.9803C247.493 15.7348 246.198 15.2443 245.759 14.8905C245.321 14.5366 244.804 14.4057 244.611 14.5999C244.287 14.9243 245.153 15.5424 248.431 17.3261C249.118 17.7 249.712 18.6012 249.751 19.3283L249.821 20.651L247.96 19.3227C246.17 18.0457 246.124 18.0425 246.764 19.2406C247.13 19.9264 249.483 21.3505 251.993 22.4058C257.792 24.8439 259.238 26.5856 258.24 29.9243C257.056 33.8837 251.412 38.4706 243.054 42.2658C232.951 46.8533 233.671 46.6892 234.728 44.1559C235.628 41.9977 235.938 37.5017 235.236 36.7978C234.668 36.2285 231.866 39.7964 231.305 41.8042C231.037 42.763 231.03 44.3288 231.292 45.2826C231.723 46.8596 231.557 47.1064 229.473 47.9831C216.636 53.3842 199.433 53.2382 188.853 47.6393L186.552 46.4212L188.383 46.3936C189.39 46.3786 191.193 46.0135 192.391 45.5832C193.953 45.0214 194.635 44.9964 194.802 45.4943C194.93 45.8763 195.38 46.661 195.801 47.2384C196.478 48.1653 196.712 48.1823 197.801 47.3838C199.013 46.4957 199.015 46.4556 197.854 45.1698C196.794 43.9968 196.78 43.8609 197.721 43.8609C198.299 43.8609 199.038 44.5655 199.365 45.4266C199.692 46.2878 200.388 46.9923 200.912 46.9923C202.162 46.9923 202.125 45.8124 200.831 44.3801C199.86 43.3054 199.877 43.2347 201.092 43.2347C201.805 43.2347 202.833 43.0637 203.377 42.8545C204.089 42.5808 204.366 42.8495 204.366 43.8133C204.366 45.1561 205.928 46.2621 206.713 45.4755C206.943 45.245 206.788 44.506 206.368 43.8327C205.676 42.7217 205.776 42.6084 207.444 42.6084C208.971 42.6084 209.316 42.8921 209.481 44.2824C209.59 45.203 210.07 46.0855 210.548 46.2427C211.19 46.4544 211.335 46.098 211.103 44.8787C210.823 43.4113 210.971 43.2421 212.439 43.3536C213.347 43.4231 214.437 43.2641 214.863 43.001C216.294 42.1148 215.012 41.4723 212.491 41.8112C210.252 42.1118 209.991 42.0078 209.991 40.8122C209.991 39.4237 209.525 39.2152 207.858 39.8559C207.316 40.0638 207.028 40.4865 207.219 40.7953C207.409 41.1034 206.955 41.3558 206.211 41.3558C205.277 41.3558 204.966 41.0702 205.209 40.4364C205.402 39.931 205.289 39.3493 204.957 39.1432C203.937 38.5113 202.018 39.4519 201.679 40.7502C201.502 41.4278 200.935 41.9821 200.42 41.9821C199.792 41.9821 199.59 41.5706 199.807 40.737C200.012 39.9529 199.765 39.3511 199.14 39.1106C198.018 38.6798 196.24 40.1741 196.24 41.5475C196.24 42.9165 195.081 43.5754 190.561 44.7766C186.5 45.8557 186.409 45.8519 183.805 44.5204C180.508 42.8357 177.734 39.8315 176.834 36.9719C176.454 35.7663 176.021 34.396 175.871 33.9262C175.434 32.5566 173.931 34.1906 173.482 36.5247C172.988 39.0943 169.129 43.3568 166.02 44.7666C163.979 45.6922 163.182 45.7479 160.759 45.1367C156.601 44.0876 153.595 42.7192 154.002 42.0604C154.196 41.7447 153.839 40.846 153.206 40.0638C151.782 38.3021 149.682 38.7806 150.298 40.7264C150.808 42.3359 148.884 42.4894 148.294 40.8861C147.476 38.6653 144.987 38.076 144.987 40.1033C144.987 40.95 144.57 41.3558 143.7 41.3558C142.992 41.3558 142.568 41.1034 142.758 40.7953C142.949 40.4865 142.661 40.0638 142.119 39.8559C140.453 39.2152 139.986 39.4237 139.986 40.8122C139.986 42.0078 139.726 42.1118 137.486 41.8112C136.111 41.6264 134.838 41.716 134.656 42.0103C134.142 42.8445 136.503 43.8377 138.042 43.4344C139.289 43.1075 139.383 43.2428 138.993 44.8004C138.661 46.1237 138.764 46.4619 139.429 46.2427C139.908 46.0855 140.388 45.203 140.496 44.2824C140.663 42.8764 141 42.6084 142.605 42.6084C144.255 42.6084 144.406 42.7399 143.715 43.5741C143.126 44.2849 143.099 44.7252 143.612 45.2387C144.499 46.1274 146.442 44.6751 145.981 43.4689C145.745 42.8558 146.17 42.7468 147.671 43.033C150.247 43.524 150.538 43.8152 149.201 44.5655C148.602 44.9012 148.112 45.5845 148.112 46.0843C148.112 47.5767 149.96 47.112 150.726 45.4266C151.117 44.5655 151.815 43.8609 152.275 43.8609C153.38 43.8609 153.332 44.357 152.105 45.5857C151.18 46.5133 151.191 46.6629 152.254 47.4414C153.245 48.1666 153.52 48.1378 154.176 47.2384C154.597 46.661 155.047 45.8763 155.175 45.4943C155.342 44.9964 156.024 45.0214 157.586 45.5832C158.784 46.0135 160.728 46.3686 161.907 46.3723C164.035 46.378 164.028 46.3886 160.741 47.9217C155.268 50.4751 151.275 51.402 144.049 51.7972C136.173 52.228 130.9 51.4965 123.423 48.9382C119.925 47.7414 118.487 46.9566 118.637 46.3272C119.598 42.3009 119.468 41.6045 117.265 38.9616L115.049 36.3042L114.612 38.6365C114.218 40.7433 114.387 41.6075 115.91 45.265C116.338 46.2921 116.222 46.2972 113.956 45.3552C104.617 41.4717 98.5712 38.1217 95.6866 35.2308C92.2964 31.8338 90.8163 28.276 91.9282 26.1942C92.282 25.5322 95.0003 23.8106 97.9693 22.3695C100.939 20.9284 103.489 19.3496 103.638 18.8617C103.822 18.2549 103.328 18.3883 102.075 19.282C100.293 20.5527 100.24 20.5558 100.151 19.3797C100.089 18.5592 100.839 17.7714 102.48 16.9328C106.074 15.0959 106.069 14.3657 102.471 15.6834C99.19 16.8846 97.1386 18.7603 96.4836 21.1583C96.2717 21.933 95.7447 22.5674 95.3122 22.5674C94.8803 22.5674 93.8259 23.1205 92.9683 23.7956L91.4101 25.0243L91.8545 22.6996C92.0995 21.4214 92.8083 17.9687 93.4302 15.0277C94.0515 12.0867 94.3772 8.94896 94.1534 8.05526C93.7671 6.51461 92.1677 4.61324 88.5712 1.41984L86.9717 6.1223e-06L86.5354 5.25389C85.9935 11.7678 86.441 13.9047 88.9493 16.7762C90.8226 18.9212 90.9207 19.2926 90.9207 24.2408C90.9207 27.1048 90.91 29.4502 90.8969 29.4528C90.8838 29.4546 89.0555 27.6804 86.8342 25.5091C83.1964 21.9537 81.7476 20.9303 77.0135 18.5711C76.1697 18.1509 75.7434 17.5058 75.9491 16.9591C76.9973 14.169 76.981 10.5322 75.9116 8.54316L74.7909 6.4576L73.3239 9.22204C71.5969 12.4768 71.5376 13.2427 72.8201 15.7278L73.7833 17.5941L72.0388 17.2058C68.133 16.3378 66.1066 15.4917 64.3152 13.9818C62.7239 12.6403 61.9682 12.4367 59.4642 12.6778C57.6941 12.8482 55.2952 13.7005 53.5145 14.7909C51.8738 15.7955 49.8449 16.9854 49.0061 17.4351C46.7215 18.6582 47.156 19.2375 50.2274 19.064C51.7388 18.9782 54.4502 19.3414 56.2528 19.8712C59.9474 20.9566 63.0833 20.4042 65.3753 18.2649C66.9835 16.7637 70.1931 17.2208 75.1659 19.6589C77.0242 20.5696 78.868 21.3149 79.2637 21.3149C79.6587 21.3149 79.9825 21.6248 79.9825 22.0037C79.9825 22.4634 78.1611 22.6457 74.5134 22.5511C66.4766 22.3432 66.9873 22.1591 63.1976 26.6282C61.3219 28.8402 62.1088 29.4339 66.9366 29.4471C71.0556 29.4584 74.0546 28.3486 76.2322 26.0069C77.0917 25.0831 78.5768 23.9196 79.5325 23.4217C81.2544 22.5242 81.3126 22.5593 86.1023 27.3954C88.7606 30.079 91.9995 33.4271 93.3008 34.8362L95.6666 37.3978L91.3332 35.9824C85.9066 34.2094 84.6053 34.0152 74.9821 33.5411C69.6193 33.2774 65.0127 33.4446 60.2937 34.0753C51.9344 35.1926 44.2776 36.9662 44.7202 37.6827C44.8989 37.9727 44.6608 38.0622 44.1908 37.8812C43.7207 37.7009 42.6513 37.853 41.8144 38.2194L40.2924 38.8858L41.7887 38.5902C44.0332 38.1467 42.6388 39.0662 38.251 40.9237C36.0971 41.8356 32.6981 43.6706 30.6974 45.002C27.5397 47.1032 26.4502 47.4696 22.4256 47.7802C19.8736 47.9775 16.4333 48.7252 14.7701 49.4442C13.1087 50.1625 11.0786 50.75 10.2579 50.75C9.25538 50.75 8.8741 51.03 9.09411 51.6049C9.93417 53.7969 15.2545 54.5102 19.4842 52.9971L21.8025 52.1679L19.7473 54.7469C18.6172 56.1655 16.9165 58.6862 15.9683 60.3496C14.8776 62.261 13.23 63.9864 11.4855 65.0417C8.02779 67.1348 7.65778 68.7505 10.9524 67.3715C13.0125 66.5091 13.1525 66.5197 12.845 67.5193C12.6631 68.113 11.9399 70.4753 11.2386 72.7688C10.168 76.2684 9.60664 77.1496 7.74652 78.2493C5.40762 79.6322 5.29825 80.9379 7.57027 80.3424C8.78222 80.0248 8.86785 80.1664 8.45282 81.8103C7.11711 87.0999 6.93272 90.2745 7.81466 92.779C10.2804 99.7834 13.9732 103.324 19.3491 103.842C22.2368 104.12 22.5975 103.99 24.6507 101.933C27.2578 99.3205 27.5866 96.5762 25.5389 94.5245C24.1513 93.1341 21.3336 93.203 19.5691 94.6698C18.2147 95.7964 18.5772 96.1553 21.0718 96.1553C23.3819 96.1553 23.4151 96.1904 23.3425 98.5308C23.17 104.102 15.7577 104.256 11.5849 98.7744C8.64782 94.9159 6.80646 87.068 9.04036 87.9272C10.0817 88.3274 10.3379 87.3711 9.35288 86.7611C8.35281 86.1417 8.61347 84.0631 10.3942 78.4629L12.0599 73.2222L13.0025 75.2945C13.8469 77.1502 13.9707 77.2235 14.1876 75.9947C14.3213 75.2401 13.9919 73.9524 13.4563 73.1333C12.555 71.7542 12.5968 71.3515 14.0226 67.7059C15.327 64.3703 18.4872 58.2673 18.911 58.2648C18.9823 58.2641 18.946 59.7866 18.8304 61.6485C18.6329 64.825 19.4204 67.6596 20.5005 67.6596C21.3174 67.6596 22.4281 60.6045 22.0787 57.6391C21.8074 55.3406 21.99 54.5615 23.0694 53.4173C27.129 49.1104 37.4028 43.1426 45.9178 40.1446L51.5431 38.1636L47.2278 42.5344C44.8546 44.9381 42.1825 47.0825 41.29 47.2998C38.6004 47.9543 35.3433 50.4394 34.0708 52.8073C33.4107 54.0348 32.15 55.3964 31.2687 55.8329L29.6667 56.6264L31.2018 56.8801C34.0557 57.3516 37.4097 55.8467 39.2854 53.252C40.258 51.9061 42.4888 49.2325 44.2427 47.3098L47.4303 43.8146L46.1697 46.6711C44.8877 49.5745 44.5195 54.1113 45.2827 57.5934C45.8215 60.0509 47.4804 60.1718 47.4804 57.7543C47.4804 56.5337 48.1385 55.407 49.6174 54.095C52.1282 51.8679 53.0657 48.9175 53.0301 43.3599C53.0157 41.1898 53.327 39.0255 53.7208 38.5495C54.1152 38.0735 55.8959 37.3589 57.6779 36.9618C62.5051 35.8853 77.7148 35.512 82.4764 36.3531C87.0348 37.1578 94.3265 39.1657 97.1711 40.3989C98.2024 40.8461 100.101 41.5826 101.39 42.036C104.57 43.1539 104.337 43.8509 100.765 43.9092C97.5036 43.9618 97.2542 44.0025 92.9502 45.1843C89.9806 46.0003 89.9781 45.9997 88.2624 44.0018C86.8623 42.3716 85.7378 41.84 82.1701 41.1197C79.7637 40.6344 77.7167 40.3087 77.6211 40.3964C77.1242 40.8529 78.8737 43.906 80.6557 45.6921C82.4314 47.4708 83.0308 47.7013 85.3984 47.5121C86.8885 47.3938 88.108 47.3619 88.108 47.4414C88.108 47.5209 87.3348 47.9882 86.3891 48.4785C85.4434 48.9695 83.2821 50.7895 81.5851 52.5224C78.583 55.588 78.4205 55.6645 75.6091 55.3306C73.3739 55.0651 72.0988 55.3043 69.9837 56.3853C68.4798 57.1543 66.176 57.7687 64.864 57.7506C62.6995 57.7205 62.5388 57.8289 63.1239 58.9242C64.264 61.0592 67.3654 62.2103 70.875 61.802C73.7446 61.4682 74.3852 61.0761 77.6454 57.6573C79.6262 55.5805 81.3769 53.8814 81.5363 53.8814C81.6963 53.8814 81.5526 54.6041 81.2169 55.4878C79.8656 59.0489 81.1082 66.598 83.3471 68.4287C85.2441 69.98 85.6078 69.8108 85.6078 67.3759C85.6078 66.1866 85.9247 64.5163 86.3123 63.6645C87.1861 61.7425 86.726 59.7948 84.6859 56.7824C82.687 53.8313 82.7064 53.0522 84.8247 51.0838C86.3979 49.6227 95.0059 45.5538 95.4929 46.0417C95.6079 46.1569 94.981 47.3431 94.099 48.6777C92.2202 51.5229 91.2882 56.5857 92.5045 57.3391C92.9889 57.6391 93.6202 57.3892 94.1246 56.6978C95.0672 55.4064 96.6754 50.1018 96.9723 47.3086C97.1998 45.163 98.493 44.6864 104.432 44.5611C107.705 44.4923 109.916 45.1104 116.547 47.95C117.579 48.3915 119.618 49.1061 121.079 49.5376C123.965 50.3899 124.225 50.7964 122.798 52.2262C121.495 53.5313 121.62 53.8814 123.387 53.8814C124.227 53.8814 125.315 53.3084 125.805 52.6076C126.623 51.4377 126.944 51.3926 129.747 52.0514C131.425 52.446 137.017 52.7629 142.174 52.7547C151.217 52.741 151.737 52.6683 156.822 50.7181C166.604 46.966 173.282 41.8562 174.172 37.4416C174.556 35.5408 175.614 35.0811 175.614 36.8153C175.614 37.4184 176.846 39.4826 178.35 41.4028C181.38 45.2707 187.751 49.0666 195.092 51.3788C201.352 53.3504 204.991 57.4036 204.991 62.407C204.991 65.5741 207.774 70.1647 209.694 70.1647C211.485 70.1647 208.661 60.5331 206.054 57.7537C205.297 56.9464 204.776 56.116 204.896 55.9087C205.015 55.7008 203.956 54.911 202.54 54.1526L199.968 52.7742L208.886 52.8161C214.143 52.8412 218.886 52.5462 220.442 52.0984C222.832 51.4095 223.198 51.4577 224.348 52.6101C225.046 53.309 226.369 53.8814 227.288 53.8814L228.96 53.8814L227.516 52.3414L226.072 50.8008L227.563 50.202C241.875 44.4559 242.373 44.315 247.243 44.6281C249.823 44.7941 252.264 45.2588 252.665 45.6609C253.066 46.063 253.452 47.3023 253.524 48.4159C253.737 51.752 255.83 57.326 256.869 57.326C259.108 57.326 257.534 48.8781 255.003 47.3111C254.654 47.0951 254.369 46.6573 254.369 46.3385C254.369 45.6233 259.991 47.7827 263.582 49.8764C267.067 51.9086 267.46 53.5959 265.261 57.0861C263.475 59.9207 263.358 60.8375 264.086 66.2505C264.569 69.8403 264.717 69.9768 266.651 68.619C268.916 67.0295 270.294 58.0337 268.723 55.0927C267.486 52.7767 269.249 53.8758 271.942 57.0993C273.421 58.8691 275.548 60.701 276.668 61.1701C280.605 62.8184 284.824 61.9423 286.698 59.0871C287.57 57.7575 287.525 57.7174 285.203 57.7494C283.878 57.7675 281.605 57.1537 280.114 56.3753C277.96 55.2505 276.801 55.0419 274.328 55.3357C271.489 55.6726 271.148 55.568 270.162 54.0606C269.572 53.1575 267.483 51.2348 265.521 49.7874L261.953 47.1558L264.609 47.4558C267.7 47.8046 269.662 46.4312 271.866 42.3761L273.184 39.9517L271.433 40.4283C270.47 40.6907 268.474 41.1047 266.997 41.349C265.205 41.6446 263.61 42.4738 262.203 43.8403L260.094 45.8889L256.763 45.059C254.93 44.6024 253.221 44.1816 252.962 44.1233C252.704 44.0651 251.087 43.9824 249.368 43.9392C246.283 43.8622 245.21 43.0631 247.337 42.4274C247.938 42.2477 251.244 41.0853 254.681 39.844C264.179 36.4158 270.002 35.5133 279.995 35.9204C288.454 36.2648 289.853 36.4 293.547 37.2311C296.497 37.895 297.073 39.0229 297.252 44.491C297.433 49.9966 297.925 51.2993 301.071 54.5985C302.701 56.3077 303.143 57.2133 302.83 58.1996C302.534 59.1359 302.682 59.518 303.341 59.518C303.949 59.518 304.501 58.432 304.943 56.3653C305.681 52.9188 305.103 49.0046 303.342 45.5193C302.62 44.0908 303.357 44.6544 306.015 47.5647C308.034 49.7736 310.307 52.4905 311.066 53.6009C312.549 55.769 315.255 57.0247 318.372 56.9928L320.311 56.9734L318.574 55.6757C317.619 54.9618 316.408 53.5451 315.883 52.528C314.878 50.5809 309.841 46.9924 308.113 46.9924C307.554 46.9924 305.24 45.0534 302.969 42.6842L298.841 38.3753L301.556 39.1939C310.027 41.7485 319.743 47.013 325.185 51.997C328.24 54.7939 328.581 55.3544 328.33 57.1694C327.861 60.5776 327.865 60.9703 328.396 64.3716C328.679 66.1803 329.169 67.6596 329.486 67.6596C330.574 67.6596 331.829 63.488 331.486 61.0098L331.15 58.5785L333.181 61.7099C334.299 63.4322 336.441 68.4838 337.94 72.936C341.542 83.6272 341.966 85.5919 340.873 86.5006C339.951 87.2684 340.322 88.5874 341.293 87.9868C342.453 87.2684 341.826 92.4734 340.385 95.5291C338.216 100.126 335.712 102.23 332.059 102.526C328.408 102.822 326.956 101.846 326.456 98.7582C326.13 96.7466 326.253 96.491 327.733 96.119C328.634 95.8923 329.794 95.8698 330.31 96.0683C331.476 96.5167 331.54 95.6117 330.408 94.6698C328.644 93.203 325.826 93.1342 324.438 94.5245C322.415 96.5518 322.721 99.3218 325.248 101.854C327.752 104.363 330.647 104.657 334.695 102.815ZM336.766 76.2465C337.222 75.6948 337.497 74.5944 337.377 73.8003L337.159 72.3567L336.352 73.7984C335.908 74.5919 335.633 75.6923 335.741 76.2446C335.92 77.1653 336.005 77.1653 336.766 76.2465ZM219.992 68.7944C219.992 66.7252 217.735 63.8424 213.984 61.1181C212.132 59.7735 210.617 58.6512 210.617 58.6255C210.618 58.5998 211.49 58.5171 212.556 58.442C214.676 58.2929 218.188 56.483 218.567 55.3444C218.872 54.4288 212.195 53.9547 210.725 54.7877C210.149 55.114 208.732 55.7089 207.575 56.1097L205.472 56.8381L208.998 58.8597C210.937 59.972 213.994 62.2454 215.789 63.9119C218.888 66.7884 218.993 66.9876 217.865 67.8324C216.493 68.8589 217.004 70.1647 218.778 70.1647C219.61 70.1647 219.992 69.7332 219.992 68.7944ZM141.963 69.3819C143.735 67.9452 144.987 65.5227 144.987 63.528C144.987 60.5306 146.66 56.4128 148.451 55.0006C150.95 53.0316 149.821 52.999 146.345 54.9398C143.254 56.6665 143.159 56.679 141.338 55.6037C139.019 54.2346 131.083 54.0067 131.588 55.3237C132.066 56.575 135.344 58.2973 137.527 58.4458L139.484 58.5785L137.744 59.8311C132.109 63.8887 128.965 68.1399 130.478 69.6562C131.342 70.5217 133.111 69.8553 133.111 68.6647C133.111 68.1625 132.648 67.6602 132.081 67.5487C130.469 67.2318 133.65 63.838 138.614 60.5782C144.619 56.6358 144.614 56.637 142.933 59.3063C141.566 61.4744 139.986 66.8104 139.986 69.256C139.986 70.372 140.687 70.4165 141.963 69.3819ZM208.644 66.7202C208.646 64.3578 207.414 61.1293 206.438 60.9408C205.471 60.7542 206.09 65.2183 207.153 66.0939C207.571 66.4383 208.077 67.1429 208.278 67.6596C208.478 68.1763 208.643 67.7535 208.644 66.7202ZM143.297 66.5943C143.459 66.3187 143.762 64.8257 143.969 63.2756C144.177 61.7256 144.185 60.8112 143.988 61.244C143.791 61.6767 143.373 61.8715 143.058 61.6767C142.744 61.482 142.487 61.4118 142.487 61.5208C142.487 61.6291 142.229 62.6174 141.915 63.7165C141.494 65.1858 141.562 65.8978 142.172 66.4045C142.627 66.784 143.133 66.8692 143.297 66.5943ZM267.39 64.3716C268.127 61.9429 268.838 58.2479 268.355 59.3614C267.74 60.778 266.718 60.1774 267.023 58.5785C267.414 56.5256 267.114 56.6014 265.955 58.8472C264.906 60.8801 265.292 65.3436 266.383 63.7961C266.781 63.2318 266.85 63.5193 266.596 64.6848C266.076 67.0709 266.638 66.8492 267.39 64.3716ZM84.0733 64.0077C84.3977 62.5404 84.6903 62.169 85.0615 62.7552C85.4559 63.3796 85.5909 63.2925 85.5984 62.4101C85.6059 61.4318 83.3583 57.0128 82.8526 57.0128C82.7683 57.0128 82.8108 57.9284 82.9477 59.0482C83.1383 60.6089 83.0427 60.8644 82.5364 60.1442C81.5294 58.71 81.7057 61.8753 82.7633 64.215L83.6127 66.0939L84.0733 64.0077ZM330.624 62.1646C330.624 60.4048 330.354 58.799 330.026 58.5954C329.657 58.3668 329.571 59.4923 329.801 61.5333C330.291 65.8803 330.624 66.1352 330.624 62.1646ZM20.2198 61.4801C20.4648 59.6319 20.5324 57.9854 20.3692 57.822C19.9523 57.4042 19.1635 63.0182 19.4985 64.019C19.6498 64.4712 19.9742 63.3288 20.2198 61.4801ZM281.605 59.1554C278.532 58.0274 277.831 57.3322 280.308 57.869L282.183 58.2754L280.62 57.3535C279.732 56.8287 277.576 56.4436 275.62 56.4611L272.182 56.4905L275.308 58.0117C277.027 58.8484 277.73 59.3701 276.87 59.171C275.659 58.891 275.518 58.9574 276.245 59.4672C276.761 59.8292 278.73 60.1098 280.62 60.0904L284.058 60.0559L281.605 59.1554ZM73.7321 59.4672C74.459 58.9574 74.3184 58.891 73.107 59.171C72.2476 59.3701 72.9508 58.8484 74.6696 58.0117L77.7948 56.4905L74.3571 56.4611C72.4014 56.4435 70.2456 56.8287 69.3568 57.3535L67.7942 58.2754L69.6693 57.9491C71.3594 57.6547 71.2982 57.7424 69.0443 58.8372L66.5441 60.0515L69.6693 60.0885C71.3882 60.1085 73.2164 59.8292 73.7321 59.4672ZM214.991 56.6997C216.52 55.8241 216.493 55.8041 213.741 55.7922C211.876 55.7835 211.222 55.9657 211.8 56.3327C212.501 56.7773 212.44 56.9458 211.488 57.1901C210.585 57.4212 210.675 57.5057 211.866 57.5445C212.725 57.5721 214.132 57.1919 214.991 56.6997ZM139.114 57.1901C138.163 56.9458 138.101 56.7773 138.802 56.3327C139.373 55.9707 138.594 55.7841 136.549 55.7922C133.525 55.8041 133.474 55.8335 134.986 56.6997C135.845 57.1919 137.392 57.5721 138.424 57.5445C139.626 57.512 139.873 57.3848 139.114 57.1901ZM256.774 54.1946C256.778 53.1612 256.55 51.7521 256.267 51.0632C255.823 49.9797 255.697 49.9471 255.338 50.8239C255.11 51.3819 255.338 52.7911 255.845 53.9553L256.767 56.0734L256.774 54.1946ZM93.8177 55.4471C94.6141 54.0906 94.9553 51.4327 94.379 51.0757C94.044 50.8684 93.5965 51.3926 93.384 52.2406C92.942 54.0035 93.2652 56.389 93.8177 55.4471ZM313.729 54.234C312.894 53.1324 312.914 53.0598 313.936 53.4437C314.728 53.7412 314.932 53.6366 314.625 53.0917C313.928 51.8573 311.696 49.4975 311.225 49.4975C310.246 49.4975 311.494 52.637 313.011 53.9885C314.174 55.025 314.381 55.0964 313.729 54.234ZM37.5053 53.5407C38.9142 52.0383 39.6449 49.4975 38.6679 49.4975C38.2423 49.4975 36.5503 51.6538 35.3846 53.6816C34.5351 55.1584 36.0853 55.0557 37.5053 53.5407ZM335.71 51.0532C331.849 49.252 327.045 48.2556 327.752 49.4023C327.997 49.7987 328.673 50.1282 329.254 50.1332C330.117 50.1413 330.149 50.2459 329.429 50.7024C328.25 51.4502 332.423 52.6226 336.249 52.6195L339.062 52.6163L335.71 51.0532ZM304.366 51.5329C304.359 50.2453 301.816 44.724 300.399 42.9215C299.644 41.9602 299.705 42.4449 300.659 45.0033C301.342 46.837 301.614 48.1591 301.262 47.9412C300.91 47.7232 300.622 47.1927 300.622 46.7619C300.622 46.3316 300.209 45.4323 299.704 44.7634C298.859 43.643 298.785 43.8002 298.767 46.7663C298.752 49.0547 299.099 50.4125 299.964 51.4634L301.182 52.942L300.847 51.3763C300.584 50.1438 300.656 50.0104 301.183 50.75C301.749 51.5448 301.858 51.4966 301.888 50.4369C301.916 49.3785 302.066 49.4511 302.854 50.9066C303.932 52.8969 304.375 53.0804 304.366 51.5329ZM225.784 51.9249C225.359 51.4965 224.855 51.3043 224.663 51.4972C224.471 51.6901 224.818 52.0401 225.434 52.2756C226.324 52.6151 226.396 52.5437 225.784 51.9249ZM47.2572 50.9291C47.6422 49.3916 47.7285 49.3472 48.1629 50.4594C48.4954 51.3118 48.6698 51.4007 48.7304 50.75C48.7911 50.1037 48.9692 50.197 49.3011 51.0494C49.7824 52.2832 49.7868 52.2832 50.4299 51.0494C50.9543 50.0417 51.9732 42.2332 51.5106 42.7656C51.4356 42.8514 50.7506 44.0488 49.988 45.4266C48.7098 47.737 48.5479 47.0563 49.703 44.228C50.068 43.3355 49.988 43.1563 49.3911 43.5259C47.8166 44.5003 44.9733 52.6289 46.2065 52.6289C46.5503 52.6289 47.0228 51.8642 47.2572 50.9291ZM19.6661 51.712C20.6974 51.2391 21.2599 50.8189 20.9161 50.7788C20.5724 50.7388 20.9943 50.2772 21.8537 49.753C23.3969 48.8123 23.3851 48.8041 20.8961 49.0709C19.5104 49.22 17.1196 49.9039 15.5833 50.5909C14.0476 51.2779 12.3687 51.9957 11.853 52.1854C11.3374 52.3746 12.4625 52.5393 14.3532 52.5512C16.244 52.5631 18.6347 52.1855 19.6661 51.712ZM217.491 47.3199C217.491 46.3635 216.903 45.3822 215.956 44.7609C214.219 43.6205 213.116 44.0006 213.116 45.7398C213.116 47.2723 214.352 48.0232 215.051 46.916C215.456 46.2753 215.599 46.4162 215.607 47.4621C215.613 48.2931 216.001 48.8712 216.554 48.8712C217.135 48.8712 217.491 48.2812 217.491 47.3199ZM134.361 48.3181C134.361 48.0138 134.946 47.6117 135.66 47.4244C136.582 47.1827 136.9 46.6748 136.754 45.6778C136.474 43.7595 135.32 43.5259 133.775 45.0741C132.273 46.5796 132.061 48.8712 133.423 48.8712C133.939 48.8712 134.361 48.6219 134.361 48.3181ZM329.374 45.8212C329.374 45.5388 328.841 44.8242 328.189 44.233C327.327 43.4514 326.933 43.37 326.745 43.9355C326.432 44.8737 324.373 44.2161 324.373 43.1777C324.373 42.6548 324.63 42.6685 325.303 43.2284C326.057 43.8547 326.307 43.8103 326.62 42.9923C326.834 42.4368 327.558 41.9821 328.232 41.9821C328.905 41.9821 329.952 41.716 330.559 41.3909C331.298 40.9945 332.173 41.0646 333.211 41.6045C335.322 42.7023 339.999 43.4125 339.999 42.6359C339.999 42.2984 339.266 41.637 338.37 41.1667L336.74 40.3112L338.839 39.4713C339.992 39.0098 341.683 38.1173 342.596 37.4885C343.508 36.8597 344.822 36.3456 345.514 36.3456C347.306 36.3456 348.8 35.6805 348.414 35.0548C348.233 34.7617 347.639 34.6928 347.095 34.902C346.476 35.14 346.835 34.2732 348.052 32.5885C349.512 30.5694 350 29.2217 350 27.2076C350 25.7296 349.719 24.3461 349.375 24.1331C349.019 23.9133 348.75 24.4481 348.75 25.3738C348.75 27.4649 346.905 30.9965 344.202 34.0785C342.438 36.0882 342.001 36.3262 341.667 35.455C341.436 34.8513 341.519 34.5601 341.863 34.773C342.678 35.2772 343.437 32.0243 342.681 31.2671C342.296 30.8813 341.538 32.0549 340.571 34.5325C339.009 38.5363 338.02 39.353 333.402 40.459L331.561 40.8993L333.28 39.0581C334.98 37.2362 335.512 35.7193 334.45 35.7193C334.149 35.7193 333.552 36.1421 333.124 36.6587C332.696 37.1754 331.967 37.5982 331.503 37.5982C331.04 37.5982 330.024 38.4612 329.247 39.5152C328.007 41.1943 327.504 41.4122 325.185 41.2694C323.73 41.1799 322.395 41.2506 322.219 41.4266C321.499 42.1481 325.43 45.6377 327.342 45.9759C328.459 46.1732 329.374 46.1037 329.374 45.8212ZM22.1662 46.0586C22.51 45.9433 23.5594 45.6796 24.4989 45.4723C25.9277 45.1567 28.1041 42.5113 28.1041 41.0896C28.1041 40.0732 23.8963 41.8437 22.4012 43.4889C20.1311 45.9865 20.0605 46.7619 22.1662 46.0586ZM268.4 44.2586C270.952 41.8888 270.408 41.746 265.041 43.3787C263.042 43.9874 262.977 44.087 264.067 44.8849C265.703 46.0843 266.569 45.959 268.4 44.2586ZM85.7641 45.3083C88.173 44.677 86.4604 43.5496 81.3532 42.4042C80.0912 42.1211 80.0093 42.2113 80.6975 43.1275C82.5289 45.565 83.3814 45.9321 85.7641 45.3083ZM267.178 44.4941C267.397 44.1396 267.146 44.0345 266.59 44.248C265.507 44.6645 265.309 45.1135 266.208 45.1135C266.531 45.1135 266.968 44.8348 267.178 44.4941ZM234.609 42.9829C235.143 40.8498 234.054 39.2253 233.101 40.7346C232.777 41.2488 232.512 42.3735 232.512 43.2347C232.512 44.3551 232.665 44.5573 233.051 43.9467C233.504 43.2296 233.636 43.2291 233.874 43.9418C234.029 44.409 234.36 43.9775 234.609 42.9829ZM117.728 43.5027C117.936 42.961 117.783 41.9144 117.389 41.1773L116.674 39.8364L116.119 41.3383C115.522 42.956 115.84 44.4872 116.774 44.4872C117.091 44.4872 117.521 44.0438 117.728 43.5027ZM25.6839 43.4451C26.4684 42.4919 26.4084 42.4725 24.9789 43.2171C22.8838 44.3081 22.7256 44.4872 23.8607 44.4872C24.3914 44.4872 25.212 44.0182 25.6839 43.4451ZM13.27 42.785C14.2213 42.6409 15.7452 42.1356 16.6577 41.6615C17.7816 41.0765 18.6704 40.9895 19.4185 41.3909C20.0248 41.7159 21.1224 41.9821 21.8574 41.9821C23.0719 41.9821 23.1038 41.8925 22.2106 40.9982C21.6705 40.4564 21.2287 39.7845 21.2287 39.5039C21.2287 39.2227 20.2561 38.5313 19.0673 37.9658C17.8791 37.4009 16.7371 36.6644 16.5302 36.3287C16.3239 35.9936 15.8902 35.7193 15.5664 35.7193C14.4676 35.7193 14.9726 37.2105 16.6971 39.058L18.416 40.8992L16.5752 40.459C11.9387 39.3486 10.9624 38.5532 9.72042 34.8751C9.00099 32.7451 8.16281 31.3353 7.6159 31.3353C6.69397 31.3353 6.75645 32.7063 7.80215 35.4061C8.62533 37.5324 3.78627 31.815 2.46618 29.102C1.78489 27.7016 1.22297 25.8698 1.21797 25.0312C1.20985 23.8174 1.08485 23.6978 0.602317 24.4462C-0.480254 26.1247 -0.0652271 29.3381 1.53988 31.7079C3.12935 34.0546 3.57374 35.4587 2.52055 34.8068C2.20053 34.6082 1.78052 34.7035 1.58676 35.0172C1.18049 35.6755 2.6312 36.3456 4.46319 36.3456C5.15574 36.3456 6.46895 36.871 7.38151 37.513C8.29407 38.1555 10.0911 39.0561 11.3755 39.5146L13.7113 40.3487L11.8006 41.1535C10.7499 41.5963 10.0667 42.2457 10.2829 42.5964C10.4998 42.9478 10.8711 43.1927 11.1086 43.1407C11.3462 43.0893 12.3187 42.929 13.27 42.785ZM319.49 40.9281C319.039 40.7471 318.5 40.7696 318.292 40.9776C318.085 41.1855 318.454 41.3333 319.112 41.3064C319.841 41.2763 319.989 41.1279 319.49 40.9281ZM31.3462 40.9281C30.8955 40.7471 30.3561 40.7696 30.1486 40.9775C29.9411 41.1855 30.3099 41.3333 30.9687 41.3063C31.6968 41.2763 31.845 41.1279 31.3462 40.9281ZM331.883 39.4482C332.738 38.7906 333.155 38.2551 332.811 38.2582C331.984 38.2664 329.7 40.0131 330.054 40.367C330.206 40.5191 331.029 40.1058 331.883 39.4482ZM37.4797 39.7901C39.9661 39.068 40.0749 38.9678 38.4173 38.9221C37.0422 38.8839 35.959 38.1981 34.3545 36.3487C32.6606 34.3966 31.3912 33.6282 28.7298 32.9461C26.8396 32.4608 25.2302 32.1275 25.1533 32.2046C24.5657 32.7926 29.5561 37.4133 32.0087 38.5519C33.7526 39.3617 34.7108 40.112 34.2407 40.3005C32.7 40.918 34.657 40.6093 37.4797 39.7901ZM19.9786 40.2686C19.9786 39.6586 17.4565 38.0378 17.0852 38.4092C16.9365 38.5589 17.5265 39.1481 18.3966 39.7199C19.2666 40.2911 19.9786 40.5379 19.9786 40.2686ZM33.1332 37.3195C32.6894 36.784 32.5719 36.3362 32.8719 36.3249C34.1964 36.2742 30.3018 33.8405 28.896 33.8405C27.5716 33.8405 27.4478 33.987 28.1041 34.7799C28.5323 35.2966 29.2698 35.7193 29.743 35.7193C30.2167 35.7193 30.6043 35.956 30.6043 36.2447C30.6043 36.5341 31.355 37.1134 32.2719 37.5324C33.7557 38.2094 33.8507 38.1862 33.1332 37.3195ZM319.774 36.3938C322.463 34.7511 322.914 33.8405 321.042 33.8405C319.481 33.8405 315.875 36.2868 317.379 36.325C317.829 36.3362 318.023 36.6274 317.81 36.9719C317.274 37.8412 317.527 37.7666 319.774 36.3938ZM285.621 27.3973C285.621 25.5723 282.551 23.8168 279.442 23.8638C277.256 23.8976 276.86 24.0386 277.808 24.4463C278.659 24.8126 278.759 25.0049 278.12 25.0488C277.401 25.0976 277.473 25.3412 278.433 26.0965C279.649 27.0541 279.64 27.0698 278.12 26.6733C276.783 26.3239 276.72 26.3665 277.682 26.9702C278.301 27.3572 280.34 27.8332 282.214 28.0267C285.04 28.3192 285.621 28.2121 285.621 27.3973ZM71.0756 27.5031C72.1932 27.18 73.107 26.7635 73.107 26.5781C73.107 26.3928 72.4739 26.4297 71.7007 26.6608C70.3175 27.0741 70.315 27.0647 71.5444 26.0965C72.232 25.5554 72.5132 25.075 72.1695 25.03C71.8257 24.9849 72.2476 24.7218 73.107 24.4463C74.3021 24.063 73.8308 23.9302 71.1006 23.8826C67.9723 23.8275 67.336 24.0317 65.944 25.536C65.0709 26.4798 64.3565 27.4662 64.3565 27.728C64.3565 28.3711 68.563 28.2302 71.0756 27.5031ZM293.434 18.8386C294.508 18.3513 294.53 18.2655 293.59 18.2273C292.35 18.1778 292.079 16.9785 293.278 16.842C293.707 16.7932 292.934 16.5282 291.559 16.2533C289.439 15.8293 289.629 15.7873 292.809 15.979L296.559 16.205L293.516 14.9838C290.504 13.7751 289.192 13.8202 286.338 15.2312C284.881 15.952 284.889 15.9677 287.276 17.0824C288.706 17.7501 289.076 18.0889 288.187 17.9167C287.21 17.7275 286.903 17.8403 287.303 18.2411C288.192 19.1311 291.976 19.4999 293.434 18.8386ZM61.5438 18.8097L62.7939 18.2718L61.5438 18.1809C60.655 18.1164 60.99 17.782 62.7013 17.0242L65.109 15.9583L63.4501 15.0689C61.3813 13.9592 58.1854 14.0162 55.9259 15.2024C54.2427 16.086 54.2821 16.1042 57.5604 15.9758C59.4074 15.9032 60.0193 15.9639 58.9205 16.1098C57.496 16.2996 57.0222 16.6359 57.2685 17.2797C57.491 17.8603 57.1997 18.1991 56.4541 18.2273C55.3846 18.268 55.3915 18.3137 56.5435 18.8097C57.231 19.106 58.3561 19.3477 59.0436 19.3477C59.7312 19.3477 60.8562 19.106 61.5438 18.8097ZM259.597 15.6784C259.89 14.8172 260.359 12.5626 260.64 10.6681C260.92 8.77361 261.315 6.37809 261.516 5.34473C261.764 4.07276 261.276 4.67962 260.003 7.22357C258.071 11.0852 257.375 10.5341 259.065 6.48078C260.407 3.26358 259.719 3.14276 258.105 6.31236C256.916 8.64588 256.826 9.39112 257.356 12.4787C257.887 15.5725 257.979 15.7303 258.133 13.7995C258.3 11.6927 258.322 11.7171 258.686 14.4258C259.028 16.9685 259.117 17.0912 259.597 15.6784ZM91.2801 14.4258L91.4107 11.6075L91.8026 14.1126L92.1945 16.6178L92.6514 14.5041C93.434 10.8848 93.159 8.07971 91.807 5.88835C90.1307 3.1703 89.9337 3.22664 90.9669 6.12757C91.427 7.41896 91.7932 9.03977 91.7814 9.72868C91.767 10.5691 91.6589 10.6719 91.4539 10.0418C89.9163 5.31591 88.0905 3.19405 88.1174 6.16449C88.1261 7.07698 88.2111 7.09392 88.733 6.28414C89.1693 5.60775 89.3443 6.22088 89.3581 8.47612C89.3687 10.1984 89.7756 12.8757 90.2631 14.4258L91.1495 17.244L91.2801 14.4258ZM276.76 15.0189C277.334 13.4651 276.434 9.41555 275.515 9.41555C274.987 9.41555 274.733 10.4702 274.987 11.6075C275.065 11.952 275.265 13.0793 275.433 14.1127C275.836 16.5965 276.109 16.7831 276.76 15.0189ZM74.3477 15.1673C74.3527 14.37 74.6371 13.1926 74.9796 12.5513C75.3222 11.91 75.4178 10.9023 75.1922 10.3124C74.8096 9.31471 74.7227 9.31973 73.9439 10.3869C72.9683 11.724 72.8639 14.3325 73.7321 15.6783C74.219 16.4336 74.3396 16.3334 74.3477 15.1673ZM89.0412 13.403C88.5593 11.9789 88.3093 10.0061 88.4861 9.01907C88.7305 7.65565 88.6324 7.39769 88.0805 7.94632C87.1942 8.82687 87.8099 13.1625 89.0581 14.8378C89.7762 15.8011 89.7737 15.5643 89.0412 13.403ZM261.769 13.4569C262.168 12.5795 262.459 10.6775 262.416 9.22955L262.338 6.59729L261.857 9.72869C261.592 11.451 261.175 13.353 260.93 13.9561C260.235 15.6708 260.958 15.24 261.769 13.4569Z" fill="#A3AD7E"></path></svg> 