<?xml version="1.0" encoding="UTF-8"?> <svg xmlns="http://www.w3.org/2000/svg" width="35" height="34" viewBox="0 0 35 34" fill="none"><path fill-rule="evenodd" clip-rule="evenodd" d="M3.97476 1.01724C3.71423 1.57895 3.65074 2.41994 3.83369 2.88605C4.07394 3.4993 4.18901 3.55084 4.24896 3.07285C4.29481 2.70939 4.29217 2.21377 4.24324 1.97147C4.1943 1.72916 4.30229 1.67895 4.48348 1.86002C4.66466 2.04108 4.8626 2.93188 4.92343 3.83942C5.02483 5.35888 4.98427 5.42189 4.4103 4.63727C3.79446 3.79581 3.78653 3.7958 3.73187 4.64078C3.65252 5.87697 3.70277 8.5608 3.80769 8.68988C3.92539 8.83438 4.10348 9.55734 4.17269 10.1688C4.20311 10.4371 4.50111 10.5517 4.83526 10.4235C5.16941 10.2953 5.63317 10.3807 5.86549 10.6129C6.09781 10.8451 6.80535 11.1288 7.4375 11.2433C8.4307 11.4235 8.56163 11.3191 8.3994 10.4772C8.29625 9.9415 8.45583 9.34761 8.75428 9.15817C9.18188 8.88679 9.18011 8.81193 8.74633 8.80664C7.83249 8.79563 8.12652 7.91805 9.18717 7.49204C10.176 7.0951 10.1755 7.09334 9.07696 7.05237C8.05335 7.01404 8.03483 6.97614 8.81731 6.52237C9.49311 6.13028 9.77657 6.19286 10.25 6.84003C11.0365 7.91497 10.9941 8.35947 10.1054 8.35947C9.12017 8.35947 9.47106 8.61192 10.9487 8.96613L12.1593 9.25644L10.6181 6.40384C8.79086 3.02172 8.70842 2.57328 10.1654 3.94119C10.764 4.50334 11.1304 5.16327 10.9792 5.40778C10.8196 5.6655 10.9254 5.71572 11.2309 5.52716C11.5447 5.33332 12.1192 5.66155 12.6534 6.34C13.1463 6.96602 13.7441 7.47836 13.9825 7.47836C14.2206 7.47836 13.413 6.46026 12.187 5.2157C10.9615 3.97158 9.95862 2.88738 9.95862 2.80676C9.95862 2.27414 11.8251 3.50811 13.5955 5.21085C15.0017 6.56378 15.611 7.47132 15.451 7.97531C15.32 8.38811 15.417 8.852 15.6665 9.0062C15.9363 9.17272 16.0139 9.00929 15.8578 8.60266C15.7132 8.22643 15.6925 7.91892 15.812 7.91892C16.1916 7.91892 17.5092 10.1516 17.693 11.1068C17.8513 11.9271 17.7212 11.8879 16.4913 10.7438C15.0273 9.38201 15.1931 10.0798 16.747 11.8196L17.6732 12.8566L16.0734 11.8196C15.1935 11.249 14.5464 10.6561 14.6359 10.5019C14.7249 10.3477 14.4648 9.95117 14.057 9.62076C13.5042 9.17272 13.4029 9.16434 13.6581 9.58859C13.9147 10.0155 13.7282 10.0886 12.9091 9.88333C12.3025 9.73134 11.6876 9.82123 11.5236 10.086C11.338 10.386 11.7083 10.5622 12.5238 10.5622C13.2358 10.5622 14.0905 10.8931 14.4234 11.2975C14.9718 11.9636 14.8959 12.0064 13.6127 11.7522C12.8342 11.5984 12.1015 11.6266 11.9847 11.8156C11.8679 12.0041 12.9722 12.4064 14.4388 12.709C15.9055 13.0117 17.0274 13.3373 16.9322 13.4324C16.8369 13.5276 15.2786 13.324 13.469 12.98C8.25128 11.9887 6.62109 11.6121 6.0674 11.2702C5.78306 11.0944 5.5503 11.1609 5.5503 11.4173C5.5503 11.6737 5.76057 11.8839 6.01714 11.8839C6.2737 11.8839 6.3751 12.0597 6.24241 12.2747C6.10928 12.4897 6.24637 12.6566 6.54701 12.646C8.06304 12.5914 9.10517 12.8033 8.90592 13.1258C8.78292 13.3245 9.2436 13.4043 9.9291 13.3038C10.6142 13.2034 12.3396 13.3641 13.763 13.6615C16.021 14.1329 16.2392 14.2646 15.4739 14.695C14.9916 14.966 13.6277 16.1616 12.4432 17.3511L10.2897 19.5147L9.49311 18.4591C9.05492 17.8789 8.56163 17.5388 8.39675 17.7036C8.23188 17.8679 8.64141 18.5071 9.30663 19.123C10.3382 20.0786 10.4347 20.3579 9.96215 21.02C9.65709 21.4469 9.93791 21.2016 10.5859 20.4746C13.2014 17.5397 14.5785 16.2872 15.0123 16.4485C15.2636 16.5414 15.9473 16.1969 16.5319 15.6827C17.6595 14.6906 17.4889 15.1175 15.7613 17.6111L14.6927 19.153L15.0018 17.8313C15.451 15.9123 14.5547 16.9983 14.0028 19.0424C13.5589 20.6861 13.5624 20.6923 14.7333 20.3936C15.3804 20.2284 16.2074 20.1108 16.5711 20.1319C16.9348 20.1531 17.7781 19.4636 18.4447 18.5997L19.6569 17.0286V18.4212C19.6569 19.1874 19.8769 19.8138 20.1454 19.8138C20.4456 19.8138 20.5373 19.346 20.3834 18.6023C20.2455 17.9357 20.241 17.6397 20.3733 17.9441C20.5055 18.2485 20.8102 18.3767 21.0495 18.2283C21.6372 17.8657 23.6143 19.768 23.3542 20.4456C23.2405 20.7416 23.3493 21.5135 23.5953 22.1611C23.8647 22.8677 23.8784 23.3382 23.6306 23.3382C23.4036 23.3382 23.0082 22.595 22.7525 21.6862C22.4968 20.7777 21.9934 19.6491 21.6336 19.179C20.8132 18.1067 20.8 18.4248 21.5957 20.0764C21.9347 20.78 22.3438 21.8514 22.5052 22.4571L22.7979 23.5585L21.8765 22.4571L20.9552 21.3558L21.4789 22.5673C21.7668 23.2338 22.1481 23.7788 22.3262 23.7788C22.5038 23.7788 22.6211 24.2572 22.5858 24.8423C22.5021 26.2463 21.5838 25.5247 21.1932 23.7484C21.0372 23.0382 20.7149 22.4571 20.4778 22.4571C20.2402 22.4571 20.1873 22.228 20.3601 21.9483C20.5598 21.6262 20.4809 21.5597 20.1445 21.7677C19.7469 22.0131 19.7394 22.2456 20.1145 22.6972C20.3896 23.0285 20.4866 23.5065 20.3301 23.7594C20.1736 24.0123 20.2327 24.2193 20.461 24.2193C20.6898 24.2193 20.9803 24.6158 21.1073 25.1004C21.2783 25.7538 21.1205 25.9815 20.4972 25.9815C20.0352 25.9815 19.6569 26.1917 19.6569 26.4481C19.6569 26.7107 19.4162 26.7644 19.1059 26.5714C18.803 26.3825 18.0135 26.2163 17.3518 26.2022C16.6901 26.1877 15.9094 25.937 15.6167 25.6445C15.201 25.2291 14.9189 25.2621 14.3286 25.7961C13.8269 26.2498 13.4752 26.3216 13.2825 26.0102C13.1198 25.7472 13.3425 25.5273 13.7899 25.5101C14.557 25.4802 14.5569 25.467 13.7873 25.1639C13.0405 24.8696 13.0528 24.7907 13.972 23.9832C14.7871 23.2677 14.9109 23.2448 14.6901 23.8524C14.5301 24.2916 14.6866 24.6881 15.0789 24.8388C15.4823 24.9934 15.6207 24.9053 15.4386 24.611C15.2266 24.2682 15.3994 24.2691 16.0452 24.6145C17.2615 25.2648 18.0554 24.8868 18.6214 23.388C18.9692 22.4673 18.9521 21.8769 18.5553 21.1368C18.0263 20.1482 18.0025 20.161 16.993 21.9562C16.4292 22.9585 15.8063 23.7788 15.6083 23.7788C15.1459 23.7788 15.1543 23.6475 15.7119 22.1553C16.1691 20.9315 16.1541 20.9359 14.5799 22.4946C13.618 23.4466 12.8311 24.7537 12.5979 25.7864C12.21 27.5059 12.3863 28.3354 12.958 27.4799C13.1353 27.2151 13.7299 27.1552 14.3669 27.3389C14.9731 27.5133 15.216 27.6755 14.9065 27.6997C14.4816 27.7332 14.5221 28.0878 15.0736 29.1531C15.6868 30.3386 15.7172 30.7994 15.2649 32.0497C14.3008 34.7146 15.1679 34.0846 16.5821 31.0933C17.8372 28.4389 18.7753 27.6768 18.7753 29.3117C18.7753 29.661 18.9736 29.9465 19.2161 29.9465C19.4586 29.9465 19.6569 29.6491 19.6569 29.2857C19.6569 28.9222 20.0308 28.6249 20.4879 28.6249C20.9451 28.6249 21.6504 28.1195 22.0555 27.5014C22.5206 26.7917 23.0668 26.4587 23.5389 26.597C23.9498 26.7173 25.0615 26.9534 26.0098 27.1217C27.4967 27.3856 27.696 27.3283 27.4566 26.7049C27.2507 26.1688 27.4323 25.9798 28.1566 25.9754C28.6949 25.9723 29.581 25.8498 30.1267 25.704C30.7597 25.5344 31.1186 25.6331 31.1186 25.9771C31.1186 26.2754 30.8232 26.4031 30.4573 26.2626C30.0937 26.1234 29.7961 26.2243 29.7961 26.4873C29.7961 26.7591 29.3883 26.8587 28.8509 26.7186C28.221 26.5538 28.0526 26.6182 28.3462 26.9116C28.9153 27.4803 31.1203 26.9305 31.4219 26.145C31.5493 25.8128 31.8521 25.541 32.0946 25.541C32.3371 25.541 32.4252 25.8282 32.2903 26.1793C32.1268 26.6053 32.2568 26.7367 32.6813 26.5736C33.0314 26.4397 33.2403 26.2018 33.146 26.0454C33.0516 25.8891 33.2408 25.5155 33.5661 25.215C33.9386 24.8709 34.2578 24.8304 34.4275 25.1049C34.576 25.3445 34.487 25.541 34.2304 25.541C33.9739 25.541 33.7636 25.7392 33.7636 25.9815C33.7636 26.2238 34.0413 26.4221 34.3807 26.4221C34.7947 26.4221 34.9979 25.9031 34.9979 24.8454C34.9979 22.9017 33.4387 21.0104 29.5505 18.2375C26.846 16.3088 20.502 13.0954 20.1313 13.4659C19.8192 13.7778 21.5825 14.9387 22.3914 14.9537C23.6116 14.9766 25.3825 15.9414 25.0854 16.422C24.9311 16.6714 25.0298 16.7308 25.3106 16.5573C25.5853 16.3876 26.2143 16.4648 26.7081 16.7286C27.971 17.4045 32.2401 21.2504 32.1281 21.6121C32.0069 22.0038 33.4193 23.2761 33.973 23.2739C34.2093 23.273 34.483 23.5127 34.5813 23.807C34.6973 24.1546 34.5535 24.2149 34.1713 23.9788C33.8478 23.7788 33.0719 23.5915 32.4473 23.562C31.8222 23.5329 31.0719 23.3611 30.7791 23.1805C30.4097 22.9523 30.3366 23.0849 30.5398 23.6145C30.8012 24.2956 30.7077 24.2863 29.6669 23.5272C29.026 23.0598 28.4952 22.5043 28.4873 22.2933C28.4798 22.0818 28.7218 22.1113 29.0246 22.3589C29.409 22.673 29.741 22.6298 30.1223 22.2162C30.4238 21.8888 30.4904 21.5121 30.27 21.3764C30.0509 21.2408 29.7992 21.3469 29.7106 21.6126C29.6109 21.9113 28.7315 21.6602 27.4028 20.9544C26.2223 20.3271 25.0051 19.8138 24.6983 19.8138C24.0027 19.8138 20.4769 15.8647 20.7612 15.4044C20.8758 15.2193 20.6903 14.836 20.349 14.5527C19.861 14.1479 19.6292 14.2078 19.265 14.8334C19.0102 15.2708 18.796 15.3854 18.7885 15.0884C18.7709 14.3624 20.3349 11.8271 20.6232 12.1152C20.7489 12.2407 21.3264 12.1601 21.9074 11.9363L22.9632 11.5297L21.8611 11.0931C21.0002 10.7521 20.5659 10.8248 19.8774 11.4248C18.3851 12.7254 17.9549 12.8465 18.2035 11.8958C18.7109 9.95692 13.4218 3.42311 10.3448 2.18781C9.52617 1.85915 8.38353 1.23004 7.80516 0.78949C6.31206 -0.347574 4.55931 -0.243176 3.97476 1.01724ZM4.66863 0.870087C4.66863 1.11239 4.9662 1.31064 5.32988 1.31064C5.69357 1.31064 5.99113 1.11239 5.99113 0.870087C5.99113 0.627783 5.69357 0.429535 5.32988 0.429535C4.9662 0.429535 4.66863 0.627783 4.66863 0.870087ZM7.60237 1.95251C7.41502 2.44021 7.61781 2.63052 8.31917 2.62567C8.85743 2.62171 9.099 2.47108 8.85654 2.29001C8.61408 2.10938 8.29139 1.80626 8.13974 1.61682C7.98766 1.42738 7.74609 1.57849 7.60237 1.95251ZM7.31363 3.5134C8.16841 4.06541 8.63613 4.06541 8.63613 3.5134C8.63613 3.27109 8.19 3.07594 7.64425 3.07947C6.84238 3.0852 6.7789 3.168 7.31363 3.5134ZM8.11285 4.6954C8.43069 4.82272 8.81114 4.80688 8.95749 4.66061C9.10385 4.51435 8.84375 4.41035 8.37912 4.42929C7.86555 4.45044 7.76107 4.55487 8.11285 4.6954ZM20.1326 5.53244C20.1538 6.04568 20.2582 6.1501 20.3989 5.79898C20.5263 5.4809 20.5104 5.1007 20.364 4.95444C20.2177 4.80817 20.1136 5.0681 20.1326 5.53244ZM8.55368 5.57651C8.87152 5.70383 9.25197 5.68798 9.39833 5.54172C9.54468 5.39545 9.28459 5.29145 8.81995 5.31039C8.30638 5.33154 8.2019 5.43597 8.55368 5.57651ZM4.30804 7.75943C4.4588 9.8309 5.12798 10.7036 5.35898 9.13043C5.42114 8.70662 5.31887 8.35947 5.13108 8.35947C4.94328 8.35947 4.84409 7.86474 4.91065 7.25986C4.97722 6.65542 4.8335 6.0382 4.59192 5.88886C4.31508 5.71792 4.20973 6.41134 4.30804 7.75943ZM20.1674 9.24057C20.1674 9.84633 20.2675 10.0944 20.3896 9.79126C20.5121 9.4886 20.5121 8.99298 20.3896 8.68988C20.2675 8.38722 20.1674 8.63481 20.1674 9.24057ZM26.9307 10.1217C26.7808 10.364 26.8685 10.5622 27.1251 10.5622C27.3817 10.5622 27.5919 10.364 27.5919 10.1217C27.5919 9.87937 27.5046 9.68112 27.3975 9.68112C27.2904 9.68112 27.0806 9.87937 26.9307 10.1217ZM3.78697 12.7557C3.21036 13.1201 3.22755 13.2743 3.92098 13.9606C4.6845 14.7162 4.7039 14.7153 4.40766 13.932C4.21678 13.4271 4.3336 12.9681 4.71448 12.7271C5.05304 12.513 5.13151 12.3381 4.88905 12.3381C4.64659 12.3381 4.15065 12.5258 3.78697 12.7557ZM5.33737 13.658C5.48241 13.8928 5.29242 14.5259 4.91462 15.0651C4.53683 15.6039 4.2278 15.7907 4.2278 15.4801C4.2278 15.17 4.02942 15.0382 3.78697 15.188C3.10235 15.611 3.26723 16.2894 4.05455 16.2894C4.50949 16.2894 4.66731 16.526 4.49539 16.9502C4.34815 17.3137 4.10745 17.9084 3.96022 18.2719C3.78961 18.6935 3.94523 18.9327 4.39091 18.9327C5.31137 18.9327 6.60256 20.9372 6.25872 21.8329C5.80642 23.0109 6.37069 23.3013 7.76284 22.6069C8.49066 22.2444 8.97335 21.7646 8.83493 21.5417C8.69695 21.3183 8.48492 21.1355 8.36369 21.1355C8.24246 21.1355 8.26583 21.3337 8.41571 21.576C8.5656 21.8183 8.37867 22.0166 8.00088 22.0166C7.08792 22.0166 7.12495 21.2848 8.06436 20.7593C8.66037 20.4258 8.70666 20.2094 8.28831 19.7059C7.99912 19.357 7.89244 18.9415 8.05202 18.7821C8.2116 18.6226 8.11065 18.4922 7.82807 18.4922C7.54506 18.4922 7.33699 18.3437 7.36565 18.1618C7.51156 17.2379 7.25897 16.7114 6.80447 16.9921C6.45621 17.2075 6.41742 17.1115 6.68148 16.6881C6.89352 16.3476 7.09277 15.6035 7.12451 15.0343C7.15625 14.4651 7.41898 13.8536 7.70817 13.6747C8.00132 13.4937 7.53492 13.3236 6.6537 13.2906C5.73236 13.2558 5.18352 13.4091 5.33737 13.658ZM17.6551 13.6756C17.1808 14.4426 17.7208 14.6052 18.3256 13.8769C18.6734 13.4584 18.7069 13.2055 18.4142 13.2055C18.1568 13.2055 17.8147 13.417 17.6551 13.6756ZM9.72014 14.5567C9.56012 14.8149 9.54688 15.1435 9.69015 15.2871C10.1363 15.7325 9.04699 16.6907 8.38353 16.4365C8.03748 16.3035 7.75446 16.3969 7.75446 16.6441C7.75446 17.1886 8.5268 17.089 9.81932 16.3784C10.3492 16.0872 11.1171 15.8489 11.5267 15.8489C12.1707 15.8489 12.1892 15.9502 11.6655 16.6009C11.3331 17.0145 11.8048 16.793 12.7138 16.1079C14.5049 14.7594 14.8757 14.2241 13.5144 14.9523C12.1681 15.6722 10.2549 15.5396 10.559 14.7475C10.8473 13.9963 10.1627 13.8404 9.72014 14.5567ZM8.19529 14.9678C8.19529 15.2101 8.39367 15.4083 8.63613 15.4083C8.87858 15.4083 9.07696 15.2101 9.07696 14.9678C9.07696 14.7254 8.87858 14.5272 8.63613 14.5272C8.39367 14.5272 8.19529 14.7254 8.19529 14.9678ZM17.0208 17.1529C16.0738 19.0081 15.8728 19.8191 16.5301 19.131C17.0111 18.6278 18.3693 15.4083 18.1004 15.4083C17.9968 15.4083 17.511 16.1934 17.0208 17.1529ZM20.9794 15.5387C20.9794 15.6277 22.0211 16.3674 23.2938 17.182C24.5665 17.997 25.7541 18.8728 25.9322 19.1288C26.1544 19.4477 26.2579 19.4394 26.2628 19.1014C26.2663 18.8305 25.5257 18.119 24.6163 17.5199C22.6489 16.2238 20.9794 15.3145 20.9794 15.5387ZM10.2527 17.4644C10.0909 17.6256 9.95862 17.9626 9.95862 18.2133C9.95862 18.4891 10.1641 18.4631 10.4801 18.1472C10.7671 17.8604 10.8994 17.5234 10.7742 17.3983C10.649 17.2727 10.414 17.3027 10.2527 17.4644ZM1.36107 20.3702C0.488223 21.0892 -0.115721 21.7875 0.0187326 21.9223C0.153627 22.0567 0.743459 21.7166 1.32933 21.1668C2.02716 20.5117 2.93881 20.1663 3.97124 20.1663C5.70812 20.1663 5.74867 19.598 4.03515 19.2706C3.27383 19.1253 2.47241 19.4548 1.36107 20.3702ZM23.6429 20.8993C23.6531 21.1504 24.0441 22.0496 24.5118 22.8977L25.3622 24.4396L25.1427 22.8977C24.976 21.7258 25.0201 21.5707 25.3265 22.2523C25.5487 22.7452 26.0785 23.4373 26.5039 23.7907C27.2159 24.381 27.2503 24.3445 26.9311 23.3347C26.7402 22.7307 26.2192 21.9192 25.7735 21.5311C25.3278 21.1434 25.0492 20.7399 25.1546 20.6346C25.2595 20.5293 24.9584 20.4434 24.4849 20.4434C24.0119 20.4434 23.6328 20.6487 23.6429 20.8993ZM17.3073 22.1844C16.8656 22.858 16.6271 23.7294 16.777 24.1202C16.9943 24.6859 17.1843 24.5718 17.7085 23.562C18.6576 21.7342 18.3327 20.6205 17.3073 22.1844ZM27.1793 22.2369C27.1793 22.4792 27.4703 23.0624 27.8265 23.5325C28.1822 24.003 28.4736 24.1894 28.4736 23.9471C28.4736 23.7048 28.1822 23.1219 27.8265 22.6514C27.4703 22.1813 27.1793 21.9946 27.1793 22.2369ZM18.9441 24.2453C18.4975 25.2251 18.5527 25.3269 19.5639 25.3886C20.1745 25.4256 20.4681 25.3264 20.2164 25.1683C19.9646 25.0097 19.686 24.4951 19.5965 24.0251C19.4502 23.2541 19.3863 23.2757 18.9441 24.2453ZM25.8286 26.4221C25.8286 26.6644 26.027 26.8626 26.2694 26.8626C26.5119 26.8626 26.7103 26.6644 26.7103 26.4221C26.7103 26.1798 26.5119 25.9815 26.2694 25.9815C26.027 25.9815 25.8286 26.1798 25.8286 26.4221ZM20.2922 27.5094C19.4581 28.1402 19.4612 28.1565 20.4284 28.1702C21.0222 28.1786 21.4203 27.9191 21.4203 27.5235C21.4203 26.7071 21.355 26.7063 20.2922 27.5094ZM22.1741 28.1843C22.0476 28.6689 22.0172 29.0654 22.1071 29.0654C22.1975 29.0654 22.4831 28.6689 22.7428 28.1843C23.0033 27.6975 23.0333 27.3032 22.8098 27.3032C22.5872 27.3032 22.301 27.6997 22.1741 28.1843Z" fill="#A3AD7E"></path></svg> 