<?xml version="1.0" encoding="UTF-8"?> <svg xmlns="http://www.w3.org/2000/svg" width="38" height="38" viewBox="0 0 38 38" fill="none"><path fill-rule="evenodd" clip-rule="evenodd" d="M26.6865 0.256542C26.5216 0.421749 26.2351 0.556561 26.0504 0.556561C25.6554 0.556561 21.6108 4.82773 21.6108 5.24493C21.6108 5.40177 22.1913 6.1507 22.9006 6.90977C23.6104 7.66884 24.3237 8.89357 24.4859 9.63149C24.6477 10.369 24.8769 10.8765 24.9942 10.7589C25.2049 10.5487 24.1954 6.20928 23.5509 4.555C23.2881 3.88052 23.3714 3.76554 23.9586 3.99066C24.4898 4.19419 24.6966 4.03781 24.6966 3.43249C24.6966 2.96947 24.8981 2.46635 25.1445 2.31436C25.3909 2.16193 25.487 1.86676 25.3579 1.65794C25.2287 1.44912 25.3296 1.15087 25.5818 0.994915C25.8344 0.83896 26.0041 0.874647 25.9587 1.07466C25.9137 1.27423 26.1042 1.98792 26.3823 2.66064C26.6601 3.33336 26.9695 4.3246 27.0696 4.8634C27.7502 8.52526 27.9173 9.14732 28.2219 9.14732C28.4097 9.14732 28.5098 8.10674 28.4441 6.83442C28.3789 5.56211 28.3022 3.60121 28.2744 2.47604C28.2259 0.542018 27.4655 -0.521472 26.6865 0.256542ZM29.2773 2.75491C29.4805 6.02821 29.9866 6.41679 29.9866 3.29945C29.9866 1.94035 29.7926 0.708988 29.5554 0.562725C29.2883 0.397518 29.1825 1.22884 29.2773 2.75491ZM21.2925 4.41139C20.6317 5.26518 20.216 6.06346 20.432 6.06346C20.5395 6.06346 20.9526 5.56784 21.3498 4.96208C22.093 3.82854 22.0516 3.43072 21.2925 4.41139ZM12.6998 6.78729C12.5874 6.99479 12.758 7.66045 13.0789 8.26621C13.5894 9.22882 13.6625 9.25657 13.6625 8.48649C13.6621 7.43709 12.9903 6.25114 12.6998 6.78729ZM20.3156 7.13224C20.0031 7.50803 19.5221 7.68733 19.2466 7.53006C18.9711 7.37278 18.8913 7.40495 19.0689 7.60144C19.247 7.79792 19.0486 8.2411 18.6281 8.58561C18.118 9.00413 18.0837 9.1178 18.5249 8.92704C18.8886 8.76976 18.8009 8.95348 18.3305 9.335C17.8597 9.71652 17.6516 10.0284 17.8677 10.0284C18.0837 10.0284 18.0224 10.2663 17.7315 10.5571C17.0376 11.2505 17.0517 12.9845 17.7535 13.2383C18.0568 13.348 18.6704 13.1185 19.1178 12.7286C19.8756 12.0673 20.003 12.103 20.9914 13.2511C22.425 14.9168 22.3285 15.3327 20.622 14.8437C19.8355 14.6185 19.117 14.4339 19.0248 14.4339C18.9331 14.4339 19.1205 14.0868 19.4414 13.663C19.9365 13.0092 19.9321 12.9748 19.4119 13.4383C18.7595 14.0189 18.36 15.4688 18.9534 15.1027C19.1461 14.9833 20.1948 15.1538 21.2837 15.4811C22.9341 15.9776 23.5474 15.9794 24.9717 15.4921C26.6261 14.926 28.2232 13.4876 28.2232 12.5634C28.2232 12.3153 27.7992 12.6515 27.2803 13.3101C26.5397 14.2515 26.247 14.3824 25.9164 13.9202C25.595 13.4722 25.5509 13.507 25.7295 14.067C25.975 14.837 25.2322 15.315 23.7889 15.315C22.8702 15.315 21.691 13.7903 21.3859 12.2083C21.2784 11.6505 21.0046 11.0086 20.7781 10.7822C20.2698 10.2742 19.4066 10.7531 19.4066 11.5426C19.4066 11.862 19.1324 12.351 18.7969 12.629C17.9118 13.363 17.5692 12.2096 18.3535 11.1373C18.6903 10.6769 18.9658 10.4619 18.9658 10.6589C18.9658 10.8562 19.266 10.7685 19.6323 10.4646C20.1759 10.0139 20.1961 9.78479 19.7425 9.22662C19.27 8.64465 19.3078 8.58738 19.9938 8.84466C20.4377 9.01119 20.9883 9.14732 21.2171 9.14732C21.4455 9.14732 21.8316 9.67025 22.075 10.3099C22.3183 10.9492 22.6375 11.3519 22.7847 11.2051C23.2207 10.769 21.9903 8.25212 21.4913 8.56007C21.2273 8.72351 21.166 8.62922 21.3463 8.33758C21.5178 8.06003 21.4842 7.52124 21.2709 7.14061C20.9209 6.51546 20.8283 6.51459 20.3156 7.13224ZM29.4272 8.23096C29.2354 8.9636 29.2927 9.13586 29.6198 8.80897C29.8764 8.55257 29.9989 8.08338 29.8931 7.7653C29.7829 7.43533 29.5832 7.63534 29.4272 8.23096ZM6.71989 10.9818C6.81423 11.2642 7.37056 11.8091 7.95643 12.1933L9.02192 12.892L8.1526 11.6941C7.26917 10.4765 6.40866 10.0487 6.71989 10.9818ZM27.8172 11.1664C27.8384 11.6796 27.9429 11.784 28.0835 11.4329C28.2109 11.1148 28.195 10.7346 28.0487 10.5884C27.9023 10.4421 27.7983 10.702 27.8172 11.1664ZM12.8638 12.2312C12.8638 12.8369 12.9638 13.085 13.0859 12.7819C13.2085 12.4792 13.2085 11.9836 13.0859 11.6805C12.9638 11.3778 12.8638 11.6254 12.8638 12.2312ZM25.1723 12.0475C25.1934 12.5607 25.2979 12.6651 25.4385 12.314C25.5659 11.9959 25.5501 11.6157 25.4037 11.4695C25.2573 11.3232 25.1533 11.5831 25.1723 12.0475ZM28.5411 13.0233C28.285 14.2467 27.8613 14.648 25.8635 15.5622C23.6968 16.5534 23.2987 16.6037 21.2846 16.1393C19.6914 15.7714 18.7022 15.7613 17.7257 16.1014C16.442 16.5486 16.3918 16.5239 16.7453 15.6133C16.9503 15.086 17.3351 14.7036 17.601 14.7644C18.3336 14.9313 18.1789 14.1242 17.4229 13.8339C17.0592 13.6947 16.7515 13.2273 16.7387 12.7955C16.7263 12.3642 16.4076 12.7546 16.0307 13.663C15.3069 15.4062 14.6972 15.7507 14.2762 14.6542C13.8896 13.6476 12.3533 13.8233 12.3533 14.8745C12.3533 15.3591 12.5728 15.7556 12.8413 15.7556C13.1098 15.7556 13.2151 15.4582 13.0754 15.0948C12.9361 14.7313 13.0119 14.4339 13.2438 14.4339C13.4761 14.4339 13.6255 14.9194 13.5766 15.5133L13.4871 16.5922L8.40168 16.3865C4.13002 16.2138 3.07373 16.3054 1.79972 16.9596C0.965228 17.3878 0.189364 18.0355 0.074748 18.3989C-0.08836 18.917 0.000673264 18.9518 0.489116 18.5584C0.831643 18.2826 1.75389 18.1108 2.53901 18.1764C3.32369 18.2421 3.8659 18.1341 3.74378 17.9372C3.26592 17.1645 4.51878 17.042 5.60807 17.7548C6.64138 18.4315 6.73085 18.4355 6.48399 17.7927C6.08944 16.7654 6.75384 16.9112 7.86827 18.0967C9.08585 19.3924 9.07791 19.7029 7.83476 19.3827C6.9165 19.1461 6.89092 19.1902 7.48957 19.9748C7.84533 20.4405 7.98024 20.6924 7.78892 20.5338C7.59804 20.3752 6.92397 20.514 6.29093 20.8422C5.23823 21.3881 5.05265 21.3449 4.11589 20.3347C3.55294 19.7272 2.88464 19.3584 2.6316 19.5148C1.58683 20.1602 4.12908 21.8418 6.59025 22.133C7.17876 22.2026 7.89514 22.5806 8.18168 22.9727C8.46866 23.3648 8.92933 23.6855 9.20573 23.6855C9.48213 23.6855 9.70829 23.9053 9.70829 24.1736C9.70829 24.4789 9.28114 24.5552 8.56919 24.3763C7.79597 24.1825 7.52617 24.2464 7.72984 24.575C7.89427 24.8411 8.48674 24.9992 9.04615 24.9261C9.60557 24.853 10.4749 25.1653 10.9788 25.6209C11.8199 26.3817 11.9173 26.3888 12.1783 25.709C12.5552 24.7274 11.9812 24.1961 11.4342 25.02C11.1247 25.4865 11.0705 25.2975 11.2406 24.3464C11.3707 23.6195 11.3667 23.2525 11.2318 23.5309C10.8029 24.4177 8.38578 22.9005 8.38578 21.744C8.38578 21.166 8.65516 20.7484 9.02766 20.7484C9.38077 20.7484 9.57912 20.8942 9.46891 21.0726C9.35915 21.2506 10.0124 21.8343 10.921 22.3696C12.5472 23.3265 12.56 23.3273 11.7339 22.4123C11.2719 21.9013 10.646 21.4828 10.3427 21.4828C10.0081 21.4828 9.88154 21.1361 10.0213 20.6017C10.3188 19.4646 10.5027 19.4911 11.5505 20.822C12.0271 21.4277 12.6359 21.9233 12.903 21.9233C13.1702 21.9233 12.9806 21.4771 12.4816 20.9321C11.983 20.3871 11.249 19.2968 10.8505 18.509C10.232 17.2861 10.221 17.0773 10.7729 17.0773C11.6422 17.0773 12.0562 17.8196 11.3641 18.1368C11.0594 18.2764 11.2358 18.2866 11.756 18.1597C12.9912 17.8575 14.2542 19.1099 13.9491 20.3347C13.8221 20.8448 13.5823 22.1546 13.4161 23.245C13.2504 24.3354 12.989 25.4257 12.8351 25.668C12.6813 25.9103 12.5596 26.7033 12.5645 27.4302C12.5733 28.6638 12.6724 28.7422 14.0536 28.6074C14.8726 28.5272 15.4224 28.6426 15.2844 28.866C14.9476 29.4109 16.2247 31.1749 16.9565 31.1749C17.2783 31.1749 17.8668 31.6705 18.264 32.2763C18.6612 32.8821 19.2549 33.3777 19.5838 33.3777C20.1895 33.3777 20.8446 34.7218 21.4089 37.1223C21.5799 37.8493 21.8127 38.1907 21.9264 37.8806C22.0401 37.5708 21.8951 36.3249 21.6041 35.1117C21.3127 33.8984 21.188 32.0706 21.3264 31.0494C21.527 29.57 21.3203 28.655 20.3099 26.5491C19.091 24.0093 18.4606 24.0684 19.4397 26.6306C20.2601 28.7783 20.2971 30.2171 19.5283 30.1044C19.1518 30.0493 18.551 29.6233 18.193 29.1576C17.7103 28.5303 17.4859 28.4615 17.3254 28.8928C17.0587 29.6074 15.9628 28.1699 15.4307 26.4086L15.0741 25.2275L15.0362 26.4927C15.0049 27.5395 14.889 27.6677 14.367 27.2346C13.8266 26.7866 13.8221 26.4658 14.3348 25.0133C14.6646 24.0794 14.8334 22.9304 14.7104 22.4599C14.5579 21.8775 14.7483 21.5357 15.3064 21.3898C16.4398 21.0938 17.3069 22.0581 16.6179 22.8485C16.3331 23.1749 16.5478 23.0683 17.0949 22.6119C17.6419 22.1555 18.2208 21.9127 18.3808 22.0727C18.5408 22.233 18.4337 22.3639 18.1419 22.3639C17.7416 22.3639 17.7323 22.5881 18.1044 23.2829C18.3751 23.7882 18.7039 24.0939 18.8353 23.9626C18.9671 23.8314 19.7941 24.26 20.6731 24.9156C21.5526 25.5707 22.0512 25.8098 21.7809 25.4468C21.5111 25.0838 21.2868 24.4895 21.2824 24.1261C21.2784 23.7626 21.1223 23.0688 20.9359 22.5842C20.6908 21.9471 21.032 22.1132 22.1676 23.1842C23.0316 23.9992 23.9591 24.5296 24.2284 24.3631C24.5048 24.1926 24.6658 24.3106 24.5974 24.6336C24.53 24.9517 24.9598 25.2794 25.5637 25.3702C26.1619 25.4605 27.1168 25.9002 27.6859 26.3473C28.2546 26.7945 29.0053 27.0513 29.3536 26.9178C30.3631 26.5306 30.0867 25.8883 28.9105 25.8883C28.3185 25.8883 27.7101 25.6874 27.5581 25.4416C27.406 25.1958 26.452 24.5772 25.4381 24.0666C20.9936 21.8295 18.2948 18.3381 21.5566 19.0443C24.6137 19.7065 24.7848 19.7043 24.5167 19.006C24.373 18.6324 24.2527 18.1945 24.2492 18.0324C24.2452 17.8707 24.0657 18.0169 23.8497 18.3575C23.5152 18.8862 23.1431 18.8892 21.3216 18.3786C19.3987 17.8394 19.296 17.7495 20.2883 17.4724C20.8944 17.3033 22.5374 17.1455 23.9388 17.1213C25.8018 17.0891 26.5578 16.894 26.7491 16.3966C26.9669 15.8283 27.119 15.871 27.6678 16.6539C28.1514 17.3442 28.1955 17.7218 27.8336 18.0835C27.1035 18.813 27.2358 19.28 28.1726 19.28C28.6297 19.28 29.324 18.7914 29.7155 18.194C30.5257 16.9583 30.628 16.4609 29.9914 16.8539C29.7454 17.0059 29.6656 16.8371 29.808 16.4662C29.9553 16.0829 29.6899 15.5781 29.1728 15.2551C28.4798 14.8225 28.3811 14.5216 28.7227 13.8837C28.9639 13.4339 29.0899 12.7294 29.0031 12.3184C28.9114 11.8827 28.7183 12.1774 28.5411 13.0233ZM14.4825 16.5266C14.7007 16.9504 14.7955 17.5297 14.6932 17.8134C14.5742 18.1438 14.8334 18.2443 15.414 18.0927C15.9126 17.9623 16.3208 18.0385 16.3208 18.2628C16.3208 18.6923 17.9148 20.755 19.9828 23.0018L21.2202 24.3464L20.4972 22.8661C20.1 22.052 19.9894 21.5184 20.2517 21.6806C20.5144 21.8427 20.7291 21.7973 20.7291 21.5797C20.7291 21.3616 20.2332 20.9576 19.627 20.6819C19.0209 20.4056 18.5002 19.9774 18.4698 19.7298C18.4394 19.4827 18.3808 19.0324 18.3398 18.7293C18.2984 18.4267 18.0207 18.2297 17.7222 18.2923C17.4242 18.3553 16.5967 17.8099 15.8835 17.0808C14.4256 15.5904 13.8918 15.3794 14.4825 16.5266ZM8.38578 17.7121C8.38578 18.3733 9.17711 19.0765 9.52757 18.7262C9.83527 18.4192 9.22646 17.0773 8.77946 17.0773C8.56301 17.0773 8.38578 17.3627 8.38578 17.7121ZM28.8801 19.9311C28.1554 20.7744 27.2018 21.4682 26.7615 21.4731C26.3215 21.4784 25.6003 21.6757 25.1586 21.9119C24.5396 22.2432 23.9436 22.0423 22.5466 21.0308C20.2521 19.3699 19.8219 19.3426 21.7055 20.9775C24.0137 22.9815 25.1939 23.4846 25.7639 22.7093C26.1646 22.1639 26.5172 22.148 28.0028 22.6071C28.9727 22.9071 29.5039 23.1732 29.1838 23.1987C28.8634 23.2243 28.311 23.5349 27.9566 23.8895C27.3905 24.4548 27.4888 24.5816 28.7593 24.9257C29.6357 25.1631 30.4168 25.1548 30.7387 24.9045C31.0314 24.6768 31.5273 24.6389 31.8408 24.8199C32.1546 25.001 31.9439 24.6362 31.373 24.0093C30.8021 23.3824 30.4654 22.6591 30.6245 22.4013C30.7916 22.1313 30.6646 22.029 30.3243 22.1595C29.95 22.3031 29.7349 22.0555 29.7349 21.4828C29.7349 20.9198 29.9518 20.6633 30.3115 20.8012C30.732 20.9625 30.7823 20.8158 30.4971 20.2611C30.282 19.8426 30.1947 19.2527 30.3031 18.9496C30.6201 18.0667 30.2859 18.2971 28.8801 19.9311ZM14.9983 24.0463C14.9983 24.5785 15.8345 25.1992 16.1405 24.8939C16.2511 24.7829 16.0395 24.4415 15.6701 24.1349C15.2513 23.7873 14.9983 23.7538 14.9983 24.0463ZM16.7682 25.5319C16.7647 25.9416 16.96 26.3993 17.2024 26.5491C17.7605 26.8936 17.7605 26.3104 17.2024 25.4478C16.8343 24.8781 16.7744 24.89 16.7682 25.5319ZM31.7349 25.4781L30.6478 25.7619L31.8954 26.102C32.5813 26.2887 34.0692 26.891 35.2017 27.4395C36.3337 27.9884 37.4221 28.3395 37.6205 28.2201C38.0613 27.9541 38.2094 28.0624 35.2616 26.4936C33.556 25.5856 32.4945 25.2803 31.7349 25.4781ZM18.1013 26.3852C18.092 27.0218 18.3817 27.7893 18.7454 28.0911C19.5693 28.7744 19.5715 28.5721 18.7626 26.7099C18.1458 25.29 18.118 25.2764 18.1013 26.3852Z" fill="#A3AD7E"></path></svg> 