<?xml version="1.0" encoding="UTF-8"?> <svg xmlns="http://www.w3.org/2000/svg" width="70" height="129" viewBox="0 0 70 129" fill="none"><path fill-rule="evenodd" clip-rule="evenodd" d="M45.5347 0.182097C45.2694 0.50691 44.4475 2.59224 44.4475 2.94054C44.4475 3.09826 44.3715 3.36029 44.2786 3.52278C44.0918 3.84947 42.8148 7.82361 42.6803 8.49723C42.6336 8.73118 42.4426 9.45857 42.2559 10.1136C41.4359 12.9917 41.1869 13.9559 41.1869 14.253C41.1869 14.4276 41.0726 14.7975 40.9329 15.075C40.4012 16.1316 38.5981 23.5048 37.6939 28.3195C37.1511 31.2098 36.9112 33.6022 36.7983 37.2522C36.6707 41.3765 37.182 45.4439 38.4023 50.0134C38.7385 51.2721 38.9019 51.7449 39.6365 53.5865C39.842 54.1012 40.2102 55.3262 40.455 56.3088C40.8306 57.8162 40.8974 58.4544 40.8828 60.3924C40.8672 62.4825 40.6417 64.7329 40.4268 64.9459C40.3798 64.9925 39.4697 64.7048 38.4045 64.3066C33.6622 62.534 33.5124 62.4939 28.8308 61.7328C26.0929 61.2877 20.5955 61.1616 20.4659 61.5409C20.4217 61.6705 20.5495 61.7544 20.7937 61.7556C21.7489 61.7607 28.659 63.6301 33.0353 65.0674C34.7837 65.6416 35.8818 65.8967 37.0682 66.0039C37.9649 66.085 38.9398 66.2031 39.2345 66.2664C39.675 66.361 39.8236 66.3103 40.0685 65.9817C40.3657 65.5827 40.3661 65.5834 40.2636 66.2625C40.2072 66.6368 40.1601 67.0535 40.1591 67.1883C40.1577 67.3627 40.0867 67.338 39.9132 67.1032C39.6896 66.8003 39.4437 66.7729 36.9529 66.7729C34.3126 66.7729 34.191 66.7888 32.6063 67.3416C30.4067 68.1089 28.6012 69.0822 26.8077 70.4672C21.9126 74.2479 20.8495 74.8454 17.5312 75.6821C15.332 76.2366 14.5942 76.3196 14.1038 76.0678C13.9449 75.9861 13.4485 75.8667 13.001 75.8024C11.8263 75.6334 12.0678 76.0259 13.6119 76.7955C16.3541 78.1623 19.0086 77.8921 22.996 75.8401C25.4066 74.5994 26.1185 74.1514 27.2863 73.1395C28.824 71.8071 30.0043 71.2509 33.0353 70.4304C35.587 69.7396 37.4917 69.1019 38.6985 68.5346C39.3592 68.224 39.9592 67.9425 40.0318 67.9092C40.1045 67.8757 40.0899 68.0274 39.9995 68.2464C39.8493 68.6102 39.2947 71.0164 39.2214 71.6222C39.1902 71.8806 39.1263 72.1515 38.6995 73.8341C38.5689 74.3488 38.4421 75.0379 38.4176 75.3654C38.3932 75.6929 38.3059 76.0518 38.2235 76.1627C38.1413 76.2738 37.8154 77.384 37.4996 78.6299C36.6864 81.8375 36.334 82.9404 35.6891 84.2982C35.0972 85.544 33.8077 87.5502 32.8344 88.7396C32.5201 89.1236 32.2631 89.4829 32.2631 89.5381C32.2631 89.5934 32.5236 89.622 32.8421 89.6019C33.4726 89.5619 33.9792 89.2386 33.9792 88.8764C33.9792 88.7501 34.2004 88.3193 34.4708 87.9188C34.7413 87.5184 35.094 86.975 35.2546 86.7114C35.4875 86.3291 35.5952 86.2721 35.7868 86.4298C35.9189 86.5384 36.126 86.5879 36.2472 86.5395C36.3857 86.4844 36.356 86.447 36.1672 86.4385C35.7516 86.4199 35.7902 86.1319 36.227 85.9944C36.5199 85.9022 36.5743 85.7732 36.5189 85.3024C36.4813 84.984 36.5149 84.7236 36.5933 84.7236C36.6718 84.7236 36.8058 84.5512 36.8913 84.3407C37.0334 83.9904 37.0474 84.0035 37.0574 84.4969C37.0632 84.7935 37.1162 85.1603 37.1751 85.3121C37.2412 85.4831 37.2019 85.5694 37.0718 85.5387C36.9553 85.5113 36.7667 85.7987 36.6483 86.1843L36.4348 86.8792L37.0936 87.0536C37.5875 87.1842 37.8604 87.1725 38.1826 87.0068C38.6113 86.7863 38.6127 86.7878 38.6127 87.5616C38.6127 88.3812 37.8808 89.8095 37.4543 89.8217C37.3364 89.8253 37.2398 89.9973 37.2398 90.2042C37.2398 90.4111 36.9151 91.2122 36.5184 91.9843C36.1214 92.7564 35.8479 93.4389 35.9102 93.5007C35.9725 93.5626 36.5182 93.1826 37.1226 92.6564C38.2659 91.6612 38.4411 91.5615 38.4411 91.9055C38.4411 92.1369 36.2589 94.2518 36.0202 94.2518C35.9359 94.2518 35.8669 94.3262 35.8669 94.4171C35.8669 94.5079 35.6268 94.92 35.3332 95.3328C34.9891 95.8169 34.7671 96.3702 34.7078 96.8908L34.616 97.6982L33.5858 97.5913C33.0192 97.5326 32.4705 97.4149 32.3664 97.3297C32.2624 97.2446 31.8684 97.1194 31.4908 97.0516C30.7791 96.924 29.3153 96.4408 28.3759 96.0234C28.0785 95.8912 27.7581 95.7832 27.664 95.7832C27.5702 95.7832 27.0258 95.5533 26.4549 95.2724L25.4164 94.7616L25.6551 94.195C25.7864 93.8833 25.9455 93.2434 26.0085 92.7728L26.123 91.9171L27.6055 91.7936C28.421 91.7257 29.2427 91.6482 29.4315 91.6215C29.6202 91.5948 29.8547 91.5632 29.9525 91.5513C30.0501 91.5392 30.1301 91.3763 30.1301 91.1892C30.1301 90.8263 29.9307 90.725 29.8265 91.035C29.7453 91.2765 26.5142 91.3438 26.5134 91.1041C26.5132 91.0105 26.7063 90.9278 26.9424 90.9205C28.2288 90.8804 28.4994 90.8354 28.4018 90.6787C28.3386 90.5773 28.5598 90.5038 28.9494 90.4967C29.3089 90.49 29.7575 90.4216 29.9463 90.3447C30.5825 90.0854 29.7908 89.9531 28.0536 90.0284L26.4283 90.0989V89.5481C26.4283 89.2452 26.5058 88.9499 26.6005 88.8918C26.6953 88.8338 26.727 88.6058 26.6713 88.3851C26.6153 88.1646 26.6529 86.8868 26.7547 85.5457C26.9937 82.3934 27.0279 78.0308 26.814 77.96C26.5103 77.8596 25.1763 79.8359 24.8429 80.8804C24.6032 81.6309 24.4686 82.783 24.354 85.0639C24.2671 86.7951 24.1601 88.3074 24.1163 88.4243C24.0724 88.5413 23.8173 88.637 23.5496 88.637C22.6646 88.637 20.9935 89.3135 20.3515 89.9316C19.8823 90.3835 19.729 90.6752 19.7086 91.1548C19.6618 92.2625 19.7496 92.6096 20.1763 93.0016C20.4057 93.2124 20.5934 93.5027 20.5934 93.6468C20.5934 93.7907 20.7479 94.0043 20.9367 94.1212C21.1254 94.2381 21.2807 94.4109 21.2819 94.5055C21.283 94.6 21.7154 94.9743 22.2428 95.3372C23.1096 95.9339 23.1922 96.0442 23.1031 96.4857C22.9929 97.0322 23.3126 97.1609 23.6825 96.719C23.9823 96.3608 24.3378 96.4005 24.9534 96.8611C25.2455 97.0795 25.6388 97.3006 25.8276 97.3523C26.0164 97.4038 26.3059 97.5012 26.4712 97.5687C26.6846 97.6558 26.7715 97.6113 26.7715 97.4151C26.7715 97.1566 26.4806 96.986 25.0983 96.4335C24.4822 96.1873 24.4212 96.0098 24.7839 95.5183C25.0466 95.162 25.2179 95.2288 25.3126 95.725C25.3454 95.8974 25.3782 96.067 25.3854 96.1017C25.3927 96.1366 25.5076 96.0755 25.6407 95.9659C25.8063 95.8296 25.918 95.8232 25.9941 95.945C26.0552 96.0432 26.2359 96.1238 26.3955 96.1242C26.5551 96.1245 27.0624 96.3144 27.523 96.5461C27.9834 96.7777 28.4308 96.9239 28.5173 96.8709C28.6036 96.818 28.7673 96.8442 28.8813 96.929C28.9951 97.0137 29.4358 97.1808 29.8605 97.3004C30.8481 97.5781 31.1582 97.7474 31.1047 97.9793C31.0525 98.2054 31.3532 98.2301 31.4337 98.0062C31.5136 97.7838 32.9988 98.1862 33.1841 98.4804C33.2984 98.6619 33.3629 98.6684 33.4626 98.5084C33.5598 98.3524 33.6809 98.3473 33.9457 98.4879C34.2653 98.6573 34.6131 99.2949 34.4657 99.441C34.3917 99.5144 32.3013 99.0577 31.834 98.8661C31.6453 98.7887 30.8413 98.5205 30.0474 98.2701C29.2535 98.0198 28.5199 97.7116 28.4171 97.5856C28.2945 97.4352 28.0067 97.3848 27.5817 97.4396C27.0524 97.5076 26.9695 97.5665 27.1308 97.7591C27.2395 97.8889 27.4154 97.9956 27.5218 97.9961C27.6283 97.9968 27.9362 98.1113 28.206 98.2508C28.6759 98.4938 29.8514 98.853 31.3192 99.2021C31.6967 99.292 32.1215 99.4158 32.2631 99.4774C32.4046 99.539 32.9406 99.7093 33.4539 99.8557C34.2601 100.086 34.4039 100.192 34.5089 100.632C34.6921 101.4 35.0684 109.477 34.9442 109.968C34.8355 110.397 35.118 110.771 35.3284 110.476C35.3886 110.392 35.8772 109.956 36.414 109.507C37.281 108.782 37.4339 108.555 37.7824 107.469C38.1063 106.46 38.1754 105.861 38.1792 104.035C38.1816 102.819 38.1459 101.594 38.0998 101.313C38.0349 100.919 38.074 100.818 38.2714 100.872C38.7563 101.003 40.2439 101.149 40.5308 101.094C40.7575 101.049 40.7984 100.912 40.7225 100.449L40.6261 99.8604L42.7513 99.9624C43.9202 100.018 45.0032 100.064 45.158 100.063C45.348 100.061 45.4315 100.194 45.4154 100.471C45.3886 100.927 45.3869 100.927 42.8601 100.767C41.6988 100.693 41.5301 100.641 41.5301 100.359C41.5301 99.9123 41.2487 99.9544 41.126 100.42C41.0583 100.676 41.1387 100.915 41.3678 101.143C41.6665 101.439 41.9734 101.488 43.7563 101.524C44.9713 101.549 45.8446 101.497 45.9071 101.397C45.9649 101.304 46.2963 101.228 46.6433 101.228C47.4959 101.228 48.913 100.488 49.3601 99.8092C50.1394 98.626 50.0779 97.1665 49.2075 96.1837C48.2211 95.0698 45.2795 93.0608 44.6349 93.0608C44.4576 93.0608 44.2714 92.9545 44.2212 92.8245C44.1709 92.6945 43.7571 92.458 43.3018 92.2989C42.8465 92.14 42.3357 91.9373 42.1666 91.8489C41.9976 91.7605 41.7748 91.74 41.6713 91.8033C41.4627 91.9312 42.1555 92.5402 42.5169 92.5466C42.6349 92.5487 42.7314 92.6269 42.7314 92.7205C42.7314 92.8141 42.8489 92.8907 42.9924 92.8907C43.1361 92.8907 43.5416 93.0709 43.8934 93.2912C44.2454 93.5115 45.1897 94.0958 45.992 94.5896C47.3543 95.4281 48.7378 96.5521 48.7378 96.8204C48.7378 96.8849 48.6259 96.9803 48.4891 97.0324C48.3302 97.0928 48.2721 97.0452 48.3282 96.9004C48.4423 96.6053 44.8443 94.5385 44.4116 94.6507C44.2423 94.6946 44.1417 94.6697 44.188 94.5956C44.3121 94.3963 44.0111 94.1955 42.3024 93.338C41.4529 92.9118 40.7335 92.6324 40.7038 92.7173C40.6741 92.8022 40.5428 92.8308 40.4119 92.7809C40.1222 92.6708 39.7448 91.6079 39.9044 91.352C39.9676 91.2506 39.896 91.0326 39.7452 90.8676C39.4927 90.5908 39.5013 90.5394 39.8571 90.2081C40.0693 90.0104 40.955 89.4421 41.8253 88.9451C44.2277 87.573 46.3213 85.6762 47.6445 83.6729C48.057 83.0483 48.3946 82.4888 48.3946 82.43C48.3946 82.3711 48.5453 81.9949 48.7294 81.594C49.7109 79.4582 49.8917 75.7358 49.0931 74.1092C48.3354 72.5661 44.8539 68.3893 44.3253 68.3893C43.9327 68.3893 44.0871 68.7449 44.9424 69.8114C45.9251 71.0367 46.8552 72.689 47.3024 74.0042C47.536 74.6908 47.621 75.4408 47.6215 76.8205C47.6223 78.6634 47.609 78.728 46.952 80.0533C46.1815 81.6076 44.5863 83.2969 41.8733 85.4319C40.9767 86.1375 40.0959 86.8793 39.9161 87.0804C39.7362 87.2814 39.5235 87.4459 39.443 87.4459C39.2861 87.4459 39.3906 85.6255 39.6432 83.9579C39.7282 83.3964 39.8892 82.2862 40.0009 81.4907C40.1128 80.6953 40.3094 79.7164 40.4381 79.3154C40.7345 78.3918 40.7314 78.2579 40.4146 78.2579C40.2731 78.2579 40.1572 78.3321 40.1572 78.4228C40.1572 78.5133 40.0414 78.5434 39.8998 78.4897C39.7582 78.4357 39.6424 78.2874 39.6424 78.1599C39.6424 78.024 39.7486 77.9687 39.8998 78.0262C40.0592 78.0869 40.1572 78.0255 40.1572 77.8649C40.1572 77.7223 40.0853 77.5802 39.9974 77.5489C39.9096 77.5178 39.9868 77.074 40.1691 76.5629C40.3513 76.052 40.5004 75.4944 40.5004 75.3241C40.5004 75.0353 40.9368 74.7206 41.1055 74.8876C41.1835 74.9649 40.8244 76.0651 40.672 76.2162C40.6249 76.2629 40.5615 76.4544 40.5312 76.6415C40.501 76.8287 40.4342 77.1925 40.3831 77.4497C40.3276 77.7279 40.3649 77.9176 40.4749 77.9176C40.7314 77.9176 41.0215 77.3337 41.0899 76.6793C41.1213 76.3778 41.1883 76.0162 41.2385 75.8759C41.4556 75.2691 41.5341 74.6624 41.3834 74.7546C41.295 74.8087 41.178 74.7369 41.1229 74.595C41.0391 74.3782 40.961 74.3716 40.6365 74.5533C40.4239 74.6724 40.1533 74.8847 40.0352 75.0251C39.8444 75.2519 39.8013 75.2519 39.6482 75.0251C39.4994 74.8044 39.4757 74.8089 39.4733 75.0576C39.472 75.2158 39.548 75.3926 39.6424 75.4505C39.7368 75.5083 39.8128 75.6851 39.8114 75.8434C39.809 76.0913 39.7857 76.0959 39.6424 75.8759C39.5509 75.7355 39.4749 75.7009 39.4733 75.7993C39.472 75.8975 39.5454 76.052 39.6367 76.1425C39.8722 76.3759 39.6532 77.0669 39.3439 77.0669C39.1411 77.0669 39.1287 77.1185 39.2861 77.3065C39.4831 77.5419 39.4697 78.3156 39.2652 78.5184C39.2079 78.5753 38.9942 78.5208 38.7903 78.3973C38.467 78.2016 38.4341 78.0748 38.5322 77.4072C38.5942 76.9861 38.7141 76.558 38.7989 76.4557C38.8837 76.3535 38.9159 76.2332 38.8706 76.1882C38.8253 76.1435 38.9285 75.7122 39.0997 75.2301C39.3355 74.5662 39.4593 74.4012 39.6096 74.5502C39.7189 74.6586 39.8577 74.6983 39.9182 74.6382C40.0884 74.4696 39.8385 73.9692 39.6436 74.0886C39.5452 74.1488 39.4708 74.0114 39.4708 73.7691C39.4708 73.5351 39.548 73.2964 39.6424 73.2386C39.7368 73.1807 39.814 72.951 39.814 72.7281C39.814 72.5052 39.8912 72.2755 39.9856 72.2177C40.1428 72.1214 40.2336 72.3538 40.1733 72.6982C40.1598 72.7754 40.2226 72.7933 40.3127 72.738C40.6118 72.5547 40.7299 73.031 40.4378 73.2428C40.2803 73.357 40.1912 73.5751 40.2401 73.7274C40.5437 74.6739 40.5075 74.628 40.6921 74.302C40.7848 74.1383 40.9671 74.0042 41.097 74.0042C41.227 74.0042 41.3657 74.1383 41.4052 74.302C41.4694 74.5683 41.4908 74.5637 41.6079 74.2594C41.6799 74.0723 41.8871 73.5899 42.0685 73.1875C42.2497 72.7853 42.3504 72.38 42.2924 72.2869C42.2344 72.1938 42.2589 72.0254 42.3468 71.9124C42.5891 71.6012 42.9541 70.1403 42.8368 69.952C42.7798 69.8608 42.8488 69.7424 42.9898 69.6886C43.1309 69.635 43.2462 69.4392 43.2462 69.2534C43.2462 68.8108 43.6047 68.0383 43.7647 68.1363C43.9375 68.2422 45.2495 67.28 45.4571 66.8951C45.7149 66.4177 45.1927 65.6079 44.4925 65.3997C44.47 65.3929 44.6474 64.8186 44.887 64.1236C45.1264 63.4283 45.4039 62.5915 45.5036 62.264C45.9316 60.8577 47.1149 58.759 47.9556 57.915C48.433 57.4357 48.9781 56.9357 49.1668 56.8038C49.7821 56.374 52.5799 53.3433 53.3713 52.2494C53.7961 51.6623 54.3603 50.9381 54.6253 50.6402C55.226 49.9645 56.7928 47.4349 57.3929 46.1714C57.5298 45.8834 57.762 45.5485 57.9091 45.4275C58.0562 45.3065 58.1765 45.1315 58.1765 45.0387C58.1765 44.9458 58.5961 44.0172 59.109 42.9752C60.3968 40.3588 60.9828 39.0684 61.515 37.6776C61.7656 37.0225 62.0909 36.2186 62.2378 35.8911C62.5181 35.2663 63.3698 32.7248 64.4048 29.4254C65.0779 27.2802 65.7502 24.4894 66.229 21.8539C66.3991 20.918 66.5681 20.0421 66.6047 19.9072C66.6886 19.5984 66.0948 19.451 65.9991 19.7569C65.9603 19.8808 65.7973 20.5948 65.6366 21.3434C64.9552 24.5204 63.6936 29.2407 62.6583 32.4881C62.3748 33.3771 62.0137 34.5256 61.8558 35.0403C61.5553 36.0195 61.0953 37.2077 60.571 38.3582C60.4004 38.7325 59.954 39.7279 59.5792 40.5701C59.2043 41.4124 58.7744 42.3312 58.6239 42.6119C58.4734 42.8927 58.3498 43.2564 58.3491 43.4201C58.3486 43.5838 58.2846 43.7179 58.2069 43.7179C58.0618 43.7179 56.8044 46.0931 56.8025 46.3707C56.802 46.4557 56.4506 47.023 56.0217 47.6313C55.593 48.2396 54.9773 49.1255 54.6538 49.5999C53.7058 50.9897 52.1263 52.7774 51.5526 53.1095C50.77 53.5626 47.7572 53.8288 46.0596 53.5948C43.4817 53.2392 40.9957 52.0483 39.738 50.5665C39.2218 49.9581 38.5142 47.3949 37.9158 43.9658C37.5882 42.0879 37.5305 41.1308 37.5267 37.5075C37.5226 33.6507 37.5647 33.0156 37.9767 30.7015C38.582 27.3022 39.0491 25.0688 39.5423 23.215C39.7663 22.3728 40.1176 20.918 40.3228 19.9822C40.5281 19.0464 40.8064 17.9719 40.9415 17.5945C41.0764 17.217 41.1869 16.7538 41.1869 16.5651C41.1869 16.3763 41.2554 16.1493 41.3391 16.0603C41.4227 15.9715 41.5825 15.3641 41.6942 14.7109C41.8059 14.0575 41.9617 13.445 42.0407 13.3497C42.1194 13.2542 42.3878 12.3724 42.637 11.3897C42.8862 10.4071 43.3569 8.80248 43.683 7.82395C44.009 6.84543 44.2759 5.83544 44.2759 5.57953C44.2759 5.32363 44.3471 5.07062 44.4343 5.01736C44.5215 4.96394 44.6459 4.6723 44.7111 4.36927C44.8259 3.83466 45.6483 1.32651 45.7482 1.20639C45.7753 1.17355 46.0924 1.38079 46.4526 1.66681C47.7555 2.70165 51.2375 4.07372 54.9158 5.00188C55.9069 5.252 57.1425 5.56677 57.6616 5.70153C59.8749 6.27578 63.093 6.67545 65.6423 6.69298L68.2173 6.71068L67.732 7.63832C67.1981 8.6587 66.3873 9.65798 65.8297 9.98296C64.9941 10.4698 62.7656 11.0215 60.9223 11.198C58.1945 11.4592 57.3773 11.4624 54.943 11.222C53.3473 11.0644 52.7762 11.061 52.6276 11.2084C52.2969 11.5362 52.7432 11.6679 54.9665 11.8985C58.5633 12.2716 62.1618 11.917 64.9552 10.9144C65.8657 10.5875 66.3564 10.28 66.9829 9.64335C67.4375 9.18139 67.836 8.83021 67.8684 8.86305C67.9007 8.89572 67.8448 9.34372 67.7438 9.85842C67.4717 11.2475 67.1408 11.5926 65.2126 12.4983C64.8822 12.6534 64.4328 12.8021 64.2138 12.8287C63.9948 12.8552 63.7343 12.9575 63.6351 13.0558C63.5359 13.1542 63.365 13.2006 63.2555 13.1591C63.1462 13.1174 62.7501 13.1918 62.3755 13.3242C61.8392 13.5139 61.7584 13.591 61.9948 13.6867C62.1599 13.7534 62.4304 13.747 62.5955 13.6721C62.7606 13.5972 62.973 13.5263 63.0674 13.5144C64.6414 13.316 65.233 13.163 65.7768 12.8142C66.1343 12.585 66.6169 12.3257 66.8494 12.2381C67.3726 12.0407 67.3853 12.2088 67.0013 14.2416C66.8523 15.0294 66.7718 15.7147 66.8223 15.7648C67.1447 16.0845 67.3975 15.4733 67.7607 13.4957C67.9819 12.2905 68.2649 10.8836 68.3894 10.3689C68.514 9.85416 68.668 9.01193 68.7316 8.49723C68.7953 7.98253 68.9736 7.19968 69.1281 6.75764C69.3285 6.18322 69.356 5.90145 69.2238 5.77044C69.0009 5.54942 64.6499 3.65346 63.3248 3.19984C56.888 0.996765 53.0048 0.158957 48.6472 0.0332174C46.3018 -0.0345016 45.6876 -0.00523609 45.5347 0.182097ZM46.6083 0.661913C46.3117 0.767915 46.3304 0.814026 46.8065 1.15007C48.1301 2.08452 51.9271 3.5985 54.9606 4.4016C58.0284 5.21354 62.1275 5.9137 64.6548 6.05748C66.3806 6.15548 66.5855 6.13745 66.5855 5.88597C66.5855 5.53478 66.8582 5.51726 66.9908 5.85994C67.0519 6.018 67.304 6.11175 67.6527 6.10631L68.2158 6.09729L67.7965 5.80855C66.7545 5.09053 59.357 2.51432 56.268 1.79374C52.6047 0.939086 47.5046 0.341524 46.6083 0.661913ZM48.7378 1.07588C48.7378 1.32124 48.9513 1.39304 50.7972 1.7672C51.4107 1.89174 51.739 2.002 51.5265 2.01255C51.3141 2.0231 51.1404 2.10103 51.1404 2.18593C51.1404 2.33413 51.7923 2.55583 53.9351 3.13672C54.4812 3.28474 54.8817 3.48008 54.8251 3.57093C54.7684 3.66162 54.9009 3.80285 55.1194 3.88469C55.5745 4.05518 55.8328 3.96534 55.6644 3.69497C55.5956 3.58489 55.6291 3.55936 55.7473 3.63185C55.8563 3.69855 55.9462 3.84436 55.9471 3.95581C55.9486 4.18959 57.9587 4.8564 58.1349 4.68166C58.1995 4.61769 58.1387 4.49416 57.9999 4.40704C57.8056 4.28522 57.8482 4.24812 58.1851 4.24608C58.4258 4.24472 58.6961 4.30785 58.7857 4.38628C58.8754 4.46472 59.4121 4.62466 59.9784 4.74155C60.5447 4.85845 61.1399 5.02247 61.3008 5.10601C61.462 5.18972 61.9162 5.30917 62.3104 5.37161C62.8826 5.4623 63.0111 5.43729 62.9473 5.24723C62.9034 5.11639 62.7194 4.98554 62.5383 4.95662C62.3575 4.92786 62.0935 4.85555 61.9519 4.79634C61.8104 4.73696 61.6173 4.67656 61.5229 4.6621C61.3309 4.63283 60.8385 4.45945 60.3216 4.23877C59.7611 3.99971 61.0997 4.25765 61.7309 4.51049C62.5214 4.82697 63.8397 5.00137 63.8397 4.78936C63.8397 4.61394 61.6969 3.78209 59.8068 3.22366C52.8618 1.17202 48.7378 0.37181 48.7378 1.07588ZM53.3284 2.48454C53.4465 2.53184 53.6396 2.53184 53.7575 2.48454C53.8755 2.43741 53.7789 2.39879 53.543 2.39879C53.307 2.39879 53.2105 2.43741 53.3284 2.48454ZM54.3689 2.65826C54.4927 2.70743 54.6408 2.70131 54.6977 2.64482C54.7547 2.58833 54.6535 2.54817 54.4726 2.55549C54.2726 2.56366 54.232 2.60398 54.3689 2.65826ZM56.3349 3.17041C56.5019 3.21362 56.7336 3.21073 56.8497 3.16411C56.9659 3.11749 56.8293 3.08227 56.5462 3.08567C56.263 3.08908 56.1679 3.12719 56.3349 3.17041ZM58.316 3.67915C58.4397 3.72832 58.5878 3.7222 58.6448 3.66571C58.7018 3.60922 58.6005 3.56906 58.4196 3.57638C58.2197 3.58455 58.179 3.62487 58.316 3.67915ZM58.9916 3.84572C59.1097 3.89303 59.3028 3.89303 59.4207 3.84572C59.5387 3.79859 59.4421 3.75997 59.2061 3.75997C58.9702 3.75997 58.8737 3.79859 58.9916 3.84572ZM46.0018 5.53716C45.8077 5.9724 45.6488 6.46736 45.6488 6.63717C45.6488 6.80698 45.5846 6.98513 45.5062 7.03311C45.3835 7.10831 44.9129 8.76828 44.874 9.2629C44.8668 9.35648 44.7732 9.58992 44.6665 9.78168C44.4293 10.2077 41.5686 21.7492 41.4424 22.7897C41.4254 22.93 41.2924 23.466 41.1469 23.9807C40.6056 25.8959 39.8408 30.4523 39.4761 33.9344C39.2956 35.66 39.2482 43.6117 39.4117 44.7813C39.4644 45.1575 39.5954 45.4194 39.7311 45.4194C39.918 45.4194 39.9633 44.5084 39.9719 40.5771C39.9818 36.0604 40.1308 33.5847 40.5138 31.5717C40.6008 31.1143 40.672 30.4383 40.672 30.0695C40.672 29.2726 41.7666 23.8129 42.1325 22.7847C42.2732 22.3896 42.3882 21.8712 42.3882 21.633C42.3882 21.3946 42.6883 19.9686 43.0554 18.464C43.4223 16.9595 43.8541 15.116 44.0147 14.3673C44.1753 13.6187 44.4072 12.6616 44.5297 12.2405C44.6522 11.8194 44.8451 11.0537 44.9584 10.539C45.0718 10.0243 45.2654 9.29693 45.3886 8.9226C45.5119 8.54828 45.7478 7.78261 45.9129 7.22112C46.0782 6.65963 46.316 5.91643 46.4415 5.56949C46.7801 4.63419 46.4166 4.60748 46.0018 5.53716ZM64.2687 5.09427C64.3271 5.18785 64.4473 5.26442 64.5362 5.26442C64.6251 5.26442 64.6977 5.18785 64.6977 5.09427C64.6977 5.00069 64.5773 4.92412 64.4302 4.92412C64.2831 4.92412 64.2104 5.00069 64.2687 5.09427ZM65.8132 5.60471C65.8716 5.6983 65.9919 5.77486 66.0808 5.77486C66.1696 5.77486 66.2422 5.6983 66.2422 5.60471C66.2422 5.51113 66.1218 5.43457 65.9747 5.43457C65.8276 5.43457 65.7549 5.51113 65.8132 5.60471ZM66.321 10.7206C66.2587 10.8203 66.2431 10.937 66.2863 10.9797C66.406 11.0985 66.9287 10.8635 66.9287 10.691C66.9287 10.4779 66.458 10.5009 66.321 10.7206ZM47.8931 11.2048C46.6908 11.3338 46.4722 11.7423 47.6534 11.6526C48.1082 11.6183 49.3493 11.5832 50.411 11.5749C52.006 11.5625 52.3417 11.5155 52.3417 11.3047C52.3417 11.0927 52.0443 11.0542 50.5826 11.0772C49.6153 11.0925 48.4049 11.1498 47.8931 11.2048ZM64.8149 11.4238C64.3869 11.6535 64.2183 11.8332 64.3281 11.942C64.5083 12.1207 66.0706 11.4459 66.0706 11.1895C66.0706 10.9501 65.499 11.0568 64.8149 11.4238ZM45.3914 11.3897C45.3229 11.4997 45.344 11.6661 45.4384 11.7597C45.5529 11.8731 45.6515 11.8633 45.7346 11.73C45.8031 11.6201 45.782 11.4537 45.6876 11.3601C45.5731 11.2467 45.4744 11.2565 45.3914 11.3897ZM48.3517 12.1922C48.0922 12.2311 47.8798 12.3388 47.8798 12.4312C47.8798 12.6771 49.4697 12.5364 49.5538 12.283C49.625 12.0688 49.3242 12.0462 48.3517 12.1922ZM52.1014 12.3652C51.8086 12.6555 52.1261 12.7509 53.3856 12.7509C54.419 12.7509 54.7547 12.6967 54.7015 12.5382C54.6277 12.3186 52.3044 12.1639 52.1014 12.3652ZM60.6649 12.4106C60.6065 12.5042 60.6746 12.5808 60.8162 12.5808C60.9578 12.5808 61.1213 12.5042 61.1797 12.4106C61.238 12.3171 61.1699 12.2405 61.0283 12.2405C60.8867 12.2405 60.7232 12.3171 60.6649 12.4106ZM55.7739 12.5808C55.7739 12.6744 56.0828 12.7509 56.4604 12.7509C56.8379 12.7509 57.1468 12.6744 57.1468 12.5808C57.1468 12.4872 56.8379 12.4106 56.4604 12.4106C56.0828 12.4106 55.7739 12.4872 55.7739 12.5808ZM57.4042 12.5808C57.3388 12.6856 57.6313 12.7509 58.1664 12.7509C58.6438 12.7509 59.0345 12.6744 59.0345 12.5808C59.0345 12.4872 58.6917 12.4106 58.2724 12.4106C57.8532 12.4106 57.4626 12.4872 57.4042 12.5808ZM59.721 12.5808C59.721 12.6744 59.8368 12.7509 59.9784 12.7509C60.12 12.7509 60.2358 12.6744 60.2358 12.5808C60.2358 12.4872 60.12 12.4106 59.9784 12.4106C59.8368 12.4106 59.721 12.4872 59.721 12.5808ZM42.5598 13.0965C42.5598 13.3158 43.0487 13.5139 43.2057 13.3582C43.2697 13.2947 43.2085 13.1717 43.0696 13.0846C42.7374 12.8763 42.5598 12.8804 42.5598 13.0965ZM56.7178 13.4315C56.7761 13.5251 56.8964 13.6017 56.9853 13.6017C57.0742 13.6017 57.1468 13.5251 57.1468 13.4315C57.1468 13.3379 57.0263 13.2614 56.8793 13.2614C56.7322 13.2614 56.6594 13.3379 56.7178 13.4315ZM55.2591 13.6017C55.2591 13.8184 55.9505 13.8184 56.2887 13.6017C56.4803 13.479 56.3812 13.4361 55.9026 13.4341C55.5488 13.4327 55.2591 13.5081 55.2591 13.6017ZM60.4074 13.5486C60.0771 13.5814 59.2949 13.7276 58.6692 13.8736C57.7389 14.0903 56.7531 14.1232 53.2634 14.0534C50.9159 14.0065 48.7064 13.943 48.3534 13.9125C48.0004 13.8819 47.7117 13.9335 47.7117 14.027C47.7119 14.1206 47.8077 14.1992 47.9245 14.2016C48.0416 14.2042 48.2288 14.263 48.3407 14.3326C48.923 14.6942 55.5869 14.8307 57.8333 14.5269C58.258 14.4696 58.9082 14.3823 59.2784 14.3331C60.2852 14.1994 61.2911 13.8785 61.2911 13.691C61.2912 13.4897 61.18 13.4717 60.4074 13.5486ZM63.0817 15.4505C63.0077 15.5691 62.9936 15.712 63.0503 15.7682C63.2038 15.9205 63.3713 15.6965 63.2883 15.4498C63.2303 15.277 63.1898 15.2769 63.0817 15.4505ZM66.6891 16.1253C66.6406 16.2031 66.5486 16.7964 66.4844 17.444C66.4202 18.0914 66.2999 18.7066 66.217 18.8111C66.1243 18.928 66.1655 19.0828 66.3239 19.2132C66.6224 19.4589 66.6419 19.424 66.9433 18.1106C67.3059 16.5299 67.3308 15.9837 67.0406 15.9837C66.8957 15.9837 66.7377 16.0474 66.6891 16.1253ZM57.1394 16.3399C56.678 16.5081 56.1171 17.2903 56.1171 17.7655C56.1171 18.0092 56.0423 17.9957 55.5803 17.6697C55.2786 17.4567 54.6883 17.257 54.2323 17.2136C53.5483 17.1484 53.3633 17.1978 53.053 17.5278C52.4834 18.1339 52.6797 18.5167 53.2634 17.9382C53.4062 17.7965 53.7588 17.6338 54.0471 17.5767C54.4796 17.4909 54.7036 17.5806 55.3301 18.0895C55.7475 18.4286 56.1659 18.7061 56.2596 18.7061C56.3534 18.7061 56.4837 18.3917 56.5493 18.0075C56.7732 16.6929 57.6778 16.3368 58.7793 17.1294C59.1694 17.4099 59.64 18.3677 59.7562 19.1174C59.8363 19.6343 60.2358 19.6533 60.2358 19.1402C60.2358 18.1472 59.4279 16.8791 58.4854 16.393C57.9606 16.1222 57.7581 16.1142 57.1394 16.3399ZM62.7201 16.6771C62.5915 17.0788 62.7007 17.2619 62.9701 17.0967C63.1953 16.9589 63.2141 16.324 62.9931 16.324C62.9051 16.324 62.7822 16.483 62.7201 16.6771ZM45.3116 18.0143C44.8396 18.8885 45.3121 19.8972 46.1935 19.8972C47.0855 19.8972 47.5559 18.5737 46.8794 17.9668C46.4401 17.5726 45.5352 17.6 45.3116 18.0143ZM45.7935 18.3577C45.4732 18.6183 45.4286 18.7452 45.5745 18.9819C46.0526 19.7576 46.8501 19.6292 46.8501 18.7764C46.8501 18.1744 46.2908 17.9529 45.7935 18.3577ZM62.2174 18.8085C62.1071 19.3913 62.1864 19.7214 62.3884 19.5213C62.4395 19.4704 62.5268 19.1514 62.5824 18.8123C62.7156 17.9983 62.3714 17.9949 62.2174 18.8085ZM52.6355 18.4715C52.3969 18.708 52.5183 19.9266 52.8526 20.6543C53.5378 22.1457 55.5719 23.3689 57.7346 23.59C58.6115 23.6799 58.656 23.6635 59.0953 23.0925C59.345 22.7679 59.5494 22.4128 59.5494 22.3034C59.5494 22.194 59.6429 21.9558 59.7574 21.7742C59.8718 21.5925 59.9156 21.3945 59.8547 21.3341C59.6813 21.1622 59.3778 21.4179 59.3771 21.7363C59.3767 21.8945 59.2235 22.2728 59.0364 22.577C58.7826 22.9896 58.576 23.1286 58.222 23.1249C57.8168 23.1204 57.7912 23.0942 58.0478 22.9462C58.5125 22.6777 58.4044 22.2971 57.7903 22.041C57.4835 21.9131 56.6984 21.5886 56.0454 21.3201C55.3924 21.0514 54.8237 20.7288 54.7813 20.6031C54.7202 20.421 54.7782 20.4137 55.0676 20.5672C55.5651 20.8311 55.5242 20.5539 54.9926 20.059C54.6502 19.7399 54.5237 19.7003 54.4134 19.8772C54.3147 20.0357 54.2371 20.047 54.1549 19.9154C54.0904 19.8117 53.8877 19.727 53.7044 19.727C53.3286 19.727 53.25 20.2192 53.5744 20.5408C53.6861 20.6516 53.731 20.7884 53.6741 20.8447C53.5064 21.0109 53.1441 20.2203 52.9439 19.2514C52.8414 18.7558 52.7026 18.405 52.6355 18.4715ZM59.0327 19.2491C59.0316 19.3716 58.9829 19.759 58.9244 20.1098C58.859 20.5025 58.8861 20.7479 58.9947 20.7479C59.2012 20.7479 59.3597 19.2256 59.1656 19.1066C59.0936 19.0624 59.0337 19.1266 59.0327 19.2491ZM61.7731 20.4292C61.6602 20.8384 61.4665 21.5178 61.3425 21.9389C61.2188 22.36 60.9552 23.3554 60.757 24.1509C60.5588 24.9463 60.2866 25.9417 60.1522 26.3628C60.0179 26.7839 59.7538 27.6644 59.5653 28.3195C59.3769 28.9745 59.0922 29.9316 58.9326 30.4463C58.773 30.961 58.5827 31.6501 58.5097 31.9777C58.4368 32.3052 57.9863 33.6834 57.5089 35.0403C57.0313 36.3973 56.6387 37.7181 56.6363 37.9754C56.6339 38.2326 56.5547 38.4433 56.4604 38.4433C56.366 38.4433 56.2887 38.5236 56.2887 38.6216C56.2887 38.7198 56.1398 39.1058 55.9575 39.4797C55.7755 39.8535 55.5747 40.3928 55.5113 40.6782C55.4482 40.9635 55.134 41.7237 54.8129 42.3676C54.492 43.0114 54.2294 43.6209 54.2294 43.722C54.2294 43.823 54.0617 44.2271 53.8568 44.62C53.6521 45.0129 53.4244 45.4491 53.3509 45.5895C52.2099 47.7728 51.5759 48.8666 50.7108 50.1454C49.9499 51.2697 49.7785 51.7148 50.1062 51.7148C50.4222 51.7148 52.4153 48.6717 53.4494 46.6104C53.8016 45.9085 54.1676 45.1888 54.2629 45.011C54.7655 44.073 55.5901 41.9643 55.5067 41.8304C55.4537 41.7455 55.4834 41.6761 55.5724 41.6761C55.6615 41.6761 55.8659 41.274 56.0267 40.7828C56.1873 40.2916 56.418 39.6598 56.539 39.3791C56.6601 39.0984 56.8602 38.5241 56.9839 38.103C57.1075 37.6819 57.2599 37.2608 57.3225 37.1672C57.3852 37.0736 57.6524 36.3079 57.9161 35.4657C58.1799 34.6235 58.4571 33.7812 58.5319 33.5941C58.6067 33.4069 58.8348 32.6412 59.0387 31.8926C59.2425 31.1439 59.5936 29.9189 59.8191 29.1702C60.0446 28.4216 60.4275 27.0817 60.67 26.1926C60.9127 25.3036 61.2682 24.002 61.4603 23.3001C62.1694 20.7098 62.3072 20.0111 62.1416 19.847C62.0384 19.7447 61.903 19.9586 61.7731 20.4292ZM62.9972 20.222C62.6157 20.6002 62.5097 21.2583 62.8301 21.2583C62.9372 21.2583 62.9821 21.1083 62.9318 20.918C62.8826 20.7309 62.8745 20.5777 62.9142 20.5777C63.0861 20.5777 63.7659 21.0217 63.8912 21.2158C64.1172 21.566 64.3545 21.4571 64.3545 21.0031C64.3545 20.7692 64.2804 20.5777 64.1896 20.5777C64.0988 20.5777 63.8742 20.4176 63.6904 20.222L63.3561 19.8662L62.9972 20.222ZM59.8926 20.2374C59.8926 20.331 59.9698 20.4076 60.0642 20.4076C60.1586 20.4076 60.2358 20.331 60.2358 20.2374C60.2358 20.1439 60.1586 20.0673 60.0642 20.0673C59.9698 20.0673 59.8926 20.1439 59.8926 20.2374ZM54.0578 20.5233C54.0578 20.6142 54.2509 20.8684 54.4868 21.0882C54.7228 21.308 54.9158 21.4401 54.9158 21.3819C54.9158 21.3235 54.7228 21.0693 54.4868 20.8168C54.2509 20.5645 54.0578 20.4323 54.0578 20.5233ZM43.6324 21.0206C43.1762 21.5365 43.1601 21.6561 43.5076 21.9422C43.7238 22.1201 43.7518 22.1128 43.6694 21.9003C43.6047 21.7327 43.6974 21.6104 43.9358 21.5484C44.2467 21.468 44.273 21.4007 44.1112 21.1008C44.006 20.906 43.9919 20.7479 44.0799 20.7479C44.1674 20.7479 44.2836 20.8627 44.338 21.0031C44.4624 21.3245 44.7907 21.3378 44.7907 21.0213C44.7907 20.8091 44.4377 20.5726 44.1331 20.5808C44.0701 20.5825 43.8448 20.7804 43.6324 21.0206ZM54.0523 21.382C54.1541 21.5905 54.4093 21.8435 54.6195 21.9444C54.9749 22.115 54.9797 22.1103 54.6874 21.877C54.5146 21.739 54.2594 21.486 54.1203 21.3147C53.885 21.0249 53.8802 21.0297 54.0523 21.382ZM44.6191 21.7548C44.6191 21.9343 44.5723 22.2023 44.515 22.3503C44.4477 22.5244 44.5047 22.6195 44.6764 22.6195C45.0446 22.6195 45.1854 22.3355 45.061 21.8442C44.9363 21.3516 44.6191 21.2874 44.6191 21.7548ZM55.6023 21.9202C55.8383 22.1145 56.1676 22.3187 56.3342 22.3737C56.5007 22.4288 56.5927 22.545 56.5386 22.6318C56.4844 22.7185 56.5173 22.7897 56.6117 22.7897C56.7061 22.7897 56.8312 22.7128 56.8897 22.6188C56.9483 22.5249 57.1961 22.4979 57.4403 22.5586C58.3397 22.7825 57.645 22.284 56.6661 22.0031C56.1283 21.8489 55.5723 21.6876 55.4307 21.6447C55.2891 21.602 55.3663 21.7259 55.6023 21.9202ZM51.0469 22.8671C50.7227 23.1883 50.6614 23.3668 50.7728 23.6651C50.9693 24.1917 51.3449 24.3925 51.8835 24.2584C52.1819 24.184 52.3751 23.9924 52.4501 23.6966C52.5854 23.1626 52.3829 22.7902 51.8517 22.5954C51.5509 22.4849 51.3709 22.5457 51.0469 22.8671ZM55.7418 22.5656C55.8655 22.6148 56.0137 22.6086 56.0706 22.5521C56.1276 22.4957 56.0263 22.4555 55.8455 22.4628C55.6455 22.471 55.6049 22.5113 55.7418 22.5656ZM51.5904 23.2077C51.6492 23.3598 51.63 23.4619 51.5476 23.4347C51.4652 23.4075 51.3784 23.4618 51.3549 23.5553C51.3314 23.6489 51.4472 23.7255 51.6123 23.7255C51.959 23.7255 52.0316 23.1126 51.6979 23.0024C51.56 22.9568 51.5215 23.0301 51.5904 23.2077ZM43.5948 25.8098C43.5979 25.8801 43.7909 26.0751 44.0238 26.2432C44.3408 26.4718 44.4475 26.4911 44.4475 26.3197C44.4475 26.1936 44.3548 25.9987 44.2416 25.8864C44.0137 25.6604 43.5864 25.6099 43.5948 25.8098ZM42.8119 26.031C42.6488 26.2927 42.8721 26.4615 43.0925 26.243C43.2157 26.1208 43.2186 26.0257 43.1014 25.9539C43.0053 25.895 42.875 25.9297 42.8119 26.031ZM47.9716 26.3531C47.91 26.4519 47.7141 26.5329 47.5365 26.5329C47.2379 26.5329 46.9086 26.8177 47.0478 26.9557C47.0811 26.9887 47.3332 27.0716 47.6079 27.14C48.0291 27.2448 48.0907 27.2201 47.9992 26.9838C47.9287 26.8014 47.9789 26.7031 48.1425 26.7031C48.2992 26.7031 48.3946 26.8695 48.3946 27.1426C48.3946 27.4185 48.4744 27.5559 48.6091 27.5113C48.7272 27.4723 48.8236 27.1788 48.8236 26.8591C48.8236 26.3932 48.75 26.2673 48.4536 26.2255C48.2503 26.1967 48.0333 26.254 47.9716 26.3531ZM53.543 26.7781C53.543 26.9239 53.6202 27.0434 53.7146 27.0434C53.809 27.0434 53.8862 26.9714 53.8862 26.8833C53.8862 26.7951 53.809 26.6758 53.7146 26.618C53.6202 26.5601 53.543 26.6323 53.543 26.7781ZM42.9962 26.8615C42.9418 26.9486 42.9759 27.0679 43.0719 27.1267C43.1678 27.1854 43.2462 27.1141 43.2462 26.9683C43.2462 26.6694 43.1433 26.6255 42.9962 26.8615ZM44.1043 26.8833C44.1043 26.9823 44.1815 27.0161 44.2759 26.9583C44.3703 26.9004 44.4475 26.8195 44.4475 26.7781C44.4475 26.7368 44.3703 26.7031 44.2759 26.7031C44.1815 26.7031 44.1043 26.7842 44.1043 26.8833ZM61.6154 27.2457C61.423 27.4504 61.2655 27.703 61.2655 27.8072C61.2655 28.1093 61.647 28.4046 62.0377 28.4046C62.236 28.4046 62.4908 28.3127 62.6041 28.2004C63.0261 27.782 62.7369 26.8732 62.1817 26.8732C62.0626 26.8732 61.8078 27.0408 61.6154 27.2457ZM53.3266 27.7051C53.2799 27.8819 53.3056 28.1289 53.3835 28.254C53.4894 28.4238 53.5659 28.3746 53.6856 28.0602C53.7738 27.8284 53.8117 27.5815 53.7702 27.5113C53.6334 27.2811 53.413 27.3775 53.3266 27.7051ZM48.223 27.8941C48.223 27.9877 48.0205 28.0643 47.773 28.0643C47.3924 28.0643 47.3558 28.1037 47.5365 28.3195C47.8163 28.6536 48.3302 28.646 48.462 28.3055C48.6127 27.9162 48.5904 27.724 48.3946 27.724C48.3002 27.724 48.223 27.8005 48.223 27.8941ZM56.062 28.0707C55.3075 28.6593 55.2131 30.4463 55.9366 30.4463C56.1168 30.4463 56.3663 30.3463 56.4911 30.2241C56.6157 30.1019 56.853 29.9512 57.0181 29.8891C57.1832 29.8272 57.3184 29.6458 57.3184 29.4862C57.3184 29.2356 57.2642 29.2464 56.9213 29.566C56.3214 30.1247 55.9455 30.0509 55.9455 29.3744C55.9455 28.8282 56.1947 28.4046 56.5156 28.4046C56.6028 28.4046 56.588 28.5073 56.4828 28.6329C56.2256 28.9403 56.4096 29.0862 57.0468 29.0797C57.5233 29.0749 57.546 29.052 57.2755 28.8483C57.1104 28.7239 56.9752 28.5061 56.9752 28.3641C56.9752 27.8385 56.5393 27.6984 56.062 28.0707ZM53.1997 28.8299C53.1997 28.9703 53.277 29.0851 53.3713 29.0851C53.4657 29.0851 53.543 28.9703 53.543 28.8299C53.543 28.6895 53.4657 28.5747 53.3713 28.5747C53.277 28.5747 53.1997 28.6895 53.1997 28.8299ZM53.0281 29.5956C53.0281 30.0012 53.2917 30.047 53.4388 29.6667C53.586 29.2864 53.5744 29.2553 53.2855 29.2553C53.1426 29.2553 53.0281 29.4066 53.0281 29.5956ZM60.5854 31.0641C60.1222 32.2916 59.9434 33.1537 60.2018 32.9135C60.5071 32.6298 61.2633 30.3761 61.1057 30.2199C61.0244 30.1392 60.7924 30.5158 60.5854 31.0641ZM52.7196 31.0306C52.5689 31.361 52.5533 31.5749 52.671 31.6916C52.8915 31.9103 53.0779 31.4781 52.9988 30.9321C52.9447 30.5586 52.9329 30.5629 52.7196 31.0306ZM52.2188 33.3094C51.9808 34.0586 52.2385 34.4805 52.5069 33.7809C52.7189 33.2281 52.7341 32.8786 52.5512 32.7665C52.4776 32.7214 52.3279 32.9657 52.2188 33.3094ZM59.5837 33.7574C59.4776 33.9885 59.4567 34.218 59.5375 34.2673C59.6184 34.3169 59.7351 34.1574 59.7968 33.9131C59.9465 33.322 59.8246 33.2332 59.5837 33.7574ZM43.9014 34.4448C43.7549 34.7635 43.7554 34.9777 43.903 35.2989C44.2095 35.9659 45.4772 36.2953 45.4772 35.708C45.4772 35.6015 45.3703 35.555 45.2395 35.6049C45.1087 35.6546 44.8481 35.5885 44.6601 35.458C44.298 35.2066 44.0295 34.5299 44.292 34.5299C44.3775 34.5299 44.4475 34.415 44.4475 34.2747C44.4475 33.8733 44.1168 33.9764 43.9014 34.4448ZM45.4772 34.3597C45.4772 34.4533 45.5544 34.5299 45.6488 34.5299C45.7432 34.5299 45.8204 34.4533 45.8204 34.3597C45.8204 34.2662 45.7432 34.1896 45.6488 34.1896C45.5544 34.1896 45.4772 34.2662 45.4772 34.3597ZM53.7489 34.3938C53.4812 34.6592 53.4855 34.8925 53.7575 34.8574C54.7633 34.7279 55.007 35.244 54.2802 35.9644C53.7966 36.4439 54.0693 36.5788 54.6739 36.1591C55.1024 35.8613 55.089 35.0015 54.6481 34.5186C54.3025 34.1401 54.0415 34.1037 53.7489 34.3938ZM59.2061 34.7C59.2061 34.7936 59.2834 34.8702 59.3778 34.8702C59.4721 34.8702 59.5494 34.7936 59.5494 34.7C59.5494 34.6064 59.4721 34.5299 59.3778 34.5299C59.2834 34.5299 59.2061 34.6064 59.2061 34.7ZM45.6016 34.9166C45.5506 35.0485 45.5748 35.262 45.6555 35.3913C45.7739 35.5814 45.8245 35.5681 45.9198 35.3219C45.9846 35.1545 45.9604 34.941 45.8661 34.8474C45.7516 34.7339 45.6634 34.757 45.6016 34.9166ZM51.8268 35.2205C51.8268 35.5242 51.8984 35.6973 51.9984 35.6358C52.0928 35.578 52.1701 35.3439 52.1701 35.1154C52.1701 34.8869 52.0928 34.7 51.9984 34.7C51.9041 34.7 51.8268 34.9343 51.8268 35.2205ZM51.6688 36.1604C51.677 36.3586 51.7177 36.399 51.7724 36.2633C51.822 36.1405 51.8158 35.9937 51.7589 35.9372C51.7019 35.8807 51.6614 35.9811 51.6688 36.1604ZM42.1405 36.7796C41.9936 36.9875 41.7065 37.1597 41.5023 37.1624C41.2983 37.165 41.1019 37.2533 41.0661 37.3584C40.9938 37.5708 41.8663 38.6771 42.0008 38.5437C42.0477 38.4974 42.198 38.5707 42.335 38.7067C42.6566 39.0255 42.903 39.022 42.903 38.6985C42.903 38.5581 42.7606 38.4433 42.5864 38.4433C42.2787 38.4433 41.9011 38.1134 41.6125 37.5925C41.5104 37.4083 41.5667 37.4202 41.8148 37.6354C42.1944 37.9647 42.3882 37.8777 42.3882 37.3782C42.3882 37.1934 42.538 37.0113 42.7314 36.9613C43.1434 36.8544 43.1762 36.6467 42.8031 36.5048C42.4276 36.3619 42.439 36.3573 42.1405 36.7796ZM51.3885 36.7566C51.3252 36.8584 51.3592 37.0268 51.4642 37.1309C51.6044 37.2699 51.6552 37.2208 51.6552 36.946C51.6552 36.5351 51.5662 36.4718 51.3885 36.7566ZM46.7785 36.8892C46.7046 37.0077 46.6905 37.1507 46.7471 37.2068C46.9007 37.3591 47.0682 37.1352 46.9851 36.8885C46.9271 36.7156 46.8866 36.7156 46.7785 36.8892ZM42.8189 37.2495C42.6924 37.4525 42.8531 37.7627 43.0847 37.7627C43.2936 37.7627 43.295 37.3021 43.0865 37.1745C42.9986 37.1206 42.8783 37.1544 42.8189 37.2495ZM51.1404 37.6642C51.1404 37.7191 50.9473 38.4836 50.7114 39.3629C50.2092 41.2341 50.2166 41.1657 50.515 41.1657C50.6674 41.1657 50.8867 40.5929 51.1507 39.5067C51.3724 38.5942 51.5438 37.8114 51.5315 37.7669C51.4977 37.6439 51.1404 37.55 51.1404 37.6642ZM57.4825 38.0269C57.1526 38.421 57.2081 39.3036 57.5794 39.5729C57.8451 39.7655 57.9546 39.766 58.2422 39.5768C58.835 39.1867 58.8123 38.8872 58.1995 39.0087C57.6311 39.1215 57.5099 38.9311 57.8391 38.4433C57.9892 38.2209 58.0419 38.2277 58.2491 38.496C58.41 38.7046 58.5252 38.7422 58.6059 38.6129C58.7423 38.3939 58.2281 37.7627 57.9134 37.7627C57.7981 37.7627 57.6041 37.8816 57.4825 38.0269ZM42.903 38.2631C42.903 38.3512 42.9802 38.4705 43.0746 38.5284C43.169 38.5862 43.2462 38.5141 43.2462 38.3682C43.2462 38.2224 43.169 38.103 43.0746 38.103C42.9802 38.103 42.903 38.175 42.903 38.2631ZM46.1772 39.9037C46.1854 40.1019 46.2261 40.1422 46.2808 40.0066C46.3304 39.8838 46.3243 39.7369 46.2673 39.6804C46.2103 39.6239 46.1698 39.7243 46.1772 39.9037ZM45.6488 41.3896C45.6488 41.5238 45.5999 41.892 45.5403 42.2078C45.4679 42.5906 45.489 42.7254 45.6035 42.6119C45.854 42.3633 46.0087 41.3661 45.8147 41.2473C45.7235 41.1913 45.6488 41.2553 45.6488 41.3896ZM50.1107 41.6761C50.1107 41.8633 50.1879 42.0164 50.2823 42.0164C50.3767 42.0164 50.4539 41.8633 50.4539 41.6761C50.4539 41.4889 50.3767 41.3358 50.2823 41.3358C50.1879 41.3358 50.1107 41.4889 50.1107 41.6761ZM56.3745 41.9764C56.1817 42.117 55.6023 43.3002 55.6023 43.5535C55.6023 43.6439 55.9085 43.7179 56.2827 43.7179C57.1767 43.7179 57.4204 43.3207 57.0564 42.4571C56.7943 41.8352 56.6795 41.7544 56.3745 41.9764ZM49.8123 42.8939C49.7011 43.1132 49.5265 43.6371 49.4243 44.0582C49.322 44.4793 49.1725 44.977 49.092 45.1641C48.663 46.1621 48.3821 47.1333 48.4778 47.2869C48.5375 47.3827 48.5046 47.4611 48.4047 47.4611C48.3048 47.4611 48.223 47.5598 48.223 47.6805C48.223 47.8009 48.0685 48.1999 47.8798 48.5671C47.5044 49.297 47.4445 49.6731 47.7037 49.6731C47.9058 49.6731 48.3005 48.9275 48.4696 48.2268C48.5372 47.9461 48.6917 47.4867 48.8128 47.2059C49.3349 45.995 49.4243 45.7215 49.4243 45.3363C49.4243 45.1122 49.4963 44.8849 49.5844 44.831C49.7663 44.7194 50.1687 42.9546 50.0755 42.6773C50.0417 42.577 49.9233 42.6745 49.8123 42.8939ZM56.1171 42.8671C56.1171 43.0939 56.2316 43.2074 56.4604 43.2074C56.8494 43.2074 56.9002 43.031 56.5976 42.731C56.2951 42.431 56.1171 42.4814 56.1171 42.8671ZM42.2131 42.9386C42.001 43.1489 41.9935 43.8365 42.2021 43.9642C42.2886 44.0173 42.5589 43.9854 42.8028 43.8935C43.1443 43.7647 43.2462 43.6083 43.2462 43.2136C43.2462 42.7696 43.1882 42.7055 42.8138 42.7363C42.5759 42.7559 42.3056 42.8469 42.2131 42.9386ZM45.1226 43.839C44.9977 44.287 44.8839 44.7303 44.8695 44.8238C44.8551 44.9174 44.7864 45.1235 44.7168 45.2819C44.6471 45.4401 44.6231 45.7081 44.6634 45.8774C44.7717 46.332 45.0861 45.498 45.298 44.1934C45.507 42.9063 45.4274 42.7453 45.1226 43.839ZM42.6742 43.3209C42.6113 43.3832 42.5598 43.5134 42.5598 43.6102C42.5598 43.7167 42.6398 43.7066 42.7628 43.5847C42.8745 43.4739 42.926 43.3437 42.8773 43.2954C42.8285 43.2471 42.7371 43.2585 42.6742 43.3209ZM51.0002 45.1265C50.9 45.2463 50.8251 45.5944 50.8339 45.9002C50.8612 46.8518 51.8709 47.0572 52.3312 46.2046C52.5876 45.7294 52.5217 45.2233 52.1888 45.1134C52.0099 45.0546 51.9772 45.1422 52.0583 45.4627C52.129 45.742 52.0786 45.9633 51.9132 46.0994C51.596 46.3604 51.1404 46.2027 51.1404 45.8318C51.1404 45.6652 51.2353 45.5892 51.3763 45.6429C51.5365 45.7038 51.6123 45.6004 51.6123 45.3208C51.6123 44.8761 51.2943 44.7752 51.0002 45.1265ZM39.5343 45.9723C39.5911 46.183 39.6388 46.4125 39.64 46.4828C39.6413 46.5531 39.7196 46.6104 39.814 46.6104C39.9084 46.6104 39.9856 46.3807 39.9856 46.0999C39.9856 45.7433 39.902 45.5895 39.7081 45.5895C39.5042 45.5895 39.4581 45.6909 39.5343 45.9723ZM44.4475 46.6204C44.4475 46.813 44.5247 46.9235 44.6191 46.8656C44.7135 46.8078 44.7907 46.6502 44.7907 46.5153C44.7907 46.3804 44.7135 46.2701 44.6191 46.2701C44.5247 46.2701 44.4475 46.4278 44.4475 46.6204ZM46.0837 46.4309C46.0221 46.5296 45.7833 46.6104 45.5529 46.6104C45.2076 46.6104 45.134 46.695 45.134 47.0912C45.134 47.5714 45.7355 48.3119 46.1257 48.3119C46.4114 48.3119 46.6474 47.795 46.7099 47.0318C46.7516 46.5219 46.698 46.3536 46.4799 46.3092C46.3236 46.2774 46.1453 46.332 46.0837 46.4309ZM46.1636 46.9407C46.1636 47.0397 45.9997 47.1208 45.7995 47.1208C45.495 47.1208 45.4703 47.1629 45.6488 47.3761C45.9345 47.7175 46.1158 47.6976 46.3298 47.3014C46.4482 47.0819 46.4502 46.9361 46.3358 46.866C46.241 46.8079 46.1636 46.8416 46.1636 46.9407ZM45.4094 49.5538C45.2066 49.701 45.1238 49.9429 45.1621 50.2769C45.2088 50.6839 45.3112 50.7894 45.702 50.8338C46.2872 50.9003 46.6785 50.6111 46.6785 50.1117C46.6785 49.4029 46.0181 49.1126 45.4094 49.5538ZM45.6009 50.0838C45.3255 50.2909 45.3227 50.3239 45.5735 50.4192C45.9175 50.55 46.1636 50.412 46.1636 50.0884C46.1636 49.7859 45.9985 49.7845 45.6009 50.0838ZM39.9152 52.1827C40.1691 53.2846 40.5861 53.8247 41.701 54.4949C43.251 55.4264 44.4068 55.7834 46.5565 55.9942C48.4054 56.1756 48.4088 56.1753 49.0505 55.7342C49.9197 55.137 51.1653 53.8368 50.7114 54.0003C50.0609 54.2347 48.4773 54.4352 47.2685 54.4362C45.1657 54.4379 42.1105 53.4262 40.5823 52.2222C40.2281 51.9432 39.9089 51.7148 39.8729 51.7148C39.837 51.7148 39.8559 51.9255 39.9152 52.1827ZM44.1874 54.2715C44.1136 54.3897 43.8637 54.4321 43.5752 54.3748C42.7484 54.2109 42.862 54.548 43.7635 54.9323C44.234 55.1331 44.6191 55.3783 44.6191 55.477C44.6191 55.5758 44.7157 55.6223 44.8336 55.5803C44.9517 55.5384 45.1834 55.5729 45.3485 55.6572C45.5338 55.7518 45.6488 55.7475 45.6488 55.6461C45.6488 55.5418 45.8518 55.5396 46.2053 55.6402C46.8961 55.8365 46.8501 55.8413 46.8501 55.5728C46.8501 55.1454 46.0974 54.6193 45.5596 54.6706C45.2429 54.7009 44.9081 54.5961 44.6801 54.3955C44.4156 54.1624 44.2771 54.1275 44.1874 54.2715ZM40.9281 54.9454C41.1438 55.2917 42.6272 56.1904 43.6476 56.5932C44.8072 57.051 46.9645 57.3035 47.4439 57.0374C47.675 56.9091 47.4705 56.8422 46.5685 56.7512C45.9211 56.6859 44.9666 56.512 44.4475 56.3648C43.4975 56.0956 41.5843 55.2326 41.2813 54.9368C41.0649 54.7254 40.7951 54.7321 40.9281 54.9454ZM41.3077 56.423C41.4045 56.6733 42.3808 57.2549 42.6027 57.1946C42.6736 57.1754 42.7314 57.2744 42.7314 57.4148C42.7314 57.5552 42.6217 57.67 42.4875 57.67C42.3535 57.67 42.1929 57.8997 42.1308 58.1805C42.0686 58.4612 41.9576 58.6909 41.8843 58.6909C41.811 58.6909 41.7542 58.9014 41.7582 59.1588C41.7621 59.4162 41.6308 60.8411 41.4663 62.3253C41.3019 63.8095 41.2104 65.0664 41.2629 65.1184C41.3154 65.1707 41.3585 65.0949 41.3585 64.9505C41.3585 64.5903 41.768 64.2842 42.4292 64.1501C42.9377 64.047 42.9941 63.9687 43.1196 63.1934C43.1947 62.729 43.3044 62.2342 43.3634 62.0939C43.4223 61.9535 43.5021 61.6513 43.5404 61.4223C43.7015 60.4616 43.9488 60.4924 43.8429 61.4601C43.7588 62.2274 43.7851 62.4325 43.9627 62.3959C44.0935 62.369 44.1594 62.4575 44.1178 62.6043C44.078 62.7447 44.0394 63.0829 44.032 63.3559C44.0247 63.6288 43.9392 63.8782 43.8422 63.9104C43.7358 63.9454 43.6828 63.6813 43.7086 63.2439L43.7511 62.5192L43.4626 63.3462C43.1855 64.1409 43.187 64.1823 43.5014 64.4103C43.6813 64.5406 43.8862 64.5896 43.9567 64.5192C44.157 64.3189 45.1443 61.888 45.2181 61.4133C45.3102 60.8203 45.7868 59.5316 46.0147 59.2594C46.1557 59.0909 46.1343 58.9269 45.9309 58.6193C45.6648 58.2165 45.6709 58.2026 46.1695 58.0942C46.8317 57.9499 46.6568 57.67 45.9045 57.67C44.9043 57.67 43.5486 57.3137 42.3595 56.7381C41.6351 56.3876 41.2492 56.2719 41.3077 56.423ZM42.6343 61.158C42.5697 61.4992 42.4197 61.7536 42.2833 61.7536C41.9717 61.7536 41.9756 62.4456 42.2895 62.8696C42.5246 63.1869 42.5418 63.1799 42.7312 62.6894C43.0288 61.9184 43.1585 60.5625 42.9348 60.5625C42.8314 60.5625 42.6962 60.8305 42.6343 61.158ZM16.4748 62.2659C14.3356 63.0074 13.4274 63.5068 12.1663 64.6354C11.3067 65.4046 10.8776 65.9627 10.3681 66.9749C9.70603 68.29 9.69882 68.3255 9.69745 70.2782C9.69608 72.1984 9.71238 72.2839 10.2969 73.4259C10.8009 74.4104 11.0276 74.6678 11.7024 75.0212C12.145 75.2529 12.5589 75.3911 12.6224 75.3283C12.6857 75.2654 12.4681 74.8842 12.1385 74.4815C11.266 73.4147 10.8677 72.5321 10.5819 71.0319C10.1493 68.7601 10.6998 67.4348 13.0248 65.1509C14.7169 63.4887 16.2362 62.6776 18.577 62.1864C18.8365 62.132 19.0489 62.0122 19.0489 61.9205C19.0489 61.6093 17.9395 61.7582 16.4748 62.2659ZM41.5301 63.2849C41.5301 63.5656 41.6073 63.7953 41.7017 63.7953C41.7961 63.7953 41.8733 63.5656 41.8733 63.2849C41.8733 63.0042 41.7961 62.7745 41.7017 62.7745C41.6073 62.7745 41.5301 63.0042 41.5301 63.2849ZM45.5723 67.3589C45.2369 67.6996 44.9637 68.0516 44.9653 68.1413C44.967 68.2309 45.4272 68.822 45.9882 69.4548C46.8784 70.459 47.7358 71.5805 48.3088 72.4901C48.4032 72.6398 49.0126 73.5586 49.6628 74.5319C52.1018 78.1815 52.2147 78.361 54.9445 82.937C57.2798 86.8514 58.3737 87.6161 61.6382 87.6161C63.3801 87.6161 65.5796 87.196 66.614 86.6656C68.5379 85.6793 69.7292 83.2543 69.9501 79.8743C70.0477 78.3809 70.0187 78.0793 69.7126 77.4072C69.5207 76.9861 69.3199 76.445 69.2664 76.2049C69.2128 75.9648 69.0045 75.582 68.8035 75.3542C68.6026 75.1264 68.2117 74.629 67.9349 74.2487C67.2148 73.26 65.944 72.3802 63.7655 71.3629C59.1536 69.2088 51.7084 67.1782 47.0739 66.8104C46.2342 66.7437 46.1468 66.7757 45.5723 67.3589ZM40.9449 68.3647C40.8881 68.4559 40.9386 68.5692 41.0571 68.6167C41.1872 68.6686 41.1536 68.708 40.9724 68.7162C40.8073 68.7235 40.6655 68.787 40.6578 68.8572C40.6499 68.9275 40.6247 69.1496 40.6019 69.351C40.5741 69.5953 40.636 69.6882 40.7877 69.6306C40.9128 69.5829 41.0153 69.4373 41.0153 69.307C41.0153 69.1766 41.1311 69.0699 41.2727 69.0699C41.5886 69.0699 41.5917 68.9097 41.2837 68.5067C41.1515 68.3339 41.0029 68.2716 40.9449 68.3647ZM46.6785 68.5042C46.6785 68.5893 47.0329 69.0002 47.4658 69.4174C47.899 69.8346 48.8305 70.932 49.536 71.8563C50.7249 73.414 53.8507 78.0155 54.1156 78.5982C54.1795 78.7386 54.5356 79.3128 54.9069 79.8743C55.2783 80.4358 55.8103 81.2781 56.0892 81.746C57.5185 84.1447 58.1912 84.679 60.579 85.3116C63.5019 86.0861 64.9847 85.7841 66.6586 84.0732C67.8271 82.8788 68.253 82.1695 68.4931 81.0176C68.7728 79.6741 68.54 78.3682 67.7294 76.737C67.401 76.0761 67.1599 75.5356 67.1935 75.5356C67.2271 75.5356 67.4897 75.7843 67.7773 76.0885C68.7241 77.0902 68.3232 76.2978 67.3358 75.2158C65.2203 72.8983 62.1666 71.4903 57.1468 70.5181C56.3445 70.3627 54.7614 70.0439 53.6288 69.8094C50.2078 69.1016 49.3802 68.9321 48.3946 68.738C47.8755 68.6357 47.2771 68.5064 47.0646 68.4508C46.8521 68.3951 46.6785 68.4193 46.6785 68.5042ZM42.5733 68.8288C42.5816 69.0271 42.6223 69.0674 42.677 68.9318C42.7266 68.8089 42.7204 68.6621 42.6634 68.6056C42.6065 68.5491 42.566 68.6495 42.5733 68.8288ZM41.8733 69.8334C41.8733 70.0777 42.2953 70.2964 42.4572 70.1357C42.6478 69.9467 42.5613 69.7907 42.2166 69.7012C42.0034 69.6459 41.8733 69.6961 41.8733 69.8334ZM40.503 70.1233C40.5016 70.2816 40.5777 70.4583 40.672 70.5162C40.8893 70.6492 40.8893 70.424 40.672 70.0908C40.5288 69.8708 40.5054 69.8754 40.503 70.1233ZM41.0153 70.0908C41.0153 70.1844 41.0925 70.261 41.1869 70.261C41.2813 70.261 41.3585 70.1844 41.3585 70.0908C41.3585 69.9972 41.2813 69.9207 41.1869 69.9207C41.0925 69.9207 41.0153 69.9972 41.0153 70.0908ZM41.8733 70.6013C41.6533 70.7421 41.6595 70.7666 41.9162 70.7689C42.0813 70.7702 42.2166 70.6948 42.2166 70.6013C42.2166 70.3937 42.1972 70.3937 41.8733 70.6013ZM40.1708 70.8706C40.179 71.0688 40.2197 71.1092 40.2744 70.9735C40.324 70.8507 40.3178 70.7039 40.2609 70.6474C40.2039 70.5909 40.1634 70.6913 40.1708 70.8706ZM31.834 71.272C31.0789 71.5371 30.161 71.8828 29.7943 72.0402C28.9419 72.4064 27.326 73.6127 27.0816 74.0657C26.5956 74.9659 26.2316 77.237 26.5733 77.237C26.6531 77.237 26.8653 77.0728 27.0452 76.8721C27.225 76.6713 27.7582 76.2036 28.2302 75.8326C28.7021 75.4617 29.9377 74.3733 30.976 73.414C32.0142 72.4545 33.0954 71.4699 33.3785 71.2259C33.8259 70.8403 33.8484 70.7826 33.5502 70.7862C33.3614 70.7883 32.5891 71.0069 31.834 71.272ZM41.6595 71.2534C41.6094 71.4433 41.6688 71.5655 41.811 71.5655C41.9397 71.5655 42.0449 71.4251 42.0449 71.2534C42.0449 71.0819 41.9766 70.9416 41.8934 70.9416C41.81 70.9416 41.7048 71.0819 41.6595 71.2534ZM41.0958 72.9918C40.9327 73.2535 41.156 73.4223 41.3763 73.2039C41.4996 73.0817 41.5025 72.9866 41.3853 72.9148C41.2892 72.8559 41.1589 72.8906 41.0958 72.9918ZM39.5708 79.256C39.4969 79.3746 39.4828 79.5175 39.5394 79.5737C39.693 79.726 39.8605 79.5021 39.7774 79.2553C39.7194 79.0825 39.6789 79.0825 39.5708 79.256ZM38.6206 79.6045C38.5152 79.7998 38.5006 79.9594 38.5883 79.9594C38.7648 79.9594 39.0081 79.444 38.8881 79.3249C38.8463 79.2836 38.726 79.4093 38.6206 79.6045ZM37.6923 80.991C37.5427 81.7335 37.5544 81.8686 37.7574 81.7443C37.8533 81.6854 37.8854 81.5627 37.8284 81.4715C37.7716 81.3803 37.8211 81.1909 37.9386 81.0507C38.0836 80.8774 38.096 80.7402 37.9769 80.6221C37.858 80.5042 37.7668 80.6223 37.6923 80.991ZM39.4843 80.7392C39.4926 80.9374 39.5332 80.9777 39.588 80.8421C39.6376 80.7193 39.6314 80.5725 39.5744 80.516C39.5174 80.4595 39.4769 80.5599 39.4843 80.7392ZM37.2762 82.6646C37.1617 82.9828 37.0744 83.4039 37.0818 83.6004C37.0907 83.8352 37.1245 83.8703 37.1801 83.7027C37.2268 83.5623 37.3441 83.2853 37.4409 83.0869C37.5377 82.8887 37.587 82.5824 37.5504 82.4063C37.5003 82.1645 37.4332 82.2277 37.2762 82.6646ZM38.1979 84.3605C38.124 84.4791 38.1099 84.622 38.1665 84.6781C38.3201 84.8304 38.4876 84.6065 38.4045 84.3598C38.3465 84.1869 38.306 84.1869 38.1979 84.3605ZM37.583 86.425C37.583 86.5186 37.6603 86.5952 37.7546 86.5952C37.849 86.5952 37.9263 86.5186 37.9263 86.425C37.9263 86.3315 37.849 86.2549 37.7546 86.2549C37.6603 86.2549 37.583 86.3315 37.583 86.425ZM34.2668 88.8755C34.1698 89.126 34.2809 89.3176 34.5227 89.3176C34.6013 89.3176 34.6656 89.1644 34.6656 88.9773C34.6656 88.5871 34.4043 88.5204 34.2668 88.8755ZM35.025 89.0431C34.8846 89.2107 34.8774 89.322 35.0018 89.3982C35.1014 89.4593 35.2306 89.3863 35.2888 89.2359C35.4336 88.8616 35.2743 88.7452 35.025 89.0431ZM30.074 89.1899C30.1838 89.5219 31.2334 89.5702 31.2334 89.2432C31.2334 89.0514 31.0618 88.9773 30.6185 88.9773C30.2034 88.9773 30.0264 89.0463 30.074 89.1899ZM31.7482 89.4026C31.7482 89.543 31.8254 89.6579 31.9198 89.6579C32.0142 89.6579 32.0914 89.543 32.0914 89.4026C32.0914 89.2623 32.0142 89.1474 31.9198 89.1474C31.8254 89.1474 31.7482 89.2623 31.7482 89.4026ZM36.228 89.3048C36.0838 89.3943 36.0349 89.5731 36.1049 89.7542C36.187 89.9663 36.2752 90.0017 36.4035 89.8745C36.6742 89.6061 36.5247 89.121 36.228 89.3048ZM22.6428 89.649C21.4318 90.0133 20.5934 90.7197 20.5934 91.3758C20.5934 91.9984 21.4108 92.7913 22.6813 93.4015L23.6831 93.8826L23.7604 93.5143C23.8028 93.3116 23.8642 92.8588 23.8971 92.5078L23.9567 91.8698H22.9615C21.6719 91.8698 21.665 91.562 22.9531 91.4954C23.8273 91.4502 23.9461 91.4007 23.9948 91.0616C24.0413 90.7359 23.9709 90.6787 23.5229 90.6787C23.233 90.6787 22.996 90.6076 22.996 90.5207C22.996 90.2466 23.5218 89.828 23.8663 89.828C24.0483 89.828 24.1973 89.7514 24.1973 89.6579C24.1973 89.4612 23.2847 89.4559 22.6428 89.649ZM31.1725 90.5962C30.3226 91.415 30.2514 91.5295 30.591 91.5295C30.8298 91.5295 32.4372 90.1581 32.4357 89.9556C32.4331 89.626 31.8972 89.8978 31.1725 90.5962ZM32.7207 90.1116C32.6578 90.1739 32.6063 90.3041 32.6063 90.4009C32.6063 90.5074 32.6863 90.4974 32.8093 90.3754C32.921 90.2646 32.9725 90.1344 32.9238 90.0861C32.875 90.0376 32.7836 90.0492 32.7207 90.1116ZM33.344 90.4902C33.1016 90.8753 33.2529 91.0934 33.5773 90.8266C33.8239 90.6236 33.893 90.1683 33.6773 90.1683C33.6056 90.1683 33.4556 90.3131 33.344 90.4902ZM34.2244 90.7584C33.8644 91.3032 33.9715 91.683 34.373 91.285C34.6358 91.0243 34.7887 90.3384 34.5838 90.3384C34.5388 90.3384 34.377 90.5275 34.2244 90.7584ZM21.1941 90.6787C21.1344 90.7747 21.2734 90.8489 21.5129 90.8489C21.7465 90.8489 21.9679 90.9386 22.0048 91.0481C22.0832 91.2817 22.7137 91.3741 23.3821 91.2499C24.1892 91.0999 23.9002 90.8489 22.9203 90.8489C22.4067 90.8489 21.9389 90.7723 21.8805 90.6787C21.8222 90.5852 21.6677 90.5086 21.5373 90.5086C21.4069 90.5086 21.2524 90.5852 21.1941 90.6787ZM38.5477 92.7631C37.8748 93.9138 37.5123 94.749 37.6337 94.8693C37.6954 94.9304 38.5957 95.0701 39.6341 95.1795C41.4651 95.3726 41.8855 95.4875 41.6425 95.7286C41.5524 95.8177 38.7608 95.579 37.6796 95.3898C37.4818 95.3551 37.3284 97.6437 37.4866 98.269C37.5593 98.5566 37.7483 98.652 38.396 98.7286C39.2597 98.8309 39.3196 98.8435 40.44 99.1594C41.4647 99.4483 45.1322 99.4223 46.8501 99.114C47.6524 98.9699 48.3549 98.8508 48.4112 98.8489C48.688 98.8406 49.2748 98.1498 49.2243 97.8917C49.1495 97.509 48.7378 97.3736 48.7378 97.7317C48.7378 98.0281 48.4751 97.9401 47.7939 97.4152C47.4976 97.1869 47.4859 97.1275 47.7081 96.98C47.8497 96.8861 47.8786 96.8082 47.772 96.8066C47.5153 96.8032 47.1658 97.2306 47.3091 97.3727C47.3713 97.4343 47.3354 97.4847 47.2295 97.4847C46.97 97.4847 45.1216 96.1924 45.229 96.0859C45.2757 96.0398 45.1944 95.9035 45.0483 95.7833C44.8247 95.5994 44.8 95.609 44.891 95.8443C45.0397 96.2285 44.7544 96.1939 44.037 95.7406C43.7037 95.5302 43.4643 95.2622 43.5048 95.1451C43.5455 95.0282 43.4956 94.9324 43.3942 94.9324C43.2926 94.9324 43.2567 94.8104 43.3144 94.6614C43.3844 94.4807 43.3047 94.3607 43.0753 94.3014C42.8862 94.2524 42.7314 94.1605 42.7314 94.0974C42.7314 94.0342 42.3039 93.7681 41.7815 93.5057C41.0168 93.1219 40.7827 93.0693 40.5802 93.2359C40.2729 93.4887 39.9188 93.2449 39.5408 92.5203C39.4031 92.256 39.2183 92.0399 39.1303 92.0399C39.0424 92.0399 38.7802 92.3654 38.5477 92.7631ZM20.4218 92.7738C20.4218 92.9317 20.486 93.0608 20.5644 93.0608C20.6429 93.0608 20.8071 93.2461 20.9293 93.4726C21.057 93.7091 21.2519 93.8462 21.3873 93.7947C21.5236 93.7429 21.6231 93.8142 21.6231 93.9638C21.6231 94.2083 22.9066 95.2727 23.2014 95.2727C23.5199 95.2727 23.3181 94.4659 22.9531 94.2803C21.9974 93.7942 21.3654 93.3829 20.9116 92.9521C20.5231 92.583 20.4218 92.5461 20.4218 92.7738ZM29.9549 92.7042C30.0445 92.7889 30.6393 93.0902 31.2763 93.3742C32.1565 93.7662 32.4347 93.8314 32.4347 93.6456C32.4347 93.5112 32.3525 93.4011 32.2521 93.4011C32.1517 93.4011 31.6473 93.2097 31.1315 92.9757C30.172 92.5405 29.6551 92.4212 29.9549 92.7042ZM31.6707 92.7905C31.8527 92.9227 32.0619 92.9938 32.1352 92.9489C32.3655 92.8078 32.0877 92.5504 31.7053 92.5504C31.3482 92.5504 31.3473 92.5562 31.6707 92.7905ZM28.7328 93.0484C28.7328 93.2286 28.7932 93.339 28.8674 93.2937C28.9413 93.2483 29.1735 93.3305 29.3836 93.4763C29.6384 93.6533 29.6812 93.7423 29.5126 93.744C29.2978 93.7462 29.2962 93.7695 29.5022 93.8988C29.7433 94.0501 30.2085 93.7545 30.1994 93.4557C30.1953 93.3177 29.1078 92.7205 28.8605 92.7205C28.7903 92.7205 28.7328 92.868 28.7328 93.0484ZM26.7715 93.5481C26.7715 93.7676 28.1324 94.6609 28.2655 94.5288C28.3287 94.4662 28.1149 94.1899 27.7903 93.915C27.2069 93.4203 26.7715 93.2636 26.7715 93.5481ZM33.2927 93.5765C33.2927 93.7959 33.7817 93.9939 33.9387 93.8382C34.0027 93.7747 33.9414 93.6517 33.8026 93.5646C33.4704 93.3564 33.2927 93.3604 33.2927 93.5765ZM28.316 93.7004C28.316 93.8865 29.017 94.2941 29.1353 94.1768C29.19 94.1225 29.086 93.9665 28.9041 93.8301C28.5358 93.5539 28.316 93.5054 28.316 93.7004ZM30.3753 93.7232C30.3753 93.8893 30.4338 93.916 32.1426 94.5329C33.3579 94.9717 34.3643 95.024 33.3785 94.5971C31.9801 93.9915 31.7632 93.9116 31.5179 93.9116C31.3726 93.9116 31.2059 93.835 31.1476 93.7414C31.016 93.5304 30.3753 93.5153 30.3753 93.7232ZM41.1165 93.7166C41.071 93.7896 41.2614 93.9823 41.5394 94.1452C41.9439 94.382 42.0449 94.3937 42.0449 94.2037C42.0449 93.9342 41.2432 93.5136 41.1165 93.7166ZM28.4876 94.7517C28.4876 94.8395 29.0723 95.194 29.7869 95.5394C30.729 95.9947 31.1378 96.1162 31.2742 95.9809C31.4107 95.8456 31.3719 95.7645 31.1333 95.6859C30.9525 95.6263 30.3688 95.3558 29.8365 95.0849C28.8221 94.5685 28.4876 94.4858 28.4876 94.7517ZM38.7843 94.7623C38.7843 94.8559 38.9002 94.9324 39.0417 94.9324C39.1833 94.9324 39.2992 94.8559 39.2992 94.7623C39.2992 94.6687 39.1833 94.5921 39.0417 94.5921C38.9002 94.5921 38.7843 94.6687 38.7843 94.7623ZM32.2631 95.4429C32.2631 95.5365 32.3835 95.613 32.5306 95.613C32.6777 95.613 32.7504 95.5365 32.6921 95.4429C32.6337 95.3493 32.5134 95.2727 32.4245 95.2727C32.3357 95.2727 32.2631 95.3493 32.2631 95.4429ZM33.0782 95.7257C33.1963 95.773 33.3894 95.773 33.5072 95.7257C33.6253 95.6785 33.5287 95.6399 33.2927 95.6399C33.0568 95.6399 32.9603 95.6785 33.0782 95.7257ZM31.8399 96.0893C31.711 96.2172 32.9445 96.791 33.3643 96.7983C33.5452 96.8015 33.6382 96.7495 33.5709 96.6828C33.3603 96.4742 31.9421 95.9879 31.8399 96.0893ZM38.8701 96.4638C39.352 96.6691 41.1447 96.6691 41.2727 96.4638C41.3403 96.3552 40.8625 96.2979 39.9528 96.3055C38.9966 96.3135 38.64 96.3658 38.8701 96.4638ZM37.8554 96.7802C37.6992 97.0305 38.3853 97.1934 38.738 96.9897C39.0102 96.8327 39.012 96.8139 38.7555 96.8092C38.5979 96.8065 38.3548 96.7605 38.2151 96.7074C38.0754 96.6542 37.9134 96.687 37.8554 96.7802ZM46.4211 96.8041C46.8928 97.005 47.1638 97.005 46.8501 96.8041C46.7085 96.7134 46.4768 96.6433 46.3352 96.6486C46.1655 96.6547 46.1947 96.7076 46.4211 96.8041ZM40.4146 97.1444C40.473 97.2379 40.6319 97.3145 40.768 97.3145C40.9041 97.3145 41.0153 97.2379 41.0153 97.1444C41.0153 97.0508 40.8562 96.9742 40.6619 96.9742C40.4677 96.9742 40.3563 97.0508 40.4146 97.1444ZM29.6889 97.6548C29.6889 97.7484 29.7661 97.825 29.8605 97.825C29.9549 97.825 30.0321 97.7484 30.0321 97.6548C30.0321 97.5612 29.9549 97.4847 29.8605 97.4847C29.7661 97.4847 29.6889 97.5612 29.6889 97.6548ZM38.0658 97.6009C38.1895 97.65 38.3376 97.6439 38.3946 97.5874C38.4516 97.5309 38.3503 97.4908 38.1694 97.4981C37.9695 97.5063 37.9288 97.5466 38.0658 97.6009ZM22.1618 98.6332C21.665 98.9842 20.6556 99.7362 19.9187 100.305C19.1819 100.873 17.3141 102.167 15.7679 103.181C14.2218 104.195 12.4547 105.411 11.8412 105.884C8.4742 108.478 5.93057 111.29 4.6397 113.848C4.24705 114.625 3.81476 115.383 3.67902 115.532C3.12952 116.134 3.4887 116.004 4.39344 115.273C4.922 114.846 5.8681 114.219 6.49569 113.88C9.06352 112.493 10.157 111.815 12.573 110.114C16.8305 107.116 20.3293 103.622 22.1156 100.583C22.6924 99.6015 23.3392 98.2675 23.3392 98.0594C23.3392 97.8804 22.9799 98.0555 22.1618 98.6332ZM37.722 99.2753C37.6726 99.3241 37.6668 99.544 37.7092 99.7635C37.843 100.458 39.8145 100.834 40.2616 100.25C40.5936 99.8159 40.5504 99.658 40.1358 99.7885C39.9183 99.8569 39.7191 99.8196 39.642 99.6959C39.571 99.5819 39.277 99.4769 38.9887 99.4626C38.7006 99.4482 38.408 99.3801 38.3385 99.3114C38.1919 99.1661 37.8523 99.1462 37.722 99.2753ZM46.7643 99.8193C46.2273 99.8686 46.0324 99.9782 45.8688 100.322L45.6598 100.762L46.4065 100.661C47.05 100.573 48.3946 99.9675 48.3946 99.7648C48.3946 99.6945 47.9608 99.709 46.7643 99.8193ZM35.6953 110.778C34.5172 111.796 30.9372 114.023 28.5734 115.209C25.747 116.627 23.2563 118.047 22.0374 118.937C21.1433 119.589 19.7354 121.059 19.7354 121.34C19.7354 121.557 21.8671 122.496 22.358 122.496C22.5774 122.496 23.139 122.311 23.6059 122.085C29.2768 119.338 30.4862 118.646 32.4729 117.007C33.6914 116.001 34.0626 115.459 35.7857 112.166C36.8358 110.159 36.8134 109.813 35.6953 110.778ZM3.22408 117.349C1.68695 119.293 1.27302 120.098 0.970123 121.731C0.425083 124.669 0.00137252 127.521 0.000686071 128.258L0 129L0.643545 128.881C0.997581 128.816 1.75044 128.521 2.31676 128.224L3.34643 127.686L3.46725 125.814C3.53366 124.785 3.66924 122.564 3.76843 120.88C3.86762 119.196 3.99513 117.492 4.05176 117.094C4.10839 116.697 4.11938 116.371 4.0763 116.371C4.03306 116.371 3.6495 116.811 3.22408 117.349Z" fill="#A3AD7E"></path></svg> 