<?xml version="1.0" encoding="UTF-8"?> <svg xmlns="http://www.w3.org/2000/svg" width="68" height="128" viewBox="0 0 68 128" fill="none"><path fill-rule="evenodd" clip-rule="evenodd" d="M18.9148 0.0808472C18.8731 0.122547 17.8746 0.274819 16.6957 0.419573C14.072 0.741722 11.4199 1.32142 8.81104 2.14311C7.72588 2.48475 6.56781 2.84347 6.23754 2.9402C5.15084 3.25825 1.82124 4.91206 0.975926 5.55362C0.41679 5.97797 0.110721 6.35258 0.0354029 6.70464C-0.096532 7.32296 0.165623 10.6362 0.404616 11.3702C0.740544 12.4016 1.80169 16.7133 2.11891 18.3362C2.2982 19.2538 2.50511 20.0997 2.57836 20.2161C2.65179 20.3327 2.69057 20.5574 2.66449 20.7155C2.62092 20.9799 2.97965 22.7772 3.81793 26.495C4.1041 27.7636 4.66118 29.6396 4.98527 30.4257C5.04343 30.5667 5.07534 30.7503 5.05596 30.8337C5.01615 31.0061 6.21661 34.5223 6.40448 34.7837C6.47208 34.8777 6.62768 35.3392 6.75001 35.8091C6.87251 36.2791 7.14891 37.0097 7.36422 37.4327C7.57954 37.8557 7.84512 38.4916 7.95458 38.8457C8.06387 39.2 8.40837 39.9771 8.72011 40.5727C9.03184 41.1684 9.34204 41.8399 9.40964 42.065C9.5764 42.6206 11.7085 46.8538 11.9828 47.1741C12.1036 47.3151 12.3661 47.7381 12.5663 48.114C12.7663 48.49 13.1035 49.0263 13.3154 49.3057C13.5272 49.5853 14.237 50.5466 14.8926 51.442C15.5481 52.3375 16.3394 53.3238 16.6511 53.6338C16.9629 53.9438 17.2178 54.2627 17.2178 54.3425C17.2178 54.4222 17.488 54.7238 17.8183 55.0126C18.1486 55.3015 18.4208 55.5978 18.4232 55.6711C18.4258 55.7446 18.8671 56.1891 19.4039 56.6591C21.2798 58.3013 22.022 59.1705 22.597 60.3988C23.1581 61.5978 24.1527 64.2466 24.6473 65.8589L24.9004 66.6847L24.4049 66.2116L23.9093 65.7387L21.8074 65.9561C16.3936 66.5162 9.30155 68.5087 5.12236 70.6436C3.84281 71.2973 2.16163 72.9595 1.63577 74.091C1.41737 74.561 1.13548 75.1378 1.00938 75.3728C0.797154 75.7684 0.525052 77.0112 0.335985 78.449C0.292579 78.778 0.203024 79.2642 0.136799 79.5295C0.0705747 79.7947 0.0942509 80.1792 0.189299 80.384C1.23534 82.6364 1.69737 83.4706 2.14654 83.918C3.38816 85.1548 6.00009 85.9697 8.71462 85.967C10.2021 85.9656 10.5715 85.9051 11.3845 85.5295C12.7023 84.9205 13.4425 84.1778 14.5551 82.3481C14.6513 82.1897 14.9555 81.6898 15.2311 81.2373C16.2279 79.5999 20.7504 72.8568 21.9153 71.2712C23.4296 69.2099 24.9937 67.4208 25.0735 67.659C25.1073 67.76 24.5671 68.4795 23.8731 69.2578C22.1497 71.1907 21.0029 72.8341 20.7169 73.7805C20.4018 74.8235 20.4124 77.2631 20.7385 78.8081C21.0371 80.2218 22.0953 82.4442 22.9849 83.5255C24.4295 85.2817 25.8245 86.4783 28.2839 88.0708L29.6564 88.9595L29.5979 89.9849C29.5596 90.6529 29.4341 91.1294 29.2373 91.3521C28.6845 91.9779 28.6222 92.1845 29.0177 92.0816C29.3381 91.9981 29.3589 92.0333 29.2138 92.4135C29.1244 92.6475 28.9367 93.0021 28.7963 93.2016C28.4801 93.6512 28.4733 93.8301 28.772 93.8301C29.0992 93.8301 29.5228 93.3162 29.6657 92.7458C29.7431 92.437 29.834 92.3342 29.9146 92.4643C30.1039 92.7692 30.7716 92.3638 30.7716 91.9442C30.7716 90.823 31.802 92.9707 31.9279 94.3546L32.0161 95.3231L31.4721 95.4026C31.1729 95.4464 30.8883 95.4182 30.8397 95.3397C30.7911 95.2614 30.4882 95.1973 30.1663 95.1973C29.7279 95.1973 29.6051 95.2589 29.6761 95.4433C29.7707 95.6885 29.3829 95.8082 28.1255 95.9213C27.8498 95.9461 27.5907 96.0672 27.5501 96.1905C27.4653 96.4473 28.836 96.3455 30.7647 95.9514C31.3745 95.8269 31.9092 95.761 31.9533 95.8049C32.0743 95.9254 31.6682 98.3436 31.4452 98.8312C31.3144 99.117 31.1494 99.2313 30.9445 99.178C30.7764 99.1341 30.5868 99.1819 30.5235 99.2841C30.46 99.3863 30.0268 99.4699 29.5605 99.4699C29.0942 99.4699 28.7128 99.5282 28.7128 99.5993C28.7128 99.6705 28.3846 99.7035 27.9836 99.6726C27.5827 99.6416 26.94 99.6876 26.5555 99.7746C25.907 99.9214 23.4115 99.8124 21.5063 99.5541C20.529 99.4217 19.9634 98.9997 19.8188 98.2954C19.658 97.5129 19.3669 97.6301 19.3386 98.4887C19.2914 99.9195 19.861 100.804 21.2496 101.456C22.2468 101.925 23.5658 102.01 23.5658 101.606C23.5658 101.45 23.4061 101.35 23.1581 101.35C22.6501 101.35 20.9665 100.62 20.6792 100.275C20.4904 100.048 20.5407 100.045 21.1151 100.25C21.4722 100.377 22.0198 100.484 22.3321 100.488C22.7021 100.493 22.8589 100.561 22.7824 100.684C22.7042 100.811 22.7817 100.837 23.0152 100.763C23.2113 100.701 23.4189 100.739 23.487 100.848C23.5685 100.98 23.6449 100.986 23.7185 100.868C23.7787 100.77 24.7002 100.652 25.766 100.606C26.8916 100.556 27.8074 100.435 27.951 100.316C28.177 100.129 28.2708 100.207 28.2183 100.538C28.1854 100.746 28.4029 100.685 28.6081 100.427C28.7773 100.215 31.0264 99.7808 31.1773 99.931C31.2103 99.9638 31.2024 100.172 31.1597 100.394C31.0772 100.824 30.5045 101.002 29.1927 101.006C28.4465 101.008 27.648 101.33 27.7364 101.593C27.8079 101.806 29.5922 101.74 30.2224 101.501C30.446 101.417 30.6995 101.391 30.786 101.444C30.8725 101.497 30.9432 102.088 30.9432 102.756C30.9432 104.119 31.2232 105.943 31.5533 106.73C31.6737 107.017 32.2613 107.712 32.859 108.274L33.9456 109.297L33.9844 108.1C34.0272 106.784 34.5529 100.784 34.6332 100.697C34.6608 100.668 35.0964 100.542 35.6012 100.418C38.0376 99.819 41.4146 98.7 43.8964 97.6691C45.0406 97.1938 47.8493 95.258 48.5097 94.4895C48.8513 94.0921 49.2044 93.5006 49.2946 93.1751C49.5209 92.3592 49.3267 91.0882 48.9052 90.6257C48.4114 90.084 48.2126 90.1448 48.3474 90.7966C48.5813 91.9266 48.5034 92.1808 47.702 92.9042C46.8659 93.6591 45.8485 94.2271 45.6766 94.035C45.6178 93.9694 45.5296 93.5955 45.4805 93.2045C45.3803 92.4035 45.532 92.2987 46.7988 92.2944C48.064 92.29 47.2955 92.0481 45.7646 91.969C45.2671 91.9432 45.1837 91.2147 45.019 85.456C44.9224 82.0742 44.8131 80.5354 44.6292 79.969C44.3621 79.1456 43.041 77.2527 42.7336 77.2527C42.6119 77.2527 42.5879 79.094 42.6579 83.0589L42.7607 88.8649L41.9092 88.9774C40.4586 89.1691 40.6271 89.721 42.1379 89.7259C42.8821 89.7283 42.9528 89.7639 42.9528 90.1371C42.9528 90.4818 42.8523 90.5574 42.3095 90.6213C41.9557 90.6628 41.3959 90.6346 41.0656 90.5586C40.7353 90.4825 39.9439 90.4184 39.307 90.4162C38.3902 90.413 38.149 90.4654 38.149 90.6685C38.149 90.8735 38.4063 90.9248 39.4357 90.9248C40.4651 90.9248 40.7225 90.9761 40.7225 91.1812C40.7225 91.3775 40.9402 91.4375 41.6518 91.4375C42.212 91.4375 42.6078 91.3577 42.6485 91.2364C42.7365 90.973 43.1244 91.2148 43.1244 91.5331C43.1244 91.8002 42.9803 91.8157 40.8082 91.7824C39.6114 91.7639 39.3985 91.7132 39.1447 91.3857C38.916 91.0906 38.809 91.0547 38.6443 91.2183C38.4794 91.382 38.4957 91.4496 38.7208 91.5356C38.8781 91.5958 39.0068 91.7431 39.0068 91.8629C39.0068 92.0854 41.0828 92.3161 42.5117 92.2524C43.1685 92.2232 43.1929 92.2428 43.4554 93.0146C43.6036 93.4504 43.8987 93.9901 44.1109 94.2142C44.6098 94.7404 44.5985 94.9964 44.0675 95.1975C43.6952 95.3385 43.006 95.6323 41.6661 96.2214C41.4774 96.3043 41.1299 96.4261 40.894 96.4923C40.6581 96.5582 40.071 96.7975 39.5893 97.0239C39.1075 97.2504 38.6443 97.4179 38.5599 97.3963C38.4755 97.3746 38.0975 97.4403 37.72 97.5423C37.3426 97.6443 36.6478 97.8207 36.1759 97.9342C35.7041 98.0478 35.1939 98.1767 35.0419 98.2208C34.8058 98.2893 34.7533 98.0644 34.6799 96.6656C34.5809 94.7802 34.4146 94.4452 32.6379 92.5533C31.4259 91.2627 31.4366 90.7102 32.6523 91.8097C33.5242 92.5983 33.7021 92.4694 33.1716 91.4338C32.7863 90.6816 32.8168 90.2412 33.254 90.2412C33.3984 90.2412 33.5167 90.1259 33.5167 89.9849C33.5167 89.6752 33.0658 89.6417 32.944 89.9421C32.8748 90.113 32.8548 90.113 32.8439 89.9421C32.8366 89.8247 32.734 89.7276 32.6159 89.7265C32.4981 89.7254 32.1479 89.2645 31.8379 88.7024L31.2745 87.6806L31.6956 87.7153C32.1265 87.7508 32.9047 87.4231 33.3199 87.0313C33.5119 86.8502 33.6827 87.0064 34.3064 87.9327C34.7214 88.5488 35.0611 89.1088 35.0615 89.1772C35.0618 89.2454 35.2229 89.5641 35.4195 89.8854C35.6976 90.3398 35.8105 90.4157 35.9279 90.2272C36.0452 90.0385 36.3187 90.2216 37.1612 91.053C37.7568 91.6404 38.3384 92.1211 38.4538 92.1211C38.8354 92.1211 38.6559 91.7031 37.9803 91.0183C37.2928 90.3215 37.2467 90.0703 37.8058 90.0703C37.9834 90.0703 38.1773 89.9922 38.2365 89.8967C38.2958 89.8011 38.4161 89.7671 38.5039 89.8213C38.5918 89.8753 38.6637 89.8464 38.6637 89.7569C38.6637 89.4231 37.9474 89.3732 37.0338 89.6436C36.7586 89.7249 36.5012 89.4978 35.7352 88.4977C34.5867 86.9985 33.0462 84.3494 32.7628 83.3862C32.3253 81.8993 29.8438 71.9835 29.6583 70.9815C29.5332 70.3051 29.386 69.6796 29.3313 69.5912C29.2766 69.5028 29.1573 68.9073 29.0664 68.2676C28.9152 67.2047 28.9297 67.0846 29.2345 66.872C29.8022 66.4758 29.9568 66.0231 29.7439 65.3804C29.4807 64.586 29.141 64.3233 28.7701 64.6279C28.5119 64.8396 28.4961 64.8154 28.6059 64.376C28.6774 64.0901 28.6493 63.7959 28.5378 63.662C28.4333 63.5367 28.2665 62.663 28.1672 61.7205C28.0063 60.1945 28.0281 59.7861 28.3657 57.9911C28.7358 56.024 29.4709 53.507 29.9603 52.5312C30.0944 52.2637 30.4147 51.1988 30.6721 50.1648C30.9294 49.1309 31.2101 48.0158 31.2957 47.6868C31.7746 45.8477 32.1606 42.2648 32.1635 39.6337C32.1675 36.0243 32.1848 36.2364 31.8847 36.2364C31.6703 36.2364 31.6289 36.5112 31.6461 37.8172C31.6668 39.3981 31.2525 44.2811 30.9607 45.8923C30.8757 46.3623 30.6824 47.1698 30.5311 47.6868C30.3799 48.2038 30.1678 49.0335 30.0599 49.5305C29.8973 50.28 29.7213 50.562 29.0288 51.1822C27.6781 52.3919 26.6892 52.9572 24.9478 53.5157C23.3752 54.0199 23.2106 54.0387 20.9065 53.9749C18.9378 53.9204 18.392 53.8483 17.8808 53.5748C17.1535 53.1857 15.8453 52.0379 15.8453 51.7889C15.8453 51.6946 15.7101 51.4808 15.545 51.3136C15.38 51.1467 15.0362 50.7044 14.7811 50.331C14.5261 49.9577 13.9471 49.1106 13.4943 48.4487C12.8312 47.479 10.4754 42.9774 9.83118 41.4489C9.27341 40.1259 8.6158 38.8055 8.46979 38.7157C8.3744 38.6569 8.29634 38.434 8.29634 38.2202C8.29634 38.0064 8.24899 37.7844 8.19118 37.7268C8.05924 37.5954 6.82087 34.0495 6.5069 32.9038C6.37806 32.4338 6.1931 31.8186 6.096 31.5366C5.54029 29.9235 4.42357 25.7673 3.84573 23.1624C3.63728 22.2225 3.35676 21.0621 3.22225 20.5839C3.08774 20.1057 2.97674 19.5289 2.97554 19.3021C2.97194 18.644 2.31518 15.6506 2.16334 15.6002C2.08751 15.5751 2.05475 15.2468 2.09077 14.8708C2.14568 14.2983 1.91663 12.7117 1.5011 10.7837C1.42835 10.4467 1.63887 10.5817 2.61182 11.4959C3.98779 12.7889 4.86621 13.3402 6.32332 13.8254C7.53441 14.2286 9.69924 14.5752 10.0849 14.4277C10.2335 14.3709 10.3551 14.4096 10.3551 14.5136C10.3551 14.6177 10.2797 14.7028 10.1875 14.7028C10.0954 14.7028 9.89586 14.8913 9.74437 15.1217C9.40278 15.6411 9.5541 16.1962 10.1057 16.4465C11.0857 16.8914 11.8889 15.416 11.0031 14.798C10.642 14.5459 10.6396 14.5311 10.9603 14.5141C11.6611 14.4772 12.5515 14.409 14.2154 14.2651C15.159 14.1835 16.0407 14.1269 16.1745 14.1394C16.3085 14.1517 16.8495 14.0925 17.3769 14.0079C17.9041 13.9233 18.7017 13.8405 19.1491 13.8235C19.9804 13.7923 20.2813 13.4585 19.6311 13.289C19.1138 13.1543 15.9165 13.3018 14.3012 13.5349C13.4991 13.6506 11.8392 13.7456 10.6125 13.7463C8.12014 13.7475 6.83597 13.4908 5.12236 12.6493C3.39983 11.8033 1.2621 9.61919 1.2621 8.70504C1.2621 8.06826 1.41891 8.07988 2.13658 8.7705C2.72848 9.34011 3.95794 10.1268 5.78615 11.1053C7.74047 12.1516 12.5728 12.6137 16.6621 12.1453C17.4415 12.0561 19.4683 11.9294 21.1657 11.8642C22.8632 11.7989 24.2521 11.6837 24.2521 11.6083C24.2521 11.3017 22.8512 11.2571 18.8764 11.4372C13.642 11.6743 10.4215 11.6777 8.69472 11.448C6.90683 11.2101 4.18698 9.90015 2.75148 8.58558C1.99007 7.8883 1.64556 7.681 1.34429 7.73842C0.974388 7.80883 0.760096 7.53146 0.749802 6.96954C0.748429 6.89913 1.79482 6.84136 3.07505 6.84136C6.69974 6.84136 11.3094 6.05368 16.1884 4.60085C18.8242 3.8159 21.7986 2.53567 22.6554 1.81755C22.9475 1.57282 23.2227 1.37252 23.2669 1.37252C23.3736 1.37252 23.7893 2.52217 24.256 4.10694C24.8973 6.28525 25.1356 7.07823 25.3091 7.61042C25.728 8.89577 26.6615 12.2251 27.082 13.9338C27.3367 14.9677 27.6846 16.2751 27.8555 16.8391C28.0263 17.4031 28.2976 18.3644 28.4584 18.9754C28.6191 19.5863 28.8168 20.24 28.8976 20.428C28.9782 20.616 29.1299 21.2697 29.2343 21.8807C29.3388 22.4917 29.5754 23.5767 29.76 24.2919C30.203 26.0083 30.2617 26.2633 30.4348 27.229C30.5156 27.6797 30.6391 28.218 30.7095 28.4253C30.7797 28.6327 30.8438 28.8791 30.8521 28.9731C30.8603 29.0671 30.9289 29.394 31.0046 29.6994C31.2201 30.5702 31.5587 30.3635 31.4949 29.4003C31.4575 28.8338 30.8768 25.8328 30.6023 24.786C30.4913 24.363 30.3624 23.7862 30.3159 23.5042C30.2694 23.2223 30.1836 22.8762 30.1253 22.7352C30.067 22.5942 30.0079 22.4019 29.9944 22.3079C29.8417 21.2548 29.0806 17.9672 28.8866 17.5227C28.8046 17.3347 28.6869 16.8733 28.6251 16.4973C28.5634 16.1213 28.4153 15.583 28.2962 15.301C28.1772 15.019 27.9423 14.2115 27.7743 13.5065C27.3663 11.7937 25.9523 6.86597 25.201 4.53847C24.263 1.63229 23.7339 0.357365 23.3896 0.173647C23.0842 0.0109485 19.0687 -0.0722804 18.9148 0.0808472ZM20.3168 0.958255C20.5028 1.18162 20.4992 1.25426 20.295 1.38294C20.1595 1.4684 19.8943 1.54052 19.7055 1.54342C19.0647 1.55316 17.9899 1.96965 17.9899 2.20806C17.9899 2.34905 17.6414 2.53687 17.132 2.67051C16.0326 2.95883 16.0168 2.95865 16.0168 2.65428C16.0168 2.4815 16.1985 2.394 16.5744 2.38596C16.8812 2.3793 17.2864 2.30171 17.4752 2.2137C18.0118 1.96298 16.4032 2.19062 15.5879 2.48064C15.1079 2.65137 15.0176 2.72691 15.2877 2.73221C15.9269 2.74468 15.7228 3.05573 14.9446 3.255C13.92 3.51733 13.8189 3.56536 14.2583 3.58074C15.017 3.60723 14.6229 3.89229 13.3147 4.26314C12.5833 4.47045 11.8056 4.7133 11.5861 4.80285C11.1569 4.9782 10.8021 4.86711 10.963 4.60785C11.0172 4.52035 10.9606 4.44977 10.8371 4.45079C10.5614 4.45353 7.99542 5.15713 6.87492 5.53738C6.42335 5.69051 5.9023 5.81595 5.71684 5.81595C5.20008 5.81595 5.31623 5.47842 5.90316 5.27454C6.19105 5.17456 6.39401 5.0604 6.35421 5.02075C6.25453 4.92129 2.93231 5.98275 2.72265 6.181C2.61697 6.28115 2.9064 6.30849 3.4947 6.25414C4.01249 6.20646 4.97653 6.1246 5.63706 6.07248C9.73768 5.74845 17.3686 3.78035 20.4776 2.24497C21.7504 1.61622 22.705 1.00474 22.7067 0.81709C22.7074 0.746679 22.1195 0.688914 21.4003 0.688914C20.2292 0.688914 20.1159 0.717113 20.3168 0.958255ZM17.3894 0.980129C16.5345 1.1271 13.5108 1.73893 12.7571 1.91752C8.29463 2.97489 0.714295 5.83338 1.59615 6.12631C1.71727 6.16647 1.86551 6.12358 1.92539 6.03078C1.98526 5.93798 2.99922 5.50731 4.17874 5.07373C6.05774 4.38277 7.57576 3.88665 11.8135 2.57874C13.7105 1.99323 17.142 1.21529 18.5161 1.05909C19.8536 0.907155 19.8593 0.904591 18.8477 0.905446C18.2815 0.905958 17.6253 0.939454 17.3894 0.980129ZM14.1758 2.85816C14.3427 2.90157 14.5743 2.89867 14.6905 2.85184C14.8066 2.80502 14.67 2.76964 14.387 2.77306C14.1039 2.77648 14.0088 2.81475 14.1758 2.85816ZM12.3819 3.36916C12.5056 3.41855 12.6536 3.4124 12.7106 3.35566C12.7675 3.29892 12.6663 3.25859 12.4855 3.26593C12.2856 3.27414 12.245 3.31464 12.3819 3.36916ZM11.3417 3.53647C11.4597 3.58398 11.6527 3.58398 11.7706 3.53647C11.8886 3.48913 11.792 3.45034 11.5561 3.45034C11.3202 3.45034 11.2238 3.48913 11.3417 3.53647ZM9.63679 4.05276C9.76049 4.10216 9.90856 4.096 9.96552 4.03926C10.0225 3.98253 9.92125 3.94219 9.74042 3.94954C9.54054 3.95774 9.49988 3.99825 9.63679 4.05276ZM7.26694 4.61964C6.92724 4.728 6.9094 4.75654 7.18116 4.75654C7.36988 4.75654 7.7173 4.69484 7.95321 4.61964C8.29291 4.51129 8.31075 4.48275 8.03899 4.48275C7.85027 4.48275 7.50285 4.54445 7.26694 4.61964ZM22.5364 5.19251C22.5364 5.33521 22.6168 5.66283 22.7152 5.92055C22.8136 6.17826 23.0451 6.93297 23.2299 7.59794C23.4145 8.26275 23.7204 9.34507 23.9096 10.003C24.099 10.661 24.3644 11.65 24.4995 12.2008C24.7338 13.1562 24.7299 13.2064 24.4128 13.289C24.2301 13.3365 24.0805 13.4523 24.0805 13.5463C24.0805 13.6403 24.2392 13.6759 24.4331 13.6255C24.8177 13.5251 25.1099 14.0271 25.1099 14.7883C25.1099 15.011 25.1974 15.4098 25.3044 15.6744C25.4115 15.939 25.5285 16.3862 25.5644 16.6682C25.6002 16.9502 25.8155 17.9499 26.0425 18.8899C26.2697 19.8299 26.5471 21.0604 26.6591 21.6243C26.7712 22.1883 26.9383 22.7425 27.0304 22.8558C27.1227 22.9693 27.1543 23.1329 27.1006 23.2194C27.0469 23.3058 27.1068 23.7514 27.2335 24.2096C27.6721 25.7936 28.1856 28.4686 28.4433 30.5112C29.0518 35.3364 29.1172 36.3904 29.1292 41.5771C29.141 46.7263 29.24 47.7353 29.6012 46.3939C29.8113 45.6136 29.7913 34.9683 29.5766 33.4165C29.4727 32.6646 29.3098 31.4469 29.2146 30.7108C29.1196 29.9746 28.9597 28.9748 28.8593 28.4891C28.7591 28.0032 28.5783 27.0675 28.4577 26.4096C28.3369 25.7516 27.9131 23.829 27.5156 22.137C26.421 17.4766 26.3316 17.0842 26.1336 16.07C26.0327 15.5531 25.8332 14.7683 25.6903 14.326L25.4305 13.5217L25.9851 13.0282C26.3716 12.6841 26.5051 12.4445 26.4255 12.2381C26.327 11.9824 26.2493 12.0152 25.859 12.4772L25.4067 13.0126L25.0924 12.106C24.9194 11.6073 24.7755 11.0872 24.7724 10.9502C24.7664 10.6846 23.7358 7.3204 23.228 5.90858C22.9305 5.08176 22.5364 4.67365 22.5364 5.19251ZM1.8806 9.37566C1.76857 9.55647 2.43957 10.5045 2.86866 10.7712C3.09839 10.9141 3.22911 10.9199 3.30941 10.7907C3.38232 10.6731 3.73026 10.8059 4.27568 11.1595C5.42157 11.9026 6.75001 12.5404 6.88057 12.4104C7.03121 12.2601 6.77969 12.0468 5.89441 11.5738C5.46978 11.3468 4.71146 10.9049 4.20945 10.5918C3.53554 10.1714 3.26206 10.0777 3.16478 10.2344C3.07351 10.3816 2.90657 10.2613 2.61954 9.84136C2.19783 9.22475 2.03724 9.12358 1.8806 9.37566ZM8.69884 12.525C8.50926 12.8274 9.46094 12.9082 13.186 12.9067C17.2444 12.9048 20.9923 12.6968 20.9923 12.4734C20.9923 12.3064 8.80401 12.3575 8.69884 12.525ZM5.89441 12.7079C6.2173 13.0384 7.09538 13.2695 7.09538 13.0239C7.09538 12.8597 6.91454 12.7804 5.98019 12.5346C5.67377 12.4541 5.66468 12.4726 5.89441 12.7079ZM22.1933 12.652C22.53 12.8689 23.1739 12.8689 23.3084 12.652C23.3729 12.5481 23.1249 12.4821 22.6752 12.4837C22.1346 12.4857 22.005 12.5308 22.1933 12.652ZM20.1345 13.5065C20.1345 13.6005 20.2503 13.6774 20.3918 13.6774C20.5333 13.6774 20.6492 13.6005 20.6492 13.5065C20.6492 13.4125 20.5333 13.3356 20.3918 13.3356C20.2503 13.3356 20.1345 13.4125 20.1345 13.5065ZM20.8207 13.5065C20.8207 13.6005 20.8933 13.6774 20.9822 13.6774C21.071 13.6774 21.1913 13.6005 21.2496 13.5065C21.308 13.4125 21.2352 13.3356 21.0882 13.3356C20.9412 13.3356 20.8207 13.4125 20.8207 13.5065ZM5.60652 15.1123C5.66691 15.2694 5.80845 15.895 5.92083 16.5029C6.0332 17.1108 6.18453 17.6081 6.2571 17.6081C6.54619 17.6081 6.57347 17.2563 6.33842 16.5527C6.20272 16.1463 6.06666 15.6274 6.03595 15.3998C6.00524 15.1721 5.87142 14.9503 5.73845 14.9065C5.57083 14.8515 5.53035 14.9146 5.60652 15.1123ZM10.2179 15.2497C9.88986 15.5765 9.97941 15.7513 10.3551 15.5177C10.7017 15.302 10.8137 15.0446 10.561 15.0446C10.4855 15.0446 10.3311 15.1369 10.2179 15.2497ZM22.1836 17.1134C21.9501 17.548 22.1058 18.5194 22.4551 18.8082C22.7629 19.0627 23.1168 18.8205 23.4913 18.099C23.8622 17.3846 23.8173 16.8639 23.3944 16.9739C23.2058 17.0231 23.0082 16.9936 22.9554 16.9085C22.786 16.6355 22.3828 16.7425 22.1836 17.1134ZM22.5499 17.8483C22.5366 18.505 22.5419 18.5107 22.8795 18.2063C23.2818 17.8436 23.3211 17.6081 22.9795 17.6081C22.8459 17.6081 22.6977 17.5121 22.65 17.3945C22.6024 17.2771 22.5573 17.4812 22.5499 17.8483ZM6.32263 17.951C6.25624 18.0581 6.37599 18.7745 6.58891 19.5433C6.80165 20.3118 7.08543 21.3446 7.21942 21.838C7.35324 22.3313 7.53458 22.7352 7.62225 22.7352C7.84152 22.7352 7.82281 22.4486 7.53252 21.3611C6.49763 17.4854 6.53915 17.6022 6.32263 17.951ZM3.67073 19.0077C3.26257 19.444 3.21608 20.0431 3.56796 20.334C3.86134 20.5765 4.72604 20.5092 4.81577 20.2368C4.8554 20.1161 4.7178 20.0761 4.44295 20.1286C4.00116 20.2127 3.82789 19.9321 4.22163 19.7702C4.35185 19.7166 4.28511 19.6362 4.05195 19.5657C3.84075 19.5016 3.71019 19.3811 3.76183 19.2977C3.9147 19.0514 4.52445 19.1249 4.63133 19.4026C4.75743 19.7297 5.03657 19.7364 5.03657 19.4124C5.03657 19.1774 4.4155 18.6336 4.14717 18.6336C4.07751 18.6336 3.86306 18.8019 3.67073 19.0077ZM16.0168 18.8521C15.7809 18.9695 15.4708 19.2953 15.3275 19.5759C14.8291 20.5529 14.8131 20.56 14.4132 19.969C13.6262 18.8056 12.3225 18.9771 11.5647 20.3436C10.9289 21.49 10.9858 23.11 11.716 24.6494C12.2897 25.8587 13.5761 27.4309 14.1373 27.6083C14.5815 27.7487 15.1022 27.5725 15.2311 27.2381C15.3174 27.0139 15.2371 26.9872 14.7505 27.0781C14.2151 27.1781 14.1083 27.1215 13.4682 26.3971C12.4676 25.2647 11.9583 24.3222 11.7169 23.1563C11.536 22.282 11.5468 21.9974 11.7929 21.1554C12.298 19.4272 13.4017 19.1813 14.2646 20.6044C14.5194 21.0248 14.8049 21.3432 14.8989 21.3119C14.9929 21.2806 15.1479 20.979 15.2431 20.6415C15.5128 19.6863 16.1419 19.1198 16.8651 19.181C17.7255 19.2536 18.2505 20.2012 18.2187 21.6243C18.206 22.1883 18.1628 22.419 18.1225 22.137C18.0244 21.4502 17.8125 21.2601 17.465 21.5473C17.3101 21.6754 17.068 21.7971 16.9274 21.8176C16.5952 21.8662 16.5921 21.8706 16.4523 22.5214C16.3521 22.9869 16.3771 23.0597 16.6069 22.9719C16.8402 22.8827 16.8551 22.9353 16.7064 23.325C16.6101 23.5769 16.5315 23.8592 16.5315 23.9527C16.5315 24.2162 16.8802 23.9383 17.0622 23.5295C17.201 23.2178 17.211 23.2361 17.1284 23.6495C17.0749 23.9175 16.8627 24.3637 16.6568 24.6411C16.3589 25.0422 16.3293 25.1741 16.5111 25.2861C16.671 25.3845 16.6827 25.4621 16.5499 25.5438C16.4454 25.608 16.2845 25.6142 16.192 25.5573C16.0997 25.5005 15.7966 25.6217 15.5183 25.8266C15.24 26.0315 14.8933 26.1537 14.7479 26.0982C14.3959 25.9637 14.2199 26.2769 14.4751 26.5834C14.6517 26.7953 14.743 26.7948 15.1595 26.5801C15.5852 26.361 15.6519 26.3629 15.7423 26.5974C15.83 26.8252 15.9096 26.8112 16.3092 26.4981L16.7741 26.1339L16.9047 26.4853C17.0555 26.8913 17.5968 26.9493 17.895 26.5914C18.1175 26.3243 17.9041 25.726 17.5435 25.6062C17.4244 25.5667 17.5227 25.289 17.7996 24.8826C18.7707 23.4574 18.9977 21.6669 18.407 20.0941C17.8929 18.7255 17.0994 18.3133 16.0168 18.8521ZM24.1949 19.9439C23.9765 20.1614 24.082 20.8192 24.3519 20.9224C24.7455 21.0728 24.7668 21.0607 24.7668 20.6844C24.7668 20.4964 24.844 20.3426 24.9383 20.3426C25.0327 20.3426 25.1099 20.2272 25.1099 20.0862C25.1099 19.8275 24.4195 19.7201 24.1949 19.9439ZM21.5192 20.3198C21.199 20.9158 21.6719 21.491 22.2883 21.2554C22.4683 21.1865 22.5379 20.98 22.5028 20.6198C22.4389 19.9671 21.8115 19.7757 21.5192 20.3198ZM9.26775 22.0989C8.81602 22.4853 8.66144 22.9061 8.97094 22.9061C9.16224 22.9061 9.91113 21.8942 9.80115 21.7845C9.75878 21.7424 9.51875 21.8839 9.26775 22.0989ZM10.3606 22.3589C10.3567 22.6374 10.1934 22.8194 9.79927 22.9845C9.49354 23.1125 9.18472 23.1812 9.113 23.1371C8.86783 22.9861 8.9821 23.5475 9.23996 23.7606C9.47501 23.9549 9.57057 23.8813 9.51755 23.547C9.5064 23.4764 9.56817 23.4188 9.65481 23.4188C9.74145 23.4188 9.9288 23.3742 10.0712 23.3198C10.2688 23.2443 10.3097 23.3151 10.2438 23.6189L10.1575 24.0169L10.5137 23.6134C10.9337 23.1377 10.964 22.7538 10.618 22.2979C10.3728 21.975 10.3659 21.9767 10.3606 22.3589ZM12.5855 22.4688C12.5855 22.6043 12.6627 22.7625 12.7571 22.8206C12.8514 22.8787 12.9286 22.7678 12.9286 22.5744C12.9286 22.3809 12.8514 22.2225 12.7571 22.2225C12.6627 22.2225 12.5855 22.3332 12.5855 22.4688ZM7.61008 23.1717C7.61008 23.4343 8.22359 25.7422 8.75494 27.4777C9.04849 28.437 9.43983 28.7294 9.26501 27.859L9.16138 27.3429L9.53334 27.6881C9.98782 28.1097 9.96963 28.1097 10.6554 27.6932C11.2878 27.309 11.3168 27.1908 10.9512 26.4865C10.6717 25.9481 10.3551 25.8164 10.3551 26.2387C10.3551 26.3797 10.4234 26.495 10.5066 26.495C10.59 26.495 10.6952 26.6357 10.7403 26.8076C10.835 27.1685 10.4425 27.7995 10.2831 27.5425C10.2253 27.4493 10.2577 27.3241 10.3551 27.2641C10.4526 27.2041 10.4848 27.0785 10.4267 26.9848C10.3632 26.8824 10.1911 26.9317 9.99503 27.1086C9.59425 27.4697 9.56182 27.2379 9.95283 26.8076C10.1527 26.5876 10.1717 26.495 10.0177 26.495C9.84216 26.495 9.84113 26.4437 10.012 26.2387C10.1908 26.0242 10.1647 25.9823 9.85314 25.9823C9.59716 25.9823 9.40501 26.1558 9.23842 26.5377C9.05433 26.9595 8.99445 27.0079 8.9893 26.7391C8.9857 26.5444 8.87212 26.0445 8.73709 25.6282C8.6019 25.2121 8.36823 24.4293 8.2176 23.8888C7.96333 22.9767 7.61008 22.5597 7.61008 23.1717ZM12.2942 23.4615C12.5795 24.2325 12.8835 24.717 13.0059 24.5951C13.1495 24.4522 12.4644 22.9061 12.2575 22.9061C12.1545 22.9061 12.1688 23.1224 12.2942 23.4615ZM17.5977 23.8724C17.492 24.2157 17.4735 24.4271 17.5568 24.3423C17.7246 24.1711 17.9852 23.2479 17.8657 23.2479C17.8241 23.2479 17.7035 23.5289 17.5977 23.8724ZM15.6873 24.0311C15.6955 24.2302 15.7362 24.2707 15.7909 24.1345C15.8405 24.0111 15.8343 23.8636 15.7773 23.8069C15.7204 23.7502 15.6799 23.851 15.6873 24.0311ZM15.2578 25.0769C15.0214 25.3308 14.8571 25.5677 14.8927 25.6033C15.002 25.7119 15.8105 25.123 15.9113 24.8612C16.064 24.4649 15.7226 24.5775 15.2578 25.0769ZM16.9747 24.8959C16.8172 25.305 16.9401 25.3365 17.1828 24.9492C17.2981 24.7655 17.3226 24.6151 17.2375 24.6151C17.1526 24.6151 17.0342 24.7414 16.9747 24.8959ZM24.6532 25.2985C24.1368 25.5058 23.9921 26.079 24.3275 26.5888C24.6453 27.0718 25.2928 27.1429 25.6982 26.7392C26.0775 26.3612 26.0334 25.9324 25.5707 25.4993C25.1281 25.0853 25.1643 25.0931 24.6532 25.2985ZM6.06597 25.706C6.06597 25.836 5.91156 25.9827 5.72284 26.0319C4.92986 26.2383 5.69179 27.6913 6.5932 27.6913C7.08525 27.6913 7.09538 27.673 7.09538 26.7855C7.09538 26.2874 7.00273 25.7875 6.88949 25.6747C6.60864 25.3949 6.06597 25.4154 6.06597 25.706ZM24.7153 25.8697C24.6667 25.9956 24.6959 26.2072 24.78 26.3397C24.8965 26.523 24.9337 26.4901 24.9357 26.2012C24.9376 25.9184 25.0107 25.8499 25.2238 25.9312C25.4158 26.0047 25.4686 25.975 25.3852 25.8405C25.2176 25.5701 24.8239 25.5874 24.7153 25.8697ZM6.40911 26.4178C6.40911 26.6006 6.31698 26.6673 6.15176 26.6041C6.01022 26.55 5.89441 26.5683 5.89441 26.6447C5.89441 26.8062 6.46692 27.3495 6.63712 27.3495C6.82069 27.3495 6.77026 26.3554 6.58067 26.2387C6.48631 26.1806 6.40911 26.2612 6.40911 26.4178ZM25.2815 26.3342C25.2815 26.4337 25.3587 26.4677 25.453 26.4096C25.5474 26.3515 25.6246 26.2701 25.6246 26.2286C25.6246 26.1871 25.5474 26.1532 25.453 26.1532C25.3587 26.1532 25.2815 26.2347 25.2815 26.3342ZM11.2198 28.4522C10.7623 29.0013 11.4782 29.7953 11.9801 29.2954C12.3208 28.956 12.316 28.4397 11.971 28.3078C11.5698 28.1545 11.4484 28.1779 11.2198 28.4522ZM21.3414 28.5346C21.2438 28.7164 21.1642 29.0818 21.1645 29.3463C21.1652 29.8512 21.735 30.9384 21.9989 30.9384C22.3446 30.9384 23.102 29.6818 23.1192 29.0797C23.1362 28.4864 23.1134 28.4614 22.5793 28.4855C22.2725 28.4995 22.0217 28.4418 22.0217 28.3573C22.0217 28.0714 21.52 28.2021 21.3414 28.5346ZM9.1552 28.7453C9.15589 28.8705 9.39506 29.7806 9.68707 30.7675C9.9789 31.7545 10.2851 32.8392 10.3675 33.1779C10.5943 34.1114 12.1942 38.8472 12.8715 40.5906C14.177 43.9507 15.439 46.6569 16.619 48.6267C16.8443 49.0027 17.1078 49.4833 17.2048 49.6949C17.3015 49.9064 17.4601 50.0794 17.5567 50.0794C17.6534 50.0794 17.7325 50.1948 17.7325 50.3358C17.7325 50.6318 18.0024 50.6776 18.1685 50.4098C18.2307 50.3096 18.1388 50.1197 17.9641 49.988C17.7896 49.8562 17.7056 49.746 17.7776 49.7431C17.8495 49.74 17.7215 49.4428 17.4934 49.0825C15.8696 46.5204 12.7327 39.1251 11.4643 34.8692C11.3382 34.4462 11.1178 33.7925 10.9742 33.4165C10.8307 33.0405 10.7099 32.6418 10.7058 32.5304C10.7017 32.419 10.6091 32.1113 10.4999 31.8468C10.3908 31.5822 10.273 31.1979 10.2383 30.993C10.0111 29.6543 9.15109 27.8696 9.1552 28.7453ZM11.5561 28.8977C11.5561 28.9972 11.6333 29.0312 11.7277 28.9731C11.822 28.915 11.8992 28.8336 11.8992 28.7921C11.8992 28.7506 11.822 28.7167 11.7277 28.7167C11.6333 28.7167 11.5561 28.7983 11.5561 28.8977ZM22.4527 29.0553C22.3876 29.16 22.2061 29.2241 22.0493 29.1976C21.678 29.1351 21.6139 29.2918 21.7446 29.9428C21.8477 30.4562 21.8647 30.4656 22.1787 30.1826C22.3585 30.0205 22.5547 29.6922 22.6151 29.453C22.7344 28.9792 22.6412 28.7513 22.4527 29.0553ZM15.7628 30.2548C15.831 30.7718 15.9353 31.2333 15.9947 31.2803C16.0541 31.3273 16.1177 31.5195 16.1364 31.7075C16.1745 32.0948 16.4583 33.5522 16.7187 34.6983C16.8148 35.1213 16.9877 35.8845 17.103 36.3945C17.3671 37.5634 17.8317 37.8476 17.6459 36.7267C17.5778 36.316 17.4544 35.8961 17.3715 35.7934C17.2887 35.6907 17.2605 35.5671 17.3093 35.5186C17.358 35.4702 17.2731 34.9774 17.1209 34.4235C16.9685 33.8697 16.8136 33.2627 16.7767 33.0747C16.3454 30.8774 16.0405 29.6989 15.8587 29.5251C15.6804 29.3547 15.6622 29.4926 15.7628 30.2548ZM7.78559 30.0347C7.77941 30.6351 8.48318 32.3588 8.66178 32.1809C8.81242 32.0308 8.61185 31.3889 8.03281 30.1694C7.8211 29.7233 7.78902 29.7059 7.78559 30.0347ZM31.1147 30.5966C31.1147 30.6906 31.1919 30.7675 31.2863 30.7675C31.3807 30.7675 31.4579 30.6906 31.4579 30.5966C31.4579 30.5027 31.3807 30.4257 31.2863 30.4257C31.1919 30.4257 31.1147 30.5027 31.1147 30.5966ZM31.3958 31.3657C31.4501 31.5067 31.5249 31.6221 31.562 31.6221C31.5991 31.6221 31.6294 31.5067 31.6294 31.3657C31.6294 31.2247 31.5546 31.1094 31.4632 31.1094C31.3719 31.1094 31.3415 31.2247 31.3958 31.3657ZM24.1146 32.4596C23.5603 32.8155 23.9012 34.1497 24.5188 34.042C24.9697 33.9634 25.453 33.5119 25.453 33.1692C25.453 32.8652 24.374 32.2932 24.1146 32.4596ZM31.6294 32.9993C31.6294 33.2868 31.6963 33.481 31.778 33.4307C31.9161 33.3456 31.8408 32.4766 31.6951 32.4766C31.6591 32.4766 31.6294 32.7119 31.6294 32.9993ZM24.2521 33.2694C24.2521 33.4035 24.4336 33.502 24.681 33.502C24.9169 33.502 25.1099 33.434 25.1099 33.3511C25.1099 33.268 24.9169 33.1632 24.681 33.1183C24.3934 33.0636 24.2521 33.1133 24.2521 33.2694ZM9.08075 33.4821C8.9447 33.7014 9.65738 35.2383 9.84216 35.1245C9.97101 35.0452 9.5203 33.6387 9.29366 33.4129C9.23584 33.3555 9.13994 33.3866 9.08075 33.4821ZM14.0214 33.5842C13.8805 33.9497 14.2248 34.6983 14.5338 34.6983C14.8835 34.6983 15.1818 34.2727 15.0578 33.9509C14.9176 33.5867 14.6917 33.5966 14.5822 33.9719C14.5294 34.1534 14.5074 34.1094 14.5268 33.8597C14.5638 33.3801 14.1804 33.1711 14.0214 33.5842ZM31.6294 34.9546C31.6294 35.1113 31.7125 35.2118 31.8139 35.1782C31.9153 35.1445 31.9983 35.0438 31.9983 34.9546C31.9983 34.8654 31.9153 34.7648 31.8139 34.7311C31.7125 34.6974 31.6294 34.7979 31.6294 34.9546ZM21.6255 35.3364C21.5305 35.4984 22.2305 38.3814 22.4077 38.5579C22.4786 38.6283 22.5364 38.9284 22.5364 39.2246C22.5364 39.9938 23.0451 41.6087 23.2295 41.425C23.3186 41.3363 23.2523 40.7402 23.0706 39.9937C22.8994 39.2901 22.5815 37.962 22.3643 37.0422C21.992 35.4661 21.804 35.0319 21.6255 35.3364ZM31.7226 35.7119C31.6054 35.9007 31.876 36.1048 32.0345 35.9469C32.1975 35.7844 32.1671 35.5528 31.9827 35.5528C31.8938 35.5528 31.7768 35.6244 31.7226 35.7119ZM14.4338 37.2191C13.6844 38.0691 14.0286 39.1417 15.0506 39.1417C15.6801 39.1417 16.2546 38.657 16.1606 38.2055C16.0752 37.7955 15.7736 37.8654 15.6667 38.3199C15.6133 38.5466 15.4244 38.7362 15.2228 38.7654C14.3885 38.8866 14.2326 37.551 15.0626 37.3929C15.2945 37.3488 15.5656 37.3934 15.665 37.4923C15.7641 37.5911 15.8453 37.6074 15.8453 37.5284C15.8453 37.317 15.2868 36.9316 14.9712 36.9255C14.8207 36.9224 14.5788 37.0547 14.4338 37.2191ZM25.6589 37.4669C25.3739 37.7507 25.4015 38.2028 25.7198 38.4658C25.9418 38.6495 26.0422 38.6307 26.3201 38.3539C26.6272 38.0479 26.6325 37.991 26.3869 37.6415C26.0827 37.2088 25.9499 37.177 25.6589 37.4669ZM10.3123 37.6169C10.1472 37.713 10.0108 37.9223 10.0094 38.0821C10.007 38.3333 9.98302 38.338 9.83152 38.1163C9.69684 37.9194 9.66768 37.9791 9.70542 38.3727C9.74265 38.7597 9.89586 38.9556 10.331 39.172C11.0562 39.5327 11.3646 39.4198 11.347 38.7996C11.3271 38.1019 10.7034 37.3893 10.3123 37.6169ZM17.6436 38.3727C17.7102 38.8426 17.8373 39.3152 17.9262 39.4228C18.0149 39.5303 18.0746 39.6842 18.0587 39.7646C17.9859 40.1317 18.3138 41.0216 18.5217 41.0216C18.6904 41.0216 18.7245 40.8706 18.6477 40.4662C18.5897 40.1606 18.4862 39.8339 18.4178 39.7399C18.3495 39.6459 18.2505 39.2316 18.1978 38.8191C18.1451 38.4067 17.9715 37.9452 17.8123 37.7936C17.5416 37.5363 17.5304 37.574 17.6436 38.3727ZM20.1753 37.8022C19.8802 38.0961 19.9097 38.3573 20.2751 38.6866C20.6965 39.0665 21.223 38.7122 21.1373 38.1067C21.0707 37.6364 20.5176 37.4612 20.1753 37.8022ZM15.159 38.3827C15.159 38.5292 15.2362 38.6017 15.3306 38.5436C15.4249 38.4855 15.5021 38.3657 15.5021 38.2771C15.5021 38.1886 15.4249 38.1163 15.3306 38.1163C15.2362 38.1163 15.159 38.2363 15.159 38.3827ZM10.3543 38.4586C10.0679 38.635 10.1242 38.7129 10.6554 38.8756C11.0762 39.0045 11.1727 38.7794 10.8211 38.4889C10.6868 38.3778 10.5049 38.366 10.3543 38.4586ZM18.4188 41.4207C18.4188 41.8131 18.608 42.2179 18.7916 42.2179C19.0316 42.2179 18.8865 41.3171 18.6332 41.2342C18.5154 41.1956 18.4188 41.2795 18.4188 41.4207ZM23.1322 42.0898C23.3572 43.0765 23.5709 43.949 23.8964 45.2087C24.0906 45.9607 24.2929 46.7602 24.3461 46.9852C24.4083 47.2494 24.5015 47.3357 24.6091 47.2286C24.8467 46.9919 23.5623 41.7052 23.2671 41.7052C23.1247 41.7052 23.0761 41.8437 23.1322 42.0898ZM18.8607 43.0118C19.0936 44.277 20.5484 48.659 20.9391 49.2715C21.0125 49.3869 21.0739 49.5518 21.0755 49.638C21.0769 49.7241 21.1868 49.8307 21.3198 49.8748C21.4701 49.9247 21.5305 49.8653 21.4795 49.7181C21.2941 49.1825 19.4146 43.2974 19.3072 42.9156C19.2432 42.6883 19.0893 42.4686 18.9652 42.4276C18.7916 42.3702 18.7676 42.5049 18.8607 43.0118ZM26.6749 43.9745C26.1017 44.5454 26.8944 46.6503 27.5835 46.3867C27.8882 46.2704 28.4103 44.8997 28.3393 44.4031C28.2762 43.9616 27.7132 43.7762 27.4921 44.1238C27.402 44.2653 27.3445 44.279 27.3428 44.1589C27.3391 43.8733 26.8985 43.7518 26.6749 43.9745ZM12.8142 44.5448C12.5507 44.9454 12.5464 45.0385 12.773 45.442C13.2152 46.2293 14.3012 46.0699 14.3012 45.2176C14.3012 44.8261 13.6551 44.0979 13.3076 44.0979C13.1978 44.0979 12.9758 44.299 12.8142 44.5448ZM26.8256 44.6065C26.8256 44.7213 26.9561 45.0893 27.1157 45.424L27.4056 46.033L27.6173 45.4499C27.9052 44.6565 27.8999 44.5569 27.5758 44.6806C27.4224 44.7394 27.1908 44.6998 27.0611 44.5926C26.8832 44.4455 26.8256 44.4489 26.8256 44.6065ZM13.126 45.1233C13.3991 45.9039 14.0522 45.7754 13.844 44.9821C13.7791 44.7346 13.6129 44.6106 13.3464 44.6106C12.9765 44.6106 12.96 44.649 13.126 45.1233ZM21.4637 45.9622C20.8712 46.5877 20.8742 46.7253 21.4905 47.1625C22.1076 47.6001 22.2281 47.6022 22.4926 47.1802C22.6591 46.915 22.6587 46.7116 22.4911 46.2107C22.2185 45.3957 22.0411 45.3528 21.4637 45.9622ZM21.6786 46.7285C21.6786 46.7655 21.7944 46.84 21.9359 46.8941C22.0774 46.9481 22.1933 46.9179 22.1933 46.827C22.1933 46.7359 22.0774 46.6614 21.9359 46.6614C21.7944 46.6614 21.6786 46.6916 21.6786 46.7285ZM18.4188 51.2431C18.4188 51.517 18.882 52.0049 19.0798 51.9391C19.2241 51.8913 19.2047 51.7623 19.0122 51.4885C18.746 51.1098 18.4188 50.9744 18.4188 51.2431ZM29.0273 52.0936C28.8646 52.4758 27.2816 53.399 26.0535 53.8278C24.5482 54.3535 24.0129 54.5008 23.2227 54.6071C22.798 54.6642 22.3264 54.7472 22.1747 54.7915C22.0231 54.8359 21.1163 54.7553 20.16 54.612C19.2035 54.469 18.3287 54.3519 18.216 54.3519C17.9938 54.3519 18.396 54.7587 19.61 55.7619C20.3827 56.4004 20.3913 56.4027 21.9704 56.4027C24.9514 56.4027 28.3784 54.8698 28.9346 53.2876C29.0757 52.8859 29.2462 52.4228 29.3134 52.2584C29.3828 52.089 29.3596 51.9593 29.2601 51.9593C29.1635 51.9593 29.0588 52.0198 29.0273 52.0936ZM24.087 55.0496C23.4064 55.6209 23.2697 55.6554 23.1923 55.2757C23.1451 55.0434 23.065 55.0595 22.6529 55.383C22.115 55.8053 22.2495 56.2259 22.8243 55.9194C23.0029 55.8242 23.4297 55.7723 23.7725 55.8041C24.2145 55.8449 24.4795 55.7699 24.6825 55.5465C24.84 55.3732 25.2792 55.1791 25.6584 55.1153C26.3052 55.0065 26.3296 54.9819 26.0514 54.7183C25.8311 54.5095 25.7346 54.4922 25.6755 54.651C25.5827 54.9004 25.0797 54.9347 24.844 54.7077C24.7438 54.6114 24.4521 54.743 24.087 55.0496ZM27.9545 55.1842C27.6156 55.7304 24.3711 56.8703 22.7203 57.0231C21.536 57.1327 21.2304 57.286 21.7784 57.4953C22.5933 57.8069 25.0033 57.2653 26.6188 56.4075C27.6691 55.8501 28.336 55.2868 28.1571 55.1085C28.1041 55.0559 28.013 55.0899 27.9545 55.1842ZM26.9971 56.9438C26.1654 57.455 24.637 57.9096 23.2878 58.0473C22.2543 58.1528 22.1878 58.1823 22.5499 58.3753C22.7689 58.492 23.0483 58.5491 23.1712 58.5023C23.4484 58.3963 23.4627 58.6588 23.194 58.9265C23.0415 59.0784 23.0597 59.2797 23.2707 59.7724C23.4229 60.1281 23.5994 60.6881 23.6631 61.0171C23.7267 61.3461 23.8755 61.8075 23.9938 62.0425C24.1121 62.2775 24.3836 62.9895 24.5972 63.6247C24.8664 64.4255 25.044 64.7315 25.1765 64.6226C25.2813 64.5361 25.5711 64.4394 25.8202 64.4074L26.2731 64.3497L25.9499 63.1534C25.772 62.4954 25.582 61.6879 25.5277 61.3589C25.4347 60.7961 25.4446 60.7802 25.6961 61.0895C25.8432 61.2704 26.0087 61.6933 26.0643 62.0295C26.2151 62.9423 26.5051 63.6025 26.7204 63.523C26.8254 63.4842 26.8988 63.3851 26.8835 63.3029C26.8683 63.2207 26.8063 62.8457 26.7459 62.4697C26.6387 61.8008 26.6418 61.7954 26.8964 62.2134C27.0395 62.4484 27.1593 62.7753 27.1627 62.9397C27.1659 63.1041 27.2739 63.2388 27.4025 63.2388C27.5885 63.2388 27.6208 62.9158 27.5599 61.6585C27.5178 60.7891 27.4068 59.986 27.3131 59.8738C27.2196 59.7615 27.0882 59.2999 27.0213 58.848C26.9256 58.202 26.8365 58.0371 26.6051 58.0766C26.1679 58.1511 26.2474 57.6602 26.6969 57.5093C26.9091 57.4381 27.1601 57.3714 27.2545 57.3613C27.4449 57.3407 27.8411 56.9018 27.8495 56.7018C27.8586 56.4902 27.6299 56.5552 26.9971 56.9438ZM41.5803 61.1784C38.1786 61.6333 36.325 61.9881 34.975 62.4427C31.5901 63.5825 29.9868 64.1519 29.8686 64.256C29.7966 64.3194 29.8211 64.6098 29.9232 64.9013L30.1087 65.4313L32.1129 65.3409C33.6469 65.2715 34.5196 65.1307 35.8328 64.7402C36.7764 64.4597 37.7801 64.1704 38.0632 64.0974C38.3463 64.0244 39.3113 63.7561 40.2078 63.5011C43.0894 62.6811 46.6789 61.813 48.0141 61.6128C49.3833 61.4078 49.5353 61.3532 49.3246 61.1434C48.9846 60.8047 44.2145 60.8262 41.5803 61.1784ZM50.9736 61.4883C50.4697 61.6 50.6377 61.827 51.3167 61.9519C52.2583 62.125 54.0429 62.8659 54.8556 63.421C57.1498 64.9883 59.0854 67.7282 59.0772 69.3969C59.0738 70.0831 58.5501 72.1916 58.2291 72.8124C58.1084 73.0456 57.7096 73.597 57.3428 74.0375C56.976 74.4781 56.7511 74.8847 56.8427 74.9413C57.2059 75.1648 58.3628 74.3499 58.8871 73.5011C59.6161 72.3212 59.8192 71.3698 59.7376 69.5191C59.6415 67.3362 59.0261 66.0228 57.3488 64.4202C56.3795 63.494 55.8301 63.1315 54.5653 62.5832C52.7699 61.8051 51.4118 61.391 50.9736 61.4883ZM26.9971 61.9388C26.9971 62.0697 27.1129 62.2211 27.2545 62.2753C27.5422 62.3851 27.5564 62.3569 27.4077 61.971C27.279 61.6371 26.9971 61.6149 26.9971 61.9388ZM25.1099 63.3243C25.1099 63.4652 25.1871 63.5806 25.2815 63.5806C25.3758 63.5806 25.453 63.4652 25.453 63.3243C25.453 63.1833 25.3758 63.0679 25.2815 63.0679C25.1871 63.0679 25.1099 63.1833 25.1099 63.3243ZM26.654 64.4291C26.654 64.5197 26.8084 64.6763 26.9971 64.7769C27.2658 64.9201 27.3403 64.9068 27.3403 64.7157C27.3403 64.5816 27.2181 64.425 27.0688 64.3679C26.7044 64.2287 26.654 64.236 26.654 64.4291ZM30.9883 65.9257C30.4854 65.9881 29.9138 66.4945 29.9138 66.8776C29.9138 67.0947 33.687 68.8386 34.5955 69.0414C36.0097 69.3571 39.4273 70.5351 40.4735 71.0676C41.0351 71.3534 41.8805 71.9696 42.3523 72.4369C44.5438 74.6077 50.1194 77.2527 52.5036 77.2527C54.1642 77.2527 57.4332 75.8971 56.9453 75.4109C56.8844 75.3504 56.2999 75.4383 55.6462 75.6059C54.4799 75.9052 54.4312 75.9041 53.0374 75.5493C49.1198 74.5523 47.756 73.8302 44.1382 70.8376C40.0654 67.4683 37.4991 66.2634 33.774 65.9715C32.6417 65.8826 31.6766 65.8206 31.6294 65.8336C31.5822 65.8464 31.2937 65.8879 30.9883 65.9257ZM22.1933 67.6274C21.5799 67.7267 18.3004 68.317 16.1884 68.708C15.1976 68.8914 13.4605 69.2055 12.3282 69.4058C10.2354 69.7761 7.73721 70.519 6.49489 71.1404C5.33802 71.7191 3.76029 72.9127 2.87586 73.8783C2.01614 74.8167 1.01985 76.4435 1.12056 76.7444C1.15144 76.8364 1.36573 76.5462 1.59717 76.0995C2.09661 75.1351 2.98189 73.9528 3.10954 74.0798C3.15912 74.1293 2.89988 74.7582 2.53341 75.4776C1.28921 77.9192 1.56903 80.1814 3.3559 82.129C4.31187 83.171 5.2651 83.7924 6.34048 84.0744C6.91094 84.2241 7.3649 84.1927 8.74241 83.908C11.7841 83.2792 12.4025 82.8364 14.2183 79.9871C15.7739 77.5465 17.9861 74.2563 18.9295 72.9803C19.4508 72.2754 19.932 71.6217 19.9993 71.5277C20.3748 71.0016 22.2432 68.8787 22.7737 68.3751C23.1149 68.051 23.3942 67.7243 23.3942 67.6487C23.3942 67.5093 22.9692 67.5016 22.1933 67.6274ZM27.9407 67.8531C27.9991 67.9471 28.0807 68.024 28.1224 68.024C28.1641 68.024 28.1981 67.9471 28.1981 67.8531C28.1981 67.7591 28.1162 67.6822 28.0164 67.6822C27.9165 67.6822 27.8824 67.7591 27.9407 67.8531ZM27.855 68.7931C27.855 68.9341 27.9322 69.0494 28.0265 69.0494C28.1209 69.0494 28.1981 68.9341 28.1981 68.7931C28.1981 68.6521 28.1209 68.5367 28.0265 68.5367C27.9322 68.5367 27.855 68.6521 27.855 68.7931ZM24.9963 69.0922C24.0349 70.1639 23.1822 71.7282 22.7033 73.2987C22.3823 74.3515 22.3346 74.8189 22.4077 76.2022C22.563 79.1461 23.4033 80.4388 27.429 83.9269C29.7223 85.914 29.8352 85.9899 29.6806 85.4399C29.6169 85.2138 29.4859 84.4135 29.3894 83.6615C29.2266 82.3933 27.7913 76.2726 27.2454 74.5183C27.1136 74.0953 26.8518 73.2109 26.6634 72.5529C25.8396 69.6751 25.5325 68.71 25.44 68.7088C25.3858 68.7082 25.1861 68.8808 24.9963 69.0922ZM28.1981 69.3603C28.1981 69.5668 28.5236 69.8076 28.6426 69.6891C28.6857 69.6461 28.6033 69.5136 28.4596 69.3947C28.2966 69.2598 28.1981 69.2468 28.1981 69.3603ZM27.6834 69.5622C27.4634 69.7037 27.4696 69.7283 27.7263 69.7305C27.8913 69.7319 28.0265 69.6561 28.0265 69.5622C28.0265 69.3537 28.0071 69.3537 27.6834 69.5622ZM36.3491 70.0725C36.2516 70.2295 40.3905 74.3211 41.3291 74.9954C41.71 75.2691 42.2304 75.7401 42.4855 76.042C42.7406 76.3442 43.018 76.5491 43.1019 76.4975C43.3217 76.3621 43.1309 74.9168 42.7617 73.9201C42.432 73.0303 41.3681 72.0452 40.0362 71.3968C38.855 70.8217 36.4256 69.9491 36.3491 70.0725ZM28.4361 70.9241C28.4975 71.2501 28.6315 71.5962 28.7341 71.6931C28.8675 71.8192 28.8859 71.6993 28.7986 71.2712C28.7315 70.9422 28.5973 70.5961 28.5004 70.5021C28.3803 70.3856 28.3599 70.5199 28.4361 70.9241ZM29.0559 73.4828C29.0559 73.5713 29.1331 73.6911 29.2275 73.7492C29.3219 73.8073 29.3991 73.7349 29.3991 73.5884C29.3991 73.442 29.3219 73.322 29.2275 73.322C29.1331 73.322 29.0559 73.3943 29.0559 73.4828ZM31.6083 83.1011C31.5534 83.5356 31.6009 83.7651 31.7583 83.8252C31.8851 83.8736 31.9729 84.0105 31.9535 84.1293C31.9343 84.2479 31.9647 84.4605 32.0213 84.6015C32.0777 84.7425 32.1582 85.0116 32.1999 85.1996C32.2417 85.3876 32.2848 85.1914 32.2958 84.7638C32.3068 84.3361 32.2303 83.9011 32.1258 83.797C32.0213 83.693 31.8803 83.3506 31.8123 83.0365L31.689 82.4652L31.6083 83.1011ZM30.6 85.7978C30.6 85.8918 30.6819 85.9687 30.7817 85.9687C30.8816 85.9687 30.9157 85.8918 30.8574 85.7978C30.799 85.7038 30.7174 85.6269 30.6757 85.6269C30.634 85.6269 30.6 85.7038 30.6 85.7978ZM32.3428 85.9687C32.3428 86.2037 32.3817 86.2999 32.4293 86.1823C32.477 86.0649 32.477 85.8726 32.4293 85.7551C32.3817 85.6376 32.3428 85.7337 32.3428 85.9687ZM34.4467 89.2748C34.3819 89.4429 34.4061 89.6574 34.5004 89.7514C34.7305 89.9806 34.9074 89.5215 34.7109 89.205C34.5926 89.0141 34.5419 89.0275 34.4467 89.2748ZM33.7979 89.3344C33.5928 89.5386 33.6872 89.8994 33.9456 89.8994C34.0871 89.8994 34.2029 89.7887 34.2029 89.6531C34.2029 89.3676 33.9581 89.175 33.7979 89.3344ZM46.5557 89.6431C46.5557 89.784 46.6329 89.8994 46.7273 89.8994C46.8217 89.8994 46.8989 89.784 46.8989 89.6431C46.8989 89.5021 46.8217 89.3867 46.7273 89.3867C46.6329 89.3867 46.5557 89.5021 46.5557 89.6431ZM30.2624 89.8567C30.2752 90.1578 30.7424 90.5974 30.8557 90.4148C30.92 90.3111 30.8793 90.1142 30.7654 89.9773C30.5451 89.713 30.2533 89.6429 30.2624 89.8567ZM47.8425 90.0703C47.7842 90.1643 47.8183 90.2412 47.9181 90.2412C48.018 90.2412 48.0998 90.1643 48.0998 90.0703C48.0998 89.9763 48.0659 89.8994 48.0242 89.8994C47.9825 89.8994 47.9008 89.9763 47.8425 90.0703ZM36.1224 90.5938C36.1636 90.717 36.2988 90.8517 36.4227 90.8929C36.5513 90.9356 36.6157 90.8715 36.5728 90.7433C36.5314 90.6199 36.3962 90.4853 36.2725 90.4442C36.1439 90.4015 36.0795 90.4656 36.1224 90.5938ZM30.2569 90.8394C30.2569 90.9804 30.3317 91.0957 30.4231 91.0957C30.5144 91.0957 30.5448 90.9804 30.4906 90.8394C30.4362 90.6984 30.3614 90.583 30.3243 90.583C30.2873 90.583 30.2569 90.6984 30.2569 90.8394ZM31.0456 90.7273C30.9862 90.823 31.0212 90.9527 31.1233 91.0156C31.3872 91.1779 31.5574 90.9556 31.3371 90.7361C31.2139 90.6134 31.118 90.6105 31.0456 90.7273ZM35.4039 91.0957C35.6206 91.499 36.0025 91.5601 35.8512 91.1672C35.7939 91.0185 35.747 90.8647 35.747 90.8254C35.747 90.786 35.6285 90.7539 35.4837 90.7539C35.2735 90.7539 35.2574 90.823 35.4039 91.0957ZM34.38 91.1384C34.3875 91.4377 34.8022 91.9502 35.0367 91.9502C35.3037 91.9502 35.2823 91.7554 34.9652 91.3047C34.6723 90.8881 34.3714 90.8026 34.38 91.1384ZM27.5976 92.292C27.6559 92.386 27.7762 92.4629 27.8651 92.4629C27.954 92.4629 28.0265 92.386 28.0265 92.292C28.0265 92.198 27.9061 92.1211 27.759 92.1211C27.612 92.1211 27.5393 92.198 27.5976 92.292ZM25.964 92.817C25.5148 93.0476 24.4607 93.4883 24.3581 93.4883C23.9039 93.4883 20.3077 96.1811 20.3067 96.5218C20.3064 96.6394 20.2113 96.7163 20.0957 96.6927C19.9799 96.6693 19.8587 96.8231 19.8263 97.0345C19.7531 97.5134 20.0588 97.5375 20.3086 97.0725C20.411 96.8819 20.5682 96.771 20.6577 96.8262C20.7475 96.8814 20.8207 96.805 20.8207 96.6565C20.8207 96.5078 21.0137 96.2988 21.2496 96.1917C21.4855 96.0847 21.6786 95.9324 21.6786 95.8534C21.6786 95.7747 21.7791 95.7101 21.9021 95.7101C22.0251 95.7101 22.4331 95.4848 22.8088 95.2097C23.1846 94.9343 24.1318 94.3767 24.9138 93.9706C26.4953 93.1491 26.9707 92.8883 27.0709 92.7875C27.1975 92.66 26.2187 92.6861 25.964 92.817ZM36.948 93.232C36.7172 93.509 36.8188 93.541 37.4198 93.3807C37.632 93.3239 37.8058 93.2096 37.8058 93.1265C37.8058 92.8786 37.1782 92.9558 36.948 93.232ZM38.7424 93.158C38.6801 93.2581 38.6705 93.3812 38.7208 93.4314C38.8438 93.5538 39.1784 93.3381 39.1784 93.1364C39.1784 92.918 38.8822 92.9326 38.7424 93.158ZM38.0632 93.4883C38.0048 93.5823 38.039 93.6592 38.1388 93.6592C38.2387 93.6592 38.3205 93.5823 38.3205 93.4883C38.3205 93.3943 38.2866 93.3174 38.2449 93.3174C38.2032 93.3174 38.1215 93.3943 38.0632 93.4883ZM39.8646 93.4883C39.8646 93.5823 39.9372 93.6592 40.0261 93.6592C40.1149 93.6592 40.2352 93.5823 40.2935 93.4883C40.3519 93.3943 40.2791 93.3174 40.1321 93.3174C39.9851 93.3174 39.8646 93.3943 39.8646 93.4883ZM37.2331 93.7649C36.6584 94.075 36.7219 94.235 37.3567 94.0762C37.6037 94.0145 37.8058 93.857 37.8058 93.7262C37.8058 93.4412 37.8367 93.4391 37.2331 93.7649ZM25.8819 94.3304C25.2214 94.694 24.1958 95.2474 23.6027 95.5598C22.5831 96.097 21.5943 96.9064 21.9575 96.9064C22.0495 96.9064 22.2197 96.8117 22.3358 96.696C22.5031 96.5294 22.5256 96.6208 22.4434 97.1359C22.3418 97.7722 22.3482 97.7817 22.7347 97.5758C22.9519 97.4599 23.2278 97.2675 23.3476 97.1482C23.5234 96.973 23.5076 96.9163 23.2652 96.8532C22.9902 96.7816 22.9912 96.7734 23.2777 96.7553C23.4496 96.7444 23.7118 96.6145 23.8604 96.4665C24.0568 96.2706 24.164 96.2518 24.2543 96.3971C24.4351 96.6886 25.429 96.137 25.6188 95.6396C25.702 95.4221 25.8915 95.1975 26.0403 95.1406C26.1892 95.0837 26.3109 94.9246 26.3109 94.787C26.3109 94.6494 26.4551 94.4912 26.6313 94.4355C26.8077 94.3798 27.0898 94.1822 27.2584 93.9966C27.7465 93.4595 27.2407 93.582 25.8819 94.3304ZM41.8931 93.9583C41.4382 94.4474 40.7441 94.9911 40.6694 94.9166C40.6312 94.8784 40.5022 94.9646 40.3828 95.1078C40.2062 95.3197 40.2096 95.3681 40.4013 95.3674C40.6948 95.3664 42.3014 94.1631 42.3966 93.8729C42.4984 93.563 42.2161 93.611 41.8931 93.9583ZM47.9332 93.8235C47.7944 93.911 47.7255 94.027 47.78 94.0814C47.8348 94.1357 47.977 94.0629 48.0964 93.9197C48.344 93.6227 48.2965 93.5946 47.9332 93.8235ZM35.4367 93.9754C35.2188 94.0364 35.0621 94.1634 35.0884 94.2574C35.151 94.4802 35.5938 94.3811 35.9124 94.073C36.1785 93.8158 36.0787 93.7953 35.4367 93.9754ZM39.3335 94.277C39.1344 94.516 39.1471 94.5447 39.427 94.4907C39.6049 94.4563 39.7826 94.3322 39.8217 94.2147C39.9236 93.9098 39.6056 93.9505 39.3335 94.277ZM27.2938 94.3654C26.9901 94.5346 26.8868 94.8555 27.1359 94.8555C27.2123 94.8555 27.4169 94.752 27.5907 94.6253C27.9692 94.3497 27.7172 94.1294 27.2938 94.3654ZM37.4677 94.5071C37.3289 94.5946 37.2551 94.7057 37.3037 94.754C37.4364 94.8865 38.149 94.6672 38.149 94.4937C38.149 94.2977 37.7887 94.3047 37.4677 94.5071ZM46.6844 94.6433C46.2771 94.8949 46.0295 95.3683 46.3052 95.3683C46.4794 95.3683 47.4136 94.6207 47.4136 94.4816C47.4136 94.274 47.2089 94.3194 46.6844 94.6433ZM36.4168 94.9606C36.2178 95.1996 36.2305 95.2283 36.5103 95.1743C36.6882 95.1399 36.866 95.0159 36.9051 94.8983C37.007 94.5934 36.6889 94.6341 36.4168 94.9606ZM39.0989 95.7706C38.7805 95.9059 38.6644 96.0322 38.7882 96.1084C38.8972 96.1754 39.2417 96.0751 39.5541 95.8854C40.1817 95.5041 39.8957 95.432 39.0989 95.7706ZM44.6383 95.6793C44.3906 95.7794 44.3832 95.8393 44.5841 96.1117C44.8559 96.4803 45.1832 96.3487 45.1832 95.8709C45.1832 95.5203 45.1022 95.492 44.6383 95.6793ZM43.9206 96.0129C43.858 96.1139 43.5844 96.2451 43.3126 96.3046C42.929 96.3885 42.8379 96.487 42.9056 96.745C42.9535 96.9277 42.9067 97.0773 42.8013 97.0773C42.6958 97.0773 42.6097 97.0004 42.6097 96.9064C42.6097 96.8124 42.4939 96.7355 42.3523 96.7355C42.2108 96.7355 42.095 96.7996 42.095 96.8778C42.095 96.9563 41.9876 97.0204 41.8564 97.0204C41.3427 97.0204 40.5749 97.4534 40.6665 97.6913C40.7175 97.8236 40.6801 97.9318 40.5835 97.9318C40.4869 97.9318 40.378 97.8422 40.3414 97.7328C40.2939 97.5908 39.8852 97.6424 38.9116 97.9135C38.1618 98.1223 36.912 98.4617 36.1339 98.6678C34.7971 99.0221 34.7195 99.0684 34.7185 99.5126C34.718 99.7712 34.7447 99.9826 34.7778 99.9826C34.811 99.9826 35.0618 99.9115 35.3354 99.8245C35.6089 99.7375 36.9523 99.3431 38.3205 98.9479C39.6888 98.5527 40.8855 98.1736 40.9798 98.1054C41.0742 98.0372 41.4192 97.8914 41.7467 97.7815C43.1697 97.3035 43.6436 97.0188 43.5427 96.7021C43.4886 96.5324 43.5212 96.3937 43.6149 96.3937C43.7088 96.3937 43.8105 96.5129 43.841 96.6586C43.8877 96.8819 43.9445 96.8883 44.2025 96.6992C44.469 96.5042 44.4779 96.4331 44.2717 96.1522C44.1207 95.9464 43.9932 95.8958 43.9206 96.0129ZM36.7764 96.7355C36.7764 96.8295 36.8536 96.9064 36.948 96.9064C37.0424 96.9064 37.1196 96.8295 37.1196 96.7355C37.1196 96.6415 37.0424 96.5646 36.948 96.5646C36.8536 96.5646 36.7764 96.6415 36.7764 96.7355ZM27.7692 96.9064C27.7019 97.0149 28.1677 97.0773 29.0458 97.0773C29.8532 97.0773 30.4285 97.0062 30.4285 96.9064C30.4285 96.8078 29.8885 96.7355 29.1518 96.7355C28.4496 96.7355 27.8275 96.8124 27.7692 96.9064ZM20.6253 97.4134C20.4024 97.5982 20.3082 97.752 20.4156 97.7552C20.5232 97.7583 20.7934 97.6096 21.0161 97.4247C21.239 97.24 21.3332 97.0862 21.2258 97.0829C21.1182 97.0798 20.848 97.2285 20.6253 97.4134ZM30.4647 97.228C30.1543 97.2861 29.9227 97.4069 29.95 97.4965C29.998 97.6546 31.0669 97.6388 31.3319 97.4761C31.4826 97.3837 31.3266 97.0658 31.1475 97.0998C31.0823 97.1121 30.775 97.1699 30.4647 97.228ZM45.6979 97.1803C45.6979 97.4797 47.0994 100.197 47.6725 101.008C49.4422 103.514 52.4381 106.574 55.1552 108.65C57.4197 110.38 60.2378 112.263 61.4791 112.875C61.9966 113.13 62.9424 113.759 63.5808 114.273C64.2194 114.787 64.7418 115.132 64.7418 115.039C64.7418 114.947 64.6607 114.821 64.5613 114.76C64.4622 114.699 64.0763 114.022 63.7038 113.255C62.8752 111.548 62.8484 111.505 61.5452 109.805C59.6694 107.357 56.725 104.845 52.0376 101.692C51.269 101.175 50.0756 100.29 49.3852 99.7262C46.5293 97.3927 45.6979 96.8187 45.6979 97.1803ZM21.121 97.6016C20.5467 97.9036 20.2623 98.2746 20.6063 98.2729C20.8574 98.2717 21.8501 97.5922 21.8501 97.4216C21.8501 97.2066 21.8915 97.1964 21.121 97.6016ZM27.855 97.572C27.3941 97.6551 27.3252 97.7086 27.5588 97.8021C27.938 97.9542 29.3991 97.7672 29.3991 97.5667C29.3991 97.4039 28.7785 97.4059 27.855 97.572ZM28.492 98.2927C28.6274 98.4277 28.8241 98.4317 29.1697 98.3062C29.6509 98.1316 29.6489 98.1295 28.9787 98.1162C28.4812 98.1063 28.3518 98.1533 28.492 98.2927ZM23.8221 101.493C23.7754 101.54 23.7374 101.685 23.7374 101.816C23.7374 102.108 24.7921 102.051 24.8896 101.755C24.9522 101.565 23.9877 101.328 23.8221 101.493ZM25.2036 101.623C25.0486 101.777 24.9498 101.931 24.984 101.965C25.1466 102.127 27.3403 101.794 27.3403 101.608C27.3403 101.271 25.5438 101.284 25.2036 101.623ZM32.4603 109.169C33.05 110.488 33.282 110.982 33.8004 112.016C35.5007 115.407 37.2532 116.879 43.1594 119.879L46.1268 121.386L47.242 120.923C47.8554 120.669 48.4519 120.37 48.5677 120.26C48.8741 119.968 47.2483 118.21 45.6691 117.126C44.5016 116.325 40.8103 114.167 40.6068 114.167C40.5574 114.167 39.7718 113.734 38.8611 113.205C36.9612 112.1 35.1225 110.85 33.6774 109.681C32.6213 108.827 32.2351 108.664 32.4603 109.169ZM64.1278 116.259C64.2513 116.874 64.6059 124.515 64.5744 125.881C64.555 126.723 64.5709 126.752 65.2893 127.163C66.2847 127.732 66.9619 127.982 67.5536 127.997C68.0464 128.01 68.0488 128.005 67.9467 127.199C66.9289 119.161 66.9893 119.387 65.1836 116.866C64.3237 115.666 63.9679 115.461 64.1278 116.259Z" fill="#A3AD7E"></path></svg> 