<?xml version="1.0" encoding="UTF-8"?> <svg xmlns="http://www.w3.org/2000/svg" width="90" height="12" viewBox="0 0 90 12" fill="none"><path fill-rule="evenodd" clip-rule="evenodd" d="M16.2015 0.372017C16.0679 0.586093 15.9587 0.990888 15.9587 1.27167C15.9587 1.67194 15.8057 1.62407 15.2492 1.04931C14.5869 0.36562 14.5165 0.35808 14.1939 0.932092C13.6877 1.83363 13.9891 2.54595 14.6162 1.9301C15.274 1.28373 15.4774 1.35835 15.9163 2.40763C16.1894 3.06079 16.2435 3.35627 16.0975 3.39849C15.3644 3.61181 15.1447 3.68984 14.7102 3.89072C14.4432 4.01434 13.988 4.20316 13.6988 4.31058C13.4097 4.41762 13.0663 4.65657 12.9358 4.84162C12.5064 5.45069 10.6473 5.87508 8.85404 5.77331C7.33527 5.68738 6.94558 5.79442 6.04872 6.54632C5.47592 7.02649 4.77147 7.36381 4.48306 7.29634C1.89028 6.68766 1.57135 6.50034 0.998687 5.2498C0.663525 4.51825 0.348479 4.1112 0.220435 4.24463C-0.0509128 4.52767 -0.0824035 7.13089 0.185615 7.13089C0.284804 7.13089 0.441148 7.33517 0.532984 7.58467C0.637861 7.8696 1.20192 8.05315 2.05203 8.07878C2.7956 8.1014 3.63725 8.15152 3.92219 8.19072L4.44047 8.26157L4.16552 9.48648C3.79568 11.1346 3.80927 11.2202 4.40982 11.0242C4.91783 10.8584 5.26645 10.0831 5.85034 7.82098C6.05039 7.04608 6.18939 6.94244 7.02951 6.94244C7.589 6.94244 8.31148 7.23604 8.78037 7.65402C9.37648 8.18582 9.78058 8.30529 10.3757 8.12702C11.6653 7.74071 12.6695 7.18478 13.1149 6.61077C14.3965 4.95884 16.496 4.06899 17.2118 4.87479C17.7558 5.48687 17.513 6.01 16.7194 5.9365C16.3259 5.89994 15.9414 6.2271 15.411 7.05023L14.66 8.21559L15.0416 8.68821C15.3298 9.04476 15.5231 9.05833 15.8297 8.74362C16.0554 8.51258 16.2362 8.48017 16.2362 8.67126C16.2362 8.86046 16.2986 9.01536 16.3749 9.01536C16.4512 9.01536 16.5136 8.69689 16.5136 8.30756C16.5136 7.35062 16.7514 6.88063 17.518 6.32358C18.0635 5.92746 18.3236 5.95159 19.1773 6.47849C19.7343 6.82184 20.7095 7.10789 21.3448 7.1143C22.9024 7.129 23.112 7.48404 22.3604 8.83521C21.8298 9.78913 21.7612 9.82682 21.5405 9.28409C21.3385 8.78772 21.2158 8.76322 20.7795 9.13447C20.4933 9.37756 20.2592 9.69717 20.2592 9.84416C20.2592 10.3503 21.1924 10.5866 21.6966 10.2086C22.0845 9.91765 22.2014 9.94026 22.2014 10.3066C22.2014 10.5685 22.3354 11.106 22.4991 11.501C22.7163 12.0249 22.7779 12.066 22.7272 11.6536C22.6887 11.3427 22.7084 10.7125 22.7709 10.2535C22.8394 9.74993 22.8279 9.32404 22.742 9.17969C22.653 9.03044 22.6905 8.66712 22.8422 8.21183C23.0285 7.65251 23.1998 7.53265 23.5795 7.69585C23.8515 7.81269 24.3239 8.00415 24.6291 8.12136C24.9343 8.23858 25.3401 8.41007 25.5308 8.50203C26.393 8.9185 29.4568 9.03948 30.5249 8.69952C31.1735 8.49298 31.7249 8.38067 31.7503 8.45002C31.7986 8.5808 31.5178 9.51777 30.9617 11.0823L30.6352 12L31.0463 11.6796C31.6348 11.2213 31.934 10.731 32.3284 9.57958C32.8722 7.99172 33.3214 7.54057 34.7826 7.11657C35.531 6.8991 36.5179 6.58062 36.9757 6.40838C38.0611 6.00096 51.17 6.02432 52.7904 6.43702C56.5265 7.3883 56.913 7.64196 57.5765 9.57958C57.9684 10.7238 58.2704 11.2213 58.844 11.6683L59.2404 11.9774L58.7899 10.503C58.5422 9.69226 58.283 9.02592 58.2139 9.02215C58.1448 9.01838 58.1917 9.32555 58.318 9.70471C58.6083 10.5765 58.6184 11.152 58.3318 10.506C58.0595 9.89164 57.7564 8.43004 57.9788 8.80354C58.0627 8.9445 58.1314 8.86196 58.1314 8.62C58.1314 8.3279 58.2596 8.2676 58.5129 8.44135C59.4351 9.0734 63.1935 8.98371 64.9289 8.28834C67.0417 7.44183 67.2239 7.60087 67.2068 10.2817C67.1963 11.954 67.207 12.0038 67.4496 11.4071C67.5893 11.0638 67.7035 10.5685 67.7035 10.3066C67.7035 9.94026 67.8204 9.91765 68.2083 10.2086C68.7124 10.5866 69.6456 10.3503 69.6456 9.84416C69.6456 9.69717 69.4116 9.37756 69.1254 9.13447C68.6944 8.76775 68.5658 8.78885 68.375 9.25809C68.1703 9.76124 68.1002 9.76124 67.7406 9.2562C67.5184 8.94376 67.2613 8.44249 67.1696 8.1421C66.9305 7.35891 67.1676 7.19684 68.5917 7.1682C69.2528 7.15501 70.2338 6.85576 70.7719 6.5026C71.5993 5.96025 71.8494 5.93312 72.392 6.32735C73.1534 6.88063 73.3912 7.35175 73.3912 8.30756C73.3912 9.10168 73.614 9.27014 73.7039 8.54424C73.7496 8.17639 73.8124 8.18582 73.9914 8.58684C74.2221 9.10394 75.1969 8.90267 75.1927 8.33883C75.1879 7.69283 73.7729 5.99869 73.2177 5.97382C72.8935 5.95912 72.512 5.82307 72.3698 5.67118C71.9034 5.17292 73.139 4.35543 73.9952 4.59552C74.8279 4.82881 76.1437 5.77783 76.79 6.61077C77.2353 7.18478 78.2396 7.74071 79.5291 8.12702C80.1243 8.30529 80.5284 8.18582 81.1245 7.65402C81.5934 7.23604 82.3159 6.94244 82.8754 6.94244C83.7155 6.94244 83.8545 7.04608 84.0545 7.82098C84.6497 10.1264 84.9808 10.8305 85.5566 11.014C86.1181 11.1927 86.1328 11.1708 85.9728 10.3899C85.8817 9.94479 85.7255 9.30218 85.6257 8.96147C85.4622 8.40328 85.5371 8.31886 86.3887 8.1029C86.9081 7.97099 87.7549 7.93518 88.2704 8.023C88.7867 8.11082 89.2444 8.02074 89.2896 7.82212C89.3347 7.62349 89.5279 7.29974 89.7191 7.10225C89.9547 6.85915 90.0397 6.5531 89.9831 6.15246C89.9372 5.82758 89.8996 5.31576 89.8996 5.01537C89.8996 3.95215 89.4984 4.0754 88.8174 5.3478C88.2149 6.47359 87.9731 6.67522 86.8983 6.94507C85.2564 7.35777 84.7649 7.27599 83.7474 6.42232C83.0558 5.8419 82.5302 5.7164 81.0661 5.78161C79.2549 5.86264 77.8955 5.53775 77.0308 4.8175C76.7818 4.60983 76.4385 4.39123 76.2678 4.33168C76.0972 4.27213 75.7337 4.10065 75.4602 3.95065C75.1866 3.80064 74.7496 3.63104 74.4891 3.57375C73.5714 3.37136 73.6056 3.42223 73.8655 2.64206C74.1932 1.65799 74.7427 1.34554 75.2135 1.87546C75.4292 2.11855 75.7121 2.20638 75.8418 2.07107C76.0557 1.84795 76.05 1.74957 75.7817 1.02066C75.51 0.282319 75.4385 0.254811 74.9096 0.685226C74.5927 0.943399 74.2463 1.24529 74.1398 1.3561C74.0274 1.47331 73.9461 1.32217 73.9461 0.996537C73.9461 0.687483 73.8056 0.33245 73.634 0.20732C73.1712 -0.129624 73.1138 -0.0889206 73.1138 0.575923C73.1138 1.038 73.2045 1.13147 73.4953 0.967897C73.7052 0.849929 73.8053 0.839754 73.7181 0.945284C73.6308 1.05044 73.5913 1.46728 73.6301 1.87132C73.6859 2.45023 73.5724 2.76418 73.0952 3.35251C72.7621 3.76333 72.3334 4.10441 72.1427 4.11044C71.8275 4.12062 70.2147 4.99917 67.6341 6.56592C66.7188 7.12147 66.5436 7.10865 64.5821 6.34356C63.4376 5.89693 62.4076 5.44579 62.2932 5.34063C62.1787 5.23548 62.4254 4.90532 62.8413 4.60682C63.4023 4.2043 63.6817 4.16811 63.923 4.46661C64.6408 5.35533 65.2887 4.66524 64.6325 3.71132C64.3507 3.30163 63.8878 3.38341 63.1315 3.97702L62.7906 4.24425L63.0949 3.19346C63.3974 2.14871 63.3944 1.47746 63.0871 1.47746C62.9124 1.47746 62.2932 3.28316 62.2932 3.79235C62.2932 4.16434 61.5438 5.0542 60.9135 5.43034C60.4946 5.68022 60.4752 5.64781 60.6162 4.93171C60.8166 3.91446 60.8073 3.73883 60.5528 3.73883C60.326 3.73883 59.6574 5.36287 59.6574 5.91389C59.6574 6.09329 60.0459 6.10422 60.5244 5.93839C61.4222 5.62745 62.5121 5.788 63.4723 6.37332C63.7775 6.55913 64.199 6.80902 64.4087 6.9285C64.9392 7.23001 64.8877 7.91935 64.3394 7.85716C64.0913 7.82927 63.233 7.89259 62.4319 7.99774C60.9367 8.19486 58.5723 7.6917 58.3578 7.13051C58.2916 6.95751 58.5101 6.65712 58.8433 6.46265C59.3321 6.17809 59.3981 6.05033 59.185 5.80384C59.0066 5.5973 58.7364 5.76351 58.3526 6.31528C57.7579 7.17121 57.4326 7.27599 56.5707 6.88892C55.8986 6.58703 55.8986 6.00397 56.5707 5.98701C57.209 5.97042 57.6705 5.31199 57.9051 4.08331L58.0828 3.15351L57.4139 3.71094C56.998 4.05768 56.7135 4.5386 56.6616 4.98221C56.5865 5.62519 56.4565 5.68286 55.3433 5.56527C54.6639 5.49366 54.1082 5.53285 54.1082 5.65232C54.1083 5.7718 53.927 5.79743 53.7055 5.70886L53.3025 5.5483L53.7402 4.42063C53.9807 3.80026 54.0764 3.37927 53.9527 3.48556C53.8289 3.59146 53.4232 3.79649 53.051 3.94122C52.6788 4.08594 52.187 4.49978 51.9581 4.86084C51.5957 5.43222 51.3176 5.48348 49.8078 5.25659C47.9937 4.98372 40.0403 5.10357 39.023 5.41903C38.6042 5.54906 38.3043 5.39755 37.9826 4.89439C37.734 4.50544 37.2497 4.07389 36.9063 3.93557C36.563 3.79687 36.1572 3.59109 36.0046 3.47802C35.7747 3.30767 35.7971 3.47425 36.1346 4.44777C36.5153 5.54605 36.4749 5.91276 36.0046 5.62858C35.9283 5.5826 35.2936 5.57092 34.5942 5.6022C33.4315 5.65496 33.3149 5.59466 33.2337 4.9008C33.1766 4.41121 32.975 4.05504 32.6659 3.8975C32.4023 3.76332 32.1523 3.50289 32.1106 3.31934C31.9225 2.49243 31.8105 3.09283 31.9837 3.99927C32.2433 5.35986 32.6863 5.96854 33.4382 5.99831C33.9298 6.01791 34.011 6.1046 33.8205 6.40611C33.6875 6.6168 33.2696 6.88854 32.892 7.0099C32.3418 7.18704 32.106 7.07134 31.7041 6.42722C31.181 5.58825 30.5249 5.35081 30.5249 6.0002C30.5249 6.20749 30.6759 6.3771 30.8604 6.3771C31.2652 6.3771 31.6348 6.73025 31.6348 7.11695C31.6348 7.45917 29.6654 8.04336 28.5134 8.04298C26.2157 8.04185 24.7624 7.5515 25.396 6.99068C26.1866 6.29078 28.4792 5.67871 29.4704 5.90258L30.4273 6.11892L30.037 4.92869C29.8223 4.2744 29.5322 3.73883 29.3923 3.73883C29.098 3.73883 29.0839 3.89184 29.2836 4.90645C29.4167 5.58184 29.3952 5.62481 29.0409 5.39189C28.227 4.85632 27.9412 4.38898 27.3811 2.67712C26.8945 1.18914 26.7885 1.01613 26.7069 1.57469C26.6496 1.96704 26.7082 2.64357 26.8507 3.23454C27.0823 4.19487 27.0816 4.22163 26.8312 3.94386C26.2853 3.33857 25.4651 3.33216 25.1847 3.93105C24.7535 4.85218 25.1717 5.32896 25.8059 4.63961C26.243 4.16435 26.407 4.16321 27.0642 4.63169C27.8738 5.20834 27.8047 5.43372 26.71 5.78537C26.3285 5.90824 25.8603 6.07784 25.6695 6.16302C23.3718 7.18592 23.3582 7.1878 22.3239 6.59984C21.7605 6.27948 21.0816 5.84379 20.8151 5.63198C20.1276 5.0851 19.8356 5.18497 20.3286 5.79818C20.69 6.24782 20.7048 6.31981 20.4412 6.34657C20.1243 6.37861 18.2924 5.30483 18.1903 5.02744C18.158 4.93962 18.5322 4.95431 19.0219 5.0606C20.208 5.31688 19.9284 5.01425 18.3469 4.32905C16.668 3.60202 15.6796 1.87131 16.5891 1.25132C16.7832 1.11903 16.9184 0.819024 16.8897 0.584595C16.8183 0.00191507 16.4946 -0.0979719 16.2015 0.372017ZM14.4068 1.35799C14.5068 1.46691 14.6266 1.45334 14.6726 1.32821C14.7187 1.20308 14.6368 1.11413 14.4906 1.13034C14.329 1.14843 14.2961 1.23776 14.4068 1.35799ZM62.7067 3.18216C62.5601 3.66195 62.5687 3.71734 62.7591 3.51872C62.8843 3.38793 62.9868 3.12977 62.9868 2.94471C62.9868 2.46002 62.9065 2.52824 62.7067 3.18216ZM27.1262 3.36193C27.1733 3.56923 27.2394 3.73883 27.2731 3.73883C27.3068 3.73883 27.3343 3.56923 27.3343 3.36193C27.3343 3.15464 27.2681 2.98504 27.1873 2.98504C27.1066 2.98504 27.079 3.15464 27.1262 3.36193ZM32.4932 4.51636C32.5265 4.7881 32.6358 5.08509 32.736 5.17593C32.84 5.27015 32.892 5.12881 32.8573 4.84614C32.8239 4.57402 32.7146 4.27703 32.6146 4.18658C32.5105 4.09235 32.4585 4.23369 32.4932 4.51636ZM57.1603 4.68107C56.9729 5.29465 57.0177 5.37154 57.357 5.01764C57.4777 4.89175 57.5765 4.63735 57.5765 4.45229C57.5765 3.93105 57.3517 4.05467 57.1603 4.68107ZM29.6232 5.24641C29.6704 5.4537 29.7714 5.62331 29.8477 5.62331C29.924 5.62331 29.9478 5.4537 29.9007 5.24641C29.8535 5.03912 29.7525 4.86951 29.6762 4.86951C29.5999 4.86951 29.5761 5.03912 29.6232 5.24641ZM60.0735 5.24641C60.0735 5.4537 60.136 5.62331 60.2123 5.62331C60.2886 5.62331 60.351 5.4537 60.351 5.24641C60.351 5.03912 60.2886 4.86951 60.2123 4.86951C60.136 4.86951 60.0735 5.03912 60.0735 5.24641ZM70.4086 5.31877C69.5684 5.68021 69.0422 6.3771 69.6093 6.3771C69.9364 6.3771 71.7601 5.2807 71.853 5.02818C71.9392 4.79451 71.3532 4.9121 70.4086 5.31877ZM34.7561 6.37973C34.5775 6.59004 34.726 6.62886 35.1723 6.48865C35.5538 6.3688 35.892 6.21013 35.9237 6.13551C36.044 5.85397 35.0212 6.06766 34.7561 6.37973ZM54.4898 6.2497C54.5853 6.35448 54.7413 6.35448 54.8366 6.2497C54.9321 6.1453 54.854 6.05975 54.6632 6.05975C54.4725 6.05975 54.3945 6.1453 54.4898 6.2497ZM24.2493 7.39735C24.4218 7.48743 24.6715 7.48404 24.8042 7.38982C24.9368 7.29559 24.7956 7.22172 24.4904 7.22587C24.1852 7.23002 24.0767 7.30727 24.2493 7.39735ZM65.1024 7.39057C65.2358 7.48554 65.4544 7.48554 65.5879 7.39057C65.7213 7.29596 65.6122 7.21832 65.3451 7.21832C65.0781 7.21832 64.9689 7.29596 65.1024 7.39057ZM15.2651 8.28381C15.2651 8.50316 15.3275 8.57816 15.4038 8.45002C15.4801 8.32188 15.5426 8.14248 15.5426 8.05089C15.5426 7.95931 15.4801 7.88468 15.4038 7.88468C15.3275 7.88468 15.2651 8.06445 15.2651 8.28381ZM4.49929 9.1714C4.35793 10.1721 4.67339 10.8162 4.94433 10.0801C5.11482 9.61727 5.1255 9.41562 4.99122 9.19024C4.87177 8.98935 4.8493 9.06361 4.91894 9.42806C4.97443 9.7194 4.92338 9.6346 4.80546 9.24036C4.60653 8.57514 4.58419 8.57025 4.49929 9.1714ZM31.8148 9.10055C31.5211 10.1306 31.4798 10.5162 31.6862 10.301C31.8889 10.0895 32.1063 9.04024 32.0046 8.76398C31.9755 8.68483 31.8901 8.83634 31.8148 9.10055ZM85.076 9.39377C84.8916 10.1958 85.0425 10.6458 85.3785 10.2953C85.6458 10.0168 85.6593 9.62028 85.42 9.08057C85.2871 8.78131 85.1983 8.86197 85.076 9.39377Z" fill="#A3AD7E"></path></svg> 