<?xml version="1.0" encoding="UTF-8"?> <svg xmlns="http://www.w3.org/2000/svg" width="202" height="71" viewBox="0 0 202 71" fill="none"><path d="M22.605 36.6852C24.6217 36.0619 26.675 35.0902 28.765 33.7702C30.8917 32.4502 32.89 30.9285 34.76 29.2052C36.63 27.4819 38.3167 25.6119 39.82 23.5952C41.3234 21.5785 42.4784 19.5619 43.285 17.5452C43.5417 16.9585 43.78 16.2619 44 15.4552C44.2567 14.6119 44.4584 13.7502 44.605 12.8702C44.7884 11.9902 44.935 11.1285 45.045 10.2852C45.155 9.44186 45.21 8.70853 45.21 8.08519C45.21 7.02186 45.1184 6.05019 44.935 5.17019C44.7517 4.25353 44.4217 3.46519 43.945 2.80519C43.505 2.14519 42.9 1.63186 42.13 1.26519C41.36 0.86186 40.3884 0.660194 39.215 0.660194C37.5284 0.660194 35.8967 0.91686 34.32 1.43019C32.7434 1.94353 31.35 2.64019 30.14 3.52019C28.93 4.36353 27.9584 5.37186 27.225 6.54519C26.4917 7.68186 26.125 8.87353 26.125 10.1202C26.125 10.8535 26.2534 11.4952 26.51 12.0452C26.8034 12.5585 27.17 12.9802 27.61 13.3102C28.0867 13.6402 28.6 13.8969 29.15 14.0802C29.7367 14.2269 30.3417 14.3002 30.965 14.3002C32.2117 14.3002 33.3667 14.0802 34.43 13.6402C35.4934 13.2002 36.4284 12.6319 37.235 11.9352C38.0417 11.2019 38.7017 10.3769 39.215 9.46019C39.7284 8.50686 40.0584 7.53519 40.205 6.54519L40.81 6.65519C40.7367 7.49853 40.4617 8.41519 39.985 9.40519C39.5084 10.3585 38.83 11.2569 37.95 12.1002C37.1067 12.9069 36.0984 13.5852 34.925 14.1352C33.7517 14.6852 32.45 14.9602 31.02 14.9602C30.2867 14.9602 29.5717 14.8685 28.875 14.6852C28.215 14.4652 27.61 14.1535 27.06 13.7502C26.5467 13.3469 26.125 12.8519 25.795 12.2652C25.465 11.6785 25.3 10.9819 25.3 10.1752C25.3 8.92853 25.6484 7.70019 26.345 6.49019C27.0784 5.28019 28.0684 4.19853 29.315 3.24519C30.5984 2.25519 32.0834 1.46686 33.77 0.880194C35.4567 0.293526 37.2717 0.000192165 39.215 0.000192165C41.9284 0.000192165 44.1284 0.733526 45.815 2.20019C47.5384 3.66686 48.4 5.90353 48.4 8.9102C48.4 9.20353 48.3634 9.71686 48.29 10.4502C48.2167 11.1469 48.1617 11.6419 48.125 11.9352C47.685 14.7219 46.7134 17.5085 45.21 20.2952C43.7434 23.0452 41.855 25.6119 39.545 27.9952C37.235 30.3419 34.595 32.4135 31.625 34.2102C28.6917 36.0069 25.5567 37.3269 22.22 38.1702C21.7067 39.8202 20.8267 41.3969 19.58 42.9002C18.37 44.4402 16.9034 45.7785 15.18 46.9152C13.4934 48.0885 11.605 49.0052 9.51503 49.6652C7.4617 50.3619 5.35337 50.7102 3.19003 50.7102V49.9952C5.2067 49.9952 7.1867 49.6835 9.13003 49.0602C11.0734 48.4369 12.8517 47.5935 14.465 46.5302C16.115 45.4669 17.5267 44.2202 18.7 42.7902C19.91 41.3969 20.7717 39.9302 21.285 38.3902C19.0117 38.9402 16.7017 39.2152 14.355 39.2152C12.265 39.2152 10.34 39.0319 8.58003 38.6652C6.82003 38.2985 5.29837 37.7669 4.01503 37.0702C2.76837 36.3369 1.7967 35.4202 1.10003 34.3202C0.366701 33.2202 3.41535e-05 31.9369 3.41535e-05 30.4702C3.41535e-05 29.1869 0.275034 28.0135 0.825034 26.9502C1.37503 25.8502 2.1267 24.9152 3.08003 24.1452C4.03337 23.3752 5.13337 22.7702 6.38003 22.3302C7.66337 21.8902 9.03837 21.6702 10.505 21.6702C12.6684 21.6702 14.5384 21.9819 16.115 22.6052C17.6917 23.2285 18.975 24.0902 19.965 25.1902C20.9917 26.2535 21.7434 27.5002 22.22 28.9302C22.7334 30.3235 22.99 31.7902 22.99 33.3302C22.99 33.8802 22.9534 34.4485 22.88 35.0352C22.8067 35.5852 22.715 36.1352 22.605 36.6852ZM14.41 38.5002C15.62 38.5002 16.8484 38.3719 18.095 38.1152C19.3784 37.8585 20.5884 37.5102 21.725 37.0702C22.0184 35.7135 22.165 34.4485 22.165 33.2752C22.165 31.8452 21.945 30.4702 21.505 29.1502C21.065 27.8302 20.3684 26.6752 19.415 25.6852C18.4617 24.6585 17.2517 23.8519 15.785 23.2652C14.3184 22.6419 12.5584 22.3302 10.505 22.3302C9.5517 22.3302 8.5067 22.4952 7.37003 22.8252C6.27003 23.1552 5.24337 23.6502 4.29003 24.3102C3.3367 24.9702 2.54837 25.7952 1.92503 26.7852C1.3017 27.7385 0.990034 28.8752 0.990034 30.1952C0.990034 31.5885 1.33837 32.8169 2.03503 33.8802C2.69503 34.9069 3.6117 35.7685 4.78503 36.4652C5.99503 37.1619 7.4067 37.6752 9.02003 38.0052C10.67 38.3352 12.4667 38.5002 14.41 38.5002ZM39.655 37.4552C40.3517 37.2352 41.03 36.7219 41.69 35.9152C42.35 35.0719 42.9917 34.1002 43.615 33.0002C44.2384 31.9002 44.8434 30.7452 45.43 29.5352C46.0534 28.3252 46.64 27.2435 47.19 26.2902C45.9067 27.6102 44.7517 28.9302 43.725 30.2502C42.6984 31.5702 41.8367 32.7619 41.14 33.8252C40.48 34.8519 40.0034 35.7135 39.71 36.4102C39.4534 37.0702 39.435 37.4185 39.655 37.4552ZM63.965 2.69519C63.4884 2.76853 62.9567 3.06186 62.37 3.5752C61.82 4.08853 61.2517 4.73019 60.665 5.50019C60.0784 6.27019 59.4917 7.11353 58.905 8.03019C58.355 8.94686 57.8417 9.84519 57.365 10.7252C58.135 10.1385 58.905 9.47853 59.675 8.74519C60.445 7.97519 61.1234 7.22353 61.71 6.49019C62.3334 5.75686 62.8467 5.06019 63.25 4.40019C63.6534 3.70353 63.8917 3.13519 63.965 2.69519ZM55.11 12.1552C56.1367 10.4685 57.1817 8.78186 58.245 7.09519C59.345 5.37186 60.6467 3.96019 62.15 2.86019C62.4434 2.64019 62.755 2.45686 63.085 2.3102C63.4517 2.16353 63.8 2.05353 64.13 1.98019C64.5334 2.16353 64.68 2.58519 64.57 3.24519C64.4967 3.90519 64.1667 4.69353 63.58 5.6102C62.9934 6.52686 62.15 7.53519 61.05 8.63519C59.9867 9.73519 58.685 10.8169 57.145 11.8802C56.595 12.8335 56.1734 13.6035 55.88 14.1902C55.5867 14.7402 55.275 15.3269 54.945 15.9502C54.6517 16.5369 54.3034 17.2519 53.9 18.0952C53.5334 18.9019 53.0017 20.0202 52.305 21.4502C53.1117 20.8635 54.0284 20.1669 55.055 19.3602C56.1184 18.5535 57.2 17.7285 58.3 16.8852C59.4 16.0052 60.4634 15.1069 61.49 14.1902C62.5534 13.2735 63.4884 12.3935 64.295 11.5502C65.1384 10.6702 65.7984 9.86353 66.275 9.13019C66.7884 8.36019 67.0267 7.70019 66.99 7.1502L66.715 6.93019C66.5317 6.85686 66.3484 6.93019 66.165 7.1502C66.0184 7.33353 65.89 7.59019 65.78 7.9202C65.7067 8.2502 65.6884 8.61686 65.725 9.02019C65.7617 9.38686 65.9084 9.71686 66.165 10.0102C66.5317 10.6335 67.045 11.1285 67.705 11.4952C68.365 11.8619 69.08 12.1552 69.85 12.3752C70.6567 12.5952 71.5 12.7419 72.38 12.8152C73.26 12.8519 74.085 12.8519 74.855 12.8152C76.835 12.8152 78.76 12.6685 80.63 12.3752C82.5 12.0452 84.15 11.6235 85.58 11.1102C87.0467 10.5602 88.22 9.95519 89.1 9.29519C89.98 8.63519 90.42 7.93853 90.42 7.20519C90.42 6.72853 90.2734 6.32519 89.98 5.99519C89.6867 5.66519 89.32 5.40853 88.88 5.22519C88.44 5.00519 87.9634 4.85853 87.45 4.78519C86.9367 4.67519 86.4417 4.62019 85.965 4.62019C84.6817 4.62019 83.3617 4.84019 82.005 5.28019C80.685 5.72019 79.365 6.32519 78.045 7.09519C76.725 7.82853 75.4234 8.70853 74.14 9.73519C72.8567 10.7252 71.6467 11.7702 70.51 12.8702C68.7134 14.7035 67.045 16.6835 65.505 18.8102C64.0017 20.9002 62.6817 22.9719 61.545 25.0252C60.445 27.0785 59.5834 29.0402 58.96 30.9102C58.3367 32.7435 58.025 34.3202 58.025 35.6402C58.025 36.6669 58.2084 37.4002 58.575 37.8402C58.9784 38.2802 59.5284 38.5002 60.225 38.5002C61.985 38.5002 63.745 37.8035 65.505 36.4102C67.265 34.9802 69.2084 33.0369 71.335 30.5802L71.665 30.9102C70.675 32.1569 69.6484 33.3119 68.585 34.3752C67.5584 35.4385 66.5134 36.3735 65.45 37.1802C64.3867 37.9502 63.3234 38.5552 62.26 38.9952C61.1967 39.4352 60.1517 39.6552 59.125 39.6552C58.575 39.6552 58.0434 39.5819 57.53 39.4352C57.0167 39.2885 56.54 39.0319 56.1 38.6652C55.6967 38.2985 55.3667 37.8035 55.11 37.1802C54.8534 36.5569 54.725 35.7869 54.725 34.8702C54.725 33.7702 54.9817 32.5052 55.495 31.0752C56.0084 29.6452 56.6317 28.1785 57.365 26.6752C58.135 25.1352 58.96 23.6502 59.84 22.2202C60.72 20.7902 61.5267 19.5435 62.26 18.4802C63.8367 16.1702 65.5417 14.0802 67.375 12.2102C69.905 9.71686 72.7284 7.71853 75.845 6.21519C78.9617 4.71186 82.2984 3.96019 85.855 3.96019C86.405 3.96019 86.9734 4.01519 87.56 4.12519C88.1834 4.23519 88.7517 4.41853 89.265 4.67519C89.815 4.93186 90.255 5.28019 90.585 5.72019C90.9517 6.12353 91.135 6.63686 91.135 7.26019C91.135 8.10353 90.6767 8.89186 89.76 9.62519C88.88 10.3585 87.6884 11.0002 86.185 11.5502C84.7184 12.1002 83.05 12.5402 81.18 12.8702C79.31 13.2002 77.4217 13.3652 75.515 13.3652C73.4617 13.5119 71.7567 13.4569 70.4 13.2002C69.08 12.9069 68.0167 12.5035 67.21 11.9902C66.4034 11.4402 65.835 10.8352 65.505 10.1752C65.2117 9.5152 65.0834 8.89186 65.12 8.30519C65.1567 7.86519 65.2667 7.4802 65.45 7.1502C65.67 6.8202 65.9084 6.58186 66.165 6.43519C66.4584 6.28853 66.7334 6.27019 66.99 6.3802C67.2467 6.49019 67.43 6.74686 67.54 7.1502C67.65 7.62686 67.5034 8.21353 67.1 8.9102C66.6967 9.60686 66.11 10.3769 65.34 11.2202C64.6067 12.0635 63.7267 12.9802 62.7 13.9702C61.6734 14.9235 60.555 15.9135 59.345 16.9402C58.135 17.9302 56.87 18.9202 55.55 19.9102C54.23 20.9002 52.8917 21.8535 51.535 22.7702C50.8384 24.0535 50.105 25.3735 49.335 26.7302C48.565 28.0869 47.7767 29.4069 46.97 30.6902C46.1634 31.9369 45.3384 33.1285 44.495 34.2652C43.6517 35.3652 42.8084 36.3002 41.965 37.0702C41.6717 37.3269 41.3234 37.5652 40.92 37.7852C40.5534 37.9685 40.205 38.0969 39.875 38.1702C38.995 38.0969 38.665 37.5835 38.885 36.6302C39.1417 35.6402 39.71 34.4669 40.59 33.1102C41.5067 31.7535 42.625 30.3235 43.945 28.8202C45.3017 27.2802 46.6584 25.9235 48.015 24.7502C49.115 22.7702 50.1784 20.8635 51.205 19.0302C52.2317 17.1969 53.295 15.3085 54.395 13.3652C53.0017 14.5752 51.3517 15.7119 49.445 16.7752C47.575 17.8385 45.5584 18.8835 43.395 19.9102C41.2317 20.9369 38.995 22.0002 36.685 23.1002C34.375 24.1635 32.1017 25.3369 29.865 26.6202C27.6284 27.8669 25.4834 29.2419 23.43 30.7452C21.4134 32.2485 19.5984 33.9535 17.985 35.8602C16.9584 37.5102 16.1334 39.1785 15.51 40.8652C14.9234 42.5519 14.63 44.4402 14.63 46.5302C14.63 48.9135 15.0517 50.9852 15.895 52.7452C16.7384 54.5052 17.9117 55.9535 19.415 57.0902C20.9184 58.2635 22.6967 59.1252 24.75 59.6752C26.8034 60.2619 29.0217 60.5552 31.405 60.5552C33.825 60.5552 36.2817 60.1519 38.775 59.3452C41.2684 58.5752 43.5234 57.4752 45.54 56.0452C47.5934 54.6152 49.2617 52.8919 50.545 50.8752C51.8284 48.8585 52.47 46.6035 52.47 44.1102C52.47 42.5335 52.195 41.1769 51.645 40.0402C51.1317 38.9035 50.435 37.9685 49.555 37.2352C48.7117 36.5019 47.7217 35.9702 46.585 35.6402C45.485 35.2735 44.3484 35.0902 43.175 35.0902C41.415 35.0902 39.6 35.4019 37.73 36.0252C35.8967 36.6119 34.21 37.4185 32.67 38.4452C31.1667 39.5085 29.92 40.7552 28.93 42.1852C27.9767 43.6152 27.5 45.1552 27.5 46.8052C27.5 48.0885 27.9034 49.1335 28.71 49.9402C29.5167 50.7469 30.7267 51.1502 32.34 51.1502C32.8534 51.1502 33.44 51.0585 34.1 50.8752L34.21 51.3152C33.88 51.4252 33.5134 51.4985 33.11 51.5352C32.7067 51.5719 32.395 51.5902 32.175 51.5902C30.4884 51.5902 29.1317 51.1685 28.105 50.3252C27.115 49.5185 26.62 48.3452 26.62 46.8052C26.62 45.0452 27.1517 43.4135 28.215 41.9102C29.315 40.4435 30.6717 39.1602 32.285 38.0602C33.935 36.9969 35.7134 36.1719 37.62 35.5852C39.5634 34.9619 41.3967 34.6502 43.12 34.6502C44.44 34.6502 45.76 34.8335 47.08 35.2002C48.4 35.5669 49.5734 36.1352 50.6 36.9052C51.6634 37.6385 52.5067 38.5919 53.13 39.7652C53.79 40.9385 54.12 42.3502 54.12 44.0002C54.12 45.5402 53.8084 47.0435 53.185 48.5102C52.5617 49.9769 51.7 51.3519 50.6 52.6352C49.5367 53.9185 48.2717 55.0919 46.805 56.1552C45.375 57.2185 43.8167 58.1352 42.13 58.9052C40.48 59.6752 38.7567 60.2619 36.96 60.6652C35.1634 61.1052 33.4034 61.3252 31.68 61.3252C28.9667 61.3252 26.4184 61.0135 24.035 60.3902C21.6884 59.7669 19.635 58.8319 17.875 57.5852C16.1517 56.3385 14.7767 54.7985 13.75 52.9652C12.76 51.1685 12.265 49.0602 12.265 46.6402C12.265 45.5769 12.4117 44.5319 12.705 43.5052C13.035 42.4785 13.4384 41.4702 13.915 40.4802C14.4284 39.5269 14.9784 38.5919 15.565 37.6752C16.1884 36.7585 16.7934 35.8785 17.38 35.0352C19.1767 33.0919 20.9734 31.4602 22.77 30.1402C24.5667 28.7835 26.4184 27.5735 28.325 26.5102C30.2317 25.4469 32.1934 24.4752 34.21 23.5952C36.2267 22.6785 38.335 21.6885 40.535 20.6252C42.7717 19.5619 45.1184 18.3519 47.575 16.9952C50.0317 15.6385 52.635 13.9885 55.385 12.0452L55.11 12.1552ZM81.1912 42.1852C82.1445 41.4152 83.0245 40.6635 83.8312 39.9302C84.6745 39.1969 85.4812 38.4452 86.2512 37.6752C87.0212 36.8685 87.8095 36.0069 88.6162 35.0902C89.4229 34.1735 90.3029 33.1652 91.2562 32.0652L91.6412 32.3402C90.3579 33.8802 89.2212 35.2002 88.2312 36.3002C87.2779 37.3635 86.3795 38.2985 85.5362 39.1052C84.6929 39.9485 83.8679 40.7002 83.0612 41.3602C82.2545 42.0569 81.3745 42.7902 80.4212 43.5602C77.6712 48.8035 74.9945 53.2952 72.3912 57.0352C69.7879 60.8119 67.0012 63.9835 64.0312 66.5502C62.7479 67.6502 61.4462 68.5302 60.1262 69.1902C58.7695 69.8869 57.5045 70.2352 56.3312 70.2352C55.4145 70.2352 54.7362 69.9785 54.2962 69.4652C53.8562 68.9885 53.6362 68.3835 53.6362 67.6502C53.6362 65.8535 54.3879 63.9285 55.8912 61.8752C57.3579 59.8219 59.2462 57.7502 61.5562 55.6602C63.8295 53.5702 66.3595 51.5352 69.1462 49.5552C71.9329 47.5752 74.6462 45.7602 77.2862 44.1102C77.8362 43.2302 78.2945 42.4419 78.6612 41.7452C79.0645 41.0852 79.4495 40.4252 79.8162 39.7652C80.1829 39.1052 80.5862 38.3902 81.0262 37.6202C81.4662 36.8502 81.9979 35.9152 82.6212 34.8152H82.5662C81.6129 35.8785 80.6412 36.7219 79.6512 37.3452C78.6612 37.9319 77.6712 38.2252 76.6812 38.2252C75.5812 38.2252 74.8295 37.9869 74.4262 37.5102C74.0595 37.0335 73.8762 36.5019 73.8762 35.9152C73.8762 34.9252 74.1512 33.8985 74.7012 32.8352C75.2879 31.7719 76.0395 30.8002 76.9562 29.9202C77.8729 29.0402 78.8995 28.3252 80.0362 27.7752C81.1729 27.2252 82.3095 26.9502 83.4462 26.9502C84.3995 26.9502 85.0962 27.1335 85.5362 27.5002C85.9762 27.8302 86.2879 28.2152 86.4712 28.6552L86.8012 28.1602C86.9845 27.8669 87.2045 27.6285 87.4612 27.4452C87.7545 27.2252 88.1029 27.1152 88.5062 27.1152H89.3312C89.6245 27.1152 89.7712 27.2252 89.7712 27.4452C89.7712 27.4819 89.7529 27.5369 89.7162 27.6102C89.7162 27.6835 89.6795 27.7935 89.6062 27.9402C88.2129 30.3602 86.8195 32.7435 85.4262 35.0902C84.0695 37.4002 82.6579 39.7652 81.1912 42.1852ZM76.7362 45.2652C72.5929 47.8319 69.2012 50.2335 66.5612 52.4702C63.9212 54.7069 61.8679 56.7602 60.4012 58.6302C58.8979 60.5369 57.8712 62.2602 57.3212 63.8002C56.7712 65.3402 56.4962 66.6785 56.4962 67.8152C56.4962 68.2552 56.5879 68.6035 56.7712 68.8602C56.9179 69.1535 57.1929 69.3002 57.5962 69.3002C58.4395 69.3002 59.4295 68.8419 60.5662 67.9252C61.6662 67.0085 62.8395 65.8169 64.0862 64.3502C65.2962 62.9202 66.5245 61.3069 67.7712 59.5102C69.0179 57.7135 70.2095 55.9169 71.3462 54.1202C72.4829 52.3602 73.5095 50.6919 74.4262 49.1152C75.3795 47.5385 76.1495 46.2552 76.7362 45.2652ZM83.7762 27.5552C82.9695 27.5552 82.1262 27.8852 81.2462 28.5452C80.4029 29.2052 79.6145 29.9935 78.8812 30.9102C78.1845 31.7902 77.5979 32.7252 77.1212 33.7152C76.6445 34.7052 76.4062 35.5302 76.4062 36.1902C76.4062 36.4469 76.4612 36.7402 76.5712 37.0702C76.6812 37.3635 77.0295 37.5102 77.6162 37.5102C78.0929 37.5102 78.6062 37.3452 79.1562 37.0152C79.7429 36.6852 80.3112 36.2635 80.8612 35.7502C81.4112 35.2369 81.9429 34.6685 82.4562 34.0452C83.0062 33.4219 83.5012 32.7985 83.9412 32.1752C84.3445 31.5885 84.6929 31.0385 84.9862 30.5252C85.2795 30.0119 85.4262 29.4802 85.4262 28.9302C85.3895 28.4169 85.2062 28.0685 84.8762 27.8852C84.5462 27.6652 84.1795 27.5552 83.7762 27.5552ZM93.3432 33.6052C94.5532 33.3852 95.5432 33.0735 96.3132 32.6702C97.0832 32.2669 97.6882 31.8452 98.1282 31.4052C98.5682 30.9285 98.8615 30.4702 99.0082 30.0302C99.1915 29.5535 99.2832 29.1319 99.2832 28.7652C99.2832 28.3619 99.1915 28.1052 99.0082 27.9952C98.8249 27.8485 98.6049 27.7752 98.3482 27.7752C97.5415 27.7752 96.6982 28.3435 95.8182 29.4802C94.9382 30.5802 94.1132 31.9552 93.3432 33.6052ZM94.6082 37.4552C94.9749 37.4552 95.3782 37.4185 95.8182 37.3452C96.2949 37.2719 96.8632 37.0519 97.5232 36.6852C98.1832 36.3185 98.9349 35.7502 99.7782 34.9802C100.658 34.2102 101.703 33.1285 102.913 31.7352L103.298 32.0102C102.088 33.4402 101.007 34.5769 100.053 35.4202C99.1365 36.2269 98.2932 36.8502 97.5232 37.2902C96.7532 37.6935 96.0382 37.9502 95.3782 38.0602C94.7549 38.2069 94.1315 38.2802 93.5082 38.2802C92.1515 38.2802 91.2532 37.9869 90.8132 37.4002C90.3732 36.7769 90.1532 36.1535 90.1532 35.5302C90.1532 34.5402 90.3915 33.5502 90.8682 32.5602C91.3815 31.5335 92.0415 30.6169 92.8482 29.8102C93.6915 28.9669 94.6265 28.2885 95.6532 27.7752C96.6799 27.2252 97.7432 26.9502 98.8432 26.9502C99.9432 26.9502 100.658 27.1702 100.988 27.6102C101.318 28.0135 101.483 28.4169 101.483 28.8202C101.483 29.5902 101.208 30.2869 100.658 30.9102C100.145 31.4969 99.4849 32.0102 98.6782 32.4502C97.8715 32.8535 96.9732 33.2019 95.9832 33.4952C94.9932 33.7519 94.0582 33.9535 93.1782 34.1002C93.0682 34.3202 92.9765 34.6135 92.9032 34.9802C92.8299 35.3102 92.7932 35.6219 92.7932 35.9152C92.7932 36.4285 92.9582 36.8135 93.2882 37.0702C93.6549 37.3269 94.0949 37.4552 94.6082 37.4552ZM118.757 38.1702C118.134 38.1702 117.602 38.0419 117.162 37.7852C116.759 37.4919 116.557 37.0519 116.557 36.4652C116.557 35.9152 116.722 35.2735 117.052 34.5402C117.419 33.7702 117.841 33.0185 118.317 32.2852C118.794 31.5152 119.271 30.8185 119.747 30.1952C120.224 29.5352 120.609 29.0402 120.902 28.7102L120.847 28.6552C120.334 28.8385 119.784 29.3152 119.197 30.0852C118.647 30.8552 118.042 31.6619 117.382 32.5052C116.869 33.1652 116.374 33.8252 115.897 34.4852C115.457 35.1085 114.981 35.6769 114.467 36.1902C113.954 36.7035 113.404 37.1252 112.817 37.4552C112.267 37.7852 111.662 37.9502 111.002 37.9502C109.792 37.9502 109.187 37.4735 109.187 36.5202C109.187 36.1169 109.389 35.5485 109.792 34.8152C110.196 34.0452 110.672 33.2569 111.222 32.4502C111.809 31.6069 112.396 30.8002 112.982 30.0302C113.606 29.2602 114.101 28.6552 114.467 28.2152L114.412 28.1602C114.009 28.2335 113.514 28.5635 112.927 29.1502C112.377 29.7002 111.772 30.3419 111.112 31.0752C110.452 31.8085 109.774 32.5785 109.077 33.3852C108.417 34.1919 107.757 34.8885 107.097 35.4752C105.924 36.5385 104.916 37.2902 104.072 37.7302C103.266 38.1335 102.441 38.3352 101.597 38.3352C100.864 38.3352 100.296 38.1702 99.8925 37.8402C99.4892 37.4735 99.2875 36.9602 99.2875 36.3002C99.2875 35.5302 99.5075 34.7969 99.9475 34.1002C100.351 33.3669 100.846 32.8352 101.432 32.5052C102.019 32.1385 102.624 32.0102 103.247 32.1202C103.907 32.1935 104.274 32.6885 104.347 33.6052C104.384 33.9352 104.219 34.3019 103.852 34.7052C103.486 35.1085 103.137 35.3102 102.807 35.3102C102.441 35.3102 102.184 35.1819 102.037 34.9252C101.927 34.6319 101.726 34.4669 101.432 34.4302C101.249 34.4302 100.956 34.5952 100.552 34.9252C100.186 35.2552 100.002 35.7319 100.002 36.3552C100.002 36.6852 100.131 37.0335 100.387 37.4002C100.644 37.7302 101.029 37.8952 101.542 37.8952C101.909 37.8952 102.257 37.8585 102.587 37.7852C102.954 37.6752 103.339 37.5102 103.742 37.2902C104.146 37.0702 104.604 36.7769 105.117 36.4102C105.631 36.0069 106.217 35.4935 106.877 34.8702C107.794 34.0635 108.619 33.2019 109.352 32.2852C110.086 31.3319 110.801 30.4519 111.497 29.6452C112.231 28.8385 112.964 28.1785 113.697 27.6652C114.467 27.1152 115.329 26.8402 116.282 26.8402C116.906 26.8402 117.217 27.0602 117.217 27.5002C117.217 27.7569 117.071 28.1419 116.777 28.6552C116.521 29.1685 116.191 29.7369 115.787 30.3602C115.384 30.9835 114.926 31.6252 114.412 32.2852C113.936 32.9452 113.496 33.5685 113.092 34.1552C112.689 34.7419 112.341 35.2552 112.047 35.6952C111.791 36.1352 111.662 36.4469 111.662 36.6302C111.662 36.8502 111.772 36.9602 111.992 36.9602C112.689 36.9602 113.404 36.5569 114.137 35.7502C114.871 34.9069 115.916 33.5685 117.272 31.7352C117.712 31.1485 118.152 30.5619 118.592 29.9752C119.032 29.3885 119.491 28.8752 119.967 28.4352C120.444 27.9585 120.957 27.5735 121.507 27.2802C122.057 26.9869 122.681 26.8402 123.377 26.8402C124.001 26.8402 124.312 27.0602 124.312 27.5002C124.312 27.9035 124.037 28.5085 123.487 29.3152C122.974 30.1219 122.387 30.9835 121.727 31.9002C121.067 32.7802 120.462 33.6602 119.912 34.5402C119.399 35.3835 119.142 36.0619 119.142 36.5752C119.142 36.9785 119.381 37.1802 119.857 37.1802C120.811 37.1802 121.727 36.7769 122.607 35.9702C123.487 35.1269 124.679 33.8252 126.182 32.0652L126.567 32.3402C125.981 33.0369 125.394 33.7335 124.807 34.4302C124.257 35.1269 123.671 35.7502 123.047 36.3002C122.424 36.8502 121.764 37.3085 121.067 37.6752C120.371 38.0052 119.582 38.1702 118.702 38.1702H118.757ZM142.594 25.9052C141.641 27.2985 140.871 28.6002 140.284 29.8102C139.698 31.0202 139.239 32.0835 138.909 33.0002C138.579 33.8802 138.341 34.6135 138.194 35.2002C138.084 35.7869 138.029 36.1535 138.029 36.3002C138.029 37.2535 138.543 37.7302 139.569 37.7302C140.229 37.7302 140.926 37.4919 141.659 37.0152C142.429 36.5385 143.126 35.9519 143.749 35.2552C144.409 34.5219 144.941 33.7519 145.344 32.9452C145.784 32.1019 146.041 31.3502 146.114 30.6902C146.078 30.3235 145.986 30.0669 145.839 29.9202C145.693 29.7735 145.528 29.6635 145.344 29.5902C145.198 29.4802 145.051 29.3702 144.904 29.2602C144.758 29.1502 144.684 28.9302 144.684 28.6002C144.684 28.1602 144.886 27.7569 145.289 27.3902C145.693 27.0235 146.169 26.8402 146.719 26.8402C147.343 26.8402 147.838 27.0602 148.204 27.5002C148.571 27.9035 148.754 28.4169 148.754 29.0402C148.754 30.1769 148.443 31.3135 147.819 32.4502C147.196 33.5502 146.389 34.5402 145.399 35.4202C144.446 36.3002 143.383 37.0152 142.209 37.5652C141.036 38.0785 139.918 38.3352 138.854 38.3352C137.461 38.3352 136.563 38.0785 136.159 37.5652C135.756 37.0152 135.554 36.3735 135.554 35.6402C135.554 34.6135 135.921 33.2569 136.654 31.5702C137.424 29.8469 138.414 28.0135 139.624 26.0702C140.871 24.1269 142.264 22.1469 143.804 20.1302C145.381 18.1135 146.958 16.2985 148.534 14.6852C150.148 13.0719 151.706 11.7519 153.209 10.7252C154.713 9.69853 156.014 9.1852 157.114 9.1852C157.774 9.1852 158.343 9.3502 158.819 9.6802C159.296 10.0102 159.534 10.5235 159.534 11.2202C159.534 12.0269 159.131 13.0902 158.324 14.4102C157.518 15.6935 156.381 17.0502 154.914 18.4802C153.448 19.8735 151.669 21.2485 149.579 22.6052C147.489 23.9252 145.161 25.0252 142.594 25.9052ZM155.354 10.4502C154.621 10.4502 153.741 10.9269 152.714 11.8802C151.724 12.8335 150.661 14.0435 149.524 15.5102C148.424 16.9769 147.306 18.5719 146.169 20.2952C145.033 22.0185 143.969 23.6502 142.979 25.1902L143.034 25.2452C145.381 24.4019 147.416 23.3752 149.139 22.1652C150.863 20.9552 152.293 19.7269 153.429 18.4802C154.566 17.1969 155.409 15.9685 155.959 14.7952C156.546 13.5852 156.839 12.5952 156.839 11.8252C156.839 11.4585 156.711 11.1469 156.454 10.8902C156.234 10.5969 155.868 10.4502 155.354 10.4502ZM159.512 27.5552C158.706 27.5552 157.881 27.8852 157.037 28.5452C156.194 29.2052 155.406 29.9935 154.672 30.9102C153.976 31.7902 153.389 32.7252 152.912 33.7152C152.472 34.7052 152.252 35.5302 152.252 36.1902C152.252 36.4469 152.307 36.7402 152.417 37.0702C152.527 37.3635 152.876 37.5102 153.462 37.5102C153.939 37.5102 154.434 37.3452 154.947 37.0152C155.497 36.6852 156.047 36.2635 156.597 35.7502C157.147 35.2369 157.661 34.6685 158.137 34.0452C158.651 33.4219 159.127 32.7985 159.567 32.1752C159.971 31.5885 160.319 31.0019 160.612 30.4152C160.942 29.8285 161.107 29.3335 161.107 28.9302C161.107 28.4169 160.942 28.0685 160.612 27.8852C160.282 27.6652 159.916 27.5552 159.512 27.5552ZM162.592 28.1052C162.812 27.8119 163.032 27.5735 163.252 27.3902C163.472 27.2069 163.802 27.1152 164.242 27.1152H165.287C165.581 27.1152 165.727 27.2252 165.727 27.4452C165.727 27.4819 165.709 27.5369 165.672 27.6102C165.672 27.6469 165.636 27.7385 165.562 27.8852C165.232 28.3985 164.774 29.0585 164.187 29.8652C163.601 30.6719 163.032 31.5152 162.482 32.3952C161.932 33.2385 161.437 34.0452 160.997 34.8152C160.594 35.5485 160.392 36.1169 160.392 36.5202C160.392 36.9602 160.594 37.1802 160.997 37.1802C161.951 37.1802 162.867 36.7769 163.747 35.9702C164.627 35.1269 165.819 33.8252 167.322 32.0652L167.707 32.3402C167.121 33.0369 166.534 33.7335 165.947 34.4302C165.397 35.1269 164.811 35.7502 164.187 36.3002C163.564 36.8502 162.904 37.3085 162.207 37.6752C161.511 38.0052 160.722 38.1702 159.842 38.1702C159.219 38.1702 158.687 38.0602 158.247 37.8402C157.807 37.5835 157.587 37.1619 157.587 36.5752C157.587 36.3919 157.624 36.1719 157.697 35.9152C157.807 35.6219 157.972 35.3102 158.192 34.9802V34.9252C157.239 35.9885 156.304 36.8135 155.387 37.4002C154.507 37.9502 153.517 38.2252 152.417 38.2252C151.317 38.2252 150.566 37.9869 150.162 37.5102C149.796 37.0335 149.612 36.5019 149.612 35.9152C149.612 34.9252 149.887 33.8985 150.437 32.8352C151.024 31.7719 151.776 30.8002 152.692 29.9202C153.609 29.0402 154.636 28.3252 155.772 27.7752C156.909 27.2252 158.046 26.9502 159.182 26.9502C160.099 26.9502 160.796 27.1152 161.272 27.4452C161.749 27.7385 162.097 28.0869 162.317 28.4902L162.592 28.1052ZM180.017 31.6802C179.393 32.4135 178.678 33.1835 177.872 33.9902C177.102 34.7602 176.277 35.4752 175.397 36.1352C174.517 36.7585 173.563 37.2719 172.537 37.6752C171.547 38.0785 170.52 38.2802 169.457 38.2802C168.173 38.2802 167.275 38.0052 166.762 37.4552C166.285 36.9052 166.047 36.2635 166.047 35.5302C166.047 34.6502 166.303 33.7152 166.817 32.7252C167.33 31.6985 168.008 30.7635 168.852 29.9202C169.732 29.0769 170.722 28.3802 171.822 27.8302C172.958 27.2435 174.113 26.9502 175.287 26.9502C176.313 26.9502 177.102 27.1702 177.652 27.6102C178.238 28.0135 178.532 28.5452 178.532 29.2052C178.532 29.6085 178.385 29.9935 178.092 30.3602C177.798 30.7269 177.413 30.9102 176.937 30.9102C176.533 30.9102 176.222 30.8185 176.002 30.6352C175.818 30.4519 175.727 30.2502 175.727 30.0302C175.727 29.7735 175.8 29.5535 175.947 29.3702C176.13 29.1502 176.222 28.8935 176.222 28.6002C176.222 28.3435 176.13 28.1235 175.947 27.9402C175.8 27.7202 175.562 27.6102 175.232 27.6102C174.535 27.6835 173.802 28.0319 173.032 28.6552C172.262 29.2419 171.547 29.9569 170.887 30.8002C170.263 31.6435 169.732 32.5419 169.292 33.4952C168.888 34.4119 168.687 35.2185 168.687 35.9152C168.687 36.2452 168.797 36.5935 169.017 36.9602C169.237 37.2902 169.75 37.4552 170.557 37.4552C172.097 37.4552 173.6 36.8869 175.067 35.7502C176.57 34.6135 178.092 33.1652 179.632 31.4052L180.017 31.6802ZM197.169 11.6052C197.353 11.2752 197.518 11.0185 197.664 10.8352C197.848 10.6152 198.049 10.4502 198.269 10.3402C198.526 10.2302 198.819 10.1569 199.149 10.1202C199.516 10.0835 199.993 10.0652 200.579 10.0652C201.093 10.0652 201.349 10.1935 201.349 10.4502C201.349 10.6335 201.221 10.9085 200.964 11.2752L184.574 32.5602L184.079 32.2852L197.169 11.6052ZM181.384 38.1152C180.871 38.1152 180.523 37.9869 180.339 37.7302C180.156 37.4735 180.064 37.1985 180.064 36.9052C180.064 36.5019 180.266 36.1352 180.669 35.8052C181.073 35.4385 181.513 35.2552 181.989 35.2552C182.356 35.2552 182.649 35.3835 182.869 35.6402C183.089 35.8602 183.199 36.1352 183.199 36.4652C183.199 36.9052 183.016 37.2902 182.649 37.6202C182.283 37.9502 181.861 38.1152 181.384 38.1152Z" fill="#6F745C"></path></svg> 