<?xml version="1.0" encoding="UTF-8"?> <svg xmlns="http://www.w3.org/2000/svg" width="138" height="164" fill="none"><path fill="#A3AD7E" fill-rule="evenodd" d="M66.584.258c-3.024.368-5.541 1.158-8.404 2.638-1.28.663-3.272 1.836-3.417 2.015-.047.057-.35.29-.676.518-.325.228-.705.505-.844.616-2.618 2.083-4.499 3.94-6.085 6.01-.322.422-.626.804-.675.851-.187.178-1.346 1.877-1.346 1.973 0 .055-.153.317-.34.581s-.554.888-.815 1.387c-.261.498-.558 1.06-.66 1.246-.26.483-.703 1.523-.962 2.26l-.22.631-.457-.996c-.573-1.248-1.573-2.354-2.547-2.815-1.031-.488-2.702-.488-3.578 0-.783.437-1.736 1.334-1.736 1.634 0 .122-.076.222-.169.222s-.169.148-.169.33c0 .181-.076.377-.169.435s-.169.255-.169.438c0 .182-.066.465-.148.627-1.822 3.627-2.047 4.162-2.047 4.86 0 .986.333 1.27 1.486 1.266 1.035-.003 1.197.096.914.553-.237.381-.277 2.747-.054 3.185.082.163.324.663.538 1.112.212.45.6.944.862 1.1s.517.411.566.569c.121.383-.572 1.922-1.46 3.242-.862 1.282-.99 1.422-1.44 1.566-.549.175-1.058.829-1.417 1.82-.183.503-.333 1.01-.333 1.126s-.382.798-.848 1.518c-.941 1.452-2.698 4.877-2.698 5.26 0 .134-.076.245-.17.245-.092 0-.168.1-.168.223 0 .122-.133.373-.296.557-.502.57-.946 1.478-1.072 2.193-.066.376-.322 1.257-.569 1.959-.439 1.247-.632 2.017-.979 3.911-.222 1.216-.225 6.133-.003 7.228.51 2.518 1.697 4.795 3.32 6.37.44.428.781.914.781 1.115 0 .195.088.444.196.553s.265.64.348 1.182c.224 1.46.259 1.637.386 1.957.088.222-.03.363-.492.584-.438.211-.607.401-.607.686 0 .243.1.393.264.393.144 0 .219.072.165.16-.12.197-1.086.69-1.35.69-.357 0-1.103.424-1.048.596.068.214 1.462.386 3.32.41.908.01 1.612.11 1.915.269.488.256 1.125.109 1.125-.26 0-.33.316-.153.368.206.067.457.374.576.668.26.19-.204.295-.194.733.075 1.065.654 2.81.104 2.929-.923.041-.361.143-.462.464-.462.391 0 .411.05.414 1.063.006 2.089.66 4.127 1.65 5.144.685.703 1.03.918 2.281 1.425.742.3 2.081.23 2.861-.15.864-.42 1.067-.423 1.495-.022.777.73 2.26 1.316 4.177 1.653 1.467.257 2.486.17 4.192-.36.456-.141.758-.16.865-.051.345.347 2.64-.56 3.654-1.443.464-.404.94-.676 1.705-.973.186-.073 1.538-.215 3.006-.316s2.819-.266 3.004-.366c.407-.22 4.174-.119 5.643.15.557.103 1.909.24 3.003.303 1.095.065 2.03.182 2.08.261.048.08.209.144.358.144.148 0 .656.298 1.13.661 1.46 1.122 3.484 1.951 3.854 1.579.107-.108.41-.09.865.051.385.12 1.168.305 1.74.413 1.943.364 5.565-.576 6.582-1.708.362-.402.675-.397 1.542.025.78.38 2.12.449 2.86.149.917-.371 1.32-.577 1.537-.783.12-.115.315-.268.432-.34.404-.251 1.149-1.392 1.48-2.27.273-.724.467-2.366.485-4.112.001-.07.191-.127.424-.127.312 0 .422.09.422.347 0 1.081 1.839 1.727 2.96 1.038.437-.269.543-.28.733-.075.293.317.6.197.667-.26q.104-.706.573.003c.24.364.261.366.848.085.404-.193 1.068-.293 2.013-.305 1.833-.022 3.227-.194 3.295-.408.054-.172-.691-.595-1.049-.595-.264 0-1.229-.494-1.35-.691-.053-.088.021-.16.166-.16.163 0 .263-.15.263-.393 0-.283-.167-.474-.591-.678-.568-.273-.765-.671-.433-.878.087-.054.156-.23.153-.392-.009-.581.36-2.314.529-2.484.095-.096.173-.333.173-.526 0-.195.349-.69.787-1.114 1.628-1.577 2.755-3.83 3.424-6.845.224-1.006.236-4.968.02-5.948-.089-.398-.25-1.26-.359-1.915-.2-1.195-.865-3.485-1.173-4.037a1.7 1.7 0 0 1-.166-.707c0-.422-.592-1.711-.973-2.116-.117-.125-.373-.584-.569-1.02-.675-1.507-1.683-3.486-2.012-3.95-.181-.258-.33-.552-.33-.654 0-.103-.076-.186-.169-.186-.092 0-.168-.082-.168-.182s-.228-.516-.507-.924-.507-.86-.507-1.007c0-.875-1.109-2.82-1.608-2.82-.344 0-.853-.556-1.663-1.818-.81-1.26-1.457-2.615-1.457-3.048 0-.135.133-.295.295-.356.444-.164 1.006-.822 1.315-1.538.152-.35.345-.77.43-.933.227-.432.189-2.8-.05-3.185-.286-.462-.113-.562.958-.553.813.008.978-.049 1.284-.44.552-.706.433-1.063-1.889-5.686a1.7 1.7 0 0 1-.148-.628c0-.182-.076-.38-.169-.437-.093-.058-.169-.254-.169-.435 0-.182-.076-.33-.169-.33-.092 0-.168-.1-.168-.22 0-.309-1.151-1.378-1.842-1.713-.737-.357-2.476-.363-3.311-.011-.911.383-2.33 1.878-2.694 2.84-.246.646-.352.769-.537.615-.126-.106-.23-.263-.23-.35s-.151-.474-.337-.861c-.186-.388-.338-.805-.338-.928 0-.122-.076-.223-.169-.223s-.169-.146-.169-.326c0-.179-.057-.351-.126-.382-.07-.031-.316-.44-.547-.907-.23-.468-.463-.889-.517-.936-.053-.046-.372-.544-.708-1.105s-.75-1.174-.919-1.361a28 28 0 0 1-1.033-1.303c-1.183-1.567-4.146-4.516-5.438-5.413-.325-.226-.629-.456-.675-.512s-.35-.285-.676-.51c-.325-.225-.629-.455-.675-.512-.175-.213-2.666-1.65-3.885-2.241-2.302-1.115-3.026-1.392-4.991-1.904-.89-.232-5.124-.813-5.564-.763-.092.01-1.042.125-2.11.255m.085.91a27 27 0 0 0-2.28.323c-1.254.26-4.293 1.246-4.363 1.415-.03.075-.157.136-.28.136-.302 0-2.598 1.228-4.017 2.149-.63.408-1.22.742-1.31.742s-.163.06-.163.13c0 .073-.181.245-.403.384-1.5.938-5.794 5.203-7.029 6.981-.222.321-.454.622-.514.669-.26.2-1.986 3.075-2.503 4.166-.31.655-.632 1.324-.715 1.486a1.5 1.5 0 0 0-.15.553c0 .142-.077.257-.17.257s-.17.134-.171.298-.112.604-.246.978c-.282.789-.346 2.37-.09 2.21.094-.057.17-.254.17-.437s.067-.465.149-.628a21 21 0 0 0 .696-1.655c.835-2.275 3.091-6.224 4.71-8.245 3.273-4.087 6.986-7.114 11.354-9.252 1.073-.526 2.04-.956 2.15-.956.108 0 .367-.088.575-.197.825-.429.98-.483 1.379-.483.228 0 .456-.069.508-.152.099-.161.546-.246 2.7-.512.737-.09 1.497-.204 1.69-.253.192-.048 1.223.028 2.291.169 3.006.397 3.205.433 3.305.596.05.083.28.152.508.152s.565.076.75.17l.67.34c.185.094.425.17.534.17s1.076.43 2.15.956c1.912.936 4.258 2.412 5.758 3.622.415.335.904.724 1.085.864 1.237.955 4.114 4.134 5.333 5.894.508.734.97 1.373 1.026 1.42s.21.333.342.637c.131.304.28.553.332.553s.394.631.761 1.403c.367.771.724 1.428.794 1.46.07.03.127.166.127.3s.067.376.149.538.234.506.338.763c.103.257.26.64.349.85.088.211.27.725.403 1.142s.313.783.4.812c.204.068-.075-2.36-.296-2.582-.089-.09-.161-.338-.161-.554 0-.215-.076-.39-.17-.39-.092 0-.168-.116-.168-.258s-.068-.39-.15-.553a51 51 0 0 1-.545-1.145c-.423-.915-2.46-4.361-2.661-4.505-.067-.048-.305-.355-.528-.683-.223-.327-.448-.633-.499-.68s-.623-.697-1.272-1.446c-1.263-1.456-1.375-1.569-2.772-2.78a82 82 0 0 1-1.098-.963 24 24 0 0 0-.945-.765c-.418-.325-.786-.649-.817-.72a.24.24 0 0 0-.206-.129c-.082 0-.664-.334-1.294-.742-1.42-.921-3.715-2.149-4.017-2.149-.123 0-.25-.061-.28-.136-.082-.197-3.215-1.172-4.701-1.464-1.595-.313-4.737-.446-6.502-.275m.084 1.14c-.603.04-1.17.144-1.258.233s-.445.161-.792.161-.679.077-.736.17c-.058.094-.328.17-.601.17s-.497.077-.497.17-.153.17-.34.17-.472.068-.633.15a10 10 0 0 1-.716.317c-1.871.735-6.38 3.301-6.924 3.94-.046.055-.464.4-.929.768-1.962 1.552-4.476 4.36-6.102 6.815-1.095 1.654-2.933 5.074-2.933 5.46 0 .13-.076.238-.169.238-.092 0-.168.115-.168.257 0 .141-.067.39-.15.553-.31.614-.525 1.18-.876 2.305-.362 1.158-.362 1.16-.026 1.53.184.205.44.678.567 1.052s.359.823.515.997.391.54.522.813l.239.496.297-1.153c.31-1.2.846-2.917 1.118-3.577.087-.21.226-.554.31-.765.302-.757 2.214-4.65 2.651-5.4.64-1.094 1.46-2.286 1.62-2.352.075-.032.137-.131.137-.222 0-.564 4.637-5.589 5.158-5.589.135 0 .246-.068.246-.15 0-.219.62-.348.8-.167.09.092.34-.008.616-.247.645-.559 2.51-1.644 3.819-2.223.604-.267 1.23-.553 1.39-.635.162-.082.48-.15.709-.15s.456-.067.507-.15c.095-.156.44-.23 2.63-.561 1.988-.301 3.078-.25 6.291.3.35.06.677.177.728.26s.312.152.58.152.534.076.59.17c.058.093.223.17.368.17.59 0 4.335 2.092 5.102 2.851.148.146.293.172.394.07.186-.186.808-.063.808.16 0 .082.116.15.259.15.233 0 3.963 3.592 3.963 3.816 0 .083.301.483.76 1.008.3.344 1.097 1.627 1.097 1.768 0 .074.152.246.338.38.186.136.338.376.338.534s.057.314.126.346c.198.088.662.925 1.585 2.862.468.983.92 1.919 1.005 2.081.085.163.155.412.155.553s.076.258.169.258.169.148.169.33c0 .181.076.377.168.435s.17.276.17.486.062.454.139.543c.166.193.735 2.089.964 3.216l.102.503.254-.527c.139-.29.38-.669.536-.843s.388-.623.515-.997c.128-.374.389-.854.58-1.065l.35-.385-.378-1.146c-.719-2.18-2.025-4.973-3.53-7.55-1.634-2.798-4.596-6.271-6.879-8.068-.464-.365-.882-.707-.929-.76-.046-.053-.464-.354-.929-.67-.464-.314-.882-.615-.928-.668-.22-.25-3.918-2.152-5.067-2.606a10 10 0 0 1-.715-.317 1.7 1.7 0 0 0-.634-.15c-.187 0-.34-.076-.34-.17 0-.093-.223-.17-.496-.17-.274 0-.544-.076-.601-.17-.058-.093-.371-.17-.697-.17s-.721-.07-.88-.155c-.34-.183-4.035-.34-5.6-.239m.085 4.255c-.65.038-1.255.14-1.343.23-.088.088-.407.16-.708.16-.3 0-.594.077-.651.17s-.286.17-.507.17-.45.077-.507.17-.22.171-.36.171c-.352 0-2.69 1.137-3.554 1.728-.389.266-.788.483-.887.483-.1 0-.18.058-.18.13 0 .071-.306.32-.68.553-.94.584-4.307 4.081-5.319 5.524-.46.655-.893 1.216-.965 1.248-.071.03-.13.165-.13.297 0 .133-.067.241-.149.241s-.191.134-.243.298c-.097.31-.636 1.255-.8 1.403-.163.148-1.622 3.274-2.222 4.762-.094.234-.239.558-.32.72-.083.163-.15.45-.15.638s-.076.343-.169.343-.169.23-.169.51-.076.51-.168.51-.17.225-.17.5-.067.542-.15.594-.193.343-.245.648c-.052.304-.214 1.166-.359 1.914-.877 4.52-.986 5.73-.99 10.97-.002 4.271.109 6.145.477 8.078.303 1.59.506 2.515.805 3.657.183.701.395 1.532.469 1.847.119.5.858 1.528 1.218 1.694.07.032.127.134.127.226 0 .093.211.488.47.879.517.783.88 1.728.88 2.289 0 .2.182.631.403.96.378.561.742 2.063.547 2.26-.106.106.315.559.52.559.584 0 1.875 1.771 2.418 3.316.358 1.02.504 1.603.504 2.01 0 .251.076.456.168.456s.17.148.17.328c0 .443 1.053 1.543 1.476 1.543a.82.82 0 0 0 .557-.263c.36-.438.892-.221 1.26.513.404.808.534.953 1.14 1.267.255.133.464.305.464.383 0 .077.108.141.24.141.13 0 .264.061.295.136.083.2 2.779 1.471 3.856 1.818.51.165 1.103.367 1.316.448s.608.149.877.149.536.077.593.17c.063.103 1.237.17 2.956.17s2.892-.067 2.955-.17c.058-.093.324-.17.593-.17s.663-.067.877-.149.806-.283 1.317-.448c1.076-.347 3.773-1.619 3.856-1.818.03-.075.164-.136.295-.136.132 0 .24-.058.24-.13 0-.071.303-.319.675-.55.371-.232.675-.525.675-.652s.158-.453.35-.725c.375-.53.951-.655 1.11-.239.053.14.288.255.523.255.499 0 1.564-1.044 1.564-1.532 0-.175.076-.366.169-.424s.169-.364.169-.68.076-.622.169-.68c.092-.058.168-.255.168-.438s.068-.465.15-.627c.082-.163.367-.745.633-1.294.433-.891 1.422-1.978 1.801-1.978.332 0 .544-.485.59-1.355.037-.67.166-1.082.465-1.477.229-.301.414-.777.414-1.06 0-.44 1.175-2.996 1.496-3.254.49-.394 1.09-1.25 1.205-1.721.077-.314.289-1.146.47-1.847a56 56 0 0 0 1.172-6.038c.209-1.603.155-10.191-.074-11.82-.111-.795-.287-2.096-.39-2.89-.104-.796-.254-1.6-.333-1.786a5.4 5.4 0 0 1-.249-.936l-.199-1.15c-.052-.304-.163-.596-.245-.647-.083-.052-.15-.276-.15-.499s-.076-.452-.17-.51c-.092-.058-.168-.33-.168-.605s-.076-.5-.169-.5-.169-.155-.169-.343-.067-.475-.149-.638a12 12 0 0 1-.32-.72c-.749-1.856-2.09-4.66-2.267-4.734-.074-.031-.135-.132-.135-.224 0-.093-.209-.49-.464-.882-.256-.392-.54-.84-.634-.993-1.137-1.885-4.992-6.108-6.342-6.949-.367-.228-.666-.473-.666-.544s-.108-.13-.24-.13c-.13 0-.264-.058-.295-.128-.099-.224-2.323-1.402-3.687-1.952a11 11 0 0 1-.715-.321 1.6 1.6 0 0 0-.624-.15c-.181 0-.377-.077-.434-.17-.058-.094-.35-.17-.652-.17-.301 0-.62-.069-.708-.152-.188-.179-3.861-.336-5.564-.239m-.422 1.272c-1.087.23-2.046.491-2.534.692-.232.095-.574.23-.76.299-1.362.507-4.109 2.161-5.235 3.152-1.252 1.103-1.57 1.413-2.364 2.3-.944 1.057-1.174 1.342-1.77 2.2a9 9 0 0 1-.633.821c-.3.311-1.904 3.062-1.904 3.266 0 .09-.076.164-.169.164-.092 0-.168.147-.168.326s-.057.352-.127.383c-.119.053-.771 1.344-1.06 2.098-.071.187-.246.607-.388.935-.308.711-1.177 3.348-1.457 4.422-.11.42-.27 1-.358 1.287a4 4 0 0 0-.157.968c0 .245-.076.493-.169.55-.093.059-.169.43-.169.827s-.07.794-.154.883c-.085.089-.199.66-.253 1.267-.313 3.543-.48 6.02-.48 7.143 0 1.568.308 5.619.55 7.228.098.655.221 1.535.274 1.956.053.42.165.838.249.926.084.09.152.352.152.584s.072.656.16.944c.087.287.32 1.096.516 1.797.37 1.327.759 2.532 1.026 3.19.086.21.221.554.302.765.678 1.779 3.674 7.158 4.24 7.61.057.047.283.353.5.68.697 1.052 4.049 4.249 5.354 5.106a21.4 21.4 0 0 0 3.608 1.905c.232.095.554.24.715.322s.48.15.708.15.456.067.505.149c.341.555 7.624.555 7.965 0 .05-.082.277-.148.505-.148s.547-.068.708-.15c.161-.083.483-.227.715-.32 1.471-.586 3.703-1.86 4.73-2.7 1.062-.868 3.735-3.562 4.16-4.193.266-.394.576-.814.688-.934.113-.12.339-.446.501-.723.163-.278.355-.504.428-.504s.133-.084.133-.187c0-.102.143-.39.318-.638.492-.696 1.877-3.424 1.877-3.695 0-.134.076-.242.17-.242.092 0 .168-.153.168-.34s.076-.34.169-.34.169-.116.169-.258.067-.39.149-.553c.977-1.933 2.237-6.695 2.735-10.33.197-1.44.517-5.564.54-6.972.028-1.688-.231-5.758-.39-6.122-.081-.188-.187-.762-.235-1.276-.167-1.812-.3-2.638-.451-2.798-.084-.088-.153-.372-.153-.63 0-.257-.067-.644-.15-.858-.082-.215-.244-.812-.359-1.326-.213-.952-.578-2.192-.828-2.806-.075-.187-.224-.551-.329-.808s-.257-.64-.336-.85c-.08-.211-.308-.716-.507-1.122s-.362-.846-.362-.978-.076-.24-.169-.24-.169-.137-.169-.305c0-.169-.065-.38-.145-.468s-.409-.659-.73-1.267c-.758-1.431-1.028-1.899-1.235-2.135a15 15 0 0 1-.536-.687l-1.127-1.515c-2.41-3.234-5.795-5.77-9.652-7.231-2.026-.767-5.518-1.067-7.516-.646m.422.832c-1.632.19-2.83.51-3.84 1.028-.161.082-.408.15-.549.15-.14 0-.255.058-.255.129 0 .07-.248.236-.55.368-1.874.818-5.567 3.93-6.978 5.88-.27.375-.54.72-.599.766-.203.163-1.933 2.982-2.348 3.826-.23.468-.475.876-.545.907s-.127.204-.127.383-.075.326-.168.326-.17.153-.17.34-.075.34-.168.34-.169.116-.169.258c0 .141-.067.39-.15.553-.461.914-1.162 3.043-1.915 5.822-.088.327-.23.83-.315 1.118a4.5 4.5 0 0 0-.153 1.052c0 .292-.076.578-.17.636-.092.058-.168.506-.168.997 0 .49-.069.964-.153 1.053-.531.559-.53 13.19.002 13.758.083.089.151.563.151 1.053s.076.939.169.997c.093.057.169.343.169.635s.07.766.157 1.053.25.867.36 1.288c.381 1.434.488 1.785.984 3.231.823 2.403 1.11 3.144 1.243 3.203.07.031.127.158.127.282 0 .21.656 1.598.844 1.787.047.047.197.315.334.595.318.65 2.214 3.637 2.638 4.155 2.645 3.23 4.973 5.168 7.799 6.492.81.38 1.605.76 1.766.847s.48.156.708.156.455.067.505.148c.144.235 1.718.413 3.645.413 1.926 0 3.5-.178 3.644-.413.05-.081.278-.148.505-.148.228 0 .547-.069.708-.153.162-.084.977-.478 1.813-.877 4.074-1.94 7.831-5.757 10.298-10.458.34-.65.69-1.255.776-1.344.086-.088.157-.299.157-.467s.076-.306.169-.306.169-.154.169-.34c0-.188.076-.34.168-.34s.17-.116.17-.258.066-.39.148-.553c.406-.802.647-1.5 1.366-3.952.206-.701.443-1.451.527-1.666a2.8 2.8 0 0 0 .154-.859c0-.257.068-.54.151-.63.084-.088.195-.467.249-.841s.178-1.178.278-1.786c.404-2.468.547-4.507.547-7.823 0-4.927-.447-8.502-1.561-12.5-.105-.374-.261-.963-.348-1.308-.243-.966-.977-2.987-1.363-3.75a1.5 1.5 0 0 1-.149-.552c0-.142-.076-.258-.169-.258-.092 0-.168-.153-.168-.34s-.076-.34-.17-.34c-.092 0-.168-.147-.168-.326s-.057-.351-.127-.383c-.07-.03-.312-.439-.538-.907-.438-.903-1.951-3.34-2.48-3.994-1.95-2.411-3.214-3.676-4.865-4.872-.564-.408-1.101-.8-1.194-.872-.193-.147-3.036-1.545-3.546-1.743-.758-.294-1.77-.505-3.21-.67-1.698-.197-2.34-.196-4.052.004m-15.229 4.19c-.448.535-.929 1.116-1.068 1.29-.14.175-.424.522-.633.772s-.38.542-.38.652-.06.223-.133.255c-.185.079-1.725 2.762-1.725 3.005 0 .109-.076.198-.169.198s-.169.146-.169.326c0 .179-.06.351-.135.382-.21.088-1.447 2.774-2.103 4.564-.924 2.52-1.058 3.042-.837 3.263.286.288.71-.143.71-.723 0-.264.077-.527.17-.584.093-.058.169-.244.169-.414 0-.672 2.135-5.451 3.532-7.907 1.084-1.907 2.479-3.901 3.517-5.03.3-.327.548-.69.549-.808.003-.47-.522-.161-1.295.76m33.385-.759c0 .117.248.482.549.812 2.158 2.362 5.014 7.303 6.452 11.163.343.92.694 1.85.78 2.064.085.215.154.57.154.787 0 .446.4.864.669.698a.43.43 0 0 0 .176-.333c0-.237-.75-2.667-1-3.243-.081-.187-.276-.646-.433-1.02-.551-1.313-2.356-4.941-2.876-5.783-1.454-2.35-1.509-2.43-2.195-3.221-.239-.275-.64-.764-.891-1.087-.673-.862-.878-1.05-1.145-1.05-.133 0-.241.097-.24.213M49.02 14.224c-1.312 1.698-1.12 1.411-2.068 3.085-.897 1.583-1.89 3.718-2.68 5.759-.311.803-.531 1.328-.675 1.613-.196.39-.19 1.104.01 1.23q.24.15 1.197-2.376c1.31-3.453 3.805-8.146 4.94-9.293.415-.419.8-1.106.685-1.222-.234-.236-.417-.08-1.41 1.204m38.455-1.21c-.119.12.102.597.435.942.79.817 2.432 3.476 3.464 5.609.39.81.711 1.515.711 1.568s.198.54.44 1.08c.241.54.507 1.154.59 1.365l.304.765c.473 1.194.73 1.656.871 1.567.201-.125.207-.84.01-1.229-.144-.285-.363-.81-.674-1.613-1.036-2.675-2.21-5.07-3.474-7.086-.237-.378-.431-.733-.431-.789 0-.055-.095-.2-.211-.324a47 47 0 0 1-.95-1.093c-.732-.864-.88-.968-1.085-.762m-51.964 5.015c-1.06.643-1.52 1.358-1.52 2.36 0 1.491 1.305 2.6 2.676 2.272.948-.226 1.237-.798.843-1.669-.151-.333-.316-.43-.718-.42-.287.008-.409.059-.271.113 1.143.452.74 1.745-.544 1.745-1.347 0-1.947-1.812-1.066-3.218.543-.866 1.249-1.203 2.526-1.206.727-.002.955-.051.776-.168-.474-.308-2.066-.196-2.702.19m64.09-.19c-.066.105.27.17.892.17 1.759 0 2.738.837 2.871 2.458.063.758.012.945-.383 1.418-.364.435-.583.545-1.09.545-1.314 0-1.653-1.412-.421-1.755.179-.05.062-.077-.26-.06-.447.022-.647.14-.845.497-.725 1.312 1.491 2.202 2.713 1.09 1.074-.979 1.138-2.444.153-3.517-.697-.76-1.309-1.017-2.422-1.017-.608 0-1.151.077-1.209.17m-63.415 1.14c-.613.227-.844.615-.83 1.394.012.74.024.758.21.339.36-.809.627-1.003 1.374-1.003.776 0 1.076.235 1.42 1.113.276.705-.062 1.486-1.026 2.373a12 12 0 0 0-1.351 1.531c-.337.468-.847 1.075-1.134 1.35-.286.274-.52.593-.52.709 0 .114-.08.236-.18.269-.24.08-.244 3.351-.003 3.594.1.101.182.287.182.414 0 .126.23.475.51.774l.508.543-.593-1.19c-.472-.948-.592-1.39-.593-2.171 0-.54.065-1.113.146-1.276.08-.162.301-.601.49-.975.722-1.431 2.647-2.43 4.315-2.24 1.275.144 1.466-.058 1.466-1.553 0-.662-.076-1.251-.169-1.31-.093-.057-.169-.255-.169-.438 0-.583-.846-1.658-1.591-2.021-.674-.329-1.884-.44-2.462-.226m63.038.226c-1.168.598-1.897 2.067-1.901 3.833-.002.856.063 1.096.38 1.395.272.257.455.316.633.203.343-.219 1.43-.205 2.199.027 1.039.313 2.211 1.324 2.741 2.363.416.817.466 1.078.41 2.122-.062 1.145-.306 1.899-.908 2.806l-.283.425.354-.34c.796-.766 1.058-1.541 1.058-3.132 0-1.564-.132-2.008-.813-2.74a23 23 0 0 1-1.098-1.356 16 16 0 0 0-1.463-1.65c-.896-.845-1.21-1.608-.968-2.347.276-.84.607-1.105 1.386-1.105.761 0 1.13.278 1.355 1.018.123.402.134.406.256.074.181-.492.014-1.19-.368-1.54-.521-.474-2.095-.504-2.97-.056m-51.372 2.984c.008.198.048.238.102.103.049-.123.043-.27-.013-.326s-.096.044-.089.223m42.051 0c.008.198.048.238.102.103.049-.123.043-.27-.013-.326s-.096.044-.089.223m-56.588.077c0 .127-.342.898-.76 1.713-1.082 2.11-.972 2.78.422 2.575.46-.068.863-.37 1.816-1.363.673-.701 1.224-1.34 1.224-1.421s-.308-.195-.685-.256c-.493-.08-.872-.302-1.35-.794-.367-.376-.667-.58-.667-.454m70.761.303c-.233.296-.518.539-.634.54-.116 0-.211.068-.211.15s-.304.197-.675.257-.676.17-.676.244c0 .075.551.714 1.224 1.42.957 1.004 1.354 1.305 1.816 1.373.762.113 1.182-.116 1.182-.645 0-.397-1.111-2.955-1.364-3.138-.064-.047-.145-.232-.178-.412-.054-.286-.115-.26-.484.211m-56.548.371c0 .234.038.33.085.213a.66.66 0 0 0 0-.425c-.047-.117-.085-.022-.085.212m42.713.1c.008.198.048.238.102.102.049-.122.042-.27-.014-.326s-.095.044-.088.223m-43.064.68c.008.198.048.238.102.103.048-.123.042-.27-.014-.326-.056-.057-.096.043-.088.223m43.402 0c.008.198.048.238.102.103.048-.123.042-.27-.014-.326-.056-.057-.096.043-.088.223m-43.74.85c.008.198.048.238.102.103.049-.123.043-.27-.014-.326-.056-.057-.095.044-.088.223m44.09.07c0 .235.039.33.086.213a.66.66 0 0 0 0-.425c-.047-.117-.085-.02-.085.213m-50.31.454c-.116.047-.21.204-.21.348 0 .218-.123.239-.719.12-2.016-.4-3.758.207-4.45 1.55-.384.746-.306 2.636.144 3.49.6 1.138 1.964 2.022 3.133 2.03.562.003 1.381-.469 1.404-.81.068-1.022-.122-1.222-1.16-1.226-.636-.002-.717-.047-.717-.395 0-.221.247-.633.57-.949.5-.487.687-.558 1.49-.565 1.147-.01 1.956.479 2.523 1.525.347.643.398.96.39 2.473-.007 1.504-.072 1.894-.49 2.925-.62 1.538-1.32 2.593-2.682 4.045-.514.547-.68.64-.8.449-.116-.187-.46.078-1.517 1.176-1.383 1.434-2.47 2.982-3.184 4.535-.215.467-.458.983-.54 1.145a1.6 1.6 0 0 0-.151.604c0 .846-.833 1.76-1.27 1.394-.185-.154-.253-.071-.345.423-.12.65.02.999.25.623.2-.326.928-.168 1.001.218.034.18-.016.6-.112.935-.344 1.208-.706 3.05-.693 3.526.007.267.052.39.099.273a.36.36 0 0 1 .311-.213c.162 0 .252-.374.316-1.318.14-2.068.292-3.175.459-3.35.084-.09.153-.372.153-.628s.076-.513.169-.571.169-.292.169-.52.058-.416.128-.416.204-.165.296-.368c.266-.59.669-.757 1.169-.488.477.257.583.938.245 1.574-.163.306-.106.433.41.924.33.313.715.57.855.57s.301.076.359.17c.057.093.323.17.59.17.268 0 .534-.077.592-.17s.259-.17.448-.17c.19 0 .565-.159.835-.352.445-.32.49-.443.49-1.348 0-.885-.058-1.054-.52-1.519-1.093-1.1-2.52-.481-2.52 1.094 0 .907-.18.96-.717.211-.749-1.042-.98-2.221-.613-3.138.659-1.646 1.017-2.198 1.78-2.736.674-.477 1.07-.342 1.073.365.003.673.117.843.8 1.195.465.24.548.376.548.897 0 .888.843 1.54 1.445 1.119.098-.07.273-.362.39-.65.166-.416.167-.62.002-.983-.157-.35-.16-.505-.01-.656.506-.51.97 1.435.537 2.25q-.17.318 0 .423c.094.059.17.818.17 1.702 0 .88.075 1.642.168 1.7.21.13.224 1.051.02 1.179-.198.123-.35-.646-.522-2.624a48 48 0 0 0-.156-1.643c-.01-.014-.172.015-.361.064-.327.086-.339.174-.23 1.77.083 1.214.062 1.68-.078 1.68-.109 0-.193-.268-.193-.617 0-.528-.036-.586-.253-.404-.14.116-.253.303-.253.414s-.147.36-.325.553c-.322.348-.32.353.092.542.23.106.567.192.749.192.567 0 1.82.689 2.697 1.482.462.418.834.657.828.532-.015-.285-.298-.965-.314-.755-.03.382-.688-.514-.688-.936 0-.26-.076-.52-.168-.578s-.17-.468-.17-.912c0-.443-.068-.879-.151-.968-.266-.283-.4-2.586-.42-7.177-.01-2.455-.064-4.464-.119-4.464-.293 0-.492 1.063-.492 2.634 0 .995-.073 1.814-.168 1.873-.108.067-.17-.452-.17-1.436 0-.847-.065-1.54-.146-1.54s-.35.31-.6.69c-.608.925-.56 1.843.112 2.166.527.253.874.796.737 1.154-.188.494-.62.303-1.71-.761-.433-.422-.586-1.425-.25-1.634.093-.057.169-.235.169-.393s.422-.854.938-1.544c1.02-1.365 2.27-3.614 2.27-4.08a.78.78 0 0 1 .187-.48c.112-.113.19-.924.195-2.033.008-1.941-.175-2.545-1.06-3.502-.184-.199-.335-.521-.335-.716s-.226-.632-.503-.97c-.278-.339-.58-.815-.672-1.06-.16-.421-.483-.531-.978-.33m55.678.34c-.094.248-.396.71-.671 1.025-.28.322-.501.77-.501 1.017 0 .242-.144.567-.319.72s-.493.583-.706.955c-.34.594-.386.901-.38 2.516.005 1.136.081 1.913.2 2.033a.8.8 0 0 1 .192.484c0 .46 1.245 2.708 2.23 4.026 1.487 1.991 1.646 3.422.448 4.045-.266.139-.483.326-.483.418 0 .273-.631.186-.741-.102-.145-.38.159-.868.7-1.128.664-.32.705-1.111.11-2.135-.402-.689-.479-.749-.591-.46-.072.184-.088.693-.037 1.133.106.906-.046 1.731-.29 1.579-.09-.056-.164-.898-.164-1.87 0-1.571-.198-2.634-.492-2.634-.055 0-.108 1.97-.119 4.38-.02 4.561-.16 6.986-.419 7.261-.084.09-.152.486-.152.883s-.076.769-.17.827c-.092.057-.168.356-.168.663 0 .605-.573 1.34-.717.92-.042-.123-.11.056-.15.398l-.075.621.804-.727c.843-.764 2.102-1.45 2.658-1.45.18 0 .529-.077.774-.17.401-.154.42-.197.184-.434-.144-.144-.396-.546-.56-.892l-.3-.63-.052.722c-.029.398-.133.723-.231.723-.119 0-.156-.574-.111-1.7.05-1.25.014-1.701-.135-1.701-.112 0-.242-.096-.288-.213-.103-.255-.173.86-.119 1.882.021.403-.038.939-.132 1.19a8 8 0 0 0-.275.932c-.156.721-.486.373-.347-.367.063-.34.152-1.306.198-2.147.045-.84.164-1.629.265-1.75.131-.16.127-.277-.013-.419-.277-.278-.234-1.68.064-2.075.393-.524.697-.098.416.585-.18.437-.177.607.017.987.412.805.87.928 1.477.397.25-.218.363-.514.363-.948 0-.574.06-.656.674-.915.631-.267.674-.33.676-.99.002-.883.339-1.052 1.072-.538.601.422.627.453 1.21 1.46.232.4.421.874.421 1.053s.076.372.169.43.169.403.169.766-.076.707-.169.765-.169.255-.169.438c0 .422-.705 1.53-.928 1.46-.093-.03-.193-.378-.222-.774-.112-1.537-1.493-2.092-2.552-1.026-.46.463-.52.636-.52 1.5 0 .83.064 1.032.424 1.348.233.203.608.37.834.37s.458.077.516.17.323.17.59.17c.268 0 .534-.076.592-.17.057-.093.219-.17.359-.17s.534-.266.876-.591c.55-.523.598-.632.411-.933-.363-.588-.263-1.281.222-1.543.501-.27.903-.102 1.169.488.092.203.225.368.296.368s.129.187.129.416.076.462.169.52.169.353.169.656.068.624.152.713c.171.181.328 1.248.462 3.138.061.874.168 1.32.339 1.417.138.078.317.308.398.51.235.587.193-.022-.097-1.417a61 61 0 0 1-.349-1.786 4 4 0 0 0-.255-.865c-.29-.6-.116-1.338.33-1.401.214-.03.499.036.633.148.203.17.244.122.242-.285-.004-.642-.196-.935-.494-.75-.307.192-.855-.157-.855-.544 0-.165-.076-.3-.169-.3s-.169-.192-.169-.427-.067-.56-.15-.723a47 47 0 0 1-.541-1.145c-.702-1.527-1.781-3.075-3.122-4.478-.932-.976-1.375-1.33-1.516-1.212-.208.174-1.045-.558-1.972-1.723-1.47-1.849-2.511-5.15-2.13-6.75.49-2.051 1.41-2.98 2.94-2.966.483.005 1.02.099 1.194.209.418.265.865.88.935 1.286.045.265-.057.336-.535.373-1.083.085-1.308.189-1.395.65-.125.658.01.98.508 1.218 1.313.623 3.334-.32 4.071-1.9.516-1.104.507-2.89-.018-3.687-.731-1.111-2.363-1.604-4.222-1.277-.664.118-.802.098-.802-.114 0-.261-.339-.463-.778-.463-.134 0-.32.203-.414.452m-49.783.057c0 .234.039.33.086.213a.66.66 0 0 0 0-.425c-.047-.117-.086-.021-.086.212m44.753 0c0 .234.039.33.086.213a.66.66 0 0 0 0-.425c-.047-.117-.086-.021-.086.212m.338 1.02c0 .235.038.33.085.213a.66.66 0 0 0 0-.425c-.046-.117-.085-.021-.085.213m-52.041 3.061c-.22.143-.215.166.03.169.156 0 .65.356 1.098.788.802.774.814.802.807 1.828-.007 1.059-.38 2.658-.621 2.658-.073 0-.132.153-.132.34s-.076.34-.169.34-.169.118-.169.262c0 .21.074.193.37-.085.203-.19.544-.347.757-.347.285 0 .413-.122.486-.467.055-.257.17-.644.256-.859.611-1.517-.55-4.625-1.728-4.626-.155 0-.383-.038-.507-.083s-.339-.009-.478.082m57.898-.049c-.602.093-1.48.963-1.605 1.591-.055.279-.166.548-.247.598-.196.123-.189 1.994.01 2.487.086.215.202.602.256.859.074.345.201.467.487.467.213 0 .553.157.757.347.296.278.37.295.37.085 0-.144-.058-.262-.128-.262-.123 0-.244-.252-.726-1.51-.12-.317-.225-1.092-.232-1.723l-.013-1.146.815-.787c.448-.432.942-.787 1.097-.788.245-.003.25-.026.03-.168-.139-.09-.29-.155-.337-.142s-.287.054-.534.092m-52.494 1.099q0 1.252.238-.071c.073-.404.05-.638-.062-.638-.097 0-.176.319-.176.709m47.636-.496c.006.117.077.365.157.552.121.285.147.251.157-.212.006-.304-.065-.553-.157-.553-.093 0-.164.096-.157.213m-52.166 2.17c-.05.425-1.356 1.189-2.035 1.189-.345 0-.496.124-.667.552-.121.304-.304.706-.405.893l-.369.68c-.102.188-.227.379-.278.426-.05.046-.53.715-1.065 1.486-.934 1.345-.97 1.433-.859 2.176.073.487.186.74.306.682.105-.051.324-.14.487-.197.163-.058.295-.173.295-.256 0-.082.075-.15.165-.15.22 0 1.828-1.594 2.573-2.55.52-.67 1.117-1.736 1.813-3.242.11-.24.17-.776.134-1.19-.036-.416-.08-.64-.095-.5m56.887.638c-.002.399.071.877.164 1.063l.338.676c.093.186.169.453.169.595s.076.257.169.257.169.096.169.213.19.435.422.707.422.545.422.608c0 .21 2.464 2.724 2.669 2.724.111 0 .202.068.202.15 0 .083.133.198.296.256s.379.145.482.196c.117.056.228-.207.295-.698.103-.756.066-.849-.857-2.175-.53-.762-1.023-1.41-1.096-1.442-.073-.031-.133-.134-.133-.229s-.142-.375-.315-.624a5.5 5.5 0 0 1-.541-1.089c-.182-.516-.31-.637-.666-.637-.569 0-1.789-.594-2.011-.978-.137-.237-.173-.148-.178.427m3.914.125c-.287.126-.361.26-.282.51.058.188.149.532.202.766s.142.463.197.51.185.238.287.425c.461.849.666 1.197.753 1.276.052.047.349.487.662.978.312.49.677.893.811.893.321 0 .199-.29-.649-1.548-.863-1.28-1.378-2.413-1.5-3.3-.087-.634-.119-.668-.481-.51m-65.055.457c-.002.688-.587 1.99-1.51 3.36-.853 1.264-.967 1.54-.634 1.54.373 0 2.345-3.154 2.798-4.476.25-.726.255-.708-.272-.87-.34-.106-.38-.06-.382.446m8.138 1.083c-.016.191-.107.426-.2.52-.506.51-.493 12.884.014 13.408.086.09.156.486.156.883s.062.76.137.806c.192.12.05-1.917-.175-2.504-.27-.705-.246-11.417.026-11.747.115-.139.174-.562.137-.98-.036-.404-.079-.578-.095-.386m49.194.671c.514 4.328.436 10.772-.175 14.621-.05.311-.02.442.076.34.085-.09.202-.547.26-1.015s.188-1.5.292-2.296c.38-2.904.181-11.142-.29-12.013-.262-.484-.263-.483-.163.363m4.493 1.715c.008.198.048.239.102.103.049-.123.043-.27-.013-.326s-.096.044-.089.223M32.921 39.04c-.358.361.07 1.758.54 1.758.105 0 .192.076.192.17 0 .093.361.158.802.144.547-.017.646-.049.312-.099-.69-.103-.945-.427-.945-1.206 0-.457-.086-.707-.267-.777-.344-.133-.495-.13-.634.01m71.357.09c-.111.113-.202.463-.202.778 0 .681-.278 1.005-.946 1.105-.435.066-.421.077.13.1 1.208.049 2.272-1.011 1.837-1.83-.212-.4-.517-.456-.819-.152M31.7 40.68c-.196.514.088 1.803.44 1.992.941.508.635 1.863-.619 2.732l-.739.512v1.369c0 1.122-.064 1.46-.358 1.875-.25.353-.305.561-.182.685.122.124.116.314-.02.625-.33.754-.548.872-1.6.872-.858 0-1.067-.065-1.448-.448-.245-.247-.445-.553-.445-.68 0-.363-.272-.274-.572.187-.368.566-.351.663.234 1.308.527.58.626.899.338 1.078-.093.058-.169.254-.169.436 0 .181-.076.33-.169.33s-.169.116-.169.257-.088.4-.195.573c-.31.5-.062.87.583.87.92 0 1.301.556 1.301 1.895v1.108l.507-.075.506-.075v-2.444l-.602-.22c-1.05-.382-1.627-1.977-1.012-2.793.2-.266.282-.278.585-.087.195.122.354.28.354.351 0 .2 1.16.153 1.56-.062.92-.496 1.173-.967 1.39-2.584.311-2.32.684-2.96 1.582-2.723.29.076.365.021.365-.266 0-.2.066-.495.148-.658l.697-1.4c.648-1.303 1.893-3.125 2.585-3.785.496-.472.393-.61-.223-.297l-.671.34c-.473.24-2.298.211-2.747-.043a3.7 3.7 0 0 1-.75-.63c-.333-.37-.387-.383-.485-.124m73.964.166a3.2 3.2 0 0 1-.699.59c-.452.253-2.276.282-2.75.042l-.67-.34c-.616-.313-.719-.175-.223.297.692.66 1.936 2.482 2.584 3.784l.698 1.401c.081.163.147.456.147.651 0 .304.071.34.488.248.408-.09.543-.029.814.37.439.642.725 1.704.725 2.687 0 1.411.949 2.466 2.218 2.466.329 0 .702-.147.938-.37.386-.365.397-.366.639-.043.628.836.064 2.427-.997 2.813l-.603.22v2.444l.504.075.504.074-.016-1.087c-.02-1.364.383-1.915 1.402-1.915.572 0 .646-.047.646-.415 0-.228-.076-.462-.169-.52s-.169-.254-.169-.435c0-.182-.076-.33-.169-.33s-.169-.149-.169-.33-.076-.378-.169-.436c-.299-.186-.18-.554.338-1.048.569-.54.594-.65.296-1.297-.221-.48-.634-.628-.634-.229 0 .128-.2.434-.445.68-.381.384-.59.449-1.447.449-1.03 0-1.265-.118-1.639-.822-.158-.298-.161-.447-.011-.629.153-.185.119-.348-.157-.738-.283-.4-.354-.753-.354-1.774 0-1.347.035-1.273-1.097-2.286-.789-.706-1.02-1.88-.449-2.288.451-.322.702-.88.702-1.561 0-.751-.195-.88-.607-.398m-75.2 2.375c-.011.164-.096.298-.189.298-.092 0-.168.153-.168.34s-.06.34-.134.34c-.073 0-.653 1.052-1.288 2.338s-1.22 2.472-1.302 2.634c-.206.414-.184.64.065.64.116 0 .312-.325.433-.723.424-1.385 2.24-5.139 2.622-5.42.079-.058.107-.249.062-.425-.071-.28-.084-.283-.101-.022m7.104.384c-.203.235-.369.536-.369.67s-.076.291-.168.35c-.093.057-.17.559-.17 1.115 0 .784.057 1.01.254 1.01.14 0 .253-.082.253-.182 0-.425.982-1.008 1.698-1.008.468 0 .515-.048.467-.468-.044-.387-.146-.477-.59-.52-.479-.047-.547-.123-.648-.723-.131-.785-.231-.819-.727-.244m62.085.211c-.049.586-.1.645-.644.723-.494.071-.6.162-.644.553-.048.42-.001.468.466.468.716 0 1.698.583 1.698 1.008 0 .1.114.182.253.182.197 0 .254-.226.254-1.01 0-.556-.076-1.058-.169-1.116s-.169-.215-.169-.349c0-.264-.656-1.096-.865-1.096-.07 0-.151.287-.18.637m7.631-.57c0 .052.189.42.419.82.739 1.287 2.209 4.451 2.374 5.115.064.255.178.502.254.55.23.142.353-.225.185-.55a100 100 0 0 1-.842-1.75c-.824-1.741-1.584-3.126-1.756-3.204-.07-.031-.127-.17-.127-.31s-.114-.367-.253-.508c-.14-.14-.254-.213-.254-.162m-75.953.527c-.116.133-.211.288-.211.346s-.215.424-.477.815-.766 1.323-1.12 2.071c-1.482 3.132-1.562 3.486-.786 3.486.54 0 .698-.233.584-.86-.058-.32.043-.494.439-.755.504-.334.514-.368.515-1.743 0-.822.07-1.403.17-1.403.092 0 .168-.11.168-.244s.343-.527.762-.873c.603-.497.722-.678.57-.861-.237-.29-.346-.285-.614.021m74.621-.022c-.152.184-.033.365.57.862.419.346.762.739.762.873s.076.244.169.244c.099 0 .169.581.17 1.403 0 1.369.012 1.411.506 1.743.503.338.661.819.336 1.021-.273.17.263.595.749.595.715 0 .603-.478-.797-3.402-.38-.795-.734-1.484-.786-1.53-.051-.047-.188-.258-.305-.468-.527-.956-.645-1.149-.832-1.354-.25-.276-.305-.274-.542.014m-71.038 6.273c-.27.795-.448 1.782-.53 2.917-.08 1.103-.028 1.366.47 2.353.083.162.15.555.15.872 0 .924.425 1.747 1.008 1.951.603.212.667.646.174 1.179-.186.2-.338.404-.338.45 0 .24.79.78 1.142.78.566 0 .937.44.961 1.14.017.475.12.65.505.854.563.296 1.661.201 2.543-.22.569-.272 1.436-1.387 1.436-1.846 0-.137.076-.296.168-.354.098-.06.17-.952.17-2.095 0-1.548-.074-2.192-.329-2.895-.68-1.874-1.786-2.748-3.476-2.748-1.283 0-1.82.298-2.235 1.241-.28.636-.264 1.148.055 1.79.373.754.529.794.828.211.46-.894 1.41-1.132 2.14-.536.32.262.396.48.383 1.106-.024 1.117-.94 1.97-2.116 1.97-.43 0-1.428-.45-1.96-.886-.784-.642-.976-2.824-.363-4.137.197-.422.653-1.022 1.012-1.331.656-.566.692-.788.128-.788-.166 0-.621-.306-1.012-.68-.39-.375-.727-.68-.747-.68s-.096.171-.167.382m67.365.098c-.345.442-.788.728-1.48.954-.282.092-.241.173.338.673.362.313.83.892 1.039 1.287.65 1.23.462 3.565-.342 4.222-.543.445-1.534.887-1.988.887-.793 0-2.019-.824-2.019-1.357 0-.152-.07-.349-.154-.438-.094-.098-.045-.393.126-.753.518-1.089 1.803-1.133 2.418-.083.387.661.514.644.893-.12.354-.716.332-1.17-.097-1.978-.437-.826-.891-1.054-2.103-1.054-1.522 0-2.592.753-3.264 2.296-.123.28-.29.643-.372.806-.208.411-.19 4.506.02 4.636.093.058.169.217.169.354 0 .46.867 1.574 1.435 1.846 1.465.7 3.249.401 3.023-.505-.151-.61.326-1.27.918-1.27.404 0 1.21-.518 1.21-.779 0-.047-.152-.25-.338-.45-.493-.533-.429-.967.175-1.179.583-.205 1.007-1.028 1.007-1.956 0-.32.158-.892.351-1.273.289-.57.336-.904.268-1.906-.107-1.59-.512-3.354-.765-3.331-.059.005-.269.217-.468.47m-68.275.469c.008.198.048.238.102.102.049-.122.043-.269-.013-.325-.056-.057-.096.043-.089.223m10.653.58c0 .235.038.33.085.213a.66.66 0 0 0 0-.425c-.047-.117-.085-.021-.085.213m-4.587.413c2.218.617 3.422 1.785 4.4 4.265.48 1.22.478 3.402-.005 4.592-.48 1.181-.718 1.593-1.213 2.102-.601.618-.913.772-2.337 1.158-.778.211-1.08.217-1.858.037-.51-.118-1.116-.334-1.344-.48-.24-.154-.786-.266-1.29-.266-.997 0-1.588-.39-1.588-1.047 0-.5.046-.497.607.026.52.485.99.542 1.364.166.287-.29.189-.761-.159-.761-.525 0-1.164-.468-1.435-1.052-.203-.436-.42-.644-.709-.68-.713-.092-2.18-2.35-1.526-2.35.274 0 .194-.647-.126-1.022a2.6 2.6 0 0 1-.419-.725c-.067-.208-.092.655-.056 1.917.063 2.147.325 3.654.775 4.462.09.163.164.411.164.553s.076.258.17.258c.092 0 .168.1.168.222 0 .123.135.372.3.553s.466.567.67.858c.203.29.797.824 1.32 1.187.886.614 1.039.661 2.243.687.985.022 1.193-.01.871-.135-.596-.23-.202-.41 1.223-.56.626-.065 1.181-.189 1.234-.275s.263-.162.466-.167l.37-.011-.38-.154c-.435-.176-.51-.505-.115-.505.322 0 1.56-.85 1.984-1.36.727-.878 1.333-2.406 1.54-3.887.058-.408.211-.948.341-1.2.152-.297.182-.548.082-.706-.084-.135-.155-.422-.156-.639-.005-.67-1.093-2.803-1.784-3.495-.704-.705-1.869-1.3-3.16-1.613-1.075-.26-1.596-.222-.632.047m57.42-.072c-.226.146-.226.163 0 .15.139-.007.443-.075.675-.15l.422-.136-.422-.015c-.233-.007-.536.06-.676.15m-2.034.595c-1.4.71-2.523 2.139-3.006 3.827l-.341 1.19c-.077.269-.01.724.18 1.235.167.445.303.996.303 1.225 0 .418.044.56.61 1.962.544 1.35 2.062 2.891 2.848 2.891.389 0 .308.33-.123.505-.295.12-.313.156-.082.165.164.005.43.088.591.182s.781.228 1.377.297c1.088.127 1.555.464.826.596-.215.04.23.062.99.052 1.306-.019 1.427-.053 2.311-.667.901-.624 2.304-2.229 2.304-2.634 0-.108.076-.197.169-.197s.169-.148.169-.33c0-.181.067-.371.149-.422s.191-.266.243-.478c.488-1.979.61-2.818.616-4.21l.005-1.614-.422.459c-.421.457-.574 1.153-.253 1.153.689 0-.82 2.262-1.568 2.35-.315.037-.459.153-.459.37 0 .377-1.13 1.362-1.563 1.362-.393 0-.561.442-.292.767.311.379.905.306 1.417-.172.561-.523.607-.525.607-.026 0 .657-.59 1.047-1.587 1.047-.498 0-1.055.113-1.291.262-1.583 1.003-3.972.705-5.451-.679-.689-.644-1.466-2.134-1.466-2.809 0-.225-.083-.624-.184-.887-.136-.354-.13-.791.026-1.67.413-2.334 1.738-4.344 3.399-5.155.701-.342.71-.355.221-.346-.278.006-.852.185-1.273.399m-63.571.475c-.072.168-.084.353-.026.411.171.173.31-.07.23-.405-.07-.297-.078-.297-.204-.006m73.879.11c0 .193.076.35.169.35s.169-.11.169-.245c0-.134-.076-.292-.169-.35s-.169.053-.169.245m-80.099.414c-.423.97-.368 1.574.064.702.185-.374.311-.834.28-1.02-.044-.265-.12-.195-.344.318m86.179-.266c0 .17.143.61.318.978.435.918.593 1.745.382 2-.12.146-.119.53.003 1.227.451 2.592.337 6.891-.211 7.942a1.6 1.6 0 0 0-.154.628c0 .183-.076.38-.169.438s-.169.253-.169.435-.057.331-.127.332c-.069.001-.271.307-.449.68-.177.372-.652 1.067-1.056 1.543-1.152 1.36-1.268 2.481-.128 1.244 2.393-2.598 3.578-6.011 3.39-9.772-.169-3.402-1.06-7.983-1.551-7.983-.044 0-.079.139-.079.309m-81.304.36c-.174.194-.42.353-.544.353s-.227.076-.227.17c0 .093-.423.17-.939.17-1.01 0-1.074.163-.233.6.452.236.545.232 1.045-.043.302-.166.784-.34 1.072-.387.512-.083.52-.098.333-.65l-.19-.565zm76.346.046c-.177.669-.122.817.304.817.227 0 .673.155.992.344.626.372 1.184.289 1.621-.241.202-.245.127-.273-.725-.273-.522 0-.949-.077-.949-.17s-.09-.17-.201-.17c-.11 0-.366-.157-.569-.35l-.369-.348zm-.691 1.455c.072.163.164 1.128.207 2.144.088 2.116-.149 3.664-.809 5.296l-.362.893c-.124.304-.282.553-.352.553s-.128.096-.128.212c0 .117-.198.443-.439.723-.242.28-.527.625-.633.765-.107.14-.482.504-.834.808-.351.304-.529.553-.396.553.228 0 1.505-.608 1.88-.895l.655-.497c.268-.203.818-.822 1.224-1.376.561-.768.712-1.106.634-1.418-.06-.24-.006-.527.128-.69.179-.22.184-.297.019-.353-.116-.04-.211-.261-.211-.494a1.95 1.95 0 0 0-.183-.766c-.132-.248-.132-.472 0-.797.101-.248.222-1.323.27-2.386.08-1.827.065-1.952-.28-2.254-.455-.397-.556-.403-.39-.021m-81.058.255c-.085.412-.186.99-.454 2.593-.287 1.718-.369 4.848-.153 5.868.626 2.963 1.639 5.081 3.285 6.87.335.364.653.618.707.564.19-.19-.281-1.233-.823-1.822-.301-.327-.656-.806-.788-1.063-.131-.257-.302-.468-.38-.468-.077 0-.14-.153-.14-.34s-.076-.34-.169-.34-.169-.138-.169-.306-.062-.379-.14-.468c-.13-.152-.26-.566-.69-2.222-.227-.87-.239-5.041-.017-5.848.157-.57.198-1.383.14-2.763-.03-.728-.096-.807-.21-.255m6.034-.139c-.246.283-.145 4.152.116 4.415.22.22.22.902.002 1.038-.093.058-.17.324-.17.592s-.094.518-.21.557c-.165.056-.161.133.019.352.134.164.187.452.127.691-.123.495 1.05 2.204 1.946 2.835.312.22.605.441.652.493.159.175 1.551.858 1.75.858.11 0-.354-.575-1.03-1.277-.674-.702-1.227-1.391-1.227-1.53 0-.14-.058-.254-.129-.254-.144 0-.62-1.049-.96-2.11-.503-1.58-.648-2.849-.556-4.87.052-1.118.044-2.03-.017-2.027s-.202.11-.313.237m-.788.351c.054.14.127.255.164.255.036 0 .066-.114.066-.255 0-.14-.073-.255-.163-.255s-.12.115-.067.255m76.904.043c.001.17.057.225.128.128.07-.094.195-.228.279-.298s.026-.128-.128-.128a.285.285 0 0 0-.279.298m-74.224.04c-.056.093.053.337.244.543.37.4.495 1.67.165 1.67-.1 0-.067.115.072.255.14.14.373.255.52.255.172 0 .264.154.264.438 0 .489.413 1.002.675.839.245-.153.21-.375-.119-.762-.342-.403-.716-1.584-.727-2.3-.013-.832-.764-1.476-1.094-.938m70.85.161c-.097.181-.176.545-.176.808-.002.808-.347 1.817-.781 2.28-.363.388-.382.469-.158.656.206.172.304.164.513-.047.142-.143.258-.42.258-.617s.133-.409.295-.47c.387-.148.799-.558.561-.558-.33 0-.204-1.27.166-1.67.19-.206.3-.45.243-.543-.174-.284-.737-.186-.921.161m-60.505.352c.203 1.05.222 3.189.035 3.823-.322 1.087-1.057 2.479-1.496 2.828-.484.386-.41.407.26.07.788-.396 1.579-1.456 1.579-2.117 0-.183.076-.38.169-.438.092-.057.168-.708.168-1.445s-.076-1.388-.168-1.446-.17-.33-.17-.605-.07-.5-.156-.5c-.087 0-.19-.134-.23-.298s-.037-.106.009.128m51.061-.223c-.01.205-.096.42-.188.478-.093.058-.17.287-.17.51s-.075.452-.168.51c-.232.144-.213 2.218.026 2.964.48 1.495.89 2.081 1.778 2.542.556.289.57.237.075-.295-.475-.513-1.026-1.57-1.349-2.587-.246-.778-.252-3.431-.008-3.677.102-.102.149-.328.104-.502-.068-.266-.083-.257-.1.057m-56.35.425c-.086.27-.02.452.241.665.483.393.453.493-.147.493-.279 0-.507-.076-.507-.17 0-.093-.171-.17-.38-.169-.348.001-.34.023.104.255.698.367 1.342.316 1.767-.14.447-.48.457-.66.058-1.025-.44-.401-.996-.357-1.137.09m60.5-.069c-.378.421-.36.586.105 1.028.407.384.722.499.536.194-.06-.096.069-.32.285-.5.319-.263.358-.382.207-.632-.258-.428-.79-.47-1.132-.09m-72.3.76c-.625 3.028-.576 6.658.117 8.8.106.328.253.668.327.757.074.09.135.3.135.468s.064.306.142.306.225.186.328.412c.207.457.732 1.119.887 1.119.056 0 .272-.417.482-.927.433-1.053 1.462-2.094 2.22-2.246.602-.122.613-.194.11-.74a4.3 4.3 0 0 1-.631-.977c-.134-.304-.3-.552-.37-.552s-.128-.14-.128-.312-.052-.364-.116-.428c-.175-.177-.555-1.343-.557-1.714-.002-.18-.094-.582-.206-.893-.187-.52-.26-.565-.929-.565h-.726l-.005-1.148c-.006-1.193-.235-1.743-.728-1.743-.15 0-.309.172-.352.383m84.384-.045c-.116.185-.21.836-.21 1.445v1.108h-.726c-.669 0-.742.044-.929.565-.112.31-.203.765-.203 1.01s-.076.493-.169.55c-.092.059-.168.256-.168.438 0 .183-.067.466-.148.628-.69 1.38-.986 1.884-1.322 2.25-.465.507-.489.681-.093.682.802.002 2.562 1.828 2.572 2.668.009.818.557.6 1.173-.466.684-1.184 1.128-2.234 1.29-3.053.226-1.138.274-5.5.072-6.462a100 100 0 0 1-.269-1.319c-.091-.476-.587-.502-.87-.044m-10.512.342c0 .094-.171.179-.38.19-.232.012-.277.048-.116.091.146.04.488-.045.76-.188.449-.236.46-.26.116-.262-.209 0-.38.076-.38.17m-9.045.13c-.124.087-.112.256.04.55l.219.426.002-.553c.003-.602 0-.605-.261-.423m16.177.89c0 .328.035.462.078.298a1.4 1.4 0 0 0 0-.595c-.043-.164-.078-.03-.078.297m-76.84.17c0 .328.035.462.078.298a1.4 1.4 0 0 0 0-.595c-.043-.164-.078-.03-.078.298m59.822.182c-.061.1-.075.218-.031.263.044.044.126-.038.18-.182.115-.3.018-.352-.149-.081m-42.46.933c-.003.285-.097.61-.209.722-.157.159-.101.204.253.204.525 0 .547-.09.21-.873l-.247-.572zm41.915.229c-.266.74-.28.697.235.697.334 0 .4-.052.27-.212-.096-.117-.202-.404-.236-.638-.058-.403-.072-.395-.269.153m-59.64-.054c.008.198.048.239.102.103.049-.123.043-.27-.014-.326s-.095.044-.088.223m.675.51c.008.199.048.239.102.103.05-.122.043-.27-.013-.326s-.096.044-.089.223m61.14.922c-.007.609.027.703.167.46.119-.204.121-.454.008-.764-.154-.426-.168-.403-.175.304m-46.206-.174a.9.9 0 0 0 .068.638c.142.246.175.184.18-.337.005-.705-.086-.815-.248-.3m1.42.222c-.272.21-.735.97-.633 1.038.031.02.485.168 1.009.329.524.16 1.046.405 1.16.543.31.375.505.307.505-.175 0-.634-.608-1.613-1.001-1.613-.1 0-.181-.077-.181-.17 0-.234-.533-.205-.86.048m42.74-.048c0 .093-.08.17-.18.17-.394 0-1.002.979-1.002 1.613 0 .515.067.524.668.093.256-.183.819-.429 1.25-.545s.785-.3.785-.408c0-.313-.86-1.093-1.206-1.093-.173 0-.314.076-.314.17M46.2 63.119c-.192.21-.505.697-.697 1.082-.686 1.377-2.27 2.7-4.165 3.48-1.232.506-4.723.474-5.787-.053-.329-.163-.46-.12-.929.308-.769.701-1.218.924-1.852.917-.622-.006-.991-.237-1.296-.813-.173-.327-.16-.468.074-.829.156-.238.433-.474.617-.522.547-.144-.003-.375-.9-.378-.634-.003-.884.091-1.308.49-.322.303-.525.662-.525.928 0 .239-.088.63-.197.868-.169.374-.145.491.17.827.2.216.365.47.365.563 0 .094.19.338.423.542.448.392.68.484.506.2-.236-.383.123-.505.561-.19.314.224.95.375 2.057.486.882.09 1.727.216 1.877.283.204.09.358-.042.603-.516.466-.904 1.054-1.314 1.592-1.108.291.112.706.088 1.336-.076 1.191-.311 1.346-.302 1.346.082 0 .318-.153.378-1.604.63-1.088.19-1.267.253-1.267.458 0 .116-.202.363-.45.55-.247.185-.534.414-.636.507-1.1 1.004-3.83 1.623-5.753 1.304-1.134-.187-1.36-.083-1.2.555.08.322.218.437.527.437.376 0 .42.07.42.672 0 .37-.097.733-.216.808-.378.239-.87 1.144-.824 1.517.025.2-.079.486-.23.638-.253.255-.197.277.743.277.56 0 1.216.091 1.46.203.343.157.515.157.766 0 .177-.112.466-.203.642-.203a.8.8 0 0 0 .532-.258c.117-.143.487-.387.823-.543.878-.41 1.922-1.081 1.828-1.175-.067-.069-1.24.419-2.356.978a1.7 1.7 0 0 1-.623.147c-.182 0-.377.077-.434.17-.058.094-.324.17-.592.17s-.533.077-.59.17c-.058.094-.48.17-.94.17-1.004 0-1.1-.288-.25-.749.61-.33 1.858-.534 1.7-.277-.081.132.343.026 1.347-.337.739-.267 2.943-1.405 3.236-1.67.17-.156.577-.484.902-.73s.857-.684 1.182-.975c.676-.604.798-.64.874-.26.04.204.208.107.664-.383.335-.36 1.522-1.592 2.638-2.736 1.934-1.983 2.256-2.434 2.48-3.478.191-.88.996-1.285 1.453-.73.412.499-.55 1.846-3.215 4.502-1.538 1.534-2.699 2.992-2.699 3.39 0 .1-.057.182-.128.182-.539 0-1.857 5.408-1.388 5.7.09.056.165.249.165.427 0 .179.165.614.366.968.202.354.539.98.75 1.39.429.838 1.54 2.06 1.872 2.06.12 0 .313.152.429.34.221.356 1.312.498 1.312.17 0-.094.218-.17.486-.17.267 0 .564-.096.66-.213.237-.291.432-1.714.294-2.152-.121-.387-.582-.472-.888-.165-.486.49-1.77-.375-2.282-1.536-.28-.635-.348-1.165-.363-2.822-.011-1.237.071-2.376.21-2.892.204-.765 1.151-2.933 1.374-3.146.049-.047.353-.439.677-.871.953-1.274 2.374-1.957 2.636-1.268.132.345-.23.948-.573.954-.159.003-.437.118-.617.255-.32.244-.32.25.042.25.394 0 .514.418.16.555-.319.124-.665 1.505-.59 2.352.066.749.066.749.095-.144.033-.995.278-1.19.428-.34.312 1.76.312 1.783.003 2.148-.213.25-.504.36-.945.36-.52 0-.638.062-.638.33 0 .183.076.378.168.436s.17.254.17.435c0 .21.115.33.317.33.203 0 .39.198.52.553.47 1.279.875 1.498 2.116 1.148.917-.258 1.1-.55.655-1.045-.255-.285-.313-.608-.3-1.693.007-.738.1-1.629.204-1.98.104-.352.382-1.267.618-2.034.447-1.455.565-2.232.267-1.756-.087.137-.212.195-.28.127-.109-.11.01-.457.462-1.353.082-.162.149-.483.149-.713s.076-.465.169-.522c.093-.058.169-.56.169-1.116 0-.56-.076-1.01-.17-1.01-.092 0-.168.23-.168.51s-.076.51-.169.51-.169.192-.169.425c0 .234-.076.426-.169.426s-.169-.149-.169-.33.076-.378.17-.436c.092-.058.166-.35.163-.648-.004-.45-.034-.492-.177-.245-.095.164-.232.298-.306.298-.18 0-.525-.787-.525-1.198 0-.183-.057-.335-.127-.338s-.264-.195-.43-.427c-.37-.511-.242-.837.23-.583.257.14.327.121.327-.084 0-.148-.147-.261-.338-.261-.366 0-.452-.25-.15-.437.13-.08.117-.16-.043-.262-.36-.23-.567-.18-.94.231m44.56-.231c-.16.102-.173.181-.043.262.301.188.215.437-.15.437-.187 0-.338.104-.338.231q-.001.233.422.15c.232-.044.422-.009.422.08 0 .088-.19.34-.422.56-.233.219-.422.535-.422.701 0 .396-.353 1.169-.534 1.169-.078 0-.142-.115-.142-.255s-.076-.255-.169-.255-.169.225-.169.5.076.547.169.605.169.254.169.436c0 .181-.076.33-.169.33s-.169-.149-.169-.33-.076-.378-.169-.436-.169-.33-.169-.605-.076-.5-.169-.5c-.452 0 .042 3.014.707 4.31.197.383.014.627-.206.277-.264-.42-.194.327.112 1.195 1.138 3.228 1.375 5.627.631 6.377-.396.398-.18.689.7.937 1.24.35 1.646.13 2.116-1.149.13-.355.317-.553.52-.553.202 0 .318-.12.318-.33 0-.181.076-.377.169-.435s.169-.253.169-.435c0-.269-.12-.33-.638-.33-.851 0-1.292-.496-1.152-1.297l.204-1.17c.057-.327.177-.594.267-.594.219 0-.004-1.057-.27-1.276a1.2 1.2 0 0 1-.306-.441c-.08-.216-.01-.255.348-.193.437.076.44.07.111-.191-.186-.148-.468-.272-.627-.275-.354-.007-.675-.563-.536-.928.267-.702 1.633-.05 2.6 1.242.323.432.63.824.681.871.168.153.978 1.935 1.277 2.806.216.632.292 1.42.295 3.062.004 1.965-.04 2.3-.386 3.022-.572 1.192-1.769 1.993-2.252 1.506-.335-.338-.786-.217-.9.241-.13.526.048 1.763.299 2.067.1.122.4.221.668.221.267 0 .486.077.486.17s.266.17.59.17c.382 0 .592-.08.592-.227 0-.126.18-.31.401-.412.673-.31 1.61-1.233 1.915-1.887.158-.341.5-.96.759-1.376.26-.416.471-.928.471-1.138s.08-.43.176-.491c.267-.166.019-2.004-.481-3.567-.24-.748-.497-1.386-.572-1.417s-.136-.204-.136-.383-.076-.326-.169-.326-.169-.082-.169-.182c0-.395-1.149-1.826-2.778-3.46-1.722-1.726-3.301-3.748-3.301-4.227 0-.26.337-.465.761-.465.395 0 .746.5 1.02 1.451.234.808.513 1.173 2.304 3.008a269 269 0 0 1 2.65 2.745c.457.49.624.587.665.383.08-.402.185-.355 1.297.59 1.52 1.29 1.595 1.347 1.775 1.347.092 0 .167.062.167.137 0 .179 1.612 1.054 1.941 1.054.14 0 .254.076.254.17s.115.17.256.17.388.066.549.147c.511.257 1.396.51 1.314.376-.152-.248 1.112-.054 1.69.259.849.46.752.749-.252.749-.459 0-.882-.077-.939-.17s-.323-.17-.591-.17-.534-.077-.591-.17c-.058-.094-.253-.17-.435-.17-.181 0-.462-.067-.623-.149-.827-.417-1.93-.872-2.113-.87-.269 0 .616.602 1.497 1.017.379.179.788.443.907.588a.8.8 0 0 0 .537.264c.175 0 .464.091.642.203.25.157.422.157.765 0 .244-.112.907-.203 1.475-.203.988 0 1.019-.013.752-.311-.154-.171-.28-.554-.28-.85 0-.297-.076-.54-.169-.54s-.169-.114-.169-.254-.152-.349-.337-.466c-.241-.15-.338-.396-.338-.852 0-.56.049-.639.404-.639.412 0 .609-.28.609-.866 0-.293-.077-.314-.718-.199-1.184.214-3.354.116-4.242-.191-1.373-.475-3.146-1.67-3.146-2.12 0-.186-.193-.25-1.351-.447-1.362-.232-1.52-.296-1.52-.618 0-.388.154-.395 1.41-.065.735.193 1.06.21 1.323.067.453-.243 1.079.204 1.541 1.1.245.474.399.607.603.517.151-.067.958-.188 1.794-.27s1.697-.24 1.914-.35c.217-.112.634-.205.927-.208.421-.005.582-.112.774-.515.133-.28.347-.615.476-.745a.49.49 0 0 0 .115-.511c-.066-.152-.157-.542-.202-.867-.125-.908-.891-1.536-1.869-1.532-1.045.003-1.331.199-.702.479.557.248.681.59.459 1.265-.371 1.13-2.044 1.064-3.155-.127-.397-.425-.848-.572-.848-.276 0 .48-4.674.502-5.827.028-1.966-.808-3.463-2.075-4.213-3.566-.64-1.272-1.037-1.578-1.589-1.226m-48.187 1.835c.122.05.267.043.323-.013.057-.056-.043-.097-.221-.09-.197.009-.237.05-.102.103m7.632.352.323 1.075c.244.81.232 1.911-.024 2.169-.163.164-.163.279 0 .542.248.4.276 1.806.038 1.954-.258.16-.201.716.084.827.218.084.254-.236.254-2.278 0-2.009.04-2.376.256-2.376.14 0 .406.249.59.553.287.474.335.86.335 2.703 0 1.837.041 2.166.278 2.257.43.166.492-.034.178-.57-.374-.639-.217-1.031.413-1.031.437 0 .474-.039.32-.33a1.8 1.8 0 0 1-.175-.71c0-.4-.276-1.39-.527-1.891-.082-.163-.148-.377-.148-.476 0-.1-.27-.605-.6-1.124-.993-1.564-1.895-2.296-1.595-1.294m36.655.218c-1 1.164-2.036 3.52-2.036 4.631 0 .245-.076.493-.169.55-.328.205-.162.426.32.426.624 0 .78.395.408 1.03-.315.537-.253.737.177.571.237-.091.278-.42.278-2.257 0-1.844.049-2.23.335-2.703.185-.304.459-.553.61-.553.236 0 .268.21.23 1.488-.075 2.497-.024 3.104.26 3.104.282 0 .349-.6.084-.765-.228-.142-.215-1.671.016-1.904.134-.134.134-.282 0-.533-.231-.435-.243-2.014-.016-2.155.093-.058.17-.297.17-.532 0-.234.078-.574.174-.755.316-.594-.22-.367-.841.357m8.234-.57c.122.05.268.043.324-.013s-.044-.097-.222-.09c-.196.009-.236.05-.102.103m-51.91.211c-.337.323-1.544.924-2.268 1.129-.418.118-.626.221-.462.23.63.032 2.327-.567 2.681-.946.348-.373.392-.742.05-.413m5.02.353c0 .234.039.33.085.213a.66.66 0 0 0 0-.425c-.046-.117-.085-.021-.085.212m46.56.059c.373.4 2.05.974 2.766.947.21-.008-.006-.11-.481-.225a7.3 7.3 0 0 1-1.635-.666c-.948-.56-1.136-.576-.65-.056m-61.448 1.803c0 .181-.169.45-.375.595-.361.255-.362.265-.034.265.453 0 1.227-.371 1.33-.638.045-.117-.03-.213-.166-.213s-.248-.076-.248-.17c0-.093-.114-.17-.254-.17-.139 0-.253.149-.253.33m6.21-.207c.303.037.759.037 1.013-.002.254-.04.005-.07-.552-.07-.557.002-.765.033-.461.072m57.925 0c.303.037.76.037 1.013-.002.254-.04.006-.07-.551-.07-.558.002-.765.033-.462.072m6.427.104c-.156.12-.232.289-.169.377.178.25.839.586 1.151.586.263 0 .263-.022.003-.311-.154-.171-.28-.44-.28-.596 0-.335-.309-.36-.705-.056m-15.832.381c.008.199.049.239.102.103.05-.122.043-.27-.013-.326s-.096.044-.089.224m.358 1.347c.003.28.04.375.084.21.043-.166.04-.396-.006-.51-.047-.116-.082.02-.078.3m-39.031.014c.008.198.048.239.102.103.049-.123.043-.27-.013-.326s-.096.044-.089.223m39.369 1.006c.003.281.04.375.084.21.043-.166.04-.395-.007-.51-.046-.116-.08.02-.078.3m-39.693.085c0 .234.038.33.085.213a.66.66 0 0 0 0-.425c-.047-.117-.085-.022-.085.212m-13.907.967c.122.049.268.043.324-.014s-.044-.096-.222-.089c-.197.008-.236.049-.102.103m67.383 0c.122.049.268.043.324-.014s-.044-.096-.222-.089c-.197.008-.237.049-.102.103m-57.867.904c0 .234.038.33.085.213a.66.66 0 0 0 0-.425c-.047-.117-.085-.022-.085.212m11.457.478c0 .1-.266.277-.591.396-.325.118-.591.258-.591.31 0 .24 1.075.56 1.334.398.369-.233.427-.8.11-1.065-.16-.133-.262-.148-.262-.038m25.345.101a.668.668 0 0 0 .172 1.002c.33.209 1.335-.187 1.335-.527 0-.123-.075-.177-.166-.12-.174.108-.862-.197-1.031-.457-.055-.084-.194-.038-.31.102m-28.532.798c-.483.394-.922.413-1.276.057-.242-.243-.266-.23-.266.15 0 .231.142.596.316.812l.316.393.118-.374c.157-.5.706-.484.833.025.058.233.487.658 1.031 1.022.513.343.933.694.933.781 0 .37-.342.31-1.014-.181-.55-.401-.75-.472-.855-.303-.074.122-.107.268-.072.325s-.255.314-.644.571c-.52.342-.843.443-1.215.376l-.507-.09.585.506c.336.29.767.5 1.013.492.236-.007.334-.052.218-.099a.38.38 0 0 1-.211-.327c0-.3.328-.302.717-.004.198.151.296.459.296.933 0 .614-.072.75-.549 1.043-.935.574-2.064.425-2.954-.391l-.378-.347-.317.368c-.174.203-.403.368-.508.368-.306 0-.223.307.219.81.225.256.557.638.737.848s.451.383.603.383.276.072.276.159.209.183.464.212c.502.058.577.357.114.454-.298.062-.861-.179-1.617-.691-.632-.428-.777-.377-.32.113.458.49 1.702 1.111 2.244 1.119.442.006 1.088.445.914.62-.065.066-.37.029-.675-.083-.306-.111-.687-.202-.847-.202-.827 0-2.475-1.277-2.89-2.239-.234-.542-.245-.548-.251-.124-.01.633 1.145 1.885 2.225 2.412.921.45 1.42.595 2.581.747.372.049.748.158.836.242.207.196 1.193.197 1.573 0 .161-.083.64-.317 1.065-.52 1.81-.868 2.859-2.368 2.859-4.091 0-1.596-.54-2.38-1.638-2.38-.568 0-1.607.527-1.71.866-.058.193-.028.198.152.027.123-.117.537-.212.92-.212 1.049 0 1.432.493 1.432 1.843 0 1.025-.023 1.08-.756 1.817-.664.67-.845.761-1.493.761-.63 0-.816-.088-1.29-.611-.516-.572-.552-.691-.552-1.833 0-1.219.226-1.85 1.05-2.933.332-.435 1.45-1.085 1.868-1.085.536 0 .377-.28-.432-.757-.418-.246-.76-.514-.76-.594s-.224-.225-.498-.322c-.274-.096-.635-.339-.802-.54-.505-.605-.776-.677-1.21-.322m31.012.171c-.303.294-.76.61-1.016.7-.255.092-.464.232-.464.313s-.342.348-.76.594c-.811.48-.968.757-.427.757.441 0 1.54.631 1.86 1.069.838 1.144 1.016 1.659 1.016 2.936 0 1.194-.034 1.314-.534 1.867-.454.502-.645.59-1.271.59-.648 0-.829-.092-1.493-.76-.736-.742-.755-.789-.755-1.842 0-.909.061-1.138.39-1.45.443-.418 1.59-.51 1.961-.157.18.171.21.166.152-.027-.107-.356-1.153-.866-1.774-.866-.323 0-.725.16-.997.394-.4.347-.464.548-.536 1.668-.067 1.061-.022 1.39.27 1.968.47.927 1.534 1.952 2.517 2.425.442.212.935.453 1.096.537.397.204 1.435.192 1.565-.019.057-.093.347-.173.643-.177 2.213-.031 5.038-1.917 5.008-3.343-.004-.183-.106-.077-.252.261-.415.962-2.063 2.239-2.89 2.239-.16 0-.54.09-.846.202s-.61.15-.675.084c-.188-.189.486-.615.98-.621.677-.008 1.81-.688 2.419-1.451.854-1.071.89-1.263.074-.405-.778.819-1.798 1.41-2.264 1.312-.454-.094-.37-.393.125-.45.255-.03.464-.126.464-.213 0-.088.122-.159.27-.159.248 0 .687-.405 1.461-1.345.337-.409.382-.696.112-.696-.101 0-.323-.172-.492-.383l-.309-.382-.394.361c-.907.831-2.028.985-2.97.406-.477-.293-.549-.429-.549-1.043 0-.474.098-.782.296-.933.39-.298.718-.296.718.004 0 .133-.095.28-.211.327s.03.092.323.1c.294.006.56-.046.591-.118s.285-.312.563-.534l.507-.403-.48.116c-.334.08-.709.005-1.223-.246-.678-.33-.765-.338-1.01-.091-.454.457-.883.632-1.016.415-.142-.23.56-.818.985-.823.325-.005.365-.14.146-.489-.114-.181-.297-.119-.863.295-.673.49-1.014.552-1.014.181 0-.087.42-.438.932-.78.545-.365.973-.79 1.031-1.023.127-.51.676-.526.834-.025l.118.374.315-.393c.174-.216.316-.53.316-.7 0-.269-.06-.283-.502-.115-.432.164-.573.138-1.011-.188l-.51-.38zm8.842.27c-.011.392.056.76.148.818.191.119.191-.266 0-1.02-.121-.482-.13-.471-.148.202m-49.718.529c-.16.542-.29 1.167-.29 1.387 0 .372.02.381.297.129.576-.525.895-2.502.404-2.502-.066 0-.25.444-.41.986m51.161-.873c-.275.277.076 1.762.553 2.34.317.385.609.078.364-.383a2 2 0 0 1-.185-.773c0-.235-.076-.474-.169-.532s-.169-.254-.169-.435c0-.33-.182-.43-.394-.217m-43.83.95c-.012.554.051.977.147.977.093 0 .169.103.169.228 0 .323.786.644 1.276.52.294-.074.413-.221.413-.51 0-.414-.233-.546-.422-.238-.153.25-.987-.233-1.224-.708a3.4 3.4 0 0 1-.267-.822c-.037-.234-.078.015-.091.553m2.849-.758c0 .466 2.53 2.302 2.948 2.14.392-.152.318-.296-.288-.563-.497-.22-1.535-.954-2.12-1.5-.256-.24-.54-.28-.54-.077m30.67.247c-.263.211-.678.555-.923.766-.246.21-.522.384-.615.386s-.35.144-.57.314c-.355.275-.368.323-.111.422.171.066.483-.027.764-.229.262-.187.556-.34.654-.34.218 0 1.542-1.326 1.542-1.545 0-.253-.232-.182-.741.226m3.475-.033c-.051.71-.409 1.292-.91 1.483-.278.105-.51.115-.566.024-.181-.295-.413-.154-.413.251 0 .29.119.437.412.511.48.121 1.277-.194 1.277-.505 0-.118.08-.241.179-.274.108-.037.153-.431.115-.992-.034-.513-.077-.737-.094-.498m-49.477.427c-.212.228-.32.414-.24.414s.324-.191.542-.425.326-.42.24-.415-.33.197-.542.425m19.421-.01c.342.233.72.424.839.424s-.063-.191-.405-.425c-.341-.234-.719-.425-.838-.425-.12 0 .063.191.404.425m22.767.007c-.772.55-.337.542.466-.008.342-.234.509-.421.371-.417s-.514.196-.837.425m19.573-.045c.225.254.477.462.561.462.163 0-.096-.276-.633-.675-.248-.183-.228-.127.072.213m-43.522.377c.342.234.682.425.757.425s.356.192.627.426c.27.234.611.425.76.425.401.001 1.31.607 1.617 1.077.465.715.83 2.466.613 2.944a2.4 2.4 0 0 0-.188.836c0 .23-.067.552-.15.715s-.367.753-.633 1.311c-.31.652-.923 1.46-1.71 2.254-.674.68-1.183 1.237-1.131 1.237.206 0 1.88-1.17 2.336-1.633.632-.642 1.794-2.365 1.794-2.66 0-.127.078-.309.172-.403s.22-.921.28-1.836c.124-1.911.223-2.025 1.289-1.488.556.281 1.109.372 2.566.425 5.438.195 9.295.022 10.258-.46.96-.48 1.076-.347 1.187 1.364.173 2.67 1.309 4.588 3.62 6.112.482.318.916.579.962.579s-.467-.556-1.142-1.235c-1.116-1.124-1.611-1.9-2.309-3.612-.368-.905-.582-2.566-.348-2.711.101-.063.184-.303.184-.533 0-.891.98-2 2.015-2.28.378-.103.688-.246.688-.318s.466-.395 1.036-.716c.948-.535.997-.59.573-.64a1.04 1.04 0 0 0-.836.297c-.205.195-.463.353-.573.353s-.2.06-.2.135c0 .174-1.77 1.064-3.8 1.91-.58.243-1.648.374-1.534.189.096-.157-1.08.094-2.42.518-.318.1-1.838.185-3.378.189-2.699.006-3.315-.068-5.466-.662-.453-.125-.763-.15-.705-.056.064.105-.167.124-.628.051-.402-.063-.756-.18-.787-.259-.03-.079-.203-.144-.382-.144-.18 0-.458-.07-.62-.156-.16-.086-.881-.446-1.601-.8s-1.31-.705-1.31-.78c0-.074-.101-.135-.226-.135s-.365-.153-.533-.34c-.18-.2-.52-.34-.826-.34h-.52zm2.297.371c.121.05.267.043.323-.013s-.043-.097-.221-.09c-.197.009-.237.05-.102.103m20.772 0c.122.05.267.043.323-.013s-.043-.097-.221-.09c-.197.009-.237.05-.102.103m-20.097.34c.122.05.268.044.324-.013s-.044-.096-.222-.09c-.197.01-.237.05-.102.104m19.421 0c.122.05.268.044.324-.013s-.044-.096-.222-.09c-.197.01-.237.05-.102.104m-42.333.41c-.22.178-.334.322-.254.32.206-.008.811-.487.724-.574-.04-.04-.251.074-.47.253m8.336-.185c-.058.093-.024.17.074.17a.175.175 0 0 0 .179-.17c0-.094-.033-.17-.075-.17-.04 0-.12.076-.178.17m56.659-.062c0 .143.547.56.743.566.084.003-.023-.147-.237-.334-.415-.363-.506-.405-.506-.232M35.68 76.615c-.697.493-1.606 1.074-2.02 1.29-.74.387-.745.394-.268.45.266.03.655.169.865.307.23.152.669.231 1.106.199.655-.048.758-.118 1.07-.733.437-.863.757-1.123 1.133-.92.404.218.429.205.52-.27.08-.425-.098-.578-.295-.256-.167.272-.64.204-.534-.076q.094-.247-.15-.152c-.135.052-.245.146-.245.21 0 .063-.226.249-.5.413-.276.163-.623.42-.772.57-.182.183-.325.216-.441.1-.163-.164.138-.468 1.544-1.558.232-.18.384-.36.338-.399-.047-.04-.655.332-1.352.825m65.187-.831c0 .075.205.29.456.475 1.086.804 1.584 1.327 1.421 1.492-.11.11-.259.075-.437-.104a4.7 4.7 0 0 0-.771-.57c-.275-.164-.5-.35-.5-.413 0-.064-.118-.161-.262-.217s-.219-.03-.167.055c.191.31-.276.377-.595.086-.371-.339-.397-.283-.16.345.134.356.226.411.467.282.39-.21.703.039 1.146.913.312.615.415.685 1.069.733.467.034.877-.047 1.152-.229.235-.155.608-.247.83-.204.543.105.511-.103-.06-.394-.256-.13-.898-.526-1.427-.88-.529-.353-1.042-.642-1.14-.642s-.18-.057-.183-.127c-.007-.177-.839-.772-.839-.602m-47.687.338c-.19.19-.114.312.377.604.454.27.7.246.7-.068 0-.193-.949-.665-1.077-.536m-3.146.21c0 .088.075.207.167.264.096.06.124-.009.067-.16-.113-.295-.234-.349-.234-.104m37.693.265c.004.28.041.375.084.21.043-.166.04-.396-.006-.51-.046-.116-.081.02-.078.3m7.102.026c-.208.295-.38.666-.38.824s-.141.325-.314.37c-.174.046-.459.402-.634.792-.21.469-.506.798-.873.972-.52.245-1.05.965-1.05 1.423 0 .298-.402 1.117-.548 1.119-.07 0-.127.114-.127.251 0 .31-1.66 1.961-1.97 1.961-.124 0-.226.077-.226.17s-.114.17-.255.17c-.14 0-.388.07-.549.154-1.444.756-3.59.62-5.55-.351-2.583-1.28-3.658-2.948-3.683-5.713-.006-.678-.049-1.232-.095-1.231-.466.008-.677 2.612-.303 3.728.295.88 1.563 2.648 2.292 3.195.346.26.666.519.713.576.14.173 1.093.634 2.14 1.033.792.303 1.33.375 2.757.372 1.946-.005 3.078-.269 4.373-1.019 1.258-.728 1.362-.859 1.18-1.479-.166-.573-.054-1.675.23-2.24.49-.978 1.48-1.49 1.48-.766 0 .247.112.34.41.34.877 0 1.495-1.671 1.413-3.826l-.05-1.361zM42.632 77.92c.085 1.964.607 3.235 1.365 3.323.374.043.464-.015.464-.298 0-.475.518-.457.976.034.756.81 1.118 2.425.714 3.185-.204.383.191.742 1.55 1.408 1.438.705 2.304.89 4.106.878 2.624-.017 4.342-.763 6.22-2.7 1.31-1.353 1.796-2.483 1.8-4.193.001-.684-.101-1.33-.263-1.658-.147-.295-.291-.537-.322-.537s-.017.442.032.981c.113 1.257-.292 2.881-.963 3.864-1.75 2.562-5.92 3.876-8.317 2.622a1.4 1.4 0 0 0-.548-.154c-.141 0-.256-.076-.256-.17 0-.093-.097-.17-.215-.17-.119 0-.594-.369-1.056-.82-.83-.809-1.366-1.7-1.798-2.982-.16-.478-.381-.73-.814-.935-.41-.193-.693-.503-.917-1.002-.178-.398-.422-.723-.54-.723-.12 0-.369-.345-.554-.766-.543-1.237-.743-.993-.664.813m5.894-.843c-.007.264.097.59.23.723.33.332.469.305.284-.055a12 12 0 0 1-.328-.723l-.175-.425zm40.616-.004c-.075.261-.09.523-.032.58.188.191.3-.08.234-.573l-.064-.483zm-38.77.305c0 .22.642.835.87.835.079 0 .143-.077.143-.17s-.061-.17-.137-.17c-.075 0-.303-.157-.506-.347s-.37-.257-.37-.148m36.998-.087c-.007.101-.204.286-.436.412-.41.22-.568.51-.279.51.284 0 .902-.67.816-.885-.048-.121-.094-.138-.101-.037m-35.478 1.262c0 .189.112.34.253.34.14 0 .253-.151.253-.34s-.112-.34-.253-.34c-.14 0-.253.151-.253.34m33.607 0c0 .189.113.34.253.34s.254-.151.254-.34-.113-.34-.254-.34c-.14 0-.253.151-.253.34m-30.185.47c-.396.487-.452.837-.277 1.72.09.455.18.531.618.531.288 0 .758-.19 1.076-.434.448-.344.565-.555.565-1.018 0-1.23-1.229-1.724-1.982-.798m25.56-.05c-.692 1.063.057 2.301 1.393 2.301.411 0 .504-.083.593-.531.17-.86.126-1.174-.244-1.696-.464-.656-1.34-.694-1.742-.075m-17.37.04c.21.04.514.04.676-.003.161-.043-.01-.076-.382-.074s-.504.037-.294.077m10.302 0c.21.04.514.04.675-.003s-.01-.076-.381-.074c-.372.002-.504.037-.294.077m-11.497.603c-.15.913-.302 1.554-.452 1.913-.078.187-.243.59-.366.893s-.282.553-.352.553-.128.115-.128.255c0 .321.167.322.617.005.254-.179.943-.263 2.442-.297 1.832-.042 2.095-.085 2.145-.346.06-.317-.403-.429-.505-.121-.037.111-.77.158-1.999.127l-1.94-.049.676-.31c.458-.211.879-.28 1.309-.213 1.72.267 1.908.27 2.192.044.162-.13.314-.411.338-.627.045-.392.04-.393-1.837-.353-1.169.024-1.924-.028-1.991-.139-.183-.297.69-.406 2.262-.282.91.072 1.532.053 1.593-.046.133-.216-.083-1.295-.217-1.087-.124.193-.953.376-2.224.49-.756.068-.987.027-1.182-.212-.188-.229-.195-.312-.031-.368.117-.04.17-.142.117-.227-.189-.307-.378-.146-.468.397m2.418-.383c-.14.09-.538.166-.887.168-.348.001-.633.079-.633.172 0 .094.337.17.75.17.412 0 .797-.076.854-.17.058-.093.294-.17.527-.17.238 0 .377-.074.318-.17-.132-.215-.599-.215-.93 0m3.362-.127c-.008.023-.046.941-.085 2.04-.045 1.273-.008 1.999.1 1.999.104 0 .17-.787.17-2.041 0-1.123-.039-2.04-.085-2.04s-.091.018-.1.042m4.315.138c-.054.088.054.16.24.16s.385.076.442.17c.13.21 1.605.226 1.605.017 0-.085-.323-.19-.718-.234a10 10 0 0 1-1.094-.177c-.207-.053-.42-.024-.475.064m2.718-.025c-.053.085 0 .188.116.227.167.056.162.133-.02.355-.26.318-1.95.407-2.132.112-.057-.093-.366-.17-.685-.17s-.581-.076-.581-.17c0-.093-.08-.17-.18-.17-.103 0-.156.269-.126.638l.052.638h1.858c1.126 0 1.858.067 1.858.17 0 .101-.749.18-1.858.195-1.702.024-1.862.054-1.908.358-.032.207.115.441.388.622.388.256.582.266 1.655.092 1.086-.177 1.288-.164 1.892.118l.675.316-1.94.048c-1.23.03-1.962-.016-1.999-.127-.101-.308-.565-.196-.504.121.05.261.312.304 2.144.346 1.5.034 2.188.118 2.442.297.45.317.617.316.617-.005 0-.14-.057-.255-.128-.255-.07 0-.227-.25-.348-.553-.122-.304-.28-.668-.353-.808s-.234-.772-.358-1.403c-.215-1.09-.362-1.343-.577-.992m-7.966 1.97c0 1.123.027 1.56.06.971.033-.588.033-1.506 0-2.04-.034-.535-.06-.053-.06 1.069m1.51-1.685c-.11.287.07 3.484.204 3.618.213.215.313-.312.383-2.02.068-1.659.045-1.869-.204-1.869a.45.45 0 0 0-.383.27m.958 1.59c0 1.048.074 1.906.168 1.965.108.067.153-.593.126-1.86-.022-1.081-.098-1.965-.167-1.966-.07 0-.127.837-.127 1.86m.983-.288c-.03.866-.004 1.765.058 1.999.062.233.119-.474.127-1.574.008-1.099-.018-1.998-.058-1.998s-.097.708-.127 1.573m-21.755-1.253c0 .192.27.409 1.06.853.72.403.798.423.798.2 0-.177-1.448-1.203-1.697-1.203-.089 0-.16.067-.16.15m39.602.04c-.093.095-.42.322-.726.504-.77.458-.517.743.268.302.78-.437 1.05-.655 1.05-.846 0-.201-.382-.175-.592.04m-40.784.15c0 .094.071.17.159.17.087 0 .206-.076.263-.17.058-.093-.014-.17-.159-.17s-.263.077-.263.17m42.05 0c0 .094.115.17.254.17.14 0 .254-.076.254-.17 0-.093-.114-.17-.254-.17s-.253.077-.253.17m-42.543.27c.008.198.048.238.102.102.048-.122.042-.27-.014-.325-.056-.057-.096.043-.088.223m43.402 0c.008.198.048.238.102.102.048-.122.042-.27-.014-.325-.056-.057-.096.043-.088.223m-42.402.326c0 .14.073.255.163.255s.12-.115.067-.255c-.054-.14-.128-.255-.164-.255s-.067.114-.067.255m13.985 3.092c.122.05.267.043.324-.013.056-.057-.044-.097-.222-.09-.197.008-.237.049-.102.103m13.162-.004a.65.65 0 0 0 .422 0c.116-.047.021-.085-.211-.085s-.327.038-.211.085m-24.738.686c.165.043.393.04.507-.006.114-.047-.02-.082-.299-.079s-.372.042-.208.085m36.31 0c.164.043.392.04.506-.006.114-.047-.02-.082-.299-.079s-.372.042-.208.085m-34.62.34c.163.043.391.04.506-.006.114-.047-.02-.082-.299-.079s-.372.042-.208.085m33.012-.005a.65.65 0 0 0 .422 0c.116-.047.021-.086-.211-.086s-.327.039-.211.086M8.997 138.746c-.602.084-3.594 1.406-5.444 2.404-.576.311-1.672.181-2.255-.266-.648-.498-.942-.435-1.201.257-.161.43-.135.585.181 1.058.31.465.491.564 1.115.609.674.049.998-.036 1.902-.499.48-.246.804-.172.804.184 0 .184.151.416.336.515.462.249 1.237-.173 2.153-1.173.67-.731.967-.75.522-.034-.155.252-.138.443.083.913.348.738.947 1.147 1.671 1.14.671-.006 1.073-.288 1.312-.922.204-.541-.052-1.024-.46-.866-.132.051-.43.045-.661-.014-.357-.09-.405-.176-.312-.553.138-.562.655-1.126 1.266-1.381.474-.197 2.47-.15 3.758.09 1.273.236.53-.506-1.092-1.094-1.018-.368-2.566-.523-3.678-.368m117.202.022c-1.443.177-3.109.841-3.288 1.312-.076.199.028.224.542.135 1.478-.259 3.273-.3 3.807-.088.814.324 1.303.838 1.303 1.37 0 .466-.477.805-.828.587-.085-.053-.283-.047-.44.014-.346.134-.232.974.198 1.453.318.353 1.241.411 1.795.112.675-.364.834-.652.834-1.51 0-.934.079-.938.86-.042.928 1.064 2.31 1.292 2.31.382 0-.377.329-.429.889-.138.207.109.509.262.67.341.574.281 1.746.165 2.079-.205.354-.394.395-1.392.073-1.783-.282-.342-.413-.317-.941.175-.341.319-.64.426-1.193.426-.406 0-.87-.065-1.031-.144a41 41 0 0 1-.671-.34c-.207-.108-.492-.197-.633-.197s-.256-.076-.256-.17a.167.167 0 0 0-.163-.17c-.089 0-.836-.332-1.658-.738-1.617-.798-2.619-.983-4.258-.782m-108.303.246a7.8 7.8 0 0 0-1.52.652c-1.243.737-2.98 2.614-2.986 3.227-.001.17-.08.454-.174.632-.305.574.166 1.689 1.132 2.673.86.878.892.893 1.879.893 1.71 0 2.66-.619 3.045-1.984.315-1.116-.19-2.044-1.2-2.209-.447-.073-.642-.001-1.015.374-.566.57-.57.713-.042 1.332.473.554.44.682-.262 1.048-.394.205-.577.218-.876.062-.79-.412-.97-.693-.97-1.515 0-.651.09-.891.483-1.292.868-.886 1.218-1.108 2.557-1.62 1.196-.457 4.435-.239 5.613.378.161.085.408.154.549.154.14 0 .256.076.256.17 0 .093.152.17.337.17s.338.076.338.17c0 .093.146.17.324.17s.349.058.38.128c.03.07.436.316.9.546.465.23 1.263.683 1.774 1.006.51.324 1.119.69 1.35.814.407.217.41.225.05.226a2.6 2.6 0 0 1-.759-.147c-.213-.082-.692-.24-1.064-.352-.965-.29-1.669-.577-3.462-1.411-1.44-.671-2.026-.881-2.026-.725 0 .059.56.657 1.243 1.329 1.418 1.395 1.595 1.725 1.172 2.195-.283.315-.278.342.122.652.594.459 2.029.454 2.445-.009.31-.345.76-.461.76-.195 0 .08.186.348.414.595.52.565 1.3.606 1.641.087.23-.347.261-.351.773-.085.618.323 1.27.356 1.762.091.28-.151.51-.097 1.213.285.477.259.906.515.952.569.152.178 1.876 1.204 2.024 1.204.079 0 .169.064.2.143.08.203 3.913 2.068 4.251 2.068.154 0 .28.076.28.17 0 .093.153.17.34.17s.51.088.718.196c.811.423.975.484 1.294.484.182 0 .372.069.424.152.167.273 1.481.4 4.148.403 2.615.002 3.805-.119 3.98-.404.052-.083.279-.151.505-.151.227 0 .413-.076.413-.17s.106-.17.237-.17c.73 0 3.038-1.847 4.038-3.232.718-.995 1.129-2.203 1.129-3.323 0-.606-.067-1.236-.15-1.398a30 30 0 0 1-.38-.8c-.474-1.038-1.555-1.87-3.405-2.62-.584-.237-2.763-.253-2.905-.022-.057.094-.252.17-.432.17s-.328.077-.328.17-.112.171-.25.171c-.434 0-1.923 1.662-2.037 2.274-.144.774.173 1.843.706 2.38.34.342.613.448 1.159.448 1.002 0 1.604-.614 1.604-1.635 0-.654-.06-.769-.528-1.013-.29-.151-.71-.24-.933-.197-.557.107-.612-.075-.175-.585.748-.874 2.816-.888 3.959-.028 2.708 2.041-.225 7.048-4.771 8.146-.894.216-4.338.28-4.533.084-.098-.099-.406-.181-.682-.181a4 4 0 0 1-1.022-.166c-2.905-.931-5.265-1.875-6.033-2.412-.247-.172-.532-.313-.633-.313-.102 0-.185-.076-.185-.17 0-.093-.095-.172-.212-.174s-.4-.153-.633-.336l-.422-.333 2.692-.003c3.462-.005 5.39-.332 7.298-1.237.883-.419 2.254-2.251 2.254-3.013 0-.179.076-.373.168-.431s.17-.359.17-.67c0-1.568-1.401-2.987-2.95-2.987-.785 0-1.992.553-2.429 1.112-1.2 1.537.703 3.551 2.062 2.182.533-.537.536-.57.114-1.326-.389-.698-.215-.905.506-.604.363.151.52.356.6.781.185.992-.062 1.74-.83 2.505-1.527 1.524-3.274 1.954-8.509 2.092-3.011.079-3.458.005-4.146-.688-.28-.282-3.202-2.222-4.346-2.886-4.259-2.472-8.222-3.568-10.522-2.911m72.607.151c-1.69.992-1.892 2.804-.567 5.072 1.17 2.004 4.138 2.933 9.026 2.825l2.571-.056-.383.34c-.984.871-5.39 2.976-6.23 2.976-.155 0-.329.077-.386.17-.058.094-.313.17-.567.17-.255 0-.535.069-.624.153-.385.367-5.387.69-5.706.368-.099-.099-.411-.185-.694-.191-.648-.012-2.573-1.07-3.42-1.879-.848-.811-1.402-1.475-1.402-1.683a.17.17 0 0 0-.169-.169c-.093 0-.168-.149-.168-.33s-.077-.378-.17-.435c-.092-.058-.168-.649-.168-1.312 0-1.032.062-1.29.43-1.776.237-.313.541-.569.676-.569s.245-.068.245-.151c0-.157.946-.372 1.689-.385.7-.012 1.413.219 1.815.588.552.505.47.721-.274.721-.906 0-1.204.3-1.204 1.212 0 1.037.543 1.587 1.568 1.587 1.118 0 1.81-.883 1.81-2.312 0-.607-.11-.952-.455-1.414-.25-.336-.55-.67-.667-.742a3 3 0 0 1-.432-.348c-.567-.557-1.834-.967-2.994-.967-.646 0-1.221.077-1.278.17-.058.094-.237.17-.399.17-.37 0-1.203.383-1.204.553-.001.07-.094.128-.206.128-.323 0-1.822 1.673-1.822 2.035 0 .179-.076.373-.17.431-.092.057-.168.789-.168 1.625 0 .901.069 1.521.169 1.521.093 0 .169.112.169.249 0 .343.832 1.634 1.623 2.519.672.751 2.094 1.824 2.418 1.824.1 0 .18.076.18.17 0 .093.148.17.328.17s.375.076.433.17.285.17.506.17.444.068.495.151c.16.26 1.271.395 3.879.472 1.632.049 2.578.012 2.694-.104.097-.098.423-.179.725-.179.3 0 .594-.076.651-.17.058-.093.286-.17.507-.17s.449-.076.506-.17c.058-.094.253-.17.435-.17.181 0 .462-.068.623-.15.162-.083.484-.228.716-.323 1.733-.709 4.945-2.297 5.235-2.588.046-.047.274-.196.507-.331s.982-.588 1.668-1.005c1.043-.636 1.297-.728 1.56-.562.49.308 1.408.234 1.898-.154l.444-.352.197.437c.307.679 1.14.605 1.787-.159.584-.688.725-.72 1.143-.255.4.445 1.67.462 2.321.03l.464-.308-.347-.374-.346-.375.371-.549c.347-.513.961-1.143 1.759-1.803.186-.154.451-.425.59-.601.235-.3.225-.313-.169-.195-.232.069-.877.34-1.434.602-.558.262-1.318.606-1.689.764-.372.157-.808.356-.969.442a1.6 1.6 0 0 1-.623.156c-.182 0-.377.076-.435.17-.057.093-.312.17-.567.17s-.545.083-.646.184c-.101.102-.358.159-.572.128-.333-.049-.27-.124.445-.532a92 92 0 0 0 1.392-.81c1.23-.737 3.115-1.691 3.34-1.691.132 0 .239-.077.239-.17s.137-.17.304-.17.376-.064.465-.141c.696-.609 4.187-.839 5.691-.373.441.136.802.308.802.381s.117.133.261.133.638.379 1.098.842c.715.72.836.938.836 1.501 0 1.011-1.158 1.949-1.889 1.53-.749-.43-.846-.599-.488-.851.563-.398.615-1.071.121-1.568-.691-.696-1.57-.519-2.048.413-.348.677-.321 1.209.103 2.008.477.9 1.411 1.397 2.624 1.397.508 0 1.09-.089 1.293-.198.492-.263 1.359-1.147 1.632-1.665.29-.549.282-2.115-.015-2.695-.658-1.288-2.954-3.175-4.235-3.481-1.604-.384-3.822-.152-5.997.627-1.214.435-3.1 1.274-3.26 1.451-.082.09-1.21.715-1.983 1.097-.208.103-.379.244-.38.315-.001.07-.085.127-.187.127-.21 0-2.908 1.871-2.995 2.077-.031.074-.164.134-.295.134-.132 0-.24.064-.24.143s-.284.237-.633.353c-.984.326-8.17.041-8.562-.34-.088-.086-.369-.156-.623-.156-.255 0-.51-.077-.568-.17s-.252-.17-.432-.17-.328-.077-.328-.17-.106-.17-.236-.17c-.335 0-1.358-1.073-1.684-1.765-.474-1.005-.306-1.864.441-2.253.672-.35.967-.085.576.517-.38.585-.35.893.136 1.382.544.548 1.42.564 1.902.035 1.686-1.849-1.421-4.307-3.73-2.951m-22.482.901c-.326.328-.592.737-.592.909s-.076.361-.17.419c-.092.057-.168.258-.168.444 0 .317-.032.323-.464.096-1.262-.663-1.305-.67-1.994-.342-.654.312-1.487 1.318-1.375 1.661.033.1.434.202.89.228 1.294.072 2.491.77 3.276 1.909.226.328.452.634.503.68.052.047.203.299.336.56.318.62.654.53 1.115-.299.97-1.746 2.24-2.759 3.562-2.844.76-.049.826-.088.876-.531.063-.548-.364-1.307-.734-1.307-.137 0-.25-.077-.25-.17 0-.298-1.148-.183-1.787.178-.339.192-.629.326-.644.298a16 16 0 0 1-.257-.732c-.565-1.685-1.236-2.05-2.123-1.157m-35.697-.102c-.298.279-.356.466-.269.866l.111.509-1.072-.095c-2.092-.187-2.332-.189-2.349-.021-.009.094.503.429 1.137.744s1.285.641 1.446.723a1.8 1.8 0 0 0 .685.149c.214 0 .478.089.586.197.303.305 4.16.285 5.174-.027 1.785-.55 2.515-2.05 1.44-2.961-.738-.625-1.169-.557-1.826.286-.203.261-.193.347.08.651.309.343.307.356-.103.673-.613.474-.901.429-.764-.121.07-.283.035-.499-.094-.58-.243-.151-1.347-.009-1.578.204-.088.081-.29.148-.45.148-.253 0-.264-.066-.093-.525.177-.473.157-.558-.202-.851-.528-.431-1.382-.417-1.86.031m66.094-.149c-.61.355-.76.61-.76 1.299 0 .578.094.758.63 1.203.346.287.749.522.895.522s.36.096.476.212c.29.292 4.835.285 5.125-.007.112-.113.374-.205.582-.205s.425-.076.483-.17c.057-.093.29-.17.516-.17s.413-.077.413-.17.152-.17.337-.17.338-.077.338-.17.152-.17.338-.17.338-.077.338-.17.114-.17.253-.17a.255.255 0 0 0 .253-.256c0-.294-1.093-.367-1.266-.085-.058.094-.556.171-1.108.171h-1.003v-.586c0-.667-.475-1.115-1.182-1.115-.915 0-1.531.942-.98 1.496.158.159.109.205-.219.205-.233 0-.495-.073-.583-.162-.24-.242-1.397-.277-1.622-.05-.149.15-.143.261.023.464.342.414.074.501-.581.187-.578-.276-.588-.297-.332-.691.301-.463.13-.975-.428-1.275-.402-.217-.514-.213-.936.033M74.86 144.71c-.139.091-.495.166-.792.167-.296.002-.586.079-.643.173s-.252.17-.432.17-.328.058-.328.129c0 .07-.221.227-.492.348-.904.403-1.992 1.698-2.788 3.32-.421.858-.767 1.425-.77 1.26a1.6 1.6 0 0 0-.155-.595c-.084-.162-.33-.67-.549-1.128-.506-1.061-1.865-2.465-2.846-2.939-1.663-.803-3.55-.757-4.584.113-.502.422-.554.552-.554 1.396 0 .772.072 1 .425 1.341.554.536 1.085.837 1.477.837.569 0 1.336-.507 1.549-1.023.114-.279.332-.508.483-.509.41-.001 1.88.558 1.88.715 0 .075.085.137.189.137s.405.248.669.552c.979 1.128 1.1 1.825.204 1.183-.263-.188-.879-.474-1.369-.636-1.503-.495-2.628-.178-4.168 1.176-.279.245-.602.445-.718.445s-.211.077-.211.171-.451.17-1.015.17h-1.016l.113.709c.25 1.576 1.7 2.238 3.513 1.603.606-.212.705-.204 1.11.098.372.277.515.298.874.134.423-.195 1.15-1.329 1.15-1.795 0-.132.067-.239.149-.239s.189-.153.237-.34c.15-.579 1.13-.458 1.734.212.773.86.92 1.234.92 2.359 0 .927-.053 1.091-.46 1.443-.252.218-.684.447-.96.508-.437.096-.568.03-.994-.505-.566-.711-1.056-.787-1.626-.252-.312.293-.37.481-.291.964.1.62 1.005 1.733 1.41 1.733.123 0 .37.094.551.207.428.269 1.353-.04 2.257-.754l.647-.512.535.503c.844.794 1.482.982 2.436.718 1.043-.288 1.518-.606 1.839-1.231.29-.564.209-1.356-.18-1.747-.134-.134-.534-.245-.89-.245-.559 0-.677.071-.876.524-.126.287-.33.561-.451.608-.367.142-1.329-.422-1.555-.912-.29-.628-.264-1.76.053-2.401.345-.696 1.396-1.56 1.898-1.56.423 0 .878.356.878.687 0 .433.898 1.834 1.29 2.014.607.278.837.238 1.344-.235.29-.272.523-.37.642-.273.457.374 1.493.516 2.05.281.97-.408 2.015-1.828 1.63-2.215-.048-.049-.531-.089-1.073-.089-.544 0-.985-.076-.985-.17s-.08-.17-.18-.17c-.097 0-.522-.326-.942-.723-1.082-1.024-1.346-1.135-2.7-1.142-1.035-.005-1.361.073-2.322.561-1.17.592-1.235.593-.901.011.453-.791 1.107-1.39 1.984-1.82 1.242-.608 1.696-.644 1.945-.155.317.624.78.875 1.62.881.637.005.883-.087 1.309-.488.441-.415.524-.619.524-1.284 0-1.196-.727-2.304-1.511-2.304-.18 0-.373-.077-.43-.17-.132-.214-.432-.214-.76 0m-42.05 3.342c0 .082.206.301.459.487 1.567 1.153 3.594 3.721 3.594 4.554 0 .838-1.116 1.717-1.534 1.209-.138-.167-.14-.238-.01-.238.101 0 .303-.181.447-.403.198-.305.22-.509.092-.85-.147-.39-.265-.448-.91-.448-1.833 0-2.238 2.172-.667 3.576 1.013.905 1.97 1.086 3.143.592 1.288-.542 1.884-1.65 1.684-3.13-.189-1.401-.91-2.345-2.622-3.436-.49-.312-.928-.608-.974-.658-.047-.049-.256-.186-.465-.303l-.76-.425c-.209-.117-.419-.264-.466-.327-.142-.188-1.011-.359-1.011-.2m70.675.191c-.278.161-.532.351-.562.421a.24.24 0 0 1-.206.128c-.31 0-2.636 1.616-3.285 2.282-.816.838-1.097 1.318-1.097 1.872 0 .229-.076.465-.17.522-.092.058-.168.288-.168.511 0 .222.076.452.169.51s.169.234.169.393c0 .403.65 1.119 1.401 1.544.667.377 2.043.493 2.23.189.057-.094.227-.17.378-.17.4 0 1.298-1.061 1.551-1.834.244-.743.165-1.157-.344-1.809-.282-.361-.484-.439-1.133-.438-.684.002-.817.061-.993.441-.232.505-.014 1.024.5 1.188.165.052.255.166.202.253-.177.288-.903.163-1.253-.214-.837-.906-.101-2.439 2.213-4.613 1.108-1.041 1.475-1.476 1.239-1.473-.183.002-.562.136-.841.297m-50.862 5.445a4.1 4.1 0 0 1-1.221.673c-.795.247-4.223.286-4.986.058-.285-.086-.974-.298-1.532-.473-.965-.302-1.604-.334-1.604-.081 0 .114 1.846 1.091 2.702 1.431.232.092.554.236.715.318.162.083.442.15.624.15.181 0 .377.077.434.17.058.094.275.171.483.171s.45.068.54.152c.28.267 1.574.386 5.648.52 4.86.159 5.92.384 7.08 1.5.429.413.52.634.52 1.26 0 1.019-.523 1.546-1.457 1.468-.904-.074-.973-.531-.112-.745.596-.148.643-.206.69-.848.07-.963-.38-1.356-1.536-1.339-.504.008-.887.097-.926.216-.037.111-.174.311-.305.442-.277.279-.338 2.306-.07 2.306.093 0 .17.08.17.177 0 .273.795 1.013 1.09 1.013.143 0 .26.077.26.17 0 .1.591.17 1.436.17.79 0 1.435-.058 1.435-.128s.22-.227.489-.347c1.301-.58 1.23-3.189-.123-4.553-.808-.812-1.796-1.21-4.44-1.783-.829-.18-.95-.257-.95-.608 0-.751-.339-.949-1.467-.857-.563.045-1.271.136-1.573.202-.502.109-.549.084-.549-.299 0-.407-.46-.988-.773-.974-.085.004-.397.215-.692.468m30.772-.036c-.157.242-.244.548-.193.681.066.174-.045.241-.4.241-.27 0-.538-.077-.595-.17-.058-.094-.585-.17-1.172-.17-1.16 0-1.488.202-1.488.915 0 .32-.133.444-.632.595-.347.105-.813.192-1.034.193-.978.006-2.835.843-3.616 1.629-1.511 1.522-1.46 3.943.1 4.726.81.407 2.655.368 3.477-.074 1.385-.744 1.881-2.584.982-3.638-.365-.426-.55-.5-1.253-.5-.453 0-.94.096-1.081.215-.526.439-.545 1.891-.025 1.891.53 0 1.09.333.992.59-.145.38-1.24.325-1.732-.088-.475-.398-.57-1.402-.198-2.1.26-.488 1.632-1.24 2.763-1.513.39-.095 2.494-.23 4.677-.302 4.086-.134 5.37-.251 5.649-.516.088-.084.33-.152.538-.152s.426-.077.483-.171c.058-.093.253-.17.435-.17.181 0 .462-.067.623-.149.162-.082.958-.47 1.771-.862s1.478-.777 1.478-.857c0-.222-.385-.305-.76-.164-.186.069-.68.216-1.098.326-.418.109-.993.27-1.278.357-.66.202-4.372.208-4.762.009a26 26 0 0 0-.8-.383 4 4 0 0 1-.834-.53c-.447-.407-.681-.374-1.017.141m-15.079 6.106c-.116.134-.21.362-.21.506s-.077.262-.17.262-.169.149-.169.33-.076.378-.168.436-.17.517-.17 1.02c0 .754.067.963.376 1.181.73.515 1.891.281 2.137-.429.224-.647.087-1.406-.46-2.54-.464-.963-.803-1.186-1.166-.766" clip-rule="evenodd"></path></svg> 