<?xml version="1.0" encoding="UTF-8"?> <svg xmlns="http://www.w3.org/2000/svg" width="93" height="56" viewBox="0 0 93 56" fill="none"><path fill-rule="evenodd" clip-rule="evenodd" d="M35.1924 0.285341C35.1516 0.442354 35.2033 0.844051 35.3074 1.17815C35.4114 1.51226 35.4966 1.97307 35.4966 2.20229C35.4966 2.45358 35.561 2.61895 35.6589 2.61895C35.7481 2.61895 35.895 2.84805 35.9855 3.12803C36.0759 3.40788 36.2719 3.79648 36.4211 3.99141C36.5962 4.22025 36.6697 4.45958 36.6287 4.6671C36.5851 4.88746 36.6213 4.98848 36.744 4.98848C36.8425 4.98848 36.9757 5.12255 37.0402 5.28642C37.1046 5.45029 37.3272 5.77292 37.5346 6.00351C37.7421 6.2341 38.012 6.62919 38.1346 6.88161C38.3632 7.35277 38.9329 7.66567 39.3083 7.5265C39.5894 7.42224 39.5391 6.80878 39.2269 6.53578C38.7644 6.13147 38.5829 5.6643 38.6742 5.11294C38.7202 4.83571 38.8109 4.57706 38.8761 4.53815C38.9459 4.49637 38.9401 4.4042 38.8619 4.31304C38.7199 4.1478 38.9489 3.36722 39.1393 3.36722C39.1948 3.36722 39.2401 3.1496 39.2401 2.88359C39.2401 2.60598 39.3226 2.33399 39.4337 2.24482C39.5402 2.15939 39.6274 1.96858 39.6274 1.8208C39.6274 1.67301 39.7197 1.42471 39.8325 1.26907C39.9453 1.11343 40.0099 0.916259 39.9759 0.830831C39.9421 0.745404 39.9949 0.568936 40.0935 0.438612C40.3638 0.0815617 40.3153 0 39.8324 0C39.4206 0 39.3864 0.0318016 39.3063 0.489121C39.2223 0.969511 38.94 1.2349 38.7797 0.984102C38.7349 0.914139 38.7356 0.663967 38.7813 0.428386C38.833 0.16225 38.8135 0 38.7296 0C38.6554 0 38.5947 0.108874 38.5947 0.242066C38.5947 0.375258 38.5366 0.518802 38.4656 0.561204C38.3946 0.603606 38.3365 0.830707 38.3365 1.06604C38.3365 1.50764 38.0166 1.99539 37.727 1.99539C37.5007 1.99539 37.4492 1.07577 37.6345 0.342958C37.706 0.0597371 37.6784 0 37.4756 0C37.226 0 37.2029 0.120098 37.127 1.80832C37.1142 2.09391 37.0491 2.18246 36.852 2.18246C36.5946 2.18246 36.5178 1.94064 36.3469 0.592382C36.323 0.403693 36.2962 0.193304 36.2873 0.124712C36.2784 0.0561204 36.0451 0 35.7687 0C35.3529 0 35.2537 0.0491365 35.1924 0.285341ZM47.9212 0.230468C47.9555 0.357175 47.9096 0.594502 47.8191 0.75775C47.6816 1.00593 47.6888 1.11667 47.8628 1.43157C47.9773 1.63872 48.0565 1.85833 48.0385 1.91944C48.0206 1.98055 47.9844 2.40145 47.9581 2.85478C47.9319 3.30811 47.8964 3.73513 47.8792 3.80372C47.8619 3.87231 47.8927 4.02733 47.9474 4.1483C48.0047 4.27475 47.9833 4.44212 47.8971 4.54251C47.7863 4.67146 47.7853 4.73956 47.893 4.80391C47.9748 4.85267 48.0048 5.02215 47.9615 5.18914C47.9136 5.37347 47.9404 5.48733 48.0317 5.48733C48.1286 5.48733 48.1514 5.62289 48.0977 5.88179C48.0429 6.14618 48.078 6.34248 48.2043 6.47717C48.3557 6.6388 48.3664 6.78758 48.2589 7.23629C48.1853 7.54333 48.0687 7.90886 47.9998 8.04866C47.9172 8.21628 47.9209 8.42093 48.0108 8.64915C48.1901 9.10472 48.1834 9.55544 47.9923 9.89166C47.8289 10.179 47.8406 10.7164 48.014 10.8915C48.0707 10.9487 48.0072 11.2854 47.8728 11.6397C47.7385 11.9942 47.6541 12.3489 47.6853 12.4278C47.7166 12.5069 47.7078 12.6045 47.6661 12.6449C47.6243 12.6853 47.5799 13.0134 47.5675 13.3742C47.5406 14.1485 47.4021 14.6236 47.2325 14.5225C47.1658 14.4826 46.869 14.65 46.5731 14.8947C46.2773 15.1394 45.9586 15.3396 45.8648 15.3396C45.7711 15.3396 45.6945 15.395 45.6945 15.4627C45.6945 15.6328 44.6776 16.2385 44.4923 16.1788C44.4094 16.1521 44.2322 16.2647 44.0984 16.4291C43.9244 16.6427 43.7401 16.7219 43.4517 16.707C42.8211 16.6744 42.7255 16.6987 42.7255 16.8914C42.7255 17.1289 42.2255 17.4597 41.8664 17.4597C41.6946 17.4597 41.5486 17.5588 41.4993 17.7089C41.4542 17.8458 41.2817 17.9908 41.116 18.031C40.9073 18.0816 40.7335 18.2925 40.5509 18.7173C40.4058 19.0545 40.2035 19.3304 40.1011 19.3304C39.9989 19.3304 39.8211 19.469 39.7062 19.6387C39.5912 19.8081 39.2506 20.2287 38.949 20.5731C38.6476 20.9176 38.2357 21.3961 38.0335 21.6365C37.8313 21.877 37.6228 22.048 37.57 22.0164C37.5172 21.9849 37.3507 22.1203 37.1999 22.3172C37.0493 22.5141 36.7351 22.7362 36.5017 22.8107C35.9297 22.9933 35.3431 23.6984 35.544 23.9618C35.8648 24.3822 37.0456 24.6526 37.0456 24.3055C37.0456 24.2296 37.1257 24.1971 37.2235 24.2334C37.6879 24.4055 39.2539 24.0646 40.2489 23.5748C40.811 23.2981 41.3347 23.0717 41.4128 23.0717C41.4907 23.0717 41.6167 22.9595 41.6928 22.8223C41.7688 22.6851 41.8954 22.5729 41.9743 22.5729C42.1616 22.5729 44.8613 19.8599 45.0768 19.4551C45.168 19.2836 45.3444 19.07 45.4685 18.9803C45.5927 18.8908 45.6945 18.7083 45.6945 18.575C45.6945 18.4417 45.7754 18.3327 45.8743 18.3327C45.9732 18.3327 46.0889 18.2449 46.1315 18.1377C46.1741 18.0305 46.2675 17.9776 46.339 18.0204C46.5427 18.142 46.4923 18.5343 46.2108 19.0186C46.0688 19.2628 45.9526 19.602 45.9526 19.7723C45.9526 19.9427 45.8945 20.1935 45.8235 20.3298C45.7525 20.466 45.6364 20.689 45.5654 20.8252C45.4944 20.9615 45.435 21.2841 45.4334 21.5423C45.4318 21.8151 45.3247 22.1422 45.1781 22.3235C45.0392 22.4949 44.9243 22.6935 44.9228 22.7647C44.9173 23.0131 44.0117 25.0051 43.8854 25.0463C43.8155 25.0692 43.7581 25.1922 43.7581 25.3195C43.7581 25.447 43.7001 25.5859 43.6291 25.6283C43.5581 25.6707 43.5 25.817 43.5 25.9534C43.5 26.0899 43.3934 26.4093 43.263 26.6632C42.3844 28.3742 41.7182 29.513 41.4076 29.8341C41.2095 30.039 41.0473 30.3429 41.0473 30.5094C41.0473 30.676 40.8876 30.966 40.6923 31.1539C40.497 31.3419 40.1981 31.7468 40.0277 32.0539C39.8574 32.3609 39.6396 32.7007 39.5436 32.8091C39.4477 32.9174 39.3692 33.0516 39.3692 33.1073C39.3692 33.1632 39.1949 33.3697 38.9819 33.5662C38.7689 33.7629 38.5947 34.0075 38.5947 34.1099C38.5947 34.2121 38.5464 34.2958 38.4874 34.2958C38.4284 34.2958 38.3005 34.4502 38.2032 34.6388C38.1058 34.8273 37.9008 35.122 37.7477 35.2935C37.5947 35.465 37.3596 35.8017 37.2253 36.0418C37.091 36.2818 36.804 36.6763 36.5876 36.9185C36.3712 37.1606 35.9784 37.7861 35.7148 38.3087C35.451 38.8312 35.1488 39.2908 35.0433 39.3299C34.9377 39.3691 34.8512 39.4669 34.8512 39.5471C34.8512 39.6272 34.6334 39.9312 34.3671 40.2225C33.8315 40.8084 33.173 41.7957 33.173 42.013C33.173 42.0898 33.1191 42.1527 33.0531 42.1527C32.8959 42.1527 32.1404 43.2367 32.1404 43.4621C32.1404 43.5583 32.0664 43.6816 31.9759 43.7365C31.8854 43.7914 31.702 44.0046 31.5684 44.2104C31.4346 44.4162 31.2444 44.6309 31.1456 44.6877C31.0469 44.7444 30.825 45.0886 30.6526 45.4527C30.4803 45.8167 30.2508 46.1473 30.1426 46.1873C30.0344 46.2275 29.9459 46.3757 29.9459 46.5167C29.9459 46.676 29.8227 46.8184 29.6208 46.8926C29.4421 46.9582 29.2433 47.1456 29.179 47.309C29.1147 47.4724 28.9696 47.6402 28.8567 47.6821C28.7436 47.7241 28.5969 47.8962 28.5306 48.0646C28.4552 48.2562 28.1779 48.4724 27.7903 48.6421L27.1705 48.9132L26.396 48.6507C25.4351 48.325 25.364 48.3253 25.0212 48.6564C24.6305 49.0339 24.8453 49.3056 25.6021 49.3916C26.5019 49.4938 26.624 49.6929 26.0733 50.1598C25.8248 50.3704 25.1898 50.9365 24.6622 51.4178C23.5593 52.4234 21.9326 53.312 20.0062 53.9608C19.3317 54.188 18.7218 54.444 18.6508 54.53C18.5798 54.6159 18.2386 54.6959 17.8928 54.7077C17.5469 54.7195 17.2012 54.7897 17.1248 54.8636C17.0482 54.9375 16.796 54.998 16.5641 54.998C16.1898 54.998 15.8755 55.2504 15.8755 55.551C15.8755 55.7435 17.2535 55.4542 17.5081 55.2081C17.5568 55.1611 17.7868 55.1227 18.0193 55.1227C18.2518 55.1227 18.4731 55.0739 18.5113 55.0145C18.5494 54.9548 18.8598 54.8704 19.2012 54.8266C19.5425 54.7829 19.936 54.6704 20.0754 54.5767C20.2148 54.4829 20.5115 54.368 20.7345 54.3211C20.9576 54.2742 21.4098 54.0706 21.7395 53.8686C22.069 53.6667 22.4187 53.5015 22.5164 53.5015C22.6142 53.5015 22.8407 53.3331 23.02 53.1273C23.1992 52.9215 23.3778 52.7532 23.4169 52.7532C23.4561 52.7532 23.5695 52.9414 23.6691 53.1715C23.9271 53.7683 24.3481 53.8434 24.5844 53.3346C24.6852 53.1177 24.8985 52.73 25.0584 52.473C25.3371 52.0249 25.3394 51.9988 25.1143 51.8398C24.8958 51.6853 24.9074 51.6627 25.2828 51.5124C25.5209 51.4171 25.686 51.2601 25.686 51.1291C25.686 50.9982 25.8337 50.8572 26.0453 50.7859C26.2429 50.7194 26.7933 50.293 27.2685 49.8384C27.7438 49.3837 28.1858 49.0118 28.2509 49.0118C28.316 49.0118 28.4041 48.924 28.4467 48.8169C28.4893 48.7096 28.5802 48.6553 28.6486 48.6962C28.7171 48.7371 28.8585 48.6144 28.9626 48.4236C29.0669 48.2326 29.4453 47.7823 29.8034 47.4226C30.1616 47.0631 30.5428 46.604 30.6507 46.4026C30.7585 46.2012 30.9677 45.9993 31.1155 45.954C31.2814 45.9031 31.3571 45.8022 31.3128 45.691C31.2734 45.5917 31.3272 45.4785 31.4326 45.4394C31.5379 45.4004 31.6258 45.3044 31.6281 45.2259C31.6303 45.1475 31.8391 44.887 32.0919 44.6469C32.4646 44.2931 32.8399 43.7104 32.7948 43.5557C32.7899 43.5386 32.875 43.4262 32.9842 43.3062C33.0933 43.1863 33.3308 42.9055 33.5119 42.6827C33.895 42.2114 34.144 42.1508 34.0241 42.558C33.6236 43.9188 33.5877 44.8318 33.895 45.853C34.254 47.0462 35.143 47.2162 35.5266 46.165C35.719 45.6377 35.7215 45.4754 35.5526 44.4598C35.4499 43.8425 35.3147 43.0288 35.2521 42.6515C35.1895 42.2743 35.1641 41.4886 35.1956 40.9055L35.2529 39.8455L36.0202 39.1071C36.4422 38.7009 36.7875 38.3137 36.7875 38.2464C36.7875 37.9743 37.475 36.79 37.633 36.79C37.7263 36.79 37.8435 36.6638 37.8934 36.5094C37.9433 36.3551 38.2028 35.9752 38.4701 35.6651C38.7374 35.3552 38.9765 34.9624 39.0013 34.7922C39.0318 34.5834 39.1408 34.4699 39.3369 34.443C39.4966 34.4211 39.6274 34.3486 39.6274 34.2818C39.6274 34.1554 40.3686 33.1776 41.0351 32.4251C41.2477 32.1851 41.4971 31.7425 41.5895 31.4415C41.6853 31.129 41.8895 30.8105 42.0653 30.6989C42.2348 30.5914 42.4552 30.3146 42.5549 30.0838C42.7576 29.6152 43.0482 29.6053 43.0482 30.0671C43.0482 30.2322 43.0839 30.4235 43.1276 30.4921C43.1712 30.5607 43.2111 31.1662 43.2161 31.8377C43.2267 33.2565 43.3677 33.762 43.98 34.5764C44.4748 35.2343 44.6634 35.2919 45.0618 34.907C45.3087 34.6684 45.3259 34.5503 45.2565 33.5664C45.1469 32.0144 45.0978 31.6247 44.8509 30.3416C44.724 29.6821 44.674 29.0982 44.7335 28.9697C44.8639 28.6883 44.8794 28.5808 44.9541 27.4366C45.0046 26.6642 45.2772 25.2158 45.514 24.4629C45.5429 24.3706 45.6799 24.2666 45.8182 24.2315C46.0138 24.1822 46.0543 24.0931 46.0001 23.8311C45.9543 23.6096 46.0005 23.438 46.1351 23.3301C46.2477 23.2398 46.3399 22.994 46.3399 22.784C46.3399 22.2371 47.1308 20.5515 47.5892 20.1217C47.8387 19.8877 47.8572 19.8053 47.7321 19.485C47.6103 19.1737 47.6412 18.9895 47.9323 18.2871C48.1214 17.8306 48.2771 17.3594 48.2781 17.2401C48.2819 16.8204 48.641 16.025 48.8447 15.9852C49.0854 15.9381 49.1109 15.6787 48.9057 15.3614C48.7938 15.1883 48.8092 15.0466 48.973 14.7406C49.0994 14.5046 49.1529 14.2194 49.1053 14.0363C49.0522 13.8319 49.1107 13.6121 49.2799 13.3806C49.4391 13.1629 49.534 12.8307 49.5332 12.4944C49.5315 11.8575 49.725 11.6006 50.0547 11.8022C50.1943 11.8877 50.2618 12.0585 50.2362 12.2617C50.2138 12.4396 50.3174 12.8514 50.4665 13.1771C50.6155 13.5026 50.7621 14.0234 50.7923 14.3343C50.8225 14.6452 50.9077 14.9192 50.9816 14.9429C51.0555 14.9667 51.1161 15.0448 51.1161 15.1163C51.1161 15.1878 51.2903 15.5777 51.5033 15.9826C51.7163 16.3875 51.8906 16.7932 51.8906 16.884C51.8906 16.9748 52.0358 17.2005 52.2133 17.3855C52.3908 17.5706 52.5363 17.8172 52.5367 17.9338C52.5371 18.0503 52.6536 18.314 52.7956 18.5197C52.9376 18.7255 53.1754 19.0763 53.324 19.2992C53.4726 19.522 53.6359 19.7045 53.6867 19.7045C53.7374 19.7045 53.8767 19.9022 53.9959 20.1439C54.1152 20.3854 54.3598 20.6371 54.5393 20.7031C54.719 20.769 54.9892 21.0248 55.1397 21.2714C55.4347 21.7544 56.0397 22.1656 56.8557 22.4377C57.1371 22.5315 57.4482 22.6864 57.547 22.7819C57.6458 22.8773 57.8318 22.9232 57.9604 22.8838C58.0889 22.8444 58.2315 22.8706 58.2771 22.9419C58.3228 23.0134 58.68 23.0717 59.071 23.0717C59.4619 23.0717 59.8843 23.1247 60.0094 23.1893C60.2776 23.328 61.1058 22.9052 61.025 22.6709C60.9978 22.5918 60.7618 22.42 60.5008 22.289C59.7815 21.9285 58.343 20.0697 58.2694 19.4058C58.2534 19.2614 57.9508 18.3295 57.597 17.335C57.2243 16.2878 56.9264 15.2076 56.889 14.7685C56.7979 13.7005 55.8848 11.758 55.15 11.0694C54.9159 10.8501 54.7305 10.5494 54.7305 10.389C54.7305 10.231 54.684 10.1017 54.6271 10.1017C54.5703 10.1017 54.3985 9.85237 54.2453 9.54783C54.092 9.24316 53.5646 8.47032 53.0733 7.83029C52.5819 7.19027 52.0131 6.2891 51.8093 5.82779C51.6056 5.36648 51.3411 4.95818 51.2217 4.92064C50.9173 4.82486 50.3416 3.83103 50.3416 3.40115C50.3416 3.2041 50.2841 2.98748 50.2138 2.91951C50.1035 2.813 50.0111 1.87218 49.9666 0.405314L49.9543 0H48.9065C47.9511 0 47.8643 0.0203281 47.9212 0.230468ZM54.7768 0.406187C54.6249 0.628673 54.4297 1.0265 54.3432 1.2904C54.2568 1.55416 54.1055 1.91894 54.0072 2.10102C53.801 2.48277 53.7647 3.68948 53.956 3.80372C54.027 3.84612 54.0851 4.15703 54.0851 4.49462C54.0851 5.04261 54.1191 5.11668 54.4025 5.1854C54.5771 5.2278 54.8366 5.43931 54.9792 5.65544C55.1219 5.87169 55.3358 6.17636 55.4545 6.33275C55.7299 6.69504 55.8195 7.46002 55.6271 7.80697C55.3908 8.23386 55.6664 8.60513 56.2195 8.60513C56.5473 8.60513 56.6668 8.55063 56.6668 8.40147C56.6668 8.28948 56.7858 8.09818 56.9314 7.97621C57.095 7.83915 57.1443 7.72366 57.0605 7.67366C56.8985 7.57688 56.8775 6.52818 57.0356 6.43364C57.0965 6.39735 57.2142 6.01523 57.2972 5.58448C57.3802 5.15385 57.5047 4.56209 57.5739 4.26964C57.6429 3.97707 57.6995 3.39803 57.6995 2.98286C57.6995 2.28472 57.7188 2.23397 57.9577 2.30717C58.2582 2.39933 58.3 2.21813 58.0284 2.00038C57.8659 1.87006 57.6118 1.44292 57.0063 0.2816C56.876 0.0319263 56.7635 0.00187068 55.9568 0.00187068C55.0806 0.00174597 55.0448 0.0139677 54.7768 0.406187ZM55.6453 0.904162C55.5458 1.12715 55.3501 1.46823 55.2104 1.66241C55.0708 1.85646 54.9573 2.16513 54.9583 2.34833C54.9594 2.5314 54.9163 2.73743 54.8626 2.80602C54.759 2.93809 54.7895 3.51875 54.9376 4.23859C54.9867 4.47778 55.1926 4.82299 55.395 5.00582C55.5976 5.18852 55.7632 5.42086 55.7632 5.52212C55.7632 5.62339 55.8503 5.77604 55.9568 5.86146C56.1202 5.99254 56.181 5.94153 56.3473 5.53372C56.4556 5.26821 56.6088 4.94109 56.6878 4.8069C56.9037 4.43987 56.9962 2.42677 56.8025 2.31104C56.6535 2.22212 56.3348 2.54113 56.1257 2.98885C56.0765 3.09411 56.0428 2.87149 56.0508 2.49424C56.076 1.30361 56.0248 0.498848 55.9238 0.498848C55.8701 0.498848 55.7449 0.681177 55.6453 0.904162ZM38.4656 1.62126C38.4656 1.68985 38.5818 1.74597 38.7238 1.74597C38.8658 1.74597 38.9819 1.68985 38.9819 1.62126C38.9819 1.55266 38.8658 1.49654 38.7238 1.49654C38.5818 1.49654 38.4656 1.55266 38.4656 1.62126ZM38.2332 2.12646C38.148 2.25829 38.0783 2.45895 38.0783 2.57231C38.0783 2.6858 37.9827 2.84618 37.8657 2.92874C37.7121 3.03724 37.6778 3.17417 37.7419 3.42123C37.8154 3.70382 37.8635 3.73712 38.0191 3.61241C38.1227 3.52935 38.2092 3.37009 38.2115 3.25848C38.2137 3.14673 38.3009 2.94645 38.4052 2.81338C38.6093 2.55261 38.6596 2.04889 38.4914 1.9485C38.4346 1.91458 38.3184 1.99464 38.2332 2.12646ZM58.7322 3.17292C58.7322 3.26758 58.892 3.47635 59.0872 3.63673C59.2825 3.79711 59.5002 4.05202 59.5712 4.20317C59.8436 4.78308 60.9894 5.98443 61.2709 5.9853C61.4248 5.9858 61.8195 6.09755 62.1483 6.23361C62.477 6.36979 62.7868 6.47106 62.8367 6.45859C62.8866 6.44624 63.247 6.52381 63.6375 6.63106C65.396 7.11382 67.9476 7.45728 68.0925 7.2308C68.1356 7.16358 68.3705 7.10858 68.6149 7.10858C68.9035 7.10858 69.0591 7.0491 69.0591 6.93885C69.0591 6.82748 69.1643 6.78845 69.3646 6.82549C69.5939 6.86777 69.7388 6.7887 69.9455 6.50835C70.0969 6.30282 70.2209 6.08008 70.2209 6.01336C70.2209 5.71443 69.7571 5.55916 68.7759 5.52961C68.2085 5.51265 67.6771 5.44642 67.5949 5.3827C67.5128 5.31884 67.2422 5.22481 66.9937 5.17368C66.7452 5.12255 66.2991 4.91964 66.0023 4.72284C65.7055 4.52592 65.424 4.36492 65.3768 4.36492C65.3295 4.36492 65.1367 4.25954 64.9482 4.13059C64.2495 3.65281 61.5451 3.56751 60.9782 4.00538C60.6619 4.24969 60.1901 4.15678 59.6607 3.74573C59.363 3.51463 59.1194 3.28479 59.1194 3.23503C59.1194 3.18527 59.0323 3.11219 58.9258 3.07265C58.8113 3.03025 58.7322 3.07128 58.7322 3.17292ZM62.3152 4.69803C62.1137 4.89283 62.114 4.91715 62.3199 5.06817C62.5224 5.21683 62.518 5.2303 62.266 5.23391C62.1151 5.23616 61.7448 5.15372 61.443 5.05084C61.1412 4.94795 60.8316 4.86377 60.7552 4.86377C60.5155 4.86377 61.4954 5.72865 61.7399 5.73276C61.8676 5.73501 62.1421 5.82168 62.3498 5.92544C62.5574 6.0292 63.0919 6.14905 63.5374 6.19195C63.9829 6.23485 64.4055 6.30881 64.4765 6.35645C64.7508 6.54065 66.0931 6.76662 66.5174 6.70015C66.7626 6.66162 67.019 6.68407 67.0872 6.74991C67.1664 6.82649 67.2709 6.8003 67.3764 6.67733C67.4948 6.53952 67.4991 6.48503 67.3916 6.48503C67.2268 6.48503 66.4386 5.97994 66.3698 5.83029C66.3461 5.77878 66.2299 5.73551 66.1117 5.73401C65.9933 5.73251 65.7512 5.62152 65.5737 5.48733C65.3963 5.35314 65.168 5.24214 65.0666 5.24065C64.7193 5.23541 63.9603 4.92862 63.7514 4.70913C63.4789 4.42266 62.6072 4.41605 62.3152 4.69803ZM50.7754 6.82137C50.7203 7.03376 50.7431 7.17556 50.8375 7.20599C50.9197 7.23242 50.987 7.38283 50.987 7.54021C50.987 7.6976 51.0682 7.8914 51.1673 7.97097C51.3891 8.14881 51.7598 9.21223 51.7662 9.68863C51.7705 10.0305 51.9904 10.9765 52.2659 11.8394C52.3848 12.2119 52.3664 12.4914 52.2333 12.3361C51.7268 11.7454 51.1522 10.7065 51.1433 10.3652C51.1372 10.1329 51.0706 9.88318 50.9951 9.81022C50.9196 9.73727 50.8579 9.54858 50.8579 9.39081C50.8579 9.21896 50.7803 9.10398 50.6643 9.10398C50.4339 9.10398 50.4179 9.3337 50.6151 9.81296C50.6945 10.006 50.7799 10.3885 50.8049 10.6629C50.945 12.2028 51.5289 14.0342 52.4503 15.8237C53.531 17.9227 53.6586 18.146 53.877 18.3211C53.9915 18.4129 54.0851 18.5604 54.0851 18.6491C54.0851 18.7376 54.303 19.0252 54.5692 19.2881C54.8355 19.551 55.2117 20.0048 55.4054 20.2965C55.599 20.5882 55.8396 20.8269 55.94 20.8269C56.0403 20.8269 56.1579 20.9635 56.2013 21.1305C56.2989 21.5061 56.8079 21.8528 57.5704 22.0629C57.8899 22.151 58.248 22.2712 58.3662 22.3301C58.5096 22.4014 58.6339 22.3755 58.7401 22.2519C58.8697 22.1011 58.8451 22.0112 58.6082 21.7676C58.4483 21.6031 58.2418 21.4965 58.1492 21.5308C58.0449 21.5696 57.9178 21.424 57.8144 21.1477C57.7226 20.9026 57.5949 20.7022 57.5306 20.7022C57.4664 20.7022 57.4506 20.6093 57.4957 20.4958C57.5461 20.3688 57.4647 20.173 57.2845 19.9877C57.0109 19.7064 57.0064 19.6778 57.2189 19.563C57.4891 19.4168 57.3954 19.2057 57.0602 19.2057C56.8038 19.2057 56.6457 18.9445 56.6126 18.4661C56.6011 18.2994 56.5214 18.1404 56.4356 18.1127C56.2493 18.0527 56.2235 17.4597 56.4072 17.4597C56.604 17.4597 56.5106 16.817 56.2531 16.3996C56.1262 16.1939 56.0221 15.8524 56.0219 15.641C56.0216 15.4295 55.9798 15.2164 55.9291 15.1672C55.8137 15.0559 55.5186 13.9913 55.5101 13.656C55.5066 13.5188 55.358 13.2382 55.18 13.0324C55.0018 12.8266 54.7669 12.4618 54.6578 12.2218C54.3795 11.6093 53.4331 10.2264 53.2922 10.2264C53.2278 10.2264 53.1183 10.0822 53.049 9.90613C52.9797 9.72991 52.7857 9.40728 52.6179 9.18903C52.3398 8.82749 51.5129 7.23255 51.3291 6.70327C51.2136 6.37054 50.8737 6.44312 50.7754 6.82137ZM62.2175 6.92152C62.2175 7.0244 62.2756 7.10858 62.3466 7.10858C62.4176 7.10858 62.4757 7.0244 62.4757 6.92152C62.4757 6.81863 62.4176 6.73445 62.3466 6.73445C62.2756 6.73445 62.2175 6.81863 62.2175 6.92152ZM62.4757 7.33681C62.4757 7.39368 62.8074 7.79438 63.2128 8.22713C63.9261 8.98862 63.9502 9.03751 63.9597 9.73677C63.966 10.2063 64.041 10.5388 64.1738 10.6859C64.2863 10.8104 64.4013 10.9684 64.4294 11.037C64.5506 11.3325 65.0911 12.0971 65.1787 12.0971C65.2681 12.0971 65.5362 12.8316 65.6435 13.3704C65.6693 13.4998 65.8417 13.7794 66.0266 13.9917C66.2627 14.2628 66.3222 14.417 66.2264 14.5095C66.0026 14.7257 66.0707 14.9336 66.3907 15.0113C66.556 15.0514 66.7544 15.218 66.8316 15.3816C66.9845 15.706 67.3843 15.8659 67.6482 15.7084C67.7398 15.6536 67.8303 15.3658 67.849 15.0688C67.8679 14.7719 67.8903 14.529 67.8991 14.529C67.9079 14.529 67.9367 14.3704 67.963 14.1766C67.9905 13.9742 67.9045 13.6558 67.761 13.4284C67.6235 13.2106 67.5108 12.9562 67.5106 12.8632C67.5103 12.7701 67.1325 12.1708 66.671 11.5312C66.2095 10.8918 65.8319 10.3366 65.8319 10.2975C65.8319 10.1198 66.3328 10.2526 66.5542 10.489C66.6894 10.6336 67.024 10.8622 67.2977 10.9971C67.5715 11.1322 68.1965 11.491 68.6867 11.7945C69.1769 12.0981 69.6267 12.3465 69.6861 12.3465C69.8383 12.3465 71.9164 13.5265 72.1895 13.768C72.3138 13.8778 72.6333 13.9681 72.8994 13.9685C73.5982 13.9695 74.3517 14.1993 74.4556 14.4431C74.5155 14.5836 74.7065 14.6584 75.0299 14.6679C75.2964 14.6757 75.8244 14.7764 76.2033 14.8915C76.7861 15.0686 76.9382 15.1814 77.1925 15.6255C77.5119 16.1838 78.1609 16.8209 79.1601 17.5577C79.4973 17.8064 79.7733 18.0534 79.7733 18.1068C79.7733 18.1601 80.0582 18.3433 80.4063 18.5136C82.0486 19.3176 81.0913 17.5103 79.0969 16.0416C78.8313 15.8459 78.646 15.6361 78.685 15.5752C78.7921 15.4077 79.3567 15.4423 79.4196 15.6202C79.4623 15.7409 79.5639 15.7444 79.8695 15.6356C80.2083 15.5152 80.3002 15.53 80.5181 15.7405C80.736 15.951 80.8099 15.9629 81.0392 15.8246C81.2537 15.6951 81.3657 15.694 81.6063 15.8185C81.7713 15.9038 82.138 15.9719 82.4211 15.9699C82.7042 15.968 83.0991 15.9714 83.2984 15.9775C83.4978 15.9836 83.76 15.902 83.8811 15.7961C84.0572 15.6423 84.3041 15.6186 85.1159 15.6779C85.9866 15.7415 86.148 15.7221 86.2532 15.5404C86.336 15.3974 86.4619 15.355 86.6406 15.4098C86.8023 15.4594 86.9492 15.4251 87.0183 15.3217C87.112 15.1814 87.1529 15.1844 87.2584 15.3396C87.3663 15.4985 87.3858 15.4926 87.3875 15.3005C87.3886 15.1605 87.4754 15.0829 87.6153 15.0966C88.3258 15.1665 88.446 15.1049 88.3575 14.716C88.2605 14.2893 88.3573 14.2474 88.7177 14.5601C88.9586 14.7691 88.9773 14.7665 89.1632 14.4978C89.2699 14.3435 89.4318 14.2172 89.5229 14.2172C89.6253 14.2172 89.6629 14.1215 89.6212 13.9675C89.5688 13.7738 89.6511 13.6783 89.9883 13.5416C90.6762 13.2629 91.9074 11.7242 91.9074 11.1431C91.9074 11.0505 91.9655 10.9747 92.0365 10.9747C92.1075 10.9747 92.1656 10.8973 92.1656 10.8028C92.1656 10.7084 92.2527 10.5612 92.3592 10.4758C92.4657 10.3904 92.5509 10.2012 92.5486 10.0553C92.5445 9.7995 92.5349 9.80124 92.2863 10.1017C91.4514 11.1107 91.1388 11.3943 90.6166 11.6163C90.2971 11.752 89.8614 12.0241 89.6484 12.221C89.268 12.5726 88.3301 12.9647 87.8611 12.9682C87.7301 12.9692 87.4529 13.067 87.2453 13.1856C86.9375 13.3611 86.8213 13.373 86.616 13.2492C86.4052 13.1219 86.3248 13.1382 86.1215 13.3492C85.8374 13.6436 84.6395 13.8351 84.4948 13.6089C84.3681 13.4109 83.9095 13.4349 83.8265 13.6437C83.7115 13.9335 82.8865 14.0195 82.6026 13.7714C82.4323 13.6225 82.311 13.5967 82.1961 13.6849C81.8782 13.9287 81.1033 13.9877 80.8925 13.784C80.6405 13.5406 80.5124 13.5446 79.9285 13.8141C79.4263 14.0457 78.895 13.9762 78.452 13.6209C78.2964 13.4962 78.1806 13.4935 77.9199 13.6082C77.6599 13.7227 77.5433 13.7204 77.3906 13.598C77.283 13.5117 77.0981 13.4769 76.9799 13.5207C76.8616 13.5646 76.5732 13.5394 76.3391 13.4647C76.0436 13.3704 75.837 13.3683 75.6641 13.4578C75.4739 13.5561 75.2199 13.5125 74.5928 13.274C74.1407 13.102 73.6467 12.9908 73.495 13.0268C73.189 13.0996 72.8252 12.7989 73.0541 12.6623C73.1283 12.6179 73.7766 12.5922 74.4946 12.6051C75.4431 12.6221 75.8281 12.5846 75.903 12.4676C75.9869 12.3365 76.0799 12.3363 76.4053 12.4665C76.818 12.6317 77.0901 12.5351 77.3598 12.1274C77.4351 12.0136 77.5314 12.0059 77.7118 12.0991C77.8986 12.1957 78.017 12.1784 78.189 12.0295C78.5225 11.7409 79.2776 11.2494 79.604 11.1085C80.0627 10.9107 80.2259 10.353 80.0498 9.58499C79.9865 9.309 79.5221 9.39069 78.8392 9.798C78.3523 10.0883 77.9836 10.2273 77.814 10.1845C77.5475 10.1171 77.4842 10.136 76.697 10.5171C76.4605 10.6316 76.0428 10.7252 75.7688 10.7252C75.4947 10.7252 75.2386 10.7751 75.1995 10.8362C75.1605 10.8972 74.9393 10.979 74.7078 11.0181C73.0206 11.3025 72.2588 11.5143 71.8817 11.8037C71.5658 12.0462 70.5209 11.9694 69.8442 11.654C69.495 11.4912 69.1768 11.3071 69.1369 11.2449C69.0972 11.1827 68.7294 10.9702 68.3195 10.7726C67.9098 10.5751 67.5552 10.3713 67.5316 10.3199C67.5079 10.2685 67.4107 10.2264 67.3155 10.2264C67.2204 10.2264 66.9745 10.0897 66.7691 9.92271C66.5636 9.75572 66.2515 9.58412 66.0753 9.54134C65.8992 9.49869 65.5802 9.30576 65.3664 9.11283C65.1527 8.91978 64.8505 8.72273 64.6948 8.67509C64.5393 8.62733 64.412 8.54128 64.412 8.48391C64.412 8.42642 64.1516 8.23199 63.8334 8.05191C63.5153 7.8717 63.1938 7.61379 63.1189 7.47886C62.9871 7.24078 62.4757 7.12792 62.4757 7.33681ZM78.4824 10.8499C78.4824 10.9185 78.5405 10.9747 78.6115 10.9747C78.6825 10.9747 78.7406 10.9185 78.7406 10.8499C78.7406 10.7814 78.6825 10.7252 78.6115 10.7252C78.5405 10.7252 78.4824 10.7814 78.4824 10.8499ZM65.3156 11.037C65.3156 11.1399 65.3737 11.2241 65.4447 11.2241C65.5157 11.2241 65.5737 11.1399 65.5737 11.037C65.5737 10.9341 65.5157 10.8499 65.4447 10.8499C65.3737 10.8499 65.3156 10.9341 65.3156 11.037ZM76.6888 11.2347C76.5188 11.3004 76.2801 11.3236 76.1583 11.2863C76.0367 11.249 75.8638 11.3039 75.7741 11.4083C75.6843 11.5128 75.4276 11.5982 75.2036 11.5982C74.7894 11.5982 74.2226 11.8905 74.2226 12.1042C74.2226 12.2617 75.0894 12.2555 75.1907 12.0971C75.2346 12.0285 75.4982 11.9724 75.7766 11.9724C76.274 11.9724 77.2173 11.6845 77.5591 11.4285C77.7004 11.3226 77.6883 11.2812 77.4945 11.2075C77.1799 11.088 77.0577 11.0921 76.6888 11.2347ZM66.1934 12.122C66.2786 12.2043 66.3483 12.4569 66.3483 12.6832C66.3483 13.104 66.6391 13.2679 66.7758 12.924C66.86 12.712 66.4088 11.9724 66.1953 11.9724C66.0733 11.9724 66.0729 12.0057 66.1934 12.122ZM46.1694 16.5507C46.1305 16.6113 46.1457 16.7345 46.2032 16.8243C46.2826 16.9482 46.3305 16.9517 46.4029 16.8386C46.4553 16.7567 46.4401 16.6336 46.3691 16.565C46.2968 16.4952 46.2089 16.4889 46.1694 16.5507ZM45.1136 17.4061C44.8296 17.5693 44.5391 17.6955 44.4681 17.6864C44.3971 17.6773 44.2519 17.7034 44.1454 17.7445C44.0389 17.7856 43.8362 17.8372 43.695 17.8591C43.5539 17.8811 43.4165 18.0088 43.3897 18.143C43.363 18.2772 43.2026 18.5625 43.0333 18.7769C42.864 18.9914 42.7255 19.2257 42.7255 19.2976C42.7255 19.3695 42.6383 19.4607 42.5318 19.5002C42.4253 19.5396 42.3382 19.6519 42.3382 19.7496C42.3382 19.8473 42.2511 19.9595 42.1446 19.9991C42.0381 20.0385 41.9509 20.2128 41.9509 20.3865C41.9509 20.6305 41.885 20.7024 41.6605 20.7031C41.474 20.7036 41.2602 20.8597 41.0629 21.1396C40.8941 21.3791 40.6832 21.5752 40.5945 21.5752C40.5057 21.5752 40.1972 21.7857 39.909 22.0429C39.6208 22.3001 39.1816 22.6789 38.9331 22.8847C38.0468 23.6185 39.1417 23.4684 40.765 22.6336C41.0966 22.463 41.4347 22.3235 41.5164 22.3235C41.598 22.3235 41.7002 22.1869 41.7436 22.02C41.8185 21.7319 42.2291 21.4946 42.5513 21.5534C42.6329 21.5682 42.8203 21.3407 42.9676 21.0478C43.1149 20.7548 43.4993 20.2626 43.8219 19.9539C44.7463 19.0693 46.0817 17.4874 46.0817 17.277C46.0817 17.0091 45.7198 17.0574 45.1136 17.4061ZM42.1588 18.7783C42.1045 18.9149 42.146 18.9622 42.2957 18.9342C42.4138 18.912 42.5347 18.8238 42.5641 18.738C42.6432 18.5086 42.2504 18.5477 42.1588 18.7783ZM40.531 20.3281C40.531 20.3966 40.5926 20.4528 40.6677 20.4528C40.7428 20.4528 40.7685 20.3966 40.7246 20.3281C40.6807 20.2595 40.6193 20.2033 40.5879 20.2033C40.5565 20.2033 40.531 20.2595 40.531 20.3281ZM39.9167 20.7004C39.6905 21.0504 39.7173 21.201 40.006 21.201C40.2645 21.201 40.4791 20.799 40.3381 20.5786C40.2173 20.3898 40.0944 20.4253 39.9167 20.7004ZM39.2401 21.3184C39.2401 21.383 39.2982 21.4704 39.3692 21.5128C39.4402 21.5552 39.4983 21.5023 39.4983 21.3955C39.4983 21.2886 39.4402 21.201 39.3692 21.201C39.2982 21.201 39.2401 21.2538 39.2401 21.3184ZM36.9086 34.9673C36.8774 34.9966 36.3873 35.0527 35.8193 35.092C33.6326 35.2434 32.9278 35.4278 32.6551 35.9199C32.58 36.0555 32.4355 36.1665 32.334 36.1665C32.1148 36.1665 31.8367 36.6181 31.9484 36.7927C31.9914 36.8598 32.1654 36.9148 32.3351 36.9148C32.505 36.9148 32.7001 37.0118 32.7687 37.1304C32.8795 37.3216 32.9597 37.329 33.4734 37.1964C33.7921 37.1139 34.3741 36.9047 34.7665 36.7312C35.1589 36.5578 35.5222 36.4159 35.5735 36.4159C35.8144 36.4159 37.2967 35.3352 37.2697 35.1791C37.239 35.001 37.0132 34.8687 36.9086 34.9673ZM6.21177 39.3611C5.99271 39.5094 5.87602 39.5259 5.77004 39.4235C5.45313 39.1173 4.73374 39.3076 3.78095 39.9495C3.47218 40.1574 3.15333 40.2821 3.0387 40.2396C2.76375 40.1377 2.45045 40.2703 2.45045 40.4886C2.45045 40.8476 2.05106 41.4025 1.73815 41.4785C1.4885 41.539 1.41776 41.6366 1.41776 41.9207C1.41776 42.1242 1.33501 42.3159 1.23032 42.3547C0.983508 42.4461 0.73102 43.2022 0.838161 43.5285C0.884633 43.67 0.866431 43.8534 0.797499 43.9358C0.728696 44.0182 0.643113 44.3102 0.607356 44.5845C0.571728 44.8589 0.420958 45.5043 0.27238 46.0187C0.123801 46.5332 0.00129574 47.108 4.87118e-06 47.2962C-0.00309321 47.7864 1.4725 50.6821 1.84594 50.9184C2.01466 51.0253 2.22507 51.2816 2.31362 51.488C2.41083 51.7147 2.54262 51.8382 2.64628 51.7998C2.74064 51.7648 2.88934 51.8667 2.97661 52.0264C3.22277 52.4768 4.48473 53.573 4.61368 53.4485C4.65409 53.4095 4.79105 53.543 4.9182 53.745C5.07763 53.9983 5.32056 54.1568 5.70046 54.2557C6.00356 54.3345 6.42141 54.5372 6.62911 54.7059C6.86288 54.8961 7.13449 55 7.34258 54.9789C7.52743 54.9602 7.73667 54.9775 7.80767 55.0175C8.16873 55.2205 8.93396 55.3685 9.74384 55.392C10.2486 55.4066 10.7723 55.4947 10.9304 55.5918C11.1421 55.7217 11.5318 55.7503 12.4794 55.7054C13.1757 55.6723 13.7746 55.6344 13.8101 55.6213C13.8456 55.6082 14.0954 55.6073 14.3653 55.6194C14.6351 55.6317 14.9393 55.5747 15.0413 55.4929C15.1433 55.4112 15.3146 55.3768 15.422 55.4167C15.5294 55.4564 15.6173 55.4406 15.6173 55.3816C15.6173 55.1908 15.312 55.156 14.4825 55.252C14.036 55.3038 13.5626 55.3189 13.4308 55.2856C13.2989 55.2523 13.0677 55.2887 12.917 55.3666C12.7663 55.4446 12.5725 55.4663 12.4865 55.415C12.3071 55.3079 12.2827 55.3034 10.9334 55.1348C10.3808 55.0657 9.85266 55.0373 9.76011 55.0716C9.66742 55.106 9.51704 55.0474 9.42603 54.9414C9.3349 54.8352 9.12049 54.7486 8.94945 54.7486C8.47467 54.7486 7.06646 54.2592 6.76659 53.9901C6.61995 53.8585 6.40993 53.7509 6.29982 53.7509C6.18983 53.7509 5.95205 53.6386 5.77146 53.5015C5.591 53.3643 5.34806 53.252 5.23175 53.252C5.11532 53.252 4.92117 53.0733 4.80022 52.8548C4.67939 52.6363 4.32892 52.2015 4.02157 51.8883C3.37084 51.2253 2.45123 50.0044 2.14994 49.4037C2.00046 49.1054 1.97632 48.9192 2.06629 48.7568C2.21461 48.489 2.25721 47.1183 2.13381 46.5799C2.06333 46.272 2.11806 46.1327 2.44297 45.7928C2.66009 45.5657 2.83771 45.2535 2.83771 45.0992C2.83771 44.9448 2.95389 44.6982 3.09588 44.5509C3.23788 44.4037 3.35406 44.2482 3.35406 44.2054C3.35406 43.9842 4.33202 43.0203 4.74742 42.8322C5.0105 42.713 5.27228 42.5395 5.32908 42.4465C5.47766 42.2032 6.11432 42.2385 6.63066 42.5186C6.87528 42.6513 7.29765 42.7776 7.56938 42.7992C7.92669 42.8277 8.07605 42.9019 8.10845 43.0672C8.1331 43.193 8.3843 43.4974 8.66649 43.7437C9.23421 44.2393 9.58325 44.7973 9.52813 45.1213C9.50826 45.2377 9.54776 45.417 9.61566 45.5199C9.68369 45.6228 9.7707 45.9876 9.80929 46.3305L9.87926 46.9541L10.1674 46.3441C10.5128 45.6127 10.7638 43.7426 10.5885 43.2064C10.3666 42.527 10.1151 41.9086 10.0259 41.8224C9.97723 41.7754 9.93747 41.6562 9.93747 41.5574C9.93747 41.4588 9.74875 41.1481 9.51794 40.8673C9.28714 40.5863 9.0389 40.2416 8.96636 40.101C8.87044 39.9156 8.68455 39.835 8.28865 39.8072C7.98852 39.786 7.743 39.7223 7.743 39.6654C7.743 39.5431 6.94266 39.1596 6.6872 39.1596C6.58948 39.1596 6.37559 39.2502 6.21177 39.3611Z" fill="#A3AD7E"></path></svg> 