<?xml version="1.0" encoding="UTF-8"?> <svg xmlns="http://www.w3.org/2000/svg" width="67" height="59" viewBox="0 0 67 59" fill="none"><path fill-rule="evenodd" clip-rule="evenodd" d="M0.0161959 0.197294C0.0593108 0.305794 0.0945651 0.418035 0.0945651 0.446718C0.0945651 0.547985 0.985902 0.497227 1.31249 0.377254C1.901 0.161128 1.6782 0 0.790732 0C0.0660402 0 -0.0504127 0.0296815 0.0161959 0.197294ZM14.0935 0.562701C14.0455 0.872236 13.9547 1.15621 13.892 1.19362C13.8291 1.23116 13.7777 1.45676 13.7777 1.69484C13.7777 2.24806 14.0536 2.35955 14.6522 2.04802C14.9016 1.91832 15.199 1.81132 15.3129 1.8102C15.43 1.8092 15.5386 1.68399 15.5623 1.52273C15.5856 1.3646 15.7987 1.11418 16.0401 0.96153C16.4032 0.731935 16.7467 0.291951 16.7467 0.0564945C16.7467 0.0254413 16.1694 0 15.4637 0H14.1809L14.0935 0.562701ZM28.7518 0.62356C28.4323 0.955918 28.1022 1.23215 28.0182 1.23739C27.9343 1.24276 27.8287 1.35936 27.7836 1.49654C27.7386 1.63373 27.6144 1.74597 27.5078 1.74597C26.8845 1.74597 24.8416 3.69297 24.1575 4.93897C23.6561 5.85199 23.3657 6.25917 22.7492 6.91378C22.1948 7.50255 21.9102 7.84863 21.9102 7.93393C21.9102 7.97471 21.7649 8.11838 21.5875 8.25332C21.41 8.38813 21.2647 8.57482 21.2647 8.66823C21.2647 9.08327 18.9768 10.5344 18.1344 10.6536C17.4663 10.7483 17.4158 10.8279 17.7297 11.2908C17.867 11.4933 18.0585 11.5982 18.2907 11.5982C18.4847 11.5982 18.8299 11.6881 19.058 11.7981C19.2902 11.91 19.6665 11.9761 19.9132 11.9483C20.2012 11.9157 20.3768 11.9564 20.4201 12.0655C20.4662 12.1817 20.5557 12.198 20.7142 12.119C20.8395 12.0567 21.4266 11.975 22.0189 11.9376C22.8403 11.8858 23.1617 11.8116 23.3743 11.6248C23.7527 11.2923 24.162 11.0994 24.4893 11.0994C24.6392 11.0994 24.907 10.9591 25.0845 10.7876C25.262 10.6161 25.4778 10.4758 25.564 10.4758C25.6502 10.4758 25.7932 10.3636 25.8819 10.2264C25.9706 10.0892 26.129 9.97696 26.2339 9.97696C26.3389 9.97696 26.7108 9.71033 27.0602 9.38458C27.4097 9.05883 28.25 8.28711 28.9277 7.66979C29.6053 7.05246 30.1624 6.45148 30.1657 6.33412C30.169 6.21689 30.4109 5.88516 30.7033 5.59695C30.9957 5.30874 31.3176 4.88198 31.4186 4.64839C31.5424 4.36218 31.674 4.23709 31.8229 4.26453C32.1221 4.31953 32.1741 4.81002 31.9204 5.18403C31.7659 5.412 31.747 5.55093 31.846 5.72977C32.0155 6.03581 32.0177 6.57182 31.8498 6.67209C31.7788 6.7145 31.7208 6.98001 31.7208 7.26198C31.7208 7.57039 31.633 7.86858 31.5005 8.00988C31.3375 8.18398 31.3144 8.29971 31.4115 8.45622C31.4836 8.57245 31.522 8.89197 31.4967 9.16633C31.4714 9.4407 31.4538 10.1612 31.4574 10.7673C31.4632 11.704 31.4222 11.9262 31.1845 12.2487C30.9515 12.5649 30.9311 12.6686 31.0619 12.8709C31.239 13.1449 31.3806 14.2475 31.347 15.0902C31.297 16.3461 31.2517 16.7845 31.1498 16.998C31.0748 17.1555 31.1115 17.2706 31.2729 17.3847C31.4662 17.5212 31.487 17.6449 31.4027 18.1582C31.3476 18.4942 31.2566 19.0498 31.2005 19.3927C31.082 20.1182 30.887 20.8662 30.7678 21.0525C30.722 21.1241 30.6566 21.5005 30.6224 21.889C30.5849 22.3141 30.4571 22.7349 30.3013 22.9463C30.1591 23.1393 30.0426 23.3381 30.0426 23.3879C30.0426 23.4376 29.8375 23.7543 29.5868 24.0914C29.3361 24.4285 29.1632 24.7546 29.2024 24.8159C29.2416 24.8773 29.1585 25.0313 29.0176 25.1583C28.657 25.4827 28.2359 26.4562 28.1533 27.1562C28.0924 27.673 28.1198 27.7696 28.3685 27.9147C28.624 28.0637 28.7159 28.039 29.2513 27.678C29.9554 27.2032 30.6762 26.4542 30.6837 26.1895C30.6866 26.0866 30.805 25.8188 30.9468 25.5941C31.0885 25.3695 31.2044 25.0741 31.2044 24.9377C31.2044 24.6699 31.4481 24.1863 31.6551 24.0435C31.7254 23.9948 31.7835 23.8555 31.7841 23.7337C31.7848 23.612 31.8869 23.4932 32.0112 23.4699C32.194 23.4356 32.2371 23.5168 32.2371 23.8946C32.2371 24.152 32.3319 24.4628 32.4484 24.5871C32.5949 24.7436 32.6698 25.0907 32.6929 25.7211C32.7164 26.359 32.8036 26.7591 32.9863 27.0643C33.1293 27.3033 33.3167 27.8343 33.4024 28.2443C33.4882 28.6542 33.6478 29.0527 33.757 29.1297C33.8792 29.2162 33.9275 29.3734 33.8825 29.5395C33.8423 29.6878 33.9204 30.1022 34.0561 30.4607C34.1916 30.819 34.3025 31.2208 34.3025 31.3535C34.3025 31.4863 34.385 31.6835 34.4858 31.7917C34.5968 31.9111 34.6903 32.3582 34.7228 32.9257C34.7642 33.6482 34.8701 34.0521 35.1848 34.6891L35.593 35.5155L35.3855 36.1839C35.0565 37.2439 34.3806 38.7241 34.1676 38.8513C33.869 39.0295 33.1109 40.7526 33.0714 41.3432C33.0331 41.9136 33.0589 41.9812 33.3689 42.1226C33.5557 42.2077 33.8071 42.2774 33.9276 42.2774C34.2191 42.2774 34.9084 41.5049 35.1608 40.8954C35.2722 40.6267 35.4079 40.4067 35.4623 40.4067C35.5575 40.4067 35.7295 39.3429 35.7498 38.6295C35.7551 38.4409 35.8289 38.2866 35.9139 38.2866C36.0934 38.2866 36.3679 38.8142 36.3679 39.1592C36.3679 39.2898 36.4695 39.4538 36.5938 39.5237C36.7396 39.6058 36.7585 39.6522 36.647 39.6547C36.5171 39.6574 36.4949 39.7897 36.5575 40.1884C36.6032 40.4799 36.6929 40.8307 36.7567 40.9679C37.1056 41.7183 37.2613 42.1924 37.1934 42.2985C37.1514 42.364 37.205 42.5125 37.3124 42.6282C37.4199 42.7439 37.5502 43.0593 37.6021 43.3291C37.654 43.5988 37.8622 44.1728 38.0649 44.6046C38.2675 45.0364 38.4333 45.5003 38.4333 45.6355C38.4333 45.7706 38.5785 46.0326 38.756 46.2177C38.9335 46.4026 39.08 46.644 39.0815 46.754C39.0831 46.864 39.198 47.0944 39.3369 47.2659C39.4758 47.4373 39.5907 47.6689 39.5922 47.7807C39.5938 47.8923 39.6822 48.0534 39.7887 48.1388C39.8952 48.2243 39.9823 48.3701 39.9823 48.463C39.9823 48.5559 40.129 48.7249 40.3083 48.8383C40.5305 48.9789 40.6106 49.1168 40.5599 49.2714C40.5142 49.4105 40.5916 49.6005 40.7607 49.7638C41.0189 50.0133 41.0221 50.0394 40.8116 50.1881C40.624 50.3207 40.6044 50.4461 40.6915 50.9575C40.7487 51.2934 40.7952 51.7228 40.7946 51.9114C40.794 52.1856 40.853 52.2543 41.0887 52.2543C41.2528 52.2543 41.5011 52.1099 41.6489 51.9285C41.9521 51.5558 42.3059 51.6025 42.3059 52.015C42.3059 52.3163 44.7252 54.6863 45.351 54.998C45.5577 55.1009 45.8025 55.2833 45.8953 55.4033C45.988 55.5233 46.1698 55.6216 46.299 55.6216C46.4284 55.6216 46.6138 55.7151 46.7113 55.8295C46.9704 56.1335 47.8691 56.744 48.0574 56.744C48.1607 56.744 48.1937 56.642 48.1486 56.4634C48.0534 56.0881 47.8659 55.871 47.6366 55.871C47.5329 55.871 47.2002 55.6746 46.8968 55.4345C46.5936 55.1944 46.2498 54.998 46.1329 54.998C46.0159 54.998 45.9179 54.9279 45.9151 54.8421C45.9121 54.7564 45.4389 54.3222 44.8632 53.8773C44.2875 53.4325 43.5202 52.734 43.158 52.325C42.7959 51.9162 42.3397 51.4299 42.1445 51.2444C41.9493 51.059 41.7895 50.8452 41.7895 50.7695C41.7895 50.607 40.7356 48.6066 40.5974 48.5067C40.5452 48.4691 40.4651 48.2576 40.4194 48.0367L40.3363 47.6353L41.2364 47.7161C41.9816 47.783 42.1495 47.7637 42.2129 47.6041C42.2569 47.4932 42.2072 47.3807 42.0958 47.3394C41.9893 47.2999 41.9423 47.2049 41.9915 47.128C42.1384 46.8983 41.7712 46.771 40.9505 46.7673C40.0075 46.7628 39.595 46.6662 39.595 46.4497C39.595 46.3598 39.4498 46.1759 39.2723 46.0411C39.0797 45.8946 38.9496 45.6683 38.9496 45.4797C38.9496 45.3058 38.8625 45.0794 38.756 44.9765C38.6495 44.8736 38.5624 44.6434 38.5624 44.4648C38.5624 44.2845 38.472 44.1068 38.3592 44.0649C38.2191 44.013 38.1797 43.8976 38.2327 43.6941C38.2756 43.5286 38.2291 43.2754 38.1268 43.1187C38.0264 42.9647 37.905 42.5168 37.857 42.1235C37.809 41.7301 37.7209 41.3791 37.661 41.3434C37.6011 41.3076 37.513 41.0544 37.4651 40.7808C37.4172 40.5072 37.3228 40.2502 37.255 40.2098C37.1873 40.1694 37.1633 40.0408 37.2017 39.9242C37.2399 39.8075 37.181 39.4054 37.0706 39.0305C36.9603 38.6556 36.7877 37.9347 36.6871 37.4283C36.5865 36.922 36.4155 36.3767 36.3071 36.2167C36.1985 36.0567 36.1097 35.7668 36.1097 35.5722C36.1097 35.3778 36.0503 35.1613 35.9777 35.0911C35.905 35.0209 35.8189 34.7431 35.7862 34.4738C35.7535 34.2044 35.6925 33.7034 35.6508 33.3605C35.609 33.0175 35.4861 32.5485 35.3778 32.3181C35.2694 32.0878 35.1534 31.6701 35.1201 31.39C35.0868 31.1099 35.0036 30.7796 34.9349 30.6557C34.8664 30.5319 34.7506 30.1077 34.6775 29.7131C34.6044 29.3184 34.4255 28.6652 34.2798 28.2612C34.134 27.8574 33.9701 27.178 33.9154 26.7514C33.8605 26.3247 33.7152 25.7709 33.5923 25.5206C33.4128 25.1553 33.4001 25.029 33.528 24.88C33.6558 24.7313 33.6438 24.6061 33.4672 24.2466C33.3462 24.0002 33.1929 23.4247 33.1265 22.9675C33.0602 22.5104 32.9715 22.0298 32.9294 21.8996C32.8873 21.7694 32.8301 21.0117 32.8021 20.2159C32.7742 19.4202 32.7009 17.9554 32.6391 16.9608C32.5521 15.5584 32.5638 15.0949 32.6915 14.8959C32.8029 14.7221 32.8161 14.5704 32.7324 14.4259C32.6645 14.3086 32.6255 14.1155 32.6457 13.9967C32.6659 13.8778 32.6433 13.7206 32.5955 13.647C32.5477 13.5735 32.5863 13.3686 32.6813 13.1917C32.8082 12.9555 32.8234 12.7121 32.739 12.2753C32.6453 11.7906 32.6631 11.6389 32.8354 11.4549C33.0372 11.2395 33.0567 11.2477 33.2623 11.6319C33.3839 11.8592 33.4318 12.0954 33.3722 12.174C33.3109 12.255 33.3484 12.379 33.4619 12.47C33.5691 12.556 33.6571 12.7528 33.6571 12.9073C33.6571 13.2407 33.9279 14.0089 34.381 14.961C34.5617 15.3407 34.7987 15.8478 34.9075 16.0878C35.0163 16.3279 35.1564 16.6085 35.2186 16.7114C35.281 16.8143 35.4258 17.0668 35.5407 17.2726C35.6556 17.4784 35.9613 17.8493 36.2201 18.0968C36.4789 18.3445 36.8764 18.7433 37.1033 18.9833C37.3302 19.2232 37.9111 19.6065 38.3942 19.8351C38.8772 20.0637 39.4108 20.3523 39.5802 20.4765C39.9482 20.7463 40.7925 20.7742 41.0077 20.5236C41.2405 20.2526 40.9784 19.5142 40.5161 19.1383C40.3011 18.9636 40.0862 18.6967 40.0385 18.5454C39.9908 18.3941 39.8786 18.1861 39.7893 18.0832C39.6998 17.9804 39.5533 17.6717 39.4636 17.3973C39.0915 16.2591 38.6146 15.0368 38.4175 14.716C38.2284 14.4084 38.1981 14.3058 38.1122 13.6871C38.0575 13.2917 37.9684 13.0948 37.8445 13.0948C37.7385 13.0948 37.6579 12.9743 37.6568 12.8142C37.6542 12.4459 37.5211 12.2609 37.2186 12.2051C37.058 12.1754 36.9211 11.9852 36.8264 11.6606C36.7159 11.2816 36.6159 11.1617 36.41 11.1617C36.0638 11.1617 35.5934 10.7555 35.5934 10.4565C35.5934 10.3299 35.5208 10.2264 35.432 10.2264C35.2837 10.2264 34.5607 9.45604 34.5607 9.29803C34.5607 9.26024 34.3574 8.95582 34.1089 8.62172C33.8604 8.28749 33.6571 7.95064 33.6571 7.87319C33.6571 7.79562 33.5648 7.73215 33.4521 7.73215C33.2842 7.73215 33.263 7.64111 33.3351 7.22906C33.3835 6.95232 33.5086 6.56023 33.6133 6.35769C33.7178 6.15504 33.7655 5.93006 33.7191 5.8576C33.6728 5.78514 33.6909 5.65818 33.7594 5.57538C33.8278 5.49269 33.8831 5.17243 33.8822 4.86377C33.8813 4.53702 33.9857 4.12024 34.1322 3.86607C34.2706 3.626 34.3887 3.22455 34.3947 2.97401C34.4005 2.72346 34.523 2.35868 34.6669 2.16338C34.8408 1.9273 34.9577 1.50527 35.0158 0.904162L35.1032 0H33.7505C32.7056 0 32.3613 0.0425268 32.2371 0.187068C32.1487 0.289955 32.0104 0.374136 31.9299 0.374136C31.7687 0.374136 30.7724 1.74884 30.5739 2.24482C30.5054 2.4163 30.1841 2.89332 29.8601 3.30487C29.536 3.71642 29.2702 4.09654 29.2695 4.14967C29.2688 4.20267 29.6945 3.93616 30.2155 3.55729C30.7365 3.17841 31.2302 2.86838 31.3127 2.86838C31.5301 2.86838 31.4964 3.18477 31.2589 3.37533C31.1468 3.46512 30.9122 3.81132 30.7372 4.14468C30.5625 4.47803 30.3346 4.78221 30.231 4.82062C30.1274 4.85903 30.0426 4.93822 30.0426 4.99671C30.0426 5.2288 28.9564 6.46694 28.0805 7.2333C27.5709 7.67914 26.883 8.28237 26.5518 8.57395C26.2207 8.86553 25.8941 9.10398 25.8262 9.10398C25.7583 9.10398 25.532 9.26448 25.3232 9.46078C25.1145 9.65695 24.7985 9.86085 24.621 9.91386C24.4435 9.96686 24.0866 10.1711 23.8279 10.3678C23.5692 10.5644 23.2788 10.7262 23.1825 10.7275C23.0862 10.7287 22.7518 10.8971 22.4394 11.1016C21.8456 11.4903 21.6369 11.522 20.5225 11.3927C19.9734 11.329 19.8448 11.2695 19.8448 11.0789C19.8448 10.814 20.3753 10.5657 20.6913 10.683C20.8994 10.76 21.6363 10.0577 21.6467 9.77218C21.6497 9.69399 21.7908 9.59622 21.9605 9.55506C22.2619 9.48198 22.5409 9.10398 22.2934 9.10398C22.2246 9.10398 22.1684 9.05147 22.1684 8.98712C22.1684 8.9229 22.3572 8.85281 22.5879 8.83123C22.9127 8.80105 23.017 8.72735 23.0496 8.50486C23.0742 8.3375 23.2237 8.16914 23.4079 8.10142C23.7862 7.96249 23.9298 7.66754 23.7315 7.4367C23.6205 7.3075 23.6991 7.14425 24.076 6.72123C24.3446 6.4198 24.6496 6.05439 24.7541 5.9091C24.8584 5.76382 25.2525 5.21371 25.6298 4.6868C26.0071 4.15977 26.4659 3.66267 26.6492 3.58198C26.8325 3.50129 27.2926 3.14736 27.6717 2.79542C28.0508 2.44348 28.6125 2.02133 28.9199 1.85721C29.7661 1.4055 31.2044 0.335226 31.2044 0.157387C31.2044 0.0442728 30.9411 0.00274366 30.2685 0.00972754L29.3327 0.0193304L28.7518 0.62356ZM45.0309 0.218246C45.0477 0.338219 44.9853 0.871238 44.8924 1.40251C44.7274 2.34471 44.7089 2.37776 44.1482 2.73668C43.8318 2.93909 43.5279 3.12167 43.4728 3.14237C43.4178 3.1632 43.3322 3.30599 43.2826 3.45976C43.2114 3.68137 43.2594 3.76867 43.5142 3.88091C43.9515 4.07334 44.4057 3.94053 44.8436 3.49231C45.0448 3.28629 45.2897 3.1178 45.3879 3.1178C45.486 3.1178 45.7935 2.91951 46.0712 2.67707C46.349 2.43463 46.6319 2.26963 46.7 2.31029C46.7681 2.35095 46.8239 2.29059 46.8239 2.1761C46.8239 1.96247 48.2211 0.581782 48.5672 0.453578C48.6733 0.414169 48.7602 0.296066 48.7602 0.190934C48.7602 0.0339217 48.5586 0 47.6267 0H46.4932L46.347 0.374136C46.2666 0.579911 46.1378 0.748272 46.0606 0.748272C45.9834 0.748272 45.9203 0.579911 45.9203 0.374136C45.9203 0.0284343 45.8853 0 45.4604 0C45.0969 0 45.0069 0.0457693 45.0309 0.218246ZM31.7051 1.93216C31.5363 2.17174 31.3544 2.36816 31.3012 2.36866C31.248 2.36915 31.2044 2.45371 31.2044 2.5566C31.2044 2.65948 31.2582 2.74366 31.3241 2.74366C31.4885 2.74366 32.2371 1.85123 32.2371 1.65518C32.2371 1.37295 32.0195 1.48619 31.7051 1.93216ZM33.485 9.93543C33.3616 10.0545 33.3789 10.2264 33.5141 10.2264C33.5775 10.2264 33.6629 10.1422 33.7038 10.0393C33.7793 9.84926 33.6417 9.78391 33.485 9.93543ZM33.4522 10.7865C33.407 10.9603 33.4288 11.1721 33.5007 11.2569C33.5726 11.3417 33.7847 11.8538 33.9719 12.3946C34.1592 12.9355 34.3974 13.4952 34.5012 13.6384C34.6048 13.7814 34.6898 13.9936 34.6898 14.1098C34.6898 14.226 34.7507 14.3408 34.825 14.3647C34.8995 14.3886 34.9948 14.7307 35.0369 15.1249C35.1024 15.7389 35.1618 15.864 35.4502 15.9969C35.6622 16.0946 35.8014 16.2719 35.826 16.4756C35.8669 16.8145 36.8628 17.9215 37.7174 18.5776C38.2682 19.0004 38.4333 19.0446 38.4333 18.7692C38.4333 18.6663 38.3752 18.5821 38.3042 18.5821C38.2332 18.5821 38.1751 18.4786 38.1751 18.352C38.1751 18.2254 38.0589 18.0203 37.9169 17.8962C37.7749 17.7721 37.6587 17.5688 37.6587 17.4447C37.6587 17.3205 37.4845 17.0272 37.2715 16.7928C37.0585 16.5585 36.8842 16.2792 36.8842 16.1723C36.8842 16.0654 36.8252 15.9426 36.7531 15.8995C36.6809 15.8564 36.6534 15.7717 36.6921 15.7113C36.7307 15.651 36.6418 15.5391 36.4944 15.4629C36.3011 15.363 36.2499 15.2528 36.3107 15.0677C36.357 14.9265 36.3338 14.6915 36.2589 14.5453C36.1026 14.24 35.7224 12.7956 35.7224 12.5066C35.7224 12.2856 35.1421 11.7244 34.9089 11.7199C34.8239 11.7183 34.58 11.4887 34.367 11.2097C33.8294 10.5052 33.5579 10.3797 33.4522 10.7865ZM36.3211 13.4065C36.3621 13.5094 36.4474 13.5936 36.5108 13.5936C36.5741 13.5936 36.6261 13.5094 36.6261 13.4065C36.6261 13.3037 36.5407 13.2195 36.4364 13.2195C36.321 13.2195 36.276 13.2926 36.3211 13.4065ZM37.4006 15.3396C37.4006 15.4082 37.4622 15.4643 37.5373 15.4643C37.6124 15.4643 37.6381 15.4082 37.5942 15.3396C37.5503 15.271 37.4889 15.2149 37.4575 15.2149C37.4261 15.2149 37.4006 15.271 37.4006 15.3396ZM37.5934 15.8395C37.4524 16.0599 37.667 16.462 37.9256 16.462C38.205 16.462 38.2392 16.3121 38.0415 15.9549C37.8947 15.69 37.7182 15.6446 37.5934 15.8395ZM38.1493 16.8611C38.2697 16.9774 38.3386 16.9774 38.4591 16.8611C38.5795 16.7447 38.5452 16.7114 38.3042 16.7114C38.0632 16.7114 38.0288 16.7447 38.1493 16.8611ZM35.3356 30.4609C35.3365 30.7716 36.3223 32.0259 37.1424 32.7597C38.1651 33.6749 38.4682 33.8367 39.1812 33.8495C39.6554 33.8579 39.7462 33.818 39.8097 33.5737C39.8535 33.4051 39.8044 33.2007 39.6902 33.0749C39.5837 32.9575 39.4585 32.741 39.4121 32.5936C39.2988 32.2337 38.7083 31.6769 38.44 31.6769C38.3211 31.6769 38.0991 31.5646 37.9466 31.4274C37.7943 31.2902 37.5758 31.178 37.4612 31.178C37.3467 31.178 37.1631 31.0911 37.0531 30.9848C36.9431 30.8786 36.6871 30.7596 36.4843 30.7203C36.2815 30.6812 36.049 30.5717 35.9677 30.477C35.7832 30.2624 35.335 30.2509 35.3356 30.4609ZM36.6261 38.9102C36.6261 38.9787 36.6841 39.0349 36.7551 39.0349C36.8261 39.0349 36.8842 38.9787 36.8842 38.9102C36.8842 38.8416 36.8261 38.7854 36.7551 38.7854C36.6841 38.7854 36.6261 38.8416 36.6261 38.9102ZM59.9223 44.7643C59.6404 44.9703 59.3559 45.1404 59.2899 45.1423C59.1759 45.1456 58.992 45.3245 57.8933 46.4991C57.2986 47.1352 56.7554 48.7452 56.7806 49.7976C56.7899 50.1885 56.8348 50.5084 56.8803 50.5084C56.9258 50.5084 57.0779 50.3021 57.2183 50.0499C57.3586 49.7976 57.5363 49.5306 57.6128 49.4564C57.6895 49.3823 57.8347 49.1554 57.9356 48.9522C58.0586 48.7044 58.3868 48.4489 58.9327 48.1759C59.3804 47.9521 59.8346 47.6839 59.9424 47.5798C60.1805 47.3498 60.3447 47.345 60.7652 47.5563C60.9808 47.6644 61.156 47.6789 61.2927 47.5996C61.6063 47.4176 62.7015 47.6129 62.7015 47.8508C62.7015 47.9583 62.9024 48.2611 63.1479 48.5236C63.6866 49.0996 64.1908 50.5488 64.0696 51.1727C64.0174 51.4418 64.0552 51.6633 64.181 51.824C64.4619 52.1828 64.431 52.9189 64.1241 53.1874C63.9834 53.3104 63.834 53.6137 63.792 53.8615C63.75 54.1093 63.6548 54.4331 63.5806 54.5808C63.5064 54.7286 63.4818 54.9062 63.5263 54.9756C63.7347 55.3016 62.2151 56.4942 60.6693 57.2176C60.24 57.4185 59.7519 57.7067 59.5847 57.858C59.3795 58.0438 59.1653 58.1172 58.9257 58.0838C58.7306 58.0566 58.5707 58.0806 58.5707 58.1374C58.5707 58.1941 58.3392 58.2405 58.0562 58.2405C57.7732 58.2405 57.28 58.3081 56.9601 58.3908C56.5045 58.5085 56.1779 58.5078 55.4514 58.3874C54.8173 58.2824 54.4825 58.2743 54.3918 58.3619C54.201 58.5462 54.0527 58.5195 54.0527 58.3009C54.0527 58.1732 53.9375 58.118 53.6977 58.1308C53.5026 58.1412 53.1884 58.0894 52.9998 58.0155C52.8112 57.9418 52.2985 57.8422 51.8603 57.7943C51.2902 57.7321 51.021 57.6413 50.9136 57.475C50.831 57.3473 50.6468 57.2424 50.504 57.2421C50.3614 57.2416 50.0783 57.1574 49.875 57.055C49.6715 56.9525 49.4439 56.8687 49.3687 56.8687C49.2937 56.8687 49.1406 56.7912 49.0286 56.6965C48.8964 56.5848 48.734 56.5599 48.5666 56.6254C48.3554 56.7081 48.3484 56.728 48.5285 56.7352C48.6494 56.74 48.8937 56.8843 49.0711 57.0558C49.2486 57.2272 49.5436 57.3675 49.7265 57.3675C49.9095 57.3675 50.0926 57.4517 50.1334 57.5546C50.1743 57.6575 50.3068 57.7417 50.4278 57.7417C50.628 57.7417 51.4567 58.069 52.0178 58.3698C52.3075 58.525 52.7153 58.5229 53.0216 58.3644C53.1969 58.2738 53.2933 58.2837 53.3682 58.3998C53.4952 58.5969 54.591 58.8708 55.5789 58.9522C57.2611 59.0909 59.2162 58.9117 59.2162 58.6188C59.2162 58.5616 59.416 58.5149 59.6602 58.5149C60.1357 58.5149 61.275 58.0374 61.4555 57.7625C61.5212 57.6622 61.6829 57.6246 61.8615 57.668C62.061 57.7164 62.1834 57.6768 62.2347 57.5474C62.2768 57.4415 62.5878 57.2368 62.9259 57.0927C63.3184 56.9253 63.9752 56.4144 64.7429 55.6793C65.9213 54.5508 65.9488 54.5111 66.1306 53.6718C66.2326 53.2009 66.316 52.5243 66.316 52.1682C66.316 51.8121 66.3792 51.483 66.4567 51.4367C66.5397 51.3872 66.5651 51.1869 66.5186 50.9478C66.4648 50.6704 66.499 50.4956 66.6273 50.3928C66.8375 50.2243 66.8656 49.5302 66.6719 49.294C66.6023 49.2092 66.5833 48.9935 66.6298 48.8147C66.6948 48.5641 66.6374 48.4153 66.3788 48.1655C66.1026 47.8986 66.0564 47.7635 66.1165 47.3978C66.204 46.8668 66.0995 46.6822 65.6783 46.6237C65.472 46.595 65.2493 46.3981 65.0328 46.0529C64.6257 45.4035 64.1309 45.0268 63.6486 44.9987C63.4473 44.9871 63.1256 44.8392 62.934 44.6702C62.6329 44.4047 62.5101 44.3747 62.0304 44.4492C61.2556 44.5697 61.2617 44.5696 60.8259 44.4748C60.5101 44.4061 60.3359 44.462 59.9223 44.7643Z" fill="#A3AD7E"></path></svg> 