<?xml version="1.0" encoding="UTF-8"?> <svg xmlns="http://www.w3.org/2000/svg" width="60" height="58" fill="none"><path fill="#A3AD7E" fill-rule="evenodd" d="M56.961.243c-.568.253-1.195.695-2.302 1.624-2.581 2.166-4.426 3.407-6.832 4.598-.652.323-1.441.763-1.754.979s-.6.392-.64.392-.657.383-1.373.852-1.527.978-1.801 1.133c-.701.394-1.097.624-3.36 1.948a392 392 0 0 1-2.462 1.432c-.256.145-.634.383-.84.53-.205.145-.388.243-.406.217a12 12 0 0 1-.261-.803c-.159-.522-.373-.882-.692-1.163-.362-.318-.462-.507-.462-.87 0-.624-.222-1.1-.827-1.774-.44-.493-.504-.647-.504-1.227 0-.364-.07-.817-.156-1.006-.158-.347-.644-.566-.901-.407-.095.058-.143-.298-.147-1.087-.005-1.095-.212-2.303-.431-2.523-.052-.052-.095-.2-.095-.33 0-.282-.624-1.054-.852-1.054-.09 0-.263-.208-.384-.463-.26-.544-.8-.754-1.12-.433-.263.264-.506 1.365-.768 3.495-.087.705-.324 1.643-.472 1.866-.05.074-.167.434-.263.8-.196.75-.688 2.1-1.094 3-.149.329-.33.749-.402.932a8 8 0 0 1-.25.565 1.1 1.1 0 0 0-.117.401c0 .094-.135.23-.3.302-.386.17-.615.666-.78 1.694-.135.84-.118 1.172.226 4.369.297 2.754.492 4.01.841 5.398.074.293.171.713.216.933.046.22.134.52.196.667.062.146.15.446.197.666.046.22.141.67.212 1 .165.774.392 2.707.326 2.773-.028.028-.314-.21-.636-.528-1.323-1.31-2.502-2.24-3.293-2.596-2.147-.967-2.386-1.069-3.06-1.303-1.727-.6-3.844.11-4.867 1.631-.406.603-.456.777-.456 1.563 0 .687-.063.973-.282 1.281l-.282.397-.394-.376c-.349-.334-.386-.444-.33-.976.036-.33.14-.87.231-1.2.375-1.35.297-4.678-.135-5.798-.565-1.462-.698-1.681-.996-1.639-.258.037-.28.163-.38 2.106-.128 2.487-.035 5.422.187 5.91.09.196.116.4.06.455-.14.135-1.373-1.255-1.627-1.834-.113-.256-.33-.724-.482-1.04-.237-.491-.254-.634-.119-1.008.087-.24.157-.563.157-.719 0-.155.06-.32.134-.365.073-.045.133-.23.133-.41s.054-.43.12-.558c.299-.577.682-3.143.68-4.548-.002-.607-.232-1.588-.424-1.808a.53.53 0 0 1-.11-.299c0-.235-.421-.71-.556-.626-.06.037-.11.289-.11.56-.001.501-.184 1.344-.396 1.824-.231.524-.301 1.234-.362 3.666l-.062 2.466-.258-.667c-.174-.447-.304-1.28-.395-2.532-.075-1.026-.2-2.106-.279-2.4-.224-.838-.897-2.133-1.388-2.67-.554-.607-.851-.548-.852.167v.504l-.366-.543c-.832-1.237-1.413-1.74-1.76-1.524-.17.105-.162.223.058.894.14.425.29.833.335.907.045.073.157.373.25.666.382 1.199.881 2.226 1.704 3.507.41.637.785 1.188.834 1.225s.221.256.382.487c.552.791.294.74-.546-.107-.803-.81-1.415-1.326-1.94-1.636C2.924 19.395.96 18.665.58 18.81c-.282.109-.164.325.742 1.354 1.62 1.839 2.776 2.681 4.309 3.14.293.088.67.212.838.276s.408.118.532.12c.434.008.982.662 1.306 1.556.176.486.47 1.152.654 1.48.183.33.302.63.263.67-.038.038-.294-.056-.567-.21-.274-.154-.767-.42-1.097-.59-.329-.171-.618-.356-.643-.411-.024-.055-.118-.1-.208-.1s-.399-.111-.687-.248c-.714-.337-2.182-.537-4.249-.577-1.51-.029-1.734-.006-1.77.184-.027.135.176.364.53.601 1.408.942 3.156 1.543 5.763 1.983 1.93.325 2.17.373 3.061.615.879.239 1.19.396 1.439.726.197.261.203.315.039.315-.11 0-.235-.06-.28-.134-.046-.073-.255-.133-.466-.133s-.417-.053-.457-.119c-.143-.23-1.104-.319-3.535-.322-1.354-.002-2.732.013-3.06.033-.33.02-.75.015-.932-.011-.291-.041-.333.003-.333.348 0 .313.11.466.532.744 1.116.732 3.284 1.28 4.124 1.04.22-.062 1.118-.115 1.997-.116 1.303-.003 1.704-.052 2.177-.267.735-.334 1.3-.334 1.849.002.334.203.432.355.432.665 0 .369.038.402.455.402.36 0 .588.13 1.11.634 1.252 1.21 2.457 3.395 2.48 4.498.012.56.057.672.28.703.18.024.32-.081.433-.327.193-.42.222-1.805.045-2.144a16 16 0 0 1-.303-.631c-.372-.818-1.044-1.885-1.503-2.387-.54-.59-.529-.769.023-.373.71.509 1.505 1.617 1.505 2.097 0 .108.053.196.117.196.065 0 .149.135.187.3s.157.63.266 1.033c.108.403.33 1.416.49 2.251.162.835.409 1.88.55 2.324.238.744.395 1.067 1.145 2.356.15.257.504.87.788 1.365.786 1.37 1.564 2.084 3.171 2.912 1.1.567 1.4.781 1.401 1 .005.852.901 1.654 1.848 1.654.528 0 .55-.017.565-.433.008-.238.043-.328.076-.2.076.292.649.447.895.242.147-.121.242-.073.46.234.172.241.44.418.712.467.24.044.565.117.723.164.402.117.876-.368.77-.79-.078-.312-.078-.312 1.362-.329.792-.01 2.048-.088 2.792-.176 1.315-.155 1.38-.15 2.462.196 1.301.416 1.72.689 2.44 1.595.293.368.593.735.666.817s.431.507.796.946c.983 1.185 4.7 4.944 5.41 5.472.7.52.975.56 1.439.202.234-.18.326-.38.326-.709 0-.447.007-.453.34-.28.495.26.771.22 1.01-.144.193-.295.193-.358 0-.733l-.212-.41h.394c.325 0 .421-.077.553-.443.159-.438.166-.441.687-.302.462.123.55.11.715-.117.192-.264.143-.96-.103-1.437-.093-.182-.065-.233.13-.233.424 0 .75-.495.754-1.143.003-.569.018-.59.415-.59.248 0 .512-.11.664-.278.248-.276.245-.283-.307-.8-.456-.426-.51-.521-.291-.521.147 0 .444-.092.66-.204.688-.356.507-.79-1.004-2.415-.147-.157-.925-.732-1.73-1.277-1.485-1.006-2.933-1.763-4.302-2.248-.415-.148-.859-.325-.986-.395a1.4 1.4 0 0 0-.558-.126c-.18 0-.363-.06-.409-.133s-.239-.133-.43-.133c-.337 0-1.23-.261-1.366-.4a2.6 2.6 0 0 0-.405-.241c-.693-.357-2.922-2.151-2.922-2.353 0-.245.434-.472.902-.472.632 0 .994-.339.935-.876-.037-.338.012-.385.532-.514.708-.176 1.168-.603 1.277-1.185.046-.244.232-.645.414-.892.182-.248.331-.583.331-.745s.21-.546.466-.853c.395-.473.466-.66.466-1.218 0-.46.075-.74.25-.928.288-.31.46-1.165.334-1.666-.07-.279.013-.443.457-.897.83-.85.962-1.29.896-2.997-.055-1.4-.045-1.46.238-1.59.805-.368 1.684-1.564 1.684-2.293 0-.273 1.07-1.077 2.011-1.512.542-.251.638-.35 1.043-1.079.357-.64.41-1.468.113-1.765-.2-.2-.168-.253.404-.69.342-.261.718-.599.837-.75.12-.152.431-.516.694-.809a7.6 7.6 0 0 0 .83-1.179c.301-.55.33-.696.2-.983-.085-.186-.137-.348-.115-.36.741-.416 2.017-1.687 2.244-2.235.188-.455.117-.66-.306-.887-.285-.153-.41-.137-.98.127-.36.166-.983.521-1.386.79s-.882.562-1.065.652c-.366.18-.102-.076 1.398-1.36C56.828 9.47 58.279 8 58.838 7.25c.403-.54.487-.763.487-1.295 0-.713-.307-1.037-.762-.804-.13.067-.416.203-.635.303s-.443.242-.497.315q-.098.135-.096 0c0-.073.242-.403.535-.733.694-.779 1.322-2.043 1.322-2.661 0-.714-.248-.984-.843-.915-.533.063-.562.02-.333-.483.116-.255.116-.422.003-.672-.179-.392-.3-.4-1.058-.062m-28.35 2.243c-.193.934-.207 2.371-.025 2.484.165.102.172.62.014 1.027-.066.168-.196.576-.29.906s-.22.656-.28.726-.11.22-.11.335c0 .114-.27.763-.599 1.442s-.598 1.263-.598 1.3c0 .035-.114.319-.253.63-.381.852-.5 1.384-.755 3.364-.166 1.293-.333 1.418-.595.445-.145-.539-.148-.541-.353-.249-.163.234-.189.509-.123 1.316.103 1.258.442 3.717.737 5.352l.214 1.2c.045.256.133.586.195.733.063.146.145.416.181.6.038.183.136.573.22.866.38 1.335.657 2.883.742 4.156.08 1.181.131 1.406.352 1.525.348.186.405.096.23-.364-.08-.212-.2-1.105-.267-1.985-.14-1.853-.26-2.567-.735-4.398-.375-1.445-.536-2.166-.715-3.2-.063-.366-.154-.764-.203-.885-.048-.121-.029-.257.043-.302.2-.123.552.3.552.662 0 .479.246 1.452.687 2.725.632 1.82.548 1.71.912 1.189.175-.251.351-.486.391-.522s.328-.403.639-.812c.664-.877.807-1.53.154-.706-1.074 1.354-1.499 1.79-1.622 1.667-.083-.083-.028-.271.154-.526.358-.504.368-.696.015-.289-.147.17-.302.273-.345.23-.13-.13.078-.844.323-1.113.127-.138.375-.46.553-.717.33-.477.524-.661.701-.665.17-.003.11.467-.095.74-.108.141-.193.348-.19.458.006.175.016.175.084.002.115-.292.39-.535.605-.535.142 0 .209-.262.264-1.033.041-.569.167-1.251.28-1.517.285-.67.855-1.316 1.16-1.316.14 0 .254-.06.254-.132 0-.197 1.16-1.978 1.753-2.692.343-.411.643-.639.88-.666.322-.037.366-.104.402-.606.037-.51 0-.588-.387-.824l-.427-.26-.628.89c-.73 1.037-1.256 1.625-1.454 1.625-.27 0-.13-.302.726-1.548.825-1.202.865-1.297.865-2.048 0-.433-.056-.822-.126-.865-.069-.043-.244.192-.39.52-.436.99-2.006 3.14-2.29 3.14-.27 0-.089-.518.477-1.363.33-.492.599-.946.599-1.01s.179-.44.397-.837c.436-.793.504-1.461.25-2.47l-.15-.601-.448.435c-.247.239-.448.513-.448.61s-.053.28-.118.407l-.685 1.364a27 27 0 0 1-1.166 2.066 39 39 0 0 0-.837 1.355c-.434.77-.852 1.374-.953 1.376-.218.004-.08-.768.25-1.398.192-.366.416-.8.498-.965s.195-.3.25-.3.1-.065.1-.144.168-.393.375-.7c.353-.524.955-1.723.955-1.901 0-.045.083-.27.184-.502.677-1.544.807-2.267.638-3.54-.086-.646-.157-1.463-.157-1.815 0-.95-.123-.655-.345.822-.25 1.675-.45 2.336-1.115 3.707-.572 1.178-.846 1.525-1.002 1.271-.083-.134-.012-.398.347-1.298l.252-.633c.074-.183.19-.468.26-.633.548-1.293.85-5.223.423-5.487-.055-.035-.171.283-.258.704m27.38-.55a5 5 0 0 0-.503.398 9 9 0 0 1-.666.538c-.268.2-.517.398-.554.44-.036.042-.485.392-.998.777-.512.385-1.037.786-1.166.89-.128.105-.282.19-.34.19s-.237.122-.396.27c-.244.229-1.932 1.262-3.753 2.297-.737.42-1.578 1.023-1.692 1.214-.093.155-2.478 1.818-2.608 1.818-.028 0-.598.33-1.266.733-.667.403-1.25.733-1.297.733-.045 0-.245.116-.445.258-.199.142-.537.254-.752.249s-.63.127-.922.296-.682.385-.865.483-.258.179-.167.18c.432.002.069.45-.931 1.15-.604.424-1.128.803-1.165.843-.036.04-.425.342-.865.67-1.18.88-1.694 1.336-1.505 1.336.093 0 1.337-.575 2.766-1.278a435 435 0 0 1 3.197-1.56c.33-.157.898-.467 1.264-.69 1.057-.646 1.365-.778 1.597-.69.12.046.181.142.138.212-.127.205-2.093 1.548-2.566 1.752-.238.102-.433.232-.433.287 0 .056-.134.106-.3.111-.168.006-.22.042-.119.082.099.04.308.011.466-.063 2.018-.95 3.144-1.41 3.233-1.32.155.155-.707.758-1.082.758-.111 0-.202.06-.202.133s-.12.133-.266.133-.266.06-.266.133-.072.134-.16.134-.776.3-1.529.666-1.773.822-2.268 1.012-1.02.396-1.166.457c-.147.061-.35.133-.45.16-.15.04-.143.09.033.267.12.12.217.287.217.371 0 .156.634.075 1.06-.135.113-.056.354-.162.537-.237.476-.193 3.941-1.907 5.59-2.764.767-.4 1.453-.708 1.521-.687.269.086.197.317-.155.499-.203.105-.399.22-.436.257-.075.076-.412.27-1.463.845-.403.22-.959.542-1.236.716-.932.583-3.561 1.905-3.792 1.906-.16 0-.108.081.17.266.528.35.862.363.554.022-.449-.496-.103-.58.623-.15.404.238.54.254 1.106.129 2.144-.473 2.859-.547 2.94-.305.029.088-.086.193-.256.233s-.92.223-1.667.405-1.477.332-1.622.332-.3.06-.346.132c-.044.072-.003.108.092.079.096-.029.533-.119.972-.199 1.163-.213 3.514-.687 4.092-.826.89-.213 1.488-.365 1.963-.501.256-.073.615-.172.798-.22a6 6 0 0 0 .599-.194c.146-.059.745-.258 1.33-.442 1.273-.4 3.11-1.107 4.134-1.588.248-.116.404-.12.571-.016.267.167.62-.097 1.293-.964.813-1.048.697-1.33-.29-.702-1.024.654-1.508.91-1.72.91-.107 0-.195.06-.195.133s-.084.133-.186.133-.536.186-.965.413c-.838.446-3.35 1.32-3.791 1.32-.156 0-.247-.07-.215-.167.062-.19 1.778-1.166 2.05-1.166.099 0 .18-.06.18-.134 0-.073.12-.133.266-.133s.266-.06.266-.133.078-.133.173-.133c.226 0 3.9-1.85 4.441-2.236.23-.163.483-.297.563-.297s.146-.045.146-.1.258-.263.574-.463c.703-.445 1.783-1.57 1.507-1.57-.108 0-.216.046-.24.102-.133.302-3.114 2.04-5.654 3.296-1.599.79-3.027 1.481-3.174 1.535s-.415.16-.598.236c-.726.303-2.582.821-2.961.826-.505.007-.204-.413.532-.743.42-.189.87-.398.996-.465.127-.067.322-.121.433-.121s.201-.06.201-.134c0-.073.085-.133.189-.133.324 0 1.886-.892 3.78-2.158 1.576-1.054 3.677-2.553 3.882-2.77.037-.039.426-.366.865-.727 1.53-1.258 3.551-3.562 3.324-3.79-.112-.112-.596.418-.596.652 0 .314-1.587 1.789-3.232 3.004a65 65 0 0 0-1.625 1.227c-.146.123-.75.525-1.344.893-.592.369-1.545 1-2.116 1.403-1.68 1.186-2.632 1.804-3.093 2.007-.238.105-.433.236-.433.291 0 .056-.12.101-.266.101s-.266.06-.266.133-.084.134-.187.134-.418.114-.699.254c-.854.424-1.946.897-2.508 1.087-.292.1-.604.233-.692.298-.089.064-.224.077-.3.03-.21-.13.071-.347 1.059-.821 3.78-1.815 5.738-2.865 5.833-3.126.024-.067.13-.121.233-.121s.188-.06.188-.134c0-.073.1-.133.222-.133s.184-.037.139-.083c-.046-.046-.58.155-1.187.446-1.679.806-1.958.9-2.135.723s.038-.368.943-.84c.317-.164.648-.401.736-.526.138-.198 2.676-1.77 3.51-2.174.164-.08.3-.19.3-.245s.078-.1.172-.1c.201 0 2.175-1.812 4.424-4.063 2.052-2.053 3.207-3.823 2.63-4.029-.088-.03-.627.388-1.197.93a65 65 0 0 1-1.637 1.51c-.33.286-.689.612-.798.724s-.56.501-.998.866c-.44.365-.829.694-.865.732-.037.037-.396.337-.799.665-.402.329-.911.766-1.131.971a6 6 0 0 1-.765.596c-.201.122-.366.274-.366.338 0 .245 2.363-1.337 3.26-2.182.366-.345.875-.799 1.131-1.009.257-.21.582-.486.724-.614.272-.246.607-.312.607-.12 0 .063-.332.401-.738.752-.405.35-.905.794-1.11.986-.883.823-1.492 1.299-2.772 2.162-.748.505-1.416.918-1.486.918s-.146.045-.17.1c-.073.164-1.444.967-1.65.967a.196.196 0 0 1-.191-.2c0-.11.07-.2.155-.2s.12-.036.076-.08-.548.181-1.12.5c-1.043.582-2.139 1.127-2.638 1.312a10 10 0 0 0-.634.273c-.41.195-.693.046-.562-.295.042-.11.718-.584 1.501-1.053l1.825-1.091a4.3 4.3 0 0 1 .632-.319c.128-.043.232-.131.232-.196 0-.064.058-.118.13-.118.173 0 3.428-2.149 3.929-2.594.22-.195.757-.666 1.194-1.046 1.253-1.09 2.737-2.605 3.585-3.661.803-.999.903-1.257.336-.865M28.207 5.302c0 .183.03.258.067.167a.5.5 0 0 0 0-.334c-.037-.091-.067-.016-.067.167m28.3 2.234c-.024.056-.523.456-1.108.89-.586.433-1.09.807-1.12.831s-.028.072.006.106c.08.08 1.514-.93 2.111-1.49.257-.24.396-.437.311-.437s-.175.044-.2.1m-2.946 2.235c-.485.428-.28.428.24 0 .22-.18.34-.328.267-.328s-.301.147-.507.328m-.757.563c0 .056-.193.186-.428.29-.272.121-.36.213-.24.253.104.035.212-.006.24-.09a.24.24 0 0 1 .206-.158c.085-.002.271-.092.413-.2.226-.17.23-.195.034-.195-.124 0-.225.045-.225.1m-25.588.268c-.437.484-1.05 2.44-1.23 3.93-.08.652-.062.767.12.767.123 0 .245-.154.291-.367.215-.991.777-2.976 1.02-3.607.298-.77.19-1.156-.201-.723m18.657 1.642c-.334.334-.273.432.195.314.222-.056.348-.179.348-.34 0-.328-.199-.32-.543.026m3.18.613c.096.039.21.034.255-.01.044-.045-.035-.076-.175-.07-.155.006-.187.038-.08.08m-5.414.888c-.081.098-.109.218-.06.266.168.169.434.086.575-.178.12-.224.101-.267-.112-.267a.6.6 0 0 0-.403.179M29.015 15.2c-.518.639-.877 1.7-.575 1.7.153 0 .944-1.395.944-1.665 0-.245-.184-.263-.369-.035m4.092.38c-.108.156-.292.412-.408.568-.116.157-.463.72-.77 1.25-.308.532-.692 1.105-.854 1.274s-.368.439-.46.599c-.19.332-.226 1.36-.047 1.36.14 0 .28-.326.28-.65 0-.38.317-.931.574-.999.311-.081.404.175.23.635-.076.2-.139.575-.139.832 0 .533-.2.982-.437.982-.118 0-.168.496-.184 1.832a463 463 0 0 1-.09 4.566c-.049 2.007-.03 2.573.068 2.132.073-.33.16-1.32.194-2.199.067-1.759.29-2.466.779-2.466.195 0 .141-.064-.197-.233-.41-.206-.47-.301-.507-.81-.023-.317.03-.66.115-.764s.121-.28.079-.39c-.083-.216.064-.247.546-.118.165.044.3.16.3.255 0 .097-.135.202-.3.233-.189.037-.118.065.192.076.871.032.818-.555-.072-.793-.917-.245-1.153-.654-.378-.655.4 0 1.223-.452 1.223-.67 0-.077-.127-.312-.282-.522-.288-.391-.25-.674.09-.674.106 0 .192-.058.192-.13 0-.071.225-.25.499-.395l.499-.265-.632.08c-.698.088-.827-.065-.272-.323.456-.212.871-.212 1.083 0 .131.13.19.125.285-.03.184-.298-.537-.536-1.62-.536h-.928l.094-.433c.124-.573.474-1.052 1.16-1.587.31-.241.654-.536.764-.655s.289-.25.399-.293c.163-.063.158-.079-.026-.087-.123-.006-.262.05-.307.123-.133.215-.334.153-.44-.135-.098-.265-.1-.264-.295.016m-7.76.875c-.18.18-.092.844.111.844.14 0 .2-.14.2-.466 0-.442-.111-.577-.31-.378m-20.713.28c0 .092.054.272.12.4.068.127.223.46.345.741.265.61.42.56.212-.068-.173-.52-.676-1.318-.677-1.074m47.233.274c-.406.196-1.005.466-1.331.6-1.076.443-1.256.52-1.489.639-.127.064-.34.117-.472.117-.133 0-.299.05-.368.11-.07.06-.575.248-1.124.42-.55.17-1.25.389-1.555.485-.307.097-1.085.3-1.73.452-2.416.569-2.552.596-4.034.796-1.153.156-1.464.262-1.464.5 0 .154.1.18.432.116a32 32 0 0 1 1.43-.215 59 59 0 0 0 1.797-.266c1.208-.205 1.3-.21 1.351-.065.105.3-1.574.73-3.946 1.011-1.026.122-1.164.173-1.497.556-.245.283-.366.572-.366.877v.455l1.098-.082c1.07-.08 2.07-.215 3.56-.48 1.454-.26 2.091-.308 2.18-.163.17.274-1.286.753-3.311 1.09l-.666.11.799-.049c.439-.027 1.247-.113 1.796-.191 1.792-.256 2.265-.296 2.484-.212.429.165.168.247-1.951.617-.403.07-1.032.182-1.398.25-.366.066-1.114.19-1.663.277-.549.085-1.022.179-1.05.207-.182.18.626.212 1.9.075.813-.088 2.078-.221 2.81-.296 1.389-.142 2.407-.328 3.025-.552.702-.255 1.53-1.425 1.226-1.73-.04-.04-.505.038-1.032.175-1.13.294-2.27.34-2.191.087.029-.091.427-.293.885-.448.62-.21.762-.3.557-.354-.395-.104-.34-.273.158-.473a9 9 0 0 0 .663-.3c.127-.068.323-.124.434-.124.112 0 .308-.053.435-.118.447-.228.91-.407 2.34-.906 1.177-.411 1.476-.57 1.63-.866.102-.2.186-.396.186-.436 0-.123-1.443-.081-1.52.044-.04.065-.208.149-.374.187-.166.037-.66.201-1.1.363-1.513.56-3.328 1.063-3.837 1.064-1.083.003-.165-.612 1.908-1.278.622-.2 1.188-.414 1.257-.475.07-.061.235-.111.368-.111s.345-.053.473-.118c.127-.065.92-.463 1.76-.884.842-.422 1.556-.789 1.587-.816.19-.167-.437.027-1.06.328m-23.386.355c-.771.44-1.395 1.052-1.34 1.315.04.189.105.171.438-.116.215-.186.648-.501.963-.7.954-.605.9-1.045-.061-.499M6.154 18.3c.031.366.103.876.159 1.133l.102.466.074-.389c.091-.483.366-.598.444-.185.048.25.062.232.075-.092.009-.22-.06-.621-.155-.891-.147-.424-.19-.46-.317-.267-.132.201-.162.19-.293-.109-.124-.284-.137-.235-.089.334m38.999-.44c-.22.076-.503.19-.63.255a1.3 1.3 0 0 1-.491.118c-.143 0-.297.06-.343.133-.045.074-.192.134-.326.134-.208 0-.406.24-.406.492 0 .1 1.163-.086 1.581-.253l.681-.272c.6-.238.916-.432.928-.567.017-.184-.514-.206-.994-.04m-19.833.249c-.122.198.02.306.274.208.118-.045.177-.142.131-.216-.108-.175-.295-.172-.405.008m3.251.298c-1.08.75-1.316.952-1.316 1.124 0 .293.378.183.998-.292.331-.253.78-.566 1-.695.218-.13.397-.312.397-.406 0-.287-.433-.18-1.079.269m-18.843.293c0 .366.027.5.057.297a2.4 2.4 0 0 0-.002-.666c-.031-.164-.056.002-.055.369m19.124.433c0 .055-.296.301-.657.548-.68.464-.892.75-.662.892.225.14 1.904-1.213 1.772-1.427-.086-.14-.453-.15-.453-.013m6.188.566c-.105.17.203.17.465 0 .163-.105.145-.13-.092-.131-.16-.001-.328.058-.373.131m-1.653.917c-.126.084.336.148 1.398.192.872.037 1.795.109 2.051.16.415.084.444.072.266-.107-.24-.243-3.407-.451-3.715-.245m-29.286.483c.09.11.263.193.382.184.183-.013.18-.025-.016-.076-.129-.034-.233-.117-.233-.185s-.068-.123-.15-.123c-.103 0-.098.062.017.2m-.372.52c.095.102.193.166.219.142.079-.076-.121-.33-.26-.33-.071 0-.053.085.041.187m.915-.15.322.234c.246.18.252.178.083-.038-.1-.128-.245-.233-.321-.233s-.114.017-.084.038m23.287.974c.006.155.038.186.08.08.039-.096.034-.211-.01-.255s-.076.034-.07.175m1.187.556c0 .056-.135.253-.3.438-.673.757-1.164 1.457-1.164 1.663q-.002.22.364-.226c.2-.244.396-.473.436-.51.04-.036.265-.315.501-.619.436-.561.536-.847.296-.847-.073 0-.133.046-.133.101m5.589-.027c.49.107 1.863.132 1.863.035 0-.06-.464-.102-1.031-.093-.568.008-.942.035-.832.058m-22.489.397c0 .112-.09.238-.2.28-.27.104-.275 1.287-.006 1.51.108.09.214.463.241.849.027.379.06-.106.073-1.077.014-.972-.005-1.766-.042-1.766-.036 0-.066.091-.066.204m19.753 1.066c.142.108.369.196.504.196s.393.097.573.215c.311.204.328.202.328-.05 0-.204-.139-.302-.591-.416-.325-.082-.7-.147-.832-.145-.224.004-.223.018.018.2m7.03-.108c.202.03.501.03.665-.002.163-.032-.002-.057-.368-.056s-.5.027-.298.058m-3.155.457c-.858.196-.722.247.662.247.753 0 1.259-.05 1.186-.116-.201-.185-1.276-.26-1.848-.13m10.275.453c-.088.09-.812.162-4.128.41-1.102.082-1.165.104-1.165.394 0 .43-.562 1.057-.848.947-.206-.08-.208-.114-.018-.403.245-.375.11-.538-.549-.663-.23-.043-.558-.112-.732-.153s-.397-.021-.497.044c-.144.095-.095.21.233.555.476.499.489.559.212.982-.197.301-.19.314.216.396.23.046 1.295.075 2.366.066 1.487-.014 1.755-.04 1.138-.111-.81-.093-1.122-.2-1.122-.386 0-.119 2.319-.42 3.26-.424.576-.002.744-.07 1.243-.502.468-.405.569-.571.533-.875-.025-.207-.089-.331-.142-.277m-13.834.151c.096.039.21.034.255-.01.044-.044-.035-.076-.175-.07-.155.006-.186.038-.08.08m14.417.442c0 .184.03.259.067.167a.5.5 0 0 0 0-.333c-.036-.092-.067-.017-.067.166m-43.826.225c.096.038.21.033.255-.01.044-.045-.034-.076-.175-.07-.155.006-.186.037-.08.08m28.901 1.008v1.13l.342-.066c.243-.046.301-.107.2-.208-.078-.078-.142-.28-.142-.45 0-.24.073-.306.342-.306.31 0 .323-.019.133-.21-.115-.114-.21-.294-.21-.399 0-.157.4-.192 2.296-.201 1.263-.006 2.236-.032 2.163-.058s-1.121-.077-2.33-.111c-1.207-.034-2.33-.105-2.494-.157-.294-.093-.3-.075-.3 1.036m-15.62-.636c-.172.185-.37.336-.442.336-.286 0-.968.94-1.049 1.442-.1.634.082 1.017.618 1.294.246.128.479.408.61.736.22.553.775.859.973.538.053-.087.443-.249.866-.36.76-.198 1.225-.168 1.078.07-.042.067.082.238.274.378.317.23.334.287.18.575-.095.176-.25.399-.345.495-.144.143-.082.307.35.932.31.446.476.806.406.877s.026.246.236.427c.313.272.328.318.124.398-.21.08-.203.112.066.333.238.195.265.278.132.412-.132.135-.086.202.233.336.291.123.399.258.399.5 0 .182.06.369.133.414s.133.22.133.386c0 .423 1.843 2.463 3.383 3.746.367.306.78.817.966 1.2.418.856.605 1.182.846 1.473.149.181.155.25.028.292-.092.03-.167.171-.167.312q-.001.253-.27.255h-.272l.266.287c.343.368.245.513-.347.513-.378 0-.444.036-.328.176.102.123.104.22.008.316-.097.096-.076.163.066.218.246.094 1.01-.513 1.01-.803 0-.122.077-.173.193-.128.113.043.459-.164.832-.5.697-.625 1.433-.812 2.409-.614.27.055.941.173 1.49.261 2.251.363 3.473.701 4.896 1.355.834.383 2.024.532 2.024.252 0-.075.377-.133.865-.133h.865v-.538c0-.593.332-.882.555-.482.158.282.427.28.66-.005.16-.197.153-.214-.055-.136-.345.13-.593-.452-.386-.905.15-.33.423-.459.423-.2 0 .073.157.133.349.133.278 0 .334.052.28.257-.046.18-.011.235.118.185.11-.042.185.016.185.144 0 .262.114.267.611.028.213-.103.806-.23 1.318-.282l.932-.094-.599-.266c-.916-.406-1.09-.474-1.663-.656-.75-.238-1.147-.532-2.562-1.901l-.813-.787-.408.344c-.362.306-.386.367-.209.544.246.246.26.618.023.618-.267 0-.79-.67-.838-1.074a.69.69 0 0 1 .22-.596c.362-.328.332-.475-.204-.996-.829-.805-.413-.944.599-.2.714.525 1.3.603 1.646.22.26-.288.224-.327-.748-.827-.348-.179-.632-.37-.632-.425 0-.056-.058-.1-.129-.1-.07 0-.587-.3-1.146-.666l-1.017-.665-.26.33c-.143.183-.225.388-.182.458s-.028.188-.157.264c-.13.075-.17.139-.09.141.189.005.985.764.985.938 0 .282-.505.108-1.361-.467-.491-.33-.95-.6-1.019-.6-.07 0-.146-.045-.17-.1s-.374-.273-.777-.485c-1.572-.828-2.25-1.29-2.176-1.484.044-.116-.05-.247-.24-.335-.171-.08-.45-.436-.62-.792-.303-.637-.314-.644-.665-.465-.197.1-.477.221-.623.269-.238.078-.22.11.166.297.303.148.432.303.432.52 0 .371-.28.4-.987.105-.54-.226-.748-.56-.463-.74.13-.083.056-.119-.246-.12-.238-.001-.433-.062-.433-.136 0-.073-.083-.133-.185-.133s-.22-.09-.262-.2-.148-.2-.235-.2c-.101 0-.082.083.053.234.253.28.082.7-.285.7-.298 0-.816-.587-.816-.925 0-.39.58-.763 1.343-.864.628-.084.665-.107.437-.28-.293-.222-.582-.254-.582-.064 0 .303-.518.094-1.266-.512-.78-.63-.802-.639-1.056-.397-.235.225-.27.228-.38.032-.076-.136-.066-.27.027-.362.08-.081.146-.28.146-.443s.075-.322.167-.354c.296-.104-.296-.636-.618-.556-.202.05-.403-.06-.718-.396-.241-.257-.84-.662-1.331-.9s-1.078-.57-1.305-.738-.507-.306-.624-.306-.25-.06-.294-.133c-.046-.074-.2-.134-.343-.134s-.364-.054-.491-.121c-.2-.105-.611-.2-2.13-.493-.204-.04-.405.051-.615.278M3.867 26.32c.128.034.337.034.466 0 .128-.033.023-.06-.233-.06-.257 0-.361.027-.233.06m.998.263a.5.5 0 0 0 .332 0c.092-.037.017-.067-.166-.067s-.258.03-.166.067m32.405.27c.13.035.31.032.4-.004s-.017-.064-.236-.062c-.22.003-.293.033-.164.067m-31.074.263a.5.5 0 0 0 .332 0c.092-.037.017-.067-.166-.067s-.258.03-.166.067m30.074 0a.5.5 0 0 0 .332 0c.092-.037.017-.067-.166-.067s-.258.03-.166.067m10.213.32c-.22.063-1.058.168-1.863.233l-1.464.118 1.264.023c1.197.02 1.77.154 1.562.364-.052.051-1.307.162-2.79.244-2.168.121-2.526.166-1.822.23.481.043 1.08.17 1.33.283.56.252 2.255.406 2.68.244.438-.166 1.098-.812 1.422-1.39.151-.27.231-.484.177-.477a7 7 0 0 0-.496.128m-30.517.358c-.506.433-.385 1.241.234 1.562.352.182.394.17.855-.253.267-.245.485-.53.485-.633 0-.104.068-.257.15-.34a.37.37 0 0 0 .071-.36c-.117-.306-1.43-.288-1.795.024m12.868 0c-.166.212-.161.216.05.05.222-.173.292-.283.183-.283-.028 0-.133.105-.233.233m4.408.273c0 .167.667.827.837.827.075 0 .02-.105-.12-.233s-.359-.343-.486-.476c-.127-.134-.23-.187-.23-.118m-13.281.65c.043.659.291.913.439.448.126-.398-.052-1.07-.283-1.07-.151 0-.187.144-.156.622m15.011-.55c0 .039.13.246.287.46.238.323.258.424.117.595-.15.18-.075.205.637.205 1.24 0 1.225-.303-.048-.982-.626-.334-.993-.437-.993-.279m3.86 1.29c.35.189.886.36 2.195.703.971.255 1.796.6 1.796.754 0 .145-.26.143-.745-.006a26 26 0 0 0-1.517-.357c-.956-.2-1.426-.368-2.728-.972-.073-.034-.05.038.05.16s.242.221.315.221.337.18.587.4.512.4.583.4c.229 0 .136.512-.104.575-.147.038-.1.066.125.076.197.009.395.076.44.149.046.073.24.133.433.133.335 0 .339-.008.092-.19-.242-.179-.244-.197-.024-.282.129-.05.428-.05.665-.002.891.185 2.199.352 3.31.425l1.15.075.163-.494c.13-.396.129-.557-.012-.82-.164-.307-.222-.322-.98-.246-.79.079-2.085-.054-3.267-.337-1.245-.297-1.812-.414-2.328-.479-.509-.064-.518-.059-.2.113m-33.898.326c.328.136.489.283.466.426-.03.177.102.223.696.246.618.025.685.006.432-.12-.671-.334-.3-.566 1.098-.685.293-.024-.306-.052-1.33-.06-1.808-.015-1.849-.01-1.362.192m14.782-.02c-.125.326.125.495.417.282.241-.177.24-.188-.043-.34-.24-.129-.306-.118-.374.059m11.68.615c-.096.47-.118.867-.05.935.067.067.307.05.566-.04.342-.12.463-.12.502-.002.088.264.393.172.482-.144.079-.28.096-.285.263-.067.205.267.531.316.45.067-.03-.092-.438-.29-.909-.442-.744-.239-.873-.33-.995-.7-.14-.424-.14-.423-.308.393m-17.116-.284c-.048.077.075.132.291.13.29 0 .33-.03.174-.13-.255-.166-.363-.166-.465 0m21.656.21c.106.106 2.115.616 2.178.553.137-.137-1.178-.63-1.682-.63-.315 0-.538.035-.496.077m-16.594.18c-.099.16.152.318.33.208.148-.092.05-.332-.136-.332-.065 0-.152.056-.194.124m11.124.452c-.028.37-.927 1.264-1.06 1.055-.077-.12-.236-.01-.556.39-.247.307-.373.512-.281.455.1-.062.234-.011.334.126.15.206.229.155.79-.501.341-.402.622-.794.622-.871 0-.078.065-.163.146-.19s.118-.197.084-.378c-.038-.205-.068-.238-.08-.086m1.446 1.019c0 .156.526.455.626.355.092-.093-.299-.484-.484-.484-.078 0-.142.058-.142.129m6.085.052c-.217.171-.202.198.2.348.239.09.734.281 1.1.424s1.114.383 1.663.532c2.466.672 2.603.718 2.529.858-.082.15-.655.126-1.497-.066-.348-.08-.887-.2-1.198-.267-.798-.174-1.435-.354-1.882-.532-.21-.084-.406-.13-.433-.103-.062.062 1.462.65 2.68 1.033.513.161 1.052.337 1.199.39.598.22 1.226.401 1.382.401.262 0 .493-.297.584-.75.082-.412.076-.418-.543-.494-1.593-.197-2.24-.458-1.922-.776.116-.116.38-.116 1.084 0 1.653.274 2.275.19 2.275-.308 0-.137-.802-.163-1.161-.037-.446.157-2.274.003-3.43-.288-2.266-.57-2.353-.582-2.63-.365m2.938-.09c.096.039.211.034.255-.01s-.034-.076-.174-.07c-.155.006-.187.038-.08.08m-7.959.226c0 .028.09.125.2.217.163.136.2.126.2-.05 0-.12-.09-.217-.2-.217s-.2.023-.2.05m-15.167.383c.006.319.487.811.71.726.366-.141-.023-.892-.463-.892-.138 0-.249.075-.247.166m12.728.322c-.05.05-.09.173-.09.276 0 .156.035.153.2-.012.11-.11.2-.234.2-.276 0-.105-.202-.097-.31.012m4.812.828c.18.114 1.337.077 1.462-.048.038-.038-.316-.068-.785-.067-.516.001-.784.047-.677.115m2.617.15c.045.073.109.133.141.133.033 0 .059-.06.059-.133s-.064-.134-.141-.134c-.078 0-.104.06-.059.134m-19.351.21c.006.156.038.188.08.081.039-.096.034-.211-.01-.255s-.076.034-.07.175m21.132.945c.521.489.947.939.947 1 0 .06-.118.11-.262.11-.155 0-.235.068-.197.167.07.182.675.5.951.5.096 0 .174.06.174.133s.351.134.789.134c.732 0 .81-.03 1.086-.418.373-.524.248-.76-.556-1.055l-.854-.315a5 5 0 0 1-.497-.221 1.2 1.2 0 0 0-.457-.124c-.182 0-.156.073.13.374.385.4.445.559.213.559-.144 0-1.454-1.052-1.866-1.5-.118-.128-.29-.233-.381-.233s.26.4.78.889m-4.808-.293c.034.181.146.398.248.483.147.123.184.097.184-.13 0-.155.075-.283.167-.283.091 0-.006-.09-.215-.2-.48-.251-.458-.258-.384.13m-9.09-.026c-.105.276-.03.637.14.67.186.037.254-.573.083-.744-.098-.098-.165-.076-.222.074m-7.027.163c.043.11.202.2.354.2.273 0 .273-.003.02-.195-.335-.254-.47-.255-.374-.005m7.826.079c-.116.188.14.445.328.328a.36.36 0 0 0 .145-.281c0-.225-.343-.259-.473-.047m9.278.317c.084.186.239.337.343.337.103 0 .528.196.943.435s.934.523 1.153.633c.22.109.43.228.466.265s.216.152.4.256c1.288.732 1.755.955 1.709.816-.03-.088-.231-.26-.449-.383-.218-.122-.416-.267-.44-.322s-.16-.1-.3-.1-.255-.06-.255-.133-.12-.134-.266-.134-.266-.06-.266-.133-.12-.133-.266-.133-.266-.06-.266-.134c0-.073-.065-.133-.143-.133-.079 0-.55-.263-1.047-.585a27 27 0 0 0-1.186-.738c-.268-.143-.275-.133-.13.186m-7.386.16c-.049.05.01.2.132.334.311.344.165.416-.337.165-.234-.117-.523-.176-.641-.13-.184.07-.162.14.145.46.198.208.702.557 1.119.777 1.545.814 2.63 1.419 2.974 1.658.194.135.406.246.47.246s.462.18.885.4.891.4 1.04.4c.148 0 .375.13.503.288.148.183.315.258.454.204.239-.092.304-.36.087-.36-.073 0-.133-.103-.133-.23 0-.145.134-.033.358.3.466.691.722.883.94.703.116-.097.166-.094.166.008 0 .2.623.595.783.496.178-.111-.06-.9-.316-1.044a4 4 0 0 1-.554-.44c-.193-.179-.392-.325-.441-.325-.05 0-.492-.321-.983-.714-.492-.392-1.056-.797-1.255-.899a3 3 0 0 1-.428-.253c-.32-.323-2.641-1.463-3.643-1.79-1.146-.375-1.195-.385-1.325-.254m-9.47.31c.045.074.109.134.141.134s.059-.06.059-.133-.064-.134-.141-.134c-.078 0-.104.06-.059.134m15.621-.075c-.045.046-.333.127-.641.18l-.56.096.753.433c.892.513 1.098.544.823.123a1.9 1.9 0 0 1-.248-.612c-.025-.167-.082-.266-.127-.22m-15.444 1.009c.054.57.158.652.422.333.091-.11.262-.2.38-.2.123 0 .007-.141-.276-.333-.269-.184-.509-.333-.533-.333s-.021.24.007.533m2.507-.178c-.14.14-.104.553.057.652.08.05.24-.004.354-.119.172-.172.179-.245.038-.415-.186-.224-.31-.257-.45-.118m-1.317 2.466a.34.34 0 0 0 .315.083c.1-.034.039-.094-.14-.141-.222-.058-.274-.04-.175.058m.538.335c.096.039.21.034.255-.01.044-.045-.035-.076-.175-.07-.155.006-.186.038-.08.08m.532.267c.096.038.21.034.255-.01.044-.045-.034-.076-.175-.07-.155.006-.186.037-.08.08m.532.266c.096.039.211.034.255-.01s-.034-.076-.174-.07c-.155.006-.187.038-.08.08m-.665.267c.096.038.21.034.255-.01.044-.045-.034-.076-.175-.07-.155.006-.186.037-.08.08m.532.267c.096.038.211.033.255-.011s-.034-.076-.174-.07c-.155.006-.187.038-.08.08m3.618.32c0 .324.311.278.376-.056.025-.132-.043-.222-.167-.222-.123 0-.209.114-.209.277m-3.085-.054c.095.039.21.034.255-.01.044-.045-.035-.076-.175-.07-.155.006-.187.038-.08.08m16.596.835c-.1.162.145.444.505.58.18.069.23.036.2-.124-.06-.299-.59-.642-.705-.456m-12.979.221c0 .137.073.186.202.137.159-.061.183-.006.115.266-.072.286-.044.335.165.295.172-.033.263-.182.292-.48.039-.402.014-.432-.366-.432-.286 0-.408.064-.408.214m8.65.247c0 .328.369 1.139.518 1.139.242 0 .267-.214.086-.742-.18-.526-.604-.805-.604-.397m1.33.081c0 .084-.114.106-.276.055-.26-.083-.27-.053-.185.557.086.614.377 1.047.608.904.058-.036.171.056.25.204.08.149.24.27.355.27.175 0 .195-.105.117-.633l-.094-.633.318.467c.175.256.358.571.407.699.18.472 1.741 1.173 2.01.903.078-.078.061-.202-.045-.33-.133-.161-.135-.248-.01-.4.128-.153.11-.26-.083-.523-.283-.383-1.149-.882-1.53-.882-.144 0-.418-.187-.61-.415-.326-.388-.36-.4-.524-.175-.158.218-.175.22-.175.015 0-.136-.105-.225-.266-.225-.147 0-.266.064-.266.142m-14.13.082c.096.039.211.034.255-.01s-.034-.076-.174-.07c-.155.006-.187.038-.08.08m.524.264a.5.5 0 0 0 .333 0c.091-.037.017-.067-.166-.067s-.258.03-.167.067m13.633.245c.002.22.032.294.066.164a.76.76 0 0 0-.005-.4c-.036-.09-.064.016-.061.236m-12.826.024c.096.039.21.034.255-.01.044-.044-.034-.076-.175-.07-.155.006-.186.038-.08.08m9.012.304c-.263.29-.179.742.116.628.113-.043.214.04.26.212.07.272.084.274.332.049.351-.319.45-.747.195-.845a.28.28 0 0 0-.32.108c-.089.14-.118.112-.12-.113-.003-.37-.153-.382-.463-.039m-8.48-.037c.096.038.211.034.255-.01s-.034-.076-.174-.07c-.155.006-.187.038-.08.08m3.511.349c-.438.452-.546.76-.266.76.252 0 .905-.692.905-.958 0-.35-.157-.3-.639.198m-2.954-.078c.11.041.425.188.699.326.275.138.5.2.5.14 0-.134-.948-.566-1.21-.55-.151.008-.149.024.011.084m9.271.127c-.049.048-.089.228-.089.4 0 .382.348.416.466.045.125-.395-.128-.695-.377-.445m-5.478.889c-.266.337-.466.755-.36.755.06 0 .311-.21.56-.467.38-.394.41-.466.192-.461-.142.002-.319.08-.392.173m.02 1.093c-.646.62-1.113 1.128-1.035 1.128.243 0 2.412-1.943 2.412-2.161 0-.234-.252-.045-1.376 1.032m1.898-.778c-.17.217-.167.223.039.062.228-.18.505-.114.505.119 0 .069-.247.365-.549.659-.301.293-.486.533-.41.533.157 0 1.225-1.178 1.225-1.352 0-.063-.055-.115-.122-.115s-.208-.032-.312-.072-.273.035-.377.166m11.613.135c-.2.203-.293.434-.266.661l.042.349.406-.386c.34-.323.383-.431.266-.661-.14-.275-.14-.275-.448.037m-10.445.205a9 9 0 0 1-.56.7c-.293.33-.316.407-.137.443.212.044.557-.306 1.05-1.065.204-.312.212-.378.05-.378-.11 0-.29.135-.403.3m11.424-.176c-.042.068-.015.162.06.208.074.046.14.275.148.509.012.385.021.394.103.102.112-.401.372-.507.456-.184.034.132.069.015.077-.26.015-.467-.01-.5-.376-.5-.215 0-.426.057-.468.125m-10.667.576c-.155.238-.33.523-.389.633-.203.38.392-.226.645-.658.321-.546.102-.524-.256.025m.966-.234c-.042.11-.026.2.036.2s.187-.09.278-.2c.135-.163.128-.2-.036-.2-.11 0-.236.09-.278.2m.58.196c0 .14-.06.292-.133.337s-.133.178-.133.296c0 .148.1.095.333-.175.387-.45.403-.531.133-.635q-.201-.079-.2.177m-8.94.228c.096.039.21.034.255-.01.044-.044-.035-.076-.175-.07-.155.006-.187.038-.08.08m8.022.215c-.168.281-.165.284.064.064.132-.126.211-.259.176-.294s-.143.069-.24.23m2.188.001c-.133.203-.213.397-.178.432.11.11.535-.45.475-.628-.036-.108-.146-.035-.297.196m-8.389.227c-.132.146-.196.266-.141.266.054 0 .251-.12.437-.266.218-.172.268-.267.142-.267-.108 0-.306.12-.438.267m9.06-.048c-.046.12-.056.247-.023.28.106.106.345-.107.345-.307 0-.261-.219-.243-.322.027m.954.402a.5.5 0 0 0 .332 0c.092-.036.017-.067-.166-.067s-.258.03-.166.067m13.23.097c.379.398.642.757.642.873 0 .128.743.542.973.542.135 0-.155-.282-.765-.74-.187-.141-.34-.33-.34-.42s-.117-.226-.258-.302c-.358-.191-.46-.172-.251.047m1.574.597c0 .06.12.218.266.351s.266.32.266.417.165.26.366.36c.46.233 1.364.378 1.364.22 0-.204-.645-.776-1.097-.972-.953-.412-1.165-.481-1.165-.376m-21.373.743c-.04.105-.01.3.066.433.12.205.141.176.145-.192.004-.457-.088-.562-.211-.241m13.336.152c-.044.116-.08.338-.08.492 0 .276.003.276.195.023.217-.288.269-.726.085-.726-.066 0-.155.095-.2.211m-15.783.373c0 .027.09.125.2.216.163.136.2.127.2-.05 0-.12-.09-.216-.2-.216s-.2.022-.2.05m14.126.5c-.15.24-.145.315.034.495.194.193.212.18.212-.144 0-.198.103-.415.233-.491.213-.125.21-.136-.035-.14-.147-.002-.347.124-.444.28m7.58.93c-.164.153-.27.309-.233.346s.235-.09.44-.28.31-.347.234-.347c-.077 0-.275.126-.44.28m2.912.056c0 .113.105.237.233.277s.337.128.464.195c.552.295.639.099.123-.276-.617-.447-.82-.496-.82-.196m-2.242.312c-.157.137-.286.296-.286.354s.125-.009.278-.147c.246-.223.296-.23.432-.05.105.137.285.179.554.13l.4-.073-.487-.232c-.594-.283-.544-.284-.89.018m1.6.673c.125.199.125.299 0 .449-.183.222-.091.326.602.678.626.318.727.28.68-.264-.035-.41-.125-.527-.61-.8-.691-.387-.885-.405-.671-.063m-1.154.011c-.046.073-.02.133.058.133s.141-.06.141-.133-.026-.133-.058-.133c-.033 0-.096.06-.141.133m-2.365.17c-.037.094.25.4.66.699.398.292 1.274.964 1.946 1.495 1.336 1.053 1.913 1.274 1.57.6a24 24 0 0 1-.273-.565c-.186-.4-1.744-1.61-2.09-1.624a1.4 1.4 0 0 0-.5.095c-.218.092-.243.06-.184-.248.071-.375-.121-.476-.392-.204-.205.205-.616.032-.52-.22.043-.109.025-.198-.038-.198s-.144.076-.18.17m-1.236.376c-.05.081-.237.105-.439.054l-.35-.088.332.292c.182.16.691.537 1.13.836.44.3.878.623.974.718.097.096.228.174.29.174.063 0 .194.077.29.17.358.345 1.727 1.187 1.804 1.11.153-.153-.25-.682-.87-1.146a65 65 0 0 1-.758-.572c-1.087-.862-2.332-1.664-2.403-1.549m-4.05.032c0 .044.273.396.608.784.335.387.784.909.999 1.159s.42.424.456.388c.037-.037-.059-.212-.212-.389a6 6 0 0 1-.487-.654c-.216-.345-1.365-1.429-1.365-1.288m2.794.677c0 .292.148.611.283.611.067 0 .405.29.75.643.347.353.987.938 1.424 1.3.436.36.97.821 1.184 1.023.215.201.452.366.527.366s-.784-.93-1.91-2.066c-1.127-1.136-2.096-2.066-2.153-2.066-.058 0-.105.085-.105.19m-.084 1.48c.24.626 1.654 2.456 1.907 2.468.058.003.316.273.571.6.577.737 1.003.825.458.095a39 39 0 0 0-1.877-2.3 55 55 0 0 1-.681-.766c-.297-.344-.492-.394-.378-.097" clip-rule="evenodd"></path></svg> 