<?xml version="1.0" encoding="UTF-8"?> <svg xmlns="http://www.w3.org/2000/svg" width="60" height="58" fill="none"><path fill="#A3AD7E" fill-rule="evenodd" d="M1.603.237c-.145.272-.05 1.035.144 1.155a.29.29 0 0 1 .116.224c0 .11-.045.107-.16-.008-.088-.088-.354-.16-.59-.16a.85.85 0 0 0-.847.831c0 .352.315 1.301.432 1.301.055 0 .1.064.1.143 0 .165.624 1.079 1.123 1.644.434.492.43.544-.019.25C1.208 5.16.662 5.041.314 5.27.14 5.384 0 5.583 0 5.712c0 .3.34 1.12.562 1.354.093.099.327.39.519.646.515.689 1.142 1.326 2.108 2.14.473.4.987.849 1.143 1 .156.15.518.473.804.717l.52.446-.799-.437c-.439-.24-.828-.473-.865-.518-.086-.106-.595-.399-1.25-.72-.56-.274-1.072-.175-1.23.24-.193.502.884 1.927 1.915 2.533.451.266.522.392.299.53-.216.134-.154.557.166 1.124.486.862 1.816 2.376 2.427 2.763.56.354.564.363.318.627-.334.36-.314.834.068 1.626.355.737.614 1 1.246 1.271.238.102.432.23.432.286s.064.101.143.101.407.183.732.406q.588.406.592.7c.007.74.853 1.95 1.56 2.233.256.102.3.22.3.79 0 .372.061.67.138.67.095 0 .095.08 0 .257-.19.357-.173 1.55.029 1.904.091.16.375.524.632.809.418.465.473.616.537 1.482.053.719.147 1.06.366 1.34.21.268.294.556.294 1.012 0 .535.064.697.4 1.014.24.227.399.513.399.716 0 .187.177.547.393.8q.394.462.4.908c.007.58.586 1.135 1.361 1.304.496.108.569.167.538.44-.062.563.306.942.913.942.5 0 .93.232.912.49-.008.11-1.023.976-1.964 1.675-.869.646-2.162 1.3-2.57 1.3-.303 0-.463.045-1.98.549-1.253.416-4.254 1.894-4.368 2.15-.025.056-.1.1-.165.1-.468 0-3.24 2.574-3.396 3.154-.128.475.163.834.752.929.53.085.531.086.23.293-.363.248-.77.69-.77.834 0 .247.453.522.862.522.377 0 .433.04.374.265-.146.559.083 1.174.506 1.359.339.148.39.229.319.509-.255 1.01-.24 1.186.12 1.35.268.123.426.123.697 0 .192-.089.36-.143.371-.122s.081.218.154.438c.11.334.203.4.56.398.426 0 .549.111.295.268-.205.127-.158.947.066 1.133.19.158.391.144.899-.066.19-.078.232-.025.232.295 0 .474.483.971.94.97.179-.001.582-.207.898-.458 1.094-.871 4.506-4.416 6.045-6.28 1.618-1.959 1.68-2.006 3.294-2.553.966-.327 1.047-.334 2.397-.187.768.084 2.029.162 2.801.174l1.404.022-.053.365c-.04.274.027.417.272.578.289.19.409.193 1.036.032q.71-.181.799-.435c.071-.205.22-.254.772-.256.428 0 .707.061.747.167.1.263 1.069.2 1.583-.104.467-.276.885-.951.885-1.428 0-.195.308-.413 1.233-.873 1.977-.983 2.373-1.398 4.01-4.203.853-1.46 1.193-2.238 1.435-3.287.232-1.002.387-1.733.453-2.133.068-.413.184-.901.46-1.932.217-.818 1.015-2.45 1.38-2.825.97-.997 1.447-1.05.537-.06-.726.792-1.608 2.536-1.789 3.54-.134.746-.124.923.079 1.373.176.391.3.507.509.477.238-.034.27-.117.233-.61-.072-.966 1.127-3.194 2.43-4.518.558-.565.776-.698 1.21-.733.475-.039.528-.08.528-.404 0-.837.935-1.145 2.062-.68.62.255.98.302 2.33.305.88.001 1.778.054 1.997.117.978.281 3.67-.548 4.496-1.385.36-.366.364-.384.127-.622-.206-.206-.311-.222-.66-.1-.297.103-.563.104-.926.003-.629-.174-4.73-.19-5.29-.019-.226.069-.68.195-1.008.28-.33.087-.742.213-.916.281-.468.184-.476.063-.027-.387.22-.22.597-.433.838-.473.24-.04.707-.137 1.036-.215.33-.08 1.437-.288 2.462-.464 1.677-.289 2.686-.543 3.46-.872.146-.062.475-.19.732-.284.732-.27 1.996-1.173 1.996-1.427 0-.205-.167-.225-1.63-.194-1.74.037-3.334.22-4.092.472-.484.16-.582.21-2.306 1.149-.573.312-1.071.538-1.107.503-.035-.036.104-.386.31-.778.427-.814.702-1.544.705-1.87.003-.3.92-1.043 1.289-1.043.162 0 .331-.06.377-.133s.218-.134.384-.134c.425 0 1.891-.617 2.557-1.075 1.147-.791 3.35-3.272 3.115-3.508-.127-.127-1.243.082-1.732.325-.11.054-.467.21-.795.346-.871.361-2.088 1.182-2.805 1.892-.345.341-.792.77-.993.954l-.366.333.372-.6c.536-.862.913-1.392 1.028-1.444.055-.024.1-.102.1-.173 0-.072.228-.472.507-.89.645-.963.838-1.387 1.5-3.289.538-1.548.605-2.064.283-2.17-.205-.068-.93.678-1.58 1.622-.257.374-.43.55-.384.391.113-.389-.047-.978-.265-.978-.374 0-1.481 1.644-1.752 2.6-.386 1.36-.438 1.714-.438 2.938 0 1.21-.08 1.671-.45 2.617-.282.722-.376.183-.282-1.631.096-1.86.05-2.299-.425-3.984a10 10 0 0 1-.274-1.503c-.103-1.13-.309-1.147-.806-.072-.257.557-.292.857-.292 2.533 0 1.968.13 2.867.674 4.633.432 1.402.407 2.134-.11 3.21-.383.799-1.577 2.218-1.733 2.061-.036-.036.012-.34.106-.676.128-.46.152-1.464.097-4.036-.07-3.32-.127-3.891-.38-3.891-.286 0-.608.764-1.325 3.141-.271.9-.124 3.121.307 4.62.079.274.149.767.156 1.097.01.479-.057.67-.336.948l-.349.35-.283-.305c-.232-.249-.284-.47-.284-1.209 0-.667-.072-1.035-.278-1.407-.703-1.273-1.925-2.03-3.453-2.14-1.154-.082-1.657.082-4.918 1.61-.638.298-1.397.895-2.795 2.196-.77.717-.87.773-.912.517-.07-.418.2-1.859.804-4.287.653-2.632.782-3.367 1.186-6.797.202-1.721.293-4.738.15-5.05-.388-.854-.49-1.017-.684-1.078-.116-.037-.355-.443-.531-.902a40 40 0 0 0-.646-1.567c-.473-1.065-.53-1.21-.705-1.8a6 6 0 0 0-.275-.764 1.3 1.3 0 0 1-.117-.473c0-.133-.05-.3-.11-.369-.18-.208-.4-1.121-.56-2.326-.223-1.68-.543-3.046-.755-3.222-.29-.24-.848.025-1.091.52-.116.237-.275.432-.353.433-.254.006-.808.724-1.034 1.34-.16.436-.222 1.04-.222 2.158v1.554l-.442-.072c-.572-.093-.79.23-.991 1.465-.113.694-.231.988-.496 1.233-.43.4-.732 1.102-.732 1.701 0 .345-.104.546-.434.837-.448.397-.63.703-.912 1.542l-.166.492-.342-.243c-.188-.134-.566-.37-.84-.525-.275-.155-.695-.395-.932-.532l-1.764-1.015c-.731-.42-1.525-.878-1.763-1.016-.238-.139-.657-.38-.931-.535-.671-.38-3.118-1.912-4.026-2.519-.402-.27-1.24-.738-1.863-1.04-1.188-.58-2.09-1.086-2.682-1.505-.194-.138-.413-.251-.488-.251-.074 0-.154-.05-.179-.11s-.412-.357-.862-.66c-.45-.305-.898-.63-.998-.725s-.4-.335-.668-.536a9 9 0 0 1-.665-.538C4.692 1.617 3.104.467 2.586.245 1.83-.08 1.773-.08 1.603.237M3.278 1.96c.445.716 1.098 1.479 2.308 2.694C6.6 5.673 7.198 6.228 8.64 7.491c.42.368 4.206 2.887 4.338 2.887.036 0 .38.202.763.448a45 45 0 0 0 1.354.833l1.12.658c.596.35.801.663.581.883-.127.127-.199.128-.323.004a.64.64 0 0 0-.393-.16c-.212 0-2.234-.994-3.476-1.71-.59-.339-.87-.378-.572-.08.115.115.21.266.21.335 0 .206-.786-.186-2.13-1.061L8.6 9.54c-.47-.304-2.144-1.604-2.345-1.82-.11-.117-.607-.568-1.105-1-.961-.836-1.358-1.34-.927-1.181.13.048.266.122.302.164.037.042.277.235.533.429.256.193.795.664 1.197 1.046.729.691 1.861 1.529 2.84 2.1.695.405.72.378.126-.134-.277-.238-.57-.493-.652-.566-.365-.33-.976-.846-1.65-1.396a69 69 0 0 1-3.827-3.397c-1.63-1.563-2.136-1.832-1.94-1.03.18.733 1.206 2.015 3.225 4.027 2.228 2.22 3.538 3.407 4.114 3.729 1.325.74 3.319 1.986 3.625 2.265.385.352.678.544 1.492.981.274.148.498.31.498.363 0 .353-1.033.089-2.232-.57-.24-.133-.54-.24-.666-.238-.227.003 1.283 1.032 2.3 1.567.971.511 3.902 1.896 4.015 1.897.178 0 .915.634.834.717-.141.143-2.64-.902-4.982-2.084-.825-.415-3.01-1.79-3.128-1.967-.036-.055-.964-.685-2.062-1.4-1.098-.716-2.026-1.34-2.063-1.39-.036-.048-.276-.232-.532-.408a6 6 0 0 1-.532-.398c-.037-.043-.456-.354-.932-.692-.998-.71-2.446-2.17-2.584-2.61-.085-.268-.61-.694-.61-.494 0 .166.798 1.223 1.535 2.035.876.965 2.944 2.693 4.587 3.833.622.432 1.15.832 1.175.888s.13.104.233.104.189.06.189.133.09.133.2.133c.109 0 .199.06.199.133s.064.134.143.134.602.315 1.164.7 1.171.767 1.354.85l.932.419c.556.25 1.166.517 2.226.974.417.18.654.481.499.636-.088.088-1.617-.282-2.858-.692-1.224-.404-6.766-3.184-8.117-4.07-.623-.41-1.3-.852-1.508-.984l-.375-.24.22.37c.122.204.5.58.842.837s.724.56.85.673c.352.317 1.08.708 4.823 2.589 1.9.955 3.48 1.82 3.511 1.923.2.673-4.463-1.117-6.98-2.68-.448-.279-.852-.506-.899-.506-.212 0-.046.415.406 1.014.725.962.937 1.12 1.385 1.03.212-.043.46-.018.552.054.185.146 2.586 1.094 3.626 1.432.366.119.785.266.932.327.146.062.535.184.865.273s.703.216.83.282.332.12.456.12.41.056.634.124c1.643.5 5.495 1.29 5.63 1.155.03-.03-.293-.126-.72-.212-1.36-.274-2.19-.55-2.136-.71.078-.234.796-.159 2.907.303.537.118.69.097 1.215-.17l.601-.305-.417-.182c-.23-.1-.447-.216-.484-.259s-.575-.342-1.197-.665a31 31 0 0 1-1.64-.907c-.278-.175-.698-.427-.93-.56a80 80 0 0 1-1.822-1.069c-.152-.095-.163-.162-.044-.283.165-.167.863.154 3.984 1.831.813.437 1.68.877 1.93.978.248.1.481.219.518.263.036.044.336.163.665.265.33.102.659.226.732.276s.288.127.476.172c.274.065.4.006.618-.29l.274-.372-.617-.178c-.652-.19-1.735-.656-3.28-1.413-.514-.252-1.008-.457-1.098-.457s-.166-.06-.166-.134c0-.073-.074-.133-.166-.132-.267.002-2.362-1.093-2.362-1.234 0-.224.96.109 2.441.845.78.388 1.042.303.295-.095-.554-.295-1.46-.931-2.181-1.533-.122-.101-.135-.191-.041-.285.154-.155.787.057 1.368.457.536.369 3.188 1.71 3.381 1.71.094 0 .19.048.215.106s.374.263.776.456c.403.193 1.236.595 1.85.894 1.803.876 1.785.737-.085-.672-.715-.538-1.329-1.012-1.365-1.052s-.476-.363-.977-.717c-.668-.473-.893-.707-.848-.882q.064-.238-.287-.418a3 3 0 0 1-.417-.247c-.194-.195-.822-.433-1.146-.433-.203 0-.582-.121-.842-.269s-.743-.419-1.072-.603-.85-.505-1.155-.714-.595-.38-.642-.38-.346-.18-.665-.4-.644-.4-.723-.4-.142-.06-.142-.133-.087-.133-.194-.133c-.106 0-.53-.33-.943-.733-.412-.404-.834-.734-.938-.734s-.187-.06-.187-.133-.066-.133-.146-.133-.305-.113-.5-.251a14 14 0 0 0-1.018-.62c-.99-.55-3.246-1.965-3.502-2.198a9 9 0 0 0-.69-.53c-.256-.18-.974-.737-1.596-1.24-.622-.501-1.223-.982-1.335-1.069l-.462-.357c-.242-.188-.241-.173.018.245m27.27.098a6.5 6.5 0 0 0-.092.924c0 .517.243 2.814.352 3.332.083.392.131.53.463 1.333.091.22.306.808.477 1.308.28.816.29.904.084.866-.195-.036-1.148-1.75-1.505-2.707-.172-.461-.462-2.011-.634-3.4l-.092-.732-.097 1c-.246 2.535-.264 3.22-.1 3.771.637 2.123 1.022 2.972 2.162 4.759.949 1.488 1.39 2.665 1 2.665-.165 0-.595-.638-1.66-2.465a4 4 0 0 0-.3-.467c-.144-.145-.569-.935-1.288-2.4-1.055-2.148-1.39-2.472-1.556-1.499-.046.275-.121.7-.167.943-.067.361.034.666.552 1.666.348.673.679 1.283.734 1.357.306.406.803 1.437.758 1.572-.156.47-2.162-2.22-2.546-3.413-.151-.471-.346-.065-.346.72 0 .755.044.863.804 1.995.93 1.385 1.029 1.592.763 1.592-.233 0-.648-.458-1.423-1.567-.32-.458-.65-.833-.732-.833-.083 0-.287.096-.454.213-.246.173-.295.315-.262.766.036.494.081.56.428.62.274.048.575.302 1.023.867.35.44.639.875.643.967s.069.166.142.166.133.062.133.136c0 .291.717 1.201 1.146 1.455.262.155.54.477.667.77.118.278.268.609.332.736.064.128.117.821.117 1.541 0 1.072.043 1.357.238 1.568.13.142.52.656.865 1.142.793 1.116.971 1.274 1.06.936.041-.16-.064-.375-.29-.588-.195-.185-.621-.687-.947-1.117s-.638-.8-.693-.825-.1-.13-.1-.233c0-.32.358-.21.72.22.4.476.466.353.079-.143-.257-.328-.347-.808-.182-.973.13-.131 1.778 2.153 1.778 2.466 0 .228-.277.087-.742-.38-.268-.267-.42-.362-.338-.21.08.152.24.37.354.483.113.114.293.373.399.577.175.336.193.343.194.078 0-.16.06-.33.133-.375s.133-.225.133-.4c0-.174.054-.35.119-.39s.151-.269.192-.508c.04-.239.14-.734.22-1.1s.18-.832.222-1.034c.085-.408.277-.48.403-.151.097.255-.273 2.142-.756 3.85-.476 1.683-.656 2.652-.802 4.332-.067.77-.177 1.73-.245 2.132-.069.404-.099.76-.068.792.15.156.518-.458.538-.896.059-1.31.373-3.322.69-4.427.577-2.002.939-3.798 1.343-6.665.068-.476.187-1.302.265-1.835.2-1.369.185-2.03-.047-2.03-.104 0-.213-.075-.244-.167-.03-.09-.096.089-.145.4-.05.312-.143.567-.206.567-.135 0-.414-1.028-.414-1.524 0-.549-.5-2.585-.688-2.802-.06-.07-.11-.234-.11-.366s-.06-.24-.134-.24c-.073 0-.133-.073-.133-.162s-.234-.644-.52-1.233c-.592-1.215-1.054-2.522-1.205-3.403-.057-.33-.15-.712-.207-.849-.089-.213-.06-.235.2-.152.28.09.299.066.223-.284-.045-.21-.122-.861-.17-1.448-.048-.586-.16-1.212-.251-1.39-.161-.317-.166-.314-.257.2M2.955 7.75c.383.38 2.5 1.875 2.563 1.81.026-.026-.4-.377-.948-.78a39 39 0 0 1-1.352-1.033c-.465-.39-.658-.389-.263.003m3.112 2.296c.213.183.457.333.542.333s.178.07.206.153c.029.085.129.128.224.096.102-.034.02-.136-.207-.253a3.6 3.6 0 0 1-.636-.43c-.142-.127-.316-.232-.387-.232-.07 0 .046.15.258.333M32 10.517c-.098.16.16 1.158.36 1.387.06.07.11.261.11.425 0 .165.053.332.118.373s.155.283.2.54l.162.936c.044.257.134.5.2.541.065.04.118.195.118.343 0 .157.07.246.166.213.247-.084.086-2.142-.18-2.306-.066-.041-.12-.221-.12-.401 0-.316-.042-.437-.378-1.088-.084-.164-.154-.38-.154-.48 0-.283-.485-.673-.602-.483m-20.847.085c.096.039.21.034.255-.01.044-.044-.034-.076-.175-.07-.155.006-.186.038-.08.08m1.89 1.476c.004.2.205.4.497.49.436.137.397-.293-.042-.46-.41-.157-.458-.16-.455-.03m-2.29 1.057c.097.038.212.034.256-.01s-.034-.076-.175-.07c-.155.006-.186.037-.08.08m4.55.482c0 .095.072.245.16.333.202.203.506.208.506.008 0-.155-.386-.502-.566-.51-.055-.002-.1.074-.1.169m14.907 1.726c.002.165.12.45.263.633s.262.4.263.48.123.254.27.387c.259.234.266.232.264-.08-.001-.366-.735-1.72-.933-1.72-.071 0-.129.135-.127.3m-5.35.058c.095.038.21.034.254-.01s-.034-.076-.174-.07c-.155.006-.187.037-.08.08m.58.342c.097.092.386.324.642.517 1.052.792 1.73 1.671 1.73 2.244 0 .083-.42.138-1.057.138-.581 0-1.094.06-1.139.133s-.211.134-.369.134c-.27 0-.274.013-.06.227.178.178.263.192.388.067.207-.207.626-.205 1.078.005.552.257.428.41-.272.33l-.632-.07.5.256c.274.142.498.316.498.387s.087.13.192.13c.333 0 .367.257.083.62-.151.192-.275.432-.275.533 0 .258.79.712 1.24.713.614 0 .385.395-.375.646-.505.168-.675.293-.708.52-.038.274.009.3.533.285.316-.008.455-.044.308-.08-.466-.112-.526-.288-.146-.433.648-.246.679-.206.679.883v1.02l-.666.239-.665.239.538-.073c.486-.065.555-.037.699.28.088.194.16.617.16.941s.071 1.206.159 1.96c.15 1.307.164 1.346.288.838.088-.358.078-1.41-.028-3.2-.087-1.466-.119-3.13-.07-3.698.084-.968.073-1.033-.172-1.033-.217 0-.289-.15-.426-.9-.091-.494-.191-1.028-.223-1.185-.034-.167.02-.316.128-.358.431-.166.87.861 1.014 2.376l.09.933.018-1.332c.02-1.417.002-1.474-.798-2.487a8 8 0 0 1-.625-.937c-.342-.618-1.24-1.975-1.305-1.975-.027 0-.176.075-.331.167-.226.133-.294.133-.342 0-.033-.092-.15-.167-.259-.167-.163 0-.167.03-.022.167m-4.839.19c.096.04.21.035.255-.01.044-.044-.034-.075-.175-.07-.155.007-.186.038-.08.08m.532.268c.096.038.211.033.255-.011s-.034-.076-.174-.07c-.155.006-.187.038-.08.08m12.722.356c-.12.316-.006.685.213.685.13 0 .198-.133.198-.388 0-.422-.284-.627-.41-.297m-27.261.07c.264.245 3.563 1.882 3.794 1.882.133 0 .279.06.324.133s.2.133.343.133.364.053.49.117c.128.064.471.19.764.278 1.074.324 2.09.82 2.17 1.06.07.212-.808.179-1.684-.064-1.422-.393-3.417-1.087-4.044-1.406-.127-.065-.501-.118-.831-.118-.544 0-.601.03-.601.317 0 .422.165.539 1.335.95.547.19 1.113.4 1.26.464.146.065.505.194.798.287s.59.217.659.275.235.106.368.106c.132 0 .345.056.472.125.127.068.426.203.664.299.502.203.552.37.142.477-.233.06-.16.114.366.267.679.197.989.38.989.581 0 .202-1.224.12-2.196-.146-1.095-.3-1.28-.212-.961.457.254.535 1.052 1.11 1.784 1.285 1.127.27 6.912.881 7.05.744.151-.153-.005-.212-.961-.365a112 112 0 0 1-3.12-.531 54 54 0 0 0-1.33-.233c-.33-.052-.57-.154-.533-.228.081-.161 1.2-.135 2.462.059.513.079 1.321.168 1.797.199.834.054.84.052.2-.059-2.264-.39-3.494-.795-3.313-1.088.09-.146.723-.1 2.181.16 1.49.266 2.49.401 3.56.481l1.098.082v-.45c-.001-.314-.12-.577-.396-.872-.345-.368-.512-.433-1.297-.508-.947-.09-1.954-.273-2.641-.48a3 3 0 0 0-.612-.123c-.112 0-.4-.098-.64-.218-.368-.184-.402-.238-.22-.34.12-.067.284-.082.364-.032.144.089.86.206 2.78.456a32 32 0 0 1 1.43.214c.333.064.433.038.433-.115 0-.22-.898-.498-1.607-.498-.233 0-.64-.055-.906-.124-.264-.068-.84-.195-1.28-.284a57 57 0 0 1-2.328-.557 49 49 0 0 0-1.898-.464c-.202-.037-.4-.12-.44-.186-.04-.064-.216-.117-.39-.117s-.354-.06-.4-.134c-.044-.073-.198-.133-.341-.133s-.38-.06-.525-.133l-.528-.267c-.146-.073-.328-.133-.406-.133s-.39-.12-.692-.267c-.303-.146-.6-.266-.66-.266s-.595-.24-1.188-.534c-1.083-.535-1.342-.633-1.108-.415m48.012.44c-.31.485-.446.838-.443 1.157.003.332.014.326.214-.115.116-.257.274-.602.352-.766.156-.331.056-.555-.123-.276m-24.264.075c.004.178.188.373.664.703.256.178.614.46.797.627.182.167.444.303.581.303.22 0 .228-.029.068-.233-.35-.447-.984-.98-1.474-1.239-.542-.286-.639-.31-.636-.16m23.04.664q-.022.298-.353.381c-.24.06-.333.174-.333.403 0 .504.007.52.209.48.107-.023.194.065.2.2.005.13.098-.052.207-.407s.173-.805.144-1c-.046-.294-.058-.304-.075-.057m-40.075.07c0 .092.195.247.433.345.884.362 1.102.454 1.302.553.113.056.518.145.9.197.603.084.683.068.611-.117-.09-.238-.618-.496-1.516-.741-.33-.09-.703-.218-.83-.284-.338-.176-.9-.146-.9.047m16.634.27c0 .095.165.27.366.389.201.12.531.36.733.534s.547.423.766.553c.362.214.407.216.481.021.09-.233.005-.314-1.174-1.138-.775-.541-1.172-.663-1.172-.358m3.859.018c0 .116.095.211.21.211.236 0 .195-.287-.052-.369-.087-.029-.158.042-.158.158m-11.766 1.25c-.244.322-.243.323.072.224.174-.054.424-.173.555-.264.223-.154.218-.17-.072-.225-.219-.042-.384.037-.555.264m8.252-.259c-.094.152.322.583 1.04 1.078.675.465.744.485.744.21 0-.182-1.411-1.4-1.622-1.401-.05 0-.123.05-.162.113m-6.466.471c0 .118.538.18.606.07.041-.067-.079-.121-.266-.121s-.34.023-.34.051m-3.291.575c.13.033.309.031.399-.006.09-.036-.016-.064-.236-.06-.219.002-.293.032-.163.066m3.104.406c-.55.029-1.03.13-1.197.253-.264.194-.25.2.253.113.292-.05 1.207-.12 2.032-.153.886-.037 1.468-.113 1.422-.187-.074-.12-.56-.126-2.51-.026m31.974 1.067c-.17.216-.163.219.083.038.147-.108.291-.212.322-.233.03-.021-.007-.038-.084-.038-.076 0-.22.105-.321.233m-25.533 1.08c0 .18.25.707.388.82.046.036.396.446.779.91.894 1.085.914.732.023-.394l-.931-1.178c-.142-.181-.259-.252-.259-.158m-7.053.253c0 .055.315.083.699.062 1.171-.065 1.282-.124.266-.144-.53-.01-.965.027-.965.082m24.319.662c-.178.198-.233.493-.232 1.248v.99l.272-.447c.21-.346.263-.627.232-1.248-.038-.774-.047-.793-.272-.543m-27.344.667c.202.03.501.03.665-.002s-.002-.057-.368-.056-.5.027-.297.058m6.718.064c-.276.074-.499.217-.499.32 0 .22.027.225.426.062.168-.068.47-.159.672-.202.4-.086.508-.348.133-.326a5 5 0 0 0-.732.146m-4.292.337c-.22.031-.456.112-.525.18-.078.075.36.12 1.13.114.765-.005 1.154-.05.992-.114-.4-.16-1.147-.243-1.597-.18m-9.115.896c0 .208.188.48.535.778.502.43.611.464 1.763.543 2.747.188 3.213.312 2.393.636-.432.17-4.499.049-5.022-.15-.232-.089-.334-.083-.334.02 0 .251.498.971.958 1.384.426.383.475.393 1.637.358.775-.024 1.362-.115 1.663-.258.256-.122.825-.254 1.264-.292.589-.052.108-.11-1.833-.223-1.447-.084-2.673-.194-2.724-.245-.258-.26.583-.341 3.51-.343 1.765-.001 3.394-.04 3.618-.084.395-.08.402-.093.206-.394-.248-.378-.147-.76.29-1.105.278-.218.296-.278.13-.416-.154-.127-.369-.117-1.015.047-.973.247-1.023.285-.813.621.21.337.205.53-.015.53-.295 0-.755-.595-.755-.976 0-.345-.026-.358-.74-.358-.407 0-1.14-.056-1.63-.124a33 33 0 0 0-1.988-.196c-1.089-.07-1.098-.069-1.098.247m14.062.428c-.096.096-.362.112-3.084.185l-1.863.05 2.33.072c1.44.044 2.319.122 2.305.205a2.6 2.6 0 0 1-.114.366c-.064.164-.027.233.127.233.29 0 .397.316.22.647-.122.228-.1.274.154.31.22.032.304.143.325.425.016.21.067.42.113.465.102.103-.013-2.019-.142-2.613-.093-.425-.196-.52-.37-.345m29.161.003c.096.038.211.034.255-.01s-.034-.076-.174-.07c-.155.006-.187.037-.08.08m-13.748.105c-.073.023-.57.118-1.103.212-.535.093-1.002.22-1.04.28-.037.062-.185.111-.328.111-.27 0-.444.07-1.122.45-.22.124-.818.439-1.33.7-.513.262-1.218.755-1.568 1.095-.603.587-.64.604-.714.32-.076-.292-.087-.289-.458.134-.264.302-.324.446-.198.474.1.022.18.172.18.333s.043.428.097.593c.073.225.045.3-.112.3a.41.41 0 0 1-.32-.2c-.09-.163-.26-.074-.9.466-.806.683-1.09.788-1.371.506-.125-.126-.206-.116-.365.044-.185.185-.134.221.5.367.839.193 1.24.617 1.05 1.113-.245.647-.824.822-1.127.34-.114-.181-.089-.272.119-.429.145-.11.214-.201.154-.203s-.304.145-.544.329c-.24.183-.578.333-.75.333-.232 0-.275.039-.164.15.23.23.052.506-.461.721-.69.289-.966.254-.966-.121 0-.226.125-.378.43-.526.383-.185.401-.218.167-.294a11 11 0 0 1-.574-.21c-.395-.158-.499-.087-.834.57-.15.297-.39.57-.53.607s-.256.17-.256.297c0 .302-.282.535-1.33 1.099-1.297.697-1.873 1.033-2.462 1.436-.638.438-1.332.803-1.524.803-.297 0-.118-.403.332-.747.304-.233.426-.407.343-.49-.07-.07-.104-.196-.075-.28.03-.082-.056-.292-.19-.467l-.244-.317-1.012.684c-.556.376-1.046.683-1.087.683-.042 0-.299.141-.572.313s-.662.414-.864.538c-.308.188-.345.268-.228.487.23.432.953.344 1.67-.205.554-.423 1.122-.611 1.122-.371 0 .052-.247.347-.548.654l-.548.56.282.241c.38.326.364.952-.034 1.416-.173.201-.385.366-.47.366-.087 0-.318.149-.514.33-.226.211-.402.285-.483.204-.157-.157.273-.673.498-.597.084.03.286-.155.447-.409.161-.253.238-.46.171-.46s-.244-.133-.394-.294l-.272-.292-.498.476c-.55.527-1.35 1.246-1.962 1.768-.22.187-.505.34-.634.34s-.339.053-.466.118a10 10 0 0 1-.597.267c-.796.324-.974.395-1.23.49-.187.07.056.148.807.263.59.09 1.2.242 1.356.34.323.202.459.575.275.758-.079.08.038.265.315.499l.44.372.045-.301c.027-.187-.087-.438-.3-.661-.329-.344-.473-.945-.226-.945.064 0 .15-.126.19-.28.046-.172.134-.242.23-.183.087.054.205.021.262-.073.058-.093.204-.131.326-.084.332.127.238 1.237-.1 1.18-.209-.036-.217-.007-.068.233.22.351.455.35.548-.005.047-.18.158-.262.315-.232.18.034.252.19.283.611l.04.566h.784c.43 0 .82.06.865.133.144.234 1.217.144 1.817-.152.318-.157.698-.33.844-.382.147-.053.416-.16.6-.235.182-.077.601-.201.93-.277.33-.075.75-.172.932-.215a78 78 0 0 1 2.138-.39c2.296-.398 2.811-.338 3.64.427.635.586.786.601 1.393.135.31-.238.31-.244.033-.244-.156 0-.284-.055-.284-.124 0-.068-.098-.221-.218-.341-.2-.202-.196-.233.067-.417.156-.11.284-.316.284-.458s.05-.26.11-.26.256-.313.433-.696c.292-.634.752-1.156 1.496-1.702.795-.584 2.751-2.768 2.751-3.073 0-.134.06-.28.134-.326.073-.046.133-.201.133-.346 0-.348.381-.92.614-.92.214 0 .25-.223.045-.291-.076-.026-.014-.18.138-.345.153-.163.215-.297.14-.297-.24 0-.15-.329.138-.51.153-.095.246-.256.207-.357-.038-.1.033-.322.159-.491.126-.17.312-.474.414-.675s.238-.367.302-.367c.065 0-.075-.24-.31-.533-.448-.557-.445-.61.046-.86.17-.087.285-.253.263-.38-.023-.135.047-.226.174-.226.39 0 1.46.302 1.662.47.403.333 1.064.092 1.064-.388 0-.28.489-.882.717-.882.288 0 .547-.488.535-1.011-.014-.652-.7-1.654-1.13-1.654-.14 0-.255-.056-.255-.124 0-.149-.38-.547-.508-.532-.05.005-.15.029-.224.052m12.542.159a.5.5 0 0 0 .333 0c.091-.037.017-.068-.166-.068s-.258.03-.167.068m-1.064.266a.5.5 0 0 0 .332 0c.092-.037.017-.067-.166-.067s-.258.03-.166.067m-32.373.184c-.044.07.044.128.195.128.321 0 .354-.074.079-.18-.108-.041-.231-.018-.274.052m1.037.353a.76.76 0 0 0 .4-.005c.09-.036-.017-.064-.236-.06-.22.002-.294.032-.164.065m30.146 0c.096.038.211.033.255-.011.044-.045-.034-.076-.174-.07-.155.006-.187.038-.08.08m-22.73.27c0 .076.105.22.233.322.215.169.218.163.038-.084l-.233-.322c-.02-.03-.038.007-.038.083m11.51.307c-.156.252.213 1.047.672 1.45.42.37.481.387.802.22.31-.16.723-.734.723-1.002 0-.054-.147-.257-.327-.451-.276-.299-.438-.353-1.056-.353-.402 0-.769.061-.815.136m-18.23.736c-1.28.65-1.3.994-.058.994.74 0 .782-.016.637-.25-.127-.203-.102-.325.14-.666.37-.518.187-.538-.719-.078m15.556-.151c-.137.358.005 1.079.213 1.079.144 0 .21-.178.24-.634.033-.506-.002-.633-.17-.633a.32.32 0 0 0-.283.188m-13.36.146c-.091.11-.124.2-.074.2s.183-.09.292-.2c.11-.11.143-.2.074-.2-.07 0-.201.09-.292.2m-5.765.953c-.048.049-.343.135-.655.193-.311.058-.836.17-1.165.249-1.146.274-2.6.426-3.31.346-.843-.096-1.083.047-1.077.64.008.793.236.922 1.484.837a26 26 0 0 0 3.187-.42c.28-.056.588-.037.732.044.232.13.226.149-.085.283-.325.141-.324.143.067.085.616-.092 1.358-.316 1.098-.331-.344-.02-.288-.502.08-.706.639-.353 1.455-1.04 1.237-1.04-.12 0-.22.045-.22.1 0 .196-1.46.71-2.727.96-.44.087-1.024.224-1.299.304s-.54.105-.589.055c-.173-.173.4-.441 1.736-.812.742-.206 1.619-.483 1.948-.617l.599-.242-.477-.008c-.262-.004-.516.032-.564.08m31.913.27c1.011.085 1.397.188 1.397.371 0 .1-.164.243-.365.317-.323.118-.277.135.39.144.417.006.795-.05.84-.123.046-.073.02-.133-.058-.133-.326 0-.102-.227.424-.43.565-.216.563-.217-1.297-.204-1.025.007-1.624.033-1.33.058m-24.176.391c-.038.323-.15.4-.974.67a20 20 0 0 1-.992.31c-.032.003.01.075.097.162.12.12.22.098.432-.093.27-.244.276-.244.351.043.079.303.367.393.511.16.102-.167.21-.166.466.001.166.11.124.198-.253.533-.25.221-.411.444-.36.495.106.107.879-.675.879-.89a.14.14 0 0 1 .14-.14c.195 0 .102-1.497-.097-1.563-.09-.03-.175.106-.2.312m11.601-.139c0 .125.09.193.222.167.334-.065.38-.376.055-.376-.163 0-.277.086-.277.21m5.456.124c-.14.17-.11.2.2.2s.34-.03.2-.2c-.092-.11-.182-.2-.2-.2-.02 0-.109.09-.2.2m-22.86.483c-.315.156-.547.308-.517.339.059.058 2.107-.466 2.205-.564.198-.198-1.216-.009-1.689.225m17.893-.095c-.075.195.011.345.199.345.148 0 .142-.365-.009-.458-.065-.04-.151.01-.19.113m-10.869.734c0 .215.682 1.195 1.105 1.589.283.264.378.287.625.155l.291-.156-.278-.297c-.153-.164-.279-.369-.279-.456s-.055-.158-.123-.158-.15-.105-.184-.233c-.038-.143-.067-.092-.076.134-.022.51-.214.458-.68-.187-.22-.304-.4-.48-.4-.39m-8.44.796c-.04.065-.269.15-.507.19-.239.04-.704.137-1.033.217-1.661.4-3.422.525-3.686.26-.226-.225-.996-.014-.943.26.034.177.202.22.84.217a14 14 0 0 0 1.527-.104c.86-.119 1.318.064.865.343-.301.186-.904.335-1.83.452q-.631.08-.632.27c0 .341.402.975.618.975.236 0 1.847-.497 2.208-.681.127-.065.348-.118.491-.118s.297-.06.343-.134c.045-.073.224-.133.399-.133.174 0 .354-.06.399-.133s.195-.134.333-.134c.137 0 .283-.053.324-.119.04-.066-.147-.062-.425.01-.274.072-.753.185-1.064.253-.31.068-.85.188-1.197.267-.857.195-1.424.217-1.463.056-.033-.133.418-.307 1.562-.605.735-.191 3.263-1.02 3.748-1.23.32-.137.332-.169.133-.32-.256-.195-.903-.233-1.01-.059m5.594.36c-.05.129-.02.19.077.157.199-.066.308-.369.133-.369-.071 0-.166.095-.21.211m14.985.221c-.23.28-.244.687-.027.732.171.036.663-.572.663-.819 0-.149-.499-.08-.636.087m-12.458.345c-.042.068.046.157.195.196.166.043.253.014.224-.076-.067-.2-.324-.275-.419-.12m-7.998.422q-.263.114-.066.121c.11.005.29-.05.4-.121.242-.158.032-.158-.334 0m.87.394c-.108.069-.162.159-.12.201s.153-.014.246-.126c.192-.231.155-.253-.127-.075m1.725.004c.33.054.719.05.865-.008.172-.069-.041-.104-.599-.099-.834.008-.844.012-.266.107m17.566.268c0 .073.06.133.133.133a.134.134 0 0 0 0-.266.133.133 0 0 0-.133.133m-21.368.998c-.507.476-1.026.865-1.154.866-.31.003-.295-.076.095-.497.376-.407.338-.543-.096-.336-.164.078-.658.278-1.097.444-1.248.47-1.368.65-.841 1.256.4.462 1.274.458 2.212-.01.678-.34.887-.588.492-.588-.335 0-.235-.158.695-1.097 1.14-1.151.91-1.18-.306-.038m5.266-.786c0 .068-.192.208-.428.313-.235.104-.355.213-.266.243.09.03.162.139.162.243s.047.189.105.189c.129 0 .577-.961.49-1.049-.035-.034-.063-.007-.063.06m15.704.587c-.224.195-.253.267-.105.267.217 0 .584-.362.477-.47-.036-.036-.203.056-.372.203m-7.9-.04c-.165.165-.083.574.114.574.11 0 .2-.116.2-.259 0-.278-.176-.454-.315-.315m.802.095c-.039.103.037.285.17.406.214.194.249.195.319.012.104-.272-.031-.605-.246-.605-.094 0-.203.084-.243.187m-10.68.737c-.444.286-1.391.823-2.104 1.194-1.343.7-2.132 1.203-2.036 1.298.052.052 1.144-.47 1.29-.617.07-.07.317-.214 1.254-.73l1.301-.718c.417-.23.844-.419.95-.419.104 0 .222-.12.26-.266.095-.362.019-.34-.914.258m7.064.059c-.932.305-1.36.5-2.728 1.24-1.201.65-1.352.746-2.258 1.454-.478.373-1.015.763-1.194.866a4 4 0 0 0-.606.455 7 7 0 0 1-.557.466c-.326.235-.531 1.067-.264 1.067.095 0 .295-.115.445-.255s.415-.275.588-.3c.18-.026.431-.23.584-.473.272-.434.52-.594.388-.252-.124.325.22.386.53.094.165-.154.424-.28.576-.28.153 0 .62-.18 1.037-.4s.822-.4.9-.4.238-.082.353-.182c.224-.193 1.181-.733 2.805-1.584 1.09-.57 1.597-.975 1.597-1.271 0-.189-.277-.17-.873.06-.195.075-.218.033-.142-.267.109-.436.042-.438-1.18-.038m-5.029.033c-.041.042-.043.16-.003.264s-.088.398-.282.654c-.195.255-.292.465-.215.465s.14-.045.141-.1.135-.166.3-.247.559-.29.878-.466l.581-.32-.55-.093c-.302-.052-.6-.125-.661-.164-.062-.038-.147-.035-.189.007m15.409.566c-.073.074-.313.227-.532.341-.292.152-.332.208-.148.208.138 0 .318.09.4.199.231.31.506.038.456-.453q-.043-.429-.176-.295m-2.813.35c-.119.31.049.6.347.6.304 0 .37-.38.11-.64q-.32-.321-.457.04m1.524 2.424c.096.038.21.033.255-.01.044-.045-.035-.076-.175-.07-.155.006-.186.037-.08.08m-.532.266c.096.039.21.034.255-.01.044-.044-.035-.076-.175-.07-.155.006-.187.038-.08.08m-.533.267c.096.038.211.034.255-.01s-.034-.076-.174-.07c-.155.006-.187.037-.08.08m.799.266c.096.039.21.034.255-.01.044-.044-.035-.076-.175-.07-.155.006-.187.038-.08.08m-.533.267c.096.039.211.034.255-.01s-.034-.076-.174-.07c-.155.006-.187.038-.08.08m-.532.267c.096.038.21.033.255-.01.044-.045-.034-.077-.175-.07-.155.005-.186.037-.08.08m-3.967.227c0 .202.323.38.453.25.175-.175.064-.435-.187-.435-.146 0-.266.083-.266.185m-.705.938c-.173.131-.215.278-.151.53.11.444.304.566.4.255.042-.133.134-.35.204-.48.125-.235.06-.5-.122-.49-.05.001-.2.085-.33.185m-9.741.343c-.045.073-.194.133-.331.133s-.367.15-.51.334c-.16.203-.397.333-.61.333-.687 0-1.848 1.031-1.558 1.382.1.12.098.214-.006.318a.37.37 0 0 0-.067.36c.1.26.574.166 1.352-.27.502-.28.823-.668 1.126-1.357.187-.427.213-.379.159.3-.038.484-.006.6.168.6.119 0 .285-.152.37-.337.109-.241.182-.29.257-.168.184.297.414-.094.484-.82q.065-.675-.085-.675c-.083 0-.154.075-.16.167-.004.092-.073.032-.153-.133-.155-.323-.305-.38-.436-.167m1.156.42c-.12.385-.13.595-.032.692.205.206.53-.287.535-.812.006-.618-.295-.546-.503.12m13.257-.196c.096.039.21.034.255-.01.044-.044-.034-.076-.175-.07-.155.006-.186.038-.08.08m-.665.267c.096.038.21.034.255-.01.044-.045-.035-.076-.175-.07-.155.006-.186.037-.08.08m-.666.267c.096.038.211.033.255-.011s-.034-.076-.174-.07c-.155.006-.187.038-.08.08m-9.217.208c-.167.54-.185.569-.195.334-.007-.141-.116-.234-.277-.234-.309 0-.349.346-.08.7.222.294.612.304.612.017 0-.171.04-.183.188-.06.287.239.395-.06.189-.526-.185-.42-.35-.507-.437-.23m4.589.134c.005.248.76 1.033.992 1.033.316 0 .24-.223-.253-.731-.467-.482-.746-.596-.74-.302m3.955-.079a.5.5 0 0 0 .332 0c.092-.037.017-.067-.166-.067s-.258.03-.166.067m-.988.386c-.233.102-.46.247-.507.322-.12.195-.06.177.674-.196.687-.349.56-.445-.167-.126m-8.872.12c-.105.273.04.63.228.567.083-.028.15-.19.15-.361 0-.363-.263-.506-.378-.206m5.635 1.072c.516.534.555.554.441.233-.128-.36-.46-.7-.688-.7q-.207-.001.247.467m-1.174-.155c.062.26 2.136 2.081 2.371 2.083.112.001-.005-.159-.265-.363-.255-.2-.804-.71-1.22-1.132-.765-.777-.964-.91-.886-.588m-1.425.094c-.087.142.157.528.334.528.054 0 .07-.15.035-.334-.067-.348-.223-.43-.369-.194m.736.194c.172.184.364.334.428.334s-.034-.15-.217-.334c-.183-.183-.375-.333-.428-.333s.045.15.217.334m-13.307.281c0 .258.052.328.204.27.133-.052.247.025.325.218.115.288.12.286.128-.058.004-.196.044-.45.089-.566.063-.165-.01-.211-.333-.211-.357 0-.413.047-.413.347m11.71-.227c0 .199 1.164 1.42 1.262 1.324.119-.117-.88-1.427-1.096-1.437-.091-.004-.166.047-.166.113m-1.597.197c0 .027.09.125.2.216.163.136.2.127.2-.05 0-.12-.09-.217-.2-.217s-.2.023-.2.05m1.084.383c.413.587.646.819.646.64 0-.251-.591-1.07-.774-1.072-.119-.001-.077.14.128.432m6.102-.054c0 .294.51.667.806.59.188-.05.226-.115.131-.23q-.134-.159.024-.316c.12-.12.111-.16-.036-.168l-.56-.038c-.239-.017-.365.039-.365.162m-7.523.278c.191.37.47.653.47.477 0-.195-.418-.868-.539-.868-.073 0-.042.176.069.391m3.477-.091c.301.357.493.504.563.434.064-.064-.596-.734-.724-.734-.05 0 .021.135.16.3m-4.866.124c.005.194.311.642.439.642.117 0-.065-.436-.27-.642-.143-.146-.172-.146-.169 0m.736.015c.05.131.125.205.166.164.04-.04 0-.148-.091-.239-.131-.13-.147-.115-.075.075m1.474.027c.042.11.1.2.129.2s.052-.09.052-.2-.058-.2-.129-.2c-.07 0-.094.09-.052.2m5.903.014c0 .127.55.586.702.586.071 0 .052-.093-.042-.207-.203-.245-.66-.507-.66-.38m-8.759.275c.024.123.113.246.199.275.1.032.13-.048.084-.223-.085-.326-.345-.373-.283-.052m-14.205.502c-.14.103-.21.234-.153.29.056.057.202.003.324-.119.288-.288.161-.415-.17-.171m13.153-.098a.76.76 0 0 0 .4-.005c.09-.037-.017-.064-.236-.062-.22.003-.294.033-.164.067m-15.206.873c-.637.238-1.597.975-1.597 1.226 0 .113.899-.043 1.364-.238.201-.084.366-.207.366-.274s.153-.322.34-.568c.186-.245.32-.44.299-.432-.022.007-.37.136-.772.286m1.14.167c-.526.483-.503.58.073.309.311-.147.741-.775.53-.775-.051 0-.323.21-.603.466m20.784.244c-.158.385-.128.837.043.666.079-.08.124-.317.1-.527-.036-.314-.062-.34-.143-.139M16.11 47.8c-.005.238.05.433.124.433.158 0 .158-.232 0-.6-.096-.223-.116-.196-.124.167m15.769.376c-.122.122-.192.252-.155.289.036.036.166-.034.288-.156s.192-.252.155-.289c-.036-.036-.166.034-.288.156m-14.341.35c.088.088.16.332.16.543 0 .35.017.365.212.17.301-.302.143-.873-.242-.873-.225 0-.254.036-.13.16m-7.426.863c0 .17.511.643.6.554.035-.036-.085-.206-.268-.378-.182-.172-.332-.251-.332-.176m-3.193.283c-.44.297-.711.56-.575.558.351-.006 1.18-.405 1.216-.585.056-.272-.217-.26-.641.027m1.88.293-.447.25.448-.01c.47-.011.974-.267.824-.418-.137-.137-.34-.093-.824.178m-1.215.692c-.544.318-.66.47-.663.867-.003.444.204.483.797.147.449-.255.526-.358.463-.619-.042-.172-.006-.396.079-.5.232-.279-.11-.226-.676.105m1.663-.025c-.045.073-.018.133.06.133.077 0 .14-.06.14-.133s-.026-.133-.059-.133c-.032 0-.095.06-.14.133m2.063-.053c0 .04.09.162.2.272.173.173.2.174.2.005 0-.108-.09-.23-.2-.272s-.2-.044-.2-.005m-.718.662c.083.33.07.34-.387.254-.392-.074-.57-.022-1.048.31-.731.507-1.065.81-1.348 1.223-.24.352-.305.936-.102.936.134 0 1.197-.788 1.731-1.285.185-.17.706-.563 1.16-.87l.823-.56-.337-.175c-.487-.253-.588-.219-.492.167m2.714-.063c0 .076-.11.103-.246.06-.135-.043-.4.002-.587.1-.289.15-1.754 1.216-1.961 1.427-.037.037-.306.246-.6.464-.868.648-1.366 1.268-1.017 1.268.152 0 3.83-2.478 4.37-2.943.316-.273.375-.385.233-.44-.106-.04-.192-.012-.192.064m-1.226 2.417c-1.15 1.186-2.06 2.187-2.022 2.225s.11.011.161-.06.452-.428.891-.793c.44-.365.829-.697.865-.738.037-.04.357-.309.713-.596.355-.288.698-.66.761-.829.07-.182.227-.306.39-.306.315 0 .437-.232.375-.718-.039-.305-.257-.12-2.134 1.815m4.213-1.777c-.516.461-1.183 1.332-1.091 1.424.038.038.201-.098.362-.304.16-.205.503-.602.76-.882.56-.607.54-.75-.031-.238m-3.2 2.58a78 78 0 0 1-1.114 1.299c-.17.162-.935 1.191-.935 1.258 0 .041.09.075.2.075s.2-.052.2-.115.331-.438.737-.833.927-.988 1.159-1.318.523-.71.647-.845c.252-.274.415-.755.255-.755-.057 0-.574.555-1.149 1.233" clip-rule="evenodd"></path></svg> 