<?xml version="1.0" encoding="UTF-8"?> <svg xmlns="http://www.w3.org/2000/svg" width="120" height="126" viewBox="0 0 120 126" fill="none"><path fill-rule="evenodd" clip-rule="evenodd" d="M118.711 0.812035C118.166 1.39058 117.561 1.70591 117.367 1.51232C117.172 1.3193 117.618 0.846096 118.357 0.460569C119.642 -0.209284 119.658 -0.193727 118.711 0.812035ZM114.734 1.0806C115.808 1.32928 116.882 1.84613 117.12 2.22947C117.431 2.7277 117.666 2.74327 117.945 2.2831C118.506 1.36159 119.422 1.48425 119.427 2.48159C119.429 2.94724 117.814 4.43084 115.838 5.77788C112.33 8.16848 105.953 13.4393 100.183 18.7167C97.6642 21.0199 97.4 21.4731 98.0326 22.4023C100.048 25.3642 101.21 28.2199 102.051 32.2803C103.706 40.2645 107.157 44.0101 113.589 44.8061C118.74 45.4437 119.652 45.7187 119.657 46.6355C119.66 47.3913 118.844 47.4958 114.298 47.3196C107.713 47.0648 105.938 46.1682 102.698 41.46C100.758 38.6401 100.337 37.5222 100.194 34.8164L100.022 31.5634L100.531 34.6797C101.638 41.4551 107.402 46.8735 113.467 46.842C116.885 46.8242 116.612 45.9621 113.039 45.4895C107.267 44.7255 103.403 40.8157 101.988 34.3078C101.452 31.8398 100.792 29.1702 100.521 28.3753C100.086 27.0998 100.023 27.2027 99.986 29.2468C99.9545 30.9666 99.7978 31.3404 99.3796 30.6979C99.0696 30.2217 98.7879 29.1807 98.7537 28.3844C98.665 26.3039 98.2326 27.7066 97.6547 31.951L97.1534 35.6326L97.3264 31.7297C97.4219 29.5828 97.2929 27.9565 97.0404 28.1148C96.788 28.273 96.431 28.0762 96.2477 27.677C96.0639 27.2777 96.0824 29.1658 96.2886 31.8724C96.5592 35.4232 97.0613 37.574 98.0914 39.5958C98.8766 41.137 99.2139 42.2108 98.8406 41.9822C98.4672 41.7531 97.6696 40.4928 97.0685 39.1818C96.4669 37.8701 95.9735 37.1881 95.9725 37.6659C95.9679 39.1134 98.8212 44.7033 99.3837 44.3506C99.6724 44.1695 100.745 44.7976 101.768 45.7468C103.747 47.5835 103.553 48.1643 101.527 46.4697L100.322 45.4624L101.46 46.7956C102.138 47.5896 103.015 48.0165 103.63 47.8517C104.197 47.6993 104.544 47.7688 104.4 48.0053C104.256 48.2423 105.571 49.0232 107.322 49.7409C109.073 50.4593 110.414 51.1393 110.302 51.2528C109.874 51.6871 101.425 47.9327 100.129 46.7324C98.5826 45.2994 97.1393 42.6855 95.4051 38.1757C94.0616 34.6832 93.829 32.9874 95.0573 35.6435C96.1065 37.9131 96.1488 36.842 95.1246 33.9363C94.4833 32.1175 94.2554 31.8835 94.0016 32.7838C93.8265 33.405 93.7655 32.2185 93.8667 30.1474C93.9679 28.0763 94.2403 25.7645 94.4729 25.0109C94.848 23.795 94.7725 23.7073 93.8048 24.2383C92.6933 24.8481 88.7032 28.6643 87.4057 30.3588C87.0114 30.8735 86.6928 31.957 86.697 32.7667C86.7012 33.5764 86.456 34.2403 86.1519 34.2419C85.8479 34.2434 85.6639 33.3646 85.7425 32.2886L85.8858 30.3325L83.0933 32.4472C80.9163 34.0959 80.3789 34.8169 80.6547 35.7184C80.849 36.3545 81.1229 39.0898 81.2627 41.7967L81.518 46.7185L80.7603 42.3785L80.0021 38.0386L80.1555 44.1193C80.3278 50.9713 80.038 53.3689 79.1858 52.1432C78.8242 51.6232 78.7554 51.9404 78.9778 53.1028C79.1599 54.0575 79.0839 55.1937 78.8092 55.6272C78.364 56.3298 78.3687 52.5714 78.8165 49.9181C79.0191 48.7164 77.4261 42.3959 76.9213 42.3985C76.6957 42.3997 76.743 43.6157 77.0276 45.1004C77.6877 48.549 77.2435 49.1091 76.4854 45.7832L75.9126 43.2725L75.8654 46.0569C75.8004 49.8689 74.8536 53.7672 73.2127 56.9757C71.7174 59.8997 71.5257 60.6455 72.413 60.0884C72.7702 59.8641 72.7542 60.3432 72.3717 61.3576C72.0337 62.2536 71.5525 64.0302 71.3029 65.3057C70.8854 67.441 70.8394 67.487 70.7198 65.8879C70.5914 64.1696 70.585 64.1667 70.1355 65.6014C69.2587 68.3999 69.5122 72.4512 70.6018 73.056C71.6862 73.6579 71.6991 73.9173 71.197 84.9987C70.9403 90.6587 70.9439 90.6813 71.3648 85.972C71.6014 83.321 72.0877 80.8552 72.4447 80.4931C73.2178 79.7089 73.3054 80.4753 73.2576 87.5943C73.22 93.2202 74.0754 91.5152 74.2775 85.5619L74.3956 82.0861L74.9155 84.9794C75.5008 88.236 74.5349 96.4389 73.6026 96.1327C73.2905 96.0301 72.3944 94.7871 71.6104 93.371C70.2947 90.9951 70.2006 90.3255 70.3953 84.7133C70.5293 80.8563 70.323 77.4662 69.8319 75.4492C68.3916 69.5339 69.1101 64.4663 72.3876 57.415C74.1416 53.6405 74.9982 50.0544 75.3849 44.8698L75.612 41.8296L73.9278 44.1534C72.1926 46.5481 71.1933 47.0977 71.1858 45.6614C71.1793 44.4127 71.8204 42.9805 72.2638 43.2521C72.4808 43.3854 72.6555 43.0213 72.6525 42.4433C72.6477 41.5166 72.4166 41.5711 70.6955 42.9029C68.4227 44.6621 63.7074 50.3737 63.72 51.3531C63.7242 51.722 65.2687 52.497 67.1509 53.0751C69.5359 53.8075 70.4839 54.3662 70.2773 54.9152C70.0457 55.5309 69.7153 55.4585 68.7714 54.5853C67.7226 53.6143 66.2184 53.1599 62.5679 52.7103C62.0783 52.6497 61.5987 51.8512 61.4644 50.8719C61.2275 49.1471 61.2246 49.1466 60.7988 50.591L60.3713 52.0412L60.3059 50.4487C60.2657 49.4817 59.9163 48.858 59.4155 48.8606C58.1923 48.867 56.7873 50.5192 57.1692 51.503C57.5897 52.585 56.2868 54.2361 55.3063 53.8642C54.9011 53.7105 54.4744 53.8748 54.3585 54.2305C54.2132 54.6755 53.5966 54.604 52.3783 54.0022C50.7587 53.2009 50.4945 53.2156 49.2474 54.1702C48.498 54.7434 48.06 55.3857 48.2734 55.5977C48.9584 56.2788 55.5668 56.011 57.4246 55.227C58.93 54.5919 59.3063 54.6009 59.7402 55.2821C60.4563 56.4061 60.1046 57.2182 58.7944 57.4631C57.9015 57.6305 57.8271 57.5248 58.4067 56.9148C59.4522 55.8147 59.2816 55.2984 57.9881 55.6451C57.3653 55.8117 56.8788 56.116 56.9058 56.3203C56.9334 56.5252 56.909 56.823 56.8521 56.9826C56.7947 57.1422 56.6683 58.1344 56.571 59.1879C56.3607 61.4628 56.0409 61.8786 54.8489 61.4267C53.5088 60.9182 53.7642 59.4318 55.4666 57.8308C56.302 57.0457 56.6685 56.4043 56.2802 56.4064C55.8919 56.4084 54.8669 57.1308 54.002 58.011C52.6378 59.4006 52.4506 60.012 52.5871 62.6403C52.7718 66.1961 53.0856 66.8484 54.6064 66.8405C55.9611 66.8334 58.0073 63.6674 57.9874 61.6102C57.9763 60.4629 57.8579 60.3436 57.4184 61.034C56.9251 61.8086 56.8633 61.8089 56.8593 61.0369C56.8568 60.5591 57.1136 59.7758 57.4301 59.2963C57.9225 58.5495 58.1634 58.6114 59.105 59.7255C59.8696 60.6291 60.2974 60.8035 60.5083 60.2974C60.6747 59.8963 60.6802 60.7419 60.5204 62.1762C60.355 63.6581 60.4378 64.4893 60.7121 64.1016C61.0495 63.6243 61.3869 63.8212 61.832 64.7561C62.4952 66.1479 61.9981 66.403 60.4705 65.4564C60.0682 65.2071 59.7483 65.2714 59.75 65.6009C59.7584 67.2139 64.0279 67.9632 64.597 66.4515C65.7375 63.421 64.3905 59.2601 62.2725 59.2712C61.8191 59.2735 61.4511 59.0797 61.4545 58.841C61.4716 57.7022 62.5424 57.2437 65.1878 57.241C66.7745 57.2391 68.3957 57.0031 68.7912 56.7166C69.2476 56.3859 69.5109 56.4395 69.5131 56.864C69.5151 57.2318 69.1233 57.6862 68.6425 57.874C68.1623 58.0619 67.8405 58.6329 67.9279 59.1421C68.0219 59.6878 67.6141 60.151 66.9345 60.2709C65.9851 60.4375 65.9339 60.3665 66.6439 59.8676C67.1182 59.5344 67.2466 59.2633 66.9292 59.2649C65.5919 59.2719 65.2028 60.339 65.1971 64.0123C65.1937 66.1501 65.0564 68.036 64.8923 68.2031C64.6013 68.4977 62.3379 67.9604 60.0975 67.0639C59.1689 66.6928 59.0461 66.8226 59.3268 67.8764C59.75 69.4682 58.9372 69.5008 57.8339 67.9369C57.0149 66.7764 56.9255 66.7699 55.0594 67.7353C52.5189 69.0499 52.5949 68.9048 53.658 70.4121C54.1701 71.138 54.5797 72.1298 54.5678 72.6169C54.5559 73.1035 54.2141 72.73 53.8077 71.7874C53.2534 70.5016 52.9841 70.2991 52.7285 70.977C52.5419 71.4737 52.6226 72.2465 52.9077 72.6939C53.1933 73.1413 53.4356 74.4658 53.4469 75.6369C53.4616 77.2458 53.8426 78.061 55.0035 78.9672C55.8488 79.6277 56.6937 80.012 56.882 79.821C57.2057 79.4927 55.6203 78.0773 54.5251 77.7169C54.2448 77.6251 54.1772 76.715 54.3749 75.6958C54.689 74.073 54.8395 73.9465 55.5778 74.6806C56.0424 75.1415 56.9231 75.5163 57.5346 75.5131C58.7174 75.5069 59.0764 76.4248 58.0311 76.7807C57.5957 76.9289 57.6203 77.4524 58.1123 78.5213C58.9718 80.3893 58.3911 85.5414 57.3594 85.2021C56.9843 85.0784 56.6732 84.1654 56.668 83.1727C56.6569 81.0257 55.5256 79.6057 54.5866 80.5581C53.8979 81.2567 51.7521 80.9169 51.7479 80.1089C51.7464 79.828 51.9898 79.5963 52.2893 79.5947C52.5881 79.5931 52.6936 79.0064 52.5237 78.2903C52.3538 77.5741 52.1394 75.7392 52.0472 74.2118C51.8154 70.3527 50.995 69.805 49.7498 72.6791C48.5685 75.4045 48.819 76.5251 50.6861 76.8727C51.899 77.0987 51.8789 77.1295 50.4686 77.2086C49.615 77.2565 48.753 77.0328 48.5528 76.7118C48.323 76.3429 47.7345 76.452 46.9498 77.0097C46.268 77.4946 45.0077 77.895 44.1492 77.8994C42.6347 77.9073 40.2088 80.1799 40.2161 81.5838C40.2178 81.9203 40.6251 81.6877 41.1216 81.0666C42.0015 79.9662 42.0171 79.9701 41.7537 81.2422C41.5966 81.9983 41.7639 82.5541 42.1506 82.5642C42.5176 82.5739 42.0422 83.2488 41.0944 84.0652L39.3712 85.5481L41.2064 84.6258C42.2158 84.119 43.4487 83.1141 43.9464 82.3927C44.7721 81.1964 44.7701 81.0227 43.9234 80.4085C43.0882 79.8018 43.1083 79.6743 44.1255 79.1205C44.95 78.672 45.9369 78.73 47.78 79.3338L50.3057 80.1616L48.1405 79.8682C46.0031 79.5787 45.0598 80.4727 46.8045 81.1343C47.9705 81.5765 48.2313 82.5754 47.6175 84.2525C47.1385 85.5605 47.0297 85.6033 46.5103 84.688C46.1935 84.1296 46.0779 83.4363 46.2541 83.1475C46.6243 82.5392 45.4605 82.6385 44.4104 83.3048C43.848 83.6611 43.885 84.1271 44.5814 85.462C45.2254 86.6952 45.3344 87.6822 44.9791 89.0468L44.4881 90.9294L44.0549 89.0632C43.8165 88.037 43.7372 86.9949 43.8784 86.7474C44.0196 86.4999 43.9236 85.7776 43.6647 85.1418C43.276 84.1853 43.1882 84.1579 43.159 84.9817C43.1384 85.5732 42.8058 85.8564 42.3399 85.6798C41.7531 85.457 41.4825 86.2426 41.265 88.7951C41.1051 90.6719 40.5543 93.0344 40.0408 94.0443C37.9539 98.1471 34.1954 94.9093 35.4501 90.0897C35.9846 88.036 35.953 87.9394 34.9587 88.5701C33.628 89.4146 33.1846 90.8116 33.2631 93.9162C33.306 95.6333 32.9963 96.6519 32.2131 97.3713C31.1639 98.3347 31.0174 98.3367 29.5967 97.4133C28.1326 96.4612 28.109 96.4659 28.7178 97.5928C29.6534 99.3261 29.4956 103.599 28.4396 105.129C27.7066 106.191 27.0968 106.43 25.5606 106.258C24.4885 106.138 23.6115 106.135 23.6121 106.252C23.6158 106.954 25.1007 109.135 26.1512 109.98L27.387 110.975L26.0889 110.994C25.3747 111.005 24.7841 110.819 24.7759 110.58C24.7677 110.34 24.273 109.515 23.6765 108.745L22.5925 107.344L21.3865 109.747C20.7235 111.069 20.1853 112.974 20.1905 113.982C20.1986 115.544 20.0725 115.708 19.3308 115.097C18.7757 114.639 18.4563 113.36 18.447 111.555C18.4334 108.949 18.3238 108.731 17.0285 108.737C14.9232 108.748 14.69 110.504 15.8931 117.286C16.3615 119.929 16.1237 120.135 13.6737 119.215C12.4296 118.748 12.2 118.861 11.8989 120.093C11.4706 121.844 10.7009 121.942 10.5664 120.262C10.4763 119.139 9.53608 118.076 8.61628 118.057C8.42644 118.053 7.97366 118.638 7.61045 119.357C6.95653 120.648 6.95249 120.646 7.26007 119.214C7.5316 117.951 7.48807 117.9 6.92451 118.816C6.15727 120.063 6.6043 121.592 7.65761 121.324C8.06556 121.22 8.20418 121.246 7.96486 121.381C7.72554 121.517 7.64748 121.817 7.79119 122.048C8.10886 122.558 3.59951 125.604 2.51945 125.609C1.23688 125.616 0.984969 123.886 1.96533 121.795L2.89321 119.816L1.31561 119.787C-0.160426 119.76 -0.181951 119.726 0.984502 119.246C1.66964 118.965 2.52221 118.26 2.87865 117.681C3.45536 116.743 3.48896 116.771 3.17882 117.932C2.75153 119.533 3.49845 119.594 5.29085 118.103C6.43236 117.154 6.53841 116.798 5.96173 115.857C5.45257 115.027 5.4427 114.57 5.92366 114.082C6.27951 113.721 6.35298 113.427 6.08642 113.428C5.48754 113.431 4.08231 115.258 4.07313 116.045C4.06959 116.363 4.31642 116.232 4.62146 115.752C4.92649 115.273 5.17737 115.141 5.17903 115.46C5.18068 115.778 4.95658 116.4 4.68136 116.842C4.28768 117.473 4.09565 117.381 3.78367 116.412C3.56551 115.734 3.07961 115.163 2.70448 115.143C2.32876 115.122 2.53969 114.855 3.17277 114.549C4.19203 114.056 4.16245 114.025 2.91288 114.277C1.29675 114.603 -0.00875853 113.751 -0.00322005 112.375C-2.1402e-05 111.659 0.115705 111.612 0.479272 112.181C0.77943 112.65 1.85773 112.861 3.3688 112.745C6.43822 112.51 6.24362 111.37 3.15695 111.506L0.849595 111.607L2.71026 110.929C3.93919 110.481 4.94554 109.503 5.67362 108.049L6.77689 105.849L5.5309 106.233C4.57236 106.529 4.43638 106.456 4.94074 105.916C5.30165 105.53 5.52354 104.262 5.43498 103.097C5.34584 101.933 5.38903 101.695 5.5309 102.571C5.67219 103.446 6.02324 104.161 6.31056 104.16C6.59789 104.158 6.70697 103.832 6.55258 103.434C6.37655 102.979 6.8406 102.676 7.80901 102.615C8.90721 102.545 9.11554 102.666 8.53819 103.037C7.39212 103.774 8.44179 103.694 9.83009 102.938C10.5113 102.568 10.8514 101.958 10.6567 101.456C10.4748 100.987 10.5399 100.735 10.8015 100.895C11.0631 101.055 11.2754 100.833 11.2732 100.399C11.2709 99.9655 10.9236 99.746 10.501 99.911C9.44436 100.325 9.52054 98.6633 10.5999 97.7547C11.0813 97.3491 11.3478 96.8907 11.1918 96.7357C11.0358 96.5808 11.1702 95.9007 11.4903 95.2243C12.049 94.0439 12.0375 94.0387 11.1994 95.0972C10.7191 95.7044 10.4376 96.3788 10.5732 96.5971C10.7087 96.8147 10.4558 96.995 10.0109 96.9973C9.42822 97.0003 9.34775 96.7251 9.72254 96.013C10.0088 95.4694 10.0754 94.858 9.87068 94.6546C9.66596 94.4513 9.99645 93.875 10.6054 93.3737C11.7746 92.4108 10.517 92.8987 9.24076 93.9027C8.72016 94.3125 8.6865 94.6069 9.12871 94.878C9.55704 95.1405 9.46954 95.5128 8.86004 96.0262C8.08567 96.6783 8.00696 96.6301 8.30151 95.688C8.62954 94.6385 8.60531 94.6398 7.73796 95.7199C7.23923 96.341 6.83239 97.103 6.83401 97.4141C6.83562 97.7245 6.68093 97.8238 6.4907 97.6348C6.29989 97.4452 6.61898 96.4508 7.20042 95.425C8.02599 93.9657 8.0905 93.5015 7.49515 93.2949C7.07609 93.1494 6.03356 92.3856 5.17843 91.5977L3.62297 90.1654L5.64825 91.2947C7.92524 92.5646 9.11583 92.4003 9.1076 90.8174C9.1016 89.6631 11.6391 87.3355 12.9107 87.3289C13.7796 87.3244 16.0039 85.5625 16.0004 84.882C15.9991 84.6416 15.4148 84.6684 14.7025 84.9403C13.2485 85.4952 8.89592 84.3953 7.08975 83.0164C5.53383 81.829 6.15004 81.4951 8.55518 82.2228C10.2859 82.7461 10.9559 82.6476 13.051 81.5606C15.0137 80.5426 15.449 80.044 15.1984 79.1012C14.8871 77.9305 14.8969 77.9311 16.1886 79.1372C17.8207 80.6601 19.4553 80.6713 21.8709 79.176C22.9066 78.5346 24.2079 78.0066 24.7635 78.0025C25.4985 77.997 25.7707 77.5259 25.7641 76.2685C25.7526 74.0479 24.0295 73.5524 20.1846 74.6642C17.5788 75.4173 17.3963 75.5944 17.4313 77.3335C17.4516 78.3586 17.2333 79.1978 16.9454 79.1993C16.658 79.2008 16.5933 78.5037 16.8017 77.6507C17.1345 76.2919 17.0699 76.1932 16.2835 76.8558C15.7895 77.2714 15.3843 77.3493 15.3826 77.0279C15.3781 76.1557 17.7582 74.7405 20.5047 73.9831C23.076 73.2736 23.4385 72.067 21.1762 71.7463C19.843 71.5569 17.654 70.0062 17.65 69.248C17.6488 69.0152 18.7824 68.3137 20.1691 67.6891C24.397 65.7853 30.5473 67.0733 30.0449 69.7575C29.9444 70.2944 29.8103 70.7996 29.7472 70.8793C29.6836 70.9589 29.6008 71.3509 29.5631 71.749C29.5253 72.1477 29.1151 72.4753 28.6512 72.4777C28.1873 72.4801 27.4265 73.1728 26.96 74.0173C26.2255 75.3475 26.2208 75.8786 26.9259 77.9849C27.7094 80.3277 27.812 80.4048 29.7282 80.0821C31.9055 79.7157 34.4261 77.6784 34.4188 76.2907C34.4153 75.6165 34.2183 75.6749 33.5731 76.5406C33.1102 77.161 32.722 77.4156 32.7106 77.1058C32.6986 76.7965 32.2878 77.1242 31.7976 77.8345C30.7611 79.3371 28.9285 79.638 29.4629 78.2179C29.653 77.713 29.8077 77.191 29.8071 77.0577C29.8064 76.9245 30.1 76.8141 30.4601 76.8122C31.1184 76.8088 33.8279 73.9306 33.8254 73.2368C33.8243 73.0318 33.398 72.7027 32.8777 72.5056C32.1071 72.213 31.9926 71.6061 32.2595 69.2352C32.4404 67.634 32.3396 65.678 32.0355 64.889C31.5378 63.5947 31.591 63.5105 32.5757 64.033C33.4957 64.5211 33.6216 64.4376 33.3727 63.503C33.2102 62.8933 32.566 61.9341 31.9405 61.372C30.9585 60.4887 30.723 60.4656 30.2121 61.1986C29.7042 61.9264 29.6591 61.9196 29.8951 61.1498C30.0914 60.5094 29.4425 59.9938 27.6327 59.3511C24.9552 58.4 24.8192 58.5299 25.6858 61.1989C25.9438 61.994 26.1792 62.3189 26.2088 61.9202C26.2859 60.8836 27.2271 61.0207 27.6581 62.131C27.8593 62.6478 27.6963 63.4809 27.2967 63.9817C26.8972 64.4824 26.8391 64.7289 27.1675 64.5297C27.4965 64.3305 28.6467 65.0635 29.725 66.1584L31.6849 68.1499L29.9968 67.2777C29.0689 66.7978 27.3786 66.4086 26.242 66.4122C24.7904 66.4175 24.1728 66.1606 24.1696 65.5507C24.1671 65.0729 24.5442 64.68 25.0069 64.6776C25.6369 64.6743 25.7553 64.2382 25.4785 62.9376C25.275 61.983 24.9426 60.4209 24.7392 59.4663C24.3376 57.5796 24.9079 57.2801 26.8958 58.3349C27.9691 58.9045 28.0222 58.8092 27.6652 56.9536C27.2703 54.899 28.3628 51.8514 29.8116 50.967C30.335 50.648 30.323 50.7905 29.7687 51.4844C29.3474 52.0119 29.1234 52.6496 29.2712 52.9014C29.4185 53.1537 29.3656 54.7294 29.1538 56.4026C28.8396 58.8814 28.9262 59.4445 29.6203 59.4409C30.9115 59.4342 34.3458 62.244 34.3514 63.3114C34.3553 64.0672 34.6376 63.9835 35.791 62.8846C37.0196 61.7134 37.1131 61.3874 36.4438 60.6084C35.1604 59.1156 34.7959 58.2556 35.445 58.2523C35.7807 58.2505 36.0579 58.6122 36.0602 59.0559C36.0656 60.0995 37.0488 60.4495 39.4157 60.2495C41.8581 60.0439 42.4147 59.4613 40.9576 58.6371C39.1348 57.6058 38.4751 57.6811 38.7953 58.8841C39.0171 59.7193 38.8606 59.9014 38.1524 59.6329C36.9083 59.1609 36.9659 58.4824 38.3329 57.5104C40.3684 56.0634 41.4448 51.4637 39.7462 51.4725C39.2564 51.475 38.9829 51.8043 39.1385 52.2043C39.2934 52.6043 38.7936 53.3488 38.0271 53.8584C37.2601 54.3686 36.4752 55.4326 36.2814 56.2242C36.0882 57.0152 35.7083 57.5269 35.438 57.3609C35.1677 57.1949 35.0803 56.7025 35.2448 56.2661C35.4087 55.8297 35.2247 55.2775 34.8357 55.0392C34.3831 54.7612 34.2773 54.8452 34.5432 55.2712C34.7713 55.6378 34.7152 55.9393 34.4175 55.9408C33.5722 55.9452 32.7073 54.6002 32.8737 53.5394C32.9631 52.9696 32.5183 52.4368 31.7828 52.2327C30.5468 51.8893 30.5463 51.8841 31.6907 50.9445C32.6266 50.1762 32.6526 50.0672 31.8319 50.3558C30.3017 50.8943 29.0079 50.1915 29.3716 49.0203C29.5907 48.3143 29.3133 47.9039 28.471 47.6876C27.6073 47.4656 27.3066 47.0004 27.4368 46.0863C27.6873 44.3225 30.1161 42.621 32.9487 42.2252C34.5147 42.0056 35.2098 41.6522 35.0221 41.1695C34.8566 40.7429 35.3781 40.2798 36.2873 40.0457C38.4579 39.4871 42.1009 41.939 42.8387 44.4546L43.3908 46.3376L43.4342 44.6965C43.4617 43.6532 43.7412 43.1438 44.2001 43.2984C44.5972 43.4319 44.8441 44.1042 44.7485 44.7916C44.6528 45.479 44.8634 46.0403 45.2165 46.0385C46.5747 46.0314 49.6264 44.0585 51.5494 41.9437C53.5602 39.7329 57.3759 37.3262 59.0169 37.2343C59.4974 37.2075 58.8564 36.8783 57.592 36.5026C55.1847 35.7883 52.6564 32.9014 52.6457 30.8552C52.6427 30.265 52.7048 29.7863 52.7844 29.7905C52.8641 29.7947 53.9692 30.1689 55.2409 30.621C56.5126 31.0737 59.89 31.4796 62.7462 31.5232L67.9394 31.6028L62.1724 32.1326C59.0006 32.4236 55.807 32.5259 55.0757 32.3595C53.8892 32.0888 53.8141 32.183 54.3792 33.2301C55.7541 35.7772 57.4722 36.3046 61.793 35.506C63.9707 35.1038 67.3523 34.8823 69.3078 35.014C71.2627 35.1458 72.8622 35.1792 72.8618 35.0882C72.8613 34.9979 72.0156 34.6947 70.9831 34.4151L69.1053 33.9065L70.6897 33.4685C72.4901 32.9703 72.7539 32.2067 71.2581 31.8224C70.5746 31.647 70.7143 31.5397 71.6891 31.4918C72.4822 31.4529 73.8746 31.8053 74.7834 32.275C76.3501 33.0846 76.5968 33.0306 79.5219 31.2333C81.2191 30.1906 82.6141 29.1605 82.6222 28.9438C82.6429 28.3715 80.9052 26.7397 80.278 26.7429C79.2124 26.7485 79.778 27.7771 81.0219 28.0967C81.7232 28.2766 82.1477 28.575 81.9658 28.7602C81.4469 29.2859 78.5936 27.807 78.5895 27.01C78.5843 26.0063 79.9506 25.5862 83.2791 25.5689C85.0463 25.5598 86.0122 25.3323 85.7911 24.9767C85.581 24.6401 86.1659 24.3956 87.1941 24.3902C88.5522 24.3832 89.8542 23.5458 92.8681 20.7408C97.3531 16.567 105.606 9.79622 110.454 6.31441C111.57 5.51222 112.49 4.64271 112.497 4.38261C112.515 3.77785 111.079 4.23476 105.025 6.76023C98.3431 9.54728 94.1422 10.4431 88.0231 10.3857L82.8301 10.3369L89.7514 9.87864C94.1331 9.58886 97.4117 9.07081 98.6871 8.46703L100.702 7.51307L98.6837 7.80852C97.0561 8.04692 96.8683 7.98244 97.7138 7.47705C98.2907 7.13175 99.4152 7.01064 100.213 7.20747C101.042 7.41167 101.522 7.33678 101.333 7.03369C101.151 6.74156 102.664 6.01492 104.695 5.41996C106.726 4.82442 108.255 4.12318 108.092 3.86166C107.929 3.60013 108.532 3.52691 109.432 3.69888C110.59 3.92049 110.414 3.76038 108.831 3.15235C107.601 2.67976 105.912 2.42791 105.078 2.59268C103.79 2.84785 103.735 2.80991 104.713 2.33973C105.347 2.03526 106.513 1.72339 107.306 1.64687C108.099 1.57035 107.449 1.33568 105.861 1.12558C103.349 0.792864 103.611 0.735897 107.878 0.685911C110.575 0.654513 113.661 0.832497 114.734 1.0806ZM69.9446 1.14203C69.2317 1.28358 68.0628 1.28966 67.3483 1.15553C66.6339 1.02082 67.2172 0.90484 68.6452 0.897416C70.0732 0.889992 70.6576 0.999897 69.9446 1.14203ZM101.673 1.55684C100.956 1.69899 99.9178 1.69917 99.3655 1.55725C98.8131 1.41532 99.3999 1.29875 100.669 1.29852C101.939 1.2983 102.39 1.41468 101.673 1.55684ZM74.7103 2.23277C76.1257 2.91755 76.1793 3.00298 75.0012 2.69693C74.2068 2.49023 72.3962 2.37106 70.9772 2.43173C68.0145 2.55891 68.0046 2.20277 70.9574 1.72175C72.1749 1.5237 73.6634 1.72621 74.7103 2.23277ZM64.4556 1.74223C63.895 1.89226 63.116 1.88646 62.7246 1.7298C62.3332 1.57313 62.7918 1.45085 63.7438 1.45749C64.6959 1.46412 65.0162 1.5922 64.4556 1.74223ZM97.3451 2.15042C96.7845 2.30045 96.0055 2.29465 95.6141 2.13799C95.2227 1.98133 95.6813 1.85905 96.6334 1.86568C97.5854 1.87232 97.9057 2.00039 97.3451 2.15042ZM67.6064 2.29924C67.1913 2.46879 66.6933 2.45052 66.5007 2.25923C66.3082 2.06794 66.6479 1.92949 67.2561 1.95124C67.9284 1.97554 68.0659 2.11209 67.6064 2.29924ZM61.2962 2.31989C60.9001 2.48296 60.251 2.48634 59.8538 2.32739C59.456 2.16902 59.7802 2.03586 60.5735 2.03173C61.3668 2.02761 61.6917 2.1574 61.2962 2.31989ZM114.236 2.81961C113.111 3.55755 111.517 3.56584 111.063 2.8361C110.847 2.48913 111.581 2.2577 112.901 2.25604C114.532 2.25451 114.876 2.39926 114.236 2.81961ZM93.8864 2.74759C93.3258 2.89762 92.5468 2.89182 92.1554 2.73516C91.764 2.5785 92.2226 2.45622 93.1746 2.46286C94.1267 2.46949 94.447 2.59756 93.8864 2.74759ZM58.3781 2.92641C57.963 3.09596 57.465 3.07769 57.2724 2.8864C57.0799 2.69511 57.4196 2.55666 58.0278 2.5784C58.7001 2.60271 58.8376 2.73926 58.3781 2.92641ZM90.1432 3.35435C89.4262 3.49651 88.3877 3.49669 87.8354 3.35476C87.283 3.21284 87.8698 3.09627 89.1391 3.09604C90.4085 3.09581 90.8603 3.2122 90.1432 3.35435ZM78.6109 3.38825C78.2148 3.55132 77.5657 3.5547 77.1685 3.39575C76.7707 3.23738 77.0949 3.10421 77.8882 3.10009C78.6815 3.09596 79.0064 3.22576 78.6109 3.38825ZM56.4419 3.71549C56.3016 4.14539 55.0436 4.88635 53.6458 5.36218C51.5142 6.08741 51.2885 6.29824 52.2465 6.668C53.0328 6.97204 53.119 7.1355 52.5227 7.19478C50.9426 7.35185 53.8426 8.25826 56.2791 8.36896L58.5876 8.47396L56.5707 8.9588C54.9209 9.35602 55.1306 9.4001 57.7259 9.20243C59.4705 9.06941 61.8058 8.78737 62.9154 8.57598C64.5178 8.26995 64.7558 8.33126 64.0709 8.87231C63.3813 9.41744 63.6125 9.49211 65.2268 9.24509L67.2446 8.9369L65.2816 9.81473C64.1891 10.3035 62.655 10.5425 61.8226 10.354C60.6956 10.0986 60.5407 10.1591 61.195 10.5982C61.8244 11.0212 61.1097 11.1668 58.6014 11.1266C55.351 11.0746 55.2805 11.0448 57.4449 10.6443C59.6163 10.2427 59.6432 10.2136 57.9125 10.145C56.9015 10.105 55.4089 10.3306 54.5952 10.6458C53.044 11.247 50 10.3691 50.5429 9.47724C50.695 9.22623 50.5153 8.83448 50.1425 8.6059C49.7194 8.34631 49.6207 8.44007 49.8802 8.85632C50.412 9.71075 50.4512 9.71634 47.0699 8.44754C45.4923 7.8557 44.1035 7.08101 43.984 6.72659C43.7666 6.08251 46.0393 5.74867 49.2373 5.95503C50.1314 6.01293 50.7236 5.83551 50.5525 5.56071C50.3815 5.28648 51.2971 4.73845 52.5869 4.3431C53.8767 3.94776 55.3294 3.46932 55.8148 3.27914C56.3888 3.05491 56.6077 3.20667 56.4419 3.71549ZM114.669 4.86537C113.489 5.67947 112.516 6.5313 112.508 6.75897C112.498 6.98664 111.801 7.68413 110.957 8.30883L109.423 9.44507L111.114 7.25447C112.044 6.04955 113.504 4.68724 114.359 4.22698C116.834 2.89355 117.008 3.25175 114.669 4.86537ZM95.3667 7.93465C94.9706 8.09772 94.3215 8.1011 93.9243 7.94215C93.5266 7.78378 93.8507 7.65062 94.644 7.64649C95.4373 7.64237 95.7623 7.77216 95.3667 7.93465ZM91.6197 8.5646C90.7474 8.70177 89.3201 8.70919 88.4464 8.58109C87.5728 8.453 88.2865 8.34098 90.0318 8.33191C91.7771 8.32283 92.4919 8.42743 91.6197 8.5646ZM85.2621 8.58433C84.7015 8.73436 83.9226 8.72856 83.5312 8.5719C83.1397 8.41523 83.5984 8.29295 84.5504 8.29959C85.5024 8.30622 85.8227 8.4343 85.2621 8.58433ZM80.5172 9.38163C81.8265 9.61867 80.4524 9.68199 77.3446 9.52671C74.3292 9.37674 71.753 9.15903 71.6203 9.04389C71.203 8.68175 78.098 8.9436 80.5172 9.38163ZM104.766 12.4672C102.871 14.236 100.648 16.1311 99.8243 16.6775C98.0988 17.824 93.5642 21.9054 93.5663 22.3102C93.5671 22.4602 94.0216 22.4376 94.5758 22.2598C95.15 22.0761 94.8423 22.5828 93.8607 23.4375C92.9129 24.2626 91.7683 24.941 91.3177 24.9451C90.8665 24.9492 90.0235 25.3873 89.4442 25.9197C88.8642 26.4516 88.2588 26.7565 88.0987 26.5969C87.4903 25.9924 106.625 9.1932 107.87 9.23769C108.058 9.24482 106.661 10.6977 104.766 12.4672ZM70.8968 9.71198C70.7355 9.87557 68.3113 10.8004 65.5099 11.7672C59.5322 13.83 56.6944 14.0012 54.7775 12.4149C53.2014 11.1106 53.9997 10.8516 55.6876 12.12C57.39 13.3987 60.0894 13.1286 65.0424 11.184C69.1219 9.58278 71.6509 8.94701 70.8968 9.71198ZM99.3164 18.5353C99.3181 18.8538 99.0442 19.1159 98.7084 19.1176C98.3726 19.1194 98.2565 18.8594 98.451 18.5398C98.6455 18.2202 98.9188 17.9582 99.059 17.9574C99.1992 17.9567 99.3148 18.2167 99.3164 18.5353ZM83.2251 30.8271C80.4188 33.6241 77.9947 35.1328 76.8902 34.7696C76.5048 34.643 77.7073 33.56 79.5618 32.3631C81.4157 31.1661 83.5801 29.7514 84.3707 29.2197C85.1613 28.6879 84.6457 29.4111 83.2251 30.8271ZM98.6749 31.86C98.6807 32.9749 98.5642 33.4319 98.4165 32.8749C98.2682 32.3179 98.2634 31.4063 98.4059 30.8478C98.5478 30.2893 98.6691 30.7451 98.6749 31.86ZM64.9326 35.894C64.5365 36.0571 63.8874 36.0604 63.4902 35.9015C63.0924 35.7431 63.4166 35.61 64.2099 35.6058C65.0032 35.6017 65.3281 35.7315 64.9326 35.894ZM62.0145 36.5005C61.5994 36.67 61.1014 36.6518 60.9088 36.4605C60.7163 36.2692 61.056 36.1307 61.6642 36.1525C62.3365 36.1768 62.474 36.3134 62.0145 36.5005ZM67.9687 37.241C64.9163 37.8668 58.5695 40.0654 56.7506 41.1272C55.3229 41.9606 55.3218 41.9681 56.6682 41.5939C57.5342 41.3537 57.9044 41.4322 57.6762 41.807C57.4777 42.1335 59.2398 41.6987 61.5922 40.8414C63.9453 39.9841 65.6077 39.1223 65.2876 38.9259C64.9675 38.7295 65.4416 38.577 66.3405 38.5868C67.2401 38.5972 68.7537 38.4185 69.7045 38.1906C71.0092 37.8774 71.1513 37.9114 70.2822 38.3289L69.1312 38.8822L70.2855 38.9579C71.0964 39.011 70.8404 39.2631 69.4245 39.8062C66.1238 41.0721 61.2558 43.7194 61.5998 44.0611C61.7755 44.2362 62.3784 44.0136 62.9392 43.5676C63.8442 42.8464 63.8789 42.8596 63.2473 43.6813C62.8559 44.1907 62.7294 44.8192 62.9661 45.0786C63.2023 45.338 63.0987 45.382 62.7353 45.1759C62.3719 44.9699 60.6049 45.7007 58.8082 46.7989C55.799 48.6396 55.1929 48.7934 51.1111 48.7497C48.6744 48.7242 47.1143 48.6054 47.6445 48.4862C48.1752 48.3671 49.047 47.5911 49.5828 46.7612C50.5151 45.3159 50.5109 45.2696 49.4766 45.6578C47.3863 46.4436 53.6023 41.3984 56.4436 40.004C59.4731 38.5166 66.6921 36.6158 68.9451 36.7118C69.7016 36.7438 69.2805 36.9718 67.9687 37.241ZM79.1733 41.0836C79.2221 43.1551 79.0115 44.7044 78.6815 44.7061C78.0001 44.7097 77.9796 42.9901 78.623 39.7833C79.0673 37.5673 79.0918 37.6257 79.1733 41.0836ZM67.1183 40.1327C65.6934 40.7419 64.1382 41.2417 63.6622 41.2442C63.1862 41.2467 63.9626 40.7509 65.3874 40.1417C66.8122 39.5325 68.3675 39.0327 68.8434 39.0302C69.3194 39.0278 68.5431 39.5235 67.1183 40.1327ZM61.6373 40.1878C60.0539 40.8181 58.4987 41.3208 58.1813 41.3045C57.3139 41.2616 62.6504 39.063 63.6508 39.052C64.1268 39.0466 63.2207 39.5576 61.6373 40.1878ZM38.6967 41.2668C40.2948 41.5684 42.3335 44.0576 42.3247 45.6973C42.3183 46.8997 42.2992 46.8975 41.278 45.5794C40.3457 44.376 40.1597 44.3318 39.4872 45.1543C38.985 45.7685 38.9508 46.071 39.3841 46.0688C39.7401 46.0669 40.0328 46.3261 40.0344 46.6446C40.0361 46.9632 39.6595 47.2257 39.198 47.2281C38.6972 47.2308 38.2031 46.4242 37.9736 45.2282C37.7613 44.1254 37.2272 42.9257 36.7856 42.562C36.0179 41.9295 36.1763 40.787 37.0097 40.9472C37.2292 40.9895 37.9887 41.1332 38.6967 41.2668ZM35.9867 43.4888C36.5888 44.2097 36.5034 44.5507 35.5006 45.4328C34.8321 46.0212 34.417 46.6338 34.5782 46.794C34.74 46.9542 34.4695 47.4242 33.9778 47.838C32.5514 49.0397 28.4973 47.6475 28.5001 45.9574C28.5022 44.9183 28.6085 44.8408 29.0662 45.5433C29.556 46.2954 29.6303 46.2846 29.6341 45.4598C29.636 44.9379 29.9621 44.521 30.3592 44.5339C32.7378 44.6102 33.2437 44.3672 32.5174 43.4981C31.902 42.7617 32.0525 42.6318 33.5255 42.6241C34.4775 42.6192 35.585 43.0084 35.9867 43.4888ZM80.9605 47.9279C80.9363 48.6028 80.8003 48.7407 80.6139 48.2801C80.445 47.8628 80.4631 47.3629 80.6537 47.1696C80.8442 46.9763 80.9822 47.3173 80.9605 47.9279ZM45.2391 48.9343C46.2031 49.2386 45.0517 49.3992 41.7798 49.4162C38.5078 49.4332 37.3548 49.2846 38.3156 48.9703C39.1076 48.7113 40.6643 48.4942 41.7749 48.4884C42.8856 48.4826 44.4444 48.6836 45.2391 48.9343ZM53.4067 50.59C50.7552 51.8693 45.1885 52.1919 42.3662 51.2295C41.2841 50.8604 41.6455 50.7844 43.807 50.9266C46.4851 51.1033 49.987 50.7121 54.1865 49.7676C55.5368 49.464 55.3663 49.6439 53.4067 50.59ZM118.674 51.8475C119.23 51.9906 119.687 52.5911 119.691 53.1831C119.697 54.3489 119.571 54.3316 113.917 52.3924C111.361 51.516 113.012 51.5271 116.17 52.4073C117.15 52.6808 117.438 52.5976 117.145 52.1271C116.717 51.4395 116.931 51.4002 118.674 51.8475ZM52.8675 52.7654C52.4524 52.9349 51.9544 52.9166 51.7618 52.7254C51.5693 52.5341 51.909 52.3956 52.5172 52.4174C53.1895 52.4417 53.327 52.5782 52.8675 52.7654ZM49.2989 52.9855C49.3007 53.3145 48.9001 53.7405 48.4084 53.9325C47.7675 54.1837 47.6169 54.7353 47.8757 55.8894C48.0771 56.7873 47.9674 57.6647 47.6275 57.8785C47.2876 58.0916 46.9999 57.7972 46.9767 57.2129C46.9443 56.412 46.8062 56.4921 46.3888 57.5554C46.0887 58.3203 45.7111 58.814 45.5498 58.6538C45.388 58.4931 45.5193 57.656 45.8408 56.7931C46.1623 55.9302 46.4224 54.5891 46.4184 53.8136C46.4126 52.6952 46.7099 52.4018 47.8535 52.3958C48.6468 52.3917 49.2972 52.6571 49.2989 52.9855ZM45.8369 52.9513C45.8385 53.2514 45.581 53.6587 45.2647 53.8573C44.9484 54.0559 44.6956 55.3673 44.7029 56.7724C44.7142 58.9559 44.5693 59.2746 43.7046 58.9698C41.4734 58.1844 41.1609 57.5715 42.1727 55.9636C43.8305 53.3284 45.8303 51.6841 45.8369 52.9513ZM28.761 54.5223C28.2972 56.6544 27.9696 57.1183 27.9734 55.6367C27.9754 55.0262 28.2379 54.134 28.558 53.6546C28.9822 53.0181 29.0371 53.2518 28.761 54.5223ZM64.0203 54.6286C63.8258 54.9481 63.1475 55.2123 62.5128 55.2156C61.8782 55.2189 61.5179 54.9601 61.7125 54.6405C61.907 54.321 62.5853 54.0568 63.2199 54.0535C63.8546 54.0502 64.2148 54.309 64.0203 54.6286ZM33.8508 57.8076C33.5449 58.1179 32.8118 58.2723 32.222 58.1497C31.4279 57.9853 31.5725 57.8386 32.7788 57.5856C33.8306 57.3641 34.2101 57.4432 33.8508 57.8076ZM77.2329 60.0622C76.4924 63.4456 75.8881 64.8486 76.2336 62.3841C76.4127 61.109 76.7964 59.6735 77.0865 59.1941C77.4394 58.6108 77.4882 58.8978 77.2329 60.0622ZM46.5069 60.0771C45.7012 61.1435 46.1082 61.4015 48.1295 61.1054C48.7631 61.0129 48.7421 61.1845 48.0304 61.9064C47.0128 62.938 46.2044 63.1455 46.7605 62.2315C46.9956 61.8457 46.4533 61.757 45.2238 61.9806C44.1793 62.1714 43.4458 62.2476 43.5942 62.1501C43.7431 62.0526 44.6319 61.3176 45.5705 60.5164C46.5085 59.7151 46.9298 59.5172 46.5069 60.0771ZM50.8293 64.2352C51.2949 65.3373 51.6522 66.7041 51.6234 67.2718C51.5879 67.9839 51.4257 67.8555 51.102 66.8587C50.6517 65.4721 50.6303 65.4659 50.582 66.7166C50.554 67.4338 50.2778 68.0214 49.9685 68.023C49.6027 68.0249 49.6 67.5048 49.9608 66.5374C50.2658 65.7186 50.4932 64.7403 50.4665 64.3628C50.4397 63.9853 50.1603 64.3951 49.8463 65.2725C49.5318 66.1498 49.0371 66.8694 48.7463 66.8709C48.0268 66.8747 48.0751 66.5101 49.0478 64.5972C49.5064 63.6953 49.7181 62.7954 49.518 62.5966C49.3185 62.3978 49.3413 62.2343 49.5686 62.2332C49.7965 62.232 50.3637 63.1331 50.8293 64.2352ZM41.2741 63.1236C41.2762 63.5401 40.5909 64.3377 39.7514 64.8958C38.3203 65.8484 38.2482 65.8494 38.5999 64.9162C39.153 63.4451 38.4521 62.6871 37.3303 63.5438C36.5269 64.1573 36.4888 64.1447 37.0887 63.4616C38.0374 62.3817 41.2688 62.1205 41.2741 63.1236ZM40.3456 63.5455C40.1802 63.8168 39.8027 63.8906 39.5064 63.7085C38.7493 63.2445 38.8331 63.061 39.8059 63.056C40.268 63.0536 40.5109 63.2741 40.3456 63.5455ZM48.2082 65.1362C48.2098 65.4547 47.6764 65.7181 47.0232 65.7215C46.3701 65.7249 45.9943 65.4662 46.1888 65.1467C46.3833 64.8271 46.9162 64.5637 47.3738 64.5613C47.8313 64.5589 48.2065 64.8176 48.2082 65.1362ZM75.7672 67.0201C75.7675 68.2943 75.6516 68.7478 75.51 68.028C75.3683 67.3083 75.3681 66.2657 75.5094 65.7113C75.6508 65.1568 75.767 65.7458 75.7672 67.0201ZM43.3101 66.32C43.5079 66.6375 44.3153 66.894 45.1051 66.8899C46.5233 66.8825 46.528 66.8993 45.511 68.2761C44.9449 69.0424 44.3136 69.5687 44.1081 69.4452C43.9026 69.3218 43.5976 69.5846 43.4297 70.0297C42.9432 71.3227 38.4993 71.8711 37.3956 70.774C36.5639 69.9484 36.5814 69.7548 37.5893 68.6254C38.7359 67.34 41.3795 65.7509 42.3787 65.7457C42.6932 65.744 43.1122 66.0025 43.3101 66.32ZM25.145 68.152C25.1466 68.4706 25.8624 68.7489 26.7349 68.7699L28.3217 68.8085L26.6484 69.5609C25.5052 70.0742 25.2329 70.4133 25.7885 70.6305C26.6667 70.974 24.0499 71.2576 21.6983 71.074C20.2317 70.9588 18.8085 70.1189 18.8046 69.3654C18.801 68.6767 21.6208 67.5912 23.4382 67.5817C24.3752 67.5768 25.1433 67.8335 25.145 68.152ZM49.3798 69.6507C49.0282 70.3869 48.8535 71.3 48.9911 71.6798C49.3698 72.7245 47.7731 75.5638 46.805 75.5689C46.3371 75.5713 45.9566 75.9643 45.9591 76.4421C45.9678 78.113 44.3163 77.3014 43.6487 75.3073C42.966 73.2651 43.2654 71.8197 44.2471 72.4215C44.5434 72.603 44.7922 72.4106 44.8005 71.9935C44.81 71.4966 45.0851 71.5895 45.5998 72.2633C46.3289 73.2175 46.4129 73.1777 46.7722 71.7082C47.0756 70.4689 47.275 70.3068 47.6921 70.9609C47.9853 71.4204 48.2275 71.5211 48.231 71.1834C48.2338 70.8463 48.6377 70.0623 49.1278 69.4411C49.9795 68.3623 49.9911 68.3715 49.3798 69.6507ZM36.4892 70.1167C36.5427 70.9696 36.3373 71.4114 35.9871 71.1966C35.6583 70.9951 35.514 71.191 35.6623 71.6368C35.81 72.0785 36.6246 72.5185 37.4733 72.6149C38.3219 72.7112 39.0178 73.0494 39.0194 73.365C39.0211 73.6812 38.7619 73.7805 38.4436 73.5852C37.7588 73.1654 37.7618 73.7324 38.4526 75.3227L38.9542 76.4785L39.0065 75.3198C39.0541 74.2574 39.1076 74.2443 39.6484 75.1653C40.5472 76.6955 39.1747 80.9365 37.9091 80.54C36.6366 80.1423 30.0637 84.4793 29.5803 86.0363C29.3709 86.711 28.713 87.2467 28.0905 87.25C26.8183 87.2566 26.6564 86.6475 27.6591 85.6305C28.12 85.163 28.139 84.933 27.7173 84.9352C27.1161 84.9383 26.3928 86.2168 26.3983 87.2657C26.3997 87.5362 26.9852 87.8378 27.7 87.9354C28.6856 88.0711 29.0441 88.554 29.1851 89.9369C29.4125 92.1662 27.9914 95.8225 26.7016 96.3273C25.7734 96.6906 24.6915 95.6769 24.7593 94.5072C24.7778 94.1885 24.9258 94.2532 25.0877 94.6502C25.2502 95.0479 25.8155 95.3496 26.3438 95.3219C26.9437 95.2904 27.0336 95.1626 26.5827 94.983C26.1849 94.8241 25.853 94.1296 25.8448 93.4399C25.8319 92.4171 25.7266 92.3464 25.2745 93.0565C24.8344 93.7486 24.7167 93.7631 24.7065 93.1278C24.6996 92.6877 25.6301 91.4318 26.7749 90.3369C28.6924 88.5019 28.7419 88.3754 27.4063 88.7195C24.6763 89.4223 24.5899 86.4498 27.2553 83.533C28.0648 82.6461 28.5226 82.0211 28.2716 82.1435C28.0207 82.2652 27.1224 82.7194 26.2754 83.1524C24.0104 84.3098 21.7634 83.5917 21.7536 81.7076C21.7478 80.591 21.9748 80.2956 22.6431 80.5493C23.1576 80.7441 23.3884 80.6456 23.1848 80.3188C22.98 79.9898 23.5782 79.744 24.5942 79.7387C25.5646 79.7336 26.3605 79.9901 26.3621 80.3087C26.3663 81.1085 30.7762 81.0155 32.3135 80.1833C33.0045 79.8091 33.8582 79.1061 34.2106 78.6207C34.764 77.859 34.9477 77.9172 35.5577 79.0475C35.9463 79.7677 36.3774 80.2421 36.5152 80.1018C36.6529 79.9621 36.3692 79.0942 35.8849 78.1735C35.4007 77.2522 34.9981 75.6158 34.9901 74.5356C34.9825 73.3964 34.5821 72.2859 34.0365 71.8902C32.7149 70.9304 33.485 68.6879 35.1391 68.6798C36.0744 68.675 36.4219 69.045 36.4892 70.1167ZM28.168 73.6386C27.8794 74.2772 27.501 75.1914 27.3269 75.6701C27.0539 76.4222 27.0037 76.4178 26.9604 75.6379C26.933 75.1417 27.3114 74.2275 27.8014 73.6063C28.6784 72.4955 28.6848 72.4961 28.168 73.6386ZM31.5214 73.8766C31.523 74.1766 31.2683 74.5822 30.9555 74.7784C30.63 74.9829 30.5319 74.7511 30.7259 74.2346C31.1044 73.2295 31.5171 73.0437 31.5214 73.8766ZM75.7631 79.7622C75.7802 83.2663 75.692 84.6255 75.5676 82.7826C75.4432 80.9402 75.4295 78.0733 75.5368 76.4117C75.6441 74.7506 75.746 76.2582 75.7631 79.7622ZM70.9762 74.597C71.1768 75.1132 71.3188 76.2314 71.2915 77.0818C71.2512 78.325 71.1357 78.186 70.7016 76.3708C70.1478 74.0563 70.3242 72.9173 70.9762 74.597ZM37.2504 74.7978C37.2262 75.4727 37.0901 75.6107 36.9037 75.1501C36.7348 74.7328 36.753 74.2328 36.9435 74.0395C37.1341 73.8463 37.272 74.1873 37.2504 74.7978ZM51.5895 75.0731C51.3067 75.9405 49.9978 76.424 49.9938 75.6624C49.9922 75.3513 50.4014 74.9368 50.903 74.7402C51.4632 74.5212 51.7281 74.649 51.5895 75.0731ZM45.9738 79.276C45.9745 79.4011 45.5731 79.6609 45.0813 79.8534C44.5689 80.0536 44.337 79.9575 44.5372 79.6286C44.8731 79.0761 45.9714 78.8068 45.9738 79.276ZM20.5826 82.312C20.9283 83.2114 21.7618 83.8425 22.9384 84.0953L24.7585 84.4866L23.2023 86.1344C21.2238 88.2292 18.845 88.2282 18.2513 86.1323C17.8757 84.8044 17.8416 84.7919 17.7947 85.9673C17.766 86.6723 18.3163 87.6361 19.0308 88.1328C20.0471 88.84 20.1156 89.029 19.3563 89.0329C18.1603 89.0392 16.5878 86.887 16.5792 85.2317C16.5723 83.9031 18.5878 80.9283 19.4976 80.9236C19.7999 80.922 20.2879 81.5467 20.5826 82.312ZM52.1718 81.7435C52.6619 81.917 52.5316 82.3701 51.7467 83.2244C49.9602 85.1699 50.3691 87.8124 52.5109 88.1621C53.35 88.299 53.5192 87.8806 53.5078 85.6953C53.495 83.2257 54.1221 82.323 54.9395 83.6352C55.1374 83.9528 55.002 84.2141 54.6391 84.216C54.1913 84.2183 54.0471 85.4307 54.1919 87.9842C54.3088 90.0548 54.1849 91.7495 53.9166 91.7504C52.8314 91.7531 50.078 89.3093 49.1989 87.5624C48.5354 86.2453 48.375 85.0224 48.6498 83.3807C48.8636 82.1042 49.1523 81.3827 49.2917 81.7776C49.458 82.2476 49.8767 82.3225 50.5062 81.9943C51.0344 81.7187 51.7839 81.6059 52.1718 81.7435ZM37.3329 81.907C37.3346 82.2278 36.825 82.6562 36.2001 82.8587C34.7975 83.3137 31.033 87.6911 30.9772 88.932C30.9549 89.4319 30.6642 89.1033 30.3318 88.2015C29.911 87.0615 29.9115 86.3735 30.3333 85.9456C30.7592 85.5136 30.8486 85.7436 30.635 86.7189C30.422 87.6902 30.6472 87.4973 31.3852 86.0774C32.4015 84.1219 37.3265 80.6681 37.3329 81.907ZM23.4864 82.0612C24.2285 82.5369 24.2082 82.6204 23.3451 82.6324C22.7895 82.64 22.3341 82.3857 22.3325 82.0672C22.3288 81.3606 22.394 81.3603 23.4864 82.0612ZM14.105 83.0905C13.5444 83.2406 12.7654 83.2348 12.374 83.0781C11.9826 82.9215 12.4412 82.7992 13.3932 82.8058C14.3453 82.8124 14.6656 82.9405 14.105 83.0905ZM35.9004 84.2671C35.5494 84.8817 35.6734 84.9963 36.3874 84.7169C37.9392 84.1099 37.4874 85.2151 35.8792 85.9607C35.07 86.3356 34.5669 86.8983 34.7618 87.2112C34.9701 87.5455 34.7132 87.6268 34.1374 87.4085C33.2407 87.0685 33.2495 86.97 34.2455 86.231C34.8427 85.7877 35.3306 85.1973 35.3292 84.9187C35.3277 84.6407 35.562 84.1947 35.8491 83.9274C36.1591 83.6396 36.18 83.778 35.9004 84.2671ZM49.9533 85.3987C49.9574 86.1951 49.8281 86.5219 49.6663 86.1242C49.5038 85.7272 49.5004 85.0756 49.6587 84.6763C49.8165 84.2776 49.9491 84.6024 49.9533 85.3987ZM24.7652 87.5568C24.8219 88.3529 24.8927 89.4345 24.922 89.9597C24.9812 91.0297 22.6558 91.6656 22.0775 90.7378C21.7534 90.2171 23.8306 86.1137 24.4202 86.1107C24.5529 86.11 24.708 86.7608 24.7652 87.5568ZM47.9963 88.3049C47.6367 89.7252 45.0589 92.9536 44.2811 92.9577C43.774 92.9603 42.3002 87.819 42.6939 87.4202C42.8575 87.2543 43.1668 88.0328 43.382 89.1501C43.5967 90.268 43.9604 91.2977 44.1907 91.4384C44.839 91.8364 46.3259 90.5179 47.3937 88.5976C48.2506 87.0577 48.3202 87.0237 47.9963 88.3049ZM16.7899 88.3623C17.6957 89.3567 17.5804 89.4806 14.5752 90.7496C11.1883 92.1799 9.65011 92.0697 9.74934 90.404C9.80721 89.4371 9.82797 89.4358 10.0798 90.3843C10.4117 91.6308 10.8781 91.6521 12.3133 90.4857C13.3842 89.6148 13.3772 89.6044 12.1336 90.2173C11.0148 90.7687 10.8379 90.699 10.8327 89.7039C10.8284 88.867 11.4161 88.385 12.9872 87.9384C15.7704 87.1466 15.6717 87.1356 16.7899 88.3623ZM72.517 88.515C72.4928 89.1899 72.3568 89.3279 72.1703 88.8672C72.0014 88.45 72.0196 87.95 72.2101 87.7567C72.4007 87.5634 72.5386 87.9045 72.517 88.515ZM37.0677 89.0503C36.8663 89.5894 36.9777 90.5011 37.3148 91.0762C37.6519 91.6513 37.9343 91.8265 37.9423 91.4656C37.9496 91.1042 38.4747 90.67 39.1085 90.4999C39.9428 90.2766 40.2623 90.4765 40.2662 91.2242C40.2732 92.5679 38.8036 93.7878 37.6885 93.3644C37.2075 93.1821 36.815 93.267 36.8165 93.5537C36.818 93.8398 37.4036 94.1738 38.1185 94.2958C39.3284 94.5015 39.343 94.5506 38.3271 95.0083C36.0395 96.0384 34.7635 90.7553 36.8045 88.7024C37.2591 88.2454 37.3317 88.3423 37.0677 89.0503ZM19.6775 90.3344C19.428 90.7342 19.2206 91.2346 19.2165 91.4472C19.213 91.6592 18.9745 92.0514 18.6874 92.3187C18.3767 92.6064 18.3551 92.4496 18.6334 91.9327C18.9117 91.4157 18.8901 91.2589 18.5795 91.5472C18.2924 91.814 18.034 92.5972 18.0064 93.2877C17.8965 96.0111 17.7316 96.3565 16.0641 97.3568C14.0918 98.5405 13.1839 98.244 13.1778 96.4156C13.1704 94.3299 15.2811 91.4607 17.5246 90.5055C20.072 89.4213 20.2578 89.407 19.6775 90.3344ZM20.9468 96.9885C20.6791 98.4309 20.798 98.8717 21.4545 98.8683C22.6436 98.8621 22.0244 101.05 20.62 101.814C18.1046 103.182 17.695 100.867 19.8442 97.4287L21.2971 95.1043L20.9468 96.9885ZM14.5798 96.1778C14.3658 96.7499 14.045 97.0731 13.8663 96.8956C13.6877 96.7187 13.8624 96.2504 14.255 95.8551C14.8221 95.2845 14.8882 95.3508 14.5798 96.1778ZM24.4047 97.3343C24.2329 98.252 24.2615 99.7572 24.4682 100.679C24.7813 102.075 25.1005 102.326 26.3807 102.187C27.4711 102.069 28.0208 101.599 28.2745 100.57C28.6034 99.2342 28.6376 99.2641 28.7093 100.955C28.8283 103.769 28.2899 104.625 26.3928 104.634C25.4045 104.64 24.8403 104.886 25.0492 105.221C25.5961 106.099 24.9588 105.913 23.9345 104.896C22.7868 103.755 22.7597 99.7569 23.8841 97.4077L24.7174 95.6658L24.4047 97.3343ZM6.22118 99.2851C6.197 99.96 6.06097 100.098 5.87452 99.6373C5.70561 99.22 5.72378 98.7201 5.91433 98.5268C6.10488 98.3335 6.24282 98.6745 6.22118 99.2851ZM15.4976 99.1419C15.4987 99.3539 14.9671 100.105 14.3165 100.812C13.2207 102.003 13.1636 102.012 13.5365 100.937C13.8759 99.9595 13.8133 99.8972 13.1375 100.543C12.4543 101.197 12.4977 101.429 13.4313 102.113C14.0337 102.555 14.7652 102.995 15.0559 103.091C15.9807 103.395 14.944 105.091 13.3934 105.809C11.2263 106.815 10.5552 105.896 11.3851 103.062C11.9662 101.077 13.7638 98.6007 13.77 99.777C13.7712 100.014 14.16 99.8821 14.6339 99.4829C15.1078 99.0837 15.4965 98.9305 15.4976 99.1419ZM20.4305 105.1C20.1525 106.556 20.1751 106.58 20.6911 105.388C21.4607 103.609 21.9737 103.723 21.3022 105.525C21.0057 106.32 20.9065 107.428 21.0808 107.987C21.2556 108.547 20.9967 108.355 20.5062 107.561C19.4856 105.911 19.2735 103.513 20.147 103.509C20.4793 103.507 20.6029 104.198 20.4305 105.1ZM17.2532 105.551C17.2773 106.424 17.4064 106.515 17.7772 105.92C18.0673 105.456 18.413 105.363 18.619 105.694C18.8116 106.003 18.4639 106.72 17.8461 107.286C16.8458 108.205 16.6849 108.218 16.3696 107.407C16.1755 106.906 16.2874 106.023 16.6185 105.445C17.1851 104.455 17.2227 104.461 17.2532 105.551ZM8.14916 107.336C7.96341 109.007 8.11298 109.367 8.99696 109.377C10.0217 109.389 10.0202 109.428 8.95417 110.246C6.37041 112.229 4.98514 110.462 6.6541 107.312C8.00138 104.769 8.43356 104.775 8.14916 107.336ZM19.5364 107.904C19.5122 108.579 19.3761 108.717 19.1897 108.256C19.0208 107.839 19.0389 107.339 19.2295 107.145C19.42 106.952 19.558 107.293 19.5364 107.904ZM14.3738 108.825C14.406 109.358 12.7093 113.393 12.4526 113.395C12.332 113.395 12.0766 112.992 11.8848 112.499C11.6573 111.913 11.7695 111.744 12.2071 112.013C12.6707 112.297 12.7475 112.088 12.4551 111.336C12.223 110.737 12.2283 110.442 12.4679 110.679C12.7074 110.917 13.2292 110.516 13.6276 109.787C14.0253 109.058 14.3612 108.626 14.3738 108.825ZM10.4805 112.51C10.6426 113.843 10.5323 114.365 10.1646 113.999C9.79685 113.634 9.34114 113.654 8.86377 114.056C7.72003 115.019 6.80045 114.153 7.51804 112.79C7.84942 112.161 8.37374 111.803 8.68399 111.993C8.99423 112.184 9.17517 112.027 9.08606 111.645C8.99696 111.264 9.21805 110.841 9.57737 110.705C9.96376 110.559 10.3334 111.297 10.4805 112.51ZM14.4874 114.253C14.6829 114.571 15.0293 115.611 15.2581 116.566C15.6427 118.174 15.6032 118.233 14.7148 117.367C14.1882 116.853 13.8412 115.812 13.9446 115.054C14.048 114.296 14.2919 113.935 14.4874 114.253ZM13.232 116.045C13.2078 116.72 13.0718 116.858 12.8853 116.397C12.7164 115.98 12.7346 115.48 12.9251 115.287C13.1157 115.094 13.2536 115.435 13.232 116.045ZM9.34404 115.544C8.92893 115.714 8.43091 115.695 8.23836 115.504C8.04581 115.313 8.3855 115.174 8.99374 115.196C9.66604 115.22 9.80349 115.357 9.34404 115.544ZM4.98931 120.474C5.21796 120.84 5.15641 120.988 4.85253 120.801C4.54865 120.615 3.99595 120.956 3.62521 121.56C3.17266 122.296 3.14632 122.778 3.54512 123.023C3.94277 123.266 3.9177 123.66 3.46878 124.208C1.79008 126.261 1.20668 124.358 2.64708 121.525C3.57003 119.711 4.30799 119.379 4.98931 120.474ZM4.88313 122.025C5.0478 122.29 4.8164 122.509 4.36811 122.511C3.91981 122.513 3.68618 122.297 3.84807 122.031C4.00997 121.765 4.24193 121.546 4.36309 121.546C4.48425 121.545 4.71848 121.761 4.88313 122.025Z" fill="#B6BE9A"></path></svg> 