<?xml version="1.0" encoding="UTF-8"?> <svg xmlns="http://www.w3.org/2000/svg" width="120" height="125" viewBox="0 0 120 125" fill="none"><path fill-rule="evenodd" clip-rule="evenodd" d="M0.707358 0.808368C1.25547 1.38408 1.86186 1.69626 2.05515 1.50165C2.24843 1.30763 1.80013 0.836748 1.05931 0.455067C-0.229055 -0.208096 -0.244633 -0.192458 0.707358 0.808368ZM4.68553 1.05626C3.61295 1.31052 2.5421 1.83294 2.30555 2.21752C1.99745 2.71735 1.76263 2.73415 1.48049 2.27544C0.915065 1.35685 0 1.48427 0 2.48162C0 2.94728 1.623 4.42246 3.60603 5.75921C7.12609 8.13154 13.531 13.3691 19.3283 18.6165C21.8589 20.9066 22.1254 21.3583 21.4977 22.2908C19.4979 25.2632 18.3509 28.1249 17.5305 32.1896C15.9167 40.1823 12.4861 43.9458 6.05812 44.7752C0.91045 45.4395 0 45.7193 0 46.6361C0 47.392 0.816982 47.4922 5.36173 47.2923C11.946 47.0033 13.7162 46.0975 16.931 41.3725C18.8563 38.5426 19.2723 37.4225 19.401 34.716L19.5562 31.4621L19.0629 34.581C17.9909 41.3621 12.2559 46.8105 6.19025 46.8105C2.77289 46.8105 3.04118 45.9469 6.61143 45.4558C12.3793 44.6617 16.2231 40.7319 17.6038 34.2167C18.1271 31.7459 18.7738 29.073 19.0404 28.2766C19.4685 26.999 19.532 27.1015 19.5799 29.1454C19.6202 30.865 19.7789 31.238 20.1937 30.5934C20.5013 30.1155 20.7776 29.073 20.8076 28.2766C20.8855 26.1956 21.3252 27.5961 21.9252 31.8375L22.4456 35.5164L22.2524 31.6145C22.1456 29.468 22.2662 27.8411 22.5195 27.9981C22.7728 28.155 23.1288 27.9564 23.3099 27.5561C23.4917 27.1559 23.483 29.0441 23.2909 31.7517C23.0388 35.3039 22.5478 37.4573 21.5283 39.4844C20.7511 41.0296 20.4193 42.1052 20.7915 41.8747C21.1636 41.6436 21.9546 40.3792 22.5489 39.0651C23.1438 37.7503 23.6336 37.0657 23.6371 37.5436C23.6492 38.9909 20.8249 44.5957 20.2607 44.2459C19.971 44.0663 18.9013 44.6999 17.8836 45.6544C15.9138 47.5014 16.1111 48.0812 18.1288 46.3761L19.3283 45.3625L18.1969 46.7016C17.523 47.4991 16.6483 47.9306 16.0327 47.769C15.4644 47.6196 15.1182 47.6908 15.2636 47.9266C15.409 48.1629 14.0981 48.9505 12.3505 49.6774C10.6034 50.4049 9.26547 51.0918 9.37798 51.2047C9.80839 51.6368 18.2384 47.8385 19.5274 46.6315C21.0667 45.1905 22.4964 42.5691 24.2071 38.0503C25.5324 34.5509 25.7563 32.8539 24.5418 35.5164C23.5044 37.7914 23.4565 36.7205 24.4656 33.8096C25.0974 31.9875 25.3241 31.7523 25.5826 32.6512C25.7609 33.2715 25.8157 32.0848 25.7038 30.0142C25.5918 27.9436 25.3074 25.6333 25.0708 24.8809C24.6895 23.6669 24.7645 23.5789 25.7349 24.1048C26.8496 24.7089 30.8595 28.5043 32.1658 30.192C32.5627 30.7046 32.887 31.7865 32.887 32.5962C32.887 33.4059 33.1356 34.0685 33.4397 34.0685C33.7438 34.0685 33.9232 33.1887 33.839 32.1131L33.6855 30.1578L36.489 32.2579C38.6745 33.8953 39.2157 34.6135 38.9445 35.5164C38.7535 36.1535 38.4939 38.8902 38.3681 41.5978L38.1385 46.5209L38.8735 42.177L39.6092 37.8331L39.4874 43.9146C39.3507 50.7674 39.653 53.1635 40.4989 51.9333C40.8577 51.4115 40.9281 51.7283 40.7118 52.8919C40.5346 53.8475 40.6166 54.9833 40.8935 55.4154C41.3424 56.1156 41.3181 52.3573 40.8566 49.7064C40.6477 48.5057 42.2078 42.177 42.7127 42.177C42.9383 42.177 42.8973 43.3933 42.6204 44.8795C41.9782 48.3314 42.4253 48.8891 43.1662 45.5594L43.7258 43.0458L43.7875 45.8299C43.8724 49.6415 44.8394 53.5348 46.497 56.7347C48.0075 59.6509 48.2031 60.3957 47.3128 59.8432C46.9545 59.6208 46.973 60.0998 47.3607 61.1122C47.7034 62.0064 48.1938 63.7805 48.45 65.0547C48.8787 67.1878 48.9248 67.2336 49.0362 65.6339C49.1556 63.9149 49.162 63.912 49.6189 65.3443C50.5103 68.1383 50.2778 72.1908 49.1914 72.8012C48.1102 73.4088 48.0986 73.6683 48.6583 84.7469C48.9445 90.4055 48.941 90.4281 48.4956 85.721C48.2452 83.0713 47.7461 80.608 47.3872 80.2478C46.6101 79.4676 46.5264 80.2344 46.6112 87.3532C46.6781 92.9788 45.8138 91.2783 45.5808 85.326L45.4446 81.851L44.9397 84.7469C44.3714 88.0065 45.38 96.2042 46.3106 95.8932C46.6222 95.789 47.5119 94.5414 48.2884 93.1212C49.5918 90.7385 49.6824 90.0684 49.4585 84.4573C49.3045 80.6011 49.4931 77.21 49.9738 75.1904C51.3833 69.2677 50.6384 64.2039 47.3243 57.1697C45.5508 53.4044 44.6755 49.8228 44.2618 44.6403L44.0189 41.6013L45.7152 43.9163C47.4628 46.3019 48.465 46.8464 48.465 45.41C48.465 44.1613 47.8165 42.7324 47.3745 43.0064C47.1582 43.1408 46.9816 42.7776 46.9816 42.1996C46.9816 41.2729 47.213 41.3262 48.941 42.649C51.2229 44.3964 55.9678 50.0834 55.9603 51.0628C55.958 51.4317 54.4175 52.2148 52.5384 52.8027C50.1572 53.5475 49.2122 54.111 49.4216 54.659C49.6564 55.2735 49.9864 55.1993 50.9257 54.3213C51.9695 53.3448 53.4713 52.8826 57.1195 52.414C57.6087 52.3509 58.0841 51.5499 58.2134 50.5699C58.4413 48.844 58.4442 48.8434 58.8775 50.2856L59.3125 51.7335L59.3696 50.1408C59.4048 49.1735 59.751 48.548 60.2518 48.548C61.475 48.548 62.8885 50.1929 62.5118 51.1787C62.0969 52.2629 63.4084 53.9072 64.3869 53.5301C64.7914 53.3743 65.2189 53.5365 65.3366 53.8915C65.4843 54.3358 66.1005 54.2611 67.3156 53.6529C68.9311 52.8432 69.1953 52.8565 70.4473 53.8047C71.1997 54.374 71.6411 55.014 71.4288 55.2271C70.7474 55.9117 64.1377 55.6783 62.2758 54.9039C60.767 54.2767 60.3909 54.2877 59.9604 54.9711C59.2502 56.0988 59.6062 56.9091 60.9176 57.1471C61.8113 57.3099 61.8852 57.2039 61.3025 56.5969C60.2512 55.5022 60.4191 54.985 61.7144 55.325C62.3381 55.4883 62.8262 55.7901 62.8003 55.9945C62.7737 56.1996 62.7997 56.4973 62.8574 56.6566C62.9156 56.8158 63.0472 57.8074 63.1499 58.8603C63.372 61.1342 63.694 61.5483 64.8837 61.0902C66.2211 60.5747 65.958 59.0897 64.2473 57.4975C63.4078 56.7168 63.038 56.0774 63.4263 56.0774C63.8146 56.0774 64.8433 56.7944 65.7128 57.6701C67.0842 59.0526 67.2746 59.6631 67.1517 62.292C66.9856 65.8487 66.6751 66.5026 65.1543 66.5026C63.7996 66.5026 61.7369 63.3473 61.7461 61.29C61.7513 60.1426 61.869 60.0228 62.3121 60.7108C62.8095 61.4829 62.8712 61.4829 62.8712 60.7108C62.8712 60.233 62.6104 59.4511 62.2914 58.9733C61.7952 58.229 61.5546 58.2922 60.6188 59.4111C59.8589 60.3187 59.4319 60.4954 59.2185 59.9903C59.05 59.5901 59.0488 60.4357 59.2161 61.8692C59.3892 63.3502 59.3108 64.1819 59.0344 63.7955C58.6946 63.32 58.3582 63.5187 57.918 64.4558C57.262 65.8511 57.7605 66.1036 59.2831 65.1491C59.6841 64.8977 60.0043 64.9603 60.0043 65.2898C60.0043 66.9029 55.7388 67.6743 55.1618 66.1656C54.0056 63.1411 55.3309 58.9733 57.4489 58.9733C57.9024 58.9733 58.2694 58.7775 58.2647 58.5389C58.2417 57.4002 57.1685 56.9473 54.5231 56.9583C52.9365 56.9647 51.314 56.7371 50.9171 56.4527C50.459 56.1243 50.1959 56.1793 50.1959 56.6038C50.1959 56.9716 50.59 57.424 51.0717 57.6093C51.5529 57.7946 51.8777 58.364 51.7929 58.8737C51.7018 59.4198 52.112 59.8809 52.7922 59.9973C53.7425 60.1589 53.7933 60.0876 53.0807 59.5924C52.6047 59.2617 52.4749 58.9912 52.7922 58.9912C54.1296 58.9912 54.5243 60.0563 54.5491 63.7295C54.5635 65.8673 54.7106 67.7525 54.8756 67.9187C55.1682 68.2118 57.4287 67.6627 59.6645 66.7546C60.5911 66.3787 60.7145 66.5078 60.4393 67.5631C60.0245 69.157 60.8374 69.1854 61.9325 67.6158C62.7454 66.4511 62.8349 66.4441 64.706 67.3998C67.2533 68.7012 67.1765 68.5564 66.1213 70.0692C65.613 70.7979 65.2085 71.7917 65.2229 72.2788C65.2373 72.7653 65.5772 72.39 65.9787 71.4454C66.5263 70.1567 66.7946 69.9528 67.0536 70.6293C67.2429 71.1251 67.1661 71.8983 66.8834 72.3472C66.6001 72.796 66.3647 74.1218 66.3595 75.2929C66.3532 76.9019 65.9764 77.7191 64.8202 78.6313C63.9784 79.2962 63.1355 79.6848 62.9462 79.4948C62.6208 79.1682 64.1988 77.7446 65.2922 77.3785C65.572 77.2853 65.6349 76.3748 65.4318 75.3566C65.1093 73.7355 64.9581 73.6098 64.2236 74.3477C63.7615 74.811 62.8828 75.1904 62.2712 75.1904C61.0884 75.1904 60.7341 76.1101 61.7813 76.4605C62.2175 76.6065 62.1956 77.13 61.7092 78.2015C60.8593 80.074 61.4669 85.2229 62.4968 84.8783C62.8712 84.7527 63.1776 83.8381 63.1776 82.8454C63.1776 80.6984 64.3015 79.2724 65.2454 80.22C65.9378 80.915 68.0818 80.564 68.0818 79.7561C68.0818 79.4751 67.8371 79.2446 67.5377 79.2446C67.2388 79.2446 67.1304 78.6585 67.2965 77.9415C67.4627 77.2244 67.6675 75.3884 67.7518 73.8606C67.9635 70.0003 68.7811 69.4484 70.0412 72.3159C71.2366 75.0351 70.992 76.157 69.1267 76.5144C67.915 76.7466 67.9352 76.7773 69.3459 76.8491C70.1998 76.8926 71.0607 76.6644 71.2591 76.3424C71.487 75.9723 72.0761 76.0783 72.8637 76.632C73.5479 77.1133 74.8103 77.5071 75.6689 77.5071C77.1834 77.5071 79.6211 79.7671 79.6211 81.171C79.6211 81.5075 79.2126 81.277 78.7129 80.6584C77.8273 79.5626 77.8117 79.5667 78.0817 80.8374C78.2427 81.5926 78.0783 82.1492 77.6917 82.1614C77.3248 82.173 77.8036 82.8454 78.7556 83.6568L80.4865 85.1308L78.6466 84.2181C77.6346 83.7165 76.3964 82.718 75.895 81.9992C75.0631 80.8073 75.0642 80.6335 75.9077 80.0149C76.7397 79.4039 76.7189 79.2765 75.6989 78.728C74.8721 78.2838 73.8855 78.3469 72.0455 78.9603L69.5242 79.8012L71.6878 79.4966C73.8237 79.196 74.7717 80.085 73.0304 80.7557C71.8667 81.204 71.6111 82.2042 72.2336 83.8781C72.7194 85.1836 72.8285 85.2258 73.3431 84.3078C73.657 83.7478 73.7689 83.0539 73.5912 82.7661C73.2179 82.1597 74.3822 82.2529 75.4358 82.9138C76 83.2671 75.9654 83.7333 75.2759 85.0718C74.6384 86.3083 74.5345 87.2958 74.8969 88.6586L75.3977 90.5387L75.8212 88.6702C76.0543 87.6428 76.1281 86.6002 75.9856 86.3535C75.8431 86.1068 75.9354 85.384 76.191 84.7469C76.5747 83.7883 76.6624 83.7605 76.6959 84.5841C76.7195 85.1754 77.0536 85.4569 77.5186 85.278C78.1042 85.0521 78.3789 85.8363 78.6096 88.3876C78.7793 90.2636 79.3424 92.6231 79.8611 93.6303C81.9693 97.7223 85.7109 94.4649 84.4312 89.6519C83.886 87.6011 83.9171 87.5043 84.9147 88.1299C86.2498 88.9674 86.7004 90.362 86.6381 93.467C86.6041 95.1843 86.9191 96.2013 87.7061 96.9166C88.7602 97.8746 88.9067 97.8758 90.3226 96.945C91.7817 95.9853 91.8054 95.9899 91.2025 97.1199C90.2759 98.858 90.4559 103.13 91.5198 104.655C92.2583 105.713 92.8693 105.949 94.4046 105.769C95.476 105.643 96.353 105.636 96.353 105.752C96.353 106.455 94.8795 108.643 93.8334 109.494L92.6028 110.495L93.9009 110.508C94.6152 110.515 95.2049 110.325 95.2118 110.086C95.2187 109.847 95.7091 109.019 96.3017 108.245L97.3783 106.839L98.5968 109.236C99.2667 110.554 99.8148 112.457 99.8148 113.464C99.8148 115.026 99.9418 115.19 100.68 114.575C101.233 114.114 101.546 112.833 101.546 111.029C101.546 108.423 101.654 108.204 102.949 108.204C105.055 108.204 105.297 109.958 104.129 116.747C103.675 119.391 103.914 119.597 106.359 118.664C107.6 118.19 107.831 118.302 108.138 119.533C108.575 121.282 109.346 121.375 109.471 119.695C109.556 118.571 110.49 117.503 111.41 117.479C111.6 117.475 112.056 118.057 112.423 118.774C113.083 120.061 113.087 120.06 112.772 118.629C112.494 117.368 112.537 117.317 113.106 118.23C113.879 119.472 113.44 121.004 112.386 120.741C111.977 120.639 111.839 120.666 112.079 120.8C112.319 120.935 112.398 121.234 112.256 121.466C111.941 121.977 116.466 125 117.546 125C118.829 125 119.072 123.269 118.08 121.183L117.142 119.208L118.72 119.172C120.196 119.137 120.217 119.102 119.048 118.629C118.361 118.351 117.505 117.651 117.146 117.073C116.564 116.139 116.531 116.166 116.847 117.326C117.282 118.925 116.536 118.99 114.736 117.508C113.589 116.565 113.481 116.21 114.053 115.266C114.558 114.433 114.565 113.976 114.082 113.49C113.724 113.131 113.649 112.837 113.916 112.837C114.515 112.837 115.929 114.656 115.943 115.443C115.948 115.762 115.7 115.632 115.393 115.154C115.085 114.676 114.834 114.546 114.834 114.864C114.834 115.183 115.061 115.804 115.339 116.244C115.736 116.873 115.927 116.78 116.234 115.81C116.449 115.13 116.932 114.556 117.307 114.534C117.682 114.512 117.47 114.246 116.835 113.943C115.813 113.456 115.843 113.424 117.094 113.67C118.712 113.987 120.013 113.129 120 111.753C119.993 111.036 119.877 110.99 119.516 111.561C119.219 112.032 118.142 112.248 116.63 112.14C113.559 111.921 113.748 110.78 116.835 110.9L119.143 110.989L117.279 110.321C116.048 109.879 115.036 108.906 114.301 107.457L113.186 105.262L114.434 105.64C115.394 105.93 115.53 105.856 115.022 105.319C114.66 104.935 114.431 103.668 114.514 102.503C114.597 101.338 114.552 101.101 114.415 101.978C114.278 102.853 113.931 103.57 113.644 103.57C113.356 103.57 113.245 103.244 113.398 102.846C113.571 102.39 113.106 102.089 112.137 102.033C111.038 101.969 110.831 102.091 111.41 102.459C112.56 103.19 111.51 103.116 110.118 102.367C109.435 102.001 109.091 101.392 109.283 100.889C109.463 100.42 109.396 100.168 109.136 100.329C108.875 100.491 108.661 100.269 108.661 99.8351C108.661 99.4019 109.008 99.1806 109.431 99.3434C110.49 99.7517 110.405 98.0906 109.321 97.1877C108.837 96.7846 108.569 96.3276 108.724 96.1718C108.879 96.016 108.741 95.3366 108.417 94.6619C107.853 93.4844 107.864 93.4792 108.708 94.5333C109.191 95.138 109.476 95.811 109.342 96.0299C109.207 96.2483 109.461 96.4272 109.906 96.4272C110.489 96.4272 110.568 96.1515 110.189 95.4414C109.9 94.8993 109.83 94.2883 110.034 94.0839C110.238 93.8794 109.904 93.3048 109.293 92.8067C108.118 91.8499 109.379 92.3312 110.66 93.3286C111.183 93.7358 111.218 94.03 110.777 94.3034C110.35 94.568 110.44 94.9399 111.052 95.4501C111.83 96.0982 111.908 96.0496 111.609 95.109C111.275 94.0613 111.299 94.0624 112.172 95.138C112.674 95.7565 113.085 96.5164 113.085 96.8274C113.085 97.1379 113.24 97.2363 113.429 97.0464C113.619 96.8558 113.295 95.8631 112.708 94.8403C111.875 93.3854 111.808 92.9214 112.402 92.7118C112.821 92.5641 113.859 91.7949 114.71 91.0026L116.258 89.5622L114.239 90.702C111.969 91.9837 110.777 91.8256 110.777 90.2427C110.777 89.0884 108.228 86.774 106.956 86.774C106.087 86.774 103.854 85.0237 103.854 84.3432C103.854 84.1028 104.438 84.1266 105.152 84.3947C106.609 84.942 110.955 83.8196 112.754 82.4313C114.304 81.2359 113.686 80.9052 111.285 81.6453C109.557 82.1776 108.886 82.0826 106.786 81.0065C104.818 79.9987 104.38 79.5024 104.626 78.5583C104.931 77.386 104.921 77.3866 103.635 78.5994C102.011 80.1308 100.377 80.1505 97.9535 78.6678C96.9144 78.0318 95.6105 77.5106 95.0549 77.5094C94.3198 77.5077 94.0452 77.038 94.0452 75.7806C94.0452 73.56 95.7657 73.0555 99.6163 74.1473C102.226 74.8869 102.409 75.063 102.383 76.8022C102.368 77.8274 102.591 78.6655 102.879 78.6655C103.166 78.6655 103.228 77.9681 103.015 77.1161C102.675 75.7591 102.739 75.6601 103.529 76.3186C104.025 76.7316 104.431 76.8074 104.431 76.486C104.431 75.6137 102.043 74.211 99.2927 73.4679C96.7177 72.7717 96.349 71.567 98.6095 71.2346C99.9417 71.0382 102.123 69.4762 102.123 68.718C102.123 68.4852 100.985 67.7896 99.5956 67.1722C95.3578 65.2904 89.2143 66.6104 89.7306 69.292C89.8339 69.8283 89.9707 70.3328 90.0341 70.4121C90.0982 70.4915 90.183 70.883 90.2228 71.2809C90.2626 71.6794 90.6746 72.0049 91.1384 72.0049C91.6023 72.0049 92.3668 72.6935 92.8376 73.5357C93.579 74.862 93.5865 75.3931 92.8924 77.503C92.121 79.8499 92.0189 79.9275 90.101 79.6147C87.9219 79.2597 85.3907 77.2355 85.3907 75.8477C85.3907 75.1736 85.588 75.2309 86.2377 76.0933C86.7039 76.7113 87.0933 76.9638 87.1031 76.654C87.1135 76.3447 87.5261 76.6702 88.0199 77.3779C89.0642 78.8751 90.8984 79.1664 90.3566 77.7492C90.1639 77.2453 90.0064 76.724 90.0064 76.5908C90.0064 76.4576 89.7122 76.3487 89.3521 76.3487C88.6938 76.3487 85.9694 73.4847 85.9683 72.7908C85.9683 72.5858 86.3929 72.2545 86.9122 72.0547C87.6813 71.7581 87.7926 71.1506 87.5134 68.7811C87.3241 67.1809 87.4147 65.2244 87.7147 64.4338C88.2057 63.137 88.1521 63.053 87.1701 63.5807C86.2527 64.0736 86.1263 63.9907 86.3704 63.0548C86.5296 62.4443 87.1689 61.4817 87.7915 60.9164C88.7688 60.028 89.0042 60.0036 89.5189 60.734C90.0307 61.4591 90.0757 61.4522 89.8356 60.6836C89.636 60.0442 90.2822 59.5252 92.0887 58.8731C94.7612 57.9082 94.8979 58.0373 94.0452 60.7108C93.7913 61.5072 93.5576 61.8333 93.5259 61.4348C93.4434 60.3986 92.5029 60.5405 92.0777 61.6532C91.8792 62.1709 92.0466 63.0032 92.4487 63.5019C92.8509 64.0006 92.9103 64.2467 92.5808 64.0492C92.2508 63.8517 91.1044 64.5908 90.0318 65.6912L88.0822 67.6929L89.7658 66.8119C90.6913 66.3271 92.3795 65.9292 93.5161 65.9269C94.9677 65.9246 95.5839 65.6646 95.5839 65.0547C95.5839 64.5769 95.2049 64.1859 94.7421 64.1859C94.1121 64.1859 93.9915 63.7504 94.2615 62.4484C94.46 61.4927 94.7843 59.9289 94.9827 58.9733C95.3745 57.0846 94.8027 56.788 92.8203 57.8531C91.75 58.4283 91.6964 58.3333 92.0437 56.4759C92.4279 54.4192 91.3196 51.3773 89.8662 50.5004C89.3412 50.1842 89.3539 50.3267 89.9118 51.0176C90.3359 51.543 90.5632 52.1795 90.4166 52.432C90.2707 52.6851 90.3318 54.2605 90.5522 55.9326C90.8794 58.4097 90.7957 58.9733 90.1016 58.9733C88.8104 58.9733 85.3907 61.8008 85.3907 62.8683C85.3907 63.6241 85.108 63.5419 83.9489 62.4489C82.7142 61.2842 82.619 60.9587 83.2842 60.1762C84.5599 58.6767 84.9199 57.8149 84.2708 57.8149C83.935 57.8149 83.6598 58.1781 83.6598 58.6217C83.6598 59.6654 82.6784 60.0204 80.3105 59.8328C77.8671 59.6399 77.3074 59.0602 78.7602 58.2285C80.5777 57.1877 81.2377 57.2595 80.9239 58.4642C80.7063 59.3005 80.8638 59.4818 81.5706 59.2096C82.8123 58.7312 82.7511 58.0529 81.3791 57.088C79.336 55.6517 78.2358 51.0576 79.9344 51.0576C80.4242 51.0576 80.6994 51.3854 80.5459 51.7862C80.393 52.187 80.8967 52.9289 81.6658 53.4346C82.4355 53.9408 83.2259 55.0007 83.4238 55.7913C83.6212 56.5813 84.0037 57.0909 84.2731 56.9235C84.5426 56.7562 84.6274 56.2633 84.4606 55.8277C84.2945 55.3922 84.4756 54.8391 84.8634 54.5987C85.3146 54.3184 85.4207 54.4018 85.157 54.8292C84.9309 55.197 84.9886 55.4982 85.2863 55.4982C86.1315 55.4982 86.9895 54.1487 86.8175 53.0888C86.7252 52.5195 87.1672 51.9843 87.9017 51.7764C89.1358 51.4265 89.1364 51.4213 87.987 50.4877C87.0472 49.7243 87.0206 49.6154 87.8428 49.8998C89.3758 50.4303 90.6659 49.7208 90.2961 48.5515C90.0734 47.8466 90.3486 47.4348 91.1898 47.2142C92.0523 46.9877 92.3506 46.5209 92.2156 45.6075C91.956 43.8451 89.5183 42.1562 86.6837 41.7751C85.1166 41.5637 84.4197 41.2138 84.6049 40.7302C84.7682 40.3028 84.2443 39.8423 83.3338 39.613C81.1604 39.0656 77.5301 41.5364 76.8055 44.0559L76.2631 45.9417L76.2112 44.3009C76.1783 43.2578 75.8962 42.7498 75.4381 42.9068C75.0417 43.0423 74.7982 43.7159 74.8975 44.4028C74.9967 45.0897 74.789 45.6521 74.4359 45.6521C73.0777 45.6521 70.0158 43.695 68.0818 41.5903C66.0595 39.39 62.2314 37.0032 60.5899 36.9198C60.1093 36.8955 60.7486 36.563 62.011 36.1807C64.4146 35.4539 66.9279 32.5539 66.9279 30.5077C66.9279 29.9175 66.8632 29.4391 66.7836 29.4437C66.704 29.4483 65.6008 29.8283 64.3315 30.287C63.0622 30.7463 59.687 31.1697 56.831 31.2282L51.6383 31.3347L57.4079 31.8346C60.5812 32.1091 63.7753 32.1948 64.5058 32.0245C65.6908 31.7477 65.7664 31.8415 65.2068 32.8916C63.8451 35.4458 62.1298 35.9821 57.8049 35.206C55.6251 34.815 52.2424 34.6112 50.2876 34.7531C48.3334 34.895 46.7341 34.9367 46.7341 34.8457C46.7341 34.7554 47.5782 34.4478 48.6092 34.1629L50.4844 33.6445L48.8977 33.2147C47.0947 32.7259 46.827 31.9637 48.3208 31.5716C49.0033 31.3926 48.8631 31.2861 47.888 31.2432C47.0947 31.2085 45.7042 31.5681 44.7978 32.0425C43.2354 32.8603 42.9885 32.8076 40.054 31.0254C38.3514 29.9916 36.9511 28.9688 36.9419 28.7522C36.9182 28.1799 38.6474 26.5391 39.2745 26.5391C40.3402 26.5391 39.78 27.5706 38.5378 27.8967C37.8373 28.0803 37.4144 28.3809 37.5973 28.5651C38.1189 29.0881 40.9645 27.5944 40.9645 26.7974C40.9645 25.7937 39.5959 25.3807 36.2674 25.3807C34.5002 25.3807 33.5332 25.1583 33.7524 24.8016C33.9607 24.4639 33.3745 24.2224 32.3463 24.2224C30.9882 24.2224 29.6819 23.3918 26.6534 20.6025C22.1468 16.4521 13.8587 9.7243 8.99314 6.26774C7.87268 5.47136 6.94838 4.60664 6.93973 4.34659C6.91896 3.74193 8.35675 4.19137 14.4241 6.68533C21.1204 9.4376 25.3258 10.3116 31.4446 10.2224L36.6372 10.1465L29.7137 9.72429C25.3305 9.45729 22.0493 8.9563 20.7707 8.35916L18.7513 7.41568L20.7707 7.70063C22.3995 7.93057 22.587 7.86512 21.7389 7.36413C21.1602 7.02183 20.0351 6.90657 19.2383 7.10755C18.4104 7.31605 17.9297 7.24366 18.1173 6.93959C18.2978 6.64652 16.781 5.92776 14.7472 5.34336C12.7128 4.75839 11.1804 4.06511 11.342 3.80274C11.5035 3.54037 10.9 3.47029 10.0011 3.64694C8.84428 3.87456 9.01911 3.71354 10.5988 3.09729C11.8266 2.61831 13.5142 2.35768 14.3491 2.51811C15.6386 2.76658 15.6934 2.72836 14.7126 2.26327C14.0779 1.9621 12.9096 1.65629 12.1162 1.5839C11.3229 1.5115 11.972 1.27345 13.5587 1.0551C16.069 0.70933 15.8065 0.653727 11.5393 0.625927C8.84198 0.608551 5.75753 0.802575 4.68553 1.05626ZM49.4747 0.884822C50.1884 1.02267 51.3573 1.02267 52.071 0.884822C52.7847 0.746398 52.2008 0.633455 50.7729 0.633455C49.3449 0.633455 48.761 0.746398 49.4747 0.884822ZM17.7486 1.46458C18.4663 1.603 19.5049 1.59779 20.0564 1.45299C20.608 1.3082 20.0207 1.19468 18.7513 1.20105C17.482 1.20742 17.0308 1.32616 17.7486 1.46458ZM44.7147 2.00033C43.3029 2.69245 43.2498 2.77816 44.4262 2.46599C45.2196 2.25516 47.0295 2.12659 48.4488 2.17987C51.4121 2.29165 51.4202 1.93546 48.465 1.46979C47.2465 1.27809 45.759 1.48833 44.7147 2.00033ZM54.9668 1.45647C55.5282 1.60358 56.3071 1.59374 56.6977 1.43504C57.0883 1.27635 56.629 1.15645 55.677 1.16804C54.7251 1.17962 54.4054 1.30936 54.9668 1.45647ZM22.0798 2.03566C22.6412 2.18277 23.4201 2.17292 23.8107 2.01423C24.2013 1.85553 23.7421 1.73564 22.7901 1.74722C21.8381 1.7588 21.5185 1.88854 22.0798 2.03566ZM51.8189 2.02986C52.2349 2.19725 52.7328 2.17639 52.9244 1.98411C53.1159 1.79182 52.7755 1.65514 52.1674 1.68004C51.4952 1.70784 51.3585 1.8451 51.8189 2.02986ZM58.1292 2.0177C58.5261 2.17871 59.1752 2.17871 59.5716 2.0177C59.9685 1.85727 59.6437 1.72579 58.8504 1.72579C58.057 1.72579 57.7328 1.85727 58.1292 2.0177ZM5.19268 2.79265C6.32122 3.52473 7.91537 3.52473 8.36598 2.79265C8.58004 2.44456 7.84498 2.21694 6.52489 2.22215C4.89323 2.2291 4.55052 2.37564 5.19268 2.79265ZM25.5416 2.61483C26.103 2.76195 26.8819 2.7521 27.2725 2.5934C27.6631 2.43471 27.2039 2.31482 26.2519 2.3264C25.2999 2.33799 24.9802 2.46772 25.5416 2.61483ZM61.0503 2.60905C61.4663 2.77643 61.9642 2.75557 62.1558 2.56329C62.3473 2.371 62.0069 2.23431 61.3988 2.25922C60.7266 2.28702 60.5899 2.42429 61.0503 2.60905ZM29.2879 3.20213C30.0056 3.34055 31.0441 3.33533 31.5957 3.19054C32.1473 3.04574 31.5599 2.93223 30.2906 2.9386C29.0213 2.94497 28.5701 3.0637 29.2879 3.20213ZM40.8202 3.17607C41.2172 3.33708 41.8663 3.33708 42.2626 3.17607C42.6596 3.01563 42.3348 2.88415 41.5414 2.88415C40.7481 2.88415 40.4238 3.01563 40.8202 3.17607ZM62.9906 3.38804C63.1332 3.81722 64.395 4.55162 65.7953 5.02018C67.9306 5.73431 68.1574 5.94397 67.2013 6.3187C66.4167 6.62683 66.3313 6.79074 66.9279 6.84692C68.5087 6.99577 65.6135 7.91725 63.1776 8.04061L60.8697 8.15761L62.8891 8.63196C64.541 9.02059 64.3315 9.06576 61.7352 8.88158C59.9899 8.75764 57.6532 8.48774 56.5425 8.28213C54.9385 7.98443 54.7008 8.04698 55.3886 8.58446C56.0809 9.126 55.8501 9.20187 54.2346 8.96325L52.2153 8.66555L54.1827 9.53316C55.2778 10.0162 56.8131 10.2473 57.6445 10.0544C58.7702 9.79322 58.9254 9.85287 58.2734 10.2954C57.6462 10.7216 58.3617 10.8635 60.8697 10.8103C64.1198 10.7413 64.1902 10.7112 62.0237 10.322C59.8502 9.93164 59.8231 9.90268 61.5534 9.82507C62.5643 9.7799 64.058 9.99766 64.8733 10.3087C66.4276 10.9018 69.4671 10.0081 68.9195 9.11904C68.7661 8.86884 68.9438 8.47616 69.3153 8.24564C69.7371 7.98385 69.8363 8.0771 69.579 8.49469C69.0517 9.35188 69.0124 9.35767 72.3871 8.0713C73.9616 7.47127 75.3463 6.68938 75.464 6.33434C75.6781 5.68913 73.4037 5.36711 70.2067 5.5901C69.313 5.65265 68.7199 5.47831 68.8895 5.20262C69.0592 4.92751 68.1406 4.38424 66.8488 3.99561C65.557 3.60698 64.1019 3.1361 63.6155 2.94844C63.0403 2.7272 62.8222 2.8801 62.9906 3.38804ZM4.77034 4.84063C5.95485 5.64859 6.93165 6.49535 6.94146 6.72297C6.95184 6.95059 7.65285 7.64445 8.49984 8.26475L10.0398 9.393L8.33771 7.21122C7.4013 6.01116 5.93408 4.65645 5.07729 4.20064C2.59461 2.8801 2.42267 3.23919 4.77034 4.84063ZM24.0883 7.80952C24.4852 7.97053 25.1343 7.97053 25.5307 7.80952C25.9276 7.64909 25.6028 7.51761 24.8095 7.51761C24.0161 7.51761 23.6919 7.64909 24.0883 7.80952ZM27.8385 8.41998C28.7115 8.55261 30.1389 8.55261 31.0118 8.41998C31.8848 8.28734 31.1705 8.17904 29.4252 8.17904C27.6799 8.17904 26.9656 8.28734 27.8385 8.41998ZM34.1961 8.40665C34.7575 8.55377 35.5364 8.54392 35.927 8.38522C36.3176 8.22653 35.8583 8.10664 34.9063 8.11822C33.9543 8.1298 33.6347 8.25954 34.1961 8.40665ZM38.9451 9.17928C37.6371 9.42312 39.0114 9.4793 42.1184 9.30786C45.133 9.14221 47.708 8.91112 47.8401 8.79528C48.2556 8.43098 41.362 8.72868 38.9451 9.17928ZM14.7126 12.3908C16.6166 14.1498 18.85 16.0333 19.6762 16.5754C21.4077 17.7129 25.9634 21.7707 25.9634 22.1755C25.9634 22.3256 25.5087 22.3053 24.9537 22.1304C24.3785 21.9497 24.6889 22.4547 25.6749 23.3044C26.6269 24.1245 27.7751 24.7969 28.2257 24.7987C28.6769 24.8004 29.5221 25.2342 30.1043 25.7636C30.687 26.2924 31.294 26.5941 31.4532 26.4337C32.0584 25.8261 12.8369 9.12658 11.5918 9.17755C11.4043 9.18566 12.8086 10.6313 14.7126 12.3908ZM48.5671 9.45961C48.7292 9.62236 51.1583 10.5346 53.9646 11.4867C59.9529 13.5185 62.7916 13.6749 64.7002 12.0787C66.2695 10.7662 65.4699 10.5114 63.7886 11.7885C62.0929 13.076 59.3921 12.82 54.4291 10.9012C50.3413 9.32118 47.809 8.69856 48.5671 9.45961ZM20.1937 18.4306C20.1937 18.7491 20.469 19.0097 20.8048 19.0097C21.1405 19.0097 21.2554 18.7491 21.0592 18.4306C20.863 18.112 20.5884 17.8514 20.4482 17.8514C20.308 17.8514 20.1937 18.112 20.1937 18.4306ZM36.3488 30.6385C39.1695 33.4209 41.6014 34.917 42.704 34.548C43.0888 34.4194 41.8807 33.3427 40.02 32.1554C38.1598 30.9681 35.9881 29.5647 35.1948 29.0371C34.4015 28.5095 34.9208 29.23 36.3488 30.6385ZM20.9046 31.7517C20.9046 32.8667 21.0234 33.3231 21.1682 32.7653C21.3136 32.2076 21.3136 31.2959 21.1682 30.7382C21.0234 30.1804 20.9046 30.6368 20.9046 31.7517ZM54.6674 35.6102C55.0643 35.7713 55.7134 35.7713 56.1098 35.6102C56.5067 35.4498 56.1819 35.3183 55.3886 35.3183C54.5952 35.3183 54.271 35.4498 54.6674 35.6102ZM57.5885 36.2016C58.0045 36.369 58.5024 36.3481 58.694 36.1558C58.8855 35.9635 58.5451 35.8269 57.937 35.8518C57.2649 35.8796 57.1281 36.0168 57.5885 36.2016ZM51.6383 36.9731C54.6939 37.5829 61.052 39.7485 62.8764 40.8009C64.3084 41.6268 64.3096 41.6343 62.9612 41.2671C62.094 41.0314 61.7242 41.1119 61.9544 41.4855C62.1546 41.811 60.3903 41.3853 58.0334 40.5402C55.6759 39.6952 54.009 38.8421 54.3281 38.644C54.6472 38.4459 54.1723 38.2959 53.2734 38.3104C52.3739 38.3255 50.8594 38.1546 49.9074 37.9316C48.6012 37.6252 48.4592 37.66 49.3304 38.0729L50.4844 38.6203L49.3304 38.7019C48.5198 38.7593 48.7771 39.01 50.1959 39.5458C53.503 40.7945 58.3847 43.4165 58.0426 43.7599C57.8678 43.936 57.2637 43.7165 56.7006 43.2734C55.7919 42.557 55.7572 42.5703 56.3931 43.3887C56.7871 43.896 56.9169 44.5239 56.6815 44.7845C56.4467 45.0451 56.5506 45.0886 56.9129 44.8806C57.2752 44.6727 59.0459 45.3944 60.8484 46.4832C63.8671 48.3082 64.474 48.4588 68.5555 48.3939C70.992 48.3557 72.5515 48.2289 72.0207 48.1125C71.4893 47.996 70.6135 47.2246 70.0735 46.3975C69.1336 44.9571 69.1376 44.9107 70.1739 45.2936C72.2682 46.0685 66.0261 41.0557 63.1776 39.6761C60.1404 38.2044 52.9117 36.3412 50.6592 36.4489C49.9028 36.4848 50.3251 36.7107 51.6383 36.9731ZM40.4538 40.8738C40.4158 42.9456 40.6344 44.4937 40.9645 44.4937C41.6459 44.4937 41.6574 42.7741 40.9974 39.5707C40.5415 37.3571 40.5173 37.4156 40.4538 40.8738ZM52.5037 39.8603C53.9317 40.462 55.4895 40.9538 55.9655 40.9538C56.4415 40.9538 55.6626 40.462 54.2346 39.8603C52.8067 39.2585 51.2489 38.7668 50.7729 38.7668C50.2969 38.7668 51.0758 39.2585 52.5037 39.8603ZM57.9849 39.8869C59.5716 40.509 61.1294 41.0036 61.4467 40.9856C62.3139 40.9381 56.966 38.7674 55.9655 38.7616C55.4895 38.7587 56.3983 39.2649 57.9849 39.8869ZM80.9308 40.8466C79.3343 41.1565 77.3086 43.6562 77.3259 45.2959C77.3386 46.4983 77.3576 46.496 78.3719 45.1725C79.298 43.9644 79.4837 43.9192 80.1605 44.7381C80.6659 45.3498 80.7017 45.6521 80.2684 45.6521C79.9124 45.6521 79.6211 45.9127 79.6211 46.2313C79.6211 46.5498 79.999 46.8105 80.4605 46.8105C80.9614 46.8105 81.4512 46.0013 81.6745 44.8042C81.881 43.7003 82.409 42.4979 82.8486 42.1318C83.6131 41.4953 83.4486 40.3537 82.6161 40.5182C82.3968 40.5617 81.6381 40.7094 80.9308 40.8466ZM83.6523 43.0545C83.054 43.7784 83.1411 44.119 84.1485 44.9959C84.8201 45.5809 85.2384 46.1913 85.078 46.3523C84.917 46.5133 85.1899 46.9819 85.6838 47.3931C87.1164 48.5874 91.1632 47.1742 91.1517 45.4841C91.1442 44.4451 91.0375 44.3681 90.5834 45.0729C90.0976 45.8276 90.0232 45.8172 90.0151 44.9924C90.0105 44.4706 89.6822 44.0553 89.2852 44.0703C86.907 44.159 86.3998 43.9186 87.1216 43.0458C87.7332 42.3062 87.582 42.177 86.109 42.177C85.157 42.177 84.0516 42.572 83.6523 43.0545ZM38.7022 47.7273C38.7299 48.402 38.8666 48.5393 39.0507 48.0777C39.2174 47.6595 39.1966 47.1597 39.0051 46.9674C38.8135 46.7751 38.6774 47.1168 38.7022 47.7273ZM74.4284 48.548C73.466 48.8573 74.6182 49.0119 77.8902 49.0119C81.1621 49.0119 82.3143 48.8573 81.352 48.548C80.5586 48.2932 79.0008 48.0841 77.8902 48.0841C76.7795 48.0841 75.2217 48.2932 74.4284 48.548ZM66.2695 50.2462C68.9276 51.5117 74.4959 51.8053 77.3132 50.8282C78.3933 50.4535 78.0315 50.3794 75.8708 50.5329C73.1937 50.7234 69.6898 50.3504 65.4854 49.4278C64.1336 49.1312 64.305 49.3102 66.2695 50.2462ZM1.00969 51.843C0.454648 51.9889 0 52.5918 0 53.1838C0 54.3497 0.125201 54.3317 5.76964 52.3631C8.3204 51.4735 6.67028 51.4931 3.51602 52.3897C2.53749 52.6683 2.24958 52.5866 2.54037 52.1146C2.96444 51.4248 2.74981 51.3866 1.00969 51.843ZM66.82 52.4187C67.236 52.5861 67.7339 52.5652 67.9254 52.3729C68.117 52.1806 67.7766 52.0439 67.1684 52.0688C66.4963 52.0966 66.3595 52.2339 66.82 52.4187ZM70.3896 52.6202C70.3896 52.9492 70.7924 53.3732 71.2851 53.5626C71.9272 53.8105 72.0807 54.3613 71.828 55.5167C71.6313 56.4156 71.7455 57.2925 72.0865 57.5045C72.4275 57.7159 72.7137 57.4199 72.7338 56.8355C72.7621 56.0345 72.9006 56.1139 73.3235 57.1749C73.6276 57.9383 74.0078 58.43 74.1682 58.269C74.3291 58.1074 74.1936 57.2711 73.8676 56.4098C73.5416 55.5486 73.2745 54.2089 73.2745 53.4334C73.2745 52.315 72.9756 52.0231 71.8321 52.0231C71.0387 52.0231 70.3896 52.2918 70.3896 52.6202ZM73.8514 52.5681C73.8514 52.8681 74.1111 53.2741 74.4284 53.4711C74.7457 53.668 75.0054 54.9781 75.0054 56.3832C75.0054 58.5667 75.1519 58.8847 76.015 58.5754C78.2421 57.7784 78.5514 57.1639 77.5313 55.5613C75.8598 52.9347 73.8514 51.3009 73.8514 52.5681ZM90.9353 54.0502C91.4102 56.1799 91.7402 56.6421 91.7287 55.1605C91.7235 54.5501 91.4563 53.6593 91.1338 53.1815C90.7063 52.5473 90.6526 52.7812 90.9353 54.0502ZM55.677 54.3398C55.8732 54.6584 56.5529 54.919 57.1875 54.919C57.8222 54.919 58.1811 54.6584 57.9849 54.3398C57.7887 54.0213 57.1091 53.7606 56.4744 53.7606C55.8398 53.7606 55.4809 54.0213 55.677 54.3398ZM85.8627 57.362C86.1702 57.6707 86.9041 57.8213 87.4932 57.6956C88.2865 57.5271 88.1411 57.3811 86.9335 57.1344C85.8806 56.9183 85.5015 56.9994 85.8627 57.362ZM42.4928 59.842C43.251 63.2216 43.8626 64.6215 43.5043 62.1588C43.3185 60.8846 42.9273 59.4511 42.6348 58.9733C42.2788 58.3918 42.2315 58.679 42.4928 59.842ZM73.2185 59.6973C74.0297 60.7595 73.6241 61.0195 71.6013 60.734C70.9672 60.6448 70.9891 60.8162 71.7045 61.5344C72.7275 62.5607 73.537 62.764 72.9762 61.853C72.739 61.4684 73.2808 61.3769 74.5115 61.5941C75.5569 61.7794 76.2908 61.8518 76.142 61.7551C75.9925 61.6584 75.1 60.928 74.1572 60.1316C73.215 59.3353 72.7927 59.1395 73.2185 59.6973ZM68.9178 63.8778C68.458 64.9823 68.1077 66.3509 68.1395 66.9185C68.1787 67.6303 68.3403 67.5011 68.6587 66.5026C69.1019 65.1138 69.1232 65.1074 69.178 66.3578C69.2097 67.0749 69.489 67.661 69.7982 67.661C70.164 67.661 70.164 67.1409 69.7982 66.1754C69.489 65.3582 69.2565 64.3811 69.2813 64.0035C69.3061 63.6258 69.5877 64.0342 69.9061 64.9099C70.2252 65.7856 70.7237 66.5026 71.0145 66.5026C71.734 66.5026 71.6838 66.1383 70.7012 64.2305C70.2379 63.331 70.0215 62.4322 70.2206 62.2323C70.4191 62.0325 70.3954 61.8692 70.1681 61.8692C69.9402 61.8692 69.3776 62.7733 68.9178 63.8778ZM78.4671 62.7165C78.4671 63.133 79.1566 63.927 79.999 64.4807C81.435 65.4259 81.5072 65.4265 81.1506 64.4952C80.5898 63.027 81.2868 62.2654 82.413 63.1162C83.2196 63.7255 83.2577 63.7127 82.6542 63.0328C81.6999 61.9578 78.4671 61.7134 78.4671 62.7165ZM79.3978 63.1335C79.5645 63.404 79.9424 63.4758 80.2378 63.2922C80.9925 62.8243 80.9077 62.6412 79.9349 62.6412C79.4728 62.6412 79.231 62.8631 79.3978 63.1335ZM71.5436 64.7651C71.5436 65.0836 72.0784 65.3443 72.7315 65.3443C73.3847 65.3443 73.7591 65.0836 73.5629 64.7651C73.3668 64.4465 72.8325 64.1859 72.375 64.1859C71.9174 64.1859 71.5436 64.4465 71.5436 64.7651ZM43.9947 66.7922C44.001 68.0664 44.1193 68.5194 44.2572 67.7989C44.3951 67.0784 44.3899 66.0358 44.2457 65.4821C44.1014 64.9284 43.9883 65.518 43.9947 66.7922ZM76.4478 65.9235C76.2516 66.242 75.4456 66.5026 74.6557 66.5026C73.2375 66.5026 73.2329 66.5194 74.257 67.8909C74.8271 68.6543 75.4612 69.1773 75.666 69.0528C75.8708 68.9283 76.1772 69.1895 76.3474 69.6337C76.8407 70.9241 81.2873 71.4494 82.3853 70.3467C83.2127 69.5167 83.1942 69.3233 82.1805 68.1991C81.0271 66.9196 78.3754 65.3443 77.3761 65.3443C77.0616 65.3443 76.6439 65.6049 76.4478 65.9235ZM94.6221 67.661C94.6221 67.9796 93.9079 68.2616 93.0355 68.2871L91.4488 68.334L93.1261 69.0777C94.2719 69.5851 94.546 69.9227 93.9915 70.1428C93.1151 70.4909 95.7334 70.7608 98.0839 70.565C99.55 70.4422 100.969 69.5949 100.969 68.8414C100.969 68.1527 98.1433 67.0818 96.3259 67.0818C95.3889 67.0818 94.6221 67.3425 94.6221 67.661ZM70.3954 69.2856C70.7508 70.02 70.9303 70.9322 70.7947 71.3127C70.4214 72.3593 72.0328 75.1904 73.001 75.1904C73.4689 75.1904 73.8514 75.5813 73.8514 76.0591C73.8514 77.7301 75.4987 76.91 76.1558 74.9124C76.828 72.8667 76.521 71.4228 75.5425 72.0298C75.2471 72.2128 74.9973 72.0217 74.9869 71.6047C74.9748 71.1077 74.7001 71.2021 74.189 71.8786C73.4649 72.8366 73.3806 72.7972 73.0137 71.3295C72.7038 70.0918 72.5036 69.9308 72.09 70.587C71.7992 71.0481 71.5574 71.15 71.5522 70.8123C71.5476 70.4752 71.1397 69.6934 70.6464 69.0748C69.789 68.0004 69.7775 68.0097 70.3954 69.2856ZM83.2883 69.6847C83.2392 70.5378 83.4469 70.9786 83.796 70.7619C84.1237 70.5587 84.2691 70.7538 84.1231 71.2004C83.9777 71.6429 83.1654 72.0871 82.3172 72.1879C81.4691 72.2887 80.775 72.6304 80.775 72.946C80.775 73.2623 81.0346 73.3602 81.352 73.1632C82.0345 72.7398 82.0345 73.3069 81.352 74.9008L80.8564 76.0591L80.7981 74.9008C80.745 73.8386 80.6913 73.8258 80.1553 74.7496C79.2645 76.2844 80.659 80.5183 81.9226 80.1151C83.1931 79.7109 89.7883 84.0136 90.2799 85.5681C90.4928 86.2417 91.1534 86.774 91.776 86.774C93.0482 86.774 93.2068 86.1641 92.1989 85.1523C91.7356 84.6872 91.7154 84.4573 92.1372 84.4573C92.7383 84.4573 93.4682 85.732 93.4682 86.7809C93.4682 87.0514 92.8843 87.3561 92.17 87.4574C91.1852 87.5982 90.8292 88.0829 90.6953 89.4666C90.4795 91.697 91.9196 95.3459 93.212 95.844C94.1421 96.2025 95.2187 95.1831 95.1449 94.0138C95.1247 93.6952 94.977 93.7607 94.8172 94.1586C94.6568 94.557 94.0931 94.8617 93.5646 94.8368C92.9645 94.8084 92.8739 94.681 93.324 94.4991C93.7209 94.3381 94.0492 93.6419 94.0538 92.9521C94.0613 91.9293 94.1663 91.858 94.6221 92.5658C95.0658 93.2556 95.1835 93.2695 95.1905 92.6342C95.1951 92.194 94.2581 90.9429 93.1076 89.8541C91.1805 88.0291 91.1304 87.9028 92.4678 88.2399C95.2014 88.9286 95.2724 85.9556 92.5918 83.0528C91.7777 82.1701 91.3167 81.5475 91.5683 81.6685C91.8198 81.789 92.7205 82.2384 93.5697 82.667C95.8407 83.8126 98.0839 83.0829 98.0839 81.1988C98.0839 80.0821 97.8554 79.7879 97.1885 80.0451C96.675 80.2426 96.4436 80.1453 96.6456 79.8174C96.8486 79.4873 96.2492 79.2446 95.2331 79.2446C94.2627 79.2446 93.4682 79.5053 93.4682 79.8238C93.4682 80.6237 89.0579 80.5536 87.5162 79.7294C86.8233 79.3587 85.9659 78.6602 85.6111 78.1766C85.0538 77.4179 84.8703 77.477 84.2662 78.6104C83.8814 79.3327 83.4527 79.8093 83.3142 79.6698C83.1757 79.5307 83.455 78.6614 83.9345 77.7382C84.4139 76.8144 84.808 75.1759 84.8103 74.0957C84.812 72.9565 85.2067 71.8439 85.7502 71.4454C87.0668 70.4787 86.285 68.2402 84.6308 68.2408C83.6956 68.2408 83.35 68.6126 83.2883 69.6847ZM91.6277 73.1632C91.9196 73.8003 92.3027 74.7125 92.4793 75.1904C92.7562 75.941 92.8064 75.9364 92.8457 75.1562C92.8705 74.6598 92.4874 73.7476 91.9941 73.1291C91.1113 72.0228 91.105 72.0234 91.6277 73.1632ZM88.2755 73.4186C88.2755 73.7187 88.5323 74.1229 88.8462 74.3175C89.1727 74.5203 89.2696 74.288 89.0729 73.7725C88.6892 72.7694 88.2755 72.5858 88.2755 73.4186ZM44.0651 79.5342C44.0662 83.0383 44.1614 84.397 44.2762 82.5535C44.391 80.7105 44.3899 77.8436 44.2739 76.1825C44.158 74.522 44.0639 76.0302 44.0651 79.5342ZM48.825 74.3442C48.6271 74.8614 48.491 75.9804 48.5227 76.8306C48.5694 78.0735 48.6842 77.934 49.1089 76.1165C49.6507 73.7992 49.4683 72.6611 48.825 74.3442ZM82.5515 74.3697C82.5792 75.0444 82.7159 75.1817 82.9 74.7201C83.0667 74.3019 83.0459 73.8021 82.8544 73.6098C82.6628 73.4175 82.5267 73.7592 82.5515 74.3697ZM68.2139 74.7195C68.5012 75.5854 69.8127 76.062 69.8127 75.3004C69.8127 74.9894 69.4013 74.577 68.8988 74.383C68.3374 74.167 68.0731 74.2961 68.2139 74.7195ZM73.8514 78.8931C73.8514 79.0182 74.2541 79.2759 74.7469 79.4659C75.2604 79.6634 75.4917 79.5661 75.2898 79.2383C74.9511 78.6875 73.8514 78.4239 73.8514 78.8931ZM99.258 81.7971C98.9171 82.6983 98.0868 83.3337 96.9115 83.5926L95.0935 83.9933L96.6583 85.633C98.6476 87.7175 101.026 87.7042 101.609 85.6052C101.978 84.2754 102.012 84.2627 102.065 85.4378C102.097 86.1427 101.552 87.1093 100.84 87.6097C99.8275 88.3221 99.76 88.5115 100.519 88.5115C101.715 88.5115 103.277 86.3512 103.277 84.6959C103.277 83.3672 101.246 80.403 100.336 80.403C100.033 80.403 99.5488 81.0302 99.258 81.7971ZM67.6664 81.3928C67.1771 81.5689 67.3098 82.0212 68.0991 82.8715C69.8958 84.8077 69.5005 87.4522 67.3606 87.813C66.5222 87.9544 66.3509 87.5368 66.3509 85.3515C66.3509 82.8819 65.7191 81.9824 64.9085 83.2989C64.7123 83.6175 64.8491 83.8781 65.212 83.8781C65.6597 83.8781 65.8103 85.0897 65.6787 87.6439C65.5726 89.7151 65.7053 91.4092 65.9736 91.4086C67.0588 91.4057 69.7994 88.9477 70.6695 87.1962C71.326 85.8757 71.4801 84.6519 71.1968 83.0116C70.9764 81.7363 70.6839 81.0164 70.5466 81.4119C70.3827 81.8828 69.9644 81.9598 69.3332 81.6349C68.8036 81.3621 68.0535 81.2532 67.6664 81.3928ZM82.5059 81.4791C82.5059 81.8 83.0177 82.2257 83.6437 82.4249C85.0486 82.8726 88.8358 87.2304 88.8981 88.471C88.9229 88.9708 89.2119 88.6407 89.5397 87.7372C89.9545 86.595 89.9505 85.907 89.5264 85.4813C89.0983 85.0515 89.01 85.282 89.2287 86.2562C89.4468 87.2263 89.2206 87.0346 88.4752 85.6185C87.4487 83.6684 82.5059 80.2403 82.5059 81.4791ZM96.353 81.5614C95.6134 82.0409 95.6341 82.1243 96.4973 82.1319C97.0529 82.1365 97.507 81.8799 97.507 81.5614C97.507 80.8548 97.4418 80.8548 96.353 81.5614ZM105.74 82.5419C106.301 82.689 107.08 82.6792 107.471 82.5205C107.861 82.3618 107.402 82.2419 106.45 82.2535C105.498 82.2651 105.178 82.3948 105.74 82.5419ZM83.9506 83.8318C84.3049 84.4445 84.1814 84.5598 83.466 84.2841C81.911 83.6852 82.3686 84.788 83.9806 85.5253C84.7918 85.896 85.2978 86.456 85.1045 86.7699C84.898 87.1053 85.1553 87.1852 85.73 86.964C86.6248 86.6194 86.6156 86.5209 85.6157 85.7871C85.0163 85.3469 84.5253 84.759 84.5253 84.4804C84.5253 84.2024 84.2887 83.7576 84.0002 83.4918C83.6887 83.2057 83.6685 83.3441 83.9506 83.8318ZM69.9038 85.0364C69.9038 85.8328 70.0348 86.1589 70.1946 85.7604C70.355 85.3625 70.355 84.7109 70.1946 84.3125C70.0348 83.9146 69.9038 84.2401 69.9038 85.0364ZM95.1027 87.0636C95.0502 87.86 94.985 88.9419 94.9585 89.4672C94.9048 90.5375 97.2335 91.1613 97.807 90.2305C98.1284 89.7081 96.0299 85.6156 95.4403 85.6156C95.3076 85.6156 95.1558 86.2672 95.1027 87.0636ZM71.8759 87.9324C72.2428 89.3508 74.8375 92.5658 75.6152 92.5658C76.1224 92.5658 77.5694 87.4169 77.1736 87.0201C77.0091 86.8551 76.7039 87.6352 76.4945 88.7536C76.2856 89.8726 75.9273 90.9041 75.6977 91.046C75.0515 91.4474 73.5577 90.1367 72.48 88.222C71.6151 86.6865 71.5453 86.6529 71.8759 87.9324ZM103.082 87.8275C102.182 88.8266 102.297 88.95 105.309 90.2033C108.704 91.616 110.241 91.4978 110.133 89.8327C110.07 88.866 110.05 88.8648 109.803 89.8147C109.477 91.0628 109.011 91.0866 107.57 89.9276C106.494 89.0623 106.501 89.0519 107.748 89.6583C108.87 90.2039 109.046 90.1333 109.046 89.1382C109.046 88.3013 108.456 87.8223 106.883 87.3839C104.095 86.6066 104.194 86.595 103.082 87.8275ZM47.3566 88.27C47.3843 88.9448 47.5211 89.082 47.7051 88.6204C47.8719 88.2023 47.8511 87.7024 47.6596 87.5101C47.468 87.3178 47.3318 87.6596 47.3566 88.27ZM82.8082 88.621C83.0125 89.1591 82.9057 90.0713 82.5717 90.6481C82.2376 91.225 81.956 91.4017 81.9462 91.0408C81.937 90.6794 81.4097 90.2479 80.775 90.0811C79.9396 89.8622 79.6211 90.0637 79.6211 90.8115C79.6211 92.1552 81.0969 93.3674 82.2099 92.9382C82.6899 92.7535 83.0829 92.8363 83.0829 93.123C83.0829 93.4091 82.499 93.7462 81.7847 93.8719C80.5759 94.0838 80.5615 94.1331 81.5799 94.5854C83.8727 95.6036 85.1213 90.314 83.0696 88.2718C82.6126 87.8171 82.5405 87.9144 82.8082 88.621ZM100.205 89.8147C100.456 90.2132 100.666 90.7124 100.672 90.925C100.676 91.137 100.917 91.5279 101.205 91.7938C101.517 92.0799 101.538 91.9229 101.257 91.4075C100.976 90.892 100.997 90.735 101.309 91.0217C101.598 91.287 101.86 92.0689 101.891 92.7593C102.015 95.482 102.182 95.8266 103.855 96.8182C105.833 97.9916 106.74 97.6904 106.736 95.8619C106.733 93.7763 104.607 90.918 102.359 89.9746C99.8056 88.9036 99.6198 88.8903 100.205 89.8147ZM98.9701 96.4753C99.2454 97.9163 99.1288 98.3576 98.4722 98.3576C97.2831 98.3576 97.9137 100.542 99.3221 101.299C101.845 102.654 102.242 100.337 100.075 96.9097L98.6101 94.5929L98.9701 96.4753ZM105.333 95.6314C105.55 96.2025 105.872 96.5239 106.05 96.3456C106.228 96.1677 106.051 95.7003 105.656 95.3071C105.086 94.7395 105.02 94.8061 105.333 95.6314ZM95.5141 96.839C95.6907 97.7559 95.6699 99.2612 95.468 100.184C95.1622 101.581 94.8443 101.834 93.5634 101.702C92.4724 101.589 91.9202 101.123 91.6612 100.095C91.3254 98.7607 91.2913 98.7909 91.2284 100.482C91.124 103.297 91.6669 104.149 93.564 104.149C94.5523 104.149 95.1177 104.393 94.9106 104.729C94.3683 105.61 95.0047 105.42 96.0236 104.398C97.1654 103.251 97.1717 99.253 96.0351 96.9097L95.1928 95.1721L95.5141 96.839ZM113.708 98.6953C113.735 99.37 113.872 99.5073 114.056 99.0457C114.223 98.6275 114.202 98.1277 114.01 97.9354C113.819 97.7431 113.683 98.0848 113.708 98.6953ZM104.431 98.6003C104.431 98.8123 104.966 99.5606 105.62 100.264C106.722 101.449 106.779 101.458 106.401 100.385C106.056 99.4094 106.119 99.3469 106.798 99.9892C107.484 100.64 107.442 100.872 106.512 101.561C105.912 102.006 105.183 102.45 104.893 102.547C103.97 102.856 105.015 104.546 106.569 105.257C108.742 106.251 109.408 105.329 108.563 102.499C107.972 100.517 106.161 98.0501 106.161 99.2264C106.161 99.4639 105.772 99.3336 105.296 98.9368C104.82 98.5401 104.431 98.3889 104.431 98.6003ZM99.5286 104.584C99.8142 106.038 99.7917 106.063 99.2696 104.873C98.4907 103.098 97.9783 103.215 98.6592 105.013C98.9598 105.807 99.0648 106.914 98.8934 107.475C98.7215 108.035 98.9794 107.842 99.4658 107.045C100.478 105.39 100.677 102.991 99.8039 102.991C99.4715 102.991 99.3515 103.683 99.5286 104.584ZM102.708 105.018C102.689 105.892 102.56 105.983 102.186 105.391C101.894 104.928 101.547 104.836 101.343 105.169C101.152 105.479 101.504 106.193 102.124 106.757C103.129 107.67 103.29 107.682 103.601 106.87C103.793 106.368 103.676 105.486 103.342 104.909C102.771 103.922 102.733 103.928 102.708 105.018ZM111.821 106.756C112.016 108.426 111.868 108.786 110.984 108.801C109.96 108.819 109.961 108.858 111.032 109.67C113.626 111.639 115.002 109.865 113.316 106.724C111.956 104.188 111.524 104.197 111.821 106.756ZM100.437 107.383C100.465 108.058 100.602 108.195 100.786 107.733C100.953 107.315 100.932 106.815 100.74 106.623C100.549 106.431 100.413 106.773 100.437 107.383ZM105.605 108.278C105.575 108.811 107.293 112.837 107.55 112.837C107.67 112.837 107.923 112.433 108.113 111.938C108.337 111.351 108.224 111.183 107.788 111.454C107.326 111.741 107.248 111.532 107.536 110.778C107.765 110.178 107.758 109.883 107.52 110.122C107.282 110.361 106.758 109.962 106.356 109.235C105.954 108.509 105.616 108.078 105.605 108.278ZM109.517 111.942C109.362 113.276 109.475 113.797 109.841 113.43C110.207 113.062 110.662 113.08 111.142 113.48C112.291 114.437 113.206 113.566 112.481 112.206C112.146 111.58 111.62 111.224 111.311 111.416C111.002 111.608 110.82 111.452 110.907 111.07C110.994 110.688 110.771 110.266 110.411 110.132C110.024 109.989 109.658 110.728 109.517 111.942ZM105.519 113.706C105.325 114.024 104.984 115.067 104.761 116.023C104.384 117.633 104.424 117.691 105.308 116.821C105.832 116.304 106.174 115.262 106.066 114.504C105.959 113.746 105.713 113.387 105.519 113.706ZM106.784 115.492C106.812 116.166 106.948 116.304 107.132 115.842C107.299 115.424 107.278 114.924 107.087 114.732C106.895 114.539 106.759 114.881 106.784 115.492ZM110.669 114.97C111.085 115.138 111.583 115.117 111.775 114.925C111.966 114.732 111.626 114.596 111.018 114.62C110.346 114.648 110.209 114.786 110.669 114.97ZM115.05 119.877C114.823 120.244 114.885 120.392 115.188 120.204C115.491 120.016 116.045 120.354 116.419 120.956C116.876 121.69 116.905 122.172 116.507 122.419C116.111 122.664 116.138 123.057 116.589 123.604C118.279 125.648 118.852 123.741 117.397 120.917C116.465 119.107 115.725 118.779 115.05 119.877ZM115.164 121.428C115.001 121.694 115.233 121.911 115.681 121.911C116.13 121.911 116.362 121.694 116.199 121.428C116.036 121.163 115.803 120.946 115.681 120.946C115.56 120.946 115.327 121.163 115.164 121.428Z" fill="#B6BE9A"></path></svg> 