<?xml version="1.0" encoding="UTF-8"?> <svg xmlns="http://www.w3.org/2000/svg" width="289" height="65" fill="none"><path fill="#727762" d="M12.59 22.54q1.861-2.94 5.095-5.047 3.285-2.156 7.35-3.038-.391-.637-.392-1.568 0-2.058 1.323-3.773 1.324-1.715 3.381-2.89 2.058-1.226 4.557-1.863a19.2 19.2 0 0 1 4.998-.686q1.764 0 3.234.343 1.52.294 2.597 1.03a5.07 5.07 0 0 1 1.764 1.763q.637 1.079.637 2.597 0 2.696-2.45 5.243t-6.517 4.508q-4.065 1.96-9.359 3.185-5.242 1.176-10.878 1.176a25 25 0 0 1-3.136-.196q-.685 1.275-1.078 2.695a10.1 10.1 0 0 0-.392 2.793q0 2.205.54 3.724.539 1.47 1.665 2.45a31 31 0 0 1 3.626-4.116 28 28 0 0 1 4.263-3.283 23 23 0 0 1 4.557-2.156q2.303-.784 4.46-.784 1.861 0 3.086.882 1.275.833 1.274 2.597 0 1.96-1.519 3.626t-3.822 2.891a21.5 21.5 0 0 1-4.9 1.911q-2.645.686-4.85.686-3.774 0-6.469-1.029a27 27 0 0 0-2.597 4.9 17 17 0 0 0-1.127 5.145h-.44a16.5 16.5 0 0 1 1.077-5.243 26.2 26.2 0 0 1 2.646-4.998q-2.008-.93-3.136-2.597-1.077-1.715-1.078-4.459 0-1.567.441-3.087a13 13 0 0 1 1.274-2.94 26 26 0 0 1-4.606-1.42 15.9 15.9 0 0 1-3.92-2.45 11.6 11.6 0 0 1-2.744-3.43q-1.029-2.01-1.029-4.558 0-2.107.882-3.87a9.2 9.2 0 0 1 2.352-2.99Q4.7 2.94 6.611 2.254a11.7 11.7 0 0 1 3.97-.686q2.94 0 4.703 1.176 1.814 1.127 2.646 3.185l-.44.147q-.834-2.01-2.5-3.038-1.665-1.078-4.459-1.078a9.6 9.6 0 0 0-3.724.735 9.2 9.2 0 0 0-2.989 1.911A9.7 9.7 0 0 0 1.76 7.497a8.8 8.8 0 0 0-.735 3.577q0 2.45.931 4.361a11.1 11.1 0 0 0 2.5 3.283Q6.023 20.14 8.13 21.12a22.2 22.2 0 0 0 4.46 1.421m17.64-5.733q-1.766 0-2.94-.49-1.177-.49-1.863-1.274-3.185.98-5.978 3.038-2.793 2.01-4.41 4.802 1.373.147 2.891.147 5.929 0 11.123-1.127 5.194-1.176 9.016-3.087 3.871-1.91 6.076-4.36 2.254-2.45 2.254-5.048 0-1.42-.588-2.4a4.65 4.65 0 0 0-1.617-1.667q-1.028-.638-2.45-.93-1.371-.295-3.038-.295-1.96 0-4.018.686a13.9 13.9 0 0 0-3.773 1.813 11.3 11.3 0 0 0-2.793 2.793q-1.077 1.617-1.078 3.48 0 .636.147 1.224a19.5 19.5 0 0 1 2.793-.196q1.03 0 1.862.294.882.294.882.98 0 .834-.833 1.225a3.9 3.9 0 0 1-1.666.392m2.106 8.281q-2.058 0-4.312.784a21.6 21.6 0 0 0-4.36 2.156 29 29 0 0 0-4.166 3.234 30.4 30.4 0 0 0-3.577 4.067q1.08.784 2.597 1.127 1.52.343 3.48.343 2.107 0 4.507-.637a19.6 19.6 0 0 0 4.508-1.764q2.059-1.127 3.381-2.744 1.372-1.617 1.372-3.528 0-1.568-1.078-2.303-1.029-.735-2.352-.735m-2.352-10.73q-.685 0-1.323.097-.587.05-1.274.147.344.735 1.03 1.274.686.49 1.812.49.588 0 1.127-.245.588-.245.588-.882 0-.54-.735-.686a4.5 4.5 0 0 0-1.225-.196m13.833 10.78q-1.274 1.86-2.058 3.478a30 30 0 0 0-1.225 2.842 19 19 0 0 0-.637 1.96q-.147.785-.147.98 0 1.275 1.372 1.274.882 0 1.862-.637a8.5 8.5 0 0 0 1.862-1.568 9.3 9.3 0 0 0 1.42-2.058q.59-1.126.687-2.009-.049-.49-.245-.686a1.3 1.3 0 0 0-.441-.294l-.392-.294q-.196-.147-.196-.588 0-.588.539-1.078.54-.49 1.274-.49.833 0 1.323.588.49.54.49 1.372 0 1.52-.833 3.038a10.4 10.4 0 0 1-2.156 2.646 11.1 11.1 0 0 1-2.842 1.911q-1.568.687-2.99.686-1.86 0-2.4-.686-.54-.735-.54-1.715.001-1.372.98-3.626 1.03-2.303 2.647-4.9a79 79 0 0 1 3.724-5.292 58 58 0 0 1 4.214-4.85q2.156-2.157 4.165-3.529t3.479-1.372q.882 0 1.519.441t.637 1.372q0 1.078-1.078 2.842-1.078 1.715-3.038 3.626-1.96 1.863-4.753 3.675-2.793 1.764-6.223 2.94m11.368-13.77q-.98 0-2.352 1.274-1.323 1.275-2.842 3.234A86 86 0 0 0 47 20.14 446 446 0 0 0 44.16 24.5l.049.05q3.136-1.128 5.439-2.745t3.822-3.283q1.52-1.714 2.254-3.283.784-1.617.784-2.646 0-.49-.343-.833-.294-.392-.98-.392m3.018 14.406q1.324 0 2.107.49.834.441.833 1.617.001.686-.784 1.617-.783.882-3.038 2.01-.98.489-1.568.93-.539.392-.833.784a1.85 1.85 0 0 0-.392.686 3.6 3.6 0 0 0-.049.588q.05.686 1.03.784a5.8 5.8 0 0 0 1.714-.147 5.5 5.5 0 0 0 1.568-.686q.784-.54 1.666-1.42a36 36 0 0 0 2.107-2.206l.343.245q-1.126 1.226-2.058 2.205a11.3 11.3 0 0 1-1.813 1.568 8.2 8.2 0 0 1-1.91.98 7.5 7.5 0 0 1-2.157.294q-1.371 0-2.107-.44-.686-.492-.686-1.667t.833-2.058q.883-.93 2.842-1.813 2.99-1.323 2.99-2.45 0-.49-.442-.735-.39-.245-1.029-.245-.685 0-1.519.441-.832.441-1.764 1.127-.882.686-1.813 1.568a29 29 0 0 0-1.666 1.813l-.392-.245a36 36 0 0 1 1.862-2.009 20.5 20.5 0 0 1 2.058-1.813 10.4 10.4 0 0 1 2.058-1.323q1.029-.49 2.01-.49m6.335 6.223q1.617-.294 2.646-.833 1.029-.54 1.617-1.127.588-.636.784-1.225.246-.637.245-1.127 0-.54-.245-.686a.9.9 0 0 0-.588-.196q-1.078 0-2.254 1.52-1.176 1.47-2.205 3.674m1.127 3.43q.49 0 1.078-.098.637-.097 1.52-.588.881-.49 2.008-1.519 1.176-1.03 2.793-2.89l.343.244q-1.617 1.911-2.89 3.038-1.226 1.078-2.255 1.666-1.03.54-1.91.686-.834.195-1.667.196-1.814 0-2.4-.784-.59-.832-.589-1.666 0-1.323.637-2.646a9.4 9.4 0 0 1 1.764-2.45 9.6 9.6 0 0 1 2.5-1.813q1.371-.735 2.841-.735t1.911.588q.441.54.441 1.078 0 1.03-.735 1.862-.686.784-1.764 1.372-1.078.54-2.4.931-1.324.343-2.5.54-.147.292-.245.783a4 4 0 0 0-.098.833q0 .686.441 1.03.49.342 1.176.342m17.301.637q-.833 0-1.421-.343-.54-.392-.539-1.176 0-.54.392-1.372t.98-1.813a8 8 0 0 0-.931-.049 12 12 0 0 0-1.127-.049h-.735a6 6 0 0 0-.735.05l-2.499 3.723q-.343.49-.686.686a1.85 1.85 0 0 1-.735.147h-1.274q-.343 0-.343-.294 0-.146.147-.392.638-.833 1.47-2.009a43 43 0 0 0 1.617-2.303q.784-1.176 1.274-2.107.54-.98.539-1.372 0-.54-.539-.539-.441 0-1.029.392-.588.343-1.274.98-.637.637-1.372 1.421l-1.372 1.568-.392-.196a105 105 0 0 1 1.715-1.862q.833-.93 1.617-1.617.832-.735 1.617-1.127.784-.44 1.519-.44 1.127 0 1.519.391.441.393.441 1.03 0 .979-1.617 3.38.392.05.784.05h2.695q.686-1.079 1.372-2.059.735-1.03 1.274-1.715.294-.392.588-.588.343-.245.98-.245h.784q.392 0 .392.294a.4.4 0 0 1-.049.147q0 .049-.098.245a63 63 0 0 1-1.225 1.813q-.735 1.079-1.519 2.205-.735 1.128-1.274 2.156-.54 1.03-.539 1.568 0 .54.637.54 1.274 0 2.45-1.079 1.176-1.126 3.185-3.479l.343.245-1.568 1.862q-.735.93-1.568 1.666a9 9 0 0 1-1.764 1.225q-.93.441-2.107.441m17.921 0q-.834 0-1.421-.343-.588-.392-.588-1.176 0-1.028.686-2.205.735-1.176 1.372-2.009l-.049-.049a32 32 0 0 1-2.107 2.107 28 28 0 0 1-2.254 1.862q-1.078.785-2.107 1.274-.98.49-1.666.49-1.617 0-1.617-1.274 0-.685.392-1.323t.98-1.47q.441-.638.93-1.274t.883-1.225q.44-.637.686-1.127.245-.54.245-.93 0-.54-.54-.54-.44 0-1.077.392-.588.343-1.323.98-.687.637-1.47 1.421a62 62 0 0 0-1.421 1.568l-.294-.196a105 105 0 0 1 1.715-1.862q.882-.93 1.715-1.617.832-.735 1.617-1.127.833-.44 1.568-.44.98 0 1.42.391.49.392.49 1.078 0 .93-.685 2.058-.638 1.127-1.421 2.156-.735 1.029-1.421 1.911-.637.833-.637 1.274 0 .294.294.294.833 0 2.205-.98a28 28 0 0 0 2.793-2.303 51 51 0 0 0 2.646-2.646q1.225-1.372 1.813-2.156.294-.392.588-.588.342-.245.98-.245h.784q.392 0 .392.294a.4.4 0 0 1-.049.147q0 .049-.098.245-.588.882-1.372 2.01a90 90 0 0 0-1.519 2.253q-.687 1.078-1.176 2.058-.49.93-.49 1.421 0 .54.637.54 1.274 0 2.45-1.079 1.176-1.126 3.185-3.479l.343.245-1.568 1.862q-.735.93-1.568 1.666a9 9 0 0 1-1.764 1.225q-.931.441-2.107.441m17.059-18.228-.098.49v.441q0 .834.49 1.52.49.636 1.862.636 1.42 0 2.695-.882 1.323-.931 2.107-1.91l.392.146q-.54.882-1.225 1.666-.638.784-1.421 1.372a8 8 0 0 1-1.568.98 4 4 0 0 1-1.617.343q-1.275 0-1.911-.784-.637-.833-.637-1.96 0-1.077.539-2.156zm1.029 18.228q-.833 0-1.421-.343-.588-.392-.588-1.176 0-1.028.686-2.205.735-1.176 1.372-2.009l-.049-.049a32 32 0 0 1-2.107 2.107 29 29 0 0 1-2.254 1.862 13.4 13.4 0 0 1-2.107 1.274q-.98.49-1.666.49-1.617 0-1.617-1.274 0-.685.392-1.323a28 28 0 0 1 .98-1.47q.44-.638.931-1.274.489-.636.882-1.225.44-.637.686-1.127.245-.54.245-.93 0-.54-.539-.54-.441 0-1.078.392-.588.343-1.323.98-.687.637-1.47 1.421-.735.785-1.421 1.568l-.294-.196q.881-.98 1.715-1.862.881-.93 1.715-1.617.833-.735 1.617-1.127.833-.44 1.568-.44.98 0 1.421.391.49.392.49 1.078 0 .93-.686 2.058a19 19 0 0 1-1.421 2.156q-.735 1.029-1.421 1.911-.637.833-.637 1.274 0 .294.294.294.833 0 2.205-.98a28 28 0 0 0 2.793-2.303 51 51 0 0 0 2.646-2.646q1.225-1.372 1.813-2.156.294-.392.588-.588.342-.245.98-.245h.784q.392 0 .392.294a.4.4 0 0 1-.049.147q0 .049-.098.245-.589.882-1.372 2.01a90 90 0 0 0-1.519 2.253q-.687 1.078-1.176 2.058-.49.93-.49 1.421 0 .54.637.54 1.274 0 2.45-1.079 1.175-1.126 3.185-3.479l.343.245-1.568 1.862q-.735.93-1.568 1.666a9 9 0 0 1-1.764 1.225q-.931.441-2.107.441m26.653 0q-.834 0-1.421-.343-.588-.392-.588-1.176 0-1.028.686-2.205.735-1.176 1.372-2.009l-.049-.049a32 32 0 0 1-2.107 2.107 29 29 0 0 1-2.254 1.862 13.4 13.4 0 0 1-2.107 1.274q-.98.49-1.666.49-1.617 0-1.617-1.274 0-.685.392-1.323a28 28 0 0 1 .98-1.47q.44-.638.931-1.274.489-.636.882-1.225.44-.637.686-1.127.245-.54.245-.93 0-.54-.539-.54-.442 0-1.078.392-.588.343-1.323.98-.687.637-1.47 1.421-.735.785-1.421 1.568l-.294-.196q.881-.98 1.715-1.862.881-.93 1.715-1.617.832-.735 1.617-1.127.833-.44 1.568-.44.98 0 1.421.391.49.392.49 1.078 0 .93-.686 2.058a19 19 0 0 1-1.421 2.156q-.735 1.029-1.421 1.911-.637.833-.637 1.274 0 .294.294.294.833 0 2.205-.98a28 28 0 0 0 2.793-2.303 51 51 0 0 0 2.646-2.646q1.225-1.372 1.813-2.156.294-.392.588-.588.342-.245.98-.245h.784q.392 0 .392.294a.4.4 0 0 1-.049.147q0 .049-.098.245-.588.882-1.372 2.01a90 90 0 0 0-1.519 2.253q-.687 1.078-1.176 2.058-.49.93-.49 1.421 0 .54.637.54 1.274 0 2.45-1.079 1.175-1.126 3.185-3.479l.343.245-1.568 1.862q-.735.93-1.568 1.666a9 9 0 0 1-1.764 1.225q-.931.441-2.107.441m60.463-2.205q0 .832.294 1.666t1.715 1.225q0-1.814.686-3.822a15.7 15.7 0 0 1 1.911-3.675q1.225-1.715 2.842-2.793 1.617-1.127 3.528-1.127 1.52 0 2.548.833t1.029 2.5q0 1.714-.882 3.282-.833 1.568-2.303 2.793-1.47 1.176-3.43 1.911-1.91.735-4.018.735-.441 0-.833-.049-.343 0-.735-.049v.882l-.294.05a1.5 1.5 0 0 1-.049-.442v-.539q-4.46-.588-4.459-4.459 0-1.715.686-3.626a24 24 0 0 1 1.862-3.773l-1.421.098h-2.45a243 243 0 0 0-3.822 4.802 603 603 0 0 1-3.626 4.753 3.8 3.8 0 0 1-1.078.98q-.539.392-1.274.392-.49 0-.98-.343-.49-.294-.49-.833 0-.735.441-1.813t1.029-2.156a35 35 0 0 1 1.323-2.156 65 65 0 0 1 1.176-1.715q.392-.588.833-1.176.49-.636.931-1.225a46 46 0 0 1-2.058-.44q-.98-.246-1.911-.589l-2.058 2.254a64 64 0 0 1-2.107 2.107 93 93 0 0 1-4.263 4.018 30.6 30.6 0 0 1-4.214 3.136 21 21 0 0 1-4.557 2.01q-2.401.735-5.341.734-2.499 0-4.557-.588-2.009-.54-3.479-1.617a7.3 7.3 0 0 1-2.254-2.646q-.784-1.568-.784-3.577 0-2.89 1.372-5.243a13.6 13.6 0 0 1 3.479-3.969 16.4 16.4 0 0 1 4.704-2.548q2.548-.882 4.949-.882 1.617 0 3.038.441 1.47.441 2.548 1.274a5.8 5.8 0 0 1 1.715 1.96q.637 1.176.637 2.646a7.55 7.55 0 0 1-.784 3.332q-.735 1.569-2.107 2.842-1.323 1.225-3.234 2.01-1.862.735-4.067.734a10.4 10.4 0 0 1-1.715-.147 5.5 5.5 0 0 1-1.568-.637 4.7 4.7 0 0 1-1.274-1.127q-.539-.735-.784-1.764l.343-.098q.588 1.863 1.911 2.597 1.323.735 3.185.735a9.7 9.7 0 0 0 3.626-.686q1.715-.685 2.989-1.813a8.4 8.4 0 0 0 2.009-2.646 7.3 7.3 0 0 0 .735-3.234q0-1.665-.637-2.793a4.8 4.8 0 0 0-1.617-1.813 6.9 6.9 0 0 0-2.352-.98 12.6 12.6 0 0 0-2.744-.294q-2.646 0-4.998.98a13.4 13.4 0 0 0-4.165 2.597q-1.764 1.666-2.842 3.97-1.029 2.253-1.029 4.948 0 1.616.588 2.99a6.64 6.64 0 0 0 1.764 2.4q1.226 1.029 3.087 1.617 1.911.588 4.557.588 2.548 0 4.802-.735a19.3 19.3 0 0 0 4.41-2.058 32.3 32.3 0 0 0 4.165-3.136 92 92 0 0 0 4.312-3.969q.98-.98 1.96-2.009l1.96-2.156q-2.205-.93-3.577-2.45-1.323-1.519-1.323-3.87 0-2.55 1.372-4.215 1.421-1.714 3.577-2.695 2.156-1.03 4.753-1.42a30 30 0 0 1 4.998-.442q1.96 0 4.165.147a24 24 0 0 1 2.009-1.715 36 36 0 0 1 2.009-1.519q.49-.343 1.029-.588a2.6 2.6 0 0 1 1.078-.245q.931 0 1.47.392.588.343.588 1.127 0 .54-.49 1.225-.392.637-.735 1.078a8 8 0 0 1-.686.882l4.263.588a38 38 0 0 1 2.891-2.058 29 29 0 0 1 3.038-1.715 17.5 17.5 0 0 1 2.989-1.225q1.52-.49 2.842-.49a48 48 0 0 1 8.281-3.283A30.2 30.2 0 0 1 245.144 0q.98 0 2.646.196 1.715.195 3.381.833a7.7 7.7 0 0 1 2.842 1.862q1.225 1.176 1.225 3.185 0 1.96-1.568 3.381-1.567 1.42-4.116 2.352-2.499.931-5.635 1.421a45 45 0 0 1-6.223.441h-1.666q-.784 0-1.568-.049-1.274 2.353-4.116 4.263-2.793 1.911-6.37 3.381a56 56 0 0 1-7.497 2.401q-3.92.98-7.448 1.421-1.372 2.45-2.156 4.704-.784 2.205-.784 4.067M245.193.49q-3.969 0-7.938 1.127a41.2 41.2 0 0 0-7.595 2.99q2.793.293 4.214 1.91 1.47 1.568 1.47 3.724a6.3 6.3 0 0 1-.294 1.911h1.225q2.94 0 6.174-.245 3.234-.294 5.929-.98 2.744-.686 4.508-1.91 1.764-1.226 1.764-3.137 0-1.715-1.127-2.744a7.4 7.4 0 0 0-2.597-1.666 13 13 0 0 0-3.136-.784q-1.617-.195-2.597-.196m-26.705 12.201a86 86 0 0 0-5.047 5.831q-2.402 3.038-4.116 6.076 3.332-.44 7.105-1.372a55 55 0 0 0 7.203-2.303q3.478-1.371 6.174-3.185 2.744-1.862 4.018-4.165a84 84 0 0 1-7.399-.784 197 197 0 0 1-6.811-1.176zm-23.079 7.301q2.254-2.499 4.851-5.34a83 83 0 0 1 5.292-5.39 41 41 0 0 0-1.911-.148 34 34 0 0 0-1.862-.049q-2.744 0-5.292.49-2.499.441-4.459 1.47-1.911.98-3.087 2.597-1.176 1.569-1.176 3.871 0 2.107 1.274 3.528t3.43 2.303q.735-.832 1.421-1.666.735-.832 1.519-1.666m21.658 5.733q-1.715 0-3.283 1.03-1.568.979-2.744 2.596a13.6 13.6 0 0 0-1.862 3.626q-.685 1.96-.735 3.871.588.147 1.519.147a8.1 8.1 0 0 0 3.675-.882 11.5 11.5 0 0 0 3.087-2.107q1.373-1.275 2.205-2.744t.833-2.744q0-2.793-2.695-2.793m11.809-20.727q-4.606 2.45-8.134 5.537l7.301 1.03q3.479.44 6.419.538a6 6 0 0 0 .294-1.91q0-2.01-1.47-3.529-1.42-1.567-4.41-1.666M206.483 9.31a92 92 0 0 0-6.811 6.958q-3.234 3.675-6.566 7.35.932.343 1.911.588.98.196 2.058.392a173 173 0 0 1 6.027-7.448q3.185-3.773 6.272-7.448l-1.47-.196q-.686-.097-1.421-.196m-4.508 15.73a168 168 0 0 1 6.125-7.106 83 83 0 0 1 6.664-6.419q.196-.195.392-.343.197-.147.441-.343l-3.822-.735a54 54 0 0 1-1.421 1.715 239 239 0 0 0-2.205 2.646 579 579 0 0 0-3.43 4.214 397 397 0 0 0-4.998 6.223zm13.769-13.574a64 64 0 0 0-6.909 6.42 162 162 0 0 0-6.174 7.153h2.254q.735 0 1.519-.098a47 47 0 0 1 2.352-3.528 73 73 0 0 1 2.401-2.989 69 69 0 0 1 3.283-3.626 65 65 0 0 1 3.773-3.479l-1.862-.343a1.3 1.3 0 0 0-.343.245 2 2 0 0 1-.294.245m-16.317 13.867q-.539.686-1.127 1.421-.539.686-1.127 1.421a31 31 0 0 0-1.568 2.156q-.784 1.127-1.421 2.156a19 19 0 0 0-1.029 1.862q-.392.785-.392 1.127 0 .195.245.196.637 0 1.372-.98.49-.588.931-1.176l.882-1.176q1.372-1.764 2.695-3.479 1.372-1.715 2.744-3.38zm20.041-14.945a55.5 55.5 0 0 1 7.84-5.243q-1.176.196-2.499.735-1.274.49-2.548 1.176-1.273.686-2.499 1.52a83 83 0 0 0-2.205 1.518zM206.973 8.87q.686.05 1.421.098.735.05 1.47.147l1.911-2.303q.588-.735.588-1.176 0-.245-.343-.245-.588 0-1.568.686l-1.764 1.372q-.882.686-1.715 1.421m24.086 17.738q-1.077 0-2.205.882a13 13 0 0 0-2.107 2.107 13.4 13.4 0 0 0-1.568 2.5q-.588 1.322-.588 2.204 0 .343.147.784.148.392.931.392.638 0 1.323-.44.735-.442 1.47-1.128.736-.686 1.372-1.519.686-.832 1.274-1.666.54-.783.931-1.568.441-.784.441-1.323 0-.686-.441-.93a1.73 1.73 0 0 0-.98-.295m2.744.49q.294-.392.588-.637t.882-.245h.931q.392 0 .392.294a.4.4 0 0 1-.049.147q0 .049-.098.245a39 39 0 0 1-1.225 1.764 39 39 0 0 0-1.519 2.254q-.735 1.128-1.323 2.156-.539.98-.539 1.52 0 .587.539.587 1.274 0 2.45-1.078 1.176-1.126 3.185-3.479l.343.245-1.568 1.862q-.734.93-1.568 1.666a9 9 0 0 1-1.764 1.225q-.93.441-2.107.441-.833 0-1.421-.294-.588-.343-.588-1.127 0-.245.098-.588.147-.392.441-.833v-.049q-1.273 1.42-2.499 2.205-1.176.735-2.646.735t-2.009-.637a2.28 2.28 0 0 1-.49-1.42q0-1.324.735-2.745a10.9 10.9 0 0 1 2.009-2.597 10.6 10.6 0 0 1 2.744-1.91q1.52-.735 3.038-.736 1.226 0 1.862.441.637.392.931.931zm14.201 8.967q-.834 0-1.421-.343-.588-.392-.588-1.176 0-.637.343-1.372a9.4 9.4 0 0 1 .882-1.568q.539-.784 1.127-1.568a79 79 0 0 1 1.127-1.47q.539-.784.539-1.078 0-.588-.784-.588-1.03 0-2.254 1.078a19.7 19.7 0 0 0-2.303 2.548 41 41 0 0 0-2.009 2.891q-.882 1.47-1.372 2.303l-14.259 23.961q-.393.588-.931 1.421-.54.882-1.176 1.666a9 9 0 0 1-1.372 1.372q-.687.588-1.323.588-.834 0-1.078-.49-.245-.44-.245-1.078 0-1.127.882-2.89a90 90 0 0 1 1.813-3.529 295 295 0 0 1 4.41-7.693 416 416 0 0 1 4.753-7.889 519 519 0 0 1 4.802-7.693 475 475 0 0 1 4.704-7.203l-4.165 4.851-.343-.245q1.862-2.205 3.773-4.459a115 115 0 0 0 3.969-4.949l.637-.93q.832-1.177 1.911-1.177h.441q.392 0 .392.294a.4.4 0 0 1-.049.147q0 .049-.098.245l-1.96 3.038q-.736 1.128-2.107 3.283t-3.136 4.95a807 807 0 0 0-3.773 5.928 650 650 0 0 0-3.969 6.37 658 658 0 0 0-3.822 6.223 262 262 0 0 0-3.283 5.488 243 243 0 0 0-2.352 4.214q-.932 1.715-1.029 2.303a5 5 0 0 0-.098.588q0 .54.392.54.538 0 1.225-.932.637-.882 1.96-3.087a956 956 0 0 0 7.105-11.809q3.478-5.83 6.958-11.71.735-1.275 1.764-2.892a32 32 0 0 1 2.205-3.136q1.224-1.47 2.597-2.45 1.371-1.029 2.793-1.029.882 0 1.47.441t.588 1.274q0 .735-.637 1.715-.588.93-1.323 1.96a172 172 0 0 1-1.323 1.862q-.588.882-.588 1.47 0 .54.637.54 1.274 0 2.45-1.079 1.175-1.126 3.185-3.479l.343.245-1.568 1.862q-.735.93-1.568 1.666a9 9 0 0 1-1.764 1.225q-.931.441-2.107.441m18.066 0q-.833 0-1.421-.343-.588-.392-.588-1.176 0-1.028.686-2.205.735-1.176 1.372-2.009l-.049-.049a32 32 0 0 1-2.107 2.107 28 28 0 0 1-2.254 1.862q-1.078.785-2.107 1.274-.98.49-1.666.49-1.617 0-1.617-1.274 0-.685.392-1.323.393-.637.98-1.47.441-.638.931-1.274t.882-1.225q.441-.637.686-1.127.245-.54.245-.93 0-.54-.539-.54-.44 0-1.078.392-.588.343-1.323.98-.685.637-1.47 1.421-.735.785-1.421 1.568l-.294-.196a107 107 0 0 1 1.715-1.862q.882-.93 1.715-1.617.834-.735 1.617-1.127.834-.44 1.568-.44.98 0 1.421.391.49.392.49 1.078 0 .93-.686 2.058-.636 1.127-1.421 2.156-.735 1.029-1.421 1.911-.637.833-.637 1.274 0 .294.294.294.834 0 2.205-.98a28 28 0 0 0 2.793-2.303 50 50 0 0 0 2.646-2.646q1.225-1.372 1.813-2.156.294-.392.588-.588.344-.245.98-.245h.784q.393 0 .392.294a.4.4 0 0 1-.049.147q0 .049-.098.245-.588.882-1.372 2.01a93 93 0 0 0-1.519 2.253 23 23 0 0 0-1.176 2.058q-.49.93-.49 1.421 0 .54.637.54 1.275 0 2.45-1.079 1.176-1.126 3.185-3.479l.343.245-1.568 1.862q-.735.93-1.568 1.666a9 9 0 0 1-1.764 1.225q-.93.441-2.107.441m14.854-9.849q-.637 0-1.274.392t-1.127.98a6.6 6.6 0 0 0-.833 1.274q-.294.686-.294 1.274 0 .784.833.784.588 0 1.274-.44a7.7 7.7 0 0 0 1.274-1.03 5.3 5.3 0 0 0 .931-1.225q.392-.637.392-1.029 0-.54-.392-.735a1.3 1.3 0 0 0-.784-.245m.049 9.85q-.931 0-1.519-.344-.539-.392-.539-1.127 0-.54.245-1.274.294-.735 1.176-2.303h-.049q-.49.686-1.274 1.52-.735.833-1.274 1.371-1.568 1.42-2.989 1.862-1.373.441-2.499.441-.98 0-1.519-.44-.539-.492-.539-1.373 0-1.03.539-1.96.588-.98 1.372-1.42.785-.491 1.617-.344.882.098.98 1.323.05.44-.441.98-.49.54-.931.54-.49 0-.686-.344-.147-.392-.539-.44-.245 0-.784.44-.49.441-.49 1.274 0 .441.343.882.343.392 1.029.392.98 0 2.254-.343 1.273-.391 3.087-2.009.539-.54 1.274-1.323.735-.784 1.225-1.42-1.079.783-2.352.783-1.078 0-1.813-.392-.686-.44-.686-1.274 0-.686.392-1.372a4 4 0 0 1 1.078-1.274q.686-.588 1.666-.93a6.5 6.5 0 0 1 2.156-.344q1.078 0 1.715.441.686.393.833.784h.098q.343-.44.588-.637.294-.195.735-.196h1.078q.392 0 .392.294a.4.4 0 0 1-.049.147q0 .049-.098.245-.588.882-1.372 2.01a90 90 0 0 0-1.519 2.253 29 29 0 0 0-1.176 2.01q-.49.93-.49 1.42 0 .588.686.588 1.274 0 2.548-1.029 1.274-1.078 3.283-3.43l.343.245-1.568 1.862a15.6 15.6 0 0 1-1.666 1.617q-.833.735-1.813 1.176a5.2 5.2 0 0 1-2.156.441z"></path></svg> 