<?xml version="1.0" encoding="UTF-8"?> <svg xmlns="http://www.w3.org/2000/svg" width="75" height="87" viewBox="0 0 75 87" fill="none"><path d="M24.666 23.664C25.6287 22.144 26.946 20.8393 28.618 19.75C30.3153 18.6353 32.2153 17.85 34.318 17.394C34.1153 17.0647 34.014 16.6593 34.014 16.178C34.014 15.114 34.356 14.1387 35.04 13.252C35.724 12.3653 36.598 11.618 37.662 11.01C38.726 10.3767 39.904 9.89533 41.196 9.566C42.5133 9.21133 43.8053 9.034 45.072 9.034C45.984 9.034 46.82 9.12267 47.58 9.3C48.3653 9.452 49.0367 9.718 49.594 10.098C50.1767 10.4527 50.6327 10.9087 50.962 11.466C51.2913 12.0233 51.456 12.6947 51.456 13.48C51.456 14.8733 50.8227 16.2287 49.556 17.546C48.2893 18.8633 46.6047 20.0287 44.502 21.042C42.3993 22.0553 39.98 22.8787 37.244 23.512C34.5333 24.12 31.7213 24.424 28.808 24.424C28.4027 24.424 27.9973 24.4113 27.592 24.386C27.1867 24.3607 26.7813 24.3227 26.376 24.272C26.0213 24.9307 25.7427 25.6273 25.54 26.362C25.3373 27.0713 25.236 27.7933 25.236 28.528C25.236 29.668 25.3753 30.6307 25.654 31.416C25.9327 32.176 26.3633 32.8093 26.946 33.316C27.782 32.176 28.7193 31.112 29.758 30.124C30.822 29.136 31.924 28.2873 33.064 27.578C34.2293 26.8687 35.4073 26.3113 36.598 25.906C37.7887 25.5007 38.9413 25.298 40.056 25.298C41.0187 25.298 41.8167 25.526 42.45 25.982C43.1087 26.4127 43.438 27.084 43.438 27.996C43.438 29.0093 43.0453 29.9467 42.26 30.808C41.4747 31.6693 40.4867 32.4167 39.296 33.05C38.1307 33.6833 36.864 34.1773 35.496 34.532C34.128 34.8867 32.874 35.064 31.734 35.064C29.7833 35.064 28.1113 34.798 26.718 34.266C25.9073 35.482 25.236 36.7487 24.704 38.066C24.1973 39.3833 23.906 40.7133 23.83 42.056H23.488C23.5387 40.688 23.8173 39.3327 24.324 37.99C24.856 36.6473 25.54 35.3553 26.376 34.114C25.3373 33.6327 24.5267 32.9613 23.944 32.1C23.3867 31.2133 23.108 30.0607 23.108 28.642C23.108 27.8313 23.222 27.0333 23.45 26.248C23.678 25.4627 24.0073 24.7027 24.438 23.968C23.222 23.7147 22.0313 23.3473 20.866 22.866C19.726 22.3593 18.7127 21.726 17.826 20.966C16.9393 20.206 16.23 19.3193 15.698 18.306C15.166 17.2673 14.9 16.0893 14.9 14.772C14.9 13.6827 15.128 12.682 15.584 11.77C16.04 10.858 16.648 10.0853 17.408 9.452C18.168 8.79333 19.042 8.28666 20.03 7.932C21.018 7.57733 22.044 7.4 23.108 7.4C24.628 7.4 25.844 7.704 26.756 8.312C27.6933 8.89466 28.3773 9.718 28.808 10.782L28.466 10.896C28.0353 9.85733 27.3893 9.072 26.528 8.54C25.6667 7.98267 24.514 7.704 23.07 7.704C22.0567 7.704 21.094 7.894 20.182 8.274C19.2953 8.62866 18.5227 9.12267 17.864 9.756C17.2053 10.3893 16.6733 11.1367 16.268 11.998C15.888 12.8593 15.698 13.784 15.698 14.772C15.698 16.0387 15.9387 17.166 16.42 18.154C16.9013 19.1167 17.5473 19.9653 18.358 20.7C19.1687 21.4347 20.1187 22.0553 21.208 22.562C22.2973 23.0433 23.45 23.4107 24.666 23.664ZM38.346 19.218C37.434 19.218 36.674 19.0913 36.066 18.838C35.458 18.5847 34.9767 18.2553 34.622 17.85C32.9753 18.3567 31.43 19.142 29.986 20.206C28.542 21.2447 27.402 22.486 26.566 23.93C27.2753 24.006 28.0227 24.044 28.808 24.044C31.8733 24.044 34.7487 23.7527 37.434 23.17C40.1193 22.562 42.45 21.764 44.426 20.776C46.4273 19.788 47.998 18.6607 49.138 17.394C50.3033 16.1273 50.886 14.8227 50.886 13.48C50.886 12.7453 50.734 12.1247 50.43 11.618C50.126 11.086 49.708 10.6553 49.176 10.326C48.644 9.99667 48.0107 9.756 47.276 9.604C46.5667 9.452 45.7813 9.376 44.92 9.376C43.9067 9.376 42.868 9.55333 41.804 9.908C40.74 10.2373 39.7647 10.706 38.878 11.314C38.0167 11.922 37.2947 12.644 36.712 13.48C36.1547 14.316 35.876 15.2153 35.876 16.178C35.876 16.5073 35.914 16.824 35.99 17.128C36.3447 17.0773 36.6993 17.0393 37.054 17.014C37.434 16.9887 37.8013 16.976 38.156 16.976C38.688 16.976 39.1693 17.052 39.6 17.204C40.056 17.356 40.284 17.6093 40.284 17.964C40.284 18.3947 40.0687 18.7113 39.638 18.914C39.2073 19.1167 38.7767 19.218 38.346 19.218ZM39.98 25.64C38.916 25.64 37.8013 25.8427 36.636 26.248C35.496 26.6533 34.3687 27.2107 33.254 27.92C32.1393 28.6293 31.0627 29.4653 30.024 30.428C29.0107 31.3907 28.086 32.442 27.25 33.582C27.8073 33.9873 28.4787 34.2787 29.264 34.456C30.0493 34.6333 30.9487 34.722 31.962 34.722C33.0513 34.722 34.2167 34.5573 35.458 34.228C36.7247 33.8987 37.89 33.4427 38.954 32.86C40.018 32.2773 40.892 31.568 41.576 30.732C42.2853 29.896 42.64 28.984 42.64 27.996C42.64 27.1853 42.3613 26.59 41.804 26.21C41.272 25.83 40.664 25.64 39.98 25.64ZM38.156 17.318C37.8013 17.318 37.4593 17.3433 37.13 17.394C36.826 17.4193 36.4967 17.4573 36.142 17.508C36.3193 17.888 36.5853 18.2173 36.94 18.496C37.2947 18.7493 37.7633 18.876 38.346 18.876C38.65 18.876 38.9413 18.8127 39.22 18.686C39.524 18.5593 39.676 18.3313 39.676 18.002C39.676 17.7233 39.486 17.546 39.106 17.47C38.7513 17.3687 38.4347 17.318 38.156 17.318Z" fill="#6F745C"></path><path d="M36.67 58.442C36.67 58.8727 36.746 59.3033 36.898 59.734C37.05 60.1647 37.4933 60.4813 38.228 60.684C38.228 59.7467 38.4053 58.7587 38.76 57.72C39.14 56.6813 39.634 55.7313 40.242 54.87C40.8753 53.9833 41.61 53.2613 42.446 52.704C43.282 52.1213 44.194 51.83 45.182 51.83C45.9673 51.83 46.626 52.0453 47.158 52.476C47.69 52.9067 47.956 53.5527 47.956 54.414C47.956 55.3007 47.728 56.1493 47.272 56.96C46.8413 57.7707 46.246 58.4927 45.486 59.126C44.726 59.734 43.8393 60.228 42.826 60.608C41.838 60.988 40.7993 61.178 39.71 61.178C39.482 61.178 39.2667 61.1653 39.064 61.14C38.8867 61.14 38.6967 61.1273 38.494 61.102V61.786L38.266 61.824C38.2407 61.748 38.228 61.634 38.228 61.482C38.228 61.3553 38.228 61.216 38.228 61.064C35.9227 60.76 34.77 59.6073 34.77 57.606C34.77 56.7193 34.9473 55.782 35.302 54.794C35.682 53.806 36.1633 52.8307 36.746 51.868C36.366 51.8933 35.9987 51.9187 35.644 51.944C35.2893 51.944 34.9473 51.944 34.618 51.944H33.744C32.7307 53.1853 31.7427 54.4267 30.78 55.668C29.8427 56.9093 28.9053 58.138 27.968 59.354C27.7147 59.6833 27.436 59.9367 27.132 60.114C26.8533 60.3167 26.524 60.418 26.144 60.418C25.8907 60.418 25.6373 60.3293 25.384 60.152C25.1307 60 25.004 59.7847 25.004 59.506C25.004 59.126 25.118 58.6573 25.346 58.1C25.574 57.5427 25.84 56.9853 26.144 56.428C26.4733 55.8453 26.8153 55.288 27.17 54.756C27.5247 54.224 27.8287 53.7807 28.082 53.426C28.2847 53.122 28.5 52.818 28.728 52.514C28.9813 52.1847 29.222 51.868 29.45 51.564C28.918 51.4627 28.386 51.3487 27.854 51.222C27.3473 51.0953 26.8533 50.9433 26.372 50.766C25.84 51.3487 25.308 51.9313 24.776 52.514C24.244 53.0713 23.6993 53.616 23.142 54.148C22.002 55.288 20.9 56.3267 19.836 57.264C18.772 58.2013 17.6827 59.012 16.568 59.696C15.4533 60.3547 14.2753 60.874 13.034 61.254C11.7927 61.634 10.412 61.824 8.892 61.824C7.6 61.824 6.422 61.672 5.358 61.368C4.31933 61.0893 3.42 60.6713 2.66 60.114C1.9 59.5567 1.31733 58.8727 0.912 58.062C0.506667 57.2513 0.304 56.3267 0.304 55.288C0.304 53.7933 0.658667 52.438 1.368 51.222C2.07733 50.006 2.97667 48.98 4.066 48.144C5.18067 47.2827 6.39667 46.624 7.714 46.168C9.03133 45.712 10.3107 45.484 11.552 45.484C12.388 45.484 13.1733 45.598 13.908 45.826C14.668 46.054 15.3267 46.3833 15.884 46.814C16.4413 47.2193 16.8847 47.726 17.214 48.334C17.5433 48.942 17.708 49.626 17.708 50.386C17.708 51.2727 17.5053 52.134 17.1 52.97C16.72 53.7807 16.1753 54.5153 15.466 55.174C14.782 55.8073 13.946 56.3267 12.958 56.732C11.9953 57.112 10.944 57.302 9.804 57.302C9.37333 57.302 8.93 57.264 8.474 57.188C8.04333 57.0867 7.638 56.922 7.258 56.694C6.878 56.466 6.54867 56.1747 6.27 55.82C5.99133 55.44 5.78867 54.984 5.662 54.452L5.928 54.376C6.232 55.3387 6.726 56.01 7.41 56.39C8.094 56.77 8.91733 56.96 9.88 56.96C10.868 56.96 11.8053 56.7827 12.692 56.428C13.5787 56.0733 14.3513 55.6047 15.01 55.022C15.6687 54.4393 16.188 53.7553 16.568 52.97C16.948 52.1847 17.138 51.3487 17.138 50.462C17.138 49.6007 16.9733 48.8787 16.644 48.296C16.34 47.7133 15.922 47.2447 15.39 46.89C14.858 46.5353 14.25 46.282 13.566 46.13C12.882 45.978 12.1727 45.902 11.438 45.902C10.07 45.902 8.778 46.1553 7.562 46.662C6.346 47.1433 5.26933 47.8147 4.332 48.676C3.42 49.5373 2.68533 50.5633 2.128 51.754C1.596 52.9193 1.33 54.1987 1.33 55.592C1.33 56.428 1.482 57.2007 1.786 57.91C2.09 58.6193 2.546 59.24 3.154 59.772C3.78733 60.304 4.58533 60.722 5.548 61.026C6.536 61.33 7.714 61.482 9.082 61.482C10.3993 61.482 11.6407 61.292 12.806 60.912C13.9967 60.532 15.1367 60 16.226 59.316C17.3153 58.632 18.392 57.8213 19.456 56.884C20.5453 55.9467 21.66 54.9207 22.8 53.806C23.3067 53.2993 23.8133 52.78 24.32 52.248C24.8267 51.6907 25.3333 51.1333 25.84 50.576C24.7 50.0947 23.7753 49.4613 23.066 48.676C22.382 47.8907 22.04 46.89 22.04 45.674C22.04 44.3567 22.3947 43.2673 23.104 42.406C23.8387 41.5193 24.7633 40.8227 25.878 40.316C26.9927 39.784 28.2213 39.4167 29.564 39.214C30.9067 38.986 32.1987 38.872 33.44 38.872C34.4533 38.872 35.53 38.91 36.67 38.986C37.1767 38.5047 37.696 38.0613 38.228 37.656C38.76 37.2253 39.2793 36.8327 39.786 36.478C40.0393 36.3007 40.3053 36.1487 40.584 36.022C40.8627 35.8953 41.1413 35.832 41.42 35.832C41.9013 35.832 42.2813 35.9333 42.56 36.136C42.864 36.3133 43.016 36.6047 43.016 37.01C43.016 37.2887 42.8893 37.6053 42.636 37.96C42.4333 38.2893 42.2433 38.568 42.066 38.796C41.914 39.024 41.7367 39.252 41.534 39.48L44.84 39.936C45.5493 39.3787 46.2967 38.8467 47.082 38.34C47.8673 37.8333 48.6527 37.39 49.438 37.01C50.2233 36.6047 50.996 36.288 51.756 36.06C52.5413 35.8067 53.276 35.68 53.96 35.68C56.0627 34.616 58.2033 33.7673 60.382 33.134C62.5607 32.5007 64.752 32.184 66.956 32.184C67.4627 32.184 68.1467 32.2347 69.008 32.336C69.8947 32.4373 70.7687 32.6527 71.63 32.982C72.4913 33.3113 73.226 33.7927 73.834 34.426C74.4673 35.034 74.784 35.8573 74.784 36.896C74.784 37.9093 74.3787 38.7833 73.568 39.518C72.7573 40.2527 71.6933 40.8607 70.376 41.342C69.084 41.8233 67.6273 42.1907 66.006 42.444C64.3847 42.672 62.776 42.786 61.18 42.786C60.7493 42.786 60.3187 42.786 59.888 42.786C59.4827 42.786 59.0773 42.7733 58.672 42.748C58.0133 43.964 56.9493 45.066 55.48 46.054C54.036 47.042 52.3893 47.916 50.54 48.676C48.716 49.4107 46.778 50.0313 44.726 50.538C42.6993 51.0447 40.774 51.412 38.95 51.64C38.2407 52.9067 37.6833 54.1227 37.278 55.288C36.8727 56.428 36.67 57.4793 36.67 58.442ZM66.994 32.564C64.942 32.564 62.89 32.8553 60.838 33.438C58.786 34.0207 56.8227 34.7933 54.948 35.756C56.392 35.908 57.4813 36.402 58.216 37.238C58.976 38.0487 59.356 39.0113 59.356 40.126C59.356 40.6327 59.28 41.1267 59.128 41.608H60.078C61.598 41.608 63.194 41.5447 64.866 41.418C66.538 41.266 68.0707 41.0127 69.464 40.658C70.8827 40.3033 72.048 39.8093 72.96 39.176C73.872 38.5427 74.328 37.732 74.328 36.744C74.328 35.8573 74.0367 35.148 73.454 34.616C72.8967 34.0587 72.2253 33.628 71.44 33.324C70.6547 33.02 69.844 32.8173 69.008 32.716C68.172 32.6147 67.5007 32.564 66.994 32.564ZM46.284 42.026C44.916 43.47 43.6113 44.9773 42.37 46.548C41.1287 48.1187 40.0647 49.6893 39.178 51.26C40.9007 51.032 42.7373 50.6773 44.688 50.196C46.6387 49.7147 48.5007 49.1193 50.274 48.41C52.0727 47.7007 53.6687 46.8773 55.062 45.94C56.4807 44.9773 57.5193 43.9007 58.178 42.71C56.1767 42.5833 54.264 42.3807 52.44 42.102C50.6413 41.8233 48.8807 41.5193 47.158 41.19L46.284 42.026ZM28.386 47.688C29.5513 46.396 30.8053 45.0153 32.148 43.546C33.4907 42.0513 34.8587 40.658 36.252 39.366C35.7453 39.3153 35.2513 39.2773 34.77 39.252C34.314 39.2267 33.8327 39.214 33.326 39.214C31.9073 39.214 30.5393 39.3407 29.222 39.594C27.93 39.822 26.7773 40.202 25.764 40.734C24.776 41.2407 23.978 41.912 23.37 42.748C22.762 43.5587 22.458 44.5593 22.458 45.75C22.458 46.8393 22.7873 47.7513 23.446 48.486C24.1047 49.2207 24.9913 49.816 26.106 50.272C26.486 49.8413 26.8533 49.4107 27.208 48.98C27.588 48.5493 27.9807 48.1187 28.386 47.688ZM45.182 52.134C44.2953 52.134 43.4467 52.4 42.636 52.932C41.8253 53.4387 41.116 54.11 40.508 54.946C39.9 55.782 39.4187 56.7193 39.064 57.758C38.7093 58.7713 38.5193 59.772 38.494 60.76C38.798 60.836 39.1907 60.874 39.672 60.874C40.66 60.874 41.61 60.646 42.522 60.19C43.434 59.7593 44.232 59.2147 44.916 58.556C45.6253 57.8973 46.1953 57.188 46.626 56.428C47.0567 55.668 47.272 54.9587 47.272 54.3C47.272 52.856 46.5753 52.134 45.182 52.134ZM54.34 36.06C51.9587 37.3267 49.856 38.758 48.032 40.354C50.008 40.6327 51.8953 40.8987 53.694 41.152C55.4927 41.38 57.152 41.5193 58.672 41.57C58.824 41.114 58.9 40.62 58.9 40.088C58.9 39.0493 58.52 38.1373 57.76 37.352C57.0253 36.5413 55.8853 36.1107 54.34 36.06ZM36.974 39.404C35.15 41.076 33.3893 42.8747 31.692 44.8C30.02 46.7 28.3227 48.6 26.6 50.5C27.0813 50.6773 27.5753 50.8293 28.082 50.956C28.5887 51.0573 29.1207 51.1587 29.678 51.26C31.1473 49.3347 32.7053 47.4093 34.352 45.484C35.9987 43.5333 37.62 41.608 39.216 39.708C38.836 39.6573 38.456 39.6067 38.076 39.556C37.7213 39.5053 37.354 39.4547 36.974 39.404ZM33.478 51.602C35.0487 49.6767 36.632 47.84 38.228 46.092C39.8493 44.344 41.572 42.6847 43.396 41.114C43.4973 41.0127 43.5987 40.924 43.7 40.848C43.8013 40.772 43.9153 40.6833 44.042 40.582L41.078 40.012C40.7993 40.3667 40.432 40.81 39.976 41.342C39.5453 41.8487 38.9753 42.5327 38.266 43.394C37.5567 44.2553 36.67 45.3447 35.606 46.662C34.542 47.954 33.25 49.5627 31.73 51.488L33.478 51.602ZM44.156 41.076C42.256 42.596 40.47 44.2553 38.798 46.054C37.1513 47.8527 35.5553 49.702 34.01 51.602H34.694C35.0233 51.602 35.378 51.602 35.758 51.602C36.138 51.602 36.5307 51.5767 36.936 51.526C37.5187 50.5633 38.1267 49.6513 38.76 48.79C39.4187 47.9287 40.0393 47.156 40.622 46.472C41.4327 45.5093 42.2813 44.572 43.168 43.66C44.08 42.748 45.0553 41.8487 46.094 40.962L44.65 40.696C44.5487 40.7467 44.46 40.81 44.384 40.886C44.308 40.962 44.232 41.0253 44.156 41.076ZM31.502 51.83C31.2233 52.1847 30.932 52.552 30.628 52.932C30.3493 53.2867 30.058 53.654 29.754 54.034C29.3487 54.5407 28.9433 55.098 28.538 55.706C28.1327 56.2887 27.7653 56.846 27.436 57.378C27.1067 57.91 26.8407 58.3913 26.638 58.822C26.4353 59.2273 26.334 59.5187 26.334 59.696C26.334 59.7973 26.3973 59.848 26.524 59.848C26.8533 59.848 27.208 59.5947 27.588 59.088C27.8413 58.784 28.082 58.48 28.31 58.176C28.538 57.872 28.766 57.568 28.994 57.264C29.7033 56.352 30.4 55.4527 31.084 54.566C31.7933 53.6793 32.5027 52.8053 33.212 51.944L31.502 51.83ZM47.044 40.24C48.944 38.72 50.9707 37.3647 53.124 36.174C52.516 36.2753 51.87 36.4653 51.186 36.744C50.5273 36.9973 49.8687 37.3013 49.21 37.656C48.5513 38.0107 47.9053 38.4033 47.272 38.834C46.664 39.2393 46.094 39.632 45.562 40.012L47.044 40.24ZM37.354 39.062C37.7087 39.0873 38.076 39.1127 38.456 39.138C38.836 39.1633 39.216 39.2013 39.596 39.252L41.078 37.466C41.382 37.086 41.534 36.782 41.534 36.554C41.534 36.4273 41.4453 36.364 41.268 36.364C40.964 36.364 40.5587 36.5413 40.052 36.896C39.596 37.2507 39.14 37.6053 38.684 37.96C38.228 38.3147 37.7847 38.682 37.354 39.062Z" fill="#6F745C"></path></svg> 