<?xml version="1.0" encoding="UTF-8"?> <svg xmlns="http://www.w3.org/2000/svg" width="19" height="18" viewBox="0 0 19 18" fill="none"><path d="M10.54 17.0001C10.4946 17.0454 10.4266 17.0681 10.336 17.0681C10.2 17.0681 10.0866 16.9774 9.99597 16.7961C9.9053 16.6147 9.92797 16.4787 10.064 16.3881C13.6906 12.9881 15.504 9.42939 15.504 5.71206C15.504 4.53339 15.232 3.78539 14.688 3.46806L16.592 2.85606C16.6373 3.67206 16.4333 4.30673 15.98 4.76006C15.572 5.16806 15.0053 5.37206 14.28 5.37206C13.4186 5.37206 12.7386 5.12273 12.24 4.62406C11.7866 4.12539 11.56 3.49073 11.56 2.72006C11.56 1.85872 11.832 1.20139 12.376 0.748059C12.9653 0.249393 13.7813 6.03199e-05 14.824 6.03199e-05C15.912 6.03199e-05 16.7733 0.385393 17.408 1.15606C18.088 1.88139 18.428 2.94673 18.428 4.35206C18.428 5.07739 18.3826 5.64406 18.292 6.05206C17.9293 8.09206 17.0906 9.99606 15.776 11.7641C14.5066 13.5321 12.7613 15.2774 10.54 17.0001ZM0.679971 17.0001C0.634638 17.0454 0.566638 17.0681 0.475971 17.0681C0.339971 17.0681 0.226638 16.9774 0.135971 16.7961C0.0453042 16.6147 0.0679709 16.4787 0.203971 16.3881C3.2413 13.6227 5.03197 10.5854 5.57597 7.27606C5.66664 6.55073 5.71197 6.05206 5.71197 5.78006C5.71197 4.64673 5.4173 3.87606 4.82797 3.46806L6.73197 2.85606C6.7773 3.67206 6.5733 4.30673 6.11997 4.76006C5.71197 5.16806 5.1453 5.37206 4.41997 5.37206C3.55864 5.37206 2.9013 5.12273 2.44797 4.62406C1.99464 4.12539 1.76797 3.49073 1.76797 2.72006C1.76797 1.85872 2.03997 1.20139 2.58397 0.748059C3.12797 0.249393 3.9213 6.03199e-05 4.96397 6.03199e-05C6.0973 6.03199e-05 6.9813 0.362726 7.61597 1.08806C8.29597 1.81339 8.63597 2.85606 8.63597 4.21606C8.63597 4.76006 8.56797 5.37206 8.43197 6.05206C8.0693 8.09206 7.23064 9.99606 5.91597 11.7641C4.64664 13.5321 2.9013 15.2774 0.679971 17.0001Z" fill="#8B916E"></path></svg> 