<?xml version="1.0" encoding="UTF-8"?> <svg xmlns="http://www.w3.org/2000/svg" width="49" height="67" viewBox="0 0 49 67" fill="none"><path fill-rule="evenodd" clip-rule="evenodd" d="M19.1474 0.0667723C18.9114 0.3151 17.7198 0.694721 16.4993 0.911466C14.9013 1.19509 14.3031 1.59947 14.3615 2.35746C14.4241 3.16932 14.1209 3.32538 13.0343 3.03866C11.927 2.74698 11.6279 2.91356 11.635 3.81894C11.6403 4.48279 11.8273 4.69706 12.0774 4.32426C12.3175 3.96694 13.3003 3.84619 14.2807 4.05302L16.0504 4.42768L14.0548 4.92062C12.7995 5.23088 12.3258 5.58695 12.7771 5.87987C13.285 6.20932 13.0484 6.71465 11.9707 7.60454C11.1324 8.29688 10.4464 9.31124 10.4464 9.85806C10.4464 11.1356 9.88068 11.1245 8.97873 9.82896C8.06734 8.52044 6.92174 9.23012 7.32641 10.8532C7.53701 11.6998 7.34413 12.0912 6.71589 12.0912C5.5007 12.0912 4.8465 13.2721 5.61455 14.0784C6.48759 14.9949 5.798 16.4285 4.17224 17.0775C2.50402 17.7432 2.32938 19.515 3.88907 19.9435C4.66124 20.1553 4.90606 20.6259 4.69193 21.4861C4.49845 22.2621 4.23123 22.4639 3.97404 22.028C3.34993 20.9678 0.596295 22.2924 0.114939 23.8839C-0.107452 24.619 0.00284565 25.5268 0.359733 25.9015C0.831061 26.3963 1.00803 26.1201 1.00803 24.8909C1.00803 23.0138 2.36124 22.1041 3.57702 23.1631C4.00823 23.539 4.51791 23.682 4.70903 23.4808C4.90075 23.2801 4.91136 23.7006 4.7338 24.4153C4.54681 25.1646 3.93157 25.7151 3.27973 25.7151C2.65385 25.7151 1.92 26.3362 1.63508 27.1085C0.972039 28.9037 2.23382 31.0291 3.85072 30.8408C5.00633 30.7064 5.04235 31.1139 5.26415 46.9418C5.48064 62.3567 5.93189 66.587 7.35885 66.587C7.62372 66.587 7.83197 63.7303 7.82194 60.2394C7.76531 40.8086 8.10036 31.1901 8.82416 31.4489C9.27838 31.6118 9.5102 32.641 9.42821 34.1328C8.89376 43.8102 8.74217 65.4716 9.21585 64.4195C9.70429 63.3352 9.77861 63.4188 9.81518 65.0902C9.84055 66.2569 10.1656 67 10.6511 67C11.2769 67 11.5276 64.4368 11.8309 54.9279C12.0426 48.2881 12.2161 40.1138 12.2161 36.7623C12.2161 33.4064 12.4632 30.6693 12.7664 30.6693C13.6094 30.6693 14.1816 28.1501 13.5003 27.4348C13.1693 27.0874 13.049 26.3492 13.2336 25.7944C13.5067 24.9744 13.4212 24.9305 12.7747 25.5603C11.6527 26.6533 10.8416 26.5214 11.2817 25.3182C11.6061 24.4307 11.5265 24.4109 10.657 25.1633C9.75383 25.9442 9.6984 25.8656 10.0647 24.3217C10.2871 23.3854 10.2316 22.6187 9.94141 22.6187C9.65119 22.6187 9.25362 23.4616 9.05718 24.4914C8.62597 26.7542 7.16597 27.4912 5.84991 26.1096C5.28361 25.5151 5.16621 25.0958 5.56616 25.0958C5.94074 25.0958 6.41148 25.3745 6.61205 25.7151C6.81261 26.0557 7.27921 26.3344 7.64966 26.3344C8.13456 26.3344 8.12455 26.1263 7.61488 25.5912C6.77664 24.7113 6.67576 23.238 7.45383 23.238C7.75409 23.238 8.10154 23.726 8.22483 24.3217C8.3611 24.9806 8.56459 24.6518 8.74333 23.482C8.99581 21.831 8.8796 21.6025 7.92279 21.8651C7.30989 22.0335 6.58195 22.7593 6.30529 23.4783C5.97495 24.3372 5.78914 24.4567 5.76436 23.8263C5.7443 23.2981 6.04575 22.532 6.43509 22.1233C6.98546 21.5456 6.96953 21.3802 6.36311 21.3802C5.73605 21.3802 5.7272 21.1975 6.3171 20.4513C7.12349 19.4314 9.558 19.1459 8.97282 20.1398C8.73156 20.5498 9.12561 20.551 10.1449 20.1441C11.3259 19.6729 12.0491 19.7751 13.2755 20.5863L14.8706 21.6415L13.7982 20.3318C12.8809 19.2115 12.8372 18.8338 13.4973 17.724C13.922 17.01 14.4713 16.426 14.7178 16.426C14.9638 16.426 15.1656 16.0235 15.1656 15.5312C15.1656 14.9026 16.0003 14.58 17.9676 14.4475C20.2558 14.2933 20.7377 14.0598 20.5961 13.1749C20.4103 12.0113 21.3483 11.6892 21.9494 12.7104C22.1499 13.051 23.6412 13.3297 25.2634 13.3297C26.8856 13.3297 28.0672 13.5768 27.8896 13.879C27.7121 14.1806 27.9828 14.7906 28.4919 15.2346C29.2151 15.8644 29.8091 15.886 31.2084 15.3312C32.9627 14.6363 32.9781 14.6463 31.9546 15.8334C30.6138 17.389 31.3559 17.4132 32.9386 15.8656C33.87 14.9547 34.5283 14.8011 35.8279 15.1925C37.3616 15.6544 37.5439 15.5392 37.8878 13.8951C38.2895 11.9766 39.5896 11.4744 40.1548 13.0201C40.7093 14.5373 39.6268 16.4211 38.6139 15.7021C38.5325 15.6445 37.8371 15.9511 37.0678 16.3833C36.2986 16.8156 35.8226 16.9091 36.0096 16.5908C36.1972 16.2731 35.9753 16.013 35.517 16.013C35.0586 16.013 34.7967 16.2043 34.9342 16.4384C35.0722 16.6725 34.8775 17.7185 34.5018 18.7625C33.965 20.2556 33.9844 20.8705 34.5926 21.6403C35.4663 22.7445 36.4018 22.9302 36.4018 21.9995C36.4018 21.6589 35.973 21.3802 35.448 21.3802C34.7472 21.3802 34.5885 21.0111 34.8504 19.9868C35.0457 19.2202 35.2097 18.3842 35.2138 18.129C35.2303 17.1846 36.4166 17.716 38.4246 19.567C40.2627 21.2613 40.4102 21.6161 39.7725 22.8181C38.6977 24.8432 37.9568 25.1856 37.1392 24.0369C36.4773 23.108 36.4018 23.1036 36.4018 23.9973C36.4018 24.5447 36.6938 25.0946 37.0507 25.2197C37.4076 25.3448 37.6996 26.4644 37.6996 27.7085C37.6996 30.5274 39.4221 32.5116 40.8149 31.2984C41.6083 30.6073 41.6979 31.291 41.5982 37.2509L41.485 43.9836L41.121 38.1005C40.8048 32.9897 40.7264 33.8022 40.5229 44.2932L40.2887 56.369L39.9235 48.3185L39.559 40.268L39.5572 50.4723C39.5554 61.369 39.8403 64.178 40.9889 64.5799C41.3859 64.7186 41.7109 64.5142 41.7109 64.1247C41.7109 63.7358 41.4006 63.6188 41.0207 63.8653C40.55 64.1706 40.4562 63.9693 40.7258 63.2317C40.9435 62.6372 41.1588 60.1534 41.2048 57.7116C41.272 54.1464 41.3593 53.7606 41.6472 55.7497C41.8442 57.1121 42.0642 52.1344 42.1356 44.6889C42.2619 31.5183 42.6347 28.809 44.1826 29.8134C44.5359 30.0419 44.6462 36.548 44.474 46.9907C44.3135 56.7313 44.4044 62.7586 44.6899 61.3232C44.9606 59.9608 45.1978 52.1146 45.2161 43.887C45.2491 29.4623 45.2904 28.9384 46.3799 29.2375C48.057 29.6976 49.2787 27.2255 48.9448 24.0474C48.7077 21.7865 48.47 21.426 47.1085 21.2607C45.7883 21.1003 45.5193 20.7337 45.3789 18.9031C45.2468 17.1809 45.3488 16.9264 45.8768 17.6646C46.446 18.4597 46.495 18.4405 46.2165 17.5296C46.0378 16.9444 46.1458 16.301 46.456 16.0997C47.3279 15.5337 47.1545 15.0463 45.2503 12.7104C44.2787 11.5183 43.483 10.0717 43.4818 9.49579C43.4806 8.28698 42.8028 7.75006 39.9636 6.70535C37.948 5.96409 36.5039 6.12262 38.3821 6.87875C38.9154 7.09363 39.3513 7.6677 39.3513 8.15383C39.3513 8.8375 39.6115 8.892 40.4951 8.39534C41.2561 7.96805 41.7616 7.96061 42.0047 8.37367C42.9686 10.0104 40.7252 10.4643 38.3579 9.11184C36.6838 8.15506 36.4018 8.18293 36.4018 9.30443C36.4018 10.4544 35.2746 10.4705 33.8541 9.34035C32.8589 8.54768 32.9333 8.42879 34.8864 7.68752C36.4561 7.09179 36.9917 6.53134 36.9917 5.48601C36.9917 3.71552 35.5548 2.89747 32.6006 2.9854C31.1453 3.02875 30.1902 2.74636 30.0245 2.22493C29.8741 1.74995 29.2747 2.4231 28.6211 3.80222C27.9763 5.16214 27.6059 5.58076 27.7687 4.7658C27.9822 3.6988 27.8383 3.41146 27.2154 3.66288C25.9742 4.16263 26.1459 1.7642 27.4059 0.993826C28.7674 0.161526 27.8064 0.139227 26.3293 0.96905C25.5005 1.43474 25.2793 2.01624 25.5312 3.069C25.7229 3.86972 25.6586 4.66176 25.3891 4.82896C24.5703 5.338 22.1405 4.09822 22.5599 3.38606C22.8183 2.947 23.3321 3.08262 24.0724 3.78673C24.6894 4.37256 25.1938 4.56391 25.1938 4.21217C25.1938 3.26964 23.5763 2.02615 22.7333 2.32154C22.3316 2.46211 21.4574 1.91035 20.7902 1.09662C20.123 0.282284 19.3839 -0.180936 19.1474 0.0667723ZM17.0467 1.39511C15.0057 1.65892 14.8104 2.55191 16.5447 3.68703C17.2154 4.12548 17.7027 4.14034 17.9841 3.731C18.2183 3.3904 18.7421 3.08386 19.1474 3.0498C21.1158 2.88445 21.209 2.80209 20.4746 1.87319C20.0705 1.36229 19.5738 0.988873 19.3703 1.04337C19.1662 1.09786 18.1209 1.25639 17.0467 1.39511ZM30.1489 3.89511C29.7921 4.14529 29.185 4.97697 28.801 5.74363C28.1592 7.02242 28.23 7.13699 29.6605 7.13699C30.8037 7.13699 31.1287 6.88928 30.8792 6.20808C30.6928 5.69718 30.7972 5.27918 31.1111 5.27918C31.4255 5.27918 31.6827 4.86117 31.6827 4.35027C31.6827 3.339 31.1624 3.1848 30.1489 3.89511ZM32.7067 3.79169C32.5127 3.99543 32.5132 4.59797 32.7085 5.13179C32.9421 5.77149 32.8282 5.94922 32.3728 5.65383C31.4844 5.07729 31.475 6.05202 32.3604 6.98155C32.8707 7.51722 33.4535 7.46706 34.72 6.77967C35.645 6.27744 36.4018 5.65074 36.4018 5.38693C36.4018 3.99295 33.6476 2.80334 32.7067 3.79169ZM18.2259 5.87306C16.8939 7.76431 17.0626 8.37553 18.9161 8.37553C20.0929 8.37553 20.0941 8.36252 18.9651 7.44539C17.8578 6.54559 17.8573 6.52825 18.9474 6.93015C19.883 7.27509 20.0175 7.11779 19.7396 6.00311C19.5556 5.26432 19.6458 4.65991 19.9402 4.65991C20.2339 4.65991 20.4746 5.20053 20.4746 5.86191C20.4746 6.52329 20.7401 7.23607 21.0645 7.44662C21.4049 7.6677 21.6544 7.08435 21.6544 6.06689C21.6544 3.68022 19.8422 3.57804 18.2259 5.87306ZM15.4605 5.27918C14.499 5.71328 14.4647 5.81918 15.2782 5.85509C15.8268 5.87863 16.4397 5.61978 16.6403 5.27918C17.0597 4.56702 17.0391 4.56702 15.4605 5.27918ZM22.8696 6.44774C22.0868 7.98415 23.8258 8.83874 25.0723 7.52961C25.8108 6.75428 25.7625 6.5493 24.6977 5.95109C23.689 5.38446 23.3675 5.47177 22.8696 6.44774ZM13.9858 7.12646C13.9858 7.31472 13.2561 7.94947 12.3635 8.53654C10.8269 9.54657 10.8139 9.59302 12.1169 9.40786C12.8738 9.30072 13.6996 8.86104 13.9527 8.43188C14.2058 8.00211 14.5821 7.67451 14.7892 7.70362C15.8374 7.85038 16.3453 7.7092 16.3453 7.26951C16.3453 7.00199 15.8144 6.78338 15.1656 6.78338C14.5167 6.78338 13.9858 6.93758 13.9858 7.12646ZM26.0786 8.37553C26.2792 8.71613 26.56 8.9948 26.7034 8.9948C26.8467 8.9948 26.9635 8.71613 26.9635 8.37553C26.9635 8.03493 26.6821 7.75626 26.3388 7.75626C25.9955 7.75626 25.8781 8.03493 26.0786 8.37553ZM27.5534 8.33899C27.5534 9.22888 28.519 9.66113 29.5649 9.24003C31.0049 8.65977 30.6781 7.75626 29.0281 7.75626C28.217 7.75626 27.5534 8.01821 27.5534 8.33899ZM22.6419 9.36203C22.9581 10.2265 22.8277 10.273 21.7624 9.67476C21.0745 9.28834 19.7732 9.03134 18.8713 9.10317C17.4284 9.21898 17.2302 9.48526 17.2302 11.3047C17.2302 13.0194 17.4319 13.3446 18.4065 13.1978C19.1739 13.082 19.7131 12.3748 19.9585 11.1622C20.1655 10.1404 20.3667 9.6828 20.405 10.1448C20.4445 10.626 20.8527 10.8328 21.3595 10.6284C21.8461 10.4327 22.2485 10.6117 22.2532 11.0266C22.2591 11.5041 22.4726 11.4403 22.8342 10.8526C23.1486 10.3417 23.4099 10.1671 23.4153 10.4637C23.42 10.761 23.7568 10.7145 24.1632 10.3603C24.6841 9.90637 25.2322 9.96953 26.0197 10.5746C27.1765 11.4626 28.1433 11.2601 28.1433 10.1305C28.1433 9.77384 27.7533 9.63884 27.2773 9.83019C26.8013 10.0222 26.2456 9.89832 26.0433 9.55462C25.8409 9.21093 25.3678 9.04558 24.9921 9.18801C24.6163 9.33044 23.8506 9.19916 23.2902 8.89695C22.4838 8.4616 22.3487 8.55945 22.6419 9.36203ZM14.6936 9.73792C13.9032 10.5677 13.718 13.949 14.463 13.949C14.7255 13.949 15.4281 13.5743 16.0244 13.1167C16.8237 12.503 17.0054 11.8509 16.7158 10.6396C16.2846 8.83503 15.7714 8.60651 14.6936 9.73792ZM29.8133 9.76889C27.5097 11.7177 28.5615 14.7515 31.055 13.3507C32.3032 12.6497 32.5451 11.6992 31.9145 9.97448C31.4827 8.7923 31.0208 8.74709 29.8133 9.76889ZM8.12809 10.6668C8.10567 11.4161 7.62431 12.3011 7.05919 12.633C5.84046 13.3495 6.33127 14.1422 7.66208 13.6059C8.87727 13.1167 9.21114 12.067 8.63658 10.543C8.19003 9.35769 8.1682 9.36264 8.12809 10.6668ZM32.8625 11.2378C32.8625 12.6175 32.997 12.7451 33.7544 12.085C34.4334 11.4936 34.4865 11.1047 33.9774 10.4606C33.0353 9.26914 32.8625 9.38927 32.8625 11.2378ZM37.1162 10.608C36.4838 11.3257 36.5587 11.4719 37.5586 11.4719C38.2199 11.4719 38.7614 11.2099 38.7614 10.8891C38.7614 9.86364 37.9008 9.71686 37.1162 10.608ZM11.0587 11.1338C10.0588 12.3983 10.7077 13.949 12.2367 13.949C13.2313 13.949 13.4377 13.6238 13.2873 12.2936C13.0661 10.3299 12.0946 9.824 11.0587 11.1338ZM41.4543 10.7876C41.2744 11.0929 41.5463 11.5109 42.0578 11.7165C43.6818 12.3711 44.2587 12.1463 43.4806 11.1622C42.6477 10.1082 41.9321 9.97634 41.4543 10.7876ZM23.4241 12.0912C23.4241 12.4317 24.0217 12.7061 24.7514 12.7011C25.8244 12.6931 25.9093 12.5767 25.1938 12.0912C24.05 11.3152 23.4241 11.3152 23.4241 12.0912ZM36.2915 12.5141C36.7168 12.6931 37.2259 12.6708 37.4218 12.4652C37.6176 12.2596 37.2696 12.1134 36.6478 12.1401C35.9606 12.1698 35.8208 12.3166 36.2915 12.5141ZM41.121 12.6039C41.121 13.3111 44.4946 16.426 45.2609 16.426C45.9788 16.426 46.6259 15.1869 46.1623 14.6995C45.9499 14.4766 45.5022 14.7045 45.1671 15.2055C44.6899 15.9189 44.6208 15.8148 44.8485 14.7237C45.0084 13.9576 44.8987 13.1749 44.6049 12.9841C44.3112 12.7934 44.0705 13.0628 44.0705 13.5836C44.0705 14.1608 43.7331 14.3936 43.2045 14.1806C42.7279 13.9886 42.3964 13.5446 42.4671 13.1935C42.5379 12.8429 42.2642 12.428 41.8584 12.272C41.4531 12.1159 41.121 12.2652 41.121 12.6039ZM9.08606 13.7254C8.46254 14.38 9.25656 15.1875 10.5231 15.1875C11.5784 15.1875 11.612 15.0841 10.8257 14.2586C9.83643 13.2201 9.62817 13.1563 9.08606 13.7254ZM36.1069 13.949C36.3075 14.2896 36.5883 14.5682 36.7316 14.5682C36.8749 14.5682 36.9917 14.2896 36.9917 13.949C36.9917 13.6084 36.7103 13.3297 36.367 13.3297C36.0237 13.3297 35.9063 13.6084 36.1069 13.949ZM6.57136 15.2569C6.34838 15.6352 6.53183 16.2192 6.97897 16.5536C7.63611 17.0459 7.61546 17.1041 6.87042 16.8583C6.36369 16.6911 5.30366 17.0658 4.51497 17.6906C3.24846 18.6932 3.19892 18.874 4.09203 19.2338C5.296 19.7187 8.73389 18.2628 8.26552 17.467C8.0856 17.1611 8.5009 17.0998 9.19285 17.3302C10.1072 17.6349 10.4464 17.485 10.4464 16.7772C10.4464 16.2434 10.0482 15.8068 9.56153 15.8068C9.07487 15.8068 8.67669 15.5281 8.67669 15.1875C8.67669 14.3472 7.07572 14.3998 6.57136 15.2569ZM11.7736 15.5975C11.3684 15.7696 11.0363 16.6267 11.0363 17.5023C11.0363 19.0561 11.0652 19.0672 12.2161 17.9742C14.0518 16.2304 13.7758 14.7497 11.7736 15.5975ZM19.7874 16.6477C18.9191 17.82 18.6536 17.8782 17.5057 17.1494C16.4798 16.4979 16.0657 16.4843 15.5384 17.0856C15.0387 17.6547 15.0458 17.7432 15.5673 17.4355C15.9501 17.21 16.4303 17.3085 16.6344 17.6547C17.5593 19.2258 21.5765 17.5965 20.9731 15.8947C20.861 15.5795 20.3278 15.9182 19.7874 16.6477ZM39.8828 16.4168L38.4665 17.6863L40.5311 17.5209C41.8448 17.415 42.5957 17.036 42.5957 16.4774C42.5957 15.0723 41.4124 15.0457 39.8828 16.4168ZM47.1096 17.6646C47.2382 18.635 47.0477 19.1576 46.5988 19.0654C46.18 18.9793 46.0248 19.3075 46.2254 19.8556C46.4867 20.5702 46.7586 20.6266 47.3709 20.0927C48.1968 19.3732 48.1968 17.4478 47.3709 16.597C47.1143 16.3325 46.997 16.8131 47.1096 17.6646ZM42.5957 17.6646C42.3952 18.0052 41.285 18.2839 40.1294 18.2839C38.3001 18.2839 38.1255 18.4083 38.7839 19.2412C39.1997 19.7676 39.8875 20.0581 40.3117 19.8871C40.7358 19.7162 41.2478 19.8568 41.4496 20.1986C41.6891 20.6055 42.0949 20.5783 42.6223 20.1181C43.0659 19.7317 43.6676 19.5707 43.9596 19.7602C44.251 19.9491 44.3649 19.4159 44.2115 18.5749C43.9224 16.9871 43.2258 16.5945 42.5957 17.6646ZM15.5755 19.5577C15.3166 20.5987 15.4104 20.699 16.0905 20.107C16.5477 19.7082 16.7766 19.1347 16.599 18.8331C16.1176 18.0157 15.9259 18.1513 15.5755 19.5577ZM44.333 22.0769C44.6887 23.4238 44.6515 23.4566 43.8888 22.4639C43.4305 21.8676 42.712 21.3802 42.2919 21.3802C41.761 21.3802 41.8448 21.7474 42.5668 22.5853C43.5649 23.7433 43.5573 23.7861 42.3633 23.6919C41.6802 23.6381 41.121 23.3582 41.121 23.0696C41.121 22.7816 40.8556 22.7178 40.5311 22.9284C40.2067 23.1389 39.9412 23.5408 39.9412 23.8214C39.9412 24.5719 42.8594 25.0302 43.2641 24.3434C43.454 24.0208 44.2227 23.9186 44.9731 24.1161C46.6153 24.549 48.1998 23.9979 48.1998 22.994C48.1998 21.8459 45.9417 21.9617 45.6491 23.1247C45.4597 23.8796 45.3683 23.7929 45.3187 22.8101C45.281 22.0639 44.9565 21.2625 44.5973 21.0297C44.1537 20.7417 44.0687 21.078 44.333 22.0769ZM37.5816 21.9995C37.095 22.3295 36.9622 22.5995 37.2867 22.5995C37.6111 22.5995 38.2748 22.3295 38.7614 21.9995C39.2481 21.6694 39.3808 21.3994 39.0564 21.3994C38.7319 21.3994 38.0683 21.6694 37.5816 21.9995ZM11.5453 23.0541C10.8681 23.931 10.8682 24.0152 11.5448 23.5873C12.0391 23.2746 12.5458 23.4077 12.8626 23.9328C13.2738 24.614 13.3793 24.575 13.387 23.739C13.4 22.2051 12.4691 21.8589 11.5453 23.0541ZM46.6277 24.9676C45.0261 25.2191 44.359 26.9022 45.419 28.0151C46.341 28.9836 47.9497 28.5309 48.4499 27.1623C48.9531 25.7851 48.0848 24.7391 46.6277 24.9676ZM40.0556 25.5473C40.2804 25.6835 40.3187 26.195 40.14 26.6843C39.7123 27.8534 40.7765 27.8262 41.7109 26.644C42.1557 26.0817 42.2029 25.7151 41.8312 25.7151C41.4938 25.7151 40.8638 25.6216 40.432 25.507C39.9996 25.3925 39.8303 25.4104 40.0556 25.5473ZM2.58128 26.7474C1.9784 27.3797 2.11409 29.9292 2.773 30.3565C3.09509 30.5652 3.79293 30.481 4.32325 30.1695C4.98275 29.7818 5.07772 29.4654 4.62291 29.17C4.25717 28.9328 3.9634 28.4065 3.97047 28.0008C3.97755 27.5952 4.46776 27.924 5.05943 28.7322C6.0593 30.0971 6.1655 30.12 6.55365 29.0579C7.20254 27.2831 3.90029 25.3621 2.58128 26.7474ZM38.4665 26.9536C38.667 27.2942 38.9478 27.5729 39.0912 27.5729C39.2345 27.5729 39.3513 27.2942 39.3513 26.9536C39.3513 26.613 39.0699 26.3344 38.7266 26.3344C38.3833 26.3344 38.2659 26.613 38.4665 26.9536ZM42.059 27.5116C40.9582 28.7885 41.5793 29.6828 43.1325 29.0567C44.0935 28.6696 44.4705 26.3344 43.572 26.3344C43.2977 26.3344 42.617 26.8638 42.059 27.5116ZM10.6452 27.7191C9.94318 28.0572 9.24948 28.8133 9.10377 29.3991C8.89495 30.2376 9.13857 30.4048 10.2452 30.1825C11.3643 29.9583 11.5141 29.7255 10.9773 29.0462C10.0759 27.9061 10.7224 27.9513 11.8214 29.105C12.5582 29.8785 12.7399 29.8853 13.0083 29.1502C13.4926 27.8256 12.1341 27.0026 10.6452 27.7191ZM7.52404 28.7582C7.06746 29.6543 7.05858 30.05 7.49452 30.05C8.21006 30.05 8.98875 28.3129 8.50268 27.8027C8.3263 27.6181 7.88624 28.0479 7.52404 28.7582ZM6.4097 43.2095L6.50173 55.7497L6.94239 43.8665C7.18484 37.3301 7.55707 31.6873 7.77002 31.3263C7.98239 30.9647 7.7423 30.6693 7.23676 30.6693C6.43096 30.6693 6.3283 32.223 6.4097 43.2095ZM10.9602 32.0626C10.9183 32.8293 10.8251 34.1527 10.7525 35.0042C10.2983 40.3466 10.2676 58.9303 10.7142 58.4615C11.1483 58.0063 11.8439 30.6693 11.4215 30.6693C11.2097 30.6693 11.002 31.296 10.9602 32.0626Z" fill="#A3AD7E"></path></svg> 