<?xml version="1.0" encoding="UTF-8"?> <svg xmlns="http://www.w3.org/2000/svg" width="52" height="58" viewBox="0 0 52 58" fill="none"><path fill-rule="evenodd" clip-rule="evenodd" d="M25.4348 0.409202C25.4348 0.723667 25.7066 1.14899 26.0384 1.3543C26.3708 1.5596 26.4657 2.14724 26.2504 2.66022C25.359 4.7806 24.9866 8.1396 25.5648 8.83809C26.8427 10.3821 25.4783 10.0541 23.8516 8.42578C22.9049 7.47843 21.8524 6.70358 21.5127 6.70358C21.173 6.70358 21.7258 7.48239 22.741 8.43427L24.587 10.1649L22.1317 8.67634C20.7808 7.85738 19.5305 7.33307 19.3525 7.51123C19.1744 7.68939 19.2801 7.83475 19.5865 7.83475C19.8934 7.83475 20.999 8.59829 22.0435 9.5315C24.5881 11.8051 23.825 11.6722 20.0929 9.19271C18.408 8.07343 16.7587 7.3246 16.4275 7.52934C15.4937 8.1068 15.7193 9.5315 16.7446 9.5315C17.5003 9.5315 23.9918 12.119 24.8283 12.7536C24.9611 12.8543 24.6045 13.2774 24.0353 13.6936C23.4667 14.1099 23.1824 14.7434 23.4034 15.1014C23.6854 15.5578 23.0038 15.7529 21.1261 15.7529C16.1607 15.7529 8.59301 16.9961 6.75661 18.1137C5.05192 19.1515 5.01122 19.2561 5.92235 20.264C8.02043 22.584 26.776 23.7927 37.0336 22.2684C40.3769 21.7719 43.5692 21.1203 44.1276 20.8211C45.617 20.0236 46.0217 20.1566 45.1829 21.1672C42.6468 24.2254 34.3488 25.9312 22.0435 25.9244C12.0273 25.9187 8.33017 25.1133 6.07609 22.4438C5.22148 21.4314 4.52174 20.9026 4.52174 21.269C4.52174 21.6355 5.26839 22.7859 6.18122 23.8261L7.84013 25.7168L7.69769 34.2656C7.55978 42.5378 7.50496 42.8902 5.9964 45.1718C5.13896 46.4686 4.56074 47.6535 4.71222 47.8045C4.8637 47.9561 5.70925 46.851 6.59156 45.3493C8.12838 42.7324 8.20357 42.2669 8.37879 34.2136L8.56135 25.8084L10.2864 26.154C11.2348 26.3435 12.2336 26.499 12.5054 26.499C13.6364 26.499 12.7366 30.6114 9.27579 41.2556C7.95431 45.3211 5.36221 48.9702 4.15038 48.4708C3.88869 48.3622 3.59252 48.8463 3.49304 49.5465C3.39413 50.2467 3.39413 50.8163 3.49304 50.8129C4.1176 50.792 9.18139 49.0884 10.1304 48.5799C11.9809 47.589 12.4495 46.0886 13.0062 39.3609C13.2962 35.8645 13.6856 31.6667 13.8721 30.0339L14.2118 27.0646H19.3078H24.4038L24.0472 29.1855C23.8511 30.3523 23.4837 34.4879 23.231 38.3763C22.7602 45.6236 22.0983 47.9103 19.1784 52.3745C18.5171 53.3857 18.092 54.2126 18.2339 54.2126C18.7483 54.2126 22.4227 48.2152 23.352 45.8589C23.9647 44.3047 24.3241 41.6832 24.3603 38.5064C24.3908 35.7904 24.5819 32.169 24.7842 30.4581C25.1352 27.4922 25.233 27.3395 26.8902 27.1777L28.6277 27.0075L29.8994 34.2475C31.7432 44.7425 31.7353 44.7034 32.0292 44.4093C32.2688 44.169 30.342 31.5632 29.5722 28.3372C29.3636 27.4633 29.5253 27.0646 30.0876 27.0646C30.8682 27.0646 31.8291 32.7238 33.0635 44.5977C33.2416 46.3086 33.4987 48.5992 33.6355 49.6879L33.8837 51.6675L33.094 49.4051C32.522 47.7661 32.2926 47.4986 32.2609 48.4335C32.2372 49.1427 32.734 51.2574 33.3648 53.1323C33.9961 55.0072 34.4415 56.8912 34.3539 57.3194C34.2669 57.7475 34.45 58.0506 34.7609 57.993C35.451 57.8657 35.382 55.2946 34.5387 49.6879C33.9645 45.8714 32.2123 26.8927 32.4163 26.7049C32.4621 26.663 33.5496 26.4549 34.8327 26.2428C37.4881 25.8045 37.0381 24.878 38.666 34.1344C39.1583 36.934 39.5618 41.5469 39.563 44.3856C39.5652 49.8559 39.9897 53.0814 40.7069 53.0814C40.946 53.0814 40.941 52.1906 40.6957 51.1019C40.4503 50.0131 40.4136 49.124 40.6137 49.1269C40.8144 49.1291 42.6315 49.6359 44.6522 50.2535C48.6217 51.4661 52 51.7263 52 50.8191C52 50.2416 51.3229 49.5686 48.3261 47.1677L46.6304 45.8092L49.0326 46.1265C51.7315 46.4828 52.0887 45.8929 50.163 44.2612L48.8913 43.1837L50.0217 44.5411L51.1522 45.898L49.4565 45.4936C46.9323 44.8912 46.3405 44.0146 45.764 40.0227C45.2615 36.546 45.1038 30.1001 45.578 32.4376C46.3286 36.1349 47.6998 40.9989 48.1237 41.4632C48.395 41.7613 48.2475 40.7432 47.7948 39.2009C46.5304 34.8894 45.1123 22.9845 45.7832 22.3131C46.5807 21.5151 46.4846 19.3981 45.6181 18.6792C44.4962 17.7472 40.3673 16.9836 34.7609 16.6709C29.1268 16.3564 28.6853 16.2523 40.837 18.1024C42.935 18.4219 44.6522 18.8947 44.6522 19.1538C44.6522 21.4399 21.8496 22.9896 11.925 21.3782C3.88473 20.0729 4.68169 18.3603 13.8964 17.1431C22.5612 15.9984 24.3043 16.0442 24.3043 17.4163C24.3043 18.0203 24.05 18.6713 23.7391 18.8636C21.9819 19.9507 24.7367 21.0835 27.4023 20.3698C29.3924 19.8376 29.982 18.5808 28.2422 18.5808C27.2124 18.5808 27.0666 18.362 27.3927 17.3083C28.3863 14.0997 28.4005 13.4906 27.4792 13.4906C24.3761 13.4906 29.0522 10.765 32.5848 10.5139C33.6248 10.4404 34.4766 10.1559 34.4771 9.8816C34.4777 9.60785 33.5247 9.53659 32.3587 9.72436C31.1435 9.91949 30.5613 9.86406 30.9937 9.59371C31.4091 9.33411 31.6635 8.89635 31.5589 8.61978C31.4549 8.34377 31.9416 7.86642 32.6413 7.55931C34.1499 6.89701 34.3053 5.13578 32.9426 4.13866C32.1433 3.55384 31.8477 3.59287 31.265 4.35923C30.6483 5.17085 30.5557 5.17763 30.5398 4.41297C30.5297 3.93052 30.823 3.23542 31.1904 2.86722C32.01 2.04713 31.698 1.68459 29.9978 1.48438C28.9815 1.36391 28.6582 1.63991 28.522 2.7445C28.4265 3.52217 27.9364 5.04925 27.4334 6.138L26.5189 8.11754L26.8331 6.138C27.187 3.9096 27.4888 2.29203 27.7804 1.06132C27.9014 0.549467 27.486 0.151292 26.7065 0.0319539C26.0068 -0.0749414 25.4348 0.0953035 25.4348 0.409202ZM20.8232 2.74733C18.9026 4.66918 18.9563 5.85068 20.965 5.86482C21.7134 5.86991 22.8981 6.19682 23.5978 6.5916C24.6729 7.1979 24.8696 7.17641 24.8696 6.45133C24.8696 5.97963 24.2337 5.43441 23.4565 5.23928C22.6793 5.04416 22.0435 4.64202 22.0435 4.34679C22.0435 4.05099 21.7258 3.98878 21.337 4.20822C20.783 4.52099 20.778 4.44803 21.3132 3.86944C21.8654 3.27218 22.1605 3.26879 22.8602 3.84964C23.9279 4.73648 25.9356 4.15054 25.008 3.22241C24.6695 2.88363 24.527 2.25583 24.6915 1.82712C25.2533 0.362261 22.5686 1.0008 20.8232 2.74733ZM28.0387 5.90158C27.4243 7.50332 27.6516 7.89809 28.8261 7.26916C30.1153 6.57859 30.3533 5.00683 29.1692 5.00683C28.7362 5.00683 28.2275 5.40953 28.0387 5.90158ZM31.3696 5.57241C31.1774 5.88348 31.2899 6.138 31.6188 6.138C31.9478 6.138 32.2174 5.88348 32.2174 5.57241C32.2174 5.26134 32.1055 5.00683 31.9681 5.00683C31.8308 5.00683 31.5617 5.26134 31.3696 5.57241ZM29.3913 8.11754C28.999 8.59093 28.9374 8.96592 29.2528 8.96592C29.5637 8.96592 30.1346 8.58415 30.5217 8.11754C30.914 7.64415 30.9756 7.26916 30.6602 7.26916C30.3493 7.26916 29.7785 7.65093 29.3913 8.11754ZM16.3913 8.40033C16.3913 8.7114 16.9633 8.96196 17.663 8.95743C18.6912 8.95008 18.7726 8.84375 18.087 8.40033C16.991 7.69166 16.3913 7.69166 16.3913 8.40033ZM31.9387 8.39411C31.7409 8.71423 31.9676 8.80925 32.4706 8.61639C33.4496 8.24027 33.6287 7.83475 32.816 7.83475C32.5232 7.83475 32.1286 8.08643 31.9387 8.39411ZM24.3043 14.585C24.3043 15.5861 25.4077 18.0153 25.8621 18.0153C26.4431 18.0153 27.6776 14.792 27.2576 14.3718C26.7303 13.8446 24.3043 14.0194 24.3043 14.585ZM25.8943 19.5327C26.3018 19.6962 26.7896 19.6758 26.9773 19.488C27.1649 19.3003 26.8314 19.1668 26.2357 19.1911C25.5772 19.2183 25.4433 19.3523 25.8943 19.5327ZM39.4239 25.4595C37.6243 26.1172 37.5039 27.0454 38.7671 30.5282C39.316 32.0429 39.7862 35.8012 39.9784 40.2127C40.1626 44.4371 40.5515 47.6241 40.9184 47.9103C41.7984 48.5975 48.6189 50.8191 49.8488 50.8191C51.4975 50.8191 51.0284 49.8028 48.7025 48.3334C46.978 47.2441 46.3427 46.347 45.5927 43.9427C44.5747 40.6793 42.9837 30.3665 42.9667 26.9232C42.9554 24.6088 42.3902 24.3752 39.4239 25.4595ZM5.50973 27.0646C4.71673 29.1471 3.95991 31.8104 3.99947 32.3805C4.02321 32.7232 4.38552 32.1124 4.80435 31.0237L5.56626 29.0441L5.66744 33.0032C5.76127 36.6631 5.80988 36.8079 6.31349 34.92C6.87644 32.8081 6.12356 25.4515 5.50973 27.0646ZM15.9363 29.0441C15.9476 29.9773 16.0742 30.2907 16.2178 29.7404C16.3613 29.19 16.3517 28.4265 16.1969 28.0436C16.042 27.6607 15.925 28.1109 15.9363 29.0441ZM25.6043 34.4172C25.6043 36.1281 25.71 36.8277 25.8395 35.9725C25.9689 35.1174 25.9689 33.717 25.8395 32.8618C25.71 32.0067 25.6043 32.7063 25.6043 34.4172ZM15.3055 33.0502C15.3327 33.7091 15.4666 33.8431 15.6469 33.3923C15.8103 32.984 15.7899 32.4959 15.6023 32.3081C15.4146 32.1203 15.2812 32.454 15.3055 33.0502ZM2.81591 35.9561C2.41404 37.4431 1.73069 39.4226 1.29773 40.3558C0.583864 41.8948 0.590649 41.9524 1.37121 40.9745C2.27726 39.84 4.19334 33.9002 3.78526 33.4919C3.65469 33.3607 3.21834 34.4698 2.81591 35.9561ZM10.5023 40.3632C9.44534 43.7555 8.39857 45.8748 7.02962 47.3911L5.06943 49.5618L7.48009 48.7394C11.1738 47.4805 11.4926 46.9245 11.8786 41.0696C12.0685 38.1885 12.177 35.7582 12.12 35.6688C12.0629 35.5795 11.3349 37.6919 10.5023 40.3632ZM15.392 37.2451C15.392 38.3338 15.5084 38.779 15.6503 38.2349C15.7927 37.6908 15.7927 36.7994 15.6503 36.2553C15.5084 35.7112 15.392 36.1563 15.392 37.2451ZM5.20001 37.9238C4.82696 38.2971 4.52174 38.9215 4.52174 39.3112C4.52174 39.7009 3.50435 40.8377 2.26087 41.8376C1.01739 42.8376 0 43.9948 0 44.4093C0 45.2854 1.59787 45.3923 2.82609 44.5977C3.5507 44.1294 3.53035 44.0479 2.68478 44.0406C1.30509 44.0287 1.44978 43.328 3.16239 41.7268C3.96896 40.9729 4.99313 39.6556 5.43796 38.8004C6.31687 37.1094 6.25244 36.8707 5.20001 37.9238ZM26.0893 40.6386C26.0893 41.4163 26.2176 41.7347 26.3742 41.3456C26.5313 40.957 26.5313 40.3207 26.3742 39.9316C26.2176 39.5431 26.0893 39.8609 26.0893 40.6386ZM14.7403 40.9683C14.7674 41.6272 14.9014 41.7613 15.0817 41.3105C15.2451 40.9022 15.2247 40.4141 15.037 40.2263C14.8494 40.0385 14.716 40.3722 14.7403 40.9683ZM26.0447 43.2307C26.0718 43.8896 26.2057 44.0236 26.3861 43.5728C26.5494 43.1645 26.529 42.6764 26.3414 42.4886C26.1537 42.3008 26.0204 42.6345 26.0447 43.2307ZM26.1119 48.2474C26.0961 50.4108 26.3267 52.6352 26.624 53.1912C27.0033 53.9004 26.8925 54.7296 26.2532 55.9665C25.7519 56.937 25.5834 57.5806 25.8796 57.398C27.0728 56.6599 27.8714 53.634 27.2389 52.2455C26.9009 51.5029 26.7574 50.0505 26.9202 49.0188C27.083 47.9872 26.9744 46.5065 26.6783 45.7288C26.251 44.6062 26.134 45.1242 26.1119 48.2474ZM12.8412 49.7682C12.2873 50.7416 11.9187 51.6222 12.0216 51.7252C12.1245 51.8287 12.9593 51.698 13.8761 51.4356C15.2693 51.0368 15.3779 50.8892 14.5374 50.5391C13.8693 50.2603 13.6449 49.762 13.8693 49.0556C14.3639 47.4957 13.984 47.7593 12.8412 49.7682ZM15.3513 54.6368C15.2897 56.2787 15.4937 57.0405 15.9956 57.0405C16.8666 57.0405 18.087 55.9184 18.087 55.1175C18.087 54.8031 17.7857 54.8534 17.4087 55.2306C16.3274 56.3126 15.9137 56.0372 15.6695 54.0712C15.4723 52.478 15.4299 52.5532 15.3513 54.6368Z" fill="#A3AD7E"></path></svg> 