<?xml version="1.0" encoding="UTF-8"?> <svg xmlns="http://www.w3.org/2000/svg" width="65" height="44" viewBox="0 0 65 44" fill="none"><path fill-rule="evenodd" clip-rule="evenodd" d="M13.2326 0.957292C12.357 1.4883 11.641 2.24 11.641 2.62729C11.641 3.01508 11.0049 3.78284 10.2277 4.33334C8.47752 5.57317 6.86343 9.20302 7.80465 9.78177C8.31052 10.0926 8.30954 10.495 7.79877 11.899C7.16851 13.6338 7.39819 15.5776 8.23364 15.5776C9.05341 15.5776 10.2023 18.4538 9.88493 19.7121C9.64106 20.6787 9.89328 21.2087 11.0989 22.261C12.9736 23.8973 13.0147 24.5964 11.2738 25.2234C10.5333 25.4899 9.5157 25.8738 9.01326 26.0755C8.20964 26.3984 8.16556 26.3195 8.64695 25.4241C9.52842 23.7858 8.43295 23.6372 5.61614 25.0134C2.62941 26.473 -0.277518 28.9775 0.0212052 29.8344C0.171546 30.2651 1.59268 30.4107 5.02163 30.3469C10.3311 30.248 11.5926 29.7068 9.83891 28.2804L8.77135 27.4122L10.5171 26.8788C12.0793 26.4019 12.4339 26.4754 13.8859 27.5774C14.7781 28.2545 15.7399 29.5061 16.023 30.3591C16.306 31.2121 17.021 32.126 17.6126 32.3911C18.2036 32.6556 18.8496 33.4886 19.0479 34.2428C19.5097 35.998 20.3633 37.0176 21.1277 36.7258C21.4582 36.5997 22.2266 37.3786 22.8373 38.4596C23.4474 39.5397 24.2373 40.4229 24.5934 40.4229C24.9494 40.4229 25.609 40.9827 26.0596 41.6667C26.5101 42.3506 27.2515 42.8519 27.7074 42.7803C28.1633 42.7087 29.1124 43.0317 29.8166 43.4984C31.1261 44.365 33.1701 44.0703 33.891 42.9099C34.0604 42.6371 34.4958 42.5275 34.8591 42.6658C35.222 42.8047 35.963 42.3565 36.5056 41.6705C37.0477 40.9841 37.7328 40.4229 38.0271 40.4229C38.3219 40.4229 39.1245 39.5378 39.8106 38.4563C40.4972 37.3747 41.2533 36.6094 41.4913 36.7555C42.1637 37.1691 43.4888 35.5898 43.8101 33.9928C43.9922 33.0857 44.5275 32.3901 45.2552 32.1153C45.8904 31.8746 46.4104 31.3363 46.4104 30.9184C46.4104 29.8047 47.8825 27.7567 48.6827 27.7567C49.4408 27.7567 50.4966 25.4992 50.0641 24.803C49.6587 24.1502 50.7488 22.3978 51.5602 22.3978C52.2879 22.3978 52.9677 20.6182 52.6983 19.4184C52.4608 18.3593 53.8016 15.5776 54.5499 15.5776C54.9691 15.5776 55.2252 15.0402 55.2252 14.1619C55.2252 12.7739 55.2585 12.7559 56.9054 13.2587C58.2531 13.6703 58.9338 13.6075 60.3446 12.9415C61.3123 12.4846 61.991 11.9292 61.8529 11.707C61.7148 11.4849 61.9617 11.3334 62.4009 11.3699C62.8407 11.4065 63.3049 11.1395 63.4332 10.7766C63.6051 10.2889 63.3632 10.2017 62.5062 10.4433C61.7075 10.6679 61.5542 10.6265 62.014 10.3099C62.5777 9.92111 62.5777 9.80321 62.014 9.55134C61.6468 9.38766 61.8701 9.38474 62.5096 9.54453C63.3681 9.75985 63.5728 9.67509 63.2912 9.22154C63.041 8.81866 63.1071 8.72853 63.4827 8.95944C63.7981 9.15334 63.9293 9.51578 63.7741 9.76521C63.6193 10.0146 63.8362 10.2188 64.2559 10.2188C65.513 10.2188 65.1218 9.32237 63.5003 8.48786C61.9391 7.68501 61.9044 7.47651 62.8333 4.49458C63.0904 3.66981 62.9788 3.39847 62.3833 3.39847C61.9474 3.39847 61.588 3.67274 61.5841 4.00742C61.5787 4.4483 61.4587 4.43125 61.1487 3.94506C60.8789 3.52123 60.4759 3.42673 60.0547 3.68931C59.6879 3.91779 59.0126 4.04348 58.5542 3.96845C58.0048 3.87881 57.3794 4.49848 56.7178 5.788C56.1664 6.86415 55.7247 7.9174 55.7369 8.12883C55.7492 8.34074 56.2658 7.55007 56.8853 6.37211C57.8692 4.50092 58.0464 4.36256 58.2869 5.27648C58.4646 5.95266 58.3755 6.20842 58.0347 5.99846C57.6978 5.79141 57.6238 5.97654 57.8299 6.51047C58.0469 7.07363 57.9671 7.23245 57.5851 6.99763C57.2026 6.76233 57.1228 6.92115 57.3402 7.4848C57.5175 7.94468 57.4676 8.20093 57.2296 8.05478C56.9916 7.90814 56.6488 8.17073 56.4681 8.63841C56.1566 9.44174 56.113 9.44223 55.664 8.6462C55.3295 8.0543 55.4226 7.35472 55.9779 6.28686C56.4118 5.45235 56.6498 4.65291 56.5068 4.51114C56.1033 4.10972 54.7355 4.76593 54.7355 5.36076C54.7355 5.65257 54.9534 5.7578 55.2198 5.59411C55.4945 5.42507 55.5807 5.61507 55.4186 6.035C55.1904 6.62739 54.8285 6.48806 53.5881 5.33153C52.738 4.53892 51.877 3.88904 51.6748 3.88807C51.4725 3.88661 51.3075 3.47251 51.3075 2.96733C51.3075 1.32266 46.7229 -0.815494 45.9305 0.459901C45.6484 0.91345 45.3052 0.930006 44.5461 0.52566C43.146 -0.219701 40.7391 -0.146133 39.9222 0.666456C39.5471 1.03962 38.8214 1.42497 38.3087 1.52338C37.7964 1.6213 36.914 2.52352 36.3474 3.52805C35.7813 4.53258 35.1775 5.21461 35.0061 5.0441C34.8342 4.8736 34.4169 5.36515 34.0781 6.13682C33.7392 6.908 32.9904 7.99388 32.4145 8.54924C31.4136 9.51334 31.3195 9.52065 30.3186 8.7144C29.7422 8.25013 29.2706 7.68015 29.2706 7.44778C29.2706 7.2154 28.92 6.52753 28.4919 5.91955C27.9611 5.16542 27.5326 4.96227 27.1453 5.2799C26.7638 5.59363 26.1168 5.38074 25.1732 4.63099C24.0204 3.71415 23.8617 3.35218 24.2863 2.6039C24.7476 1.79082 24.8921 1.90141 25.6379 3.64205C26.0968 4.71381 26.5669 5.32423 26.682 4.9988C27.0796 3.87881 25.6281 1.69876 24.3691 1.52484C23.6982 1.43179 22.9729 1.04839 22.7574 0.672301C22.2756 -0.169518 18.9235 -0.241142 18.1052 0.572909C17.6483 1.02743 17.3868 1.02743 16.9299 0.572909C16.094 -0.25868 15.0602 -0.151006 13.2326 0.957292ZM13.5999 1.44981C12.6572 1.96328 12.0622 2.39247 12.2777 2.40368C12.4931 2.41488 12.4535 2.80753 12.1895 3.27618C11.8403 3.89781 11.9329 4.37913 12.5328 5.05239C13.3188 5.93513 13.308 5.95169 12.2855 5.41825C10.6714 4.57594 10.2449 4.71722 9.18712 6.44324C7.92171 8.50735 7.93639 8.56874 9.80463 9.02034L11.3962 9.40519L10.0495 9.60103C9.29777 9.70967 8.70279 10.1048 8.70279 10.4945C8.70279 10.9178 9.23362 11.216 10.0495 11.2506L11.3962 11.3085L9.92705 11.6184C8.72776 11.8712 8.43099 12.2035 8.31052 13.4287C8.17585 14.801 8.28017 14.9204 9.53481 14.8302C10.2895 14.7762 10.524 14.8273 10.0563 14.9443C9.26546 15.1416 9.27525 15.2901 10.1979 17.0892C10.7429 18.1522 11.4006 18.8917 11.6597 18.7324C11.9187 18.5731 12.1307 18.6754 12.1307 18.959C12.1307 19.2425 11.8002 19.4749 11.3962 19.4749C10.9858 19.4749 10.6616 19.9089 10.6616 20.4585C10.6616 21.2774 10.8869 21.3933 12.0083 21.1497C12.928 20.95 13.1464 21.0036 12.6978 21.3188C12.1494 21.7036 12.1489 21.9526 12.6929 22.8197C13.4956 24.0981 14.8437 24.2515 14.3364 23.0068C10.7003 14.0868 10.8462 8.93265 14.8472 4.95252C16.689 3.12029 16.9142 2.67746 16.5239 1.65588C15.9872 0.252362 15.8202 0.240672 13.5999 1.44981ZM19.1062 0.788731C18.7678 0.930008 18.6248 1.26078 18.7879 1.52385C18.9514 1.78692 18.7467 1.93259 18.3334 1.84782C17.9201 1.76306 17.5122 1.89897 17.4275 2.14986C17.3422 2.40075 18.2644 2.64141 19.4764 2.68477C20.6884 2.72764 22.066 2.92933 22.5371 3.13296C23.1522 3.39847 23.3941 3.28154 23.3941 2.71984C23.3941 2.28919 23.1287 1.99202 22.804 2.05876C22.4798 2.1255 22.2041 1.85172 22.1918 1.44981C22.1693 0.709323 20.2687 0.302054 19.1062 0.788731ZM40.6162 1.48587C40.4095 2.04172 40.0863 2.48017 39.8973 2.46019C39.7087 2.44022 39.6093 2.5888 39.6769 2.78951C39.7445 2.99022 40.0197 3.06914 40.2891 2.9644C40.5584 2.85966 41.8258 2.76272 43.1049 2.74908C44.7528 2.73106 45.431 2.52644 45.431 2.0461C45.431 1.67342 45.1577 1.45907 44.8233 1.57014C44.4888 1.68121 43.9222 1.48002 43.5642 1.12342C42.5877 0.1525 41.0418 0.342496 40.6162 1.48587ZM46.1945 1.88144C45.5172 3.18412 45.5427 3.29324 46.6641 3.8905C48.0852 4.64707 50.1386 7.5072 50.595 9.36622C50.927 10.7171 51.5059 11.0815 52.0161 10.2602C52.1684 10.0151 52.0161 9.70382 51.6777 9.56791C51.3105 9.42078 51.4123 9.30582 51.9299 9.28293C53.1856 9.22739 54.0034 7.20419 53.2996 5.89567C52.7218 4.82196 51.1018 4.49556 50.573 5.34712C50.4065 5.61506 50.0078 5.82746 49.6871 5.81869C49.3648 5.81041 49.4878 5.51324 49.9608 5.15615C50.4319 4.80003 50.8178 4.25929 50.8178 3.95384C50.8178 3.21676 49.7199 3.24647 48.8418 4.00742C48.4555 4.34259 48.6484 4.03665 49.2703 3.32783C50.4427 1.993 50.358 1.80739 48.2003 0.991389C47.0524 0.557326 46.8321 0.654766 46.1945 1.88144ZM37.2391 3.01701C36.9624 3.36095 36.5717 4.17452 36.3704 4.82537L36.0051 6.00869L37.5055 4.82537C38.3312 4.17452 38.9507 3.43647 38.8826 3.18558C38.6799 2.43827 37.7793 2.34619 37.2391 3.01701ZM13.12 3.65374C13.4608 4.06198 13.8403 4.29582 13.9637 4.17355C14.3031 3.83545 13.6131 2.9113 13.0215 2.9113C12.6964 2.9113 12.7336 3.19093 13.12 3.65374ZM17.5176 3.74045C15.7664 4.37182 13.5303 7.14087 12.8261 9.5499C11.5421 13.9436 13.4799 21.063 17.6689 27.3411C20.4921 31.5721 25.6026 37.2885 28.5247 39.4832L31.202 41.4937L32.8073 40.5053C37.7568 37.4585 45.9286 27.156 48.3502 20.9101C50.1631 16.2328 50.8457 12.3657 49.7938 12.7291C39.4845 16.2917 38.5996 16.7161 38.838 17.9876C39.0031 18.8654 38.793 18.6633 38.1246 17.3002C37.604 16.2382 37.2994 15.1732 37.4478 14.934C37.6001 14.689 37.8518 14.7099 38.0241 14.9822C38.2083 15.2726 40.7288 14.5823 44.361 13.245C50.2218 11.0879 50.383 10.9899 50.0769 9.76959C48.6998 4.27877 43.4653 1.88241 38.7959 4.60468C36.7078 5.8221 33.8121 9.58934 32.4243 12.8933C32.0291 13.834 31.536 14.6032 31.3283 14.6032C31.1207 14.6032 30.3288 13.2996 29.5678 11.7061C26.5027 5.28525 21.8187 2.18884 17.5176 3.74045ZM44.0941 4.78201C45.5598 5.74318 47.8854 8.62525 47.8698 9.46073C47.8649 9.74377 47.0994 9.07246 46.1695 7.96952C45.2395 6.86658 43.8776 5.5722 43.1431 5.09331C42.3209 4.55743 42.9271 5.46843 44.7209 7.46336C46.3233 9.2459 47.7086 10.4843 47.7988 10.2149C47.8894 9.94595 48.1646 9.84949 48.4109 10.001C48.6572 10.1525 48.859 10.1394 48.859 9.97177C48.859 8.57897 44.719 3.88368 43.4952 3.88904C43.028 3.89099 43.2572 4.23297 44.0941 4.78201ZM41.9051 7.01566C43.1666 8.20141 44.3091 9.06125 44.4447 8.9268C44.7567 8.61599 40.7361 4.85996 40.0917 4.85996C39.8277 4.85996 40.6436 5.8299 41.9051 7.01566ZM61.1722 6.19965C60.638 7.44192 60.6502 7.47067 61.3387 6.59378C61.7472 6.07349 62.0811 5.47087 62.0811 5.25408C62.0811 4.51359 61.7491 4.85947 61.1722 6.19965ZM38.5751 5.66474C38.5751 5.89176 39.3464 6.69024 40.2891 7.43852C41.2317 8.1868 41.9874 8.62525 41.9678 8.41284C41.9178 7.86868 38.5751 5.16053 38.5751 5.66474ZM27.3117 6.19965C27.3117 6.43203 27.6315 7.04781 28.0218 7.5681C28.7069 8.48056 28.7221 8.47471 28.4528 7.40977C28.1741 6.31024 27.3117 5.39535 27.3117 6.19965ZM34.2411 7.29578C33.9596 8.0996 33.4865 8.75727 33.1902 8.75727C32.894 8.75727 32.3592 9.44807 32.0027 10.2923L31.3538 11.8274L30.6795 10.4502C30.3088 9.69263 29.7157 8.97892 29.3617 8.86395C28.9704 8.7368 29.2383 9.64536 30.0448 11.1799L31.3719 13.7044L32.5492 11.3938C33.1971 10.1228 34.1564 8.48251 34.6819 7.74884C35.7382 6.27322 35.8557 5.83429 35.1951 5.83429C34.9522 5.83429 34.5227 6.49196 34.2411 7.29578ZM38.5379 7.95637C39.8219 9.34917 40.0442 9.47583 40.0442 8.81329C40.0442 8.57604 39.4384 7.99631 38.6975 7.52523L37.3508 6.66832L38.5379 7.95637ZM36.8351 8.71586C36.9874 8.9609 36.8459 9.2493 36.5207 9.35745C36.0619 9.50945 36.0609 9.63368 36.5178 9.91477C36.8488 10.1179 37.1059 10.0244 37.1059 9.70091C37.1059 9.27172 37.293 9.27951 37.8405 9.7316C38.7112 10.4506 38.8371 9.69993 37.9874 8.85471C37.2994 8.17024 36.4316 8.06549 36.8351 8.71586ZM53.5426 9.10169C53.2772 9.7959 53.333 9.85192 53.8168 9.3745C54.1518 9.04372 54.3021 8.65058 54.1513 8.50102C54.0004 8.35097 53.7267 8.62135 53.5426 9.10169ZM57.184 10.7132C57.7829 11.1687 57.6923 11.2282 56.6943 11.0352C56.021 10.9052 55.0391 10.9607 54.5117 11.1595C53.7257 11.4552 53.9691 11.6608 55.8648 12.3033C57.6801 12.9186 58.5043 12.9727 59.7085 12.5552L61.2413 12.0237L60.0694 11.4255C59.4254 11.0966 58.3471 10.6762 57.6737 10.4911C56.6904 10.2212 56.5939 10.265 57.184 10.7132ZM56.5602 12.0067C57.6096 12.4324 58.4867 12.4928 59.2433 12.1908C60.5253 11.6788 60.2555 11.5828 57.1948 11.461L55.0014 11.3738L56.5602 12.0067ZM51.43 12.0028C51.0935 12.1382 50.8178 13.0185 50.8178 13.9597C50.8178 16.1529 49.5485 20.5374 48.0622 23.4769C46.9281 25.7208 46.9227 25.7856 47.8477 26.2781C48.3683 26.5553 48.9192 26.7823 49.0715 26.7823C49.5358 26.7823 49.38 24.9106 48.8908 24.6096C48.6391 24.4547 48.9755 23.7458 49.6386 23.0346C50.5612 22.0437 50.6973 21.6413 50.2184 21.3168C49.8012 21.0333 49.9961 20.9402 50.8056 21.0362C51.6425 21.1356 52.071 20.9159 52.1885 20.3274C52.3109 19.7146 52.0392 19.4705 51.2208 19.4603C50.2414 19.4471 50.1978 19.3789 50.9074 18.9672C51.5573 18.5897 53.2664 15.9298 53.2664 15.295C53.2664 15.2219 52.8805 15.0451 52.4094 14.9028C51.9383 14.7601 52.2683 14.7065 53.1439 14.7825C54.5171 14.9024 54.7355 14.7684 54.7355 13.8053C54.7355 12.2897 53.0308 11.3602 51.43 12.0028ZM13.8286 24.5419C13.284 24.9374 13.0715 25.4923 13.2683 26.0024C13.5308 26.6829 13.7679 26.7273 14.6464 26.2596C15.5577 25.7744 15.6635 25.8085 15.3961 26.5012C15.0127 27.4955 16.0289 29.2182 16.999 29.2182C17.5269 29.2182 17.57 29.3609 17.164 29.7648C16.8618 30.0653 16.7335 30.6188 16.8785 30.9948C17.0856 31.5327 17.2933 31.5541 17.8471 31.0966C18.4025 30.6382 18.5205 30.6528 18.402 31.1663C18.3197 31.5249 18.7418 32.072 19.3403 32.3828C20.1096 32.7827 20.2756 33.0999 19.9068 33.4667C18.9984 34.3704 20.3035 36.15 21.5875 35.7578C22.1772 35.5776 22.7408 35.3584 22.8397 35.2707C22.9391 35.183 22.0288 33.9495 20.8167 32.5299C19.6047 31.1103 17.734 28.5887 16.6596 26.926C14.9054 24.2121 14.6165 23.9685 13.8286 24.5419ZM3.94085 26.7336C0.307693 29.0696 -0.0120991 29.5377 1.83998 29.8081C2.98346 29.9752 3.18082 29.8865 2.76848 29.3921C2.36398 28.9073 2.8914 28.4548 5.08089 27.4079C6.64111 26.662 8.0025 25.7778 8.10632 25.4426C8.44813 24.3382 6.93885 24.8059 3.94085 26.7336ZM18.9867 26.0784C18.9867 27.628 28.991 38.9614 30.3587 38.9614C30.6232 38.9614 28.9694 37.1531 26.6834 34.9423C24.397 32.7316 21.8216 29.7721 20.9597 28.3656C19.5102 26.0004 18.9867 25.3934 18.9867 26.0784ZM44.3982 29.3736C41.601 33.3717 33.6662 41.2594 32.0301 41.6676C30.6379 42.0155 29.0713 41.0572 25.087 37.42C22.7271 35.2663 21.591 35.5435 23.1977 37.8804C23.8098 38.7709 24.4347 39.2567 24.609 38.9765C24.7804 38.7003 25.1414 38.4743 25.4107 38.4743C25.68 38.4743 25.7682 38.6872 25.6061 38.9478C25.4445 39.2079 25.6859 39.9884 26.1428 40.6816C26.6835 41.5035 27.0933 41.749 27.3186 41.386C27.5522 41.01 28.1061 41.2375 29.0287 42.088C30.7451 43.6708 32.2074 43.685 33.6721 42.1338C34.4419 41.3188 35.0002 41.0738 35.3768 41.3851C35.7607 41.7017 36.1951 41.4138 36.7533 40.4726C37.2024 39.7165 37.4287 38.9575 37.2563 38.7861C37.0839 38.6146 37.1813 38.4743 37.4732 38.4743C37.7651 38.4743 38.0873 38.7232 38.1892 39.0282C38.4012 39.6605 40.2073 37.1175 40.2073 36.1865C40.2073 35.791 40.6054 35.6726 41.3287 35.8533C42.2322 36.0789 42.5109 35.8933 42.7626 34.8956C42.934 34.215 42.9095 33.3927 42.7082 33.0677C42.4888 32.7155 42.5466 32.604 42.8512 32.791C43.478 33.1764 44.646 31.8742 44.2484 31.2335C44.0863 30.9724 44.3879 30.8818 44.9408 31.0255C46.0368 31.3105 46.3698 29.9669 45.3086 29.5407C44.9202 29.3848 44.9893 29.281 45.4971 29.2566C45.9374 29.2357 46.6455 28.6905 47.0701 28.0455C47.7067 27.079 47.7248 26.8276 47.1739 26.6172C46.7542 26.4569 45.7204 27.4839 44.3982 29.3736ZM5.02995 28.957C3.59314 29.6113 3.62793 29.6269 6.62153 29.6659C9.52991 29.7034 10.5891 29.1816 8.90747 28.5395C7.74784 28.0967 6.66166 28.2136 5.02995 28.957ZM23.8838 29.5645C23.8838 30.1672 27.917 34.8259 29.6124 36.1822C32.3303 38.3559 32.6986 38.5863 32.6986 38.1128C32.6986 37.8487 31.8396 37.0405 30.7897 36.3166C29.7402 35.5927 27.7569 33.6781 26.3823 32.0612C25.0082 30.4448 23.8838 29.3214 23.8838 29.5645ZM28.038 32.1411C29.2853 33.8019 33.1222 37.0162 33.8337 36.9972C34.152 36.9889 33.7514 36.4978 32.9434 35.9059C32.1354 35.314 30.4954 33.951 29.299 32.8768C28.0365 31.7431 27.5072 31.4343 28.038 32.1411ZM36.6162 31.6018C36.6162 31.841 36.9781 32.1747 37.4198 32.3438C38.0922 32.6005 38.1226 32.5289 37.605 31.9088C36.8998 31.0635 36.6162 30.9753 36.6162 31.6018ZM33.7857 32.904C34.5183 33.6616 35.2313 34.1682 35.3709 34.0294C35.5105 33.8905 34.9111 33.2704 34.0394 32.6517L32.4537 31.5263L33.7857 32.904ZM35.8351 32.5591C36.8332 33.6757 37.1059 33.8199 37.1059 33.2329C37.1059 33.0292 36.6104 32.5596 36.0041 32.1894C34.9062 31.5185 34.9057 31.5195 35.8351 32.5591ZM31.0179 32.7759C31.274 33.4341 34.5908 35.7963 34.842 35.4996C34.9311 35.3939 34.056 34.6072 32.8974 33.7502C31.7387 32.8938 30.8925 32.4554 31.0179 32.7759Z" fill="#A3AD7E"></path></svg> 