<?xml version="1.0" encoding="UTF-8"?> <svg xmlns="http://www.w3.org/2000/svg" width="33" height="54" viewBox="0 0 33 54" fill="none"><path fill-rule="evenodd" clip-rule="evenodd" d="M28.8114 5.02615L25.6939 10.0523L27.8039 9.64583C29.4505 9.32867 29.7245 9.46963 29.0521 10.2867C28.4471 11.021 27.4673 11.1259 25.7768 10.6374C24.3009 10.2105 23.5463 10.2375 23.8342 10.7063C24.1114 11.1595 21.8713 11.4291 18.361 11.3652C13.7977 11.2824 13.0788 11.1275 15.2637 10.6981C17.7853 10.2023 17.4608 10.0712 12.4177 9.54503C9.28717 9.21804 5.62806 8.63453 4.28638 8.2469L1.84697 7.54292L4.69295 7.40196C10.3028 7.12332 11.085 5.85552 5.68416 5.79406C-0.49649 5.7244 -1.31126 6.8414 1.67377 11.289C4.09203 14.8908 9.49617 21.061 7.59749 18.0517C5.15239 14.177 6.37535 14.3671 10.0898 18.4393C12.1446 20.693 13.3471 21.7994 12.7617 20.8979C12.1762 19.9964 10.0296 17.4674 7.99185 15.2768C5.44511 12.5404 4.79459 11.4455 5.91266 11.7758C6.80711 12.0397 11.046 12.356 15.3329 12.4789L23.1276 12.7027L20.8296 16.3905C19.566 18.4189 17.8405 20.9692 16.9965 22.0576L15.4613 24.0359L12.1201 22.3698L8.77898 20.7037L10.4231 22.85C14.2937 27.9024 14.6108 28.7883 15.2524 36.3321C16.1419 46.8032 17.6259 49.1716 23.2934 49.1716C24.6384 49.1716 25.9386 49.4978 26.1825 49.896C27.2908 51.7039 14.5433 53.9207 10.1971 52.6759C7.13723 51.7998 7.22425 50.6517 10.476 49.006C11.9909 48.239 12.682 47.5948 12.0112 47.5751C10.463 47.5293 5.50609 50.5426 5.50609 51.5302C5.50609 53.5405 18.191 54.8648 22.7893 53.3356C28.7829 51.3417 28.7138 48.5856 22.6495 47.7653C18.0333 47.1416 17.5104 45.7935 17.8365 35.3667L18.1097 26.6346L21.5672 22.1272C23.4683 19.6481 24.8587 17.1765 24.6571 16.6356C24.4546 16.0939 25.0246 14.8031 25.9231 13.7672L27.5576 11.8831L26.1744 14.3417C25.2466 15.9931 26.1532 15.3202 28.9374 12.2929C33.3739 7.46834 33.8504 6.55621 31.933 6.55621C31.2622 6.55621 30.7133 6.925 30.7133 7.37574C30.7133 7.82648 30.1222 8.19526 29.4001 8.19526C28.191 8.19526 28.191 8.03218 29.4001 6.14645C30.1222 5.0196 31.3045 3.17566 32.0265 2.04882C32.7486 0.921967 33.0218 0 32.6339 0C32.2461 0 30.5255 2.26189 28.8114 5.02615ZM12.8243 6.24479C17.5438 6.85451 25.0246 6.91926 25.023 6.35133C25.0222 6.01368 21.82 5.79159 17.9064 5.85961C13.9936 5.92681 11.7063 6.10055 12.8243 6.24479ZM2.32104 10.1285C2.50806 10.2908 4.48967 10.6571 6.72579 10.9423C9.50103 11.2972 10.4044 11.2078 9.57177 10.6612C8.47078 9.93758 1.51359 9.42701 2.32104 10.1285ZM19.5181 20.2833C17.4128 23.3475 16.729 24.5858 17.1404 24.5858C17.3307 24.5858 18.4553 23.1106 19.6392 21.3077C22.0453 17.6436 21.9404 16.7577 19.5181 20.2833ZM15.0645 28.2737C15.2784 29.4005 15.7768 30.3225 16.172 30.3225C16.5664 30.3225 16.89 29.4005 16.89 28.2737C16.89 27.0919 16.4216 26.2248 15.7833 26.2248C15.0409 26.2248 14.8043 26.9001 15.0645 28.2737ZM14.6392 47.5325C14.0806 48.434 13.1227 49.1716 12.5105 49.1716C11.8982 49.1716 10.9419 49.7248 10.3849 50.4009C9.0042 52.0776 9.76285 51.9449 13.1845 49.91C14.775 48.9642 16.0769 47.6735 16.0769 47.0416C16.0769 45.5099 15.8427 45.5903 14.6392 47.5325Z" fill="#A3AD7E"></path></svg> 