<?xml version="1.0" encoding="UTF-8"?> <svg xmlns="http://www.w3.org/2000/svg" width="139" height="103" viewBox="0 0 139 103" fill="none"><path fill-rule="evenodd" clip-rule="evenodd" d="M136.657 12.5487C136.376 12.5778 135.99 12.671 135.798 12.756C135.46 12.9059 132.729 12.6914 130.814 12.3646C130.294 12.276 129.593 12.2085 129.256 12.2147C128.919 12.2209 128.202 12.1967 127.662 12.1605C126.696 12.0961 122.931 12.0827 120.368 12.1347C119.649 12.1493 118.652 12.1227 118.154 12.0756C117.655 12.0284 116.976 12.0441 116.644 12.1102C116.312 12.1765 115.651 12.1869 115.175 12.1336C114.7 12.0802 114.163 12.0673 113.983 12.1047C113.803 12.1421 112.843 12.1841 111.849 12.198C110.855 12.2119 109.903 12.3225 109.734 12.4437C109.565 12.5648 109.095 12.6357 108.689 12.6011L107.951 12.5382L108.559 12.7336C108.892 12.841 109.589 12.9249 110.106 12.9201C111.378 12.908 112.667 12.9376 113.661 13.0011C114.115 13.0301 114.658 13.0193 114.868 12.9772C115.078 12.9351 116.314 12.9565 117.615 13.0249C118.916 13.0934 120.634 13.1203 121.432 13.0845C122.231 13.0488 122.995 13.0516 123.131 13.0905C123.266 13.1294 124.101 13.1472 124.986 13.1301C125.871 13.1129 127.297 13.1636 128.155 13.2425C129.013 13.3214 130.199 13.4215 130.792 13.465C131.385 13.5084 132.406 13.5893 133.062 13.6444C133.717 13.6996 134.416 13.6723 134.616 13.5838C134.815 13.4953 135.24 13.5259 135.56 13.6518C136.116 13.8703 136.138 13.9339 136.057 15.0574C136.01 15.7047 136.051 16.9324 136.148 17.7857C136.303 19.1458 136.263 19.5548 135.825 21.1022C135.344 22.7975 135.296 22.8848 134.61 23.3096C134.217 23.5529 133.777 23.7184 133.633 23.6773C133.488 23.6363 133.122 23.9342 132.82 24.3394C132.518 24.7444 131.983 25.3172 131.631 25.6122C131.28 25.9072 130.958 26.2685 130.917 26.415C130.821 26.7507 128.536 28.5745 126.844 29.6655C126.138 30.1209 125.178 30.8056 124.712 31.1869C122.961 32.6188 122.318 33.0669 121.986 33.0851C121.799 33.0954 121.264 33.481 120.798 33.9423C120.333 34.4035 119.809 34.815 119.633 34.8567C119.458 34.8985 118.913 35.4086 118.421 35.9902C117.929 36.5719 117.364 37.1193 117.166 37.2069C116.968 37.2944 116.765 37.5125 116.714 37.6913C116.663 37.87 116.459 38.0882 116.261 38.1761C116.062 38.2639 115.588 38.6742 115.206 39.0879C114.824 39.5017 114.426 39.8646 114.321 39.8944C114.154 39.9419 113.431 40.7187 111.726 42.6809C111.365 43.0958 111.098 43.2201 110.703 43.1555C110.142 43.0637 108.974 43.822 108.19 44.7875C107.606 45.5068 106.034 46.8208 104.8 47.6211C104.21 48.004 103.32 48.6069 102.821 48.9609C102.323 49.3148 101.587 49.8267 101.187 50.0983C99.6077 51.169 97.445 52.8347 95.7521 54.2836C94.7752 55.1199 93.8032 55.8799 93.5919 55.9725C93.3807 56.0651 92.8141 56.4793 92.3324 56.8931C91.8509 57.3069 91.0844 57.888 90.6292 58.1845C89.8842 58.6696 89.7663 58.6895 89.4487 58.3827C88.8868 57.8395 83.7678 56.4068 83.1114 56.6088C82.8271 56.6963 82.3533 56.7594 82.0584 56.7491C81.3737 56.7251 80.0052 57.0811 79.9432 57.2995C79.8614 57.5878 80.8993 57.7671 81.4738 57.564C81.9205 57.4062 82.4227 57.4831 84.1525 57.9741C85.8165 58.4464 86.3988 58.6882 86.8194 59.0814C87.1153 59.3582 87.6724 59.6739 88.0575 59.7832C88.4423 59.8924 88.9474 60.1235 89.1799 60.2965C89.6692 60.661 91.1003 63.0948 91.0107 63.4103C90.9425 63.6505 91.2945 64.7487 91.7261 65.6427C92.281 66.7919 91.761 70.7877 90.8256 72.5623C89.9364 74.2496 89.0976 75.1984 88.1345 75.6062C87.6433 75.8144 87.2003 76.1265 87.1504 76.2996C87.054 76.6326 85.3398 77.6922 84.5932 77.8802C83.7504 78.0923 82.7099 78.3853 81.9516 78.6234L81.189 78.8632L80.6544 78.2781C80.1222 77.6956 80.2662 77.3998 80.986 77.5961C81.1406 77.6384 81.6012 77.6014 82.0095 77.5139C82.4178 77.4266 82.9748 77.3634 83.2476 77.3735C83.7297 77.3915 85.3619 76.2982 85.9682 75.5513C86.1305 75.3514 86.4525 75.0386 86.6838 74.8567C87.247 74.4132 86.8643 74.3334 86.0828 74.7317C85.7389 74.9067 85.1415 75.0134 84.755 74.9685C84.3686 74.9239 83.7284 74.9184 83.3326 74.9563C82.9368 74.9943 82.2834 74.9876 81.8804 74.9413C81.4777 74.895 80.7894 74.9759 80.3513 75.1212C79.913 75.2664 79.4194 75.3502 79.2543 75.3076C79.0893 75.2651 78.4429 75.1285 77.8181 75.0044C75.9745 74.6382 72.9874 72.5603 72.4582 71.2759C72.2733 70.8266 72.1395 70.6821 72.0728 70.8594C71.8613 71.4203 71.8553 71.8417 72.0523 72.2914C72.2856 72.8239 73.4784 73.8606 74.0413 74.0204C74.3838 74.1176 75.1878 74.7382 76.3018 75.7654C76.5198 75.9664 77.1232 76.3159 77.6425 76.5417C78.3874 76.8659 78.5556 77.0133 78.4387 77.2406C78.0883 77.922 73.0035 75.6829 72.7005 74.7138C72.5269 74.1592 71.2913 72.6393 70.9305 72.5369C70.7948 72.4983 70.6768 72.2621 70.6684 72.0121C70.6552 71.6272 70.6254 71.6033 70.4745 71.8566C70.3763 72.0213 70.3859 72.3172 70.4958 72.5144C70.6059 72.7116 70.7008 73.0438 70.7074 73.2524C70.7181 73.6084 71.6749 74.9501 71.9794 75.0365C72.0557 75.0582 72.5738 75.5942 73.1308 76.2275C74.3994 77.6701 75.408 78.612 75.8049 78.7247C75.9732 78.7724 76.4128 79.0804 76.7816 79.4091C77.8814 80.3886 81.199 81.2021 81.811 80.6421C81.9086 80.5529 82.1716 80.5291 82.3956 80.5891C82.6196 80.6493 82.9994 80.6219 83.2394 80.5283C83.4795 80.435 83.7916 80.3912 83.933 80.4314C84.0744 80.4715 84.6231 80.3019 85.152 80.0544C85.6811 79.807 86.4827 79.5165 86.9335 79.409C87.384 79.3015 87.9169 79.035 88.1174 78.8167C88.3179 78.5984 88.7621 78.1211 89.1047 77.7562C89.4592 77.3784 89.8254 76.7493 89.9546 76.296C90.0798 75.8579 90.3857 75.2869 90.6344 75.0273C90.8834 74.7676 91.3019 74.2108 91.5644 73.7899C91.827 73.3691 92.4324 72.4738 92.9096 71.8005C93.3869 71.1273 93.852 70.3135 93.943 69.992C94.1632 69.2156 93.764 66.882 93.2357 65.857C93.0031 65.4057 92.6785 64.4578 92.5144 63.7506C92.2237 62.4977 92.2319 62.4096 92.8376 60.2943C93.3045 58.6633 93.56 58.036 93.8654 57.7712C94.6989 57.0482 99.3963 54.1941 99.6392 54.263C99.7086 54.2827 100.041 54.0395 100.379 53.7223C100.716 53.4052 101.493 52.8825 102.105 52.5608C103.036 52.0713 103.347 51.7709 104.01 50.7186C104.446 50.027 104.806 49.3184 104.809 49.1439C104.813 48.9695 105.197 48.5293 105.662 48.1658C106.126 47.8023 106.837 47.1989 107.24 46.825C107.644 46.4511 108.575 45.8145 109.309 45.4103C110.043 45.0062 111.02 44.3772 111.48 44.0123C113.267 42.5953 113.902 42.1827 116.948 40.4621C118.679 39.484 120.269 38.4665 120.481 38.2009C120.694 37.9353 121.235 37.5638 121.685 37.3751C122.237 37.1436 122.545 36.8797 122.635 36.5626C122.755 36.1399 123.345 35.6275 124.56 34.8903C124.793 34.7493 125.017 34.5137 125.059 34.3668C125.101 34.2199 125.234 34.0716 125.355 34.037C125.477 34.0024 125.821 33.7107 126.12 33.3888C126.418 33.0668 126.925 32.6538 127.245 32.4709C128.01 32.0345 128.587 31.1775 128.701 30.3091C128.782 29.6839 128.902 29.5451 129.827 29.0026C130.396 28.6687 131.346 28.0603 131.939 27.6503C132.61 27.1857 133.161 26.9463 133.401 27.0146C133.614 27.0749 134.092 27.1028 134.464 27.0763C135.061 27.0342 135.16 27.079 135.299 27.4556C135.386 27.6907 135.43 28.3742 135.397 28.9745C135.327 30.2367 135.629 32.4589 135.93 32.8973C136.216 33.3149 136.563 38.2351 136.357 38.9599C136.308 39.1346 136.315 39.5751 136.374 39.9387C136.479 40.5898 136.465 41.9632 136.329 44.4357C136.291 45.1271 136.298 45.8662 136.344 46.0781C136.39 46.2901 136.35 46.7401 136.254 47.078C136.159 47.4161 136.138 47.9668 136.207 48.3017C136.276 48.6368 136.259 49.1724 136.169 49.4919C136.079 49.8115 136.094 50.3931 136.202 50.7844C136.311 51.1757 136.348 51.6817 136.285 51.9088C136.221 52.1358 136.169 52.8171 136.169 53.4225C136.169 54.0279 136.156 54.8766 136.142 55.3086C136.127 55.7405 136.158 56.1997 136.211 56.3291C136.263 56.4583 136.259 56.9376 136.202 57.3941C136.144 57.8504 136.139 58.3892 136.189 58.5915C136.24 58.7936 136.298 59.217 136.318 59.5321C136.34 59.8684 136.454 60.077 136.595 60.0369C136.903 59.9495 137.199 58.1121 137.034 57.3148C136.968 56.9969 136.963 56.5652 137.022 56.3551C137.081 56.1452 137.052 55.7769 136.959 55.5366C136.866 55.2965 136.882 54.7635 136.995 54.3522C137.108 53.9408 137.134 53.4075 137.051 53.1671C136.969 52.9265 136.937 52.4245 136.981 52.0517C137.025 51.6788 137.06 50.3824 137.058 49.1709C137.056 47.9594 137.064 46.6754 137.074 46.3175C137.085 45.9596 137.042 45.5421 136.98 45.3898C136.917 45.2376 136.943 44.6463 137.038 44.0763C137.133 43.506 137.149 42.9295 137.074 42.7954C136.999 42.661 137.014 42.2852 137.106 41.9599C137.36 41.0633 137.602 37.52 137.487 36.3619C137.431 35.7982 137.452 35.1025 137.533 34.8161C137.674 34.3204 137.248 31.7466 136.903 31.0112C136.814 30.8207 136.718 30.2209 136.691 29.6782C136.65 28.8767 136.71 28.6038 137.011 28.2241C137.621 27.4523 137.853 24.8171 137.409 23.6905C137.017 22.6936 136.969 21.9863 137.17 20.1774C137.264 19.3235 137.362 18.2254 137.387 17.737C137.412 17.2487 137.467 16.2732 137.508 15.5692C137.642 13.2567 137.643 13.1078 137.524 12.8216C137.388 12.493 137.341 12.4778 136.657 12.5487ZM63.2374 0.406555C63.1389 0.462472 63.017 0.654648 62.9663 0.833227C62.9057 1.04645 62.6628 1.14543 62.2598 1.12112C61.6846 1.08635 60.2367 1.36917 59.9564 1.57103C59.8873 1.62068 59.6725 1.69881 59.479 1.7446C59.0348 1.84968 56.0488 3.2883 54.7521 4.022C54.0027 4.44601 53.7282 4.72301 53.5906 5.1936C53.298 6.19568 52.2613 8.48425 51.9513 8.81321C51.7935 8.98081 51.4948 9.49693 51.2874 9.96051C50.7741 11.1083 50.0881 11.5118 47.9057 11.9496C46.8882 12.1538 45.9866 12.4133 45.9019 12.5264C45.8172 12.6394 45.4428 12.7041 45.0698 12.6701C44.1658 12.5877 44.3944 12.8901 45.5797 13.3445C46.2704 13.6094 46.5876 13.6524 46.7036 13.4974C46.7925 13.3787 47.3626 13.3259 47.9703 13.3803C50.5524 13.6112 52.9073 13.6691 54.1606 13.5329C55.7035 13.3649 57.3355 12.9184 57.4138 12.6426C57.5258 12.2478 56.8884 12.0516 56.0516 12.2231C55.5733 12.3211 54.9159 12.3871 54.5908 12.3697C54.2657 12.3522 53.8981 12.3786 53.774 12.4283C53.4086 12.5746 51.0606 12.6495 50.6342 12.5285C50.2827 12.4287 50.3476 12.3418 51.2685 11.6815C51.8328 11.277 52.3245 10.8402 52.3611 10.7113C52.3977 10.5823 52.7676 10.3148 53.1833 10.1169C53.5989 9.91924 54.2821 9.42819 54.7017 9.02604C55.3678 8.38718 55.542 8.31673 56.0777 8.4688C56.4846 8.58429 56.9068 8.92713 57.3308 9.48608C58.1212 10.528 59.3444 11.6851 60.2147 12.2139C60.8314 12.5888 60.9167 12.5884 61.5969 12.2088C61.9958 11.9861 62.8538 11.6039 63.5036 11.3592C64.9194 10.8263 65.2585 10.9869 65.9166 12.5033C66.4862 13.8152 66.4024 15.866 65.7045 17.6923C65.0609 19.3768 64.0301 21.5109 63.6147 22.0181C63.0562 22.7001 62.3004 23.7217 62.0466 24.1371C61.6701 24.7534 59.8925 26.1773 58.7062 26.8126C58.1133 27.1301 57.6023 27.4817 57.5704 27.594C57.5386 27.706 57.1206 28.1358 56.6415 28.5487C56.1626 28.9619 55.4002 29.8703 54.9475 30.5675C54.4947 31.2647 53.9172 32.0916 53.6638 32.405C52.5751 33.7512 51.9682 34.4637 51.5348 34.9034C51.2578 35.1844 50.8541 35.9927 50.5278 36.9195C50.0347 38.3211 49.9452 38.4612 49.5751 38.411C49.16 38.3548 49.0603 37.9042 49.2771 37.0649C49.3302 36.8598 49.3072 36.3128 49.2261 35.8494C49.145 35.386 49.1559 34.7135 49.2499 34.3549C49.3441 33.9963 49.3613 33.4607 49.2881 33.1647C49.2149 32.8686 49.2106 32.417 49.2787 32.1611C49.3467 31.9052 49.3494 31.4385 49.2842 31.1242C49.2192 30.8097 49.2191 29.5035 49.2843 28.2217C49.3494 26.9396 49.3895 25.5011 49.3733 25.0247C49.3573 24.5484 49.4326 23.8467 49.5408 23.4655C49.6491 23.0841 49.6649 22.5627 49.5761 22.3067C49.4873 22.0509 49.4586 21.4713 49.5122 21.0189C49.5658 20.5665 49.5127 19.7967 49.3937 19.3084C49.2748 18.82 49.1322 18.1824 49.0767 17.8914C48.854 16.7247 47.8597 14.7436 47.4364 14.6234C46.9636 14.4892 46.7277 14.7699 47.1039 15.0187C47.4154 15.2246 48.4088 17.5877 48.3182 17.9069C48.2921 17.999 48.3895 18.7191 48.5348 19.5076C48.6799 20.2958 48.7681 21.2753 48.7307 21.684C48.6933 22.0928 48.693 22.5823 48.7299 22.7719C48.828 23.275 48.7074 25.6941 48.5133 27.1193C48.421 27.7975 48.4246 28.5191 48.5215 28.723C48.6183 28.9268 48.6544 29.3967 48.6015 29.767C48.4664 30.7151 48.4233 32.9504 48.5313 33.4064C48.6225 33.7906 48.5212 35.5526 48.2756 37.8576C48.1241 39.2785 47.8844 39.5015 47.1969 38.8609C45.8165 37.5747 43.0098 35.1845 42.8015 35.1179C42.6659 35.0746 42.2575 34.8187 41.8939 34.5494C41.0588 33.9306 38.6602 32.55 38.1871 32.4157C37.4303 32.2008 34.8691 30.2748 34.2595 29.462C34.0691 29.2082 33.779 28.9619 33.6148 28.9147C33.4506 28.8673 33.1179 28.6411 32.8759 28.4121C32.6337 28.183 32.1416 27.8553 31.7824 27.6839C30.8437 27.2361 29.5764 26.2943 28.1482 24.9829C27.4641 24.3547 26.4505 23.5581 25.8956 23.2127C24.6247 22.4209 23.8541 21.7116 23.5049 21.0111C23.1839 20.3675 22.9036 18.6488 23.0409 18.1651C23.0937 17.9793 23.0155 17.4617 22.8674 17.0145C22.5158 15.9532 22.6291 15.6303 23.6595 14.7527C24.3511 14.1638 24.8226 13.9664 26.0997 13.7315C26.9703 13.5713 28.1696 13.4027 28.7649 13.3569L29.847 13.2737L30.2668 13.8947C30.4976 14.2362 30.8715 14.5708 31.0976 14.638C32.1073 14.9378 34.6768 14.4499 35.2855 13.8424C35.5855 13.5432 35.9392 13.4224 36.3931 13.464C36.7599 13.4979 37.8532 13.4265 38.8225 13.3059C39.792 13.1851 40.7315 13.1261 40.9101 13.1748C41.3127 13.2847 41.3642 13.1336 41.1035 12.6056C40.9155 12.2247 41.0347 12.1184 42.8226 11.0718C44.7367 9.95148 47.8287 7.6346 47.946 7.2329C47.9798 7.11659 48.1445 7.0092 48.312 6.99409C48.4812 6.97885 48.6043 6.82966 48.5889 6.65853C48.5656 6.3995 48.4576 6.38945 47.9099 6.59591C47.5516 6.73098 47.2372 6.9166 47.2111 7.00848C47.1526 7.21484 45.893 7.9799 45.7012 7.92546C45.6246 7.90371 45.5974 7.76086 45.6407 7.60803C45.6841 7.4552 45.6387 7.30719 45.54 7.27918C45.4412 7.25112 45.29 7.54611 45.204 7.93445C45.0886 8.45536 44.9838 8.60677 44.8044 8.5116C44.6705 8.44057 44.4108 8.40429 44.2272 8.43066C44.0435 8.45699 43.8477 8.48105 43.7919 8.48382C43.0628 8.52169 42.5689 8.67053 42.3926 8.90614C42.2362 9.11476 42.137 9.12226 42.0317 8.93322C41.9263 8.74417 42.1787 8.34601 42.9496 7.48429C43.5344 6.83077 44.0617 6.12373 44.1216 5.91291C44.1814 5.70229 44.3187 5.50466 44.4266 5.47404C44.5344 5.44318 45.062 5.04166 45.5991 4.58139C46.7477 3.59688 47.6377 3.06603 48.3691 2.92914C48.6595 2.87486 49.0452 2.78477 49.2261 2.72883C49.5847 2.61824 50.7332 2.46765 52.6542 2.27948C54.1284 2.13506 55.1291 1.83298 55.0504 1.55623C54.9473 1.19306 54.2086 1.12292 52.9201 1.35388C52.2227 1.47899 51.3147 1.57478 50.9023 1.56682C49.6312 1.54208 47.4513 2.1738 46.4002 2.8713C45.8496 3.23685 45.3718 3.6297 45.3384 3.74453C45.3052 3.85923 45.1236 4.02125 44.9349 4.10479C44.7461 4.18834 44.5236 4.49649 44.4405 4.78956C44.3572 5.0828 44.2075 5.29954 44.1075 5.27116C44.0077 5.24284 43.5077 5.70283 42.9964 6.29334C41.5488 7.96502 39.4216 9.45562 38.0248 9.77695C37.6123 9.87187 36.7874 10.0813 36.1917 10.2421C34.0002 10.8338 31.6759 11.1091 30.2588 10.9449C29.4773 10.8541 28.4323 10.8472 27.9367 10.9293C27.2017 11.0509 26.8481 10.9992 26.0163 10.6476C25.4557 10.4108 24.7066 9.97156 24.3516 9.67183C23.9966 9.37209 23.2889 8.85272 22.7789 8.51778C22.2689 8.18265 21.3436 7.461 20.7223 6.91394C20.1013 6.36693 19.4624 5.8821 19.3024 5.8367C19.1425 5.7913 18.9435 5.59968 18.86 5.41086C18.7766 5.22203 18.4074 4.97811 18.0393 4.86884C17.6711 4.75951 17.0709 4.45541 16.7054 4.1929C15.3388 3.21187 13.8518 3.11709 11.4747 3.85957C10.1166 4.28356 9.34025 4.68171 7.69897 5.7952C6.57718 6.55631 4.30875 8.75449 4.18113 9.20408C4.1418 9.34265 3.8451 9.75366 3.52174 10.1177C3.19838 10.4817 2.89564 10.914 2.849 11.0783C2.8023 11.2428 2.64853 11.497 2.50739 11.6433C2.23278 11.9279 1.18579 14.8433 0.538726 17.1249C0.135912 18.5461 -0.0103611 19.8472 0.069344 21.302C0.0939045 21.7532 0.0702547 22.277 0.0165668 22.4661C-0.0371212 22.6552 0.0440283 23.2608 0.197104 23.8117C0.350126 24.3628 0.551095 25.2551 0.643778 25.7947C0.742624 26.371 1.25245 27.5248 1.87993 28.5925C2.8988 30.3264 3.28107 30.7872 4.81737 32.1323C5.18892 32.4575 6.13945 33.3899 6.92964 34.2043C7.71982 35.0187 8.75901 35.9665 9.23886 36.3105C9.71884 36.6547 10.0832 37.0356 10.0487 37.1573C10.0141 37.279 10.1925 37.4975 10.445 37.6431C10.6976 37.7885 11.0637 38.1274 11.2585 38.3961C11.4532 38.6647 11.7263 38.9168 11.8654 38.9563C12.0044 38.9957 12.0955 39.1073 12.068 39.2042C12.0405 39.3011 12.4931 39.8475 13.0736 40.4184C15.1144 42.4251 16.6152 44.0023 17.2184 44.7737C18.1028 45.9051 19.6264 47.5648 19.8348 47.624C20.1949 47.7262 21.4235 50.3061 21.4086 50.9286C21.4002 51.2811 21.0094 53.0368 20.5401 54.8303C20.071 56.6238 19.6296 58.3451 19.5594 58.6555C19.4889 58.9658 19.1382 59.722 18.7799 60.3359C18.4218 60.9498 17.851 61.9819 17.5118 62.6294C16.993 63.6191 15.4608 65.7535 14.3787 66.9934C14.2246 67.1699 13.9547 67.4986 13.7787 67.7239C13.3172 68.3147 13.0331 68.55 10.5696 70.3807C9.34968 71.2873 8.32117 72.1355 8.28431 72.2654C8.2474 72.3954 8.06281 72.57 7.87407 72.6536C7.68533 72.7371 7.47802 72.9819 7.41316 73.1977C7.34844 73.4138 7.1272 73.7175 6.92152 73.8727C6.49498 74.195 6.18327 75.0916 6.41112 75.341C6.50332 75.4418 6.6483 75.2102 6.77718 74.7561C6.9334 74.2057 7.06632 74.0257 7.27291 74.0843C7.42804 74.1284 7.69549 74.0015 7.86679 73.8025C8.73745 72.7916 9.78802 71.8719 11.7091 70.4393C13.0715 69.4234 15.2384 67.4983 15.3122 67.2384C15.3264 67.1882 15.8065 66.6066 16.379 65.9462C16.9516 65.2857 17.4616 64.5989 17.5124 64.4201C17.5631 64.2412 17.8019 63.9342 18.0428 63.738C18.2838 63.5416 18.6978 62.9859 18.9626 62.5032C19.3247 61.8427 19.5159 61.6604 19.7341 61.7663C20.4421 62.1104 21.544 60.7874 22.0582 58.9759C22.2962 58.1376 22.7587 57.8505 22.5688 58.659C22.2049 60.2089 21.0487 63.7155 20.867 63.8208C20.7458 63.8911 20.4953 64.4818 20.3102 65.1338C20.1137 65.8261 19.7809 66.5393 19.5103 66.8485C19.2553 67.1394 18.982 67.706 18.9029 68.1075L18.7589 68.8373L19.4605 68.059C19.8464 67.6311 20.2892 67.0361 20.4441 66.7368C20.6046 66.4273 20.8426 66.226 20.9962 66.2696C21.2176 66.3324 21.1681 66.6529 20.7218 68.0469C20.4225 68.9822 19.9756 70.001 19.729 70.3109C19.4827 70.6207 19.2243 71.0638 19.1549 71.2954C19.0858 71.527 18.8609 71.8436 18.6552 71.9989C18.2457 72.3084 17.9405 73.1089 18.2037 73.1836C18.2944 73.2094 18.4771 73.042 18.6097 72.8118C18.7423 72.5814 19.0209 72.3879 19.229 72.3813C19.4836 72.3735 19.7174 72.1326 19.9446 71.6436C20.1302 71.2443 20.3114 70.9703 20.3471 71.0346C20.501 71.3107 19.9295 73.2241 19.4858 73.9183C18.606 75.2948 18.4736 76.5759 19.3132 75.5868C19.7405 75.0835 20.487 75.3048 20.4048 75.9102C20.311 76.6014 20.3429 77.8772 20.4756 78.746C20.547 79.2139 20.5708 79.719 20.5284 79.8687C20.4485 80.1499 20.5426 82.2214 20.664 82.8524C20.8739 83.9451 21.0248 85.1669 20.9724 85.3514C20.9394 85.4676 20.9861 85.5835 21.0759 85.609C21.3728 85.6933 21.667 84.8189 21.6093 84.0239C21.4876 82.3491 21.5319 81.1681 21.7756 79.6022C21.9152 78.706 21.9898 77.6657 21.9415 77.2905C21.8934 76.9153 21.9131 76.3998 21.9854 76.1449C22.0578 75.89 22.0422 75.4424 21.9507 75.1502C21.8212 74.7357 21.8848 74.3706 22.2404 73.4879C22.5021 72.8386 22.7796 71.6989 22.8921 70.8112C23.0041 69.9286 23.6872 67.1167 24.4847 64.2572C25.2528 61.5027 25.8406 59.1155 25.7909 58.9523C25.711 58.6906 25.7465 56.2337 25.8774 52.9424C25.9012 52.3436 25.9455 50.9415 25.9757 49.8265C26.0062 48.7116 26.0784 47.6318 26.1365 47.4271C26.1947 47.2222 26.2209 46.6309 26.1947 46.113C26.1685 45.5951 26.2419 44.705 26.358 44.1348C26.57 43.0934 26.5486 42.6804 26.1574 40.2586C25.9748 39.127 24.7889 35.9252 24.2737 35.1723C23.8225 34.513 23.4213 32.1403 23.3554 29.7411C23.3151 28.2796 23.2585 26.7138 23.2293 26.2615C23.2003 25.8091 23.2171 25.2961 23.2667 25.1212C23.3654 24.7737 23.6687 24.7729 23.7672 25.1197C23.8013 25.2395 24.1595 25.4312 24.5632 25.5458C24.967 25.6604 25.7242 26.0555 26.2455 26.4237C26.7671 26.792 27.3714 27.1436 27.5884 27.2052C27.8053 27.2668 28.2249 27.5434 28.5208 27.8202C28.9263 28.1991 29.4273 28.4156 30.5527 28.6981C31.695 28.9847 32.2814 29.2406 33.0445 29.7855C33.5934 30.1775 34.1021 30.6142 34.175 30.7562C34.2477 30.8981 34.9998 31.6579 35.8461 32.4446C37.8852 34.3403 37.7676 34.7531 35.3141 34.3109C34.1379 34.0989 33.9333 34.0142 33.9078 33.7285C33.862 33.2205 33.3983 33.1754 33.3878 33.6781C33.3722 34.4203 34.2274 34.911 35.9497 35.1479C37.7322 35.393 39.2779 35.8486 40.4084 36.4621C41.0849 36.8291 41.383 37.199 42.1766 38.6561C42.7017 39.6201 43.1184 40.4536 43.1027 40.5088C43.0871 40.5638 42.8605 40.5482 42.5993 40.474C42.0318 40.3129 41.2671 40.4502 41.3381 40.7003C41.3659 40.7983 41.7086 41.0273 42.0995 41.2089C42.7877 41.529 42.9429 41.818 42.4948 41.9457C41.9935 42.0884 42.2353 42.3724 43.0573 42.6069C44.5088 43.0208 45.112 43.5161 46.0824 45.0915C47.044 46.6528 48.368 49.54 48.5659 50.5073C48.7496 51.4056 48.4263 51.4317 47.9823 50.5544C47.4674 49.5373 46.5991 48.6155 45.9942 48.4438C45.7348 48.3701 45.5178 48.2066 45.5122 48.0805C45.5061 47.9489 44.7747 47.5717 43.7963 47.1955C42.8583 46.835 41.8184 46.3899 41.4854 46.2065C40.4419 45.6314 38.8508 45.3529 37.4471 45.4998C36.714 45.5765 36.0138 45.6108 35.8911 45.5759C35.5993 45.4931 33.6964 45.8638 32.5799 46.2208C30.459 46.8993 29.1693 47.1189 28.653 46.8899C28.2594 46.7155 28.2609 46.6371 28.6848 45.1318C28.9288 44.2652 29.0793 43.3535 29.0192 43.1059C28.9593 42.8581 29.0782 41.8559 29.2833 40.8788C29.4883 39.9015 29.7055 38.3287 29.7657 37.3838C29.9009 35.2629 30.198 34.1752 30.842 33.4426C31.1149 33.1325 31.3026 32.8151 31.2594 32.7376C31.088 32.4301 30.3025 32.8171 29.9046 33.4047C29.3667 34.1991 28.5232 37.8802 28.5995 39.1005C28.6294 39.578 28.5266 40.4164 28.3713 40.9636C28.216 41.5107 28.1188 42.4874 28.1552 43.1336C28.2295 44.4491 27.9135 45.5178 27.2421 46.2236C26.6212 46.876 26.14 47.8124 26.3892 47.8831C26.498 47.914 26.9719 48.41 27.4423 48.9853C28.2057 49.9187 28.3836 50.0426 29.0954 50.1358C29.8719 50.2375 29.9021 50.2671 30.2355 51.2547C30.424 51.8124 30.7121 52.3985 30.8759 52.5566C31.0396 52.7148 31.8047 53.0235 32.5761 53.2424C34.0665 53.6655 37.0308 55.1641 37.3929 55.6776C37.512 55.8467 37.9284 56.2888 38.3181 56.6599C38.7078 57.0312 39.1261 57.4848 39.2479 57.6683C39.3695 57.8515 39.5982 58.0381 39.7559 58.0829C39.9136 58.1277 40.3045 58.3729 40.6246 58.6277C41.0389 58.9579 41.5366 59.1489 42.3529 59.2909C43.9584 59.5705 45.6311 60.4446 45.9405 61.1658C46.1912 61.7504 46.6429 62.0025 47.296 61.9223C47.6361 61.8805 47.6503 61.9552 47.4209 62.5817C47.0448 63.6087 46.9054 65.0856 47.0825 66.1678C47.1675 66.6872 47.1389 67.3997 47.0187 67.7511C46.8986 68.1023 46.527 69.258 46.1931 70.3192C45.6091 72.1746 45.5403 72.2972 44.3977 73.5128C43.7442 74.208 42.9259 75.2369 42.5791 75.799C42.2323 76.3611 41.859 76.8857 41.7495 76.9647C41.6401 77.0438 41.321 77.5387 41.0403 78.0645C40.408 79.249 39.1655 83.0137 39.5604 82.5487C39.711 82.3713 39.9635 81.793 40.1216 81.2638C40.3482 80.504 40.497 80.2822 40.828 80.2098C41.0586 80.1593 41.4421 79.7928 41.6802 79.395C41.9183 78.9972 42.3529 78.4135 42.6457 78.0979C42.9385 77.7822 43.3945 77.1456 43.659 76.6828C43.9236 76.2203 44.248 75.8061 44.3799 75.7627C45.4252 75.419 46.928 77.4937 46.9781 79.3497C46.9856 79.627 47.0879 80.0904 47.2054 80.3796C47.3776 80.8032 47.3259 81.2157 46.9389 82.5059C46.6258 83.5498 46.501 84.2925 46.5798 84.6413C46.6462 84.9354 46.6806 85.6208 46.6564 86.1643L46.6121 87.1526L46.9372 86.5167C47.2865 85.8338 47.7479 83.8271 47.7651 82.9158C47.7752 82.382 47.7969 82.3699 48.2724 82.6354C49.0318 83.0593 50.2601 84.7842 50.858 86.2667C51.1535 86.9993 51.4864 87.5728 51.5979 87.541C51.8185 87.4781 52.0291 86.0972 51.9068 85.5134C51.8652 85.3147 51.6076 84.6732 51.3345 84.0877C51.0614 83.5023 50.8617 82.9394 50.8908 82.8368C50.9667 82.5695 50.4164 81.2284 49.6072 79.7086C48.736 78.0727 47.5907 75.4362 47.6541 75.2128C47.6803 75.1205 47.6303 74.711 47.543 74.3025C47.3235 73.2741 47.5508 71.8114 47.9584 71.6312C48.2117 71.5191 48.3119 71.7271 48.4744 72.7036C48.6791 73.9328 49.1857 75.3723 49.4387 75.4441C49.6581 75.5064 49.7177 75.0729 49.5808 74.4107C49.4466 73.7617 49.7591 72.3323 50.0189 72.406C50.1044 72.4303 50.2102 72.6855 50.2538 72.9731C50.3431 73.5612 50.6303 73.7304 50.9083 73.3591C51.1676 73.0129 51.3972 73.1238 51.4118 73.6021C51.4186 73.8242 51.5434 74.0398 51.6893 74.0812C51.8592 74.1295 51.8991 74.3518 51.8003 74.6999C51.695 75.0709 51.7476 75.31 51.9664 75.4546C52.1423 75.571 52.2795 75.8864 52.2713 76.1553C52.263 76.4242 52.338 76.6675 52.4378 76.6958C52.7243 76.7771 52.9121 75.8294 52.6486 75.6318C52.5183 75.5342 52.4928 75.3456 52.5922 75.2131C52.7443 75.01 52.8169 75.0411 53.0525 75.4104C53.5568 76.2003 55.735 80.7016 55.7736 81.0336C55.7944 81.212 55.9719 81.8536 56.168 82.4593C56.5087 83.5113 57.0768 84.3767 58.3085 85.7208C58.9363 86.4056 60.1448 89.6114 60.188 90.706L60.2159 91.4145L60.5114 90.4475C60.6748 89.9128 60.7241 89.457 60.6218 89.4279C60.52 89.399 60.4685 89.2631 60.5075 89.1258C60.5465 88.9885 60.4663 88.6367 60.3293 88.344C60.1924 88.0513 60.1241 87.6578 60.1775 87.4696C60.2578 87.1865 60.4214 87.1691 61.1241 87.3686C61.8501 87.5747 62.0531 87.7414 62.52 88.5155C63.0335 89.3666 63.5806 90.7944 63.6602 91.4914C63.7176 91.9947 62.7772 92.624 62.2022 92.4667C61.9252 92.3911 61.3096 92.2724 60.8342 92.203L59.9699 92.0767L59.7036 93.2446C59.4575 94.3236 59.3972 94.4212 58.9116 94.5273C58.6223 94.5905 58.2301 94.8255 58.0401 95.0494C57.7077 95.4411 57.6507 95.4391 56.5451 94.9992L55.3958 94.5418L54.3448 95.6473C53.6777 96.3491 53.0395 96.8253 52.5977 96.9511C51.8881 97.1531 49.7104 97.1316 48.9286 96.9151L48.4963 96.7954L49.0586 96.2808C49.3679 95.9979 49.7047 95.472 49.8068 95.112C49.9319 94.6715 50.2934 94.2034 50.9139 93.6784C51.4207 93.2495 51.8726 92.7609 51.9183 92.5923C52.1722 91.6555 52.3369 89.5413 52.1784 89.2567C51.9371 88.8237 51.3748 88.8835 51.2406 89.3564C51.1825 89.561 50.8882 89.8057 50.5865 89.9004C49.5521 90.2245 47.3999 88.8329 47.3633 87.8163C47.3475 87.3812 47.1083 87.2909 46.8577 87.6255C46.5572 88.0268 47.2506 89.1689 48.7343 90.716C50.3202 92.3698 50.531 92.9922 49.5714 93.1876C48.9028 93.3239 48.5414 93.776 48.6697 94.3156C48.7817 94.7872 48.6008 94.924 47.4825 95.2141L46.5384 95.459L45.5478 94.8433C45.0028 94.5046 44.4917 94.1404 44.412 94.0337C44.3323 93.927 43.9929 93.6955 43.6579 93.5193C43.3228 93.3432 42.834 93.004 42.5716 92.7658C41.979 92.2275 40.929 90.4485 41.0182 90.1342C41.0546 90.006 40.9153 89.5454 40.7086 89.1107C40.502 88.6759 40.3491 88.2632 40.3689 88.1935C40.3886 88.124 40.2164 87.7885 39.9862 87.4479C39.5633 86.8223 39.4568 85.7805 39.72 84.846C39.799 84.5655 39.7974 84.3175 39.7167 84.2946C39.541 84.2447 38.6033 85.6738 38.388 86.3195C37.9823 87.5361 37.4565 88.2726 36.5447 88.9015C35.8586 89.3752 35.528 89.7441 35.4064 90.1724C35.2084 90.8701 34.5109 91.1603 32.087 91.554C30.8284 91.7582 30.3749 91.7274 28.4831 91.3079C26.6158 90.894 26.1987 90.8638 25.4433 91.0882C23.2945 91.7263 22.0874 91.7528 21.7616 91.1683C21.638 90.9465 21.5835 90.95 21.5169 91.1847C21.3928 91.6219 21.7797 92.2144 22.2827 92.3571C22.5219 92.425 23.48 92.4357 24.4118 92.3812C25.5881 92.3123 26.6757 92.4005 27.9681 92.6698C28.9921 92.883 30.4278 93.0564 31.1587 93.0549C31.8895 93.0531 32.7384 93.1203 33.0451 93.2038C33.3518 93.2874 33.7992 93.2793 34.0392 93.1857C34.3154 93.0781 34.9026 93.1369 35.6379 93.3456C36.8111 93.6787 38.3386 93.5682 38.8306 93.1145C39.539 92.4615 40.4381 92.8354 42.5354 94.6548C44.8769 96.686 45.7388 97.3318 46.9714 97.9786C47.3922 98.1993 47.8179 98.4987 47.9174 98.6438C48.1217 98.9416 50.1395 99.3578 51.1173 99.3039C52.6961 99.2168 54.5275 98.7937 55.2917 98.3394C55.7549 98.0641 56.4687 97.7237 56.878 97.5826C57.3624 97.4159 57.9167 96.9753 58.4663 96.3204C59.1235 95.5371 59.4448 95.3064 59.9176 95.2785C60.2962 95.256 60.7639 95.0051 61.1588 94.6125C61.5074 94.2659 61.9233 93.9706 62.083 93.9563C62.4177 93.926 63.0021 94.4313 62.9292 94.6881C62.8434 94.9906 64.249 97.2634 64.5801 97.3574C64.7547 97.407 64.9656 97.602 65.049 97.7908C65.257 98.2618 67.1283 98.7861 67.7853 98.5575C68.0553 98.4636 69.0173 98.2374 69.9228 98.0549C70.8284 97.8723 71.8103 97.6668 72.1049 97.5979C72.3994 97.5292 73.3399 97.3872 74.1948 97.2822C77.4797 96.8792 78.177 96.6368 79.1842 95.5473C80.7122 93.8942 81.7758 93.4467 83.3557 93.7925C84.188 93.9745 85.0465 93.8816 87.7216 93.3196C88.3788 93.1817 89.1999 93.156 89.595 93.2609C89.9818 93.3639 90.633 93.4078 91.0418 93.3587C91.4508 93.3097 92.296 93.4139 92.92 93.5904C93.5642 93.7725 94.3178 93.8567 94.6634 93.785C94.9984 93.7156 95.493 93.7214 95.7629 93.7981C96.0328 93.8747 96.5879 93.8647 96.9966 93.7759C97.4052 93.6871 97.9664 93.608 98.2436 93.6002C98.5209 93.5925 99.1079 93.4799 99.5483 93.35C99.9886 93.2202 100.6 93.1277 100.907 93.1442C101.725 93.1887 104.397 93.0666 105.16 92.9499C105.522 92.8944 105.931 92.8815 106.068 92.9211C106.537 93.0563 108.492 92.7077 108.561 92.4765C108.601 92.3405 108.877 92.3148 109.232 92.4138C109.893 92.598 110.532 92.4904 110.382 92.2205C110.329 92.1266 109.766 92.0582 109.13 92.0687C108.495 92.0792 107.622 92.0618 107.191 92.03C106.76 91.9983 106.132 91.988 105.797 92.0072C105.183 92.0422 102.976 91.7729 100.674 91.3819C99.9914 91.2659 98.9853 91.1635 98.4379 91.1542C97.2751 91.1344 92.4508 91.366 91.5429 91.485C90.77 91.5865 89.4318 91.5728 88.1522 91.4503C85.3123 91.1785 83.4287 90.9295 82.8894 90.7548C82.5571 90.647 82.0161 90.6502 81.6872 90.7616C81.3582 90.873 80.7799 90.9963 80.4019 91.0355C79.7475 91.1034 79.7002 91.0754 79.41 90.4475C79.2425 90.0849 79.1781 89.6246 79.267 89.4249C79.4088 89.1064 79.604 89.0973 80.8466 89.3518C81.6265 89.5113 82.5839 89.6267 82.9742 89.608C83.3647 89.5891 84.2065 89.6361 84.8449 89.7125C86.1459 89.8676 88.1161 89.8157 88.1703 89.6249C88.2789 89.2423 87.761 88.8914 87.1423 88.9279C86.7875 88.9489 86.2701 88.9015 85.9922 88.8227C85.7143 88.7438 85.1526 88.7194 84.7436 88.7685C84.3348 88.8176 83.6745 88.7653 83.2765 88.6523C82.8783 88.5393 82.4267 88.5334 82.2729 88.6391C82.1142 88.748 81.403 88.7214 80.6293 88.5777C79.2805 88.3267 79.2613 88.3159 78.9059 87.6043C78.7082 87.2085 78.5676 86.81 78.5934 86.7191C78.735 86.2202 77.6774 83.8508 76.7573 82.6059C76.4009 82.1237 75.9271 81.4193 75.7046 81.0405C75.4821 80.6616 74.8822 79.9212 74.3714 79.3949C72.9367 77.9169 72.8352 77.7988 72.7472 77.5064C72.6396 77.1488 71.7772 76.9066 71.6912 77.2099C71.6546 77.3388 71.9435 77.8274 72.3332 78.2953C74.4244 80.8067 75.2967 81.9936 76.1734 83.5213C77.252 85.4009 77.9425 86.898 77.862 87.1818C77.8327 87.2848 77.8918 87.537 77.9932 87.7421C78.0945 87.9474 78.0927 88.5833 77.9892 89.155C77.7617 90.4132 78.0476 91.9723 78.5312 92.1095C79.0149 92.2468 79.6827 93.4523 79.5446 93.9387C79.2486 94.9815 74.053 96.2983 73.1758 95.5529C72.7318 95.1756 72.7238 95.0495 73.1291 94.8232C73.5201 94.6049 73.313 94.3185 72.8971 94.5025C72.427 94.7104 72.2637 94.46 72.3381 93.646C72.373 93.2638 72.2944 92.8704 72.1635 92.7721C72.0226 92.6667 71.9932 92.3144 72.0915 91.9116C72.2934 91.0839 72.1041 91.4798 71.4004 93.356C70.9511 94.5544 70.7649 94.8401 70.1992 95.199C69.3392 95.7445 69.106 95.4782 69.4334 94.3248C69.5755 93.8241 69.6329 93.0124 69.5609 92.5212C69.4889 92.03 69.3871 91.3005 69.3349 90.9003C69.1267 89.3091 68.0727 88.2224 65.9562 87.4162C65.1697 87.1165 64.4426 86.707 64.1574 86.4026C63.894 86.1217 63.57 85.8609 63.4374 85.8233C63.3047 85.7856 63.0815 85.5713 62.9413 85.347C62.7461 85.0342 62.6213 84.9755 62.4069 85.0952C61.2203 85.7577 57.3757 82.4704 55.8712 79.5072C55.1472 78.0812 54.6073 74.6615 54.929 73.54C55.0917 72.9726 54.3821 72.0432 53.6215 71.8273C52.7652 71.5842 52.3768 70.8782 52.5026 69.7924C52.6319 68.6745 52.9577 68.5746 54.505 69.1783C55.18 69.4418 56.1688 69.9088 56.7024 70.2162C57.2362 70.5237 57.8508 70.8259 58.0685 70.8877C58.286 70.9494 58.4757 71.1295 58.49 71.2879C58.504 71.4463 58.7787 71.7068 59.1001 71.8669C59.4216 72.027 59.6966 72.294 59.7116 72.4604C59.7266 72.6268 59.8302 72.7889 59.9422 72.8207C60.1676 72.8847 61.6519 75.0854 62.1732 76.129C63.2707 78.3251 63.615 78.8851 64.321 79.6225C65.3752 80.7233 68.0311 82.9236 68.4488 83.0422C69.1983 83.2549 69.0559 82.7875 68.1101 81.9302C67.5591 81.4309 66.8318 80.7282 66.4938 80.3688C66.1557 80.0094 65.6824 79.562 65.4418 79.3746C65.2013 79.1872 64.9925 78.9017 64.9782 78.7401C64.9636 78.5787 64.8283 78.4113 64.6774 78.3685C64.5265 78.3257 64.3678 78.1617 64.3246 78.0041C64.2813 77.8465 63.8555 77.2078 63.3785 76.5846C62.9013 75.9615 62.3238 75.1508 62.095 74.783C61.8661 74.4152 61.5815 74.0868 61.4623 74.0529C61.3433 74.0191 61.2333 73.8528 61.218 73.6833C61.2028 73.5139 61.0628 73.339 60.9068 73.2947C60.7509 73.2505 60.6573 73.0948 60.6987 72.9488C60.7402 72.8028 60.6154 72.5786 60.4214 72.4503C60.2275 72.3222 59.7863 71.8821 59.4411 71.4725C59.0959 71.0628 58.5835 70.5989 58.3024 70.4412C58.0213 70.2835 57.6927 70.0261 57.5722 69.8692C57.3395 69.5658 56.8293 69.032 56.1842 68.4169C55.9677 68.2105 55.3924 67.9281 54.9058 67.7892C54.158 67.5759 54.0149 67.4653 53.9833 67.0757C53.9397 66.5421 54.2097 66.3986 54.9035 66.5863C55.159 66.6554 55.5121 66.6694 55.6881 66.6172C55.948 66.5403 55.9317 66.4652 55.6013 66.2183C54.9518 65.7328 54.684 65.0131 54.9689 64.5183C55.1557 64.1934 55.4189 64.0901 56.0382 64.0984C56.9003 64.1099 57.6607 63.9794 57.9231 63.775C58.1278 63.6155 58.0477 62.2078 57.8251 62.0561C57.73 61.9911 57.5596 62.1614 57.4468 62.4342C57.2763 62.8466 57.1182 62.9214 56.5131 62.8772C55.6201 62.8118 54.0261 63.2535 53.3315 63.759C52.7001 64.2181 51.1367 66.4675 50.9212 67.2264C50.7102 67.97 50.4282 68.3186 50.1104 68.2283C49.7588 68.1286 49.7049 67.2831 49.9867 66.2904C50.2829 65.2469 50.0157 64.941 49.5963 65.8435C49.1052 66.8999 48.9295 66.9954 48.4642 66.4579C48.2466 66.2068 48.0957 65.9055 48.129 65.7883C48.1622 65.6712 48.1068 65.1975 48.0059 64.7357C47.7784 63.6942 48.2042 62.5974 49.1927 61.6786C50.3007 60.6488 50.5234 60.5444 51.4344 60.6282C51.9141 60.6723 52.7445 60.5649 53.2796 60.3895C53.8148 60.2142 54.6302 60.0691 55.0918 60.067C56.0965 60.0624 56.3335 59.7729 56.5576 58.2766C56.7875 56.7401 57.3033 55.1916 57.6321 55.0501C58.0233 54.8817 59.346 53.7547 59.4077 53.5372C59.4951 53.2293 60.9747 52.2957 61.2509 52.3741C61.3955 52.4152 61.6421 52.9806 61.799 53.6307C61.9559 54.2807 62.149 54.831 62.2282 54.8535C62.3073 54.8759 62.332 55.2312 62.2831 55.6433C62.2342 56.0552 62.2513 56.668 62.3208 57.0052C62.3905 57.3423 62.4083 57.758 62.3605 57.9294C62.3125 58.1006 62.3697 58.4135 62.4874 58.6246C62.6165 58.8563 62.6126 59.5568 62.4778 60.3878C62.2761 61.6297 62.1834 65.6888 62.3232 67.1483C62.4046 67.9969 61.8937 67.9462 61.1511 67.0318C59.1093 64.5177 58.465 63.9054 58.3365 64.358C58.3076 64.4599 58.4048 64.5776 58.5524 64.6194C58.7001 64.6614 58.8551 64.8283 58.8971 64.9903C58.9638 65.2469 59.545 66.1651 60.5702 67.6329C61.3646 68.7702 64.2028 70.8323 66.2393 71.7519C66.5806 71.906 66.894 72.1656 66.9357 72.3287C67.0236 72.673 67.7074 72.9223 67.7877 72.6394C67.8175 72.5342 67.7152 72.3534 67.5604 72.2372C67.1195 71.9067 66.6321 71.0729 66.713 70.7878C66.8414 70.3356 66.0463 69.1487 65.5139 68.9976C64.8765 68.8167 63.0815 65.5996 63.134 64.7325C63.1532 64.4155 63.0847 64.0331 62.9815 63.8827C62.8785 63.7326 62.8697 63.1182 62.962 62.5176C63.0541 61.9168 63.0603 61.2256 62.9755 60.9815C62.8908 60.7375 62.9064 60.2387 63.0101 59.8734C63.1138 59.5079 63.1222 59.0124 63.029 58.7722C62.9355 58.5321 62.9281 58.0824 63.0125 57.773C63.0968 57.4635 63.0876 56.9852 62.9921 56.7099C62.7256 55.9419 62.7694 55.0609 63.0812 54.9258C63.4198 54.7789 66.6856 55.6009 67.5393 56.0478C67.8951 56.234 68.2497 56.5301 68.3273 56.7058C68.4049 56.8814 68.5858 57.0585 68.7295 57.0992C69.2567 57.2489 70.518 58.5982 70.9497 59.4746C71.194 59.9703 71.3922 60.7928 71.3904 61.3023C71.3873 62.1124 71.3159 62.3237 70.8233 62.984C69.9998 64.0874 69.2099 67.7053 69.4588 69.2342C69.5543 69.8216 69.7309 70.4459 69.8513 70.6214C69.9718 70.7969 70.0362 71.0602 69.9947 71.2065C69.9531 71.3531 70.0127 71.446 70.1272 71.4135C70.3293 71.3559 70.3603 71.1031 70.2699 70.2475C69.8787 66.5422 70.4038 64.6238 72.3669 62.588C72.9305 62.0035 73.5382 61.4298 73.7174 61.3129C73.9341 61.1718 74.0114 60.9924 73.9481 60.7779C73.8956 60.6005 73.8685 60.3952 73.8875 60.3219C73.9635 60.031 75.4658 59.211 76.4942 58.8994C77.0926 58.7179 77.6036 58.4948 77.6295 58.4037C77.6554 58.3124 77.0979 58.0734 76.3906 57.8727C75.1338 57.5159 75.0708 57.5209 73.6188 58.0867C72.8017 58.4053 71.9721 58.6202 71.7754 58.5643C71.5786 58.5085 71.0826 58.0974 70.6728 57.6509C70.2633 57.2043 69.8704 56.8226 69.7999 56.8025C69.7295 56.7826 69.0311 56.1065 68.2482 55.3002C66.6882 53.6935 65.3626 52.6207 64.3753 52.1654C64.0238 52.0034 63.6317 51.6589 63.5039 51.4001C63.278 50.9426 63.2976 50.8903 64.2046 49.5392C64.7179 48.7747 65.2363 47.8024 65.3565 47.379C65.4767 46.9555 65.7718 46.3691 66.012 46.0758C67.7915 43.9039 68.6491 41.0209 68.1414 38.9166C68.0985 38.7393 67.9442 38.0229 67.7982 37.3247C67.6523 36.6265 67.4633 35.8547 67.3781 35.6097C67.293 35.3645 67.2627 35.026 67.3105 34.8575C67.3584 34.6889 67.3033 34.4134 67.1882 34.2456C67.0731 34.0779 67.0404 33.5187 67.1155 33.0033C67.1906 32.4878 67.1666 32.0904 67.0621 32.1202C66.7627 32.2054 66.3599 33.8754 66.5221 34.3588C66.6026 34.5989 66.6583 35.0593 66.6462 35.3819C66.634 35.7045 66.7652 36.3993 66.9378 36.9259C67.1106 37.4526 67.2299 37.9601 67.2034 38.0537C67.1768 38.1474 67.2331 38.6028 67.3288 39.0657C67.4731 39.7644 67.4075 40.2373 66.9424 41.8505C66.5876 43.0814 66.21 44.0253 65.9128 44.4254C65.6548 44.7727 65.182 45.4864 64.8622 46.0112C64.5423 46.5361 64.0702 47.1227 63.813 47.3148C63.5557 47.507 62.9478 48.0466 62.4622 48.5143C61.9766 48.982 61.4707 49.4689 61.3381 49.5964C60.9969 49.9247 59.0159 52.2221 58.6495 52.7146C58.4813 52.9407 58.1528 53.1676 57.9198 53.2183C57.5323 53.3031 57.5058 53.2329 57.609 52.3916C57.7907 50.9095 58.4755 48.7899 59.1941 47.4866C60.1893 45.6812 60.4613 44.551 60.1368 43.5695C59.9829 43.104 59.9428 42.4913 60.043 42.1383C60.2591 41.3769 60.1132 39.9813 59.8259 40.0631C59.7098 40.096 59.5228 40.4474 59.4102 40.8441C59.1054 41.9178 58.2748 43.3995 57.9278 43.4879C57.6878 43.5489 57.568 43.859 57.3621 44.9516C57.2103 45.7576 56.9865 46.4517 56.8276 46.6104C56.5921 46.8454 56.5063 46.7276 56.2096 45.7616C55.8394 44.557 55.6222 44.323 55.447 44.9404C55.383 45.1657 55.4735 45.4087 55.6627 45.5201C55.8417 45.6258 55.9809 45.9045 55.9717 46.1397C55.9624 46.3746 56.0317 47.3996 56.1254 48.417C56.2697 49.9825 56.2238 50.5852 55.8269 52.3358C55.3534 54.4249 54.6776 56.1742 54.2526 56.4114C53.906 56.6049 53.457 56.179 53.5738 55.7676C53.6301 55.5692 53.5592 54.9057 53.4165 54.2931C53.2735 53.6804 53.1982 52.8083 53.2489 52.3549C53.2997 51.9013 53.2463 51.4351 53.1304 51.3188C53.0144 51.2024 52.8956 50.8758 52.8665 50.5931C52.815 50.093 52.8084 50.0956 52.6289 50.6844C52.5276 51.0173 52.5078 51.5071 52.585 51.7729C52.6626 52.0405 52.5637 52.9809 52.3633 53.8802C52.1639 54.7734 52.0415 55.6749 52.091 55.8831C52.1812 56.263 51.9081 56.9296 51.6887 56.8647C51.6245 56.8457 51.4696 56.5091 51.3448 56.1165C51.1747 55.5814 51.2031 55.0266 51.459 53.8984C51.7716 52.5192 51.7641 52.2667 51.3673 50.8697C50.7558 48.7162 50.5239 47.4916 50.6458 47.0588C50.7037 46.8534 50.6727 46.327 50.577 45.8891C50.4813 45.4509 50.4843 44.806 50.5837 44.4557C50.6832 44.1054 50.7348 43.5566 50.6984 43.2364C50.5404 41.848 51.082 39.341 52.2323 36.1357C52.8104 34.525 53.0476 34.0761 53.5399 33.6629C53.8706 33.3853 54.1784 33.2248 54.2238 33.3066C54.2692 33.3881 54.1409 34.0459 53.9385 34.7683C53.7362 35.4908 53.5497 36.4812 53.5241 36.9693C53.4554 38.2818 54.1361 41.6075 54.6848 42.6398C54.9479 43.1349 55.1779 43.7018 55.1956 43.8994C55.2328 44.3149 55.5775 44.4804 55.6768 44.1307C55.7138 44.0005 55.6725 43.6879 55.5851 43.4361C55.4978 43.1843 55.4406 42.2773 55.4582 41.4205C55.476 40.5636 55.4193 39.6356 55.3325 39.3579C55.1226 38.6872 55.7742 36.5137 56.6237 35.0501C57.2405 33.9878 57.3319 33.9154 58.5982 33.4866C59.3285 33.2391 59.9814 33.0927 60.049 33.161C60.1919 33.3054 59.7837 33.9892 59.5031 34.0751C59.2522 34.152 58.1979 35.9538 58.0038 36.6375C57.9202 36.9321 57.9204 37.2484 58.0044 37.3403C58.0883 37.4322 58.0704 37.8123 57.9647 38.1848C57.7155 39.0627 57.7969 42.4101 58.0671 42.3927C58.3871 42.3722 58.8004 40.2368 58.6051 39.6127C58.4792 39.2102 58.5576 38.6173 58.8983 37.3939C59.2834 36.0113 59.4952 35.5626 60.1305 34.7829C60.7898 33.9741 60.9546 33.869 61.3006 34.0379C61.6058 34.1868 61.808 34.1227 62.1364 33.7727C62.4486 33.44 62.6548 33.3676 62.8753 33.5134C63.1935 33.7236 63.5293 33.3982 64.1495 32.2787L64.437 31.7598L64.5502 32.5927L64.6635 33.4255L65.1267 32.6562C65.8203 31.5043 66.588 30.8691 67.1078 31.0166C67.47 31.1195 67.6033 31.0256 67.8679 30.4817C68.0443 30.119 68.422 29.5731 68.7075 29.2688C68.9929 28.9645 69.5751 28.1839 70.0014 27.5342C70.4276 26.8846 70.9279 26.2539 71.1132 26.1325C71.2984 26.0114 71.4757 25.8213 71.5072 25.7104C71.5387 25.5994 72.0706 25.1718 72.6888 24.7604C73.7964 24.0235 74.2598 23.6246 74.9326 22.8287C75.1204 22.6068 75.4589 22.2226 75.6848 21.9751C75.9109 21.7276 76.1317 21.3985 76.1756 21.2438C76.2195 21.0892 76.4494 20.7339 76.6864 20.4542C77.83 19.1048 79.2738 15.6731 78.8796 15.2415C78.7957 15.1496 78.8284 14.7171 78.9523 14.2805C79.1109 13.7218 79.0961 13.3561 78.9027 13.0461C78.7514 12.804 78.6879 12.3891 78.7615 12.1243C78.986 11.3173 78.9445 10.681 78.6829 10.915C78.3358 11.2252 78.0221 12.5121 78.0255 13.6115C78.0346 16.7426 76.6536 19.8452 74.0755 22.4853C73.2653 23.3153 70.251 25.3722 68.9089 26.0111C67.9645 26.4608 67.3208 26.9511 66.5608 27.8001C65.8771 28.5639 65.1461 29.1455 64.4535 29.4769C62.2354 30.538 60.9629 31.0739 60.783 31.0229C60.5701 30.9624 59.4648 31.3335 58.5962 31.7573C57.7763 32.1573 57.83 31.6215 58.6742 30.9793C59.0191 30.7169 59.4323 30.2541 59.5922 29.951C59.7519 29.6476 60.0215 29.3871 60.1911 29.3717C60.3608 29.3565 60.4716 29.2452 60.4373 29.1246C60.3436 28.7943 60.0373 28.769 59.9478 29.0843C59.8659 29.3727 59.6246 29.3899 59.4731 29.1181C59.4252 29.032 59.497 28.8853 59.6329 28.7922C59.8612 28.6354 60.8136 27.6882 61.7807 26.656C62.0031 26.4185 62.2769 26.1982 62.389 26.1663C62.5011 26.1343 62.6421 25.9249 62.7022 25.7007C62.8092 25.3019 62.8035 25.2991 62.4366 25.5763C62.1517 25.7917 62.025 25.7934 61.9077 25.5829C61.7904 25.3725 61.8355 25.2988 62.0958 25.2754C62.284 25.2584 62.4677 25.1398 62.504 25.0119C62.5403 24.8841 62.9795 24.2952 63.4802 23.7033C63.9809 23.1113 64.5535 22.2482 64.753 21.785C64.9523 21.3217 65.2774 20.7636 65.4754 20.5446C66.4373 19.4798 67.3112 15.8333 67.092 13.7972C66.8867 11.8883 66.8416 11.9658 68.7732 10.9215C69.8188 10.3563 70.6906 10.0145 70.9201 10.0796C71.4034 10.2168 71.8336 11.549 71.7258 12.5749C71.6609 13.1941 71.703 13.2939 71.9775 13.1724C72.1589 13.0922 72.3824 12.7663 72.4744 12.4481C72.5665 12.1298 72.7475 11.7748 72.877 11.659C73.0633 11.4923 73.1343 11.5503 73.2188 11.9382C73.38 12.6782 73.7939 12.1579 73.8008 11.2064C73.8062 10.4909 73.8444 10.4363 74.5722 10.1012C74.9933 9.90727 75.4443 9.77507 75.5741 9.80752C75.8521 9.87682 76.4673 10.4674 76.5982 10.7906C76.6485 10.915 76.7366 10.7634 76.7938 10.454C76.895 9.90564 76.9171 9.89789 77.6452 10.1584C78.2789 10.3853 78.4255 10.3699 78.6096 10.0576C78.784 9.76103 78.7194 9.60377 78.2784 9.2526C77.9769 9.01248 77.7023 8.71715 77.6678 8.59608C77.6335 8.47524 77.3375 8.30733 77.01 8.22316C75.2521 7.77123 73.6659 6.83055 73.8094 6.32482C73.8328 6.24257 73.5239 5.98273 73.1231 5.74785C72.3119 5.27238 70.83 4.37675 69.4094 3.50349C68.8943 3.18671 68.2883 2.7847 68.0628 2.61019C66.9733 1.76688 63.5745 0.214602 63.2374 0.406555ZM59.15 0.186336C58.7295 0.312774 58.1978 0.520577 57.9687 0.648316C57.7395 0.776002 57.4471 0.850539 57.319 0.814177C57.1907 0.777762 56.9411 0.879066 56.7644 1.03929C56.5056 1.2737 56.4897 1.36567 56.6825 1.51028C56.8143 1.60895 56.9434 1.61515 56.9693 1.52401C56.9951 1.43287 57.5489 1.22596 58.1999 1.06425C58.8509 0.902534 59.4027 0.70284 59.4262 0.620219C59.4496 0.537784 59.6567 0.474068 59.8865 0.478867C60.1165 0.48348 60.2746 0.38305 60.2383 0.25505C60.1464 -0.0680954 60.022 -0.075987 59.15 0.186336ZM64.3808 2.19236C64.2046 2.23144 63.5615 2.23067 62.9518 2.1907C61.4504 2.092 61.1574 2.52807 62.2715 3.20324C63.4982 3.94657 63.512 3.95851 63.3339 4.12154C63.2414 4.2062 62.5943 4.11318 61.8961 3.91498C60.3535 3.47711 59.9075 3.48102 60.1061 3.93073C60.1829 4.10486 60.4254 4.29823 60.6448 4.3605C61.1513 4.50427 61.7263 5.20155 61.627 5.55148C61.5359 5.87233 61.4512 5.8527 60.3091 5.24646C59.4707 4.80148 57.6892 4.44772 58.2269 4.83297C58.3624 4.93007 58.5712 5.24798 58.6909 5.53957C58.8106 5.83098 59.0412 6.10723 59.2036 6.15331C59.7461 6.30732 59.2142 6.40274 58.2882 6.31746C57.6631 6.25991 57.3122 6.14491 57.1818 5.95474C57.0766 5.80159 56.9714 5.74951 56.9477 5.83885C56.8576 6.17861 57.0818 6.50225 57.6904 6.91141C58.6497 7.55624 58.4315 7.74932 56.9556 7.56199C56.3652 7.48707 56.3978 7.85063 57.0037 8.0971C57.2996 8.21752 57.6663 8.51119 57.8186 8.74998C57.9709 8.98858 58.3422 9.42465 58.6437 9.71883C58.9453 10.013 59.3493 10.4558 59.5415 10.7031C60.054 11.3622 61.3906 11.697 61.9459 11.3055C62.7577 10.7331 65.1842 9.65251 65.4735 9.73464C65.5798 9.76481 66.0779 9.65557 66.5804 9.49213C67.0829 9.32851 67.9095 9.15761 68.4174 9.11242C68.9254 9.06704 69.9626 8.74273 70.7224 8.39151C71.4822 8.04029 72.4067 7.71621 72.7771 7.67142C73.1475 7.62643 73.4701 7.5204 73.4941 7.43574C73.5836 7.12045 73.0183 6.47156 72.5344 6.3342C72.2591 6.25607 71.7866 5.99525 71.4844 5.75432C71.182 5.51357 70.3601 5.05265 69.658 4.73003C68.9556 4.40754 68.2584 4.02509 68.1087 3.8803C67.8139 3.59545 65.4363 2.31424 64.9803 2.1944C64.8267 2.15419 64.5569 2.15309 64.3808 2.19236ZM100.602 13.0598C99.5225 13.2295 97.7741 13.2985 97.3809 13.1869C97.2122 13.139 96.7004 13.1739 96.2435 13.2644C95.7865 13.3548 95.1928 13.3664 94.9241 13.2902C94.6555 13.214 94.1402 13.1932 93.7791 13.2438C93.098 13.3397 92.0278 13.3963 89.7883 13.4552C89.0678 13.4741 88.0666 13.5129 87.5634 13.5416C87.0602 13.5703 85.7873 13.4066 84.7347 13.1777C83.3726 12.8817 82.6981 12.8204 82.3946 12.965C82.1603 13.0768 81.75 13.1728 81.483 13.1783C80.6549 13.195 81.3439 13.6428 82.2372 13.6684C82.6679 13.6808 83.9011 13.9175 84.9776 14.1949C86.3392 14.5453 87.1588 14.6605 87.6707 14.573C88.0754 14.5039 88.8031 14.4771 89.2878 14.5136C89.7726 14.5501 90.9042 14.5274 91.8026 14.4629C92.7011 14.3985 94.2404 14.3664 95.2234 14.3916C96.2064 14.4168 97.306 14.3965 97.6669 14.3462C98.0278 14.2961 98.4354 14.2871 98.5727 14.3263C99.0629 14.466 102.881 13.8748 102.872 13.6604C102.857 13.2831 101.487 12.9205 100.602 13.0598ZM44.1196 8.79426C44.0673 9.01259 44.0987 9.06895 44.1996 8.93807C44.2911 8.8195 44.3298 8.65775 44.2858 8.5788C44.2418 8.49985 44.1671 8.59675 44.1196 8.79426ZM128.275 34.1064C128.079 34.102 127.516 34.1973 127.023 34.3181C125.735 34.6337 126.33 34.996 127.922 34.866C129.49 34.7378 129.769 34.1396 128.275 34.1064ZM127.223 36.0799C126.269 36.2421 125.467 36.452 125.44 36.5465C125.414 36.6408 125.139 36.7368 124.83 36.7597L124.268 36.8012L124.762 36.9573C125.034 37.043 125.321 37.0536 125.401 36.9805C125.481 36.9077 125.875 36.8866 126.276 36.9337C127.598 37.0889 128.994 36.674 129.172 36.0731C129.269 35.7487 129.167 35.7492 127.223 36.0799ZM13.9295 4.45868C12.8444 4.55721 11.1854 5.64407 9.82298 7.14937C9.32006 7.70482 9.07892 8.19706 8.7499 9.33854C8.33451 10.7808 8.33546 10.8289 8.79491 11.6767C9.19498 12.4152 9.23877 12.7458 9.09292 13.9248C8.92438 15.286 8.93372 15.3229 9.69811 16.3345C10.1252 16.8996 10.5543 17.3392 10.6518 17.3115C10.7491 17.2836 10.8631 17.0003 10.9052 16.6818C10.9544 16.308 11.1832 15.9178 11.5499 15.5823C12.9447 14.3063 15.6751 15.0265 18.5492 17.4286C19.6161 18.3203 21.4367 19.5355 21.5831 19.4538C21.6585 19.4117 21.6815 19.0543 21.6344 18.6596C21.5563 18.0071 21.4646 17.9054 20.6286 17.5434C20.1227 17.3243 19.4743 16.9567 19.188 16.7265C17.5936 15.4446 16.965 14.7944 17.1535 14.6221C17.3813 14.4135 18.0584 14.6624 18.5048 15.1186C18.963 15.5867 20.4364 16.0654 20.5194 15.7731C20.5508 15.6623 20.3528 15.4059 20.0793 15.2031C19.4545 14.7404 19.6126 14.4838 20.4817 14.5493C20.9109 14.5819 21.3813 14.4278 21.7884 14.1213C23.131 13.1108 23.6783 12.848 24.3378 12.8973C25.3835 12.9755 25.4801 12.4763 24.563 11.7319C24.1454 11.3932 23.4822 10.6199 23.0891 10.0133C22.6434 9.32565 22.1968 8.86019 21.9032 8.77686C21.6441 8.70329 21.3001 8.48095 21.1388 8.28244C20.9775 8.08411 20.5801 7.74851 20.2558 7.53655C19.9315 7.32459 19.0293 6.69977 18.2507 6.14809C17.1723 5.38376 16.5259 5.05977 15.5364 4.78769C14.822 4.59131 14.0989 4.44312 13.9295 4.45868ZM128.398 38.1054C128.103 38.1788 127.683 38.1914 127.465 38.1336C127.247 38.0756 126.939 38.1177 126.78 38.2269C126.621 38.3361 126.271 38.4186 126.003 38.4106C125.735 38.4023 125.481 38.5192 125.438 38.67C125.395 38.821 125.198 38.8985 125.001 38.8424C124.803 38.7863 124.566 38.8091 124.474 38.8932C124.204 39.1402 125.178 39.3234 125.519 39.0895C125.689 38.9727 126.034 38.9356 126.286 39.0072C126.539 39.0788 127.04 39.0985 127.4 39.0512C127.76 39.0037 128.297 38.9385 128.593 38.9064C129.227 38.8377 129.73 38.179 129.245 38.0524C129.075 38.0082 128.694 38.0321 128.398 38.1054ZM127.219 40.4995C126.395 40.6887 125.459 40.8888 125.139 40.9442C124.819 40.9997 124.597 41.1164 124.645 41.2032C124.75 41.3912 125.667 41.4556 125.982 41.2971C126.104 41.2358 126.346 41.226 126.52 41.2754C126.901 41.3835 128.983 40.9781 129.038 40.7851C129.059 40.7103 128.996 40.5379 128.897 40.4023C128.771 40.2305 128.262 40.26 127.219 40.4995ZM128.241 42.125C127.942 42.2442 127.535 42.3536 127.339 42.3681C126.691 42.416 126.808 42.819 127.485 42.8725C128.274 42.935 129.152 42.6675 129.139 42.3688C129.121 41.9827 128.811 41.8984 128.241 42.125ZM86.563 30.5249C86.1664 30.6037 85.7151 30.7664 85.5602 30.8866C85.405 31.0069 85.1396 31.1183 84.97 31.1344C84.7856 31.1519 84.8621 31.2269 85.1603 31.321C86.0074 31.5882 87.7291 31.1742 87.898 30.6626C87.9722 30.4377 87.3334 30.3716 86.563 30.5249ZM125.586 42.5528C125.344 42.5319 125.125 42.5924 125.098 42.6872C125.042 42.8817 125.66 43.0876 126.329 43.0975C126.574 43.101 126.75 43.0171 126.72 42.9109C126.664 42.714 126.367 42.6203 125.586 42.5528ZM127.373 44.1845C126.906 44.2791 126.383 44.4341 126.211 44.5291C126.038 44.6241 125.742 44.6576 125.551 44.6036C125.361 44.5495 125.139 44.5663 125.057 44.6407C124.809 44.8676 125.834 45.264 126.396 45.1589C126.687 45.1046 127.393 44.9756 127.966 44.872C128.539 44.7686 129.07 44.5891 129.146 44.473C129.358 44.1497 128.353 43.9862 127.373 44.1845ZM87.0346 32.6695C86.9428 32.7535 86.7127 32.7783 86.5235 32.7246C86.0735 32.5969 84.0439 32.9874 83.9796 33.2141C83.8177 33.7843 87.0338 33.4271 87.4411 32.8295C87.6084 32.584 87.2727 32.4518 87.0346 32.6695ZM5.20833 10.6937C3.9694 12.4312 2.93746 14.491 3.17536 14.7515C3.28038 14.8663 3.17717 15.1207 2.86807 15.5092C2.56694 15.8879 2.39144 16.3131 2.37077 16.715C2.35311 17.0563 2.1194 18.1741 1.85129 19.199C1.35392 21.1006 1.34784 22.0663 1.81732 24.5941C1.90359 25.0589 1.94927 25.5259 1.91901 25.6318C1.88861 25.7375 2.07281 26.2774 2.32805 26.8313C3.53448 29.4477 3.64126 29.5803 7.60734 33.3876C8.47193 34.2175 9.40846 35.3289 9.70221 35.8733C10.0768 36.5675 10.5537 37.0812 11.3191 37.6146C11.916 38.0308 12.793 38.7468 13.2679 39.2054C13.7427 39.6643 14.3782 40.2795 14.6801 40.5726C14.982 40.8654 15.4129 41.2502 15.6377 41.4273C15.8624 41.6046 16.2874 42.01 16.5821 42.3285C16.8767 42.6469 17.5047 43.2886 17.9775 43.7547C18.4504 44.2206 19.0436 44.9162 19.2959 45.3007C19.5481 45.6852 19.8312 46.0216 19.9249 46.0482C20.5136 46.2153 22.507 49.4014 22.7705 50.5964C22.8564 50.9857 22.9787 51.3189 23.0422 51.3369C23.1059 51.355 23.2609 52.0281 23.3867 52.8329C23.5125 53.6377 23.679 54.3659 23.7571 54.4511C23.8349 54.5365 23.8336 54.8354 23.7541 55.1157C23.6746 55.3958 23.6826 55.8206 23.7719 56.0597C23.9319 56.4883 23.9377 56.4899 24.1736 56.1766C24.3055 56.0018 24.4841 55.0616 24.5708 54.0874C24.6574 53.1131 24.7963 51.7948 24.8793 51.1577C25.1512 49.0702 25.3316 46.7746 25.2526 46.4023C25.2102 46.2015 25.1908 45.4815 25.2093 44.8024C25.2503 43.3199 24.8209 40.9715 24.324 39.9595C23.572 38.4277 22.7101 36.5602 22.5711 36.1613C22.4917 35.9331 22.1998 35.5344 21.9225 35.2753C21.6452 35.0161 20.8168 33.7521 20.0816 32.4662C19.3464 31.1804 18.519 29.8144 18.2429 29.4305C17.9668 29.0467 17.4292 28.2451 17.0482 27.6493C16.6672 27.0536 16.1992 26.324 16.0081 26.0283C15.8171 25.7325 15.1378 24.9544 14.4986 24.2991C13.8595 23.6441 13.1211 22.7571 12.8577 22.3284C12.5944 21.8996 12.1011 21.2589 11.7616 20.9046C10.6525 19.7466 9.57695 18.1694 7.99557 15.3821C6.38601 12.5453 6.18524 12.0067 6.2052 10.5763C6.2117 10.1102 6.15712 9.71193 6.08381 9.69112C6.01032 9.67026 5.61638 10.1215 5.20833 10.6937ZM123.876 45.0673C124.042 45.1655 124.293 45.2333 124.433 45.2181C124.573 45.203 124.436 45.1228 124.13 45.0398C123.823 44.9568 123.709 44.9692 123.876 45.0673ZM127.567 46.6711C127.27 46.7485 126.781 46.8402 126.479 46.8751C126.178 46.9101 125.849 47.0775 125.749 47.2473C125.582 47.5325 125.631 47.5549 126.396 47.5405C127.482 47.5205 128.623 47.2289 128.613 46.9741C128.601 46.6499 128.15 46.5195 127.567 46.6711ZM85.3603 35.397C85.0794 35.483 85.0785 35.5116 85.3548 35.5926C85.5324 35.6446 85.7365 35.7108 85.8082 35.7393C85.8799 35.7679 85.9937 35.7101 86.0613 35.611C86.2137 35.3874 85.8016 35.2616 85.3603 35.397ZM124.684 47.4924C124.796 47.5801 125.005 47.6392 125.147 47.6238C125.288 47.6086 125.196 47.537 124.942 47.4647C124.687 47.3925 124.571 47.405 124.684 47.4924ZM12.8727 16.068C12.5239 16.0601 12.2068 16.1651 12.1682 16.3013C12.1295 16.4374 11.8673 16.7163 11.5854 16.9209C11.1085 17.2671 11.079 17.3443 11.161 18.0297C11.2141 18.475 11.4233 18.8963 11.6893 19.0945C11.9314 19.2747 12.4321 19.8258 12.8016 20.3188C13.8459 21.7118 14.4223 22.3842 15.6709 23.6653C16.3065 24.3175 17.1968 25.462 17.6494 26.2088C18.1017 26.9555 18.6327 27.7182 18.8294 27.9035C19.2396 28.2904 19.3065 28.2323 19.7691 27.0875C20.1944 26.0354 21.076 24.3348 21.4547 23.8356C21.6905 23.525 21.784 23.1525 21.7834 22.5276C21.7821 21.258 21.4305 20.6531 20.5479 20.4026C20.1467 20.2887 19.5592 19.9564 19.2422 19.6638C16.9182 17.5201 14.4081 16.1031 12.8727 16.068ZM127.145 49.2169C126.928 49.2035 126.658 49.284 126.543 49.3955C126.428 49.5072 126.069 49.5827 125.745 49.563C125.068 49.5222 124.866 49.8138 125.456 49.9811C125.908 50.1096 127.674 49.817 127.735 49.6036C127.797 49.3867 127.579 49.2439 127.145 49.2169ZM36.5267 25.6222L35.811 25.6771L36.3706 25.9803C37.0273 26.3362 37.7731 26.3584 37.758 26.0214C37.743 25.6859 37.3523 25.5591 36.5267 25.6222ZM126.107 52.1678C125.865 52.3193 125.491 52.3992 125.275 52.3457C124.893 52.2502 124.892 52.255 125.241 52.5651C125.527 52.8192 125.807 52.847 126.652 52.7045C127.231 52.607 127.723 52.4633 127.746 52.3854C127.834 52.0735 126.534 51.9008 126.107 52.1678ZM37.119 27.3069C36.5972 27.3632 36.2875 27.6013 36.473 27.8041C36.6514 27.9995 38.0529 27.9972 38.1084 27.8014C38.1439 27.6763 37.7384 27.2445 37.5967 27.2563C37.5778 27.258 37.3629 27.2808 37.119 27.3069ZM84.6155 41.8966L83.7455 42.1429L84.3009 42.3002C84.6064 42.3867 85.1352 42.3692 85.4762 42.2612C85.9913 42.0982 86.0499 42.0306 85.8235 41.8608C85.49 41.6108 85.6419 41.6063 84.6155 41.8966ZM87.3984 43.2629C86.811 43.3366 86.1924 43.4544 86.0238 43.5249C85.8551 43.5955 85.3863 43.6207 84.982 43.5808C84.2164 43.5055 84.0629 43.8364 84.7704 44.0372C85.3413 44.1993 87.8502 44.1756 88.2368 44.0045C88.5701 43.8571 88.8655 43.1809 88.611 43.1481C88.5313 43.1377 87.9857 43.1894 87.3984 43.2629ZM126.046 54.4572L125.375 54.7479L125.875 54.8972C126.187 54.9901 126.487 54.9314 126.67 54.7419C127.118 54.278 126.797 54.1316 126.046 54.4572ZM36.0123 29.1961C35.7007 29.2367 35.8184 29.3166 36.4834 29.516C37.0303 29.6798 37.3462 29.6982 37.3081 29.5639C37.2343 29.3039 36.5895 29.1209 36.0123 29.1961ZM87.3663 44.92C87.1525 44.9142 86.7764 44.9706 86.5306 45.0451C86.2848 45.1198 85.7551 45.1495 85.3534 45.1109C84.9518 45.0724 84.603 45.1117 84.5784 45.1984C84.5539 45.2849 84.1493 45.362 83.6796 45.3698L82.8255 45.3838L83.8187 45.7292C84.3649 45.919 85.0062 46.038 85.2439 45.9934C85.4816 45.9488 86.034 45.9196 86.4715 45.9285C87.4355 45.9479 88.3749 45.6006 88.2784 45.2606C88.2055 45.0043 88.029 44.9384 87.3663 44.92ZM125.883 56.6578C125.693 56.6479 125.516 56.7169 125.489 56.8111C125.426 57.0349 126.113 57.2293 126.314 57.0446C126.517 56.8596 126.317 56.6809 125.883 56.6578ZM87.7932 46.9098C87.5666 46.933 87.1616 46.8961 86.8934 46.8278C86.6252 46.7592 86.1465 46.8099 85.8297 46.9402C85.513 47.0705 85.0427 47.1171 84.7845 47.0438C84.3393 46.9175 83.4306 47.4058 83.5873 47.6871C83.6262 47.7566 83.7411 47.7409 83.8427 47.6523C83.9444 47.5636 84.4388 47.5506 84.9415 47.6233C86.2098 47.8067 87.8785 47.7173 88.0746 47.4553C88.3463 47.0922 88.2292 46.865 87.7932 46.9098ZM87.1086 48.677C87.0292 48.7493 86.5549 48.8073 86.0543 48.8057C85.5537 48.8039 85.177 48.8617 85.2174 48.9338C85.2576 49.0061 85.0304 49.102 84.7126 49.1471C83.8983 49.2624 84.5138 49.4329 86.1233 49.5379C87.3242 49.6164 87.7534 49.4818 87.9027 48.9799C87.9798 48.7203 87.3315 48.473 87.1086 48.677ZM49.1831 40.2292C49.0801 40.5918 49.0792 40.9122 49.181 40.9411C49.2828 40.97 49.4357 40.7485 49.5208 40.4488C49.6059 40.1491 49.6068 39.8288 49.5228 39.7369C49.432 39.6375 49.2944 39.8369 49.1831 40.2292ZM6.38489 28.1632C6.52276 28.7958 8.47306 31.1932 10.0297 32.6436C10.3777 32.9678 11.035 33.6057 11.4902 34.061C12.3027 34.8739 12.6599 35.005 12.7924 34.5383C12.8718 34.2586 12.3151 33.2789 12.0312 33.1983C11.9212 33.1671 11.819 33.0029 11.8037 32.8334C11.7886 32.664 11.6613 32.4928 11.5208 32.4529C11.3805 32.4131 11.1209 32.1592 10.944 31.8888C10.7672 31.6184 10.4852 31.3582 10.3174 31.3106C10.1497 31.263 9.95451 31.1199 9.88347 30.9925C9.6734 30.6156 7.32089 28.4583 7.0297 28.3756C6.88253 28.3338 6.78568 28.2163 6.8146 28.1144C6.84352 28.0125 6.73927 27.8928 6.58303 27.8485C6.36367 27.7862 6.31847 27.8581 6.38489 28.1632ZM85.0452 50.732C84.4987 50.7897 84.5108 51.1698 85.0642 51.3269C85.526 51.458 86.2435 51.3121 86.3113 51.0734C86.3743 50.8514 85.6822 50.6648 85.0452 50.732ZM10.0815 29.6422C10.1155 29.762 10.18 29.8704 10.225 29.8831C10.2699 29.8959 10.3303 29.823 10.3592 29.7211C10.3881 29.6192 10.3235 29.5108 10.2157 29.4802C10.108 29.4496 10.0475 29.5225 10.0815 29.6422ZM10.5385 30.1641C10.2928 30.389 10.4311 30.7424 10.8066 30.8489C10.9815 30.8986 11.22 31.1464 11.3365 31.3997C11.4531 31.653 11.6742 31.8959 11.8278 31.9395C11.9816 31.9832 12.0718 32.1439 12.0284 32.2967C11.9845 32.4516 12.1143 32.6214 12.3217 32.6802C12.5262 32.7383 12.789 32.993 12.9055 33.2463C13.022 33.4996 13.1833 33.7255 13.264 33.7484C13.3446 33.7713 13.9816 34.56 14.6796 35.5014C16.8077 38.3716 16.8697 38.4379 17.2611 38.2647C17.5605 38.1324 17.5424 38.0121 17.1247 37.3605C16.8597 36.9473 16.5086 36.4359 16.3445 36.2242C16.1803 36.0125 15.7654 35.4623 15.4225 35.0017C14.2059 33.3674 13.2017 32.1293 13.0601 32.0891C12.9813 32.0668 12.5775 31.6923 12.1627 31.2571C11.222 30.2696 10.7619 29.9599 10.5385 30.1641ZM136.462 66.8339C136.41 67.0522 136.441 67.1086 136.542 66.9777C136.634 66.8591 136.672 66.6974 136.628 66.6184C136.584 66.5395 136.51 66.6364 136.462 66.8339ZM83.9876 52.6031C83.5908 52.6416 83.5902 52.6438 83.921 52.8378C84.3436 53.0858 84.7817 53.0705 84.7076 52.81C84.6423 52.5799 84.5376 52.5498 83.9876 52.6031ZM136.614 69.2626C136.471 69.7724 136.454 69.969 136.577 69.6995C136.699 69.4299 136.816 69.0128 136.837 68.7725C136.858 68.5322 136.758 68.7528 136.614 69.2626ZM136.672 70.7189C136.402 70.8693 136.163 72.0298 136.251 72.7619C136.297 73.1533 136.242 74.4632 136.126 75.6728C136.011 76.8826 135.932 78.2938 135.949 78.8091C135.967 79.3244 135.89 80.0693 135.778 80.4646C135.665 80.8599 135.612 81.6886 135.66 82.3061C135.824 84.4366 135.589 86.2273 134.841 88.5539C134.163 90.6603 134.118 90.7441 133.508 91.0268C133.161 91.1875 132.639 91.3033 132.347 91.2837C132.055 91.2643 131.416 91.3145 130.927 91.3955C130.437 91.4764 129.972 91.4722 129.894 91.3862C129.815 91.3002 129.357 91.2474 128.875 91.269C128.393 91.2903 127.598 91.2947 127.107 91.2786C126.617 91.2623 126.027 91.2773 125.798 91.3116C124.615 91.4886 123.23 91.5966 122.525 91.567C122.09 91.5488 121.237 91.5417 120.629 91.5513C120.021 91.5607 119.023 91.553 118.411 91.5338C117.799 91.5146 117.022 91.5561 116.684 91.6261C116.347 91.696 115.917 91.7102 115.729 91.6577C115.541 91.6049 115.129 91.6685 114.812 91.7989C114.495 91.9291 113.956 91.9562 113.613 91.8589C113.271 91.7616 112.968 91.7623 112.94 91.8603C112.878 92.0765 115.349 92.5803 115.672 92.4177C115.794 92.3562 116.125 92.3718 116.408 92.4521C116.691 92.5325 117.27 92.5699 117.695 92.5355C118.55 92.4658 121.529 92.6125 122.877 92.7905C123.355 92.8535 124.371 92.9198 125.136 92.9378C125.901 92.956 126.653 93.0021 126.807 93.0404C126.961 93.079 127.498 93.0887 128.001 93.0623C128.504 93.036 129.526 93.0048 130.272 92.9929C131.019 92.9812 131.798 92.9321 132.003 92.884C133.102 92.6267 134.93 92.4468 135.261 92.5635C135.723 92.726 136.619 92.2986 136.745 91.856C136.795 91.6787 137.023 91.382 137.251 91.1963C137.891 90.6746 138.191 88.4329 137.99 85.6669C137.933 84.88 137.88 83.9199 137.873 83.5332C137.866 83.1466 137.792 82.6325 137.708 82.3909C137.624 82.1492 137.642 81.6497 137.746 81.2805C137.87 80.8448 137.841 80.4551 137.662 80.1691C137.511 79.927 137.429 79.5813 137.48 79.401C137.531 79.2206 137.5 78.3778 137.411 77.5277C137.323 76.6775 137.32 75.7363 137.405 75.4358C137.49 75.1355 137.454 74.6305 137.324 74.3135C137.194 73.9968 137.157 73.4899 137.243 73.1874C137.329 72.8847 137.308 72.5039 137.196 72.3409C137.085 72.1781 137.009 71.7863 137.028 71.4702C137.065 70.8667 136.927 70.5764 136.672 70.7189ZM44.0508 48.222C43.8817 48.3165 43.8043 49.2053 43.9341 49.5605C43.979 49.6833 43.9683 50.1615 43.9103 50.6231C43.6883 52.3874 44.3645 53.8967 46.5338 56.4788C47.2572 57.3397 47.6207 57.9673 47.7047 58.5002C47.8751 59.5801 48.3943 60.5302 48.8011 60.5063C48.9841 60.4954 49.3186 60.3557 49.5446 60.1957C49.8846 59.9549 49.9251 59.8509 49.7805 59.5911C49.6844 59.4187 49.4547 59.2314 49.2703 59.1748C48.7989 59.0308 48.3333 57.3062 48.3094 55.6154C48.2857 53.9398 48.1671 53.0794 47.8897 52.5695C47.7778 52.3642 47.4853 51.7858 47.2395 51.284C46.7484 50.2825 46.118 49.4798 45.7372 49.3717C45.6024 49.3334 45.2127 49.0426 44.871 48.7255C44.1506 48.0566 44.2443 48.114 44.0508 48.222ZM78.0709 58.0818C78.1837 58.1694 78.3919 58.2286 78.5337 58.2132C78.6756 58.198 78.5834 58.1264 78.3288 58.0541C78.0743 57.9819 77.9583 57.9944 78.0709 58.0818ZM37.8389 46.9103C37.1227 46.859 36.2372 46.9315 34.4525 47.1875C33.9629 47.2577 33.1072 47.5455 32.5508 47.8272C31.9944 48.1088 31.1989 48.38 30.7829 48.4299C30.367 48.4798 29.9916 48.6446 29.9486 48.796C29.9056 48.9475 29.8493 49.1331 29.8238 49.2083C29.7981 49.2835 30.0393 49.4647 30.3597 49.6107C30.8062 49.8141 30.9747 50.0485 31.0811 50.6139C31.3266 51.9187 31.6386 52.1662 33.8268 52.7924C35.2529 53.2004 35.8565 53.4522 36.0624 53.7252C36.2175 53.931 36.5622 54.1639 36.8283 54.2429C37.0944 54.322 37.9009 54.7829 38.6208 55.2673C39.3406 55.7517 40.0514 56.137 40.2002 56.1236C40.5985 56.0875 40.4857 55.6061 39.9808 55.1878C39.7382 54.9868 39.2649 54.5226 38.9288 54.1561C38.3269 53.5001 38.1938 53.375 37.6259 52.9324C37.4225 52.7737 37.5466 52.7475 38.0538 52.8414C38.5218 52.9282 38.8399 53.1022 38.9754 53.3452C39.089 53.5494 39.3796 53.7724 39.6208 53.8409C39.8622 53.9094 40.0848 54.0541 40.1154 54.1625C40.1462 54.2709 40.4872 54.6891 40.8729 55.0921C41.4019 55.6442 41.7195 55.833 42.1646 55.8599C42.6234 55.8876 42.7253 55.8287 42.6223 55.5953C42.5494 55.4303 42.2994 55.1855 42.067 55.0515C41.8345 54.9177 41.6768 54.6933 41.7165 54.5533C41.8137 54.2111 42.7954 54.7481 43.9434 55.7713C44.414 56.1909 44.8667 56.4966 44.9492 56.4505C45.0315 56.4044 44.9771 56.2443 44.828 56.0947C44.6788 55.945 44.5911 55.7017 44.633 55.5539C44.6749 55.4062 44.6186 55.2595 44.5077 55.2281C44.1461 55.1254 43.2375 53.3866 43.0629 52.4633C42.9455 51.8431 42.6708 51.3381 42.1822 50.8453C41.7918 50.4512 41.1822 49.5496 40.8276 48.8418C40.2566 47.7021 40.0906 47.5208 39.3766 47.2587C38.9331 47.096 38.2411 46.9392 37.8389 46.9103ZM84.7251 60.1222C84.648 60.1655 83.7345 60.0005 82.6948 59.7556C80.504 59.2393 79.9028 59.1911 79.1039 59.4678C78.7843 59.5784 78.278 59.6903 77.979 59.7164C77.68 59.7424 76.8817 59.9788 76.2051 60.2415C75.2237 60.6227 74.8926 60.8634 74.5671 61.4314C74.3429 61.8232 73.8806 62.4674 73.54 62.8631C72.7711 63.7567 72.1566 65.2597 72.1599 66.2395C72.1614 66.6474 72.1551 67.3621 72.1462 67.8276C72.1345 68.4384 72.2254 68.7008 72.4729 68.771C72.8809 68.8869 73.1356 68.5866 73.4081 67.6689C73.5186 67.2965 73.832 66.6947 74.1045 66.3317C74.3768 65.9686 74.6665 65.401 74.748 65.0703C74.9841 64.1118 76.4239 62.844 78.0865 62.1303C78.8917 61.7848 79.5661 61.4468 79.5854 61.379C79.6434 61.1745 80.6857 61.0792 80.8537 61.2632C80.9398 61.3573 80.8976 61.654 80.76 61.9222C80.5974 62.2392 80.5834 62.517 80.7196 62.7156C80.9813 63.0974 81.1318 63.016 81.5083 62.2895C81.7824 61.7606 81.8563 61.7329 82.4334 61.9442C82.7783 62.0703 83.4021 62.1511 83.8197 62.1235C84.535 62.0766 84.5699 62.0468 84.4193 61.6125C84.2742 61.195 84.2963 61.1522 84.6526 61.1597C85.1184 61.1692 85.7493 61.5096 85.6898 61.7192C85.6668 61.8001 86.0803 62.4075 86.6087 63.0689C87.6198 64.3346 87.9252 65.2468 87.793 66.6073C87.7135 67.425 87.8905 68.078 88.5289 69.3207C88.7442 69.7404 88.9139 70.3004 88.9058 70.5651C88.8976 70.83 88.9937 71.0425 89.1196 71.0374C89.4959 71.0223 89.7724 70.0799 89.6865 69.1057C89.6231 68.3862 89.6773 68.1084 89.9421 67.7966C90.1269 67.5788 90.3701 67.0764 90.4826 66.6801C90.703 65.9036 90.717 65.9438 89.1673 62.9006L88.2734 61.1456L86.5693 60.5946C85.632 60.2915 84.8022 60.079 84.7251 60.1222ZM125.803 74.5219C125.908 74.71 126.062 74.7554 126.348 74.6825C126.697 74.5932 126.679 74.5608 126.202 74.4199C125.805 74.3028 125.697 74.3305 125.803 74.5219ZM85.3606 63.9769C85.0228 64.1657 85.129 64.5568 85.5505 64.6764C86.1007 64.8326 86.3135 64.3865 85.826 64.099C85.643 63.9912 85.4335 63.9364 85.3606 63.9769ZM82.5087 63.4126C82.1677 63.4569 82.1489 63.4851 82.4041 63.5691C82.9597 63.7518 83.3321 65.091 83.0788 65.9954C82.953 66.4447 82.8925 66.9566 82.9446 67.1327C83.083 67.6013 83.6568 66.7672 83.9805 65.627C84.1934 64.8767 84.1733 64.6144 83.8642 64.1057C83.4732 63.4626 83.1995 63.3227 82.5087 63.4126ZM126.326 76.4698C125.636 76.5416 125.913 76.9679 126.657 76.9791C126.976 76.984 127.298 76.8977 127.374 76.7873C127.535 76.5505 127.027 76.3966 126.326 76.4698ZM85.3183 66.5622C85.2228 66.8928 85.2279 67.1871 85.3297 67.216C85.5648 67.2827 85.7244 66.7205 85.5926 66.2898C85.5162 66.0403 85.4502 66.106 85.3183 66.5622ZM77.7495 64.5655C77.4274 64.9399 77.4376 64.9758 77.9054 65.1086C78.443 65.2612 78.9345 65.0814 79.0452 64.6915C79.0848 64.552 78.8994 64.3905 78.6041 64.3076C78.2426 64.206 77.9943 64.2811 77.7495 64.5655ZM126.974 78.7805C126.766 78.775 126.483 78.8223 126.344 78.8855C126.205 78.9487 125.891 79.0727 125.646 79.1609C125.223 79.3133 125.231 79.3306 125.808 79.5002C126.435 79.685 127.765 79.3302 127.672 79.003C127.617 78.8096 127.574 78.7959 126.974 78.7805ZM79.1293 65.4592C79.164 65.5809 79.2833 65.6546 79.3947 65.6228C79.6965 65.5369 79.6803 65.4122 79.3551 65.3199C79.1964 65.2749 79.0948 65.3375 79.1293 65.4592ZM81.6586 66.7598C81.5832 67.0253 80.3327 67.2018 79.9128 67.0061C79.7066 66.91 79.632 66.8966 79.7469 66.9762C79.8619 67.0559 79.8885 67.3581 79.8062 67.6479C79.724 67.9376 79.5408 68.1871 79.3988 68.2024C79.2498 68.2184 79.2812 68.2765 79.4731 68.3402C80.1408 68.5615 82.3562 67.2865 82.1007 66.8279C81.9754 66.6029 81.7145 66.5627 81.6586 66.7598ZM85.4633 68.1547C85.391 68.4094 85.4151 68.6415 85.517 68.6704C85.6188 68.6993 85.7612 68.5145 85.8335 68.2598C85.9058 68.0051 85.8817 67.773 85.7799 67.7441C85.6781 67.7152 85.5356 67.9 85.4633 68.1547ZM78.0891 66.6502C77.967 67.0805 78.2309 67.2083 78.5829 66.8893C78.8643 66.6345 78.858 66.58 78.5366 66.4888C78.3322 66.4308 78.1308 66.5033 78.0891 66.6502ZM40.561 56.5099C40.858 56.8484 41.4199 57.0079 41.4866 56.7726C41.5156 56.6707 41.2682 56.5118 40.9368 56.4194C40.4797 56.292 40.3891 56.3137 40.561 56.5099ZM57.3257 61.2548C57.2401 61.333 57.24 61.4733 57.3253 61.5668C57.4107 61.6601 57.5173 61.6065 57.5624 61.4477C57.6548 61.1222 57.5573 61.0429 57.3257 61.2548ZM32.9147 54.738L32.4081 54.9547L32.8213 55.1927C33.5945 55.6382 34.2593 55.3308 33.6971 54.7877C33.4987 54.5959 33.2791 54.582 32.9147 54.738ZM75.7936 67.089C75.563 67.1574 75.5197 67.2767 75.5969 67.6306C75.7317 68.2492 76.7461 68.5626 76.8967 68.032C76.9535 67.832 76.8635 67.5362 76.6965 67.3747C76.331 67.0215 76.1807 66.974 75.7936 67.089ZM126.43 81.685C126.137 81.8221 125.744 81.8906 125.556 81.8372C124.96 81.6681 125.095 82.0566 125.744 82.3801C126.257 82.6355 126.54 82.6356 127.338 82.3812C127.871 82.2109 128.27 82.0038 128.223 81.9208C128.042 81.5946 126.934 81.4489 126.43 81.685ZM81.659 69.577C81.6022 69.7773 81.7659 69.8546 83.1395 70.2765C83.8641 70.4992 84.0311 70.6225 83.9951 70.9091C83.9326 71.4058 84.0356 71.5255 84.2636 71.2211C84.6499 70.7052 84.0246 70.0483 82.8223 69.707C82.2053 69.5319 81.6883 69.474 81.659 69.577ZM32.638 56.2548C32.2395 56.3727 32.3118 56.5147 32.8909 56.7526C33.4687 56.9898 34.2737 56.9523 34.1997 56.6915C34.1256 56.4309 33.0551 56.1314 32.638 56.2548ZM123.822 82.2826C123.941 82.374 124.102 82.4127 124.181 82.3686C124.26 82.3246 124.163 82.2498 123.966 82.2024C123.748 82.1501 123.691 82.1816 123.822 82.2826ZM78.3517 69.777C78.1604 69.7731 77.9715 69.8835 77.932 70.0224C77.8896 70.1719 77.6082 70.2289 77.2422 70.1623C76.5908 70.0434 76.4303 70.3039 76.9299 70.6691C77.1221 70.8096 77.454 70.7805 77.8727 70.5865C78.2283 70.4218 78.6312 70.3189 78.7682 70.3578C78.905 70.3966 79.0525 70.3034 79.0958 70.1506C79.1745 69.8734 79.01 69.7907 78.3517 69.777ZM82.5495 71.0276C82.3503 71.2099 82.4277 71.5968 82.6776 71.6677C82.9029 71.7317 83.0467 71.2306 82.8613 71.0278C82.7831 70.9422 82.6429 70.9422 82.5495 71.0276ZM126.201 84.4223C125.763 84.5182 125.28 84.5612 125.126 84.5178C124.973 84.4743 124.813 84.5638 124.769 84.7166C124.726 84.8694 124.835 85.0355 125.012 85.0857C125.479 85.2185 127.558 84.7789 127.496 84.5604C127.414 84.2706 127.063 84.2333 126.201 84.4223ZM32.8827 58.1909C31.9112 58.1119 31.3371 58.2824 31.9107 58.4795C32.6244 58.7247 33.4018 58.8437 33.6001 58.7382C34.0464 58.5008 33.7307 58.2599 32.8827 58.1909ZM83.3568 73.2593C83.1169 73.6668 83.199 73.8174 83.7453 73.9725C84.3004 74.1301 84.3668 73.8787 83.9094 73.3507C83.5737 72.9632 83.5351 72.9568 83.3568 73.2593ZM32.7422 60.0955C32.5753 60.2683 32.2516 60.367 32.0228 60.3149C31.6747 60.2355 31.6588 60.2504 31.9257 60.4062C32.2997 60.6247 34.0245 60.5107 34.0949 60.2627C34.1931 59.9168 33.051 59.7756 32.7422 60.0955ZM74.0684 71.6538C74.0435 71.7415 74.2314 71.8725 74.4859 71.9447C74.7404 72.017 74.9578 72.044 74.9688 72.0051C74.9799 71.966 74.7921 71.835 74.5514 71.7141C74.3107 71.5931 74.0933 71.566 74.0684 71.6538ZM125.192 86.3976C123.752 86.4664 123.737 86.4711 123.918 86.7962C124.136 87.1876 125.796 87.3278 126.337 87.0004C127.275 86.4321 127.042 86.3093 125.192 86.3976ZM75.688 72.8188C75.8008 72.9064 76.009 72.9656 76.1508 72.9502C76.2927 72.935 76.2005 72.8634 75.9459 72.7911C75.6914 72.7189 75.5754 72.7314 75.688 72.8188ZM33.1987 61.4411C33.2041 61.561 33.2877 61.6816 33.3843 61.709C33.481 61.7365 33.6155 61.6777 33.683 61.5786C33.7505 61.4795 33.6671 61.3589 33.4974 61.3107C33.3276 61.2625 33.1933 61.3213 33.1987 61.4411ZM123.041 86.9284C122.949 87.0125 122.999 87.1167 123.152 87.16C123.305 87.2034 123.505 87.1701 123.596 87.0861C123.688 87.0021 123.639 86.8978 123.486 86.8545C123.333 86.8111 123.133 86.8444 123.041 86.9284ZM31.6362 61.5635C31.254 61.6005 31.2528 61.6124 31.6122 61.8241C32.0582 62.0871 32.7647 62.1303 32.8304 61.8987C32.886 61.7029 32.1959 61.5092 31.6362 61.5635ZM32.1486 63.0675C31.6515 63.0281 31.5052 63.2504 31.8552 63.5127C32.1582 63.7398 33.081 63.753 33.2131 63.532C33.3272 63.3414 32.8211 63.1205 32.1486 63.0675ZM71.1224 76.3947C71.0935 76.4965 71.1998 76.6168 71.3584 76.6618C71.5171 76.7069 71.6192 76.6458 71.5852 76.526C71.5512 76.4063 71.4451 76.2861 71.3492 76.2589C71.2533 76.2316 71.1513 76.2928 71.1224 76.3947ZM63.1635 74.8361C63.1201 74.9889 63.1812 75.1414 63.2994 75.1749C63.4175 75.2084 63.7299 75.6136 63.9939 76.0755C64.9857 77.8109 65.6389 78.6414 66.1194 78.7778C66.3871 78.8538 66.6228 78.8531 66.6433 78.7764C66.6835 78.6251 65.7201 77.4674 65.4912 77.3921C65.4144 77.3669 65.146 76.9754 64.8948 76.5222C64.6438 76.0692 64.3845 75.6831 64.3188 75.6644C64.2531 75.6458 64.0546 75.4093 63.8777 75.1389C63.4941 74.5528 63.2708 74.4582 63.1635 74.8361ZM67.6443 78.1866C67.4274 78.2509 67.4671 78.3409 67.7967 78.5307C68.042 78.672 68.2096 78.9045 68.1691 79.0474C68.1286 79.19 68.3243 79.4299 68.6041 79.5802C68.8839 79.7305 69.1781 80.0014 69.2579 80.1819C69.3377 80.3627 69.5257 80.5454 69.6757 80.588C70.0078 80.6823 70.8223 81.4722 71.2413 82.1059C71.4308 82.3927 71.6878 82.5591 71.9099 82.5391C72.2257 82.5105 72.2184 82.4309 71.8516 81.8988C71.6212 81.5646 71.2599 81.1864 71.0488 81.0582C70.8377 80.9303 70.6852 80.7537 70.7102 80.6658C70.7502 80.5247 70.2399 80.0429 68.5803 78.6558C68.3135 78.433 68.0598 78.2167 68.0167 78.175C67.9734 78.1335 67.8059 78.1388 67.6443 78.1866ZM66.838 79.1738C66.6126 79.38 66.7203 79.7491 67.032 79.8376C67.1662 79.8757 67.3442 80.0613 67.4276 80.2501C67.5969 80.6333 68.43 80.9468 68.512 80.658C68.5409 80.5561 68.4813 80.4491 68.3795 80.4202C68.2777 80.3913 68.0809 80.1641 67.9424 79.9156C67.623 79.3426 67.0641 78.9671 66.838 79.1738ZM110.848 92.0071C110.961 92.0948 111.169 92.1539 111.311 92.1385C111.453 92.1233 111.36 92.0517 111.106 91.9794C110.851 91.9072 110.735 91.9197 110.848 92.0071ZM68.8391 81.4881C68.9574 81.5795 69.119 81.6182 69.1979 81.5742C69.2768 81.5301 69.18 81.4554 68.9827 81.408C68.7645 81.3556 68.7081 81.3871 68.8391 81.4881ZM86.0077 87.0255C85.6447 87.1413 85.1253 87.1734 84.8536 87.0969C84.2189 86.9185 83.7245 86.9647 83.6552 87.2089C83.5608 87.5416 86.1175 87.9204 87.3944 87.763C88.2584 87.6564 88.5077 87.559 88.3051 87.4072C87.7633 87.001 86.6593 86.8177 86.0077 87.0255ZM69.9771 82.4117C70.0954 82.5031 70.2571 82.5418 70.336 82.4977C70.4149 82.4537 70.3181 82.3789 70.1207 82.3315C69.9025 82.2792 69.8462 82.3106 69.9771 82.4117ZM82.466 87.3599C82.6327 87.4581 82.8835 87.5259 83.0233 87.5107C83.163 87.4955 83.0265 87.4153 82.72 87.3323C82.4136 87.2494 82.2992 87.2617 82.466 87.3599ZM17.2961 73.6384C17.2198 73.9072 17.2557 74.0857 17.3791 74.0505C17.4988 74.0164 17.6426 73.8269 17.6988 73.629C17.755 73.4312 17.7176 73.2458 17.6158 73.2169C17.5139 73.188 17.3701 73.3778 17.2961 73.6384ZM31.1509 78.2097C30.6295 78.182 30.6445 78.5166 31.1714 78.6661C31.4259 78.7384 31.6564 78.7191 31.6836 78.6232C31.7522 78.3818 31.5584 78.2315 31.1509 78.2097ZM41.2175 82.9018C40.9044 83.4332 40.5565 85.8039 40.7702 85.9496C40.8788 86.0237 40.9176 86.2603 40.8565 86.4757C40.7954 86.691 40.8782 87.256 41.0405 87.7314C41.3118 88.5254 41.3918 88.6024 42.025 88.6772C42.6182 88.7475 42.7855 88.8747 43.2259 89.5894C43.5139 90.0569 43.7685 90.3109 43.8083 90.1705C43.8779 89.9254 43.5488 89.099 42.8447 87.7515C42.6488 87.3762 42.5125 86.9838 42.5421 86.8795C42.5718 86.775 42.4981 86.7175 42.3784 86.7516C42.038 86.8485 41.9248 87.5236 42.2344 87.6115C42.5463 87.7 42.4787 88.1905 42.1414 88.2865C42.0208 88.3209 41.9094 88.182 41.8939 87.9778C41.8784 87.7739 41.7742 87.5089 41.6624 87.3891C41.426 87.136 41.5759 86.4237 41.8494 86.5013C42.1356 86.5826 42.3305 85.6384 42.0681 85.4417C41.9403 85.3459 41.8428 85.0398 41.8513 84.7618C41.8598 84.4835 41.7802 84.1008 41.6747 83.9111C41.5689 83.7214 41.5266 83.4103 41.5806 83.2199C41.7169 82.7397 41.4503 82.5063 41.2175 82.9018ZM30.9891 80.5547C31.1559 80.6529 31.4067 80.7207 31.5464 80.7055C31.6862 80.6903 31.5497 80.6101 31.2432 80.5271C30.9367 80.4441 30.8224 80.4565 30.9891 80.5547ZM65.5216 90.5735C65.1258 90.9836 65.2983 92.895 65.8119 93.7881C66.0448 94.1931 66.2708 94.8161 66.3141 95.1725C66.4059 95.926 67.0386 96.346 67.7232 96.108C68.1751 95.9508 68.5361 95.1935 68.2883 94.9222C68.2147 94.8416 68.1637 94.394 68.1752 93.9274C68.2093 92.5431 67.8878 91.7384 67.1159 91.2761C66.7394 91.0505 66.4044 90.7707 66.3713 90.6542C66.2748 90.3145 65.8136 90.2709 65.5216 90.5735ZM16.9379 77.5428C16.8394 77.5987 16.7182 77.7883 16.6682 77.9643C16.6183 78.1401 16.4405 78.2964 16.2732 78.3116C16.1059 78.3267 15.8195 78.6604 15.637 79.0532C15.4545 79.446 15.2532 79.7529 15.1898 79.7352C15.0826 79.7055 13.7616 81.0522 13.3472 81.6136C13.2464 81.7501 13.0475 81.9639 12.9051 82.0886C12.4873 82.4549 11.5113 83.6975 10.7306 84.8573C9.92283 86.0575 9.35076 87.8072 9.57707 88.3854C9.71446 88.7365 9.74585 88.7436 10.0283 88.4877C10.1953 88.3363 10.7013 87.4282 11.1528 86.4697C11.6046 85.5111 12.1682 84.4981 12.4053 84.2185C12.6427 83.939 12.8562 83.6393 12.88 83.5526C12.9036 83.4658 13.397 82.8088 13.976 82.0924C14.5552 81.376 15.3378 80.3821 15.7155 79.8838C16.093 79.3854 16.5379 78.8271 16.7042 78.6429C17.0351 78.2764 17.2256 77.3793 16.9379 77.5428ZM41.3032 85.6623C41.2508 85.8806 41.2822 85.937 41.3832 85.8061C41.4747 85.6875 41.5134 85.5258 41.4694 85.4468C41.4254 85.3679 41.3507 85.4648 41.3032 85.6623ZM5.30241 76.4281C5.22663 76.6951 4.84008 77.2887 4.44325 77.7474C3.48664 78.8533 2.97387 80.1445 2.56537 82.4765C1.94283 86.0318 2.36658 85.9061 3.46162 82.2105C3.83776 80.941 4.35384 79.4661 4.60842 78.9329C5.55884 76.9433 5.78256 76.3172 5.6104 76.1288C5.50174 76.0099 5.39038 76.1182 5.30241 76.4281ZM29.469 84.1265C29.2763 84.1224 29.1444 84.2095 29.1757 84.3203C29.2865 84.7102 30.7004 84.9058 30.8027 84.5453C30.8507 84.3762 30.0981 84.1397 29.469 84.1265ZM27.5238 86.0547C27.0137 86.3707 26.9656 86.4801 27.2957 86.5738C27.6141 86.6642 28.8207 86.4394 29.026 86.2517C29.3302 85.9733 27.9478 85.7921 27.5238 86.0547ZM55.7385 93.9469C55.6951 94.0997 55.7429 94.2484 55.8447 94.2773C55.9465 94.3062 56.0653 94.2048 56.1087 94.052C56.1521 93.8991 56.1043 93.7505 56.0025 93.7216C55.9006 93.6926 55.7818 93.794 55.7385 93.9469ZM21.3416 86.5368C21.2147 86.6941 21.081 87.149 21.0445 87.5474C20.992 88.1208 21.0314 88.2187 21.2337 88.017C21.3833 87.8677 21.5064 87.4489 21.5308 87.0062C21.5632 86.4223 21.5201 86.3154 21.3416 86.5368ZM21.3669 88.8944C21.338 88.9963 21.4026 89.1047 21.5104 89.1353C21.6181 89.1659 21.6786 89.093 21.6446 88.9732C21.6106 88.8535 21.5461 88.7451 21.5011 88.7323C21.4561 88.7195 21.3958 88.7925 21.3669 88.8944ZM2.5411 85.8029C2.2801 86.1368 2.21375 87.1006 2.43518 87.343C2.5188 87.4346 2.53575 87.8668 2.47279 88.3035C2.40965 88.7402 2.44533 89.2247 2.55199 89.3803C2.65852 89.5357 2.71127 89.7846 2.6691 89.9332C2.62687 90.082 2.74259 90.7842 2.92625 91.4937C3.10986 92.2034 3.24467 92.8384 3.22574 92.9051C3.17437 93.0861 5.07309 96.3262 5.54602 96.8644C5.77139 97.1211 6.08321 97.3672 6.23852 97.4112C6.39402 97.4554 6.5779 97.6877 6.64724 97.9276C6.71657 98.1675 6.88231 98.3947 7.0156 98.4325C7.14888 98.4703 7.48457 98.7176 7.76176 98.982C8.03877 99.2464 9.06922 99.9607 10.0516 100.569C12.6738 102.194 15.9248 103.046 18.5023 102.784C20.7212 102.558 24.1812 100.67 23.5804 100.012C23.4991 99.9235 23.2569 99.9346 23.0421 100.037C21.2242 100.906 17.1618 100.74 15.995 99.7481C15.4234 99.2626 15.6392 98.4783 16.2934 98.664C16.6105 98.754 16.7853 98.6933 16.8489 98.4714C16.8999 98.2931 17.1941 97.9136 17.5026 97.6278C17.8112 97.3421 18.1386 96.8495 18.2304 96.5333C18.5447 95.4501 18.7145 95.3097 19.3224 95.63C20.7574 96.3866 22.0206 97.7305 22.0847 98.569C22.1133 98.941 22.5039 98.9826 22.6056 98.6246C22.7725 98.0366 20.9676 95.587 20.2088 95.3716C19.8181 95.2607 18.9127 94.017 18.9997 93.7104C19.0855 93.4081 18.5199 92.8242 18.2229 92.9088C17.9147 92.9965 17.7988 93.5549 17.9437 94.2554C18.0128 94.5903 17.957 95.2624 17.8198 95.7487C17.6008 96.5237 17.4501 96.7067 16.6013 97.2269C15.8058 97.7145 15.4401 97.8054 14.5556 97.7361C13.9633 97.6897 13.3486 97.5565 13.1895 97.4398C12.9001 97.2276 11.2309 94.8411 11.1906 94.5816C11.1788 94.506 11.0602 94.2107 10.9267 93.9256C10.7934 93.6406 10.7053 93.3335 10.731 93.2429C10.7867 93.047 10.333 91.6955 10.1639 91.554C10.0988 91.4993 10.0402 91.0773 10.0336 90.6163L10.0217 89.7775L9.72859 90.5753C9.56746 91.014 9.49894 91.4449 9.57618 91.5329C9.65366 91.6208 9.72246 91.9069 9.72923 92.1685C9.74302 92.6999 10.7089 95.717 11.1109 96.4851C11.8588 97.9136 13.6619 99.8375 14.7176 100.334C15.0583 100.494 15.5251 100.754 15.7553 100.912C15.9854 101.07 16.3998 101.321 16.6761 101.47C17.0642 101.678 17.1142 101.776 16.8957 101.898C16.5031 102.117 13.9001 101.348 13.1862 100.802C11.3367 99.3866 10.5959 98.7288 10.1277 98.0858C9.83927 97.6897 9.54938 97.3502 9.48367 97.3315C9.34353 97.2917 8.54466 96.3155 8.15738 95.711C8.00968 95.4801 7.80555 95.3148 7.70409 95.3439C7.38578 95.4343 7.41877 95.6937 7.77539 95.9038C8.18032 96.1425 8.08216 96.7335 7.6575 96.613C7.49626 96.5672 6.75226 95.4076 6.00401 94.036C5.25124 92.6557 4.56628 91.6129 4.47014 91.7007C4.37477 91.788 4.58952 92.5846 4.9472 93.471C5.30489 94.3574 5.53292 95.1417 5.4537 95.2143C5.21135 95.436 4.58609 95.1596 4.66901 94.8675C4.71187 94.7165 4.54062 94.2099 4.28855 93.7414C4.03642 93.2731 3.86244 92.7761 3.90187 92.6372C3.94137 92.4981 3.88849 92.2883 3.78427 92.1706C3.53589 91.89 3.18017 90.2468 3.2867 89.8715C3.33245 89.7104 3.26422 89.499 3.13492 89.4021C3.00561 89.3051 2.93805 88.8772 2.98479 88.4511C3.03154 88.025 2.96599 87.5984 2.83883 87.503C2.7118 87.4079 2.66451 87.108 2.73393 86.8367C2.80317 86.5653 2.83859 86.1572 2.81276 85.9297C2.76946 85.5495 2.74756 85.5392 2.5411 85.8029ZM8.83829 98.1492C8.87231 98.269 8.93676 98.3773 8.98175 98.3901C9.02673 98.4029 9.08705 98.3299 9.11597 98.228C9.14489 98.1261 9.08025 98.0177 8.97252 97.9871C8.86478 97.9565 8.80428 98.0294 8.83829 98.1492ZM9.23589 98.8626C9.26991 98.9823 9.42267 99.1158 9.57539 99.1591C9.72811 99.2025 9.82526 99.14 9.79124 99.0202C9.75722 98.9005 9.60447 98.767 9.45175 98.7237C9.29903 98.6803 9.20187 98.7428 9.23589 98.8626Z" fill="#A3AD7E"></path></svg> 