<?xml version="1.0" encoding="UTF-8"?> <svg xmlns="http://www.w3.org/2000/svg" width="36" height="34" viewBox="0 0 36 34" fill="none"><path fill-rule="evenodd" clip-rule="evenodd" d="M11.7741 1.87552C11.0748 2.87976 9.87006 5.65336 9.09692 8.0395C7.88534 11.777 7.6758 13.0016 7.58618 16.8788C7.52885 19.3542 7.62173 21.7642 7.7925 22.2343C8.0525 22.9509 7.95923 23.082 7.21436 23.0456C6.72585 23.0217 6.13842 22.8675 5.9087 22.7023C5.67939 22.5376 5.2357 22.556 4.92241 22.7438C4.46418 23.0182 4.44559 23.2808 4.8263 24.0909C5.0867 24.6447 5.57604 25.0975 5.91395 25.0975C6.25147 25.0975 6.52803 25.2619 6.52803 25.4626C6.52803 25.6634 6.93336 25.9522 7.42874 26.1045C8.92656 26.5655 10.4898 27.8824 10.9436 29.0667C11.1798 29.6819 11.579 30.7191 11.831 31.3718C12.0829 32.0246 12.3602 32.4892 12.4479 32.4046C12.5351 32.3197 12.4216 31.7796 12.1959 31.2039L11.7853 30.1574L13.6029 31.1898C14.6021 31.7573 15.6849 32.1236 16.0091 32.0031C16.3329 31.8826 17.6345 32.2281 18.9018 32.7714C21.6782 33.9619 24.6343 33.8762 26.0752 32.5639C27.1213 31.6114 27.9368 31.5499 29.6813 32.2919C32.8622 33.6449 36 34.3896 36 33.7909C36 33.5874 34.914 33.0371 33.5869 32.5682C32.2595 32.099 30.6426 31.2818 29.9934 30.7523C29.2687 30.1613 28.0571 29.6937 26.8552 29.541C25.0352 29.3097 24.3945 29.6271 26.1333 29.8984C26.5637 29.9657 27.2702 30.2161 27.7026 30.4553C28.3526 30.8145 28.1774 30.8693 26.6933 30.7703C24.9415 30.6533 24.2362 30.4901 22.3743 29.7704C21.4009 29.3943 21.1376 29.8463 21.9705 30.4631C22.2483 30.6686 23.111 31.0705 23.8882 31.3566C25.7587 32.0442 26.3154 32.5534 24.931 32.3099C24.143 32.1714 23.9092 32.2497 24.1199 32.5804C24.3238 32.9001 24.2431 32.9416 23.8608 32.7127C23.5551 32.5295 22.5733 32.4105 21.679 32.4485C20.5304 32.497 20.2814 32.4246 20.8308 32.2023C21.4933 31.9342 21.3141 31.7479 19.6196 30.946C18.5255 30.4279 17.4944 30.0451 17.3277 30.0948C17.1609 30.1445 17.0249 30.0232 17.0249 29.8248C17.0249 29.6267 16.4819 29.3493 15.8181 29.208C15.1548 29.0667 14.5089 28.7892 14.3829 28.5916C14.2569 28.3943 13.7551 28.0315 13.2678 27.7862L12.382 27.3396L13.3005 28.3086C13.8052 28.8417 15.1678 29.7019 16.3285 30.2208C17.4888 30.7394 18.4989 31.2967 18.5732 31.4595C18.6479 31.6223 18.8748 31.656 19.0778 31.5343C19.2809 31.4125 19.4472 31.5186 19.4472 31.7699C19.4472 32.7847 14.8504 30.7903 13.2581 29.0847C12.1693 27.918 12.099 26.2395 13.0954 25.1953C13.5577 24.7108 13.7681 24.3022 13.5626 24.2874C12.9917 24.2451 14.7204 23.5876 15.41 23.5845C15.7431 23.5829 15.5953 23.7449 15.0813 23.9449C14.5674 24.1445 14.2602 24.4858 14.3986 24.703C14.5371 24.9198 14.4124 25.1002 14.1217 25.1034C13.7378 25.1077 13.7587 25.2133 14.1988 25.4889C14.737 25.8262 14.737 25.87 14.1988 25.8861C12.7087 25.9303 15.0402 26.6559 17.2744 26.8434C19.5361 27.0328 19.5046 26.8723 17.1258 26.0884C16.0648 25.7385 15.9796 25.272 16.8266 24.451C17.1617 24.1261 17.3446 23.7168 17.2328 23.5414C16.9942 23.1677 18.1626 22.6593 18.6244 22.936C18.798 23.0397 20.2612 23.2217 21.8757 23.3403C24.8039 23.5547 25.5031 23.7281 25.5031 24.24C25.5031 24.4924 24.2084 24.6537 21.9023 24.6889C19.9289 24.719 21.612 25.299 24.2237 25.4889C26.7918 25.6755 26.9109 25.7288 26.8064 26.6387C26.6586 27.9263 26.6428 27.9317 24.9597 27.25C24.0816 26.8942 23.4845 26.8152 23.4845 27.0543C23.4845 27.2934 22.8874 27.2144 22.0093 26.8586C21.1982 26.5303 20.4465 26.3467 20.3387 26.4512C20.1211 26.6618 21.7989 27.34 23.1922 27.6046C23.686 27.6985 24.8463 28.0398 25.7704 28.3634C27.1576 28.8495 27.5754 28.8636 28.1665 28.4444C28.8359 27.9701 28.7987 27.8347 27.5965 26.3632C26.8891 25.4975 26.3106 24.6134 26.3106 24.3981C26.3106 24.1833 26.0324 23.9038 25.6929 23.7774C25.1555 23.5774 25.1817 23.3442 25.8947 21.9901C26.9856 19.917 26.9481 19.6364 25.3013 17.5457C24.5241 16.5591 23.8882 15.4985 23.8882 15.1889C23.8882 14.8798 23.6371 14.4242 23.3299 14.1773C22.8971 13.8293 22.7146 13.8716 22.5188 14.3655C22.3799 14.7162 22.0246 14.913 21.7287 14.8031C21.4328 14.6931 20.9346 14.7604 20.6217 14.9522C20.2054 15.2077 20.3415 15.3028 21.13 15.3075C23.3053 15.3197 24.2641 16.1951 22.6468 16.6926C22.1857 16.8342 21.8978 17.0366 22.0064 17.1418C22.1151 17.2475 22.5478 17.1555 22.9673 16.9376C23.5975 16.6108 23.9221 16.7744 24.8261 17.8725C25.5431 18.7433 25.8907 19.5961 25.8322 20.3408C25.7474 21.4191 25.6808 21.4582 24.5693 21.0825C22.8608 20.5052 18.5037 20.976 14.8537 22.1325C11.5455 23.1814 10.879 23.3262 11.596 22.8413C12.2141 22.4229 14.1128 19.9025 14.2679 19.294C14.4831 18.451 18.3091 14.5283 18.6923 14.7577C18.8853 14.8735 19.0435 14.8007 19.0435 14.5964C19.0435 14.3917 19.7702 13.9424 20.6584 13.598C21.5466 13.2533 22.2733 12.8631 22.2733 12.7308C22.2733 12.5985 21.9968 12.593 21.6585 12.719C21.1724 12.8999 21.1251 12.7997 21.4332 12.242C21.6948 11.7676 21.656 11.0663 21.3153 10.1055C20.7541 8.52322 19.983 7.53308 20.4449 8.98778C20.8833 10.3693 20.3334 12.6869 19.6293 12.4251C19.3124 12.3069 19.0726 12.3363 19.096 12.4901C19.2256 13.3311 18.9894 13.764 18.5389 13.5127C18.2615 13.3577 18.1642 13.3707 18.3229 13.5409C18.4815 13.7111 17.5732 14.8978 16.3043 16.1775C15.0354 17.4573 13.871 18.8314 13.7168 19.2313C13.4661 19.8826 11.7765 21.0997 11.7765 20.6289C11.7765 20.1236 12.7531 18.4443 13.047 18.4443C13.2303 18.4443 13.6461 17.8279 13.9711 17.0745C14.2957 16.3212 14.7523 15.7048 14.9857 15.7048C15.219 15.7048 15.406 15.3967 15.4011 15.0199C15.3939 14.4637 15.242 14.5185 14.5924 15.3134C14.1524 15.8515 13.6828 16.6879 13.5484 17.1724C13.1838 18.4846 12.4753 18.249 12.7773 16.916C12.9352 16.219 12.8528 15.6703 12.5645 15.4973C12.2177 15.2899 12.2375 15.1294 12.6396 14.8884C13.0825 14.6234 13.0551 14.4665 12.4947 14.0567C11.8253 13.5683 11.7284 12.4901 12.3029 11.9328C12.4576 11.7833 12.5839 11.4749 12.5839 11.2475C12.5839 11.0201 12.3263 11.1908 12.0114 11.6267C11.6925 12.0678 11.4155 13.4505 11.3868 14.7467C11.3134 18.0306 10.8511 20.506 10.2774 20.6907C9.94192 20.7984 9.82283 20.4101 9.90035 19.4591C9.96212 18.6952 9.81919 18.0068 9.58261 17.9297C9.30767 17.8396 9.36136 17.5434 9.73198 17.1082C10.0889 16.689 10.1599 16.3266 9.91649 16.1642C9.69928 16.019 9.4837 15.3862 9.43686 14.758C9.29435 12.8439 8.952 13.1049 8.92213 15.1502C8.90638 16.2088 8.72751 17.4268 8.52403 17.8573C8.28058 18.3735 8.23013 17.7074 8.37547 15.9004C8.69118 11.9805 8.90395 10.6499 9.34159 9.85739C9.55314 9.47346 9.8309 8.56276 9.95848 7.83365C10.0861 7.10414 10.2988 6.15548 10.4312 5.72498C10.8229 4.4507 13.5383 0.673642 13.7079 1.16676C13.7939 1.41645 14.0757 1.51781 14.3341 1.39258C14.5929 1.26734 14.4035 1.50842 13.9134 1.92875C13.4229 2.34868 13.1491 2.81558 13.3042 2.96625C13.4596 3.11653 13.2702 3.41162 12.8835 3.62139C12.4967 3.83116 12.1802 4.20022 12.1802 4.44169C12.1802 4.68316 11.8794 5.20251 11.512 5.59622C11.061 6.07955 11.0066 6.31202 11.3453 6.31202C11.621 6.31202 12.0526 5.78329 12.3041 5.13715C12.5557 4.49062 13.0878 3.86169 13.4862 3.73919C13.8847 3.61631 14.1265 3.38423 14.0236 3.2226C13.9206 3.06136 14.1843 2.64064 14.6094 2.28802C15.1908 1.80508 15.458 1.76359 15.6886 2.12012C16.0652 2.70208 15.8783 3.99006 15.3212 4.64873C14.5085 5.60953 15.5356 5.11797 16.4161 4.12469L17.314 3.11184L18.4105 4.41821L19.507 5.72498L18.861 4.45304C18.5062 3.75368 18.0382 3.18111 17.8218 3.18111C17.6054 3.18111 17.2926 3.17172 17.1258 3.16037C16.9591 3.14863 16.5965 2.72048 16.32 2.20857C16.0434 1.69667 15.4528 1.16598 15.0079 1.029C14.563 0.892023 14.1988 0.616109 14.1988 0.41534C14.1988 -0.538023 12.917 0.233751 11.7741 1.87552ZM14.4035 5.91635C14.2622 6.13786 14.4241 6.20361 14.7834 6.07016C15.4826 5.8099 15.6107 5.52929 15.0301 5.52929C14.821 5.52929 14.5392 5.70345 14.4035 5.91635ZM18.251 7.38984C17.4884 8.16669 17.1274 8.6696 17.4492 8.50679C17.771 8.34398 17.6814 8.488 17.2506 8.82692C16.5453 9.38149 16.5368 9.44293 17.1682 9.44293C17.5542 9.44293 18.1795 8.9142 18.5578 8.26806C18.9357 7.62231 19.4727 7.17615 19.75 7.27751C20.3153 7.48376 20.3948 7.13154 19.9398 6.43804C19.7343 6.12495 19.1937 6.42943 18.251 7.38984ZM13.3914 9.07466C13.3914 9.30244 13.573 9.38031 13.7951 9.24725C14.0171 9.11418 14.1988 8.92789 14.1988 8.83279C14.1988 8.73769 14.0171 8.6602 13.7951 8.6602C13.573 8.6602 13.3914 8.84689 13.3914 9.07466ZM12.5839 10.2488C12.5839 10.4765 12.7656 10.5544 12.9876 10.4213C13.2097 10.2883 13.3914 10.102 13.3914 10.0069C13.3914 9.91178 13.2097 9.83429 12.9876 9.83429C12.7656 9.83429 12.5839 10.021 12.5839 10.2488ZM9.43283 11.9868C9.44091 12.6325 9.53134 12.8494 9.63388 12.4686C9.73643 12.0878 9.72956 11.5594 9.61894 11.2945C9.50832 11.0295 9.42476 11.341 9.43283 11.9868ZM14.527 12.0823C13.3873 13.3679 13.2545 13.9483 14.3571 12.8239C14.9607 12.2079 15.3829 11.6346 15.2953 11.5496C15.2077 11.4643 14.8617 11.7042 14.527 12.0823ZM17.0249 12.3782C16.7447 12.7057 16.7007 12.9652 16.926 12.9652C17.148 12.9652 17.5558 12.701 17.8323 12.3782C18.1125 12.0506 18.1565 11.7911 17.9312 11.7911C17.7092 11.7911 17.3015 12.0553 17.0249 12.3782ZM15.6118 13.7479C15.4746 13.9632 15.6458 14.1393 15.9918 14.1393C16.3377 14.1393 16.6212 13.9632 16.6212 13.7479C16.6212 13.5327 16.4504 13.3566 16.2413 13.3566C16.0321 13.3566 15.7491 13.5327 15.6118 13.7479ZM18.3039 18.2494C16.3826 19.1163 13.747 20.7925 14.305 20.7925C14.4229 20.7925 15.6183 20.2641 16.9607 19.6184C18.3035 18.9726 19.5486 18.4388 19.7274 18.4318C19.9063 18.4251 20.4057 18.161 20.8365 17.8447C22.0824 16.9313 20.7545 17.1434 18.3039 18.2494ZM1.27959 18.9926C1.27959 19.0791 1.96108 19.5229 2.79356 19.9788L4.30753 20.8078L3.09636 19.8239C1.9853 18.921 1.27959 18.5981 1.27959 18.9926ZM0.0890186 21.5631C-0.173807 21.7204 0.164508 21.8613 0.851649 21.8801C1.53112 21.8989 2.08705 21.8586 2.08705 21.7905C2.08705 21.4868 0.514545 21.3079 0.0890186 21.5631ZM8.86235 21.9341C8.47235 22.439 8.48285 22.4687 8.91807 22.0949C9.21198 21.8429 9.70292 21.7294 10.0089 21.8433C10.315 21.9572 10.5653 21.8848 10.5653 21.6825C10.5653 21.0864 9.38235 21.2613 8.86235 21.9341ZM18.0342 21.8492C15.7128 22.3756 12.9489 23.2338 13.1007 23.3806C13.3506 23.6228 17.3467 22.7481 18.8086 22.1309C20.0238 21.6183 19.6507 21.4825 18.0342 21.8492ZM21.4114 22.1419C22.973 22.8401 24.1345 22.9215 24.4938 22.3579C24.6311 22.1427 24.4147 21.9646 24.013 21.9623C23.6113 21.9599 22.5559 21.8629 21.6677 21.7462L20.0528 21.5345L21.4114 22.1419ZM7.02097 23.9872C7.10696 24.2373 7.49575 24.4874 7.88453 24.5425C8.45257 24.6235 8.49821 24.5339 8.11588 24.0878C7.54299 23.4185 6.80215 23.3504 7.02097 23.9872ZM11.147 24.1406C10.4082 24.7147 10.4212 24.7226 11.3727 24.2835C12.6085 23.7128 12.8374 23.532 12.3247 23.532C12.1079 23.532 11.5782 23.806 11.147 24.1406ZM5.63176 27.4277L4.53401 28.5458L5.59461 28.2707C6.26116 28.0981 6.70568 27.6754 6.79086 27.1338C6.95881 26.0677 6.9697 26.0649 5.63176 27.4277ZM9.0307 28.4241C9.0307 28.8546 9.17646 29.6471 9.3541 30.1852C9.61006 30.9601 9.6775 31.0008 9.6775 30.3809C9.6775 29.9504 9.53174 29.1579 9.3541 28.6198C9.09814 27.8449 9.0307 27.8042 9.0307 28.4241Z" fill="#A3AD7E"></path></svg> 